<svg width="1920" height="551" viewBox="0 0 1920 551" fill="none" xmlns="http://www.w3.org/2000/svg">
<rect width="1920" height="551" fill="#01133C"/>
<g opacity="0.07" clip-path="url(#clip0_1_27791)">
<mask id="mask0_1_27791" style="mask-type:luminance" maskUnits="userSpaceOnUse" x="0" y="-15" width="1920" height="924">
<path d="M1920 -14.6221H0V908.455H1920V-14.6221Z" fill="white"/>
</mask>
<g mask="url(#mask0_1_27791)">
<path d="M1225.52 -54.3219C1225.52 -54.9219 1225.45 -55.5035 1225.43 -56.0998L1234.89 -59.6204L1230.41 -79.2635L1220.39 -78.3349C1219.91 -79.4278 1219.39 -80.5022 1218.84 -81.5601L1225.81 -88.8118L1213.25 -104.565L1204.63 -99.381C1203.72 -100.151 1202.77 -100.865 1201.82 -101.58L1204.97 -111.172L1186.81 -119.914L1181.28 -111.479C1180.13 -111.778 1178.98 -112.088 1177.8 -112.319L1176.48 -122.271H1156.33L1155.01 -112.319C1153.83 -112.088 1152.69 -111.778 1151.54 -111.479L1146 -119.914L1127.85 -111.172L1130.99 -101.58C1130.04 -100.865 1129.09 -100.151 1128.19 -99.381L1119.56 -104.565L1107 -88.8118L1113.97 -81.5601C1113.42 -80.5041 1112.91 -79.4278 1112.42 -78.3349L1102.41 -79.2635L1097.92 -59.6204L1107.38 -56.0998C1107.36 -55.5035 1107.29 -54.9219 1107.29 -54.3219C1107.29 -53.7219 1107.36 -53.1404 1107.38 -52.5441L1097.92 -49.0235L1102.41 -29.3804L1112.42 -30.309C1112.91 -29.2161 1113.42 -28.1416 1113.97 -27.0838L1107 -19.8321L1119.56 -4.07886L1128.19 -9.26287C1129.09 -8.49302 1130.04 -7.77856 1130.99 -7.0641L1127.85 2.52851L1146 11.2701L1151.54 2.83498C1152.69 3.13405 1153.83 3.44421 1155.01 3.67498L1156.33 13.6294H1176.48L1177.8 3.67498C1178.98 3.44421 1180.13 3.13405 1181.28 2.83498L1186.81 11.2701L1204.97 2.52851L1201.82 -7.0641C1202.77 -7.77856 1203.72 -8.49302 1204.63 -9.26287L1213.25 -4.07886L1225.81 -19.8321L1218.84 -27.0838C1219.39 -28.1398 1219.91 -29.2161 1220.4 -30.309L1230.41 -29.3804L1234.89 -49.0235L1225.43 -52.5441C1225.45 -53.1404 1225.52 -53.7219 1225.52 -54.3219ZM1166.4 -8.6961C1141.2 -8.6961 1120.78 -29.1238 1120.78 -54.3219C1120.78 -79.5201 1141.2 -99.9478 1166.4 -99.9478C1191.6 -99.9478 1212.03 -79.5201 1212.03 -54.3219C1212.03 -29.1238 1191.6 -8.6961 1166.4 -8.6961Z" stroke="white" stroke-width="2.0102" stroke-miterlimit="10"/>
</g>
<mask id="mask1_1_27791" style="mask-type:luminance" maskUnits="userSpaceOnUse" x="0" y="-15" width="1920" height="924">
<path d="M1920 -14.6221H0V908.455H1920V-14.6221Z" fill="white"/>
</mask>
<g mask="url(#mask1_1_27791)">
<path d="M1791.96 206.111C1791.96 205.841 1791.92 205.579 1791.92 205.311L1804.46 199.808L1797.96 179.807L1784.59 182.724C1784.28 182.286 1783.95 181.867 1783.63 181.442L1790.55 169.607L1773.54 157.245L1764.43 167.473C1763.92 167.297 1763.42 167.103 1762.9 166.946L1761.55 153.348H1740.52L1739.16 166.946C1738.65 167.103 1738.14 167.295 1737.64 167.473L1728.53 157.245L1711.51 169.607L1718.43 181.442C1718.11 181.867 1717.78 182.286 1717.47 182.724L1704.1 179.807L1697.6 199.808L1710.14 205.311C1710.14 205.581 1710.1 205.841 1710.1 206.111C1710.1 206.38 1710.14 206.642 1710.14 206.91L1697.6 212.413L1704.1 232.415L1717.47 229.498C1717.78 229.935 1718.11 230.354 1718.43 230.779L1711.51 242.615L1728.53 254.977L1737.64 244.749C1738.14 244.924 1738.65 245.118 1739.16 245.275L1740.52 258.874H1761.55L1762.9 245.275C1763.42 245.118 1763.92 244.926 1764.43 244.749L1773.54 254.977L1790.55 242.615L1783.63 230.779C1783.95 230.354 1784.28 229.935 1784.59 229.498L1797.96 232.415L1804.46 212.413L1791.92 206.91C1791.92 206.642 1791.96 206.38 1791.96 206.111ZM1751.03 237.126C1733.9 237.126 1720.02 223.239 1720.02 206.111C1720.02 188.982 1733.9 175.095 1751.03 175.095C1768.16 175.095 1782.05 188.982 1782.05 206.111C1782.05 223.239 1768.16 237.126 1751.03 237.126Z" stroke="white" stroke-width="2.0102" stroke-miterlimit="10"/>
</g>
<mask id="mask2_1_27791" style="mask-type:luminance" maskUnits="userSpaceOnUse" x="0" y="-15" width="1920" height="924">
<path d="M1920 -14.6221H0V908.455H1920V-14.6221Z" fill="white"/>
</mask>
<g mask="url(#mask2_1_27791)">
<path d="M1930.09 66.0618C1930.09 63.0193 1929.85 60.0359 1929.5 57.0895L1947.65 49.4242L1939.75 25.1104L1920.59 29.5707C1917.65 24.3092 1914.07 19.4722 1910 15.0876L1920.19 -1.81022L1899.51 -16.8361L1886.6 -1.93391C1881.22 -4.4336 1875.52 -6.35545 1869.54 -7.52406L1867.86 -27.1191H1842.3L1840.62 -7.52406C1834.64 -6.35545 1828.94 -4.4336 1823.56 -1.93391L1810.65 -16.8361L1789.97 -1.81022L1800.17 15.0876C1796.1 19.4722 1792.51 24.3073 1789.58 29.5707L1770.42 25.1104L1762.52 49.4242L1780.66 57.0895C1780.31 60.0378 1780.08 63.0193 1780.08 66.0618C1780.08 69.1042 1780.31 72.0876 1780.66 75.0341L1762.52 82.6975L1770.42 107.011L1789.58 102.551C1792.51 107.813 1796.1 112.649 1800.17 117.032L1789.97 133.93L1810.66 148.956L1823.56 134.054C1828.95 136.553 1834.64 138.475 1840.62 139.644L1842.3 159.239H1867.87L1869.54 139.644C1875.53 138.475 1881.22 136.553 1886.6 134.054L1899.51 148.956L1920.19 133.93L1910 117.032C1914.07 112.648 1917.65 107.813 1920.59 102.551L1939.75 107.011L1947.65 82.6975L1929.5 75.0341C1929.85 72.0876 1930.09 69.1042 1930.09 66.0618ZM1855.08 121.991C1824.19 121.991 1799.15 96.9516 1799.15 66.0618C1799.15 35.1738 1824.19 10.1326 1855.08 10.1326C1885.97 10.1326 1911.01 35.1719 1911.01 66.0618C1911.01 96.9516 1885.97 121.991 1855.08 121.991Z" stroke="white" stroke-width="2.0102" stroke-miterlimit="10"/>
</g>
<mask id="mask3_1_27791" style="mask-type:luminance" maskUnits="userSpaceOnUse" x="0" y="-15" width="1920" height="924">
<path d="M1920 -14.6221H0V908.455H1920V-14.6221Z" fill="white"/>
</mask>
<g mask="url(#mask3_1_27791)">
<path d="M1879 628.866V508.906C1896.13 500.252 1904.66 480.073 1898.17 461.449C1893.72 448.644 1883.24 439.657 1871.02 436.539L1883.51 472.43L1843.01 486.529L1830.51 450.64C1822.87 460.674 1820.24 474.225 1824.69 487.028C1829.28 500.198 1840.24 509.296 1852.91 512.156V628.868C1840.39 634.007 1831.56 646.308 1831.56 660.684C1831.56 679.678 1846.96 695.076 1865.95 695.076C1884.95 695.076 1900.34 679.678 1900.34 660.684C1900.35 646.306 1891.52 634.006 1879 628.866ZM1865.96 683.305C1853.38 683.305 1843.19 673.113 1843.19 660.54C1843.19 647.968 1853.38 637.775 1865.96 637.775C1878.53 637.775 1888.72 647.968 1888.72 660.54C1888.72 673.113 1878.53 683.305 1865.96 683.305Z" stroke="white" stroke-width="2.0102" stroke-miterlimit="10"/>
</g>
<mask id="mask4_1_27791" style="mask-type:luminance" maskUnits="userSpaceOnUse" x="0" y="-15" width="1920" height="924">
<path d="M1920 -14.6221H0V908.455H1920V-14.6221Z" fill="white"/>
</mask>
<g mask="url(#mask4_1_27791)">
<path d="M1647.67 -24.8537V104.418C1629.21 113.744 1620.02 135.488 1627 155.56C1631.81 169.358 1643.1 179.043 1656.27 182.405L1642.81 143.728L1686.45 128.534L1699.92 167.211C1708.15 156.398 1710.99 141.797 1706.19 127.997C1701.25 113.804 1689.43 104 1675.78 100.917V-24.8537C1689.27 -30.3922 1698.79 -43.6476 1698.79 -59.1387C1698.79 -79.607 1682.19 -96.2002 1661.73 -96.2002C1641.26 -96.2002 1624.66 -79.607 1624.66 -59.1387C1624.66 -43.6476 1634.18 -30.3903 1647.67 -24.8537ZM1661.72 -83.5171C1675.27 -83.5171 1686.26 -72.5344 1686.26 -58.9854C1686.26 -45.4365 1675.27 -34.4537 1661.72 -34.4537C1648.17 -34.4537 1637.19 -45.4365 1637.19 -58.9854C1637.19 -72.5344 1648.17 -83.5171 1661.72 -83.5171Z" stroke="white" stroke-width="2.0102" stroke-miterlimit="10"/>
</g>
<mask id="mask5_1_27791" style="mask-type:luminance" maskUnits="userSpaceOnUse" x="0" y="-15" width="1920" height="924">
<path d="M1920 -14.6221H0V908.455H1920V-14.6221Z" fill="white"/>
</mask>
<g mask="url(#mask5_1_27791)">
<path d="M1970.02 217.53C1969.19 216.581 1967.73 216.514 1966.8 217.363L1966.47 217.663C1948.56 198.043 1922.79 185.715 1894.19 185.715C1865.6 185.715 1839.83 198.045 1821.92 217.663L1821.59 217.363C1820.66 216.514 1819.2 216.581 1818.37 217.53C1802.4 235.847 1793.62 259.218 1793.62 283.6C1793.62 304.142 1799.74 323.803 1811.34 340.615C1812.05 341.654 1813.5 341.885 1814.52 341.146L1814.89 340.88C1832.69 365.456 1861.6 381.487 1894.2 381.487C1926.79 381.487 1955.7 365.456 1973.5 340.88L1973.87 341.146C1974.89 341.885 1976.34 341.654 1977.06 340.615C1988.65 323.803 1994.77 304.142 1994.77 283.6C1994.76 259.218 1985.99 235.847 1970.02 217.53ZM1894.19 200.466C1918.48 200.466 1940.3 211 1955.51 227.663L1955.01 228.127C1954.1 228.955 1954.04 230.346 1954.84 231.278C1962.65 240.32 1968.26 250.893 1971.39 262.234C1963.58 267.715 1953.68 269.844 1944.03 267.494L1917.71 261.09C1911.78 254.894 1903.45 251.017 1894.19 251.017C1884.94 251.017 1876.6 254.894 1870.67 261.09L1844.36 267.494C1834.71 269.844 1824.8 267.715 1816.99 262.234C1820.12 250.895 1825.73 240.322 1833.54 231.278C1834.35 230.347 1834.29 228.955 1833.38 228.127L1832.87 227.663C1848.08 211 1869.9 200.466 1894.19 200.466ZM1826.89 332.2L1827.45 331.788C1828.45 331.068 1828.67 329.695 1827.97 328.679C1822.78 321.069 1819.04 312.717 1816.75 303.939C1824.64 295.41 1839.26 289.369 1866.77 301.155C1869.54 305.469 1873.29 309.077 1877.72 311.68C1886.44 328.764 1889.03 362.912 1864.17 361.039C1849.12 355.181 1836.22 345.088 1826.89 332.2ZM1924.22 361.037C1899.36 362.909 1901.94 328.762 1910.67 311.678C1915.09 309.075 1918.85 305.469 1921.61 301.155C1949.13 289.371 1963.74 295.411 1971.64 303.941C1969.35 312.719 1965.61 321.071 1960.41 328.681C1959.72 329.696 1959.94 331.07 1960.93 331.79L1961.5 332.202C1952.17 345.088 1939.26 355.181 1924.22 361.037Z" stroke="white" stroke-width="2.0102" stroke-miterlimit="10"/>
<path d="M1915.37 286.866C1917.16 275.146 1909.11 264.193 1897.4 262.402C1885.68 260.61 1874.72 268.659 1872.93 280.378C1871.14 292.098 1879.19 303.051 1890.91 304.842C1902.63 306.634 1913.58 298.585 1915.37 286.866Z" stroke="white" stroke-width="2.0102" stroke-miterlimit="10"/>
<path d="M1894.19 295.754C1887.49 295.754 1882.04 290.3 1882.04 283.598C1882.04 276.895 1887.49 271.443 1894.19 271.443C1900.9 271.443 1906.35 276.895 1906.35 283.598C1906.35 290.3 1900.9 295.754 1894.19 295.754Z" stroke="white" stroke-width="2.0102" stroke-miterlimit="10"/>
</g>
<mask id="mask6_1_27791" style="mask-type:luminance" maskUnits="userSpaceOnUse" x="0" y="-15" width="1920" height="924">
<path d="M1920 -14.6221H0V908.455H1920V-14.6221Z" fill="white"/>
</mask>
<g mask="url(#mask6_1_27791)">
<path d="M1370.74 62.771L1315.05 9.43932C1310.26 4.85163 1303.88 2.29102 1297.25 2.29102H1246.61C1243.32 2.29102 1240.1 3.31563 1237.41 5.22455C1233.22 8.20609 1230.72 13.0356 1230.72 18.1846V36.7421C1230.72 39.2326 1231.71 41.6196 1233.47 43.3809L1235.26 45.1679C1236.21 46.1224 1236.75 47.4147 1236.75 48.7624V52.0504C1235.21 52.3513 1234.06 53.7009 1234.06 55.3218V60.0886C1234.06 61.7095 1235.21 63.059 1236.75 63.3599V65.531C1235.21 65.8319 1234.06 67.1815 1234.06 68.8043V73.571C1234.06 75.1919 1235.21 76.5415 1236.75 76.8424V79.0135C1235.21 79.3144 1234.06 80.6639 1234.06 82.2849V87.0516C1234.06 88.6726 1235.21 90.0221 1236.75 90.323V92.4941C1235.21 92.795 1234.06 94.1446 1234.06 95.7655V100.532C1234.06 102.153 1235.21 103.503 1236.75 103.804V105.975C1235.21 106.276 1234.06 107.625 1234.06 109.246V114.013C1234.06 115.634 1235.21 116.983 1236.75 117.284V122.985C1236.75 123.722 1236.45 124.429 1235.93 124.949L1232.2 128.688C1230.43 130.449 1229.45 132.836 1229.45 135.327V143.348C1229.45 152.125 1236.56 159.24 1245.34 159.24H1362.78C1371.55 159.24 1378.67 152.125 1378.67 143.348V81.3544C1378.67 74.3372 1375.8 67.6246 1370.74 62.771ZM1338.84 71.1858H1293.59C1291.39 71.1858 1289.61 69.4061 1289.61 67.2092V21.9599C1289.61 19.8018 1291.34 18.0369 1293.49 17.9852C1294.58 17.9593 1295.63 18.3802 1296.4 19.1482L1341.65 64.3975C1344.16 66.9027 1342.38 71.1858 1338.84 71.1858Z" stroke="white" stroke-width="2.0102" stroke-miterlimit="10"/>
<path d="M1344.62 135.191H1263.49C1255.63 135.191 1249.26 128.82 1249.26 120.959V99.2681C1249.26 91.4091 1255.63 85.0361 1263.49 85.0361H1344.62C1352.49 85.0361 1358.86 91.4091 1358.86 99.2681V120.959C1358.86 128.82 1352.49 135.191 1344.62 135.191Z" stroke="white" stroke-width="2.0102" stroke-miterlimit="10"/>
<path d="M1275.17 72.5031H1257C1253.19 72.5031 1250.11 69.4182 1250.11 65.6133V24.8742C1250.11 21.0693 1253.19 17.9844 1257 17.9844H1275.17C1278.97 17.9844 1282.06 21.0693 1282.06 24.8742V65.6114C1282.06 69.4164 1278.97 72.5031 1275.17 72.5031Z" stroke="white" stroke-width="2.0102" stroke-miterlimit="10"/>
</g>
<mask id="mask7_1_27791" style="mask-type:luminance" maskUnits="userSpaceOnUse" x="0" y="-15" width="1920" height="924">
<path d="M1920 -14.6221H0V908.455H1920V-14.6221Z" fill="white"/>
</mask>
<g mask="url(#mask7_1_27791)">
<path d="M1803.65 547.952H1754.17C1752.59 547.952 1751.3 546.663 1751.3 545.076V540.661C1751.3 539.074 1752.59 537.785 1754.17 537.785H1803.65C1805.24 537.785 1806.53 539.072 1806.53 540.661V545.076C1806.53 546.663 1805.24 547.952 1803.65 547.952Z" stroke="white" stroke-width="2.0102" stroke-miterlimit="10"/>
<path d="M1787.55 387.446H1780.8H1772.16H1770.28C1768.73 387.446 1767.48 388.7 1767.48 390.243V405.751H1771.59H1780.8H1790.35V390.243C1790.35 388.7 1789.1 387.446 1787.55 387.446Z" stroke="white" stroke-width="2.0102" stroke-miterlimit="10"/>
<path d="M1791.81 499.182H1766.02V529.673H1791.81V499.182Z" stroke="white" stroke-width="2.0102" stroke-miterlimit="10"/>
<path d="M1750.97 499.182L1746.62 501.648V527.21L1750.97 529.675H1766.02V499.182H1750.97Z" stroke="white" stroke-width="2.0102" stroke-miterlimit="10"/>
<path d="M1806.85 499.182H1799.31H1795.06H1791.81V529.675H1795.06H1799.31H1806.85L1811.21 527.21V501.648L1806.85 499.182Z" stroke="white" stroke-width="2.0102" stroke-miterlimit="10"/>
<path d="M1797.57 419.724V416.364C1797.57 413.622 1795.35 411.399 1792.61 411.399H1778.92H1769.71H1765.22C1762.48 411.399 1760.26 413.622 1760.26 416.364V419.724H1762.76V422.75H1762.72C1761.36 422.75 1760.26 423.85 1760.26 425.207C1760.26 426.564 1761.36 427.664 1762.72 427.664H1762.76V429.165H1762.72C1761.36 429.165 1760.26 430.265 1760.26 431.622C1760.26 432.979 1761.36 434.079 1762.72 434.079H1762.76V435.58H1762.72C1761.36 435.58 1760.26 436.681 1760.26 438.038C1760.26 439.394 1761.36 440.495 1762.72 440.495H1762.76V441.996H1762.72C1761.36 441.996 1760.26 443.096 1760.26 444.453C1760.26 445.81 1761.36 446.91 1762.72 446.91H1762.76V448.411H1762.72C1761.36 448.411 1760.26 449.511 1760.26 450.868C1760.26 452.225 1761.36 453.326 1762.72 453.326H1762.76V458.078C1761.29 458.834 1760.26 460.324 1760.26 462.093V484.103H1762.76V492.261H1787.74H1795.06V484.103H1797.57V462.093C1797.57 460.324 1796.53 458.834 1795.06 458.078V453.326H1795.11C1796.47 453.326 1797.57 452.225 1797.57 450.868C1797.57 449.511 1796.47 448.411 1795.11 448.411H1795.06V446.91H1795.11C1796.47 446.91 1797.57 445.81 1797.57 444.453C1797.57 443.096 1796.47 441.996 1795.11 441.996H1795.06V440.495H1795.11C1796.47 440.495 1797.57 439.394 1797.57 438.038C1797.57 436.681 1796.47 435.58 1795.11 435.58H1795.06V434.079H1795.11C1796.47 434.079 1797.57 432.979 1797.57 431.622C1797.57 430.265 1796.47 429.165 1795.11 429.165H1795.06V427.664H1795.11C1796.47 427.664 1797.57 426.564 1797.57 425.207C1797.57 423.85 1796.47 422.75 1795.11 422.75H1795.06V419.724H1797.57Z" stroke="white" stroke-width="2.0102" stroke-miterlimit="10"/>
</g>
<mask id="mask8_1_27791" style="mask-type:luminance" maskUnits="userSpaceOnUse" x="0" y="-15" width="1920" height="924">
<path d="M1920 -14.6221H0V908.455H1920V-14.6221Z" fill="white"/>
</mask>
<g mask="url(#mask8_1_27791)">
<path d="M1614.93 52.9529V15.1105L1592.54 12.6606C1590.54 4.94372 1587.51 -2.33567 1583.56 -9.03905L1597.65 -26.5923L1570.89 -53.3504L1553.34 -39.2606C1546.64 -43.2095 1539.36 -46.2427 1531.64 -48.2421L1529.19 -70.623H1491.35L1488.9 -48.2403C1481.18 -46.2409 1473.9 -43.2077 1467.2 -39.2587L1449.65 -53.3486L1422.89 -26.5904L1436.98 -9.0372C1433.03 -2.33381 1430 4.94557 1428 12.6625L1405.62 15.1123V52.9548L1428 55.4046C1430 63.1216 1433.03 70.4009 1436.98 77.1043L1422.89 94.6576L1449.65 121.416L1467.2 107.326C1473.9 111.273 1481.18 114.306 1488.9 116.307L1491.35 138.69H1529.19L1531.64 116.307C1539.36 114.308 1546.64 111.275 1553.34 107.326L1570.89 121.416L1597.65 94.6576L1583.56 77.1043C1587.51 70.4009 1590.54 63.1216 1592.54 55.4046L1614.93 52.9529ZM1510.27 102.221C1472.61 102.221 1442.08 71.6914 1442.08 34.0317C1442.08 -3.62797 1472.61 -34.1578 1510.27 -34.1578C1547.93 -34.156 1578.46 -3.62797 1578.46 34.0317C1578.46 71.6914 1547.93 102.221 1510.27 102.221Z" stroke="white" stroke-width="2.0102" stroke-miterlimit="10" stroke-dasharray="5.77 5.77"/>
</g>
<mask id="mask9_1_27791" style="mask-type:luminance" maskUnits="userSpaceOnUse" x="0" y="-15" width="1920" height="924">
<path d="M1920 -14.6221H0V908.455H1920V-14.6221Z" fill="white"/>
</mask>
<g mask="url(#mask9_1_27791)">
<path d="M1597.31 148.357H1570.31L1556.8 171.748L1570.31 195.139H1597.31L1610.82 171.748L1597.31 148.357ZM1583.81 185.349C1576.3 185.349 1570.21 179.258 1570.21 171.746C1570.21 164.234 1576.3 158.144 1583.81 158.144C1591.32 158.144 1597.41 164.234 1597.41 171.746C1597.41 179.26 1591.32 185.349 1583.81 185.349Z" stroke="white" stroke-width="2.0102" stroke-miterlimit="10"/>
</g>
<mask id="mask10_1_27791" style="mask-type:luminance" maskUnits="userSpaceOnUse" x="0" y="-15" width="1920" height="924">
<path d="M1920 -14.6221H0V908.455H1920V-14.6221Z" fill="white"/>
</mask>
<g mask="url(#mask10_1_27791)">
<path d="M1197.24 41.8027H1186.71L1181.45 50.9154L1186.71 60.028H1197.24L1202.5 50.9154L1197.24 41.8027Z" stroke="white" stroke-width="2.0102" stroke-miterlimit="10"/>
</g>
<mask id="mask11_1_27791" style="mask-type:luminance" maskUnits="userSpaceOnUse" x="0" y="-15" width="1920" height="924">
<path d="M1920 -14.6221H0V908.455H1920V-14.6221Z" fill="white"/>
</mask>
<g mask="url(#mask11_1_27791)">
<path d="M1905.61 402.564H1895.09L1889.82 411.677L1895.09 420.79H1905.61L1910.87 411.677L1905.61 402.564Z" stroke="white" stroke-width="2.0102" stroke-miterlimit="10"/>
</g>
<mask id="mask12_1_27791" style="mask-type:luminance" maskUnits="userSpaceOnUse" x="0" y="-15" width="1920" height="924">
<path d="M1920 -14.6221H0V908.455H1920V-14.6221Z" fill="white"/>
</mask>
<g mask="url(#mask12_1_27791)">
<path d="M1787.24 342.354H1776.72L1771.46 351.466L1776.72 360.579H1787.24L1792.5 351.466L1787.24 342.354Z" stroke="white" stroke-width="2.0102" stroke-miterlimit="10"/>
</g>
<mask id="mask13_1_27791" style="mask-type:luminance" maskUnits="userSpaceOnUse" x="0" y="-15" width="1920" height="924">
<path d="M1920 -14.6221H0V908.455H1920V-14.6221Z" fill="white"/>
</mask>
<g mask="url(#mask13_1_27791)">
<path d="M1856.7 384.773H1829.69L1816.18 408.164L1829.69 431.555H1856.7L1870.2 408.164L1856.7 384.773ZM1843.19 421.767C1835.68 421.767 1829.59 415.676 1829.59 408.164C1829.59 400.652 1835.68 394.562 1843.19 394.562C1850.71 394.562 1856.8 400.652 1856.8 408.164C1856.8 415.676 1850.71 421.767 1843.19 421.767Z" stroke="white" stroke-width="2.0102" stroke-miterlimit="10"/>
</g>
<mask id="mask14_1_27791" style="mask-type:luminance" maskUnits="userSpaceOnUse" x="0" y="-15" width="1920" height="924">
<path d="M1920 -14.6221H0V908.455H1920V-14.6221Z" fill="white"/>
</mask>
<g mask="url(#mask14_1_27791)">
<path d="M1740.57 69.7575V62.3655L1734.87 61.531C1734.57 60.5673 1734.19 59.6424 1733.72 58.7692L1737.16 54.1482L1731.94 48.9218L1727.31 52.363C1726.44 51.8959 1725.51 51.5119 1724.55 51.2165L1723.72 45.5156H1716.32L1715.49 51.2165C1714.53 51.5101 1713.6 51.8959 1712.73 52.363L1708.11 48.9218L1702.88 54.1482L1706.32 58.7692C1705.86 59.6442 1705.47 60.5673 1705.18 61.531L1699.48 62.3655V69.7575L1705.18 70.5901C1705.47 71.5538 1705.86 72.4787 1706.32 73.3538L1702.88 77.9747L1708.11 83.2012L1712.73 79.7581C1713.6 80.2252 1714.53 80.6092 1715.49 80.9045L1716.32 86.6055H1723.72L1724.55 80.9045C1725.51 80.611 1726.44 80.2252 1727.31 79.7581L1731.94 83.2012L1737.16 77.9747L1733.72 73.3538C1734.19 72.4787 1734.57 71.5556 1734.87 70.5901L1740.57 69.7575ZM1720.02 76.4332C1714.3 76.4332 1709.65 71.7901 1709.65 66.0633C1709.65 60.3365 1714.3 55.6935 1720.02 55.6935C1725.75 55.6935 1730.39 60.3365 1730.39 66.0633C1730.39 71.7901 1725.75 76.4332 1720.02 76.4332Z" stroke="white" stroke-width="2.0102" stroke-miterlimit="10"/>
</g>
<mask id="mask15_1_27791" style="mask-type:luminance" maskUnits="userSpaceOnUse" x="0" y="-15" width="1920" height="924">
<path d="M1920 -14.6221H0V908.455H1920V-14.6221Z" fill="white"/>
</mask>
<g mask="url(#mask15_1_27791)">
<path d="M1936.21 569.504V562.112L1930.5 561.277C1930.21 560.314 1929.82 559.389 1929.36 558.515L1932.8 553.894L1927.57 548.668L1922.95 552.111C1922.08 551.644 1921.16 551.26 1920.19 550.965L1919.36 545.264H1911.97L1911.13 550.965C1910.17 551.258 1909.24 551.644 1908.37 552.111L1903.75 548.668L1898.52 553.894L1901.96 558.515C1901.5 559.39 1901.11 560.314 1900.82 561.277L1895.12 562.112V569.504L1900.82 570.338C1901.11 571.302 1901.5 572.227 1901.96 573.1L1898.52 577.721L1903.75 582.947L1908.37 579.504C1909.24 579.971 1910.17 580.357 1911.13 580.651L1911.97 586.352H1919.36L1920.19 580.651C1921.16 580.357 1922.08 579.971 1922.95 579.504L1927.57 582.947L1932.8 577.721L1929.36 573.1C1929.82 572.225 1930.21 571.302 1930.5 570.338L1936.21 569.504ZM1915.66 576.178C1909.93 576.178 1905.29 571.534 1905.29 565.808C1905.29 560.081 1909.93 555.438 1915.66 555.438C1921.39 555.438 1926.03 560.081 1926.03 565.808C1926.03 571.534 1921.39 576.178 1915.66 576.178Z" stroke="white" stroke-width="2.0102" stroke-miterlimit="10"/>
</g>
<mask id="mask16_1_27791" style="mask-type:luminance" maskUnits="userSpaceOnUse" x="0" y="-15" width="1920" height="924">
<path d="M1920 -14.6221H0V908.455H1920V-14.6221Z" fill="white"/>
</mask>
<g mask="url(#mask16_1_27791)">
<path d="M1419.77 142.14C1419.77 148.559 1414.57 153.764 1408.15 153.764C1401.73 153.764 1396.52 148.559 1396.52 142.14C1396.52 131.894 1408.15 123.612 1408.15 123.612C1408.15 123.612 1419.77 131.894 1419.77 142.14Z" stroke="white" stroke-width="2.0102" stroke-miterlimit="10"/>
</g>
<mask id="mask17_1_27791" style="mask-type:luminance" maskUnits="userSpaceOnUse" x="0" y="-15" width="1920" height="924">
<path d="M1920 -14.6221H0V908.455H1920V-14.6221Z" fill="white"/>
</mask>
<g mask="url(#mask17_1_27791)">
<path d="M1752.19 21.4361C1752.19 27.8552 1746.98 33.0595 1740.56 33.0595C1734.15 33.0595 1728.94 27.8552 1728.94 21.4361C1728.94 11.1899 1740.56 2.90625 1740.56 2.90625C1740.56 2.90625 1752.19 11.1918 1752.19 21.4361Z" stroke="white" stroke-width="2.0102" stroke-miterlimit="10"/>
</g>
<mask id="mask18_1_27791" style="mask-type:luminance" maskUnits="userSpaceOnUse" x="0" y="-15" width="1920" height="924">
<path d="M1920 -14.6221H0V908.455H1920V-14.6221Z" fill="white"/>
</mask>
<g mask="url(#mask18_1_27791)">
<path d="M1510.27 87.1422C1539.61 87.1422 1563.38 63.364 1563.38 34.032C1563.38 4.7001 1539.61 -19.0781 1510.27 -19.0781C1480.94 -19.0781 1457.16 4.7001 1457.16 34.032C1457.16 63.364 1480.94 87.1422 1510.27 87.1422Z" stroke="white" stroke-width="2.0102" stroke-miterlimit="10" stroke-dasharray="5.27 5.27"/>
<path d="M1510.27 77.0719C1534.04 77.0719 1553.31 57.8025 1553.31 34.0325C1553.31 10.2626 1534.04 -9.00684 1510.27 -9.00684C1486.5 -9.00684 1467.23 10.2626 1467.23 34.0325C1467.23 57.8025 1486.5 77.0719 1510.27 77.0719Z" stroke="white" stroke-width="2.0102" stroke-miterlimit="10"/>
</g>
<mask id="mask19_1_27791" style="mask-type:luminance" maskUnits="userSpaceOnUse" x="0" y="-15" width="1920" height="924">
<path d="M1920 -14.6221H0V908.455H1920V-14.6221Z" fill="white"/>
</mask>
<g mask="url(#mask19_1_27791)">
<path d="M694.567 -52.5441L685.107 -49.0235L689.59 -29.3804L699.605 -30.309C700.093 -29.2161 700.608 -28.1416 701.158 -27.0838L694.187 -19.8321L706.75 -4.07886L715.373 -9.26287C716.28 -8.49302 717.227 -7.77856 718.179 -7.0641L715.034 2.52851L733.187 11.2701L738.722 2.83498C739.874 3.13405 741.018 3.44421 742.196 3.67498L743.518 13.6294H763.667L764.989 3.67498C766.167 3.44421 767.311 3.13405 768.463 2.83498L773.998 11.2701L792.151 2.52851L789.005 -7.0641C789.958 -7.77856 790.905 -8.49302 791.811 -9.26287L800.435 -4.07886L812.998 -19.8321L806.032 -27.0838C806.583 -28.1398 807.099 -29.2161 807.585 -30.309L817.598 -29.3804L822.083 -49.0235L812.623 -52.5441C812.64 -53.1404 812.712 -53.7219 812.712 -54.3219C812.712 -54.9219 812.64 -55.5035 812.623 -56.0998L822.083 -59.6204L817.598 -79.2635L807.585 -78.3349C807.098 -79.4278 806.581 -80.5022 806.032 -81.5601L813.003 -88.8118L800.44 -104.565L791.817 -99.381C790.91 -100.151 789.962 -100.865 789.011 -101.58L792.157 -111.172L774.003 -119.914L768.469 -111.479C767.317 -111.778 766.172 -112.088 764.994 -112.319L763.672 -122.271H743.522L742.2 -112.319C741.022 -112.088 739.875 -111.778 738.725 -111.479L733.191 -119.914L715.037 -111.172L718.183 -101.58C717.231 -100.865 716.282 -100.151 715.377 -99.381L706.754 -104.565L694.191 -88.8118L701.162 -81.5601C700.611 -80.5041 700.095 -79.4278 699.609 -78.3349L689.594 -79.2635L685.111 -59.6204L694.571 -56.0998C694.552 -55.5035 694.482 -54.9219 694.482 -54.3219C694.477 -53.7219 694.549 -53.1404 694.567 -52.5441ZM707.968 -54.3219C707.968 -79.5201 728.396 -99.9478 753.594 -99.9478C778.792 -99.9478 799.22 -79.5201 799.22 -54.3219C799.22 -29.1238 778.792 -8.6961 753.594 -8.6961C728.398 -8.6961 707.968 -29.1238 707.968 -54.3219Z" stroke="white" stroke-width="2.0102" stroke-miterlimit="10"/>
</g>
<mask id="mask20_1_27791" style="mask-type:luminance" maskUnits="userSpaceOnUse" x="0" y="-15" width="1920" height="924">
<path d="M1920 -14.6221H0V908.455H1920V-14.6221Z" fill="white"/>
</mask>
<g mask="url(#mask20_1_27791)">
<path d="M128.078 206.91L115.535 212.413L122.034 232.415L135.405 229.498C135.712 229.935 136.04 230.354 136.363 230.779L129.444 242.615L146.458 254.977L155.569 244.749C156.077 244.924 156.577 245.118 157.094 245.275L158.449 258.874H179.479L180.834 245.275C181.351 245.118 181.851 244.926 182.359 244.749L191.469 254.977L208.483 242.615L201.566 230.779C201.887 230.354 202.218 229.935 202.524 229.498L215.896 232.415L222.394 212.413L209.851 206.91C209.857 206.641 209.892 206.38 209.892 206.111C209.892 205.841 209.857 205.579 209.851 205.311L222.394 199.808L215.896 179.807L202.524 182.724C202.219 182.286 201.889 181.867 201.566 181.442L208.483 169.607L191.469 157.245L182.359 167.473C181.851 167.297 181.351 167.103 180.834 166.946L179.479 153.348H158.449L157.094 166.946C156.577 167.103 156.077 167.295 155.569 167.473L146.458 157.245L129.444 169.607L136.363 181.442C136.04 181.867 135.71 182.286 135.405 182.724L122.034 179.807L115.535 199.808L128.078 205.311C128.072 205.581 128.037 205.841 128.037 206.111C128.037 206.38 128.072 206.642 128.078 206.91ZM137.947 206.111C137.947 188.982 151.832 175.095 168.963 175.095C186.093 175.095 199.978 188.982 199.978 206.111C199.978 223.239 186.093 237.126 168.963 237.126C151.832 237.126 137.947 223.239 137.947 206.111Z" stroke="white" stroke-width="2.0102" stroke-miterlimit="10"/>
</g>
<mask id="mask21_1_27791" style="mask-type:luminance" maskUnits="userSpaceOnUse" x="0" y="-15" width="1920" height="924">
<path d="M1920 -14.6221H0V908.455H1920V-14.6221Z" fill="white"/>
</mask>
<g mask="url(#mask21_1_27791)">
<path d="M-9.50465 75.0362L-27.6523 82.6995L-19.7527 107.013L-0.591421 102.553C2.34581 107.815 5.9292 112.652 9.99996 117.034L-0.194497 133.932L20.488 148.958L33.3963 134.056C38.7778 136.556 44.475 138.477 50.4547 139.646L52.1329 159.241H77.6984L79.3766 139.646C85.3581 138.477 91.0535 136.556 96.435 134.056L109.343 148.958L130.026 133.932L119.831 117.034C123.902 112.65 127.486 107.815 130.423 102.553L149.584 107.013L157.484 82.6995L139.338 75.0362C139.689 72.0878 139.923 69.1063 139.923 66.0638C139.923 63.0214 139.689 60.038 139.338 57.0915L157.484 49.4263L149.584 25.1125L130.423 29.5728C127.486 24.3112 123.902 19.4743 119.831 15.0897L130.026 -1.80816L109.343 -16.834L96.435 -1.93185C91.0535 -4.43154 85.3581 -6.35339 79.3766 -7.522L77.6984 -27.1152H52.1347L50.4547 -7.52016C44.4732 -6.35154 38.776 -4.4297 33.3963 -1.93L20.488 -16.8322L-0.192652 -1.80631L10.0018 15.0915C5.93104 19.4761 2.3495 24.3112 -0.589575 29.5746L-19.7508 25.1143L-27.6505 49.4282L-9.50281 57.0934C-9.85542 60.0417 -10.0899 63.0232 -10.0899 66.0657C-10.0917 69.1045 -9.85727 72.0878 -9.50465 75.0362ZM8.98827 66.062C8.98827 35.174 34.0295 10.1328 64.9175 10.1328C95.8055 10.1328 120.847 35.1722 120.847 66.062C120.847 96.95 95.8074 121.991 64.9175 121.991C34.0277 121.991 8.98827 96.9518 8.98827 66.062Z" stroke="white" stroke-width="2.0102" stroke-miterlimit="10"/>
</g>
<mask id="mask22_1_27791" style="mask-type:luminance" maskUnits="userSpaceOnUse" x="0" y="-15" width="1920" height="924">
<path d="M1920 -14.6221H0V908.455H1920V-14.6221Z" fill="white"/>
</mask>
<g mask="url(#mask22_1_27791)">
<path d="M19.6523 660.682C19.6523 679.676 35.0493 695.074 54.0443 695.074C73.0394 695.074 88.4363 679.676 88.4363 660.682C88.4363 646.306 79.6099 634.005 67.0856 628.866V512.154C79.7557 509.292 90.7182 500.196 95.3022 487.026C99.7588 474.221 97.1262 460.67 89.4831 450.638L76.9902 486.527L36.4856 472.428L48.9785 436.537C36.757 439.657 26.28 448.644 21.8216 461.447C15.3416 480.073 23.8708 500.252 41.0031 508.906V628.866C28.4788 634.005 19.6523 646.306 19.6523 660.682ZM31.2794 660.54C31.2794 647.968 41.472 637.775 54.0443 637.775C66.6167 637.775 76.8093 647.968 76.8093 660.54C76.8093 673.113 66.6167 683.305 54.0443 683.305C41.472 683.305 31.2794 673.113 31.2794 660.54Z" stroke="white" stroke-width="2.0102" stroke-miterlimit="10"/>
</g>
<mask id="mask23_1_27791" style="mask-type:luminance" maskUnits="userSpaceOnUse" x="0" y="-15" width="1920" height="924">
<path d="M1920 -14.6221H0V908.455H1920V-14.6221Z" fill="white"/>
</mask>
<g mask="url(#mask23_1_27791)">
<path d="M295.34 -59.1389C295.34 -79.6072 278.747 -96.2004 258.278 -96.2004C237.81 -96.2004 221.217 -79.6072 221.217 -59.1389C221.217 -43.6478 230.728 -30.3906 244.226 -24.854V100.917C230.571 104 218.758 113.803 213.818 127.996C209.016 141.795 211.851 156.398 220.087 167.211L233.549 128.534L277.198 143.728L263.734 182.404C276.904 179.043 288.194 169.358 292.999 155.56C299.985 135.49 290.795 113.746 272.333 104.417V-24.854C285.827 -30.3906 295.34 -43.6478 295.34 -59.1389ZM282.81 -58.9857C282.81 -45.4367 271.827 -34.454 258.278 -34.454C244.73 -34.454 233.747 -45.4367 233.747 -58.9857C233.747 -72.5346 244.73 -83.5174 258.278 -83.5174C271.827 -83.5174 282.81 -72.5346 282.81 -58.9857Z" stroke="white" stroke-width="2.0102" stroke-miterlimit="10"/>
</g>
<mask id="mask24_1_27791" style="mask-type:luminance" maskUnits="userSpaceOnUse" x="0" y="-15" width="1920" height="924">
<path d="M1920 -14.6221H0V908.455H1920V-14.6221Z" fill="white"/>
</mask>
<g mask="url(#mask24_1_27791)">
<path d="M-74.7617 283.6C-74.7617 304.142 -68.6454 323.803 -57.0497 340.615C-56.3334 341.654 -54.886 341.885 -53.8633 341.146L-53.494 340.88C-35.6934 365.456 -6.78818 381.487 25.8094 381.487C58.4069 381.487 87.3121 365.456 105.113 340.88L105.482 341.146C106.505 341.885 107.952 341.654 108.668 340.615C120.264 323.803 126.38 304.142 126.38 283.6C126.38 259.218 117.611 235.847 101.636 217.53C100.808 216.581 99.3472 216.514 98.4167 217.363L98.09 217.663C80.1767 198.043 54.41 185.715 25.813 185.715C-2.78388 185.715 -28.5525 198.045 -46.4639 217.663L-46.7906 217.363C-47.7211 216.514 -49.1814 216.581 -50.0103 217.53C-65.9925 235.847 -74.7617 259.218 -74.7617 283.6ZM87.1293 227.663L86.6217 228.127C85.7134 228.955 85.6524 230.346 86.4574 231.278C94.2666 240.32 99.8771 250.893 103.008 262.234C95.1989 267.715 85.2924 269.844 75.6407 267.494L49.3275 261.09C43.3958 254.894 35.0623 251.017 25.8075 251.017C16.5527 251.017 8.2192 254.894 2.28751 261.09L-24.0257 267.494C-33.6774 269.844 -43.5857 267.715 -51.3931 262.234C-48.2602 250.895 -42.6516 240.322 -34.8423 231.278C-34.0374 230.347 -34.0983 228.955 -35.0066 228.127L-35.5143 227.663C-20.302 211 1.51766 200.466 25.8075 200.466C50.0955 200.466 71.9152 211 87.1293 227.663ZM55.8315 361.037C30.9749 362.909 33.5595 328.762 42.2807 311.678C46.7078 309.075 50.4611 305.469 53.2284 301.153C80.7454 289.369 95.3595 295.408 103.256 303.937C100.961 312.715 97.2223 321.069 92.0272 328.677C91.3349 329.693 91.5509 331.066 92.5478 331.786L93.1164 332.198C83.7823 345.088 70.8777 355.181 55.8315 361.037ZM-41.4996 332.2L-40.931 331.788C-39.934 331.068 -39.718 329.695 -40.4103 328.679C-45.6054 321.069 -49.3439 312.717 -51.6386 303.939C-43.7426 295.41 -29.1285 289.369 -1.61157 301.153C1.15581 305.467 4.91089 309.073 9.33612 311.676C18.0574 328.76 20.642 362.909 -4.21465 361.035C-19.2626 355.181 -32.1673 345.088 -41.4996 332.2Z" stroke="white" stroke-width="2.0102" stroke-miterlimit="10"/>
<path d="M40.9854 298.778C49.3687 290.395 49.3687 276.803 40.9854 268.419C32.602 260.036 19.01 260.036 10.6266 268.419C2.2433 276.803 2.24331 290.395 10.6266 298.778C19.01 307.161 32.602 307.161 40.9854 298.778Z" stroke="white" stroke-width="2.0102" stroke-miterlimit="10"/>
<path d="M13.6504 283.598C13.6504 276.895 19.1039 271.443 25.8055 271.443C32.507 271.443 37.9605 276.895 37.9605 283.598C37.9605 290.3 32.5089 295.754 25.8055 295.754C19.1039 295.754 13.6504 290.3 13.6504 283.598Z" stroke="white" stroke-width="2.0102" stroke-miterlimit="10"/>
</g>
<mask id="mask25_1_27791" style="mask-type:luminance" maskUnits="userSpaceOnUse" x="0" y="-15" width="1920" height="924">
<path d="M1920 -14.6221H0V908.455H1920V-14.6221Z" fill="white"/>
</mask>
<g mask="url(#mask25_1_27791)">
<path d="M541.33 81.3526V143.346C541.33 152.123 548.445 159.238 557.222 159.238H674.661C683.438 159.238 690.555 152.123 690.555 143.346V135.325C690.555 132.834 689.565 130.445 687.804 128.686L684.065 124.948C683.545 124.427 683.253 123.72 683.253 122.983V117.282C684.785 116.981 685.941 115.632 685.941 114.011V109.244C685.941 107.623 684.785 106.274 683.253 105.973V103.802C684.785 103.501 685.941 102.151 685.941 100.53V95.7636C685.941 94.1427 684.785 92.7932 683.253 92.4922V90.3212C684.785 90.0203 685.941 88.6707 685.941 87.0498V82.283C685.941 80.6621 684.785 79.3126 683.253 79.0116V76.8406C684.785 76.5396 685.941 75.1901 685.941 73.5692V68.8024C685.941 67.1815 684.785 65.8319 683.253 65.5292V63.3599C684.785 63.059 685.941 61.7095 685.941 60.0886V55.3218C685.941 53.7009 684.785 52.3513 683.253 52.0504V48.7624C683.253 47.4147 683.789 46.1206 684.741 45.1679L686.528 43.3809C688.289 41.6196 689.277 39.2326 689.277 36.7421V18.1846C689.277 13.0356 686.783 8.20609 682.585 5.22455C679.897 3.31563 676.681 2.29102 673.385 2.29102H622.744C616.112 2.29102 609.736 4.85163 604.947 9.43932L549.261 62.771C544.195 67.6246 541.33 74.3372 541.33 81.3526ZM578.347 64.3975L623.597 19.1482C624.366 18.3784 625.417 17.9575 626.506 17.9852C628.664 18.0369 630.385 19.8018 630.385 21.9599V67.2092C630.385 69.4061 628.605 71.1858 626.408 71.1858H581.159C577.616 71.1858 575.842 66.9027 578.347 64.3975Z" stroke="white" stroke-width="2.0102" stroke-miterlimit="10"/>
<path d="M575.375 135.191H656.511C664.372 135.191 670.743 128.82 670.743 120.959V99.2681C670.743 91.4072 664.372 85.0361 656.511 85.0361H575.377C567.516 85.0361 561.145 91.4072 561.145 99.2681V120.959C561.143 128.82 567.514 135.191 575.375 135.191Z" stroke="white" stroke-width="2.0102" stroke-miterlimit="10"/>
<path d="M644.833 72.5031H662.999C666.804 72.5031 669.889 69.4182 669.889 65.6133V24.8742C669.889 21.0693 666.804 17.9844 662.999 17.9844H644.833C641.028 17.9844 637.943 21.0693 637.943 24.8742V65.6114C637.943 69.4164 641.028 72.5031 644.833 72.5031Z" stroke="white" stroke-width="2.0102" stroke-miterlimit="10"/>
</g>
<mask id="mask26_1_27791" style="mask-type:luminance" maskUnits="userSpaceOnUse" x="0" y="-15" width="1920" height="924">
<path d="M1920 -14.6221H0V908.455H1920V-14.6221Z" fill="white"/>
</mask>
<g mask="url(#mask26_1_27791)">
<path d="M116.347 547.952H165.828C167.415 547.952 168.704 546.663 168.704 545.076V540.662C168.704 539.074 167.417 537.785 165.828 537.785H116.347C114.759 537.785 113.471 539.072 113.471 540.662V545.076C113.471 546.663 114.757 547.952 116.347 547.952Z" stroke="white" stroke-width="2.0102" stroke-miterlimit="10"/>
<path d="M132.451 387.446H139.208H147.846H149.728C151.273 387.446 152.524 388.7 152.524 390.243V405.751H148.413H139.208H129.654V390.243C129.654 388.7 130.906 387.446 132.451 387.446Z" stroke="white" stroke-width="2.0102" stroke-miterlimit="10"/>
<path d="M153.982 499.182H128.193V529.673H153.982V499.182Z" stroke="white" stroke-width="2.0102" stroke-miterlimit="10"/>
<path d="M169.03 499.182L173.386 501.648V527.21L169.03 529.675H153.982V499.182H169.03Z" stroke="white" stroke-width="2.0102" stroke-miterlimit="10"/>
<path d="M113.146 499.182H120.693H124.939H128.192V529.675H124.939H120.693H113.146L108.791 527.21V501.648L113.146 499.182Z" stroke="white" stroke-width="2.0102" stroke-miterlimit="10"/>
<path d="M122.432 419.724V416.364C122.432 413.622 124.654 411.399 127.396 411.399H141.087H150.292H154.778C157.52 411.399 159.742 413.622 159.742 416.364V419.724H157.235V422.75H157.285C158.642 422.75 159.742 423.85 159.742 425.207C159.742 426.564 158.642 427.664 157.285 427.664H157.235V429.165H157.285C158.642 429.165 159.742 430.265 159.742 431.622C159.742 432.979 158.642 434.079 157.285 434.079H157.235V435.58H157.285C158.642 435.58 159.742 436.681 159.742 438.038C159.742 439.394 158.642 440.495 157.285 440.495H157.235V441.996H157.285C158.642 441.996 159.742 443.096 159.742 444.453C159.742 445.81 158.642 446.91 157.285 446.91H157.235V448.411H157.285C158.642 448.411 159.742 449.511 159.742 450.868C159.742 452.225 158.642 453.326 157.285 453.326H157.235V458.078C158.707 458.834 159.742 460.324 159.742 462.093V484.103H157.235V492.261H132.262H124.941V484.103H122.433V462.093C122.433 460.324 123.471 458.834 124.941 458.078V453.326H124.891C123.534 453.326 122.433 452.225 122.433 450.868C122.433 449.511 123.534 448.411 124.891 448.411H124.941V446.91H124.891C123.534 446.91 122.433 445.81 122.433 444.453C122.433 443.096 123.534 441.996 124.891 441.996H124.941V440.495H124.891C123.534 440.495 122.433 439.394 122.433 438.038C122.433 436.681 123.534 435.58 124.891 435.58H124.941V434.079H124.891C123.534 434.079 122.433 432.979 122.433 431.622C122.433 430.265 123.534 429.165 124.891 429.165H124.941V427.664H124.891C123.534 427.664 122.433 426.564 122.433 425.207C122.433 423.85 123.534 422.75 124.891 422.75H124.941V419.724H122.432Z" stroke="white" stroke-width="2.0102" stroke-miterlimit="10"/>
</g>
<mask id="mask27_1_27791" style="mask-type:luminance" maskUnits="userSpaceOnUse" x="0" y="-15" width="1920" height="924">
<path d="M1920 -14.6221H0V908.455H1920V-14.6221Z" fill="white"/>
</mask>
<g mask="url(#mask27_1_27791)">
<path d="M327.457 55.4027C329.456 63.1196 332.491 70.399 336.439 77.1024L322.349 94.6556L349.107 121.414L366.66 107.324C373.363 111.273 380.643 114.304 388.36 116.305L390.81 138.688H428.652L431.102 116.305C438.819 114.306 446.098 111.273 452.802 107.324L470.355 121.414L497.113 94.6556L483.023 77.1024C486.972 70.399 490.003 63.1196 492.005 55.4027L514.386 52.9529V15.1104L492.005 12.6605C490.005 4.94361 486.972 -2.33577 483.023 -9.03916L497.113 -26.5924L470.355 -53.3505L452.802 -39.2607C446.098 -43.2078 438.819 -46.241 431.102 -48.2422L428.652 -70.625H390.81L388.36 -48.2441C380.643 -46.2447 373.363 -43.2115 366.66 -39.2625L349.107 -53.3524L322.349 -26.5905L336.439 -9.03731C332.491 -2.33392 329.456 4.94546 327.457 12.6624L305.074 15.1122V52.9547L327.457 55.4027ZM341.541 34.0316C341.541 -3.62808 372.071 -34.1579 409.729 -34.1579C447.389 -34.1579 477.919 -3.62808 477.919 34.0316C477.919 71.6913 447.389 102.221 409.729 102.221C372.069 102.221 341.541 71.6913 341.541 34.0316Z" stroke="white" stroke-width="2.0102" stroke-miterlimit="10" stroke-dasharray="5.77 5.77"/>
</g>
<mask id="mask28_1_27791" style="mask-type:luminance" maskUnits="userSpaceOnUse" x="0" y="-15" width="1920" height="924">
<path d="M1920 -14.6221H0V908.455H1920V-14.6221Z" fill="white"/>
</mask>
<g mask="url(#mask28_1_27791)">
<path d="M309.18 171.746L322.684 195.137H349.694L363.198 171.746L349.694 148.355H322.684L309.18 171.746ZM322.586 171.746C322.586 164.234 328.677 158.144 336.189 158.144C343.701 158.144 349.791 164.234 349.791 171.746C349.791 179.258 343.701 185.349 336.189 185.349C328.677 185.349 322.586 179.26 322.586 171.746Z" stroke="white" stroke-width="2.0102" stroke-miterlimit="10"/>
</g>
<mask id="mask29_1_27791" style="mask-type:luminance" maskUnits="userSpaceOnUse" x="0" y="-15" width="1920" height="924">
<path d="M1920 -14.6221H0V908.455H1920V-14.6221Z" fill="white"/>
</mask>
<g mask="url(#mask29_1_27791)">
<path d="M717.502 50.9154L722.764 60.028H733.285L738.546 50.9154L733.285 41.8027H722.764L717.502 50.9154Z" stroke="white" stroke-width="2.0102" stroke-miterlimit="10"/>
</g>
<mask id="mask30_1_27791" style="mask-type:luminance" maskUnits="userSpaceOnUse" x="0" y="-15" width="1920" height="924">
<path d="M1920 -14.6221H0V908.455H1920V-14.6221Z" fill="white"/>
</mask>
<g mask="url(#mask30_1_27791)">
<path d="M9.12891 411.677L14.3904 420.79H24.9135L30.1751 411.677L24.9135 402.564H14.3904L9.12891 411.677Z" stroke="white" stroke-width="2.0102" stroke-miterlimit="10"/>
</g>
<mask id="mask31_1_27791" style="mask-type:luminance" maskUnits="userSpaceOnUse" x="0" y="-15" width="1920" height="924">
<path d="M1920 -14.6221H0V908.455H1920V-14.6221Z" fill="white"/>
</mask>
<g mask="url(#mask31_1_27791)">
<path d="M127.496 351.464L132.758 360.577H143.281L148.542 351.464L143.281 342.352H132.758L127.496 351.464Z" stroke="white" stroke-width="2.0102" stroke-miterlimit="10"/>
</g>
<mask id="mask32_1_27791" style="mask-type:luminance" maskUnits="userSpaceOnUse" x="0" y="-15" width="1920" height="924">
<path d="M1920 -14.6221H0V908.455H1920V-14.6221Z" fill="white"/>
</mask>
<g mask="url(#mask32_1_27791)">
<path d="M49.7988 408.164L63.3034 431.555H90.3127L103.817 408.164L90.3127 384.773H63.3034L49.7988 408.164ZM63.2038 408.164C63.2038 400.652 69.2942 394.562 76.8062 394.562C84.3182 394.562 90.4087 400.652 90.4087 408.164C90.4087 415.676 84.3182 421.767 76.8062 421.767C69.2942 421.767 63.2038 415.676 63.2038 408.164Z" stroke="white" stroke-width="2.0102" stroke-miterlimit="10"/>
</g>
<mask id="mask33_1_27791" style="mask-type:luminance" maskUnits="userSpaceOnUse" x="0" y="-15" width="1920" height="924">
<path d="M1920 -14.6221H0V908.455H1920V-14.6221Z" fill="white"/>
</mask>
<g mask="url(#mask33_1_27791)">
<path d="M185.135 70.592C185.428 71.5557 185.814 72.4807 186.281 73.3557L182.838 77.9767L188.064 83.2031L192.685 79.76C193.56 80.2271 194.483 80.6111 195.447 80.9065L196.282 86.6074H203.674L204.508 80.9065C205.472 80.613 206.397 80.2271 207.27 79.76L211.891 83.2031L217.117 77.9767L213.674 73.3557C214.141 72.4807 214.527 71.5576 214.821 70.592L220.522 69.7594V62.3674L214.821 61.533C214.527 60.5693 214.141 59.6443 213.674 58.7711L217.117 54.1502L211.891 48.9237L207.27 52.365C206.395 51.8979 205.472 51.5139 204.508 51.2185L203.674 45.5176H196.282L195.447 51.2185C194.483 51.512 193.559 51.8979 192.685 52.365L188.064 48.9237L182.838 54.1502L186.281 58.7711C185.814 59.6462 185.428 60.5693 185.135 61.533L179.434 62.3674V69.7594L185.135 70.592ZM189.608 66.0616C189.608 60.3348 194.251 55.6917 199.978 55.6917C205.704 55.6917 210.347 60.3348 210.347 66.0616C210.347 71.7883 205.704 76.4314 199.978 76.4314C194.251 76.4333 189.608 71.7902 189.608 66.0616Z" stroke="white" stroke-width="2.0102" stroke-miterlimit="10"/>
</g>
<mask id="mask34_1_27791" style="mask-type:luminance" maskUnits="userSpaceOnUse" x="0" y="-15" width="1920" height="924">
<path d="M1920 -14.6221H0V908.455H1920V-14.6221Z" fill="white"/>
</mask>
<g mask="url(#mask34_1_27791)">
<path d="M-10.506 570.335C-10.2125 571.299 -9.82662 572.224 -9.35954 573.097L-12.8026 577.718L-7.57615 582.944L-2.95523 579.501C-2.08015 579.968 -1.15708 580.354 -0.193385 580.648L0.641076 586.349H8.03308L8.86754 580.648C9.83123 580.354 10.7562 579.968 11.6294 579.501L16.2503 582.944L21.4768 577.718L18.0337 573.097C18.5008 572.222 18.8848 571.299 19.1802 570.335L24.8811 569.501V562.109L19.1802 561.274C18.8866 560.311 18.5008 559.386 18.0337 558.512L21.4768 553.892L16.2503 548.665L11.6294 552.108C10.7543 551.641 9.83123 551.257 8.86754 550.962L8.03308 545.261H0.642923L-0.191538 550.962C-1.15523 551.255 -2.08015 551.641 -2.95338 552.108L-7.57431 548.665L-12.8008 553.892L-9.35769 558.512C-9.82477 559.388 -10.2106 560.311 -10.5042 561.274L-16.2051 562.109V569.501L-10.506 570.335ZM-6.03277 565.807C-6.03277 560.08 -1.38969 555.437 4.33708 555.437C10.0638 555.437 14.7069 560.08 14.7069 565.807C14.7069 571.533 10.0638 576.176 4.33708 576.176C-1.38969 576.176 -6.03277 571.533 -6.03277 565.807Z" stroke="white" stroke-width="2.0102" stroke-miterlimit="10"/>
</g>
<mask id="mask35_1_27791" style="mask-type:luminance" maskUnits="userSpaceOnUse" x="0" y="-15" width="1920" height="924">
<path d="M1920 -14.6221H0V908.455H1920V-14.6221Z" fill="white"/>
</mask>
<g mask="url(#mask35_1_27791)">
<path d="M500.225 142.14C500.225 148.559 505.429 153.764 511.848 153.764C518.267 153.764 523.471 148.559 523.471 142.14C523.471 131.894 511.848 123.612 511.848 123.612C511.848 123.612 500.225 131.894 500.225 142.14Z" stroke="white" stroke-width="2.0102" stroke-miterlimit="10"/>
</g>
<mask id="mask36_1_27791" style="mask-type:luminance" maskUnits="userSpaceOnUse" x="0" y="-15" width="1920" height="924">
<path d="M1920 -14.6221H0V908.455H1920V-14.6221Z" fill="white"/>
</mask>
<g mask="url(#mask36_1_27791)">
<path d="M167.812 21.4361C167.812 27.8552 173.017 33.0595 179.436 33.0595C185.855 33.0595 191.059 27.8552 191.059 21.4361C191.059 11.1899 179.436 2.90625 179.436 2.90625C179.436 2.90625 167.812 11.1918 167.812 21.4361Z" stroke="white" stroke-width="2.0102" stroke-miterlimit="10"/>
</g>
<mask id="mask37_1_27791" style="mask-type:luminance" maskUnits="userSpaceOnUse" x="0" y="-15" width="1920" height="924">
<path d="M1920 -14.6221H0V908.455H1920V-14.6221Z" fill="white"/>
</mask>
<g mask="url(#mask37_1_27791)">
<path d="M409.729 87.1422C439.061 87.1422 462.839 63.364 462.839 34.032C462.839 4.7001 439.061 -19.0781 409.729 -19.0781C380.397 -19.0781 356.619 4.7001 356.619 34.032C356.619 63.364 380.397 87.1422 409.729 87.1422Z" stroke="white" stroke-width="2.0102" stroke-miterlimit="10" stroke-dasharray="5.27 5.27"/>
<path d="M409.729 77.0719C433.499 77.0719 452.768 57.8025 452.768 34.0325C452.768 10.2626 433.499 -9.00684 409.729 -9.00684C385.959 -9.00684 366.689 10.2626 366.689 34.0325C366.689 57.8025 385.959 77.0719 409.729 77.0719Z" stroke="white" stroke-width="2.0102" stroke-miterlimit="10"/>
</g>
<g opacity="0.4">
<mask id="mask38_1_27791" style="mask-type:luminance" maskUnits="userSpaceOnUse" x="864" y="-123" width="192" height="192">
<mask id="path-98-inside-1_1_27791" fill="white">
<path d="M1033.71 -17.7353C1033.65 -17.2537 1033.59 -16.7721 1033.51 -16.2906C1033.47 -16.0066 1033.42 -15.7226 1033.38 -15.4386C1033.33 -15.1546 1033.29 -14.8829 1033.24 -14.5989C1033.15 -14.1174 1033.07 -13.6358 1032.97 -13.1666C1032.96 -13.0801 1032.93 -12.9937 1032.92 -12.9196C1032.89 -12.7961 1032.87 -12.6603 1032.84 -12.5368C1032.6 -11.3515 1032.34 -10.1661 1032.03 -8.99303C1031.92 -8.56086 1031.81 -8.14103 1031.68 -7.70886L1050.42 4.87351L1044.17 18.7648L1022.32 13.1095C1021.35 14.6036 1020.32 16.0606 1019.25 17.4806C1019.2 17.5547 1019.15 17.6164 1019.09 17.6782C1018.79 18.0609 1018.5 18.4437 1018.19 18.8265C1018.01 19.0487 1017.83 19.271 1017.64 19.4933C1017.46 19.7155 1017.29 19.9378 1017.1 20.1601C1016.79 20.5305 1016.47 20.9009 1016.15 21.2714C1016.1 21.3331 1016.04 21.3948 1015.99 21.4566C1014.8 22.8025 1013.58 24.099 1012.32 25.3585L1022.25 45.6212L1009.89 54.5363L993.813 38.7187C992.233 39.5214 990.615 40.2746 988.961 40.9661C988.887 41.0031 988.8 41.0278 988.726 41.0648C988.282 41.25 987.825 41.4353 987.38 41.6081C987.108 41.7069 986.849 41.818 986.578 41.9168C986.306 42.0156 986.047 42.1144 985.775 42.2132C985.318 42.386 984.861 42.5466 984.404 42.6947C984.318 42.7194 984.244 42.7565 984.157 42.7812C982.466 43.3615 980.749 43.8678 979.033 44.3246L977.502 66.8346L962.339 68.3781L956.325 46.6337C954.547 46.5349 952.769 46.3744 950.991 46.1521C950.905 46.1398 950.831 46.1274 950.744 46.1151C950.362 46.0657 949.966 46.0163 949.584 45.9546C949.485 45.9422 949.398 45.9299 949.3 45.9052C949.016 45.8681 948.732 45.8187 948.448 45.7693C948.164 45.7199 947.892 45.6829 947.608 45.6335C947.126 45.5471 946.657 45.4606 946.176 45.3742C946.114 45.3619 946.04 45.3495 945.978 45.3371C945.966 45.3371 945.941 45.3248 945.929 45.3248C944.175 44.9791 942.434 44.5716 940.718 44.1024L928.136 62.8339L914.244 56.586L919.9 34.7428C919.529 34.4958 919.159 34.2612 918.788 34.0143C917.788 33.3351 916.8 32.6313 915.837 31.9028C915.738 31.8287 915.627 31.7423 915.528 31.6558C915.516 31.6435 915.504 31.6311 915.491 31.6311C915.442 31.5941 915.38 31.5447 915.331 31.5076C914.948 31.2113 914.565 30.915 914.183 30.6063C913.96 30.4334 913.738 30.2482 913.516 30.0753C913.294 29.8901 913.071 29.7172 912.849 29.532C912.775 29.4703 912.701 29.4085 912.627 29.3468C912.33 29.0998 912.034 28.8405 911.738 28.5812C911.676 28.5195 911.614 28.4701 911.54 28.4207C910.194 27.2353 908.898 26.0129 907.638 24.7534L887.388 34.681L878.473 22.3209L894.29 6.2441C893.488 4.66359 892.734 3.04603 892.043 1.39143C892.006 1.30499 891.981 1.23091 891.944 1.14448C891.759 0.69996 891.574 0.255441 891.401 -0.20143C891.29 -0.473075 891.191 -0.744727 891.092 -1.00404C890.993 -1.26334 890.895 -1.53499 890.796 -1.79429C890.623 -2.25116 890.462 -2.72037 890.302 -3.17725C890.277 -3.25133 890.253 -3.33777 890.216 -3.41186C889.635 -5.1035 889.129 -6.81983 888.672 -8.53617L866.162 -10.0673L864.619 -25.2304L886.388 -31.2684C886.487 -33.0465 886.647 -34.8246 886.869 -36.6027C886.882 -36.6891 886.894 -36.7632 886.906 -36.8496C886.968 -37.3312 887.03 -37.8127 887.104 -38.2943C887.141 -38.5783 887.19 -38.8623 887.24 -39.1463C887.289 -39.4303 887.326 -39.7019 887.376 -39.9859C887.462 -40.4675 887.548 -40.9367 887.635 -41.4183C887.647 -41.5047 887.672 -41.5912 887.684 -41.6652C888.03 -43.4186 888.437 -45.1597 888.907 -46.876L870.175 -59.4584L876.423 -73.3496L898.266 -67.6943C899.242 -69.1884 900.267 -70.6455 901.341 -72.0655C901.39 -72.1395 901.44 -72.2013 901.501 -72.263C901.798 -72.6458 902.094 -73.0286 902.403 -73.4114C902.576 -73.6336 902.761 -73.8559 902.946 -74.0781C903.131 -74.3004 903.304 -74.5227 903.489 -74.7449C903.798 -75.1154 904.119 -75.4858 904.44 -75.8562C904.502 -75.918 904.551 -75.9797 904.601 -76.0538C905.786 -77.3997 907.009 -78.6962 908.268 -79.9557L898.34 -100.218L910.7 -109.133L926.777 -93.316C928.358 -94.1186 929.988 -94.8718 931.63 -95.5633C931.704 -95.6003 931.778 -95.625 931.865 -95.662C932.321 -95.8473 932.766 -96.0325 933.223 -96.2177C933.482 -96.3165 933.754 -96.4153 934.013 -96.5264C934.285 -96.6252 934.544 -96.7363 934.816 -96.8351C935.273 -97.008 935.729 -97.1685 936.186 -97.3166C936.273 -97.3413 936.347 -97.3784 936.433 -97.4031C938.125 -97.9834 939.841 -98.4897 941.558 -98.9466L943.089 -121.457L958.252 -123L964.265 -101.256C966.043 -101.157 967.821 -100.996 969.599 -100.774C969.686 -100.762 969.772 -100.749 969.859 -100.737C970.241 -100.688 970.637 -100.638 971.019 -100.576C971.118 -100.564 971.205 -100.552 971.303 -100.527C971.587 -100.49 971.871 -100.441 972.155 -100.391C972.439 -100.342 972.711 -100.305 972.995 -100.255C973.477 -100.169 973.958 -100.083 974.427 -99.9838C974.489 -99.9714 974.563 -99.9591 974.625 -99.9467C974.637 -99.9467 974.662 -99.9344 974.674 -99.9344C976.428 -99.5886 978.169 -99.1812 979.885 -98.7119L992.467 -117.406L1006.36 -111.158L1000.7 -89.3153C1002.2 -88.3398 1003.65 -87.3149 1005.09 -86.2283C1005.1 -86.216 1005.11 -86.2036 1005.12 -86.2036C1005.17 -86.1666 1005.22 -86.1172 1005.28 -86.0802C1005.67 -85.7838 1006.06 -85.4875 1006.45 -85.1788C1006.67 -85.0059 1006.88 -84.8207 1007.1 -84.6478C1007.32 -84.4626 1007.56 -84.2774 1007.78 -84.0922C1007.85 -84.0304 1007.93 -83.9687 1008 -83.9193C1008.3 -83.6724 1008.59 -83.413 1008.88 -83.1537C1008.94 -83.092 1009.01 -83.0426 1009.08 -82.9809C1010.42 -81.8078 1011.72 -80.5731 1012.96 -79.3136L1033.23 -89.2412L1042.14 -76.8811L1026.33 -60.8043C1027.13 -59.2238 1027.88 -57.6062 1028.57 -55.9516C1028.61 -55.8775 1028.63 -55.7911 1028.67 -55.717C1028.86 -55.2725 1029.04 -54.8156 1029.21 -54.3587C1029.23 -54.334 1029.24 -54.3094 1029.25 -54.2723C1029.26 -54.2476 1029.28 -54.2229 1029.28 -54.1982C1029.36 -53.9883 1029.44 -53.766 1029.52 -53.5561C1029.62 -53.2845 1029.72 -53.0252 1029.82 -52.7535C1029.99 -52.2967 1030.15 -51.8398 1030.3 -51.3829C1030.33 -51.2965 1030.36 -51.2224 1030.39 -51.136C1030.97 -49.4443 1031.47 -47.728 1031.93 -46.0117L1054.44 -44.4805L1055.98 -29.3175L1034.24 -23.3041C1034.14 -21.526 1033.98 -19.7479 1033.76 -17.9699C1033.73 -17.9081 1033.72 -17.8217 1033.71 -17.7353ZM986.195 -81.9066C985.812 -82.0918 985.429 -82.2524 985.046 -82.4252C984.688 -82.5858 984.343 -82.7463 983.985 -82.8944C983.898 -82.9315 983.799 -82.9685 983.713 -83.0056C974.884 -86.6976 965.265 -88.2534 955.72 -87.5496C955.622 -87.5372 955.523 -87.5372 955.424 -87.5249C955.004 -87.4878 954.572 -87.4384 954.152 -87.4014C953.77 -87.3643 953.387 -87.3273 953.004 -87.2779C952.905 -87.2656 952.806 -87.2532 952.708 -87.2409C943.212 -86.0184 934.112 -82.5611 926.197 -77.1774C926.111 -77.1157 926.036 -77.0663 925.95 -77.0046C925.604 -76.77 925.258 -76.5107 924.925 -76.2637C924.616 -76.0414 924.295 -75.8192 923.987 -75.5846C923.913 -75.5228 923.826 -75.4611 923.752 -75.3993C916.134 -69.5959 909.984 -62.0514 905.823 -53.4327C905.786 -53.3462 905.737 -53.2598 905.7 -53.1734C905.514 -52.7906 905.342 -52.3955 905.169 -52.0003C905.008 -51.6546 904.848 -51.3089 904.699 -50.9631C904.662 -50.8767 904.625 -50.7779 904.588 -50.6915C900.896 -41.8505 899.341 -32.2439 900.044 -22.6867C900.057 -22.6003 900.057 -22.5015 900.069 -22.4151C900.106 -21.9829 900.155 -21.5631 900.193 -21.1309C900.23 -20.7481 900.267 -20.353 900.316 -19.9702C900.328 -19.8838 900.341 -19.785 900.353 -19.6986C901.575 -10.1908 905.033 -1.07812 910.429 6.83679C910.478 6.91089 910.54 6.99732 910.589 7.07141C910.812 7.39246 911.046 7.70114 911.268 8.00983C911.515 8.35558 911.762 8.70131 912.022 9.04705C912.083 9.12114 912.133 9.19522 912.195 9.26932C917.998 16.8879 925.542 23.0371 934.174 27.1983C934.26 27.2353 934.346 27.2847 934.433 27.3218C934.791 27.4946 935.149 27.6428 935.519 27.8157C935.902 27.9885 936.273 28.1614 936.656 28.3219C936.742 28.359 936.828 28.396 936.915 28.433C945.743 32.125 955.362 33.6809 964.92 32.977C965.018 32.9647 965.117 32.9647 965.216 32.9523C965.611 32.9153 966.018 32.8782 966.414 32.8289C966.821 32.7918 967.229 32.7548 967.636 32.7054C967.735 32.693 967.834 32.6807 967.92 32.6683C977.415 31.4459 986.528 27.9885 994.443 22.6049C994.517 22.5555 994.604 22.4938 994.678 22.4444C994.999 22.2221 995.32 21.9875 995.641 21.7529C995.974 21.506 996.32 21.2714 996.653 21.0244C996.727 20.9627 996.801 20.9133 996.888 20.8515C1004.51 15.0481 1010.66 7.5036 1014.82 -1.1275C1014.85 -1.21393 1014.9 -1.30037 1014.94 -1.38681C1015.1 -1.73255 1015.26 -2.09063 1015.41 -2.43637C1015.58 -2.8315 1015.77 -3.21428 1015.93 -3.6094C1015.97 -3.69583 1016 -3.78228 1016.04 -3.88105C1019.73 -12.7097 1021.29 -22.3286 1020.58 -31.8734C1020.57 -31.9722 1020.57 -32.0834 1020.56 -32.1821C1020.52 -32.5649 1020.48 -32.9477 1020.45 -33.3305C1020.41 -33.7503 1020.37 -34.1578 1020.32 -34.5776C1020.31 -34.6764 1020.3 -34.7875 1020.29 -34.8863C1019.06 -44.3817 1015.61 -53.4821 1010.22 -61.3846C1010.17 -61.4711 1010.11 -61.5451 1010.05 -61.6316C1009.8 -61.9897 1009.56 -62.3231 1009.3 -62.6811C1009.08 -62.9898 1008.85 -63.2985 1008.63 -63.6072C1008.57 -63.6813 1008.51 -63.7677 1008.45 -63.8418C1002.64 -71.4604 995.098 -77.6096 986.466 -81.7708C986.368 -81.8202 986.281 -81.8572 986.195 -81.9066Z"/>
</mask>
<path d="M1033.71 -17.7353C1033.65 -17.2537 1033.59 -16.7721 1033.51 -16.2906C1033.47 -16.0066 1033.42 -15.7226 1033.38 -15.4386C1033.33 -15.1546 1033.29 -14.8829 1033.24 -14.5989C1033.15 -14.1174 1033.07 -13.6358 1032.97 -13.1666C1032.96 -13.0801 1032.93 -12.9937 1032.92 -12.9196C1032.89 -12.7961 1032.87 -12.6603 1032.84 -12.5368C1032.6 -11.3515 1032.34 -10.1661 1032.03 -8.99303C1031.92 -8.56086 1031.81 -8.14103 1031.68 -7.70886L1050.42 4.87351L1044.17 18.7648L1022.32 13.1095C1021.35 14.6036 1020.32 16.0606 1019.25 17.4806C1019.2 17.5547 1019.15 17.6164 1019.09 17.6782C1018.79 18.0609 1018.5 18.4437 1018.19 18.8265C1018.01 19.0487 1017.83 19.271 1017.64 19.4933C1017.46 19.7155 1017.29 19.9378 1017.1 20.1601C1016.79 20.5305 1016.47 20.9009 1016.15 21.2714C1016.1 21.3331 1016.04 21.3948 1015.99 21.4566C1014.8 22.8025 1013.58 24.099 1012.32 25.3585L1022.25 45.6212L1009.89 54.5363L993.813 38.7187C992.233 39.5214 990.615 40.2746 988.961 40.9661C988.887 41.0031 988.8 41.0278 988.726 41.0648C988.282 41.25 987.825 41.4353 987.38 41.6081C987.108 41.7069 986.849 41.818 986.578 41.9168C986.306 42.0156 986.047 42.1144 985.775 42.2132C985.318 42.386 984.861 42.5466 984.404 42.6947C984.318 42.7194 984.244 42.7565 984.157 42.7812C982.466 43.3615 980.749 43.8678 979.033 44.3246L977.502 66.8346L962.339 68.3781L956.325 46.6337C954.547 46.5349 952.769 46.3744 950.991 46.1521C950.905 46.1398 950.831 46.1274 950.744 46.1151C950.362 46.0657 949.966 46.0163 949.584 45.9546C949.485 45.9422 949.398 45.9299 949.3 45.9052C949.016 45.8681 948.732 45.8187 948.448 45.7693C948.164 45.7199 947.892 45.6829 947.608 45.6335C947.126 45.5471 946.657 45.4606 946.176 45.3742C946.114 45.3619 946.04 45.3495 945.978 45.3371C945.966 45.3371 945.941 45.3248 945.929 45.3248C944.175 44.9791 942.434 44.5716 940.718 44.1024L928.136 62.8339L914.244 56.586L919.9 34.7428C919.529 34.4958 919.159 34.2612 918.788 34.0143C917.788 33.3351 916.8 32.6313 915.837 31.9028C915.738 31.8287 915.627 31.7423 915.528 31.6558C915.516 31.6435 915.504 31.6311 915.491 31.6311C915.442 31.5941 915.38 31.5447 915.331 31.5076C914.948 31.2113 914.565 30.915 914.183 30.6063C913.96 30.4334 913.738 30.2482 913.516 30.0753C913.294 29.8901 913.071 29.7172 912.849 29.532C912.775 29.4703 912.701 29.4085 912.627 29.3468C912.33 29.0998 912.034 28.8405 911.738 28.5812C911.676 28.5195 911.614 28.4701 911.54 28.4207C910.194 27.2353 908.898 26.0129 907.638 24.7534L887.388 34.681L878.473 22.3209L894.29 6.2441C893.488 4.66359 892.734 3.04603 892.043 1.39143C892.006 1.30499 891.981 1.23091 891.944 1.14448C891.759 0.69996 891.574 0.255441 891.401 -0.20143C891.29 -0.473075 891.191 -0.744727 891.092 -1.00404C890.993 -1.26334 890.895 -1.53499 890.796 -1.79429C890.623 -2.25116 890.462 -2.72037 890.302 -3.17725C890.277 -3.25133 890.253 -3.33777 890.216 -3.41186C889.635 -5.1035 889.129 -6.81983 888.672 -8.53617L866.162 -10.0673L864.619 -25.2304L886.388 -31.2684C886.487 -33.0465 886.647 -34.8246 886.869 -36.6027C886.882 -36.6891 886.894 -36.7632 886.906 -36.8496C886.968 -37.3312 887.03 -37.8127 887.104 -38.2943C887.141 -38.5783 887.19 -38.8623 887.24 -39.1463C887.289 -39.4303 887.326 -39.7019 887.376 -39.9859C887.462 -40.4675 887.548 -40.9367 887.635 -41.4183C887.647 -41.5047 887.672 -41.5912 887.684 -41.6652C888.03 -43.4186 888.437 -45.1597 888.907 -46.876L870.175 -59.4584L876.423 -73.3496L898.266 -67.6943C899.242 -69.1884 900.267 -70.6455 901.341 -72.0655C901.39 -72.1395 901.44 -72.2013 901.501 -72.263C901.798 -72.6458 902.094 -73.0286 902.403 -73.4114C902.576 -73.6336 902.761 -73.8559 902.946 -74.0781C903.131 -74.3004 903.304 -74.5227 903.489 -74.7449C903.798 -75.1154 904.119 -75.4858 904.44 -75.8562C904.502 -75.918 904.551 -75.9797 904.601 -76.0538C905.786 -77.3997 907.009 -78.6962 908.268 -79.9557L898.34 -100.218L910.7 -109.133L926.777 -93.316C928.358 -94.1186 929.988 -94.8718 931.63 -95.5633C931.704 -95.6003 931.778 -95.625 931.865 -95.662C932.321 -95.8473 932.766 -96.0325 933.223 -96.2177C933.482 -96.3165 933.754 -96.4153 934.013 -96.5264C934.285 -96.6252 934.544 -96.7363 934.816 -96.8351C935.273 -97.008 935.729 -97.1685 936.186 -97.3166C936.273 -97.3413 936.347 -97.3784 936.433 -97.4031C938.125 -97.9834 939.841 -98.4897 941.558 -98.9466L943.089 -121.457L958.252 -123L964.265 -101.256C966.043 -101.157 967.821 -100.996 969.599 -100.774C969.686 -100.762 969.772 -100.749 969.859 -100.737C970.241 -100.688 970.637 -100.638 971.019 -100.576C971.118 -100.564 971.205 -100.552 971.303 -100.527C971.587 -100.49 971.871 -100.441 972.155 -100.391C972.439 -100.342 972.711 -100.305 972.995 -100.255C973.477 -100.169 973.958 -100.083 974.427 -99.9838C974.489 -99.9714 974.563 -99.9591 974.625 -99.9467C974.637 -99.9467 974.662 -99.9344 974.674 -99.9344C976.428 -99.5886 978.169 -99.1812 979.885 -98.7119L992.467 -117.406L1006.36 -111.158L1000.7 -89.3153C1002.2 -88.3398 1003.65 -87.3149 1005.09 -86.2283C1005.1 -86.216 1005.11 -86.2036 1005.12 -86.2036C1005.17 -86.1666 1005.22 -86.1172 1005.28 -86.0802C1005.67 -85.7838 1006.06 -85.4875 1006.45 -85.1788C1006.67 -85.0059 1006.88 -84.8207 1007.1 -84.6478C1007.32 -84.4626 1007.56 -84.2774 1007.78 -84.0922C1007.85 -84.0304 1007.93 -83.9687 1008 -83.9193C1008.3 -83.6724 1008.59 -83.413 1008.88 -83.1537C1008.94 -83.092 1009.01 -83.0426 1009.08 -82.9809C1010.42 -81.8078 1011.72 -80.5731 1012.96 -79.3136L1033.23 -89.2412L1042.14 -76.8811L1026.33 -60.8043C1027.13 -59.2238 1027.88 -57.6062 1028.57 -55.9516C1028.61 -55.8775 1028.63 -55.7911 1028.67 -55.717C1028.86 -55.2725 1029.04 -54.8156 1029.21 -54.3587C1029.23 -54.334 1029.24 -54.3094 1029.25 -54.2723C1029.26 -54.2476 1029.28 -54.2229 1029.28 -54.1982C1029.36 -53.9883 1029.44 -53.766 1029.52 -53.5561C1029.62 -53.2845 1029.72 -53.0252 1029.82 -52.7535C1029.99 -52.2967 1030.15 -51.8398 1030.3 -51.3829C1030.33 -51.2965 1030.36 -51.2224 1030.39 -51.136C1030.97 -49.4443 1031.47 -47.728 1031.93 -46.0117L1054.44 -44.4805L1055.98 -29.3175L1034.24 -23.3041C1034.14 -21.526 1033.98 -19.7479 1033.76 -17.9699C1033.73 -17.9081 1033.72 -17.8217 1033.71 -17.7353ZM986.195 -81.9066C985.812 -82.0918 985.429 -82.2524 985.046 -82.4252C984.688 -82.5858 984.343 -82.7463 983.985 -82.8944C983.898 -82.9315 983.799 -82.9685 983.713 -83.0056C974.884 -86.6976 965.265 -88.2534 955.72 -87.5496C955.622 -87.5372 955.523 -87.5372 955.424 -87.5249C955.004 -87.4878 954.572 -87.4384 954.152 -87.4014C953.77 -87.3643 953.387 -87.3273 953.004 -87.2779C952.905 -87.2656 952.806 -87.2532 952.708 -87.2409C943.212 -86.0184 934.112 -82.5611 926.197 -77.1774C926.111 -77.1157 926.036 -77.0663 925.95 -77.0046C925.604 -76.77 925.258 -76.5107 924.925 -76.2637C924.616 -76.0414 924.295 -75.8192 923.987 -75.5846C923.913 -75.5228 923.826 -75.4611 923.752 -75.3993C916.134 -69.5959 909.984 -62.0514 905.823 -53.4327C905.786 -53.3462 905.737 -53.2598 905.7 -53.1734C905.514 -52.7906 905.342 -52.3955 905.169 -52.0003C905.008 -51.6546 904.848 -51.3089 904.699 -50.9631C904.662 -50.8767 904.625 -50.7779 904.588 -50.6915C900.896 -41.8505 899.341 -32.2439 900.044 -22.6867C900.057 -22.6003 900.057 -22.5015 900.069 -22.4151C900.106 -21.9829 900.155 -21.5631 900.193 -21.1309C900.23 -20.7481 900.267 -20.353 900.316 -19.9702C900.328 -19.8838 900.341 -19.785 900.353 -19.6986C901.575 -10.1908 905.033 -1.07812 910.429 6.83679C910.478 6.91089 910.54 6.99732 910.589 7.07141C910.812 7.39246 911.046 7.70114 911.268 8.00983C911.515 8.35558 911.762 8.70131 912.022 9.04705C912.083 9.12114 912.133 9.19522 912.195 9.26932C917.998 16.8879 925.542 23.0371 934.174 27.1983C934.26 27.2353 934.346 27.2847 934.433 27.3218C934.791 27.4946 935.149 27.6428 935.519 27.8157C935.902 27.9885 936.273 28.1614 936.656 28.3219C936.742 28.359 936.828 28.396 936.915 28.433C945.743 32.125 955.362 33.6809 964.92 32.977C965.018 32.9647 965.117 32.9647 965.216 32.9523C965.611 32.9153 966.018 32.8782 966.414 32.8289C966.821 32.7918 967.229 32.7548 967.636 32.7054C967.735 32.693 967.834 32.6807 967.92 32.6683C977.415 31.4459 986.528 27.9885 994.443 22.6049C994.517 22.5555 994.604 22.4938 994.678 22.4444C994.999 22.2221 995.32 21.9875 995.641 21.7529C995.974 21.506 996.32 21.2714 996.653 21.0244C996.727 20.9627 996.801 20.9133 996.888 20.8515C1004.51 15.0481 1010.66 7.5036 1014.82 -1.1275C1014.85 -1.21393 1014.9 -1.30037 1014.94 -1.38681C1015.1 -1.73255 1015.26 -2.09063 1015.41 -2.43637C1015.58 -2.8315 1015.77 -3.21428 1015.93 -3.6094C1015.97 -3.69583 1016 -3.78228 1016.04 -3.88105C1019.73 -12.7097 1021.29 -22.3286 1020.58 -31.8734C1020.57 -31.9722 1020.57 -32.0834 1020.56 -32.1821C1020.52 -32.5649 1020.48 -32.9477 1020.45 -33.3305C1020.41 -33.7503 1020.37 -34.1578 1020.32 -34.5776C1020.31 -34.6764 1020.3 -34.7875 1020.29 -34.8863C1019.06 -44.3817 1015.61 -53.4821 1010.22 -61.3846C1010.17 -61.4711 1010.11 -61.5451 1010.05 -61.6316C1009.8 -61.9897 1009.56 -62.3231 1009.3 -62.6811C1009.08 -62.9898 1008.85 -63.2985 1008.63 -63.6072C1008.57 -63.6813 1008.51 -63.7677 1008.45 -63.8418C1002.64 -71.4604 995.098 -77.6096 986.466 -81.7708C986.368 -81.8202 986.281 -81.8572 986.195 -81.9066Z" stroke="white" stroke-width="2" mask="url(#path-98-inside-1_1_27791)"/>
</mask>
<g mask="url(#mask38_1_27791)">
<path d="M733.903 -125.272L935.172 75.9848" stroke="white" stroke-width="0.5361" stroke-miterlimit="10"/>
<path d="M763.255 -125.272L964.512 75.9839" stroke="white" stroke-width="0.5361" stroke-miterlimit="10"/>
<path d="M792.595 -125.272L993.852 75.9839" stroke="white" stroke-width="0.5361" stroke-miterlimit="10"/>
<path d="M821.935 -125.272L1023.19 75.9848" stroke="white" stroke-width="0.5361" stroke-miterlimit="10"/>
<path d="M719.236 -125.273L920.492 75.9829" stroke="white" stroke-width="0.5361" stroke-miterlimit="10"/>
<path d="M748.575 -125.272L949.844 75.9839" stroke="white" stroke-width="0.5361" stroke-miterlimit="10"/>
<path d="M777.927 -125.272L979.184 75.9839" stroke="white" stroke-width="0.5361" stroke-miterlimit="10"/>
<path d="M807.263 -125.272L1008.52 75.9839" stroke="white" stroke-width="0.5361" stroke-miterlimit="10"/>
<path d="M836.602 -125.272L1037.87 75.9839" stroke="white" stroke-width="0.5361" stroke-miterlimit="10"/>
<path d="M851.27 -125.272L1052.54 75.9839" stroke="white" stroke-width="0.5361" stroke-miterlimit="10"/>
<path d="M865.951 -125.272L1067.21 75.9839" stroke="white" stroke-width="0.5361" stroke-miterlimit="10"/>
<path d="M880.619 -125.272L1081.87 75.9839" stroke="white" stroke-width="0.5361" stroke-miterlimit="10"/>
<path d="M895.291 -125.272L1096.55 75.9839" stroke="white" stroke-width="0.5361" stroke-miterlimit="10"/>
<path d="M909.959 -125.273L1111.21 75.9829" stroke="white" stroke-width="0.5361" stroke-miterlimit="10"/>
<path d="M924.63 -125.271L1125.89 75.985" stroke="white" stroke-width="0.5361" stroke-miterlimit="10"/>
<path d="M939.298 -125.272L1140.57 75.9848" stroke="white" stroke-width="0.5361" stroke-miterlimit="10"/>
<path d="M953.966 -125.272L1155.23 75.9848" stroke="white" stroke-width="0.5361" stroke-miterlimit="10"/>
<path d="M741.239 -125.273L942.508 75.9829" stroke="white" stroke-width="0.5361" stroke-miterlimit="10"/>
<path d="M770.587 -125.272L971.844 75.9839" stroke="white" stroke-width="0.5361" stroke-miterlimit="10"/>
<path d="M799.931 -125.272L1001.19 75.9839" stroke="white" stroke-width="0.5361" stroke-miterlimit="10"/>
<path d="M829.266 -125.272L1030.54 75.9848" stroke="white" stroke-width="0.5361" stroke-miterlimit="10"/>
<path d="M858.606 -125.272L1059.87 75.9839" stroke="white" stroke-width="0.5361" stroke-miterlimit="10"/>
<path d="M887.955 -125.272L1089.21 75.9839" stroke="white" stroke-width="0.5361" stroke-miterlimit="10"/>
<path d="M917.294 -125.272L1118.55 75.9839" stroke="white" stroke-width="0.5361" stroke-miterlimit="10"/>
<path d="M726.572 -125.272L927.828 75.9839" stroke="white" stroke-width="0.5361" stroke-miterlimit="10"/>
<path d="M755.907 -125.272L957.176 75.9839" stroke="white" stroke-width="0.5361" stroke-miterlimit="10"/>
<path d="M785.259 -125.272L986.516 75.9848" stroke="white" stroke-width="0.5361" stroke-miterlimit="10"/>
<path d="M814.599 -125.272L1015.86 75.9839" stroke="white" stroke-width="0.5361" stroke-miterlimit="10"/>
<path d="M843.934 -125.272L1045.2 75.9839" stroke="white" stroke-width="0.5361" stroke-miterlimit="10"/>
<path d="M873.287 -125.272L1074.54 75.9839" stroke="white" stroke-width="0.5361" stroke-miterlimit="10"/>
<path d="M902.626 -125.272L1103.88 75.9839" stroke="white" stroke-width="0.5361" stroke-miterlimit="10"/>
<path d="M931.962 -125.272L1133.23 75.9839" stroke="white" stroke-width="0.5361" stroke-miterlimit="10"/>
<path d="M946.634 -125.272L1147.9 75.9839" stroke="white" stroke-width="0.5361" stroke-miterlimit="10"/>
<path d="M961.314 -125.272L1162.57 75.9848" stroke="white" stroke-width="0.5361" stroke-miterlimit="10"/>
<path d="M968.65 -125.272L1169.91 75.9839" stroke="white" stroke-width="0.5361" stroke-miterlimit="10"/>
<path d="M975.986 -125.271L1177.24 75.9858" stroke="white" stroke-width="0.5361" stroke-miterlimit="10"/>
<path d="M983.318 -125.272L1184.57 75.9839" stroke="white" stroke-width="0.5361" stroke-miterlimit="10"/>
<path d="M990.654 -125.272L1191.91 75.9848" stroke="white" stroke-width="0.5361" stroke-miterlimit="10"/>
<path d="M997.986 -125.272L1199.24 75.9839" stroke="white" stroke-width="0.5361" stroke-miterlimit="10"/>
<path d="M1005.32 -125.272L1206.58 75.9839" stroke="white" stroke-width="0.5361" stroke-miterlimit="10"/>
</g>
<path d="M1033.71 -17.7353C1033.65 -17.2537 1033.59 -16.7721 1033.51 -16.2906C1033.47 -16.0066 1033.42 -15.7226 1033.38 -15.4386C1033.33 -15.1546 1033.29 -14.8829 1033.24 -14.5989C1033.15 -14.1174 1033.07 -13.6358 1032.97 -13.1666C1032.96 -13.0801 1032.93 -12.9937 1032.92 -12.9196C1032.89 -12.7961 1032.87 -12.6603 1032.84 -12.5368C1032.6 -11.3515 1032.34 -10.1661 1032.03 -8.99303C1031.92 -8.56086 1031.81 -8.14103 1031.68 -7.70886L1050.42 4.87351L1044.17 18.7648L1022.32 13.1095C1021.35 14.6036 1020.32 16.0606 1019.25 17.4806C1019.2 17.5547 1019.15 17.6164 1019.09 17.6782C1018.79 18.0609 1018.5 18.4437 1018.19 18.8265C1018.01 19.0488 1017.83 19.271 1017.64 19.4933C1017.46 19.7155 1017.29 19.9378 1017.1 20.1601C1016.79 20.5305 1016.47 20.9009 1016.15 21.2714C1016.1 21.3331 1016.04 21.3948 1015.99 21.4566C1014.8 22.8025 1013.58 24.099 1012.32 25.3585L1022.25 45.6212L1009.89 54.5362L993.813 38.7188C992.233 39.5214 990.615 40.2746 988.961 40.9661C988.887 41.0031 988.8 41.0278 988.726 41.0648C988.282 41.25 987.825 41.4353 987.38 41.6081C987.108 41.7069 986.849 41.818 986.578 41.9168C986.306 42.0156 986.047 42.1144 985.775 42.2132C985.318 42.386 984.861 42.5466 984.404 42.6947C984.318 42.7194 984.244 42.7565 984.157 42.7812C982.466 43.3615 980.749 43.8678 979.033 44.3246L977.502 66.8346L962.339 68.3781L956.325 46.6337C954.547 46.5349 952.769 46.3744 950.991 46.1521C950.905 46.1398 950.831 46.1274 950.744 46.1151C950.362 46.0657 949.966 46.0163 949.584 45.9545C949.485 45.9422 949.398 45.9299 949.3 45.9052C949.016 45.8681 948.732 45.8187 948.448 45.7693C948.164 45.7199 947.892 45.6829 947.608 45.6335C947.126 45.5471 946.657 45.4606 946.176 45.3742C946.114 45.3618 946.04 45.3495 945.978 45.3372C945.966 45.3372 945.941 45.3248 945.929 45.3248C944.175 44.9791 942.434 44.5716 940.718 44.1024L928.136 62.8339L914.244 56.586L919.9 34.7428C919.529 34.4958 919.159 34.2612 918.788 34.0142C917.788 33.3351 916.8 32.6313 915.837 31.9028C915.738 31.8287 915.627 31.7423 915.528 31.6558C915.516 31.6435 915.504 31.6311 915.491 31.6311C915.442 31.5941 915.38 31.5447 915.331 31.5077C914.948 31.2113 914.565 30.915 914.183 30.6063C913.96 30.4334 913.738 30.2482 913.516 30.0753C913.294 29.8901 913.071 29.7172 912.849 29.532C912.775 29.4703 912.701 29.4085 912.627 29.3468C912.33 29.0998 912.034 28.8405 911.738 28.5812C911.676 28.5195 911.614 28.4701 911.54 28.4207C910.194 27.2353 908.898 26.0129 907.638 24.7534L887.388 34.681L878.473 22.3209L894.29 6.2441C893.488 4.66359 892.734 3.04603 892.043 1.39143C892.006 1.30499 891.981 1.23091 891.944 1.14448C891.759 0.699956 891.574 0.255441 891.401 -0.201427C891.29 -0.473078 891.191 -0.744731 891.092 -1.00403C890.993 -1.26334 890.895 -1.53499 890.796 -1.79429C890.623 -2.25116 890.463 -2.72038 890.302 -3.17724C890.277 -3.25133 890.253 -3.33777 890.216 -3.41185C889.635 -5.1035 889.129 -6.81983 888.672 -8.53617L866.162 -10.0673L864.619 -25.2304L886.388 -31.2684C886.487 -33.0465 886.647 -34.8246 886.869 -36.6027C886.882 -36.6891 886.894 -36.7632 886.906 -36.8496C886.968 -37.3312 887.03 -37.8127 887.104 -38.2943C887.141 -38.5783 887.19 -38.8623 887.24 -39.1463C887.289 -39.4303 887.326 -39.7019 887.376 -39.9859C887.462 -40.4675 887.548 -40.9367 887.635 -41.4183C887.647 -41.5047 887.672 -41.5912 887.684 -41.6652C888.03 -43.4186 888.437 -45.1597 888.907 -46.876L870.175 -59.4584L876.423 -73.3496L898.266 -67.6943C899.242 -69.1884 900.267 -70.6455 901.341 -72.0655C901.39 -72.1395 901.44 -72.2013 901.501 -72.263C901.798 -72.6458 902.094 -73.0286 902.403 -73.4114C902.576 -73.6336 902.761 -73.8559 902.946 -74.0781C903.131 -74.3004 903.304 -74.5227 903.489 -74.7449C903.798 -75.1154 904.119 -75.4858 904.44 -75.8562C904.502 -75.918 904.551 -75.9797 904.601 -76.0538C905.786 -77.3997 907.009 -78.6962 908.268 -79.9557L898.34 -100.218L910.7 -109.133L926.777 -93.316C928.358 -94.1186 929.988 -94.8718 931.63 -95.5633C931.704 -95.6003 931.778 -95.625 931.865 -95.662C932.321 -95.8473 932.766 -96.0325 933.223 -96.2177C933.482 -96.3165 933.754 -96.4153 934.013 -96.5264C934.285 -96.6252 934.544 -96.7363 934.816 -96.8351C935.273 -97.008 935.729 -97.1685 936.186 -97.3166C936.273 -97.3413 936.347 -97.3784 936.433 -97.4031C938.125 -97.9834 939.841 -98.4897 941.558 -98.9466L943.089 -121.457L958.252 -123L964.265 -101.256C966.043 -101.157 967.821 -100.996 969.599 -100.774C969.686 -100.762 969.772 -100.749 969.859 -100.737C970.241 -100.688 970.637 -100.638 971.019 -100.576C971.118 -100.564 971.205 -100.552 971.303 -100.527C971.587 -100.49 971.871 -100.441 972.155 -100.391C972.439 -100.342 972.711 -100.305 972.995 -100.255C973.477 -100.169 973.958 -100.083 974.427 -99.9838C974.489 -99.9714 974.563 -99.9591 974.625 -99.9467C974.637 -99.9467 974.662 -99.9344 974.674 -99.9344C976.428 -99.5886 978.169 -99.1812 979.885 -98.7119L992.467 -117.406L1006.36 -111.158L1000.7 -89.3153C1002.2 -88.3398 1003.65 -87.3149 1005.09 -86.2283C1005.1 -86.216 1005.11 -86.2036 1005.12 -86.2036C1005.17 -86.1666 1005.22 -86.1172 1005.28 -86.0802C1005.67 -85.7838 1006.06 -85.4875 1006.45 -85.1788C1006.67 -85.0059 1006.88 -84.8207 1007.1 -84.6478C1007.32 -84.4626 1007.56 -84.2774 1007.78 -84.0922C1007.85 -84.0304 1007.93 -83.9687 1008 -83.9193C1008.3 -83.6724 1008.59 -83.413 1008.88 -83.1537C1008.94 -83.092 1009.01 -83.0426 1009.08 -82.9809C1010.42 -81.8078 1011.72 -80.5731 1012.96 -79.3136L1033.23 -89.2412L1042.14 -76.8811L1026.33 -60.8043C1027.13 -59.2238 1027.88 -57.6062 1028.57 -55.9516C1028.61 -55.8775 1028.63 -55.7911 1028.67 -55.717C1028.86 -55.2725 1029.04 -54.8156 1029.21 -54.3587C1029.23 -54.334 1029.24 -54.3094 1029.25 -54.2723C1029.26 -54.2476 1029.28 -54.2229 1029.28 -54.1982C1029.36 -53.9883 1029.44 -53.766 1029.52 -53.5561C1029.62 -53.2845 1029.72 -53.0252 1029.82 -52.7535C1029.99 -52.2967 1030.15 -51.8398 1030.3 -51.3829C1030.33 -51.2965 1030.36 -51.2224 1030.39 -51.136C1030.97 -49.4443 1031.47 -47.728 1031.93 -46.0117L1054.44 -44.4805L1055.98 -29.3175L1034.24 -23.3041C1034.14 -21.526 1033.98 -19.7479 1033.76 -17.9699C1033.73 -17.9081 1033.72 -17.8217 1033.71 -17.7353ZM986.195 -81.9066C985.812 -82.0918 985.429 -82.2524 985.046 -82.4252C984.688 -82.5858 984.343 -82.7463 983.985 -82.8944C983.898 -82.9315 983.799 -82.9685 983.713 -83.0056C974.884 -86.6976 965.265 -88.2534 955.72 -87.5496C955.622 -87.5372 955.523 -87.5372 955.424 -87.5249C955.004 -87.4878 954.572 -87.4384 954.152 -87.4014C953.77 -87.3643 953.387 -87.3273 953.004 -87.2779C952.905 -87.2656 952.806 -87.2532 952.708 -87.2409C943.212 -86.0184 934.112 -82.5611 926.197 -77.1774C926.11 -77.1157 926.036 -77.0663 925.95 -77.0046C925.604 -76.77 925.259 -76.5107 924.925 -76.2637C924.616 -76.0414 924.295 -75.8192 923.987 -75.5846C923.913 -75.5228 923.826 -75.4611 923.752 -75.3994C916.134 -69.5959 909.984 -62.0514 905.823 -53.4327C905.786 -53.3462 905.737 -53.2598 905.7 -53.1734C905.514 -52.7906 905.342 -52.3955 905.169 -52.0003C905.008 -51.6546 904.848 -51.3089 904.699 -50.9631C904.662 -50.8767 904.625 -50.7779 904.588 -50.6915C900.896 -41.8505 899.341 -32.2439 900.044 -22.6867C900.057 -22.6003 900.057 -22.5015 900.069 -22.4151C900.106 -21.9829 900.155 -21.5631 900.193 -21.1309C900.23 -20.7481 900.267 -20.353 900.316 -19.9702C900.328 -19.8838 900.341 -19.785 900.353 -19.6986C901.575 -10.1908 905.033 -1.07812 910.429 6.8368C910.478 6.91089 910.54 6.99732 910.589 7.07141C910.812 7.39245 911.046 7.70114 911.268 8.00984C911.515 8.35557 911.762 8.70132 912.022 9.04705C912.083 9.12114 912.133 9.19523 912.195 9.26931C917.998 16.8879 925.542 23.0371 934.174 27.1983C934.26 27.2353 934.346 27.2847 934.433 27.3218C934.791 27.4946 935.149 27.6428 935.519 27.8157C935.902 27.9885 936.273 28.1614 936.656 28.3219C936.742 28.359 936.828 28.396 936.915 28.4331C945.743 32.125 955.362 33.6809 964.92 32.977C965.018 32.9647 965.117 32.9647 965.216 32.9523C965.611 32.9153 966.018 32.8782 966.414 32.8289C966.821 32.7918 967.229 32.7548 967.636 32.7054C967.735 32.693 967.834 32.6807 967.92 32.6683C977.415 31.4459 986.528 27.9885 994.443 22.6049C994.517 22.5555 994.604 22.4938 994.678 22.4444C994.999 22.2221 995.32 21.9875 995.641 21.7529C995.974 21.506 996.32 21.2713 996.653 21.0244C996.727 20.9627 996.801 20.9133 996.888 20.8515C1004.51 15.0481 1010.66 7.50359 1014.82 -1.1275C1014.85 -1.21393 1014.9 -1.30038 1014.94 -1.38681C1015.1 -1.73255 1015.26 -2.09063 1015.41 -2.43637C1015.58 -2.8315 1015.77 -3.21427 1015.93 -3.6094C1015.97 -3.69584 1016 -3.78227 1016.04 -3.88106C1019.73 -12.7097 1021.29 -22.3286 1020.58 -31.8734C1020.57 -31.9722 1020.57 -32.0834 1020.56 -32.1821C1020.52 -32.5649 1020.48 -32.9477 1020.45 -33.3305C1020.41 -33.7503 1020.37 -34.1578 1020.32 -34.5776C1020.31 -34.6764 1020.3 -34.7875 1020.29 -34.8863C1019.06 -44.3817 1015.61 -53.4821 1010.22 -61.3846C1010.17 -61.4711 1010.11 -61.5451 1010.05 -61.6316C1009.8 -61.9897 1009.56 -62.3231 1009.3 -62.6811C1009.08 -62.9898 1008.85 -63.2985 1008.63 -63.6072C1008.57 -63.6813 1008.51 -63.7677 1008.45 -63.8418C1002.64 -71.4604 995.098 -77.6096 986.466 -81.7708C986.368 -81.8202 986.281 -81.8572 986.195 -81.9066Z" stroke="white" stroke-width="3" stroke-miterlimit="10"/>
<path d="M939.829 18.2712C914.664 6.9606 903.44 -22.6123 914.75 -47.7771C926.061 -72.9418 955.634 -84.166 980.799 -72.8554C1005.96 -61.5448 1017.19 -31.9719 1005.88 -6.80717C994.554 18.3576 964.981 29.5817 939.829 18.2712ZM939.051 -51.1604C932.469 -54.1238 924.74 -51.1851 921.789 -44.6037C918.825 -38.0223 921.764 -30.2926 928.345 -27.3415C934.927 -24.3781 942.656 -27.3168 945.607 -33.8982C948.571 -40.4795 945.632 -48.2093 939.051 -51.1604ZM977.625 -65.8048C971.044 -68.7683 963.314 -65.8295 960.363 -59.2482C957.4 -52.6668 960.338 -44.9371 966.92 -41.986C973.501 -39.0225 981.231 -41.9613 984.182 -48.5426C987.133 -55.124 984.207 -62.8537 977.625 -65.8048ZM957.153 -28.7121C956.375 -26.9711 957.153 -24.9214 958.894 -24.1435C960.635 -23.3655 962.684 -24.1434 963.462 -25.8845C964.24 -27.6255 963.462 -29.6752 961.721 -30.4532C959.98 -31.2311 957.93 -30.4532 957.153 -28.7121ZM953.695 -12.5983C947.114 -15.5617 939.384 -12.623 936.433 -6.04161C933.47 0.539748 936.408 8.26946 942.99 11.2206C949.571 14.184 957.301 11.2453 960.252 4.66391C963.215 -1.90511 960.277 -9.63481 953.695 -12.5983ZM992.27 -27.2427C985.688 -30.2062 977.959 -27.2674 975.007 -20.6861C972.044 -14.1047 974.983 -6.375 981.564 -3.42388C988.145 -0.460413 995.875 -3.39919 998.826 -9.98055C1001.78 -16.5496 998.851 -24.2793 992.27 -27.2427Z" stroke="white" stroke-width="3" stroke-miterlimit="10"/>
</g>
</g>
<defs>
<clipPath id="clip0_1_27791">
<rect width="1920" height="546" fill="white"/>
</clipPath>
</defs>
</svg>
