<?xml version="1.0" encoding="utf-8"?>
<!-- Generator: Adobe Illustrator 20.0.0, SVG Export Plug-In . SVG Version: 6.00 Build 0)  -->
<svg version="1.1" id="Layer_1" xmlns="http://www.w3.org/2000/svg" xmlns:xlink="http://www.w3.org/1999/xlink" x="0px" y="0px"
	 viewBox="0 0 358.94 102.07" style="enable-background:new 0 0 358.94 102.07;" xml:space="preserve">
<style type="text/css">
	.st0{display:none;fill:#0C4684;}
	.st1{display:none;fill:#F8DC00;}
	.st2{display:none;fill:#DE222A;}
	.st3{display:none;fill:#004996;}
	.st4{display:none;}
	.st5{display:none;fill:#1D1D1B;}
	.st6{display:none;fill:#005AA9;}
	.st7{display:none;fill:#FFEC00;}
	.st8{display:none;fill:#FDA428;}
	.st9{fill:#1D1D1B;}
	.st10{fill:#ED0000;}
	.st11{fill:#E2231A;}
	.st12{fill:#1D1D1B;}
	.st13{fill:#E20613;}
	.st14{fill:#FFD039;}
	.st15{fill:#FCBD1B;}
	.st16{fill:#FF4C00;}
	.st17{fill:#FFE600;}
	.st18{fill:#231F20;}
	.st19{fill:#DB0D15;}
	.st20{fill:#E30613;}
	.st21{fill:#E30613;stroke:#E30613;stroke-width:2.9777;stroke-miterlimit:3.8637;}
</style>
<rect id="XMLID_1_" y="0.005" class="st4" width="358.94" height="102.065"/>
<path id="XMLID_28_" class="st9" d="M132.413,36.164l-7.892,10.722h9.531L132.413,36.164 M120.649,52.991l-3.574,4.616H96.971
	l26.507-29.783h26.358l5.361,29.783h-19.359l-0.745-4.616L120.649,52.991"/>
<path id="XMLID_25_" class="st9" d="M132.413,36.164l-7.892,10.722h9.531L132.413,36.164 M120.649,52.991l-3.574,4.616H96.971
	l26.507-29.783h26.358l5.361,29.783h-19.359l-0.745-4.616L120.649,52.991z"/>
<path id="XMLID_22_" class="st9" d="M230.846,45.843c-2.978,3.723-7.148,5.51-9.233,3.872c-2.234-1.638-1.489-6.106,1.489-9.977
	c2.978-3.723,7.148-5.51,9.233-3.872C234.42,37.653,233.675,41.971,230.846,45.843 M255.863,34.228
	c-2.383-6.999-20.55-9.679-33.357-5.957c-10.871,3.127-23.231,13.849-20.848,22.039c2.383,8.339,20.252,10.871,32.91,6.85
	C247.226,53.14,258.693,42.567,255.863,34.228"/>
<path id="XMLID_19_" class="st9" d="M230.846,45.843c-2.978,3.723-7.148,5.51-9.233,3.872c-2.234-1.638-1.489-6.106,1.489-9.977
	c2.978-3.723,7.148-5.51,9.233-3.872C234.42,37.653,233.675,41.971,230.846,45.843 M255.863,34.228
	c-2.383-6.999-20.55-9.679-33.357-5.957c-10.871,3.127-23.231,13.849-20.848,22.039c2.383,8.339,20.252,10.871,32.91,6.85
	C247.226,53.14,258.693,42.567,255.863,34.228z"/>
<polyline id="XMLID_18_" class="st9" points="188.852,27.825 209.849,27.825 180.959,57.608 161.153,57.608 155.941,27.825 
	175.3,27.825 176.492,44.205 188.852,27.825 "/>
<polyline id="XMLID_17_" class="st9" points="188.852,27.825 209.849,27.825 180.959,57.608 161.153,57.608 155.941,27.825 
	175.3,27.825 176.492,44.205 188.852,27.825 "/>
<polyline id="XMLID_16_" class="st9" points="324.662,27.825 304.261,27.825 295.773,38.546 290.858,27.825 271.797,27.825 
	250.056,57.608 271.648,57.608 279.69,46.141 284.008,57.608 303.069,57.608 324.662,27.825 "/>
<polyline id="XMLID_15_" class="st9" points="324.662,27.825 304.261,27.825 295.773,38.546 290.858,27.825 271.797,27.825 
	250.056,57.608 271.648,57.608 279.69,46.141 284.008,57.608 303.069,57.608 324.662,27.825 "/>
<path id="XMLID_10_" class="st10" d="M61.678,27.378l-5.51,6.106h52.567l5.51-6.106H61.678 M48.872,41.674h52.567l5.361-6.106
	H54.233L48.872,41.674z M34.278,58.203l52.716-0.149l5.361-5.957H39.639L34.278,58.203z M41.575,49.864h52.567l5.361-6.106H46.787
	L41.575,49.864"/>
<polyline id="XMLID_9_" class="st9" points="214.614,75.328 209.7,75.328 216.55,64.904 211.785,64.904 213.869,61.777 
	228.91,61.777 226.676,64.904 221.613,64.904 214.614,75.328 "/>
<polyline id="XMLID_8_" class="st9" points="235.76,70.563 232.484,75.328 227.421,75.328 230.697,70.563 229.803,61.777 
	235.611,61.777 235.462,66.989 235.611,66.989 242.61,61.777 248.566,61.777 235.76,70.563 "/>
<path id="XMLID_5_" class="st9" d="M254.076,68.627c2.234,0,2.532-0.596,3.574-2.085c0.745-1.191,0.596-1.489-1.042-1.489h-3.872
	l-2.532,3.723L254.076,68.627 M249.758,61.777h9.679c4.319,0,5.957,0.745,3.723,4.17c-1.489,2.234-2.383,3.574-6.403,4.17
	l-0.149,0.149c2.085,0,2.829,0.893,1.787,2.383l-1.787,2.68h-5.063l1.34-1.936c0.745-1.042,0.596-1.638-0.894-1.638h-3.872
	l-2.383,3.574h-5.063L249.758,61.777"/>
<polyline id="XMLID_4_" class="st9" points="270.606,67.138 279.541,67.138 277.754,69.67 268.968,69.67 267.181,72.35 
	276.711,72.35 274.776,75.328 260.182,75.328 269.266,61.777 283.71,61.777 281.626,64.755 272.244,64.755 270.606,67.138 "/>
<path id="XMLID_3_" class="st9" d="M291.901,67.138c5.361,0.298,6.403,0.745,4.319,3.872c-1.489,2.234-2.829,4.467-11.169,4.467
	c-4.765,0-8.041,0-4.914-4.467h4.765c-0.893,1.34-0.298,1.489,2.085,1.489c2.383,0,3.276-0.149,4.021-1.191
	c0.745-1.191,0.447-1.191-1.787-1.34h-1.042c-4.467-0.298-7.297-0.149-4.616-4.17c2.532-3.872,5.808-4.17,10.722-4.17
	c4.17,0,7.595,0,5.063,3.872l-0.447,0.596h-4.765c0.893-1.34,0.149-1.34-1.936-1.34c-2.68,0-3.276,0.447-3.723,1.191
	c-0.745,1.042,0,1.191,1.34,1.191L291.901,67.138"/>
</svg>
