<?xml version="1.0" encoding="utf-8"?>
<!-- Generator: Adobe Illustrator 20.0.0, SVG Export Plug-In . SVG Version: 6.00 Build 0)  -->
<svg version="1.1" id="Layer_1" xmlns="http://www.w3.org/2000/svg" xmlns:xlink="http://www.w3.org/1999/xlink" x="0px" y="0px"
	 viewBox="0 0 358.94 102.07" style="enable-background:new 0 0 358.94 102.07;" xml:space="preserve">
<style type="text/css">
	.st0{display:none;fill:#0C4684;}
	.st1{display:none;fill:#F8DC00;}
	.st2{display:none;fill:#DE222A;}
	.st3{display:none;fill:#004996;}
	.st4{display:none;}
	.st5{display:none;fill:#1D1D1B;}
	.st6{display:none;fill:#005AA9;}
	.st7{display:none;fill:#FFEC00;}
	.st8{display:none;fill:#FDA428;}
	.st9{fill:#1D1D1B;}
	.st10{fill:#ED0000;}
	.st11{fill:#E2231A;}
	.st12{fill:#1D1D1B;}
	.st13{fill:#E20613;}
	.st14{fill:#FFD039;}
	.st15{fill:#FCBD1B;}
	.st16{fill:#FF4C00;}
	.st17{fill:#FFE600;}
	.st18{fill:#231F20;}
	.st19{fill:#DB0D15;}
	.st20{fill:#E30613;}
	.st21{fill:#E30613;stroke:#E30613;stroke-width:2.9777;stroke-miterlimit:3.8637;}
</style>
<polygon id="XMLID_172_" class="st5" points="358.941,102.039 -0.001,102.07 0.02,-0.026 358.962,-0.026 "/>
<path id="XMLID_198_" class="st9" d="M158.241,53.06l-3.498,12.521c-0.737,0-1.657,0.184-2.946,0.184
	c-6.629,0-5.892-2.025-3.13-12.889c2.946-11.416,4.603-13.441,8.838-13.441c4.051,0,4.051,2.762,2.946,6.076h10.127
	c1.657-6.444,0.552-12.152-11.416-12.152c-13.257,0-16.94,2.762-21.175,19.333c-4.051,15.467-2.762,19.518,11.784,19.518
	c6.813,0,9.759-0.552,13.81-1.289l4.787-18.045h-10.127V53.06z"/>
<path id="XMLID_197_" class="st9" d="M182.73,65.397c-1.289,0-1.841-0.368-1.473-1.473l2.394-9.022h13.625l1.473-5.892h-13.625
	l1.473-6.076c0.368-1.657,1.473-2.946,3.683-2.946h10.864l1.473-5.892h-15.835c-6.629,0-8.654,1.105-11.232,11.048l-4.603,18.045
	c-1.473,6.076,0.368,8.654,5.34,8.654h13.81c2.762,0,4.419-1.473,5.34-3.683l1.105-2.946L182.73,65.397L182.73,65.397z"/>
<path id="XMLID_196_" class="st9" d="M339.055,65.397c-1.289,0-1.841-0.368-1.473-1.473l2.394-9.022h13.625l1.473-5.892h-13.625
	l1.473-6.076c0.368-1.657,1.473-2.946,3.683-2.946h10.864l1.473-5.892h-15.835c-6.629,0-8.654,1.105-11.232,11.048l-4.787,18.229
	c-1.473,6.076,0.368,8.654,5.34,8.654h13.81c2.762,0,4.419-1.473,5.34-3.683l1.105-2.946H339.055L339.055,65.397z"/>
<path id="XMLID_949_" class="st9" d="M113.867,65.397h-2.762l6.629-25.594c0.921,0,1.105,0,3.314,0c5.892,0,5.892,2.025,3.13,12.889
	C121.232,63.924,119.575,65.397,113.867,65.397L113.867,65.397z M122.705,33.911h-13.625l-9.575,36.826
	c-0.184,0.552,0.184,1.105,0.737,1.105h12.152c15.283,0,17.86-2.946,22.095-19.149C138.171,38.698,135.962,33.911,122.705,33.911
	L122.705,33.911z"/>
<path id="XMLID_193_" class="st9" d="M314.014,33.911c-7.918,0-11.6,0.184-13.625,0l-9.575,36.826
	c-0.184,0.552,0.184,1.105,0.737,1.105h9.206l8.286-32.038c0.921,0,2.21,0,3.498,0c4.419,0,4.971,1.657,3.867,6.076l-6.444,24.857
	c-0.184,0.552,0.184,1.105,0.736,1.105h9.206l6.813-25.962C328.928,37.041,324.877,33.911,314.014,33.911L314.014,33.911z"/>
<path id="XMLID_192_" class="st9" d="M234.839,33.911l-1.657,6.26h10.127c0.184,0,0.184,0.184,0,0.184
	c-1.657,1.289-2.578,2.946-3.13,4.787l-6.629,25.778c-0.184,0.552,0.184,1.105,0.737,1.105h9.759l8.286-31.854h4.971
	c2.762,0,4.603-1.105,5.524-3.683l0.921-2.578H234.839L234.839,33.911z"/>
<path id="XMLID_191_" class="st9" d="M92.508,72.025l9.575-36.826c0.184-0.552-0.184-1.105-0.737-1.105h-9.575l-9.575,36.826
	c-0.184,0.552,0.184,1.105,0.737,1.105H92.508L92.508,72.025z"/>
<path id="XMLID_943_" class="st9" d="M271.296,66.133c-4.419,0-4.971-1.657-2.025-13.441c2.578-9.943,4.971-13.257,8.838-13.257
	c4.419,0,4.787,2.394,2.025,13.257C277.556,63.555,274.794,66.133,271.296,66.133L271.296,66.133z M279.766,33.543
	c-11.416,0-16.572,2.025-20.991,19.518c-3.867,15.098-0.736,19.518,10.864,19.518c11.968,0,16.572-2.394,20.991-19.518
	C293.944,40.539,293.207,33.543,279.766,33.543L279.766,33.543z"/>
<path id="XMLID_188_" class="st11" d="M5.968,53.244l5.892-20.806c0.552-2.21,2.946-4.051,5.34-4.051h18.229
	c0.368,0,0.368,0.368,0.184,0.552C26.222,35.384,14.806,44.959,6.52,53.613C6.336,53.797,5.968,53.613,5.968,53.244L5.968,53.244z"
	/>
<path id="XMLID_187_" class="st9" d="M20.33,65.765l5.892-20.622c0-0.368-0.184-0.552-0.552-0.368
	C17.015,52.139,6.52,63.187,0.076,71.289c-0.184,0.184,0,0.552,0.184,0.552h25.41c10.679,0,16.572-3.314,18.781-11.232
	c1.657-6.444-1.657-10.864-6.997-11.968c-0.184,0-0.184-0.184,0-0.184c4.603-0.737,9.206-2.578,10.864-9.391
	c1.841-7.181-3.683-11.232-10.127-10.864l-9.759,34.064c-0.552,1.841-2.578,3.314-4.419,3.314L20.33,65.765L20.33,65.765z"/>
<path id="XMLID_186_" class="st9" d="M75.752,56.743c-0.368-1.105-0.737-2.025-1.289-2.578v-0.184
	c4.419-1.289,7.181-4.051,8.47-8.838c1.657-6.26-2.21-11.048-12.152-11.048H56.235L46.66,70.921
	c-0.184,0.552,0.184,1.105,0.737,1.105h9.206l8.286-32.038c0.921,0,1.657,0,3.867,0c3.498,0,4.787,2.21,4.051,5.156
	c-0.921,3.867-4.051,6.076-7.549,6.076h-1.289l3.867,18.413c0.368,1.841,1.289,2.578,3.498,2.578h8.102L75.752,56.743L75.752,56.743
	z"/>
<path id="XMLID_185_" class="st9" d="M200.223,59.136c-3.867,9.206,1.105,13.441,11.416,13.441c9.391,0,14.546-2.21,16.756-10.864
	c0.737-2.946,0.184-6.076-1.473-8.102c-3.498-3.867-10.311-4.603-12.705-6.813c-1.289-1.105-1.105-2.762-0.921-4.051
	c0.552-2.578,2.394-3.867,4.971-3.867c4.235,0,4.419,2.578,3.314,5.708h9.022c2.21-6.444-0.737-11.6-11.416-11.6
	c-9.022,0-13.81,3.498-15.651,10.311c-0.552,1.841-0.368,4.971,0.737,6.813c2.394,4.235,9.022,4.787,12.705,7.365
	c1.657,1.105,1.657,2.578,1.289,4.235c-0.737,3.13-2.394,4.603-5.524,4.603c-3.13,0-4.787-1.841-3.13-7.365L200.223,59.136
	L200.223,59.136z"/>
</svg>
