<?xml version="1.0" encoding="utf-8"?>
<!-- Generator: Adobe Illustrator 20.0.0, SVG Export Plug-In . SVG Version: 6.00 Build 0)  -->
<svg version="1.1" id="Layer_1" xmlns="http://www.w3.org/2000/svg" xmlns:xlink="http://www.w3.org/1999/xlink" x="0px" y="0px"
	 viewBox="0 0 358.9 102.1" style="enable-background:new 0 0 358.9 102.1;" xml:space="preserve">
<style type="text/css">
	.st0{display:none;fill:#FDA428;}
	.st1{fill:#1D1D1B;}
</style>
<rect id="XMLID_239_" y="0.6" class="st0" width="358.9" height="101.4"/>
<path class="st1" d="M60.5,26.2c0,0,6.5,6,9.5,9.2V38c-2.8-2.7-8.5-4.9-13.9-4.9c-12,0-19.6,8.4-19.6,19c0,10.4,7.2,18.9,19.6,18.9
	c6.2,0,11.2-2.7,14-5.5v2.4c-3.8,4.9-10.6,8-19.3,8c-15.6,0-26.3-10.2-26.3-23.8c0-13.7,11.9-23.9,26.3-23.9c3.7,0,6.8,0.6,9.7,1.5
	V26.2L60.5,26.2z M43,52.1c0,7.8,5.2,14.2,14,14.2c8.8,0,14-6.3,14-14.2c0-7.8-5.2-14.2-14-14.2C48.2,37.9,43,44.2,43,52.1L43,52.1
	L43,52.1z M53.3,52c0-7.9,0.8-11.4,3.7-11.4c2.9,0,3.7,3.5,3.7,11.4c0,7.9-0.8,11.4-3.7,11.4C54.1,63.4,53.3,59.9,53.3,52L53.3,52
	L53.3,52z M325.9,49.4c-0.3-0.9-0.7-2-1-2.5c0,0,0.1-0.2,0.5,0c0.3,0.2,2.5,1.5,2.5,1.5c1.2,1.5,2.3,7.8,2.5,10.1
	c-1-0.4-2.4-1-3.4-1.9L325.9,49.4L325.9,49.4z M319.3,43.9c-1.9-1.8-3.4-3.4-5-5.4c0.8-1.8,1.1-6.4,0.6-8.1
	c-0.2-0.5-1.8-2.4-2.1-2.7c-0.4-0.3-1.7-1.5-2.3-1.5c-0.1,0-0.2,0-0.3,0.1l0.3,1.5c-1.5,1.2-3.5,2.7-5.3,4.2c0,0.6,0.1,1.4,0.2,1.7
	c0.3,0.2,0.7,0.4,1,0.5c0.7-0.2,3-1,3.6-0.9l-2,3.5l-2.4,2l-3.3-0.7c-0.2,0-0.3,0.1-0.5,0.2l-2.3,2.7c-0.1,0.1-0.2,0.3-0.2,0.6
	l0.2,2.9c0,0,0,0.5,0,1c0.1,2.1,1.2,3,1.2,3l1.4-2.4c-0.2-0.3-0.6-1.2-0.7-1.7c0-0.1-0.1-2.5-0.1-2.5l1.4-1.2l4.2,2.5
	c0,0,1.3,2,2.4,3.1c0.8,0.8,4.4,2.9,6.1,3.8c0.3,0.8,0.7,2.3,1,3.1l5.3,4.7l-2.7,3.4c-1,0.7-2,1.8-1.9,2.9h3.4l0.3-1.9l3.9-4.4
	c0.2-0.2,0.1-0.3,0-0.7l-1.4-3.7c0.5-0.7,1.6-2.4,1.5-4.4C324.5,45.5,320.6,44.9,319.3,43.9L319.3,43.9L319.3,43.9z M300.6,37.9
	c-0.1,0-3.1,1.1-3.1,1.1s-1.4,0.6-2,1.1c-0.5,0.5-1.2,1.2-1.2,1.5l2.7,0.5c0.3-0.5,0.8-1,1.2-1.4l0.6-0.4l2.1-2.4
	C300.9,38,300.8,37.9,300.6,37.9L300.6,37.9L300.6,37.9z M318.3,56.1l1.7,1.4l-3.9,3c-0.3,0.4-0.6,1-0.7,1.5h-3
	c0.2-1.1,1.7-2.5,2.5-2.9L318.3,56.1L318.3,56.1z M334.5,66.7h-41.4v-1.4h41.4V66.7L334.5,66.7z M124.1,31c0,2.3,2.3,3.7,5.6,3.7
	c3.2,0,5.5-1.4,5.5-3.7c0-2.3-2.3-3.7-5.5-3.7C126.4,27.3,124.1,28.7,124.1,31L124.1,31L124.1,31z M216.4,46.7
	c0-2.6-0.8-4.7-3.1-4.7c-2.3,0-3.2,2-3.2,4.7v17.2h2.7v2.7h-14.6v-2.7h2.7V40.2h-2.7v-2.7h11.5V42h0.1c1.1-2.4,3.6-5,7.7-5
	c4.3,0,6.9,2.6,7.7,6.1c0.3,1.4,0.4,3.6,0.4,4.7v16.2h3.5v2.7h-12.7V46.7L216.4,46.7z M157.4,46.7c0-2.6-0.8-4.7-3.1-4.7
	s-3.2,2-3.2,4.7v17.2h2.7v2.7h-14.6v-2.7h2.7V40.2h-2.7v-2.7h11.5V42h0.1c1.1-2.4,3.6-5,7.7-5c4.3,0,6.9,2.6,7.7,6.1
	c0.3,1.4,0.4,3.6,0.4,4.7v16.2h3.5v2.7h-12.7V46.7L157.4,46.7z M241.4,40.2v21.5c0,1.5,1,1.8,1.9,1.8c0.9,0,1.7-0.3,1.7-0.3v2.7
	c0,0-1.7,1.1-5.6,1.1c-4.5,0-7.2-2.2-7.2-6.9V40.2H229v-2c3.4-2.3,7.5-5.2,10.6-7.7h1.7v7h4.4v2.7H241.4L241.4,40.2z M193.8,58.9
	c-1.3,1.5-3.4,2.7-6.4,2.7c-2.7,0-6.8-1.5-6.9-8.2H196c0-0.5,0.1-1.6,0.1-2.1c0-8.2-3.4-14.3-12.1-14.3c-8.8,0-13.3,6.8-13.3,15.2
	s4.5,15,13.3,15c5.7,0,9.2-2.7,11.3-6.8L193.8,58.9L193.8,58.9z M180.5,50.6c0-7.7,0.6-10.5,3.2-10.5c2.7,0,3.2,2.8,3.3,10.5H180.5
	L180.5,50.6z M91.2,46.7c0-2.6-0.8-4.7-3.1-4.7c-2.3,0-3.2,2-3.2,4.7v17.2h2.7v2.7H73.1v-2.7h2.7V40.2h-2.7v-2.7h11.5V42h0.1
	c1.1-2.4,3.6-5,7.7-5c4.3,0,6.9,2.6,7.7,6.1c0.3,1.4,0.4,3.6,0.4,4.7v16.2h3.5v2.7H91.2V46.7L91.2,46.7z M116.3,40.2v21.5
	c0,1.5,1,1.8,1.9,1.8c0.9,0,1.7-0.3,1.7-0.3v2.7c0,0-1.7,1.1-5.6,1.1c-4.5,0-7.2-2.2-7.2-6.9V40.2h-3.1v-2c3.4-2.3,7.5-5.2,10.6-7.7
	h1.7v7h3.6v2.7H116.3L116.3,40.2z M286.3,63.9h3.6v2.7h-12.8V31.2h-3.2v-2.7h12.4V63.9L286.3,63.9z M261.7,52.3
	c-0.3-0.3-0.8-0.6-2-0.6c-2.7,0-3.4,2.7-3.4,5.5c0,2.7,0.8,5,3.2,5c1.1,0,1.8-0.5,2.2-0.9V52.3L261.7,52.3z M262.1,63.2h-0.1
	c-1.7,2.4-4,4-7.5,4c-4.8,0-7.7-4.1-7.7-8.9c0-5.8,4.1-9.5,10.8-9.5c2.7,0,4.1,0.6,4.1,0.6v-1.8c0-3.5-2.2-5.4-5.4-5.4
	c-4.4,0-6.7,3.4-6.7,3.4l-1.6-2c2.9-4.5,7.4-6.6,11.6-6.6c7.1,0,11.2,4.2,11.2,10.5v16.4h3v2.7h-11.8V63.2L262.1,63.2z M122.3,66.7
	v-2.7h2.7V40.2h-2.7v-2.7h11.9v26.4h2.7v2.7H122.3L122.3,66.7z"/>
</svg>
