<?xml version="1.0" standalone="no"?>
<!DOCTYPE svg PUBLIC "-//W3C//DTD SVG 20010904//EN"
 "http://www.w3.org/TR/2001/REC-SVG-20010904/DTD/svg10.dtd">
<svg version="1.0" xmlns="http://www.w3.org/2000/svg"
 width="358.94" height="102.07" viewBox="0 0 3600.000000 1024.000000"
 preserveAspectRatio="xMidYMid meet">

<g transform="translate(0.000000,1024.000000) scale(0.100000,-0.100000)"
fill="#1D1D1B" stroke="none">
<path d="M15275 7665 c-234 -44 -433 -181 -527 -361 -21 -42 -111 -307 -228
-674 -177 -553 -194 -611 -193 -676 0 -102 39 -183 136 -279 81 -81 149 -118
291 -159 200 -58 215 -59 1382 -63 873 -3 1073 -2 1081 9 6 7 68 122 137 254
79 152 124 247 120 258 -6 15 -99 16 -1106 16 -876 0 -1099 3 -1095 13 2 6 78
244 167 527 99 315 170 523 182 537 27 30 102 60 179 72 41 7 402 11 1009 11
l945 0 133 251 c74 137 131 256 128 264 -5 13 -179 15 -1338 14 -1061 -1
-1347 -4 -1403 -14z"/>
<path d="M18670 7670 c-264 -33 -467 -163 -584 -374 -42 -74 -416 -1250 -416
-1305 1 -106 51 -212 145 -306 110 -111 259 -173 507 -212 102 -16 193 -18
908 -18 868 0 913 2 1118 61 187 53 325 150 391 273 19 35 116 326 233 693
190 598 201 637 202 713 0 103 -23 157 -102 233 -121 117 -297 192 -547 233
-84 14 -1753 22 -1855 9z m1580 -541 c0 -8 -272 -872 -322 -1024 -14 -42 -54
-76 -117 -97 -26 -9 -195 -13 -630 -16 -532 -2 -593 -1 -588 13 4 8 79 243
168 523 89 279 166 515 171 525 13 25 101 64 168 76 82 13 1150 14 1150 0z"/>
<path d="M22045 7669 c-104 -13 -235 -57 -325 -111 -93 -56 -204 -171 -252
-263 -23 -45 -101 -275 -216 -640 -100 -313 -186 -591 -192 -616 -25 -101 32
-250 137 -355 107 -107 285 -180 523 -214 119 -17 1417 -26 1638 -11 418 29
659 133 766 330 15 29 118 337 228 684 219 693 227 725 193 828 -14 43 -33 69
-91 126 -115 114 -287 190 -524 230 -81 14 -218 16 -950 19 -498 1 -888 -2
-935 -7z m1590 -541 c-25 -77 -319 -1008 -323 -1023 -8 -33 -52 -73 -101 -92
-42 -16 -99 -18 -642 -21 l-596 -3 171 537 171 536 42 25 c79 46 145 51 735
52 434 1 547 -2 543 -11z"/>
<path d="M25445 7674 c-285 -32 -463 -124 -577 -299 -43 -66 -69 -142 -414
-1237 -113 -361 -204 -664 -201 -672 6 -14 57 -16 452 -16 l446 0 13 31 c7 17
71 215 142 440 l129 409 965 0 c1060 1 1067 1 1187 60 45 22 76 47 103 82 40
50 64 117 194 539 65 209 47 313 -76 431 -107 103 -310 187 -529 217 -73 10
-1753 24 -1834 15z m1531 -551 l22 -13 -22 -72 c-13 -40 -30 -87 -39 -104 -31
-60 -13 -59 -699 -62 -346 -1 -628 -1 -628 1 0 15 72 213 82 225 34 41 47 42
668 39 449 -1 600 -5 616 -14z"/>
<path d="M28761 7668 c-155 -19 -309 -84 -422 -178 -52 -45 -134 -147 -173
-221 -14 -25 -109 -310 -211 -635 l-186 -589 3 -85 c5 -112 30 -163 124 -257
60 -60 92 -81 186 -127 129 -63 261 -100 409 -116 63 -6 486 -10 1124 -10
l1023 0 126 245 c69 134 126 251 126 260 0 8 -6 15 -12 16 -7 0 -505 0 -1107
-1 -898 -1 -1092 1 -1088 12 2 7 29 88 58 180 l54 168 803 0 803 0 13 33 c35
86 148 467 143 481 -6 14 -82 16 -792 16 -533 0 -785 3 -785 10 0 6 14 47 31
90 28 73 35 83 77 108 l47 27 1005 3 1005 2 143 260 c79 143 146 268 149 280
3 12 0 21 -8 24 -28 9 -2596 13 -2668 4z"/>
<path d="M31647 7673 c-3 -5 -132 -409 -286 -898 -154 -490 -308 -978 -342
-1086 -34 -108 -59 -204 -56 -213 6 -14 52 -16 452 -16 l446 0 13 33 c8 17 71
213 142 435 l128 402 435 0 436 0 171 -438 172 -437 413 -3 c228 -1 424 0 437
3 12 3 22 12 22 19 0 11 -240 809 -256 850 -4 10 19 14 88 19 166 10 290 65
353 157 21 32 58 131 120 330 86 272 90 289 90 375 0 78 -4 97 -27 141 -72
136 -258 247 -518 306 -94 22 -105 22 -1262 25 -641 2 -1169 0 -1171 -4z
m1997 -532 c59 -14 62 -22 41 -93 -10 -35 -26 -79 -36 -98 -34 -68 2 -65 -698
-68 -511 -2 -632 0 -629 10 3 7 19 56 37 109 34 104 47 122 101 137 44 13
1130 15 1184 3z"/>
<path d="M7015 7333 c-818 -28 -1442 -80 -2100 -174 -1563 -224 -2720 -641
-3247 -1171 -210 -212 -308 -421 -308 -658 0 -217 68 -379 251 -596 345 -409
1143 -813 2208 -1118 734 -211 1280 -314 1961 -370 304 -26 405 -30 428 -17
28 15 29 57 2 71 -12 6 -138 31 -282 56 -421 72 -627 118 -957 215 -886 262
-1458 608 -1655 1002 -58 116 -79 198 -79 312 -1 386 363 786 1011 1109 370
185 750 320 1267 450 1171 295 2804 404 4190 281 1468 -131 2669 -540 3128
-1064 84 -96 127 -164 166 -266 33 -85 35 -97 35 -215 1 -147 -12 -197 -85
-340 -181 -355 -641 -691 -1307 -954 -484 -191 -1396 -401 -2222 -512 -69 -9
-135 -20 -147 -25 -28 -10 -32 -56 -6 -66 31 -12 462 41 833 103 610 102 1231
254 1610 396 999 373 1594 924 1592 1474 0 176 -44 316 -144 466 -185 276
-515 527 -1010 768 -1135 552 -2824 858 -4683 848 -203 -1 -406 -3 -450 -5z"/>
<path d="M8660 6393 c-458 -24 -680 -41 -1000 -79 -1019 -119 -1943 -353
-2555 -649 -742 -359 -949 -788 -565 -1175 397 -400 1375 -703 2645 -819 330
-30 480 -39 1055 -57 442 -14 578 -15 860 -5 786 27 1404 109 2044 271 362 91
671 204 984 360 196 97 242 129 242 166 0 33 -22 31 -116 -12 -571 -261 -1379
-410 -2349 -433 -1366 -32 -2581 158 -3304 516 -300 149 -507 339 -558 512
-25 89 -15 194 30 283 145 294 598 569 1274 773 597 181 1312 277 2198 294
331 6 340 7 340 26 0 19 -9 20 -145 26 -143 6 -973 8 -1080 2z"/>
<path d="M31664 4801 c-85 -52 -117 -158 -74 -246 64 -133 257 -137 324 -7 50
96 11 220 -81 258 -48 20 -132 18 -169 -5z m143 -31 c112 -50 111 -209 0 -264
-123 -60 -241 100 -162 220 15 23 85 64 110 64 6 0 29 -9 52 -20z"/>
<path d="M31680 4635 l0 -105 25 0 c23 0 25 4 25 45 0 42 1 44 22 36 15 -5 26
-21 31 -45 7 -29 14 -36 33 -36 22 0 24 3 18 28 -4 15 -11 38 -16 51 -5 15 -5
28 2 35 15 15 12 62 -6 80 -10 11 -34 16 -75 16 l-59 0 0 -105z m100 60 c16
-19 -3 -45 -31 -45 -14 0 -19 7 -19 30 0 23 5 30 19 30 10 0 24 -7 31 -15z"/>
<path d="M28800 4799 c-168 -18 -337 -68 -456 -134 -83 -46 -198 -159 -238
-233 -34 -64 -192 -560 -208 -652 -22 -126 7 -202 94 -246 116 -60 79 -57
1111 -61 l947 -4 -5 -22 c-4 -12 -29 -97 -58 -190 l-52 -167 -1070 -3 -1070
-2 -122 -235 c-68 -129 -123 -245 -123 -258 l0 -23 1273 3 c1406 4 1339 1
1552 69 163 52 344 177 397 275 14 27 77 207 138 399 104 325 112 354 107 411
-8 112 -67 179 -198 226 l-64 23 -962 3 c-530 1 -963 5 -963 8 0 30 67 211 87
235 58 68 -25 63 1142 69 l1055 5 124 243 c68 133 121 249 118 257 -5 13 -163
15 -1243 14 -681 -1 -1272 -5 -1313 -10z"/>
<path d="M17096 4545 c-43 -136 -75 -253 -72 -260 5 -13 78 -15 512 -15 l506
0 -6 -25 c-3 -14 -121 -389 -261 -834 -140 -446 -252 -817 -249 -825 5 -14 58
-16 450 -16 412 0 444 1 452 18 8 13 405 1267 512 1615 l21 67 484 0 484 0 40
128 c95 304 111 359 111 375 0 16 -100 17 -1453 17 l-1453 0 -78 -245z"/>
<path d="M20275 4708 c-14 -46 -170 -539 -346 -1096 -177 -557 -318 -1020
-315 -1028 5 -12 73 -14 451 -14 l445 0 10 23 c24 52 680 2152 680 2173 l0 24
-450 0 -449 0 -26 -82z"/>
<path d="M21465 4778 c-3 -7 -129 -406 -280 -887 -151 -480 -305 -967 -341
-1082 -37 -114 -64 -215 -61 -224 6 -13 60 -15 450 -15 344 0 447 3 454 13 6
6 70 201 144 433 l134 421 275 6 c151 4 347 7 435 7 l160 0 171 -438 172 -437
437 -3 438 -2 -6 37 c-3 21 -62 219 -130 439 l-123 401 85 7 c191 15 306 69
366 171 14 23 66 173 116 331 109 346 114 388 60 498 -78 158 -315 284 -615
325 -119 17 -2335 15 -2341 -1z m2042 -535 l21 -13 -25 -82 c-14 -45 -31 -91
-39 -103 -33 -50 -26 -50 -696 -53 -346 -1 -628 -1 -628 1 0 15 72 213 82 225
34 41 47 42 668 39 452 -1 600 -5 617 -14z"/>
<path d="M25385 4783 c-131 -18 -280 -71 -369 -133 -91 -62 -188 -176 -244
-285 -11 -22 -102 -299 -203 -615 -176 -554 -183 -578 -183 -660 -1 -75 3 -92
30 -150 65 -135 219 -247 432 -314 181 -57 162 -56 1333 -56 l1078 0 118 233
c65 127 118 243 118 257 l0 25 -1093 1 c-601 1 -1095 4 -1098 7 -3 3 20 85 53
183 l58 177 796 -7 c645 -6 798 -4 806 6 17 21 165 497 158 508 -4 7 -271 10
-758 10 -414 0 -769 3 -789 6 l-37 6 26 72 c30 83 71 129 135 148 34 10 251
13 1026 13 l983 0 145 262 c79 144 144 270 144 281 0 17 -11 19 -127 25 -136
7 -2487 7 -2538 0z"/>
</g>
</svg>
