<?xml version="1.0" encoding="utf-8"?>
<!-- Generator: Adobe Illustrator 20.0.0, SVG Export Plug-In . SVG Version: 6.00 Build 0)  -->
<svg version="1.1" id="Layer_1" xmlns="http://www.w3.org/2000/svg" xmlns:xlink="http://www.w3.org/1999/xlink" x="0px" y="0px"
	 viewBox="0 0 358.94 102.07" style="enable-background:new 0 0 358.94 102.07;" xml:space="preserve">
<style type="text/css">
	.st0{display:none;fill:#0C4684;}
	.st1{display:none;fill:#F8DC00;}
	.st2{display:none;fill:#DE222A;}
	.st3{display:none;fill:#004996;}
	.st4{display:none;}
	.st5{display:none;fill:#1D1D1B;}
	.st6{display:none;fill:#005AA9;}
	.st7{display:none;fill:#FFEC00;}
	.st8{display:none;fill:#FDA428;}
	.st9{fill:#FFFFFF;}
	.st10{fill:#ED0000;}
	.st11{fill:#E2231A;}
	.st12{fill:#1D1D1B;}
	.st13{fill:#E20613;}
	.st14{fill:#FFD039;}
	.st15{fill:#FCBD1B;}
	.st16{fill:#FF4C00;}
	.st17{fill:#FFE600;}
	.st18{fill:#231F20;}
	.st19{fill:#DB0D15;}
	.st20{fill:#E30613;}
	.st21{fill:#E30613;stroke:#E30613;stroke-width:2.9777;stroke-miterlimit:3.8637;}
</style>
<rect id="XMLID_382_" x="-0.03" y="0" class="st1" width="358.917" height="102.07"/>
<g id="Dunlop">
	<g id="XMLID_383_">
		<path id="XMLID_398_" class="st12" d="M323.994,48.57l-2.261,5.737h4.346l-2.261,5.042h-23.297l2.087-5.042h4.695l7.301-16.517
			h-4.869l1.566-5.042h31.295c5.564,0,7.127,0.869,7.651,2.782c0.174,2.434-0.695,3.824-1.39,5.911
			c-1.216,2.782-3.998,7.301-9.909,7.127L323.994,48.57L323.994,48.57z M331.816,43.529c2.261,0,2.608-1.042,2.782-1.39
			c0.347-1.042,0.695-1.39,1.042-2.261c0.174-0.695,0.174-2.087-1.566-2.087c-1.566,0-5.216,0-5.216,0l-2.434,5.737
			C326.426,43.529,330.774,43.529,331.816,43.529L331.816,43.529z"/>
		<path id="XMLID_395_" class="st12" d="M86.504,59.523l2.261-5.042h4.695l7.301-16.517h-4.172l2.261-5.042h33.032
			c1.566,0.347,3.651,1.216,4.521,3.129c2.434,4.346-0.869,8.519-2.261,12.344c-2.261,4.695-5.737,10.257-11.475,10.78l-2.261,0.347
			H86.504V59.523z M113.452,54.307c1.39,0,1.913-0.347,3.129-1.39c2.087-2.434,5.564-10.78,5.737-13.212
			c0.174-1.042-0.869-1.913-2.087-1.913c-2.087,0-5.564,0-5.564,0l-7.301,16.517C107.367,54.307,111.193,54.307,113.452,54.307
			L113.452,54.307z"/>
		<path id="XMLID_392_" class="st12" d="M277.574,59.523c-3.303,0-5.564,0-8.519-0.174c-2.608-0.174-5.564-1.216-6.432-3.651
			c-1.39-3.824,0.347-6.259,2.087-9.735c3.129-6.085,4.521-10.432,9.388-11.996c3.998-1.566,9.04-1.216,13.562-1.39
			c4.521,0,8.693,0,13.038,0.695c2.261,0.347,4.869,1.216,5.737,3.824c0.695,3.129-1.39,6.259-1.913,7.477
			c-2.608,5.737-2.782,5.911-5.042,9.562c-2.087,3.129-6.259,4.869-9.388,5.042c-3.651,0.347-8.172,0.347-11.822,0.347
			L277.574,59.523L277.574,59.523z M287.83,50.309c1.39-3.129,2.782-5.564,3.998-8.693c0.347-1.216,1.39-4.521-4.521-4.695
			c-5.737,0-7.127,2.782-7.651,4.346c-0.869,2.261-3.477,6.954-3.824,8.693c-1.216,4.346,2.261,4.521,3.824,4.521
			C279.66,54.307,285.919,55.002,287.83,50.309L287.83,50.309z"/>
		<path id="XMLID_391_" class="st12" d="M176.91,37.792c0,0-4.346,11.127-7.301,16.168c-2.434,4.346-7.301,5.216-11.996,5.737
			c-4.869,0.174-9.909,0.347-14.604-0.347c-2.087-0.347-3.998-2.434-4.521-4.521c-0.347-1.566,0.174-3.129,0.869-4.346
			c1.913-3.998,5.216-12.691,5.216-12.691h-4.521l2.087-5.042h23.471l-2.087,5.042h-4.521l-5.564,12.691
			c-0.174,1.042-0.174,2.087,0.695,2.782c1.566,1.39,4.521,1.216,6.432,0.869c1.913-0.695,3.477-2.261,4.346-3.824l5.216-12.344
			h-4.346l2.261-5.042h15.473l-2.261,5.042L176.91,37.792L176.91,37.792z"/>
		<polygon id="XMLID_390_" class="st12" points="222.46,37.792 213.246,59.523 202.119,59.523 193.601,43.18 188.733,54.307 
			193.078,54.307 190.993,59.176 174.65,59.523 176.91,54.307 181.953,54.307 188.906,37.792 184.385,37.792 186.298,32.75 
			202.989,32.75 210.985,48.57 215.68,37.792 211.335,37.792 213.42,32.75 229.068,32.75 227.155,37.792 		"/>
		<polygon id="XMLID_389_" class="st12" points="249.234,37.792 242.28,54.307 249.757,54.307 256.711,46.659 261.404,46.659 
			255.668,59.523 220.549,59.523 222.981,54.307 227.676,54.307 234.804,37.792 230.284,37.792 232.024,32.75 255.842,32.75 
			253.929,37.792 		"/>
		<path id="XMLID_388_" class="st13" d="M32.435,66.303c-13.388,0-21.036-10.257-21.036-19.647s7.651-19.994,20.689-19.994
			c-1.39-1.216-19.473-17.907-19.473-17.907L77.29,46.831L13.312,84.037L32.435,66.303L32.435,66.303z"/>
		<path id="XMLID_387_" class="st9" d="M35.043,64.913c10.257,0,18.255-8.345,18.255-18.255c0-10.257-8.172-18.255-18.255-18.255
			s-18.428,7.998-18.428,18.255C16.615,56.568,24.784,64.913,35.043,64.913L35.043,64.913z"/>
		<path id="XMLID_384_" class="st12" d="M37.999,53.96H19.57l2.087-4.346h2.434l2.956-6.606h-2.434l1.913-4.346h18.95
			c3.651,0,5.564,2.261,5.564,5.216c0,1.216-0.347,2.782-1.042,4.172c-2.261,5.564-5.564,5.911-10.083,5.911
			c-0.347,0-0.521,0-0.869,0C38.694,53.96,38.346,53.96,37.999,53.96L37.999,53.96z M32.087,49.614h4.346
			c1.566,0,3.651,0,5.042-3.129c0.174-0.521,0.347-1.042,0.347-1.566c0-1.216-0.695-2.087-1.913-2.087h-4.869L32.087,49.614
			L32.087,49.614z"/>
	</g>
</g>
</svg>
