<svg width="120" height="120" viewBox="0 0 120 120" fill="none" xmlns="http://www.w3.org/2000/svg">
<path d="M18.9338 82.1308C20.9285 82.2395 22.924 82.2182 24.9202 82.1795C25.2629 82.1727 25.5461 82.0406 25.8142 81.8512C26.2703 81.5293 26.7864 81.3555 27.4405 81.2347C26.4454 80.3092 25.6839 79.3112 25.1594 78.1444C25.0773 77.9618 24.9262 77.9071 24.7363 77.8954C21.4816 77.6964 19.9719 75.6137 19.2779 72.6953C18.4766 69.3253 18.6774 66.0073 19.8982 62.6629C20.6696 63.193 21.4097 63.6886 22.1367 64.2035C23.9955 65.5191 25.9125 66.7346 27.9456 67.7628C29.4867 68.5423 31.0493 68.6951 32.7238 68.2133C39.1886 66.3537 45.6625 64.5264 52.1385 62.7077C53.464 62.3353 54.6377 61.7253 55.6588 60.7987C56.5063 60.0298 57.3693 59.278 58.3567 58.4026C56.3285 58.6311 54.5239 59.0492 52.7391 59.5779C46.944 61.2943 41.3204 63.5039 35.6594 65.6072C34.4202 66.0677 33.1754 66.5132 31.9337 66.9673C30.9274 67.335 29.9531 67.2256 29.064 66.6614C26.2527 64.8785 23.6028 62.8661 20.9779 60.8189C20.6084 60.5308 20.8768 60.3606 21.006 60.1471C22.1741 58.2221 23.9047 56.9917 25.9206 56.1223C28.1732 55.1506 30.5057 54.4286 32.8992 53.9099C33.1796 53.8492 33.4058 53.7468 33.6245 53.5664C38.7514 49.338 44.5903 46.5781 50.993 44.9569C56.8068 43.4849 62.6773 43.3705 68.6014 44.0257C73.0679 44.5195 77.4033 45.514 81.4921 47.4113C86.0646 49.5331 89.8731 52.6373 92.8249 56.7714C93.0317 57.061 93.2518 57.2046 93.5956 57.2618C95.7757 57.6252 97.0917 58.9739 97.9029 60.9937C99.1079 63.9945 99.6211 67.1009 99.2175 69.8583C98.9924 69.5673 98.8032 69.3328 98.625 69.0905C96.2304 65.8335 92.5861 65.8943 90.5808 69.3808C88.7671 72.534 88.8104 75.8411 90.71 78.9815C91.7629 80.7221 93.3617 81.6146 95.4625 81.2301C95.9564 81.1399 96.3562 81.2131 96.7708 81.4934C97.1607 81.757 97.6035 81.9414 98.023 82.1606C99.0304 82.2708 100.038 82.2544 101.046 82.1681L101.049 82.167C101.688 82.0622 102.177 82.3493 102.354 82.932C102.544 83.5598 102.19 84.2519 101.536 84.5088C101.083 84.6868 100.593 84.7084 100.136 84.6253C98.8254 84.3873 97.5098 84.5081 96.1973 84.4946C95.2057 84.4842 94.2113 84.4217 93.2208 84.5393C87.903 84.551 82.5848 84.5649 77.267 84.5706C76.765 84.5709 76.3124 84.6694 76.331 85.2652C76.3497 85.8546 76.8214 85.9303 77.311 85.9292C81.1811 85.9207 85.0509 85.9179 88.921 85.9171C89.9302 85.9171 90.4219 86.2135 90.3997 86.7873C90.3782 87.3433 89.9351 87.5899 88.9439 87.5902C70.1182 87.5945 51.2924 87.598 32.467 87.6012C31.5051 87.6016 31.0503 87.3277 31.0556 86.7553C31.0609 86.1772 31.5209 85.9097 32.4649 85.9111C37.0839 85.9175 41.7029 85.9168 46.3219 85.926C46.8006 85.9271 47.3452 85.8923 47.3416 85.3224C47.3381 84.7251 46.8249 84.5724 46.2567 84.5727C39.7652 84.5749 33.273 84.6218 26.7829 84.5194C24.6669 84.486 22.5496 84.4192 20.4319 84.4221C19.6059 84.7784 18.7453 84.6726 18.2286 84.1457C17.863 83.773 17.7432 83.3249 17.9454 82.8421C18.1222 82.42 18.3723 82.0395 18.9338 82.1308Z" fill="#01133C"/>
<path d="M0.00784443 61.3824C0.00784443 60.1492 0.0212297 58.9156 0.000447285 57.6828C-0.00694986 57.2511 0.0730097 57.0749 0.571084 57.0887C2.04312 57.1303 3.51691 57.1037 4.99 57.0962C5.35774 57.0944 5.55077 57.1214 5.52541 57.6302C4.85931 71.0357 8.72732 82.9991 16.9677 93.4952C23.4758 101.785 31.7599 107.616 41.6101 111.24C48.4584 113.759 55.5086 114.854 62.7666 114.453C71.4234 113.976 79.5201 111.499 87.0606 107.182C95.9273 102.105 102.949 95.1334 107.9 86.1435C112.749 77.3393 114.995 67.8729 114.424 57.7791C114.39 57.1722 114.545 57.0752 115.094 57.0912C116.516 57.1328 117.94 57.1257 119.363 57.0969C119.835 57.0873 119.924 57.25 119.943 57.6991C120.502 70.9281 116.992 82.986 109.559 93.8558C102.819 103.713 93.8614 110.837 82.8731 115.369C76.3756 118.048 69.6382 119.662 62.6155 119.946C48.2073 120.528 35.2246 116.366 23.6808 107.729C15.0395 101.265 8.63644 92.9601 4.39717 82.9711C1.57498 76.3221 0.002913 68.7622 0.00784443 61.3824Z" fill="#01133C"/>
<path d="M68.6894 8.39699C68.34 8.39699 67.9885 8.37247 67.6412 8.40125C66.3519 8.50926 65.2762 8.22574 64.1381 7.42988C62.0264 5.95364 59.648 5.90426 57.4416 7.32188C55.2904 8.70432 54.2735 10.8151 54.4971 13.369C54.7282 16.0113 56.0671 17.9892 58.6385 18.839C61.2057 19.6875 63.4646 19.0018 65.3072 17.0235C65.6471 16.6586 65.9662 16.5055 66.4523 16.5076C68.2245 16.5151 69.9973 16.5009 71.7684 16.4518C72.3229 16.4365 72.3697 16.5836 72.2147 17.081C69.5877 25.5043 59.5723 28.4788 52.8169 22.819C52.4629 22.5223 52.2269 22.457 51.7898 22.6627C46.8425 24.9902 41.8815 27.2886 36.9247 29.5955C36.5601 29.7653 36.2375 29.9863 35.9627 30.2933C30.7611 36.1002 25.5489 41.8979 20.3537 47.7108C19.4882 48.6793 18.8267 49.8205 17.7978 50.6569C14.4096 53.4108 9.41366 52.9251 6.73343 49.5565C4.00388 46.1258 4.43855 40.8885 8.10225 38.4668C11.1175 36.474 13.2929 33.7364 15.7442 31.2391C19.7989 27.1081 23.7278 22.8517 27.7029 18.6418C28.0601 18.2635 28.5046 18.0489 28.9566 17.8403C35.278 14.9226 41.6367 12.0885 48.0194 9.30974C48.5026 9.0994 48.7436 8.79776 48.9201 8.31243C51.384 1.537 59.008 -1.83117 65.5302 1.0133C68.5197 2.31723 70.6367 4.55521 71.903 7.59119C72.2418 8.40374 72.2235 8.41227 71.3859 8.40765C70.4873 8.40267 69.5884 8.40658 68.6898 8.40658C68.6894 8.40339 68.6894 8.40019 68.6894 8.39699Z" fill="#01133C"/>
<path d="M88.3837 9.51852C91.9365 9.70861 95.0616 10.8004 97.7936 12.9698C102.922 17.0426 104.397 23.6396 101.444 29.4789C101.17 30.0207 101.464 30.285 101.689 30.6037C103.569 33.2656 105.462 35.9175 107.356 38.569C108.346 39.9564 109.382 41.3133 110.333 42.7281C111.717 44.7884 111.495 47.371 109.843 49.1951C108.256 50.9474 105.579 51.4324 103.538 50.3398C102.791 49.9398 102.242 49.3322 101.757 48.6497C98.9972 44.7653 96.2198 40.8937 93.4856 36.9912C93.0052 36.3051 92.5508 36.0542 91.6652 36.1456C84.1374 36.924 77.8252 30.8254 78.0446 23.0598C78.0724 22.077 78.1503 21.1 78.3166 20.1311C78.6012 18.4698 79.1154 16.8709 79.6343 15.1758C80.6759 16.6588 81.5111 18.1848 82.4174 19.6646C83.5953 21.5885 84.7838 23.506 85.9511 25.4363C86.1603 25.782 86.2938 25.9206 86.7162 25.6587C89.2421 24.0923 91.7829 22.5492 94.3398 21.035C94.8404 20.7387 94.9006 20.513 94.6022 20.0181C92.7487 16.9456 90.9227 13.8563 89.0903 10.7706C88.8614 10.3861 88.6493 9.99071 88.3837 9.51852Z" fill="#01133C"/>
<path d="M76.9871 104.241C75.6397 105.509 74.4823 106.781 73.1113 107.815C70.6019 109.707 67.5666 109.639 65.1027 107.654C64.8107 107.419 64.4714 107.201 64.2742 106.896C63.4038 105.551 62.1755 105.232 60.6721 105.396C59.7116 105.501 58.7306 105.416 57.6865 105.416C57.7968 105.059 57.8986 104.739 57.9944 104.418C58.6932 102.073 58.6488 99.7501 57.726 97.4752C57.5146 96.9543 57.6069 96.8427 58.1483 96.8513C59.4706 96.8722 60.7944 96.804 62.116 96.8381C62.7676 96.8548 63.234 96.6608 63.6768 96.1727C64.8882 94.8364 66.2637 93.7307 68.1027 93.4035C69.926 93.0791 71.6326 93.3211 73.1113 94.533C74.5059 95.676 75.6591 97.0613 77.017 98.4995C76.4876 98.4995 76.1047 98.5002 75.7221 98.4995C73.4009 98.4931 71.0796 98.4853 68.7583 98.481C67.9928 98.4796 66.9741 99.4524 66.9449 100.233C66.9231 100.811 66.9298 101.391 66.9456 101.97C66.9734 102.992 68.1852 104.181 69.1908 104.183C71.4871 104.19 73.7834 104.194 76.0797 104.202C76.341 104.203 76.6021 104.224 76.9871 104.241Z" fill="#01133C"/>
<path d="M56.0089 101.466C56.0089 102.573 55.9346 103.686 56.0268 104.785C56.1558 106.32 55.2914 107.229 54.1969 107.986C50.2571 110.714 44.8138 109.071 42.8321 104.581C41.4932 101.547 42.0628 98.1061 44.3069 95.6698C46.4824 93.3082 49.7703 92.5241 52.8031 93.6276C54.1895 94.1321 55.1589 95.0932 55.8528 96.3715C55.9983 96.6391 56.0607 96.9237 56.0578 97.2381C56.0452 98.6472 56.0522 100.057 56.0522 101.466C56.0378 101.466 56.0233 101.466 56.0089 101.466Z" fill="#01133C"/>
<path d="M93.2218 84.5391C95.3588 84.3508 97.5015 84.4343 99.6418 84.4009C99.9905 84.3956 100.34 84.4148 100.688 84.4141C101.611 84.4123 102.144 84.0787 102.236 83.4512C102.325 82.8458 101.956 82.4457 101.049 82.1665C103.369 78.1275 104.865 73.7805 105.787 69.2232C105.946 68.4383 106.052 67.6368 106.102 66.8377C106.13 66.3815 106.315 66.2938 106.7 66.3034C107.348 66.3194 107.997 66.303 108.646 66.303C109.483 66.303 109.522 66.3531 109.399 67.2136C109.071 69.5021 108.551 71.7482 107.91 73.9653C105.897 80.9286 102.534 87.1249 97.6558 92.4842C95.8291 94.4912 93.8445 96.3096 91.7536 98.021C91.5454 96.8184 91.1492 95.7074 90.2344 94.849C90.4852 94.8671 90.705 94.8469 90.9199 94.6568C94.0228 91.915 96.7805 88.8637 99.0986 85.4174C99.2578 85.1808 99.4653 84.9445 99.478 84.5388C97.3814 84.5391 95.3018 84.5391 93.2218 84.5391Z" fill="#01133C"/>
<path d="M18.9349 82.1308C18.3608 82.4019 17.8701 82.7884 18.0624 83.4908C18.2561 84.1989 18.8268 84.4718 19.5517 84.4203C19.8441 84.3997 20.1389 84.4203 20.4327 84.422C20.8695 85.478 21.6264 86.3225 22.2936 87.2193C24.2753 89.8829 26.4793 92.3419 29.0602 94.4377C29.2733 94.6108 29.4611 94.8193 29.745 94.8787C29.7552 95.0758 29.6259 95.1927 29.4987 95.3093C28.9556 95.806 28.5762 96.3865 28.5241 97.1518C28.5089 97.3742 28.4297 97.5874 28.2159 97.7111C26.7692 96.8889 25.5994 95.7228 24.4218 94.5724C20.7719 91.007 17.7803 86.9361 15.4695 82.3795C13.0803 77.6676 11.4554 72.6949 10.8097 67.4224C10.6734 66.3085 10.6861 66.3068 11.7844 66.3043C12.1838 66.3032 12.5857 66.3316 12.9823 66.2986C13.7495 66.2346 14.0588 66.5736 14.1388 67.3421C14.547 71.2702 15.6809 75.004 17.2413 78.6102C17.7584 79.8047 18.3678 80.9587 18.9349 82.1308Z" fill="#01133C"/>
<path d="M91.2734 74.0308C91.302 72.6445 91.6514 71.3793 92.4478 70.2662C93.5845 68.6776 95.4278 68.6009 96.7089 70.0722C98.4899 72.1179 98.6258 75.5725 97.009 77.6964C95.5405 79.6253 93.5475 79.5531 92.2375 77.5155C91.5531 76.4514 91.2949 75.2626 91.2734 74.0308Z" fill="#01133C"/>
<path d="M60.0062 88.8097C62.9743 88.8097 65.9426 88.8089 68.9106 88.8111C69.1593 88.8114 69.4147 88.799 69.6556 88.8484C70.1752 88.955 70.5345 89.2953 70.5208 89.829C70.5074 90.3463 70.1139 90.6472 69.6197 90.6657C68.3745 90.7119 67.1276 90.724 65.8813 90.7254C60.9675 90.7297 56.054 90.7247 51.1402 90.7222C50.9659 90.7222 50.7887 90.7332 50.6171 90.7083C50.0328 90.6248 49.6206 90.3317 49.6372 89.6879C49.6534 89.052 50.0986 88.8335 50.6527 88.8274C52.0994 88.8114 53.5461 88.815 54.9927 88.8132C56.6638 88.8114 58.3352 88.8128 60.0062 88.8128C60.0062 88.8118 60.0062 88.8107 60.0062 88.8097Z" fill="#01133C"/>
<path d="M55.1953 32.1078C56.2887 31.9628 57.2207 31.7933 58.1595 31.7322C58.6839 31.6981 58.8847 31.4345 59.0485 31.0095C59.3884 30.1274 59.752 29.2548 60.1715 28.2148C60.6245 29.2228 61.0267 30.0932 61.4061 30.9733C61.5931 31.4071 61.7809 31.6963 62.3572 31.7251C63.2955 31.772 64.2262 31.9848 65.2695 32.1447C64.4752 32.8119 63.7778 33.476 62.9997 34.0235C62.4889 34.3827 62.4561 34.7835 62.5534 35.3061C62.7172 36.1886 62.8602 37.0751 63.037 38.1065C62.1187 37.5071 61.3156 37.0143 60.5498 36.4683C60.2472 36.2522 60.0535 36.2757 59.7671 36.4722C59.0295 36.9774 58.2676 37.4464 57.3718 38.0223C57.5321 36.9742 57.6512 36.0689 57.8157 35.1718C57.8953 34.738 57.8269 34.4353 57.4659 34.1382C56.7357 33.5374 56.0513 32.8798 55.1953 32.1078Z" fill="#01133C"/>
<path d="M52.031 34.2744C51.6051 34.8286 51.273 35.4085 50.8031 35.8337C50.2391 36.3443 50.3385 36.8357 50.5657 37.424C50.826 38.0984 51.0415 38.7901 51.3424 39.6656C50.4889 39.3309 49.7573 39.0793 49.0588 38.7557C48.6731 38.577 48.4448 38.637 48.1549 38.934C47.6389 39.4627 47.0682 39.9374 46.3472 40.5918C46.3472 39.608 46.331 38.8175 46.3546 38.0284C46.3651 37.6706 46.2982 37.4699 45.9386 37.2766C45.1545 36.8552 44.3979 36.3702 43.6289 35.7225C44.4461 35.4809 45.1805 35.2098 45.9386 35.0574C46.4747 34.9494 46.6839 34.6719 46.773 34.1742C46.9182 33.363 47.101 32.5587 47.2834 31.6768C47.8823 32.3341 48.2497 33.0735 48.6628 33.7741C48.8914 34.1617 49.1211 34.3287 49.5966 34.2911C50.3836 34.2289 51.1789 34.2744 52.031 34.2744Z" fill="#01133C"/>
<path d="M76.8789 35.839C76.0004 36.3886 75.2857 36.8828 74.5249 37.2893C74.2022 37.4619 74.1071 37.635 74.1149 37.9725C74.1335 38.8145 74.1209 39.6569 74.1209 40.6134C73.3156 40.0708 72.7806 39.4459 72.1765 38.903C71.9288 38.6806 71.7502 38.6497 71.4156 38.8199C70.7185 39.1741 69.9651 39.4157 69.1331 39.7436C69.4311 38.8124 69.6664 37.9796 69.9704 37.1727C70.0943 36.8437 70.0373 36.6313 69.8724 36.3509C69.4864 35.694 68.9059 35.1593 68.5977 34.4139C69.4628 34.4139 70.2539 34.3819 71.0408 34.4281C71.3998 34.449 71.5917 34.3378 71.7548 34.0447C72.1652 33.3079 72.5914 32.5795 73.0807 31.7275C73.3304 32.7088 73.5619 33.5825 73.7721 34.4611C73.8694 34.8676 74.0561 35.08 74.503 35.1685C75.2526 35.3174 75.98 35.5785 76.8789 35.839Z" fill="#01133C"/>
<path d="M104.775 63.375C105.611 61.2863 104.983 59.8243 103.316 58.6635C105.524 58.5882 107.511 58.0151 109.393 56.7002C109.399 58.0915 109.492 59.3339 110.251 60.3995C110.285 60.4471 110.295 60.5753 110.267 60.5959C109.364 61.2511 109.643 62.3244 109.332 63.2475C108.659 62.8645 108.328 61.7837 107.257 62.2107C106.479 62.5209 105.693 62.8084 104.775 63.375Z" fill="#01133C"/>
<path d="M16.693 58.6284C14.8955 59.7131 14.4576 61.2408 15.1505 63.2468C14.4301 62.9022 13.8683 62.6115 13.2896 62.3611C12.2321 61.9034 11.8968 61.9848 11.137 62.8315C10.9908 62.9945 10.8584 63.1701 10.6308 63.4483C10.5389 62.8826 10.4744 62.4271 10.3878 61.9759C10.3314 61.6821 10.3371 61.2508 10.1535 61.1293C9.355 60.6006 9.89534 60.1678 10.1595 59.6797C10.503 59.0462 10.5621 58.342 10.5907 57.6346C10.6016 57.3621 10.6389 57.091 10.678 56.6689C12.472 58.0848 14.459 58.6021 16.693 58.6284Z" fill="#01133C"/>
<path d="M28.2148 97.7112C28.2828 96.5245 28.7221 95.5418 29.7439 94.8788C31.5573 94.3398 32.9441 94.8916 33.5232 96.3824C33.986 97.5744 33.477 99.0411 32.3935 99.6376C31.1297 100.333 29.6066 100.055 28.8482 98.9508C28.5875 98.5721 28.423 98.1262 28.2148 97.7112Z" fill="#01133C"/>
<path d="M90.2336 94.8494C91.4369 95.5671 91.9068 96.6426 91.7529 98.0215C91.4785 98.7811 91.0293 99.3801 90.2787 99.728C89.0997 100.275 87.9472 100.086 87.1413 99.1957C86.3276 98.2965 86.1867 96.9094 86.808 95.9146C87.435 94.9109 88.6936 94.4337 89.8747 94.7521C89.9945 94.7844 90.1139 94.8171 90.2336 94.8494Z" fill="#01133C"/>
<path d="M30.7752 10.4701C30.7727 11.9219 29.6209 13.0631 28.1432 13.0773C26.6979 13.0915 25.539 11.8942 25.5274 10.3756C25.5168 8.97224 26.6528 7.84347 28.1062 7.81398C29.5532 7.78414 30.7776 9.00279 30.7752 10.4701Z" fill="#01133C"/>
<path d="M40.361 5.58181C40.3666 7.04597 39.1563 8.25396 37.6956 8.24117C36.2908 8.22909 35.1509 7.02749 35.133 5.54059C35.1164 4.14714 36.2919 2.98462 37.7202 2.98142C39.1517 2.97787 40.3554 4.16313 40.361 5.58181Z" fill="#01133C"/>
<path d="M80.1758 5.60048C80.1846 4.05425 81.2217 3.00365 82.7546 2.98837C84.1481 2.97452 85.2992 4.14414 85.3035 5.57952C85.308 7.0316 84.0925 8.23533 82.6215 8.23569C81.185 8.23533 80.167 7.1389 80.1758 5.60048Z" fill="#01133C"/>
<path d="M22.5387 17.509C22.5351 18.9259 21.347 20.1581 20.0046 20.1368C18.515 20.113 17.417 18.9508 17.4258 17.4067C17.4336 16.0516 18.5432 14.9456 19.9141 14.926C21.3872 14.9047 22.5422 16.0417 22.5387 17.509Z" fill="#01133C"/>
<path d="M107.746 29.7215C107.729 28.2005 108.733 27.1549 110.235 27.1293C111.698 27.1044 112.849 28.193 112.862 29.6139C112.875 31.0311 111.678 32.2586 110.266 32.2764C108.79 32.2949 107.764 31.2539 107.746 29.7215Z" fill="#01133C"/>
<path d="M7.66025 29.5883C7.67117 28.0893 8.7036 27.1148 10.2644 27.13C11.6762 27.1439 12.7837 28.2499 12.7868 29.6498C12.79 31.0741 11.5987 32.2605 10.1577 32.2679C8.68176 32.2757 7.64863 31.1672 7.66025 29.5883Z" fill="#01133C"/>
<path d="M115.042 41.6831C113.626 41.6781 112.684 40.6996 112.695 39.2436C112.707 37.7017 113.706 36.6752 115.2 36.6699C116.592 36.6649 117.671 37.7415 117.67 39.1353C117.668 40.6591 116.607 41.6884 115.042 41.6831Z" fill="#01133C"/>
<path d="M116.995 53.9011C115.931 53.8855 115.127 53.0331 115.153 51.9498C115.179 50.8751 116.007 50.0963 117.113 50.1055C118.223 50.1148 119.032 50.9483 119.016 52.0664C119.001 53.1657 118.171 53.9185 116.995 53.9011Z" fill="#01133C"/>
<path d="M2.39466 50.1055C3.51198 50.0959 4.27177 50.8524 4.2767 51.9793C4.28128 53.0669 3.43977 53.8965 2.32702 53.9008C1.21323 53.905 0.484784 53.161 0.472807 52.006C0.460479 50.8506 1.20336 50.1158 2.39466 50.1055Z" fill="#01133C"/>
<path d="M82.1622 45.1979C81.7787 43.8382 81.1763 42.8039 79.9336 42.1516C80.5687 41.8105 81.1171 41.5433 81.4201 41.0068C81.7012 40.5094 81.9336 39.984 82.2485 39.3476C82.785 40.5485 82.9763 41.9068 84.4032 42.4614C83.182 42.973 82.6283 43.9455 82.1622 45.1979Z" fill="#01133C"/>
<path d="M39.1945 39.0283C39.7609 40.3386 40.099 41.5779 41.5869 42.0508C40.3643 42.6565 39.6485 43.5647 39.2854 44.7986C38.8581 43.6315 38.2276 42.6871 37.043 42.0216C38.521 41.5736 38.7352 40.3255 39.1945 39.0283Z" fill="#01133C"/>
<path d="M29.618 50.7033C29.233 49.3703 28.6141 48.4678 27.3672 47.9423C28.816 47.4584 29.1358 46.3098 29.5268 44.959C30.1358 46.0955 30.3179 47.3661 31.7068 47.8521C30.3926 48.4096 30.0668 49.4825 29.618 50.7033Z" fill="#01133C"/>
<path d="M93.8067 47.927C93.1758 48.2045 92.708 48.4997 92.403 48.9609C92.1212 49.3869 91.9144 49.8633 91.615 50.43C91.3043 49.4029 90.8986 48.5562 90.057 48.013C89.9412 47.9383 89.8883 47.7707 90.0334 47.7127C91.1222 47.2789 91.3012 46.1914 91.8031 45.1308C92.2779 46.2703 92.44 47.4917 93.8067 47.927Z" fill="#01133C"/>
<path d="M39.825 95.0276C39.4517 95.0276 39.0737 95.0632 38.7056 95.0191C38.1801 94.9562 37.8099 94.6599 37.8246 94.0882C37.8387 93.5567 38.1994 93.2586 38.6933 93.2281C39.4386 93.1822 40.1896 93.1794 40.9357 93.2132C41.4563 93.2366 41.78 93.609 41.7754 94.1017C41.7708 94.5828 41.4743 94.9619 40.9455 95.0116C40.575 95.0465 40.1988 95.0184 39.825 95.0184C39.8254 95.0216 39.825 95.0244 39.825 95.0276Z" fill="#01133C"/>
<path d="M80.5175 93.2063C80.8662 93.207 81.2174 93.1815 81.5633 93.2131C82.11 93.2632 82.4354 93.5936 82.4375 94.144C82.4397 94.6637 82.1434 95.0048 81.6115 95.0237C80.8658 95.0499 80.1163 95.061 79.372 95.0183C78.8189 94.9867 78.5206 94.6236 78.54 94.0597C78.56 93.4739 78.9221 93.2216 79.4713 93.2074C79.8197 93.1982 80.1687 93.2056 80.5175 93.2063Z" fill="#01133C"/>
<path d="M81.3751 104.374C80.6957 104.342 80.1997 103.827 80.2152 103.168C80.2339 102.374 80.777 101.883 81.5773 101.937C82.2797 101.983 82.7433 102.484 82.7091 103.16C82.6728 103.867 82.0796 104.407 81.3751 104.374Z" fill="#01133C"/>
<path d="M37.9305 102.075C38.6519 102.078 39.1613 102.585 39.1546 103.293C39.1479 104.007 38.617 104.536 37.9231 104.52C37.2197 104.504 36.7357 103.932 36.7586 103.143C36.7783 102.461 37.2049 102.072 37.9305 102.075Z" fill="#01133C"/>
<path d="M75.8719 1.62408C75.8627 2.28847 75.328 2.81537 74.6862 2.79228C74.0818 2.7706 73.6126 2.24086 73.6094 1.57611C73.6062 0.931611 74.0958 0.428517 74.7366 0.417148C75.4006 0.405778 75.8814 0.916689 75.8719 1.62408Z" fill="#01133C"/>
<path d="M44.5276 1.49056C44.5163 0.801652 44.8823 0.397685 45.5403 0.372104C46.2008 0.346523 46.6375 0.794547 46.6383 1.49767C46.6386 2.07253 46.1405 2.59019 45.5636 2.614C45 2.63709 44.5382 2.13649 44.5276 1.49056Z" fill="#01133C"/>
<path d="M14.2835 22.0345C14.2959 22.6271 13.7918 23.1803 13.243 23.1768C12.7143 23.1732 12.2388 22.6719 12.2194 22.0974C12.199 21.4835 12.6667 20.9832 13.2698 20.9747C13.8239 20.9665 14.2712 21.4341 14.2835 22.0345Z" fill="#01133C"/>
<path d="M107.906 22.0391C107.909 22.5894 107.414 23.0869 106.868 23.0819C106.261 23.0766 105.841 22.6651 105.821 22.0593C105.803 21.4948 106.273 20.9682 106.806 20.9572C107.399 20.9448 107.904 21.4411 107.906 22.0391Z" fill="#01133C"/>
<path d="M4.68694 38.0694C4.6813 38.624 4.17936 39.1001 3.61717 39.0849C3.06626 39.0696 2.64075 38.6127 2.66505 38.0613C2.69218 37.4374 3.11769 36.9773 3.66437 36.9805C4.18746 36.9833 4.69258 37.5212 4.68694 38.0694Z" fill="#01133C"/>
<path d="M101.046 82.1685C100.038 82.3578 99.0309 82.3202 98.0234 82.161C99.0312 82.0938 100.039 82.1098 101.046 82.1685Z" fill="#01133C"/>
<path d="M87.0398 81.129C82.2362 81.129 77.6211 81.1479 73.0067 81.1155C71.8672 81.1077 70.9006 81.3134 69.8844 81.9565C66.1442 84.3245 61.6084 83.0711 59.1427 79.1209C56.7316 75.2582 57.5241 69.9501 60.9557 66.9799C64.0487 64.3028 68.4433 64.48 71.3078 67.4172C73.6421 69.8105 74.3508 72.7228 73.8271 75.9624C73.7052 76.7152 73.9155 76.8321 74.5696 76.8286C77.8384 76.8108 81.1076 76.835 84.3764 76.8183C84.8231 76.8158 85.0281 76.932 85.1405 77.3846C85.4684 78.7102 86.0165 79.9406 87.0398 81.129Z" fill="#01133C"/>
<path d="M24.5234 59.0038C25.2209 58.3013 26.0293 57.9759 26.8377 57.6554C31.2443 55.9077 35.8418 55.0842 40.5471 54.7868C47.5761 54.342 54.6161 54.3469 61.6539 54.2613C62.4271 54.2521 63.2091 54.2247 63.9724 54.3221C64.9443 54.4461 65.6766 54.0954 66.4279 53.5138C68.628 51.8109 70.9261 50.2561 73.5591 49.2876C74.4929 48.944 75.4552 48.7298 76.4546 48.6523C73.191 50.2252 70.2547 52.2909 67.4621 54.5772C67.23 54.7673 66.9799 54.8078 66.702 54.8294C60.5951 55.3073 54.5587 56.2392 48.7663 58.2889C45.9269 59.2937 43.0607 59.6316 40.1025 59.6376C35.66 59.6468 31.2157 59.7303 26.7834 59.3267C26.0265 59.2581 25.2765 59.1135 24.5234 59.0038Z" fill="#01133C"/>
<path d="M29.2578 78.0446C30.1606 78.0446 30.9588 78.0503 31.7563 78.0411C31.9895 78.0382 32.1836 78.0698 32.3692 78.2407C33.1343 78.946 34.035 78.9673 34.96 78.6774C35.3249 78.563 35.681 78.5051 36.0572 78.5054C41.9186 78.509 47.7796 78.5157 53.6409 78.5012C54.1545 78.4997 54.4557 78.6188 54.6346 79.1453C54.859 79.8058 55.2538 80.3931 55.6529 80.9541C55.4898 81.2156 55.2683 81.1051 55.0932 81.1058C48.5087 81.1246 41.9245 81.1374 35.34 81.1449C34.4686 81.146 33.5936 81.1563 32.7412 80.9232C31.199 80.5018 30.0342 79.6097 29.2578 78.0446Z" fill="#01133C"/>
<path d="M46.5448 76.8156C46.1214 76.8156 45.6963 76.7893 45.275 76.8206C44.0819 76.9094 42.9593 76.7602 41.9188 76.0876C41.346 75.7174 40.6676 75.6314 39.9793 75.6325C34.7675 75.641 29.5557 75.6371 24.3439 75.6421C23.2547 75.6431 23.0684 75.5049 22.7031 74.3065C23.2325 74.3065 23.7479 74.3065 24.2629 74.3065C29.4747 74.3047 34.6865 74.3147 39.8983 74.293C41.0812 74.288 42.1569 74.5552 43.1703 75.1684C44.2359 75.8129 45.3511 76.3619 46.5448 76.8156Z" fill="#01133C"/>
<path d="M73.0746 56.8127C71.977 55.4097 71.8868 54.4518 72.6783 53.4843C72.8812 53.2363 73.0883 53.0957 73.4317 53.1049C75.0021 53.1465 76.5625 53.2783 78.1064 53.5721C78.9472 53.7323 79.3343 54.1665 79.3051 54.8494C79.2773 55.5006 78.7387 56.0645 77.9584 56.1178C76.7175 56.2023 75.4716 56.2151 74.2275 56.257C73.7671 56.2727 73.2493 56.1306 73.0746 56.8127Z" fill="#01133C"/>
<path d="M57.8834 51.3233C60.2265 49.6058 62.6736 48.0667 65.3165 46.854C66.0111 46.5353 66.6969 46.3119 67.4757 46.4764C68.4891 46.6903 69.511 46.8651 70.7393 47.0964C66.3175 48.3512 62.2502 49.9003 58.1927 51.4789C58.0292 51.5485 57.8721 51.6061 57.8834 51.3233Z" fill="#01133C"/>
<path d="M48.5671 71.5799C47.2719 71.5738 46.3149 70.5911 46.3283 69.2804C46.3406 68.0795 47.3508 67.0677 48.5238 67.0812C49.7024 67.0947 50.7373 68.1726 50.7334 69.3827C50.7296 70.6216 49.7796 71.5852 48.5671 71.5799Z" fill="#01133C"/>
<path d="M86.8945 68.4293C87.4056 65.9828 88.4208 63.8929 90.6153 62.6007C92.6988 61.3739 94.8109 61.4304 96.9335 62.6125C92.118 61.968 89.1211 64.4998 86.8945 68.4293Z" fill="#01133C"/>
<path d="M31.0979 61.296C32.062 61.3063 32.9574 62.2368 32.9408 63.2117C32.9246 64.1745 32.0528 64.986 31.0567 64.9654C30.0591 64.9445 29.2546 64.068 29.2697 63.0181C29.2828 62.0844 30.1306 61.2857 31.0979 61.296Z" fill="#01133C"/>
<path d="M86.2293 73.069C85.3804 74.0187 84.4924 74.3789 83.3518 74.3367C81.4106 74.2649 79.4641 74.3097 77.5207 74.3423C77.017 74.3509 76.8944 74.1839 76.9071 73.7007C76.9191 73.2502 76.9786 73.0494 77.5087 73.0548C80.3697 73.0846 83.231 73.069 86.2293 73.069Z" fill="#01133C"/>
<path d="M89.8681 57.1669C87.2045 57.2984 84.6525 57.0763 82.0938 56.9942C84.3023 56.592 86.5194 56.2598 88.761 56.1241C89.1869 56.0982 89.1894 56.1358 89.8681 57.1669Z" fill="#01133C"/>
<path d="M80.8074 58.9924C81.6387 58.9644 81.9857 59.2003 82.0283 59.8238C82.073 60.4758 81.6838 60.8105 80.8574 60.8304C80.0455 60.8499 79.5879 60.5053 79.5531 59.8487C79.521 59.2308 79.8211 59.0258 80.8074 58.9924Z" fill="#01133C"/>
<path d="M88.3423 58.9915C89.1401 58.9798 89.5159 59.2786 89.5036 59.9149C89.492 60.5164 89.0978 60.8117 88.2891 60.8241C87.4564 60.8369 87.0707 60.5292 87.0703 59.8527C87.0696 59.1851 87.3338 59.0064 88.3423 58.9915Z" fill="#01133C"/>
<path d="M61.1673 46.6855C58.7477 47.5556 56.443 48.3845 54.0234 49.255C55.2383 48.2495 59.5326 46.7065 61.1673 46.6855Z" fill="#01133C"/>
<path d="M57.8864 51.3232C57.94 51.4753 58.0865 51.4397 58.196 51.4788C57.8769 51.6327 57.5574 51.7862 57.2383 51.94C57.4084 51.6451 57.5965 51.4177 57.8864 51.3232Z" fill="#01133C"/>
<path d="M18.4626 42.1053C17.8877 40.7278 16.9923 39.8808 15.8814 39.269C15.5566 39.0903 15.5298 39.0338 15.7852 38.767C20.792 33.5321 25.6752 28.1782 30.7475 23.0062C31.1367 22.6093 31.5513 22.2569 32.0631 22.0277C37.1196 19.7624 42.1743 17.4938 47.2305 15.2281C47.4809 15.1159 47.7433 15.0302 47.9927 14.9158C48.3319 14.7602 48.4517 14.8473 48.507 15.2335C48.625 16.0563 48.8402 16.8653 49.1858 17.621C49.3714 18.0271 49.2485 18.182 48.8952 18.3476C44.807 20.2637 40.7238 22.1897 36.6399 24.1147C35.7367 24.5403 34.8258 24.9518 33.9371 25.4065C32.7701 26.0034 32.0114 27.0675 31.1533 28.0052C26.9736 32.5724 22.8111 37.1561 18.6458 41.7365C18.5792 41.8097 18.5528 41.9198 18.4626 42.1053Z" fill="#01133C"/>
<path d="M12.8016 47.1167C11.3367 47.0854 10.1996 45.9037 10.2352 44.4484C10.2694 43.044 11.5209 41.8328 12.9214 41.8488C14.3265 41.8651 15.5601 43.1772 15.5199 44.6133C15.4787 46.0782 14.3163 47.149 12.8016 47.1167Z" fill="#01133C"/>
<path d="M107.506 44.8119C107.491 45.9897 106.565 46.8844 105.375 46.8712C104.295 46.8591 103.336 45.7986 103.368 44.6535C103.398 43.5873 104.349 42.677 105.43 42.6777C106.559 42.6781 107.521 43.6672 107.506 44.8119Z" fill="#01133C"/>
<path d="M51.02 104.864C50.3944 104.275 49.8121 104.06 49.1517 104.699C48.8272 105.013 48.7008 104.664 48.6863 104.428C48.6374 103.632 48.072 103.466 47.4901 103.53C46.9381 103.591 46.9832 103.261 47.0988 103.025C47.4595 102.292 47.2869 101.831 46.5267 101.58C46.3203 101.511 46.1872 101.408 46.1836 101.158C46.1798 100.869 46.4094 100.854 46.5764 100.782C47.2354 100.5 47.5468 100.156 47.0156 99.4387C46.7962 99.1424 47.2443 98.7242 47.3718 98.7676C48.5275 99.1591 48.6356 98.2776 48.8403 97.5638C49.1707 97.5191 49.2704 97.7703 49.4261 97.8999C49.8642 98.2645 50.2679 98.3174 50.6392 97.8335C50.9065 97.4853 51.0883 97.4786 51.2095 97.9309C51.3859 98.5881 51.5941 99.1229 52.4902 98.8223C52.8636 98.6972 52.8946 99.2252 52.8083 99.3986C52.43 100.159 52.5772 100.644 53.4085 100.874C53.6114 100.93 53.672 101.071 53.6854 101.266C53.7034 101.531 53.5265 101.59 53.3328 101.673C52.4888 102.032 52.4367 102.164 52.7509 103.074C52.822 103.28 52.9686 103.643 52.6082 103.539C51.4511 103.206 51.3599 104.102 51.02 104.864Z" fill="#01133C"/>
<path d="M95.6748 74.0216C95.6808 75.1451 95.1542 75.9505 94.424 75.9353C93.6945 75.9196 93.164 75.0882 93.1883 73.9982C93.2133 72.889 93.7762 72.0707 94.4916 72.1045C95.1764 72.1368 95.6692 72.9348 95.6748 74.0216Z" fill="#01133C"/>
<path d="M71.7296 74.4907C71.5616 76.8513 70.4435 78.9688 67.9116 80.1395C65.5854 81.215 62.933 80.3296 61.307 77.9879C59.5155 75.407 59.8195 71.6221 62.0006 69.3564C64.8985 66.346 69.6045 67.4705 71.2312 71.5603C71.5598 72.3874 71.7151 73.2469 71.7296 74.4907Z" fill="#01133C"/>
<path d="M65.9752 76.2601C64.7997 76.2857 63.8846 75.3456 63.8712 74.0992C63.8592 72.9914 64.7937 72.0133 65.8903 71.9859C67.0492 71.9572 68.0439 72.9275 68.0693 74.1113C68.096 75.357 67.2425 76.2328 65.9752 76.2601Z" fill="#01133C"/>
</svg>
