<svg width="1320" height="253" viewBox="0 0 1320 253" fill="none" xmlns="http://www.w3.org/2000/svg">
<g opacity="0.07" clip-path="url(#clip0_1_24980)">
<path d="M196.574 241.913L187.879 246.947L196.574 251.954V241.913Z" fill="#2A2F3C"/>
<path d="M242.039 246.946L231.137 240.646V253.218L242.039 246.946Z" fill="#2A2F3C"/>
<path d="M322.23 237.794L306.402 246.946L322.23 256.072V237.794Z" fill="#2A2F3C"/>
<path d="M370.094 246.947L352.031 236.529V257.365L370.094 246.947Z" fill="#2A2F3C"/>
<path d="M447.617 234.159L425.49 246.946L447.617 259.705V234.159Z" fill="#2A2F3C"/>
<path d="M496.906 246.946L473.568 233.46V260.406L496.906 246.946Z" fill="#2A2F3C"/>
<path d="M571.582 233.003L547.436 246.947L571.582 260.891V233.003Z" fill="#2A2F3C"/>
<path d="M620.547 246.947L596.697 233.164V260.702L620.547 246.947Z" fill="#2A2F3C"/>
<path d="M694.52 233.648L671.477 246.946L694.52 260.244V233.648Z" fill="#2A2F3C"/>
<path d="M742.73 246.946L720.522 234.133V259.76L742.73 246.946Z" fill="#2A2F3C"/>
<path d="M178.781 211.358L170.275 206.432V216.257L178.781 211.358Z" fill="#2A2F3C"/>
<path d="M259.484 204.146L246.994 211.36L259.484 218.547V204.146Z" fill="#2A2F3C"/>
<path d="M306.16 211.36L291.543 202.907V219.812L306.16 211.36Z" fill="#2A2F3C"/>
<path d="M384.707 200.781L366.402 211.36L384.707 221.913V200.781Z" fill="#2A2F3C"/>
<path d="M432.895 211.36L413.109 199.946V222.774L432.895 211.36Z" fill="#2A2F3C"/>
<path d="M508.859 199.272L487.943 211.359L508.859 223.419V199.272Z" fill="#2A2F3C"/>
<path d="M557.207 211.359L535.887 199.03V223.661L557.207 211.359Z" fill="#2A2F3C"/>
<path d="M631.934 199.649L611.691 211.359L631.934 223.042V199.649Z" fill="#2A2F3C"/>
<path d="M679.578 211.359L659.631 199.838V222.854L679.578 211.359Z" fill="#2A2F3C"/>
<path d="M754.574 200.781L736.296 211.36L754.574 221.913V200.781Z" fill="#2A2F3C"/>
<path d="M196.895 170.174L187.231 175.746L196.895 181.318V170.174Z" fill="#2A2F3C"/>
<path d="M242.254 175.746L231.029 169.285V182.233L242.254 175.746Z" fill="#2A2F3C"/>
<path d="M321.828 167.293L307.211 175.746L321.828 184.225V167.293Z" fill="#2A2F3C"/>
<path d="M368.664 175.746L352.755 166.566V184.952L368.664 175.746Z" fill="#2A2F3C"/>
<path d="M446.219 165.409L428.318 175.746L446.219 186.11V165.409Z" fill="#2A2F3C"/>
<path d="M493.488 175.745L475.264 165.247V186.271L493.488 175.745Z" fill="#2A2F3C"/>
<path d="M569.508 165.409L551.58 175.746L569.508 186.11V165.409Z" fill="#2A2F3C"/>
<path d="M616.184 175.746L598.875 165.759V185.76L616.184 175.746Z" fill="#2A2F3C"/>
<path d="M692.203 166.433L676.079 175.747L692.203 185.061V166.433Z" fill="#2A2F3C"/>
<path d="M738.074 175.746L722.865 166.971V184.549L738.074 175.746Z" fill="#2A2F3C"/>
<path d="M801.496 211.359L783.595 201.022V221.669L801.496 211.359Z" fill="#2A2F3C"/>
<path d="M817.16 234.779L796.056 246.947L817.16 259.114V234.779Z" fill="#2A2F3C"/>
<path d="M114.82 246.946L109.813 244.039V249.827L114.82 246.946Z" fill="#2A2F3C"/>
<path d="M134.227 207.51L127.605 211.359L134.227 215.182V207.51Z" fill="#2A2F3C"/>
<path d="M134.391 136.04L127.257 140.159L134.391 144.277V136.04Z" fill="#2A2F3C"/>
<path d="M178.781 140.159L170.275 135.26V145.085L178.781 140.159Z" fill="#2A2F3C"/>
<path d="M259.051 133.671L247.826 140.158L259.051 146.646V133.671Z" fill="#2A2F3C"/>
<path d="M304.762 140.16L292.244 132.945V147.401L304.762 140.16Z" fill="#2A2F3C"/>
<path d="M383.418 131.841L368.989 140.159L383.418 148.477V131.841Z" fill="#2A2F3C"/>
<path d="M429.664 140.16L414.724 131.546V148.774L429.664 140.16Z" fill="#2A2F3C"/>
<path d="M506.922 131.49L491.847 140.158L506.922 148.853V131.49Z" fill="#2A2F3C"/>
<path d="M552.816 140.159L538.065 131.652V148.692L552.816 140.159Z" fill="#2A2F3C"/>
<path d="M629.777 132.219L615.995 140.16L629.777 148.128V132.219Z" fill="#2A2F3C"/>
<path d="M675.027 140.158L661.918 132.594V147.749L675.027 140.158Z" fill="#2A2F3C"/>
<path d="M752.477 133.24L740.498 140.158L752.477 147.077V133.24Z" fill="#2A2F3C"/>
<path d="M797.59 140.158L785.557 133.213V147.103L797.59 140.158Z" fill="#2A2F3C"/>
<path d="M815.062 167.186L800.23 175.746L815.062 184.306V167.186Z" fill="#2A2F3C"/>
<path d="M865.078 246.947L844.297 234.941V258.953L865.078 246.947Z" fill="#2A2F3C"/>
<path d="M71.6133 244.818L67.9254 246.945L71.6133 249.072V244.818Z" fill="#2A2F3C"/>
<path d="M115.602 175.746L109.41 172.192V179.326L115.602 175.746Z" fill="#2A2F3C"/>
<path d="M115.68 104.573L109.354 100.938V108.207L115.68 104.573Z" fill="#2A2F3C"/>
<path d="M196.492 99.6717L188.013 104.571L196.492 109.47V99.6717Z" fill="#2A2F3C"/>
<path d="M241.043 104.572L231.621 99.1348V110.01L241.043 104.572Z" fill="#2A2F3C"/>
<path d="M320.723 98.0303L309.417 104.572L320.723 111.113V98.0303Z" fill="#2A2F3C"/>
<path d="M366.027 104.572L354.075 97.6808V111.463L366.027 104.572Z" fill="#2A2F3C"/>
<path d="M444.469 97.2773L431.817 104.572L444.469 111.867V97.2773Z" fill="#2A2F3C"/>
<path d="M489.613 104.572L477.204 97.4111V111.732L489.613 104.572Z" fill="#2A2F3C"/>
<path d="M567.516 97.6808L555.564 104.572L567.516 111.463V97.6808Z" fill="#2A2F3C"/>
<path d="M612.227 104.573L600.84 97.9775V111.168L612.227 104.573Z" fill="#2A2F3C"/>
<path d="M690.293 98.5968L679.929 104.573L690.293 110.576V98.5968Z" fill="#2A2F3C"/>
<path d="M734.414 104.571L724.696 98.9453V110.197L734.414 104.571Z" fill="#2A2F3C"/>
<path d="M813.445 98.8115L803.458 104.572L813.445 110.36V98.8115Z" fill="#2A2F3C"/>
<path d="M861.066 175.747L846.288 167.24V184.28L861.066 175.747Z" fill="#2A2F3C"/>
<path d="M877.676 201.104L859.936 211.36L877.676 221.589V201.104Z" fill="#2A2F3C"/>
<path d="M52.3672 211.359L48.5447 209.151V213.566L52.3672 211.359Z" fill="#2A2F3C"/>
<path d="M71.9648 173L67.2003 175.746L71.9648 178.491V173Z" fill="#2A2F3C"/>
<path d="M134.203 65.2168L127.689 68.9854L134.203 72.7272V65.2168Z" fill="#2A2F3C"/>
<path d="M177.945 68.9849L170.704 64.8125V73.1574L177.945 68.9849Z" fill="#2A2F3C"/>
<path d="M258.137 64.085L249.684 68.9842L258.137 73.8834V64.085Z" fill="#2A2F3C"/>
<path d="M302.473 68.9855L293.374 63.7363V74.2347L302.473 68.9855Z" fill="#2A2F3C"/>
<path d="M381.91 63.251L372.004 68.9847L381.91 74.6915V63.251Z" fill="#2A2F3C"/>
<path d="M426.352 68.9843L416.365 63.2236V74.7449L426.352 68.9843Z" fill="#2A2F3C"/>
<path d="M505.172 63.2783L495.32 68.9851L505.172 74.665V63.2783Z" fill="#2A2F3C"/>
<path d="M549.344 68.9852L539.814 63.4668V74.5036L549.344 68.9852Z" fill="#2A2F3C"/>
<path d="M628.137 63.8438L619.254 68.9853L628.137 74.1268V63.8438Z" fill="#2A2F3C"/>
<path d="M671.801 68.9854L663.537 64.2207V73.75L671.801 68.9854Z" fill="#2A2F3C"/>
<path d="M751.02 64.5703L743.375 68.985L751.02 73.3997V64.5703Z" fill="#2A2F3C"/>
<path d="M794.766 68.9847L786.986 64.4893V73.4802L794.766 68.9847Z" fill="#2A2F3C"/>
<path d="M858.188 104.572L847.743 98.542V110.602L858.188 104.572Z" fill="#2A2F3C"/>
<path d="M875.898 132.998L863.489 140.158L875.898 147.346V132.998Z" fill="#2A2F3C"/>
<path d="M924.621 211.359L906.989 201.156V221.534L924.621 211.359Z" fill="#2A2F3C"/>
<path d="M940.152 235.264L919.936 246.946L940.152 258.602V235.264Z" fill="#2A2F3C"/>
<path d="M9.67578 209.718L6.84916 211.36L9.67578 212.975V209.718Z" fill="#2A2F3C"/>
<path d="M52.7969 140.159L48.3554 137.602V142.716L52.7969 140.159Z" fill="#2A2F3C"/>
<path d="M72.0742 101.665L67.0134 104.572L72.0742 107.506V101.665Z" fill="#2A2F3C"/>
<path d="M71.8555 30.8135L67.4138 33.3977L71.8555 35.955V30.8135Z" fill="#2A2F3C"/>
<path d="M115.062 33.3984L109.679 30.3027V36.4941L115.062 33.3984Z" fill="#2A2F3C"/>
<path d="M195.766 29.7637L189.494 33.3977L195.766 37.0049V29.7637Z" fill="#2A2F3C"/>
<path d="M239.16 33.3977L232.565 29.5752V37.1932L239.16 33.3977Z" fill="#2A2F3C"/>
<path d="M319.348 29.2529L312.16 33.3984L319.348 37.544V29.2529Z" fill="#2A2F3C"/>
<path d="M363.039 33.3978L355.556 29.0907V37.7048L363.039 33.3978Z" fill="#2A2F3C"/>
<path d="M442.746 29.0907L435.263 33.3978L442.746 37.7048V29.0907Z" fill="#2A2F3C"/>
<path d="M486.301 33.3978L478.871 29.0907V37.6779L486.301 33.3978Z" fill="#2A2F3C"/>
<path d="M565.898 29.2793L558.792 33.3979L565.898 37.4896V29.2793Z" fill="#2A2F3C"/>
<path d="M609.293 33.3982L602.321 29.3604V37.436L609.293 33.3982Z" fill="#2A2F3C"/>
<path d="M688.891 29.8184L682.699 33.3986L688.891 36.9788V29.8184Z" fill="#2A2F3C"/>
<path d="M731.855 33.3982L725.96 29.9795V36.79L731.855 33.3982Z" fill="#2A2F3C"/>
<path d="M812.316 29.6025L805.748 33.3981L812.316 37.1668V29.6025Z" fill="#2A2F3C"/>
<path d="M856.086 33.3986L848.791 29.1992V37.5979L856.086 33.3986Z" fill="#2A2F3C"/>
<path d="M874.848 63.6816L865.641 68.9847L874.848 74.2877V63.6816Z" fill="#2A2F3C"/>
<path d="M921.418 140.159L908.578 132.756V147.588L921.418 140.159Z" fill="#2A2F3C"/>
<path d="M938.406 167.132L923.439 175.746L938.406 184.387V167.132Z" fill="#2A2F3C"/>
<path d="M987.504 246.945L968.015 235.693V258.198L987.504 246.945Z" fill="#2A2F3C"/>
<path d="M9.86328 138.193L6.44469 140.158L9.86328 142.15V138.193Z" fill="#2A2F3C"/>
<path d="M52.7969 68.985L48.3554 66.4277V71.5423L52.7969 68.985Z" fill="#2A2F3C"/>
<path d="M133.504 -4.77246L129.062 -2.18825L133.504 0.369052V-4.77246Z" fill="#2A2F3C"/>
<path d="M176.25 -2.1894L171.539 -4.9082V0.52942L176.25 -2.1894Z" fill="#2A2F3C"/>
<path d="M256.898 -4.9082L252.161 -2.1894L256.898 0.52942V-4.9082Z" fill="#2A2F3C"/>
<path d="M299.672 -2.18899L294.773 -5.01547V0.637507L299.672 -2.18899Z" fill="#2A2F3C"/>
<path d="M380.266 -5.06836L375.286 -2.18804L380.266 0.692298V-5.06836Z" fill="#2A2F3C"/>
<path d="M423.016 -2.18804L418.062 -5.06836V0.665374L423.016 -2.18804Z" fill="#2A2F3C"/>
<path d="M503.555 -5.06836L498.575 -2.18804L503.555 0.665374V-5.06836Z" fill="#2A2F3C"/>
<path d="M546.086 -2.18897L541.456 -4.88086V0.476011L546.086 -2.18897Z" fill="#2A2F3C"/>
<path d="M626.738 -4.88086L622.081 -2.18897L626.738 0.476011V-4.88086Z" fill="#2A2F3C"/>
<path d="M669.16 -2.18893L664.853 -4.69238V0.287613L669.16 -2.18893Z" fill="#2A2F3C"/>
<path d="M749.918 -4.69238L745.584 -2.18893L749.918 0.287613V-4.69238Z" fill="#2A2F3C"/>
<path d="M792.746 -2.18829L787.981 -4.96094V0.557439L792.746 -2.18829Z" fill="#2A2F3C"/>
<path d="M873.934 -5.92969L867.446 -2.18796L873.934 1.52685V-5.92969Z" fill="#2A2F3C"/>
<path d="M919.293 68.9843L909.656 63.4121V74.5565L919.293 68.9843Z" fill="#2A2F3C"/>
<path d="M937.273 97.8965L925.698 104.572L937.273 111.248V97.8965Z" fill="#2A2F3C"/>
<path d="M984.328 175.746L969.603 167.267V184.252L984.328 175.746Z" fill="#2A2F3C"/>
<path d="M1000.56 201.83L984.057 211.359L1000.56 220.889V201.83Z" fill="#2A2F3C"/>
<path d="M9.89062 66.9395L6.3912 68.9853L9.89062 71.0042V66.9395Z" fill="#2A2F3C"/>
<path d="M917.785 -2.18865L910.409 -6.46875V2.06454L917.785 -2.18865Z" fill="#2A2F3C"/>
<path d="M936.305 28.3642L927.61 33.398L936.305 38.405V28.3642Z" fill="#2A2F3C"/>
<path d="M982.363 104.572L970.573 97.7617V111.383L982.363 104.572Z" fill="#2A2F3C"/>
<path d="M999.43 132.594L986.32 140.158L999.43 147.749V132.594Z" fill="#2A2F3C"/>
<path d="M1046.46 211.36L1031.01 202.423V220.27L1046.46 211.36Z" fill="#2A2F3C"/>
<path d="M1062.26 237.308L1045.59 246.945L1062.26 256.555V237.308Z" fill="#2A2F3C"/>
<path d="M980.938 33.3988L971.301 27.8535V38.9441L980.938 33.3988Z" fill="#2A2F3C"/>
<path d="M998.648 62.7402L987.854 68.9854L998.648 75.2306V62.7402Z" fill="#2A2F3C"/>
<path d="M1044.76 140.159L1031.87 132.729V147.616L1044.76 140.159Z" fill="#2A2F3C"/>
<path d="M1061.1 168.154L1047.94 175.745L1061.1 183.363V168.154Z" fill="#2A2F3C"/>
<path d="M1107.56 246.947L1092.92 238.494V255.399L1107.56 246.947Z" fill="#2A2F3C"/>
<path d="M998.059 -7.38281L989.068 -2.18747L998.059 2.98097V-7.38281Z" fill="#2A2F3C"/>
<path d="M1043.57 68.9854L1032.43 62.5518V75.419L1043.57 68.9854Z" fill="#2A2F3C"/>
<path d="M1060.62 97.7617L1048.85 104.572L1060.62 111.383V97.7617Z" fill="#2A2F3C"/>
<path d="M1105.52 175.745L1093.94 169.069V182.448L1105.52 175.745Z" fill="#2A2F3C"/>
<path d="M1122.29 204.521L1110.47 211.359L1122.29 218.169V204.521Z" fill="#2A2F3C"/>
<path d="M1042.55 -2.18853L1032.94 -7.76074V3.35677L1042.55 -2.18853Z" fill="#2A2F3C"/>
<path d="M1060.16 27.3955L1049.77 33.3984L1060.16 39.4013V27.3955Z" fill="#2A2F3C"/>
<path d="M1104.82 104.572L1094.29 98.4883V110.656L1104.82 104.572Z" fill="#2A2F3C"/>
<path d="M1121.72 134.291L1111.57 140.159L1121.72 146.028V134.291Z" fill="#2A2F3C"/>
<path d="M1165.84 211.36L1156.26 205.814V216.878L1165.84 211.36Z" fill="#2A2F3C"/>
<path d="M1183.29 241.267L1173.43 246.946L1183.29 252.626V241.267Z" fill="#2A2F3C"/>
<path d="M1104.3 33.3985L1094.53 27.7725V39.0246L1104.3 33.3985Z" fill="#2A2F3C"/>
<path d="M1121.51 63.5205L1112.03 68.9851L1121.51 74.4496V63.5205Z" fill="#2A2F3C"/>
<path d="M1164.87 140.159L1156.74 135.476V144.87L1164.87 140.159Z" fill="#2A2F3C"/>
<path d="M1182.48 171.466L1175.05 175.746L1182.48 180.053V171.466Z" fill="#2A2F3C"/>
<path d="M1226.11 246.947L1218.58 242.586V251.308L1226.11 246.947Z" fill="#2A2F3C"/>
<path d="M1121.29 -7.27637L1112.49 -2.18869L1121.29 2.87207V-7.27637Z" fill="#2A2F3C"/>
<path d="M1164.68 68.9848L1156.82 64.4355V73.5341L1164.68 68.9848Z" fill="#2A2F3C"/>
<path d="M1182.34 100.481L1175.26 104.572L1182.34 108.664V100.481Z" fill="#2A2F3C"/>
<path d="M1224.63 175.745L1219.33 172.703V178.814L1224.63 175.745Z" fill="#2A2F3C"/>
<path d="M1243.32 208.452L1238.28 211.359L1243.32 214.24V208.452Z" fill="#2A2F3C"/>
<path d="M1164.66 -2.18857L1156.82 -6.71094V2.33381L1164.66 -2.18857Z" fill="#2A2F3C"/>
<path d="M1182.4 29.2266L1175.18 33.399L1182.4 37.5714V29.2266Z" fill="#2A2F3C"/>
<path d="M1224.69 104.572L1219.28 101.449V107.694L1224.69 104.572Z" fill="#2A2F3C"/>
<path d="M1243.07 137.656L1238.74 140.16L1243.07 142.663V137.656Z" fill="#2A2F3C"/>
<path d="M1284.69 211.36L1281.78 209.664V213.029L1284.69 211.36Z" fill="#2A2F3C"/>
<path d="M1304.39 245.008L1301.06 246.946L1304.39 248.857V245.008Z" fill="#2A2F3C"/>
<path d="M1225.01 33.3986L1219.14 30.0068V36.7904L1225.01 33.3986Z" fill="#2A2F3C"/>
<path d="M1243.29 66.1055L1238.34 68.9858L1243.29 71.8661V66.1055Z" fill="#2A2F3C"/>
<path d="M1284.53 140.158L1281.84 138.597V141.719L1284.53 140.158Z" fill="#2A2F3C"/>
<path d="M1303.86 174.776L1302.16 175.745L1303.86 176.741V174.776Z" fill="#2A2F3C"/>
<path d="M1243.59 -5.58105L1237.72 -2.18928L1243.59 1.20251V-5.58105Z" fill="#2A2F3C"/>
<path d="M1285.25 68.9851L1281.49 66.8047V71.1656L1285.25 68.9851Z" fill="#2A2F3C"/>
<path d="M1304.15 103.092L1301.57 104.572L1304.15 106.08V103.092Z" fill="#2A2F3C"/>
<path d="M1286.04 -2.18859L1281.08 -5.04199V0.637902L1286.04 -2.18859Z" fill="#2A2F3C"/>
<path d="M1304.53 31.2178L1300.76 33.3982L1304.53 35.5786V31.2178Z" fill="#2A2F3C"/>
</g>
<defs>
<clipPath id="clip0_1_24980">
<rect width="1320" height="253" fill="white" transform="matrix(-1 0 0 1 1320 0)"/>
</clipPath>
</defs>
</svg>
