<svg width="120" height="120" viewBox="0 0 120 120" fill="none" xmlns="http://www.w3.org/2000/svg">
<g opacity="0.3" clip-path="url(#clip0_1_26190)">
<rect width="120" height="120" fill="white"/>
<path d="M16.3946 47.9483C14.9726 48.5102 13.6355 49.0244 12.3122 49.5706C11.9243 49.7309 11.6683 49.7407 11.3718 49.3824C9.33255 46.9195 7.27946 44.4674 5.20726 42.0312C4.84722 41.608 4.82622 41.2605 5.06782 40.7789C5.85684 39.2054 6.5857 37.6028 7.3813 36.0327C7.54174 35.7162 7.84757 35.404 8.16688 35.2441C9.28931 34.681 10.4193 34.1083 11.6028 33.6953C12.2035 33.4855 12.9624 33.4612 13.5851 33.6113C15.2527 34.0139 16.4519 33.5606 17.7063 32.3679C23.2385 27.1072 28.8663 21.943 34.5017 16.7881C35.1296 16.2136 35.3223 15.7049 35.2669 14.8896C34.8492 8.74217 37.9341 3.67029 43.3811 1.48573C45.5411 0.619658 47.7819 0.357314 50.189 0.736221C50.0546 0.920446 49.9735 1.065 49.8613 1.18033C47.7731 3.32644 45.7 5.48732 43.5782 7.60114C42.9412 8.23593 42.5827 8.88979 42.7378 9.78478C42.8563 10.4688 42.4746 11.2383 43.1483 11.8269C45.249 13.6615 47.3162 15.5345 49.4589 17.3205C49.8127 17.6154 50.4833 17.5394 51.0047 17.6462C52.2327 17.8978 53.0622 17.3454 53.8606 16.4775C55.3224 14.8889 56.8823 13.3875 58.4036 11.8515C58.5954 11.6578 58.7997 11.476 58.998 11.2887C59.0833 11.3182 59.1685 11.3481 59.2537 11.3776C59.1635 12.5669 59.1798 13.775 58.9645 14.9422C57.9934 20.2106 54.0618 23.96 48.6878 24.7879C46.9672 25.053 45.2772 24.7298 43.6199 24.3038C42.966 24.1359 42.667 24.2712 42.6423 25.025C43.3833 25.2652 44.1626 25.518 44.7812 25.7182C42.3029 27.169 39.6225 28.4675 37.2485 30.1756C28.0469 36.7967 22.3915 45.5604 21.1453 56.8335C20.6295 61.5007 21.045 66.1097 22.3815 70.6239C22.5297 71.125 22.4592 71.4057 22.0233 71.7213C20.6722 72.6993 19.3586 73.7275 17.967 74.7845C17.5612 74.2826 17.1761 73.8062 16.7493 73.2785C16.0421 73.8074 15.3646 74.3143 14.6273 74.8657C15.0613 75.4787 15.4739 76.0618 15.9057 76.672C15.3568 77.0697 14.8369 77.4458 14.2603 77.8632C13.7796 77.3228 13.3184 76.8043 12.8405 76.2673C12.1681 76.775 11.5251 77.2607 10.8128 77.7983C11.2509 78.3632 11.6727 78.907 12.1186 79.4815C11.6025 79.8915 11.119 80.2756 10.5455 80.7311C10.0059 80.1437 9.4698 79.5599 8.86753 78.9042C7.32521 79.9287 5.67635 80.8501 4.24339 82.0256C2.85273 83.1663 2.4955 84.7868 3.19021 86.4664C3.90089 88.1838 5.2621 89.1535 7.17041 89.3097C8.46644 89.4158 9.62271 88.9939 10.6323 88.2453C14.2597 85.5554 17.8651 82.8372 21.4797 80.1304C21.62 80.0253 21.7673 79.929 21.9112 79.8287C21.8629 79.7682 21.8143 79.7079 21.7661 79.6473C18.6466 81.5068 15.5275 83.3662 12.4081 85.2257C12.3827 85.1931 12.3573 85.1605 12.332 85.1279C12.9875 84.6143 13.6393 84.0964 14.2986 83.588C20.2723 78.9833 26.2464 74.3792 32.223 69.7782C33.194 69.0305 34.3672 69.108 35.0234 69.9449C35.6874 70.7916 35.4405 71.8702 34.3995 72.6114C31.464 74.7024 28.5248 76.7889 25.4771 78.9553C30.2498 89.0381 38.4863 95.144 48.8673 98.8433C48.2365 100.018 47.6409 101.127 46.9966 102.327C36.4372 98.7473 28.0074 92.5535 22.1537 82.9919C21.7748 83.2352 21.3963 83.4459 21.0538 83.703C18.0679 85.9448 15.1108 88.2237 12.1007 90.4335C9.32409 92.4723 6.01916 92.6402 3.40642 90.9708C-0.705708 88.3434 -1.20237 82.8388 2.5049 79.5144C4.45866 77.7623 6.64994 76.2639 8.74689 74.6667C11.0099 72.9432 13.2952 71.2474 15.5445 69.5066C15.7124 69.3765 15.7638 68.9613 15.708 68.7137C14.4587 63.1645 14.5217 57.5956 15.4536 52.02C15.6739 50.7027 16.0521 49.4104 16.3946 47.9483ZM15.6569 36.8619C14.0842 37.0289 12.8321 37.1648 11.579 37.2931C11.171 37.3349 10.931 37.4834 10.846 37.934C10.6605 38.9203 10.3744 39.8885 10.1943 40.8754C10.1423 41.1602 10.2197 41.5505 10.3932 41.7781C11.2888 42.9533 12.2232 44.1008 13.1761 45.2316C13.3206 45.403 13.6509 45.546 13.8677 45.5152C14.9312 45.3648 15.9929 45.183 17.0376 44.9392C17.3108 44.8755 17.6279 44.5953 17.7401 44.3373C18.1202 43.462 18.4038 42.5467 18.7526 41.6576C18.9384 41.1842 18.9083 40.8124 18.5718 40.3824C17.8366 39.4438 17.2002 38.431 16.4695 37.4887C16.226 37.1743 15.818 36.9821 15.6569 36.8619ZM21.0711 36.7862C25.9625 32.2808 30.8245 27.8028 35.7228 23.291C35.3828 22.8518 35.1058 22.4935 34.7809 22.0731C29.8741 26.604 25.0212 31.0854 20.1677 35.5674C20.4904 36.0032 20.7514 36.355 21.0711 36.7862ZM37.4694 10.0994C36.2226 13.2537 37.4199 17.4666 40.0126 19.8759C42.9801 22.6335 47.2438 23.7524 50.6409 22.4065C42.9857 23.2252 37.0834 17.0166 37.4694 10.0994ZM12.3664 75.3372C11.903 75.1026 11.4624 74.7153 11.2662 74.8107C10.6342 75.1189 10.0924 75.6048 9.48515 76.0443C9.78503 76.4109 10.0266 76.7058 10.2927 77.0312C10.9247 76.5151 11.5194 76.0295 12.3664 75.3372ZM14.0212 74.1153C14.7106 73.5512 15.3461 73.0315 16.0245 72.4767C15.8036 72.1756 15.5974 71.8941 15.3652 71.5777C14.6639 72.1082 14.0128 72.6012 13.3322 73.1161C13.5894 73.4894 13.8044 73.801 14.0212 74.1153Z" fill="#01133C"/>
<path d="M42.2784 58.018C41.0563 58.018 40.0135 58.0398 38.9719 58.0121C37.7758 57.9804 37.1165 57.2968 37.1291 56.161C37.141 55.1057 37.9209 54.3255 39.0324 54.2999C40.0834 54.276 41.1362 54.3144 42.1866 54.275C42.7842 54.2526 42.9963 54.5315 43.0051 55.0501C43.0145 55.5794 43.0073 56.109 43.1602 56.6807C43.4472 56.1797 43.7549 55.6892 44.0172 55.1759C44.8184 53.6086 45.615 52.0385 46.3871 50.457C46.7236 49.7678 47.2212 49.4301 48.0078 49.2963C53.6562 48.3374 59.3467 48.1055 65.0526 48.4376C67.6938 48.5914 70.3169 49.0408 72.9484 49.3557C73.7346 49.4498 74.0947 50.0268 74.4171 50.6274C75.3838 52.4294 76.3377 54.2378 77.2987 56.0428C77.4037 56.2397 77.5234 56.4288 77.7913 56.6029C77.7913 56.0555 77.7994 55.508 77.7888 54.9606C77.78 54.5063 77.9987 54.2956 78.454 54.2956C79.6106 54.2956 80.7685 54.2587 81.9235 54.3009C82.8604 54.335 83.5855 55.1645 83.6147 56.1228C83.6441 57.0953 83.0735 57.8147 82.0667 57.9534C81.4726 58.0352 80.8609 57.9958 80.2568 58.0029C79.7065 58.009 79.156 58.0041 78.5076 58.0041C78.6123 58.2013 78.6756 58.3486 78.7633 58.4805C79.4803 59.5576 80.3288 60.5728 80.8803 61.7252C81.3005 62.6036 81.5205 63.6542 81.5265 64.6298C81.5525 68.9121 81.4723 73.1952 81.4221 77.4778C81.4014 79.2374 80.7754 79.8429 78.9889 79.8512C77.6221 79.8574 76.2549 79.8568 74.8881 79.8479C73.604 79.8392 73.2142 79.4431 73.2079 78.1575C73.2032 77.2057 73.207 76.2538 73.207 75.2349C64.6844 75.2349 56.2088 75.2349 47.5753 75.2349C47.5753 76.1544 47.5759 77.0949 47.5753 78.0358C47.5741 79.4733 47.2256 79.8353 45.7782 79.8479C44.3061 79.8608 42.834 79.8549 41.3619 79.8491C39.9399 79.8432 39.2909 79.23 39.2831 77.8189C39.2633 74.2842 39.2687 70.7492 39.2627 67.2145C39.2615 66.5437 39.3041 65.868 39.2398 65.2027C39.0421 63.1581 39.7161 61.3971 40.9561 59.7984C41.3669 59.2682 41.7567 58.7213 42.2784 58.018ZM46.8314 56.6035C51.3763 56.3581 55.8767 55.9226 60.3767 55.9257C64.8724 55.9287 69.3678 56.3704 73.8747 56.6207C73.3254 55.2029 72.7159 53.6713 72.1428 52.1268C71.9789 51.6854 71.732 51.4966 71.2523 51.4154C66.4132 50.5964 61.538 50.3629 56.6475 50.6545C54.2159 50.7997 51.7974 51.169 49.3774 51.4714C49.1123 51.5046 48.7397 51.71 48.6495 51.9281C47.9996 53.4994 47.4099 55.0947 46.8314 56.6035ZM67.8292 66.0178C68.6825 66.0178 69.4173 65.9778 70.1452 66.0288C70.8753 66.0802 71.5998 66.2167 72.3252 66.3256C75.0915 66.7411 77.1019 65.9224 78.1977 63.9107C78.57 63.2273 78.7755 62.5107 78.2996 61.7892C77.8273 61.0738 77.0599 60.9914 76.3336 61.1363C75.1313 61.3761 73.9101 61.6345 72.7786 62.0829C70.7788 62.8755 69.0936 64.1205 67.8292 66.0178ZM52.7099 65.8366C51.2804 63.4192 46.7866 61.0034 43.8637 61.1479C42.4141 61.2196 41.8093 62.1989 42.3746 63.5589C43.1787 65.494 45.3361 66.6987 47.5333 66.441C49.2668 66.238 51.0006 66.0362 52.7099 65.8366ZM68.8977 61.7729C67.0073 61.1372 53.2733 61.1732 51.7307 61.7391C52.5536 61.9694 53.221 62.3111 53.8928 62.3194C58.1485 62.3739 62.4057 62.3825 66.6613 62.3326C67.409 62.324 68.1526 61.9685 68.8977 61.7729ZM51.814 70.6806C51.7893 70.7885 51.7642 70.8962 51.7395 71.0041C51.9607 71.1124 52.1713 71.2711 52.4053 71.3194C53.0183 71.4464 53.6409 71.6063 54.2604 71.6103C58.36 71.6358 62.4599 71.6334 66.5592 71.6134C67.1558 71.6106 67.7571 71.491 68.345 71.3726C68.591 71.3231 68.8081 71.1355 69.0384 71.0109C69.019 70.9054 68.9999 70.7999 68.9805 70.6941C63.2586 70.6262 57.5362 70.6289 51.814 70.6806ZM72.3944 70.9226C72.3816 72.024 73.2583 72.9466 74.33 72.9596C75.4405 72.9731 76.3101 72.1525 76.3167 71.085C76.3232 69.9951 75.4293 69.1004 74.3306 69.0976C73.248 69.0948 72.4067 69.888 72.3944 70.9226ZM48.4728 71.0392C48.4659 69.9489 47.56 69.0764 46.4538 69.0942C45.3778 69.1115 44.5289 69.9369 44.5386 70.9555C44.5493 72.0381 45.4542 72.9439 46.5322 72.9503C47.628 72.9574 48.4797 72.1184 48.4728 71.0392Z" fill="#01133C"/>
<path d="M80.4467 19.8705C82.935 22.1938 85.376 24.4614 87.8042 26.7425C91.3162 30.0422 94.8114 33.3595 98.3335 36.6491C98.8586 37.1397 99.0188 37.5343 98.749 38.2807C97.4498 41.8757 98.8821 45.7918 102.233 47.9385C102.843 48.3294 103.24 48.7827 103.44 49.4631C105.573 56.7186 105.516 63.9649 103.373 71.2062C103.345 71.3028 103.297 71.3941 103.207 71.6119C102.109 70.9516 101.038 70.3186 99.9782 69.6678C98.477 68.7458 98.5083 68.7455 98.8392 67.0121C100.067 60.5836 99.4919 54.284 97.0083 48.2375C91.7734 35.4924 82.3211 27.3844 68.7273 24.0179C65.5088 23.221 62.2086 22.9027 58.8798 22.9679C58.4609 22.9762 58.0419 22.9691 57.5039 22.9691C57.6703 22.776 57.7862 22.6622 57.8774 22.5318C58.6013 21.4953 59.3928 20.4958 60.0189 19.4052C60.5832 18.4222 61.4431 18.2383 62.2308 19.1164C63.2671 20.2709 64.4606 21.2142 65.8497 21.9376C70.5767 24.3998 75.8297 23.8176 79.8601 20.3632C80.0374 20.2116 80.217 20.0633 80.4467 19.8705Z" fill="#01133C"/>
<path d="M119.999 86.3527C117.896 85.0708 116.002 83.9175 114.109 82.7633C113.281 82.2583 111.732 82.6289 111.279 83.5017C110.683 84.6498 110.125 85.8197 109.608 87.0038C109.214 87.9037 109.414 88.2085 110.281 88.7021C112.1 89.7368 113.89 90.82 115.688 91.8881C115.837 91.977 115.963 92.1043 116.151 92.2547C113.667 93.3508 111.208 93.8986 108.624 92.9559C105.164 91.6934 103.073 88.4155 103.413 84.783C103.463 84.2451 103.338 83.9338 102.881 83.6361C98.7184 80.9272 94.568 78.1998 90.4173 75.473C89.1721 74.6549 87.9212 73.8442 86.7029 72.9886C85.2085 71.9392 84.8065 69.9958 85.7496 68.5281C86.6101 67.1893 88.5335 66.0867 90.3785 67.2133C92.6321 68.5896 94.856 70.0124 97.1049 71.3961C100.423 73.4379 103.755 75.4585 107.073 77.4998C107.557 77.7978 107.97 77.8393 108.529 77.604C113.676 75.4382 119.364 78.7967 119.882 84.2835C119.939 84.8934 119.952 85.507 119.999 86.3527ZM94.6771 71.6658C94.5962 71.7919 94.5157 71.918 94.4348 72.0441C98.1064 74.7656 102.044 77.0984 106.012 79.5349C106.246 79.2166 106.433 78.9616 106.607 78.7245C102.585 76.3443 98.6306 74.005 94.6771 71.6658ZM91.9919 71.1743C91.9894 70.3879 91.4097 69.7922 90.6289 69.7734C89.8903 69.7559 89.2802 70.3427 89.272 71.0784C89.2636 71.8377 89.942 72.4771 90.7467 72.4682C91.4934 72.4602 91.9944 71.9395 91.9919 71.1743Z" fill="#01133C"/>
<path d="M71.6094 99.2895C71.3205 99.4713 71.1034 99.5362 71.0275 99.6752C70.9417 99.833 70.9078 100.1 70.9906 100.24C71.0658 100.367 71.3725 100.493 71.4998 100.44C72.3856 100.071 72.6564 100.669 72.95 101.267C73.1079 101.588 73.284 101.901 73.2489 102.182C73.0791 102.581 72.6711 103.098 72.8002 103.351C72.9616 103.668 73.5641 103.768 74.1467 104.042C74.2363 104.58 74.361 105.329 74.4857 106.078C74.402 106.046 74.3184 106.014 74.2347 105.983C73.9652 106.33 73.5886 106.648 73.4798 107.039C73.4375 107.191 73.9988 107.505 74.2852 107.745C74.3597 107.718 74.434 107.692 74.5086 107.665C74.3729 108.485 74.2372 109.304 74.0968 110.151C73.8261 110.135 73.6061 110.055 73.4767 110.128C73.2191 110.274 72.9518 110.472 72.809 110.715C72.7432 110.828 72.9531 111.103 73.0502 111.299C73.1706 111.542 73.4617 111.827 73.4034 112.009C73.1865 112.688 72.8572 113.334 72.557 114.022C72.0271 113.891 71.6132 113.483 71.1303 114.126C70.675 114.733 71.1736 115 71.2779 115.249C70.6045 116.041 69.9878 116.765 69.3969 117.46C68.411 116.819 67.1652 117.418 67.0057 118.4C66.9768 118.576 66.7847 118.809 66.6146 118.868C65.7745 119.161 64.9222 119.426 64.0595 119.645C63.88 119.691 63.5024 119.548 63.4475 119.406C63.2053 118.779 62.7284 118.871 62.2186 118.877C61.6163 118.884 61.496 119.279 61.3735 119.712C61.3597 119.761 61.3296 119.806 61.2356 120C59.974 119.818 58.6645 119.628 57.1999 119.416C57.789 118.118 56.8803 117.735 56.049 117.528C55.6867 117.438 55.1766 117.921 54.5728 118.224C53.8984 117.721 53.0737 117.106 52.2599 116.5C53.0151 115.251 53.0151 115.251 51.9901 114.689C51.0983 115.207 51.0964 115.209 50.5377 114.32C50.3585 114.035 50.1633 113.753 50.0345 113.446C49.9655 113.282 49.9944 113.062 50.0295 112.877C50.0884 112.565 50.3522 112.117 50.2331 111.985C50.0295 111.761 49.5964 111.737 49.2599 111.628C49.1972 111.68 49.1342 111.733 49.0715 111.785C48.8343 110.913 48.5974 110.042 48.3361 109.081C49.4589 109.028 49.6024 108.472 49.2646 107.616C49.0211 107.573 48.7453 107.523 48.2734 107.438C48.3947 106.427 48.4962 105.393 48.6692 104.371C48.6905 104.244 49.106 104.203 49.3138 104.08C49.5463 103.943 49.8349 103.796 49.9336 103.58C49.9909 103.455 49.6992 103.196 49.608 102.979C49.5134 102.755 49.3808 102.49 49.4266 102.276C49.4946 101.958 49.7208 101.676 49.8502 101.367C50.0379 100.919 50.2341 100.582 50.8285 100.889C50.9561 100.955 51.2826 100.83 51.3954 100.694C51.5157 100.55 51.6 100.186 51.5119 100.097C51.045 99.6229 51.3644 99.3144 51.679 98.9856C52.0168 98.6329 52.3577 98.2832 52.7174 97.9114C53.001 98.1177 53.226 98.2813 53.4431 98.4394C54.4474 97.9117 54.4474 97.9117 53.8956 96.6685C54.6586 96.2669 55.421 95.8311 56.2207 95.4774C56.3611 95.4152 56.7684 95.6434 56.8665 95.8311C57.2717 96.6058 57.8614 96.2306 58.4261 96.1586C59.0352 96.0808 58.9024 95.6293 58.9055 95.2765C58.9089 94.8524 59.0719 94.6796 59.5078 94.6743C60.3212 94.6642 61.1353 94.6319 61.9472 94.5802C62.6808 94.5338 63.0418 94.8001 62.923 95.5595C62.9039 95.6822 62.9437 95.8135 62.9618 95.999C63.4181 96.0722 63.8743 96.1457 64.3171 96.2167C64.3788 96.1786 64.4415 96.162 64.4628 96.1232C65.0886 94.9902 65.0908 94.9834 66.2646 95.5032C66.7365 95.712 67.1924 95.9562 67.6418 96.1774C67.3337 97.2461 67.3651 97.435 68.3227 97.8249C68.5843 97.9313 69.0409 97.5764 69.4924 97.4002C70.0634 97.9101 70.7662 98.5372 71.6094 99.2895ZM63.0289 116.659C66.1765 116.38 68.6686 114.98 70.2739 112.279C72.411 108.682 72.0206 104.365 69.3734 101.203C66.656 97.9566 62.2797 96.679 58.2847 97.9664C53.2125 99.6008 50.2206 104.968 51.7122 109.755C52.2947 111.625 53.592 112.878 55.3909 113.952C54.7589 112.909 54.1385 112.073 53.7139 111.151C52.2668 108.007 52.5739 104.975 54.758 102.278C56.8925 99.6423 59.8246 98.7098 63.142 99.3369C66.4275 99.9578 68.6661 101.996 69.6513 105.105C70.6431 108.234 69.7936 111.083 67.5644 113.491C66.2994 114.858 64.7104 115.822 63.0289 116.659ZM61.5041 100.88C57.6687 100.862 54.6574 103.776 54.6508 107.514C54.6445 111.027 57.7495 114.05 61.3797 114.065C65.114 114.081 68.2559 111.152 68.2879 107.624C68.3214 103.941 65.2594 100.897 61.5041 100.88Z" fill="#01133C"/>
<path d="M114.675 42.5752C113.841 41.8759 113.17 41.3155 112.501 40.7514C112.223 40.5158 111.957 40.2652 111.674 40.0345C110.797 39.3188 109.856 38.6382 110.349 37.3314C108.024 36.4454 105.493 36.9193 104.201 38.4196C102.803 40.0434 102.848 42.3181 104.367 44.8262C105.1 44.1505 105.578 44.6761 106.135 45.1544C107.239 46.1029 108.394 46.9942 109.544 47.9218C106.911 49.0865 104.088 48.3643 102.259 46.6482C99.6866 44.2345 99.0843 40.8006 100.676 37.5519C100.903 37.0894 100.974 36.8098 100.518 36.3811C94.1396 30.3869 87.7905 24.3634 81.435 18.3458C81.2674 18.1871 81.1117 18.0158 81.0195 17.9211C81.7503 16.7668 82.4497 15.6621 83.1867 14.498C84.3959 15.6319 85.6343 16.7751 86.8526 17.9383C92.2394 23.0831 97.625 28.2294 102.997 33.3886C103.599 33.9659 104.106 34.1895 105.032 33.9173C110.007 32.4552 114.566 35.6288 114.787 40.6281C114.811 41.1906 114.725 41.7571 114.675 42.5752Z" fill="#01133C"/>
<path d="M61.3932 10.4639C63.1204 11.7261 64.7743 12.8653 66.3442 14.1069C67.2958 14.8595 68.281 15.1065 69.4997 15.1554C70.9636 15.2141 71.9585 14.7777 72.8403 13.6603C73.8036 12.44 74.9479 11.3589 75.9698 10.1804C76.1979 9.9174 76.2806 9.50928 76.3599 9.15313C76.4201 8.88248 76.3687 8.58815 76.3671 8.30428C76.3524 5.79741 76.3527 5.7974 74.3262 4.24549C73.0211 3.24593 71.7135 2.24915 70.4115 1.24529C70.1079 1.01124 69.8237 0.752899 69.4956 0.476408C73.6785 -0.897437 78.4904 0.779041 81.1733 4.48353C83.7296 8.01333 83.5993 13.1683 80.8672 16.5676C77.854 20.317 72.7927 21.7164 68.4151 20.0796C63.7985 18.3536 61.1964 13.9104 61.3932 10.4639Z" fill="#01133C"/>
<path d="M93.6721 81.3312C94.9405 82.1871 96.1253 82.9864 97.3057 83.7827C93.3722 90.8152 81.1831 100.57 75.1504 101.515C74.4924 100.484 73.8271 99.4421 73.1562 98.3918C81.8289 94.8208 88.8107 89.3654 93.6721 81.3312Z" fill="#01133C"/>
<path d="M59.959 81.7371C67.633 81.7371 75.3073 81.7371 82.9814 81.7371C83.0603 81.7371 83.1477 81.7165 83.2164 81.7427C83.489 81.8473 83.756 81.9666 84.0251 82.0804C83.8146 82.3104 83.64 82.6853 83.3875 82.7456C82.1463 83.0427 80.8863 83.4567 79.6297 83.4665C70.5632 83.5373 61.496 83.5246 52.4288 83.5293C48.4079 83.5314 44.3854 83.5717 40.3669 83.4674C39.111 83.4348 37.8586 83.0166 36.6227 82.7044C36.3654 82.6395 36.1896 82.264 35.9766 82.0315C36.2702 81.9343 36.5638 81.7531 36.8577 81.7525C44.558 81.7371 52.2584 81.7402 59.959 81.7402C59.959 81.7396 59.959 81.7384 59.959 81.7371Z" fill="#01133C"/>
<path d="M68.5315 37.4689C67.3718 37.6894 66.2127 37.8721 65.0724 38.1348C62.8589 38.6444 61.4889 40.0112 61.0449 42.204C60.7535 43.6431 60.5432 45.0978 60.3003 46.5258C60.134 45.4386 59.9698 44.3126 59.7877 43.1894C59.2729 40.0096 57.9095 38.5952 54.6844 37.9272C53.845 37.7534 52.9895 37.6531 52.1914 37.527C53.562 37.1866 54.9784 36.9052 56.3474 36.4774C58.105 35.9281 59.1159 34.6376 59.475 32.899C59.824 31.2086 60.0732 29.4986 60.3705 27.7714C60.5335 29.0204 60.6933 30.2645 60.8597 31.5076C60.8938 31.7629 60.9578 32.0141 60.9982 32.2688C61.4265 34.955 63.0632 36.4574 65.7417 36.9455C66.6689 37.1146 67.5946 37.293 68.5315 37.4689Z" fill="#01133C"/>
<path d="M59.8271 85.4414C64.1883 85.4414 68.5499 85.4331 72.9111 85.4558C73.2906 85.4577 73.6692 85.6616 74.048 85.772C73.7403 86.05 73.4777 86.4453 73.1148 86.5797C72.537 86.794 71.8927 86.9327 71.2761 86.9343C63.7625 86.9567 56.2489 86.9662 48.7354 86.9223C47.8965 86.9173 47.0486 86.599 46.2285 86.3508C45.9835 86.2767 45.8187 85.9473 45.6172 85.7351C45.8873 85.6311 46.1571 85.438 46.4275 85.4368C50.894 85.418 55.3606 85.4236 59.8271 85.4236C59.8271 85.4294 59.8271 85.4352 59.8271 85.4414Z" fill="#01133C"/>
<path d="M40.8487 103.745C40.499 103.633 40.2182 103.565 39.9553 103.456C33.2649 100.67 27.7408 96.3805 23.1552 90.8842C23.0556 90.7646 22.8945 90.645 22.8823 90.5143C22.8519 90.1926 22.8917 89.8644 22.9033 89.539C23.2273 89.6116 23.6585 89.5796 23.8571 89.7749C24.727 90.6308 25.5132 91.5682 26.3599 92.4482C30.263 96.5054 34.8129 99.6815 39.9688 102.027C40.3727 102.211 40.7854 102.4 41.1364 102.661C41.3009 102.784 41.44 103.116 41.387 103.296C41.3319 103.484 41.0329 103.603 40.8487 103.745Z" fill="#01133C"/>
<path d="M80.0301 103.538C79.8769 103.419 79.598 103.308 79.5554 103.141C79.5037 102.936 79.5783 102.608 79.7284 102.468C79.9872 102.227 80.3372 102.071 80.6647 101.911C86.4131 99.0904 91.3165 95.2244 95.4599 90.4146C95.6975 90.139 95.908 89.8068 96.2095 89.63C96.447 89.4907 96.8058 89.55 97.1107 89.5214C97.122 89.7979 97.1809 90.0836 97.1282 90.3478C97.0916 90.5327 96.9095 90.6938 96.7795 90.8556C92.5332 96.1289 87.3074 100.197 81.1319 103.093C80.8016 103.248 80.4541 103.368 80.0301 103.538Z" fill="#01133C"/>
<path d="M40.0944 47.8578C39.9831 44.8121 38.594 43.0317 35.2734 42.9204C39.0365 42.8352 40.0408 40.5823 40.1357 37.5292C40.2407 38.2726 40.3068 39.0236 40.4579 39.7581C40.8308 41.572 41.6123 42.3077 43.4639 42.6586C43.8496 42.7318 44.2385 42.7896 44.6988 42.9265C41.4449 43.0108 40.1476 44.8118 40.0944 47.8578Z" fill="#01133C"/>
<path d="M3.89062 61.1332C7.49982 60.976 8.46056 58.73 8.52041 55.6827C8.65453 58.5291 9.32165 60.8429 12.8666 61.0975C9.52721 61.3076 8.6843 63.3906 8.53514 66.1519C8.37032 63.2738 7.27577 61.2639 3.89062 61.1332Z" fill="#01133C"/>
<path d="M106.93 61.1815C109.793 60.1472 110.225 60.221 110.823 55.4521C110.949 56.3255 111.045 57.0092 111.147 57.6926C111.414 59.4986 112.449 60.5587 114.304 60.8343C114.679 60.89 115.047 60.9908 115.598 61.1095C111.743 61.8969 111.426 62.2401 110.772 66.1393C110.53 63.7078 110.05 61.4568 106.93 61.1815Z" fill="#01133C"/>
<path d="M85.1408 42.8821C83.7019 43.1771 82.2376 43.1002 81.489 44.1966C80.8178 45.1802 80.5524 46.4304 80.2563 47.1842C79.9717 46.4599 79.7975 45.1088 79.0279 44.3116C78.2445 43.5 76.8749 43.2337 76.0078 42.8403C79.361 42.2356 79.7261 41.7233 80.1936 38.0234C80.5442 39.0478 80.7749 40.3611 81.4191 41.4351C82.1423 42.641 83.6687 42.5866 85.1408 42.8821Z" fill="#01133C"/>
<path d="M60.3549 89.0968C61.6174 89.0968 62.8796 89.0968 64.1421 89.0968C64.5867 89.0968 65.1257 89.1703 65.0696 89.6713C65.0342 89.9887 64.572 90.3126 64.2311 90.5251C64.0143 90.6604 63.6689 90.6186 63.381 90.6195C61.2771 90.626 59.1733 90.6312 57.0694 90.6155C56.7366 90.6131 56.334 90.5949 56.0918 90.4165C55.8423 90.2329 55.633 89.8426 55.6368 89.5455C55.639 89.3902 56.1319 89.1199 56.4107 89.1097C57.724 89.0633 59.0398 89.0891 60.3549 89.0891C60.3549 89.0919 60.3549 89.0944 60.3549 89.0968Z" fill="#01133C"/>
<path d="M7.01859 82.5996C8.08743 82.6017 8.94477 83.414 8.95385 84.4326C8.96231 85.3848 8.01975 86.241 6.96845 86.2367C5.98202 86.2327 5.21806 85.4518 5.20333 84.4335C5.18829 83.406 5.98891 82.5974 7.01859 82.5996Z" fill="#01133C"/>
<path d="M56.4576 107.415C56.5027 104.583 58.6689 102.558 61.5994 102.608C64.3199 102.654 66.5435 104.836 66.5222 107.437C66.4999 110.14 64.1278 112.405 61.3804 112.345C58.6661 112.287 56.4159 110.033 56.4576 107.415ZM62.7789 107.351C62.7576 106.684 62.0544 106.087 61.3356 106.126C60.6246 106.165 60.1091 106.699 60.1241 107.382C60.1395 108.075 60.8079 108.686 61.5173 108.654C62.2393 108.622 62.8011 108.042 62.7789 107.351Z" fill="#01133C"/>
</g>
<defs>
<clipPath id="clip0_1_26190">
<rect width="120" height="120" fill="white"/>
</clipPath>
</defs>
</svg>
