<svg width="210" height="120" viewBox="0 0 210 120" fill="none" xmlns="http://www.w3.org/2000/svg">
<g opacity="0.3" clip-path="url(#clip0_1_25990)">
<rect width="210" height="120" fill="white"/>
<path d="M164.783 81.1976C162.882 85.5011 160.507 89.5955 157.704 93.3975L145.289 88.7826L144.437 89.7418C142.966 91.3911 141.382 92.9619 139.722 94.4132L138.725 95.2827L143.657 107.391C139.836 110.187 135.719 112.561 131.391 114.465L122.967 104.311L121.744 104.718C119.644 105.42 117.477 105.994 115.303 106.421L113.998 106.679L112.169 119.605C109.783 119.866 107.361 119.997 104.949 119.997C102.628 119.997 100.29 119.874 97.9829 119.632L95.8044 106.66L94.5385 106.409C92.3505 105.972 90.1831 105.396 88.0965 104.696L86.8369 104.272L78.7408 114.564C74.4044 112.676 70.2787 110.317 66.4477 107.538L71.0978 95.2151L70.1313 94.3676C68.4709 92.9163 66.8881 91.3424 65.4242 89.6914L64.548 88.7024L52.3468 93.5972C49.5298 89.8047 47.1374 85.7197 45.2188 81.4256L55.4506 73.0654L55.0402 71.8516C54.3336 69.7682 53.7569 67.6172 53.3244 65.4584L53.0978 64.3279L53.0946 64.3137C55.1258 63.6392 56.9241 63.5087 58.8602 63.4804C59.0471 63.4788 59.2372 63.4773 59.4274 63.4741H63.9396C64.0458 63.9961 64.163 64.5166 64.2882 65.0307C64.8015 67.122 65.4876 69.1927 66.3257 71.1896C67.7231 74.512 69.5626 77.652 71.7918 80.5199C74.0321 83.4052 76.6494 85.9901 79.5663 88.1993C82.4546 90.3911 85.6265 92.2041 88.9917 93.583C92.3838 94.973 95.955 95.9132 99.6053 96.3755C101.373 96.5972 103.17 96.7104 104.949 96.7104C106.798 96.7104 108.657 96.5893 110.476 96.3503C114.12 95.8739 117.689 94.9195 121.078 93.5138C124.426 92.127 127.59 90.3015 130.48 88.0892C133.387 85.8659 135.989 83.2684 138.218 80.3737C140.427 77.5073 142.253 74.3595 143.643 71.0198C144.452 69.0795 145.112 67.0638 145.607 65.0276C145.734 64.515 145.851 63.9961 145.954 63.4741C145.954 63.4741 156.617 63.46 156.978 63.46C156.885 63.9269 156.818 64.2587 156.818 64.2587L156.565 65.515C156.123 67.6864 155.545 69.8374 154.84 71.9082L154.412 73.1582L164.783 81.1976Z" fill="#01133C"/>
<path d="M188.24 30.7048C180.835 30.7048 174.295 34.3762 170.364 39.9848C168.233 41.6389 163.979 43.8198 156.353 43.8198H57.2274L57.2353 43.8622C52.78 43.5792 44.0359 41.9078 32.8962 34.1986C16.8006 23.0569 1.53684 39.6043 0 47.8874L15.2384 43.6028C19.1598 42.5069 23.2142 44.8607 24.1679 48.79L26.4542 57.1501C27.3573 60.8656 25.1487 64.6251 21.446 65.6754L4.42831 70.3468C4.58358 70.7509 4.6723 70.9758 4.6723 70.9758C4.6723 70.9758 19.3182 82.9665 35.9667 72.2226C35.9667 72.2226 44.5302 66.5921 49.2168 64.026C53.1318 61.8813 56.0312 61.6423 59.4233 61.6203H149.707C153.874 61.6203 156.35 61.6203 156.35 61.6203C156.35 61.6203 166.359 61.0244 172.748 67.4694C174.718 69.4569 177.078 71.0591 179.701 72.1708C182.321 73.2824 185.208 73.8972 188.239 73.8972C200.258 73.8972 210 64.2288 210 52.301C210 40.3732 200.258 30.7048 188.24 30.7048ZM42.3406 56.4001C42.3026 57.092 42.1711 57.7712 42.0713 58.4536C42.0048 58.7917 41.9255 59.1281 41.8495 59.4631L41.7307 59.9662L41.5817 60.4599C40.8054 63.0999 39.5617 65.5732 37.971 67.7729C39.1703 65.3421 40.159 62.8342 40.7547 60.2492L40.8688 59.7649L40.9511 59.2759C41.0066 58.9505 41.0731 58.6266 41.1254 58.2995C41.1951 57.6423 41.2965 56.9913 41.306 56.3309C41.3567 55.6737 41.3377 55.0165 41.3346 54.3608L41.2633 53.3781L41.2458 53.1328L41.2126 52.8891L41.146 52.4016C40.8038 49.7978 39.9261 47.2726 38.6617 44.9393C38.0296 43.7726 37.3024 42.6499 36.4912 41.5823C36.0935 41.0414 35.6641 40.5257 35.2221 40.0163C35.0019 39.76 34.7737 39.5115 34.5408 39.2678C34.3111 39.0194 34.0718 38.7804 33.8247 38.5461C34.395 38.9203 34.9242 39.3543 35.436 39.8056C35.9493 40.2584 36.4341 40.7411 36.9015 41.2427C37.8268 42.2521 38.676 43.3418 39.3969 44.5163C40.1304 45.683 40.7357 46.933 41.2221 48.2286C41.6974 49.529 42.0269 50.8827 42.2281 52.2538L42.2931 52.7696L42.3248 53.0274L42.3406 53.2869L42.4024 54.3246C42.3961 55.018 42.4183 55.7114 42.3406 56.4001ZM168.917 44.183C168.553 45.0132 168.25 45.8638 167.994 46.7255C167.488 48.4519 167.211 50.2334 167.129 52.0227C167.06 53.812 167.175 55.6139 167.487 57.3907C167.789 59.1706 168.257 60.9285 168.811 62.6785C167.941 61.059 167.29 59.3168 166.859 57.5165C166.422 55.7161 166.235 53.8482 166.309 51.9865C166.392 50.1265 166.748 48.2742 167.388 46.5273C167.705 45.6531 168.101 44.8088 168.559 44.0037C169.03 43.2065 169.548 42.4298 170.193 41.7679C169.692 42.5399 169.279 43.3528 168.917 44.183ZM201.47 61.9709L196.222 63.1958L193.428 67.7729L188.456 65.699L183.482 67.7729L180.688 63.1974L175.44 61.9709L175.884 56.6391L172.368 52.584L175.884 48.5305L175.44 43.1987L180.688 41.9723L183.482 37.3967L188.456 39.4707L193.428 37.3967L196.222 41.9723L201.47 43.1987L201.026 48.5305L204.542 52.584L201.026 56.6391L201.47 61.9709Z" fill="#01133C"/>
<path d="M61.3288 35.8854L58.412 36.4876L57.9097 37.7171L60.2039 38.6401L59.5638 40.2062L52.3945 37.3209L53.7238 34.0677C54.0692 33.2202 54.5477 32.6463 55.1561 32.3413C55.7645 32.0378 56.4426 32.0363 57.1857 32.335L57.2063 32.3429C57.7861 32.5771 58.2028 32.9073 58.4532 33.335C58.7035 33.7627 58.8207 34.2391 58.8065 34.7611L62.0766 34.0536L61.3288 35.8854ZM56.6185 33.9545C56.2778 33.8177 55.9768 33.8224 55.717 33.9702C55.4571 34.118 55.2496 34.3853 55.0911 34.7721L54.4558 36.3272L56.5139 37.1558L57.1619 35.5693C57.3203 35.1825 57.3488 34.8492 57.249 34.5693C57.1492 34.2879 56.9448 34.0866 56.6375 33.9624L56.6185 33.9545Z" fill="#01133C"/>
<path d="M62.5908 33.1794L55.957 29.2265L58.9547 24.2705L60.2523 25.0441L58.1181 28.5709L59.4632 29.3728L61.3407 26.269L62.6383 27.0426L60.7608 30.1464L62.1535 30.9766L64.3162 27.4026L65.6138 28.1762L62.5908 33.1794Z" fill="#01133C"/>
<path d="M67.1281 20.2319C67.2865 20.5699 67.3642 20.9205 67.3594 21.2806C67.3547 21.6423 67.277 22.0039 67.1233 22.3671C66.9697 22.7303 66.7558 23.0778 66.4785 23.4111L65.6562 24.4017L67.4465 25.8672L66.3644 27.1706L60.3945 22.2869L62.4051 19.8655C62.6998 19.5101 63.0135 19.2334 63.3446 19.0353C63.6758 18.8372 64.0132 18.7161 64.357 18.6705C64.7008 18.6249 65.0431 18.6532 65.3821 18.7554C65.7212 18.8576 66.046 19.0353 66.3517 19.2869L66.3692 19.301C66.7177 19.584 66.9697 19.8938 67.1281 20.2319ZM65.2823 20.6265C64.986 20.3844 64.6834 20.2948 64.3729 20.3592C64.0623 20.4221 63.7708 20.6187 63.4999 20.9457L62.6633 21.9536L64.4885 23.4473L65.3457 22.4143C65.6182 22.0872 65.7418 21.7618 65.718 21.4394C65.6942 21.1171 65.5548 20.8514 65.2997 20.6422L65.2823 20.6265Z" fill="#01133C"/>
<path d="M75.257 18.0196L73.5808 17.1878L71.1218 19.3293L71.735 21.0872L70.431 22.2224L67.7852 14.2396L68.9655 13.2129L76.5974 16.856L75.257 18.0196ZM69.7054 15.2648L70.5879 17.8089L72.1327 16.4629L69.7054 15.2648Z" fill="#01133C"/>
<path d="M77.5489 16.3793L73.2109 10.0208L74.621 9.07422L78.959 15.4328L77.5489 16.3793Z" fill="#01133C"/>
<path d="M84.5379 12.3096L81.9284 10.8835L80.7401 11.4936L81.8777 13.676L80.3662 14.4527L76.8125 7.6319L79.9543 6.02024C80.7718 5.60042 81.5117 5.47149 82.174 5.63502C82.8347 5.79854 83.3512 6.23408 83.7188 6.94164L83.7283 6.9605C84.0166 7.5124 84.1149 8.03285 84.0245 8.5187C83.9342 9.00613 83.7124 9.44324 83.3575 9.83004L86.306 11.404L84.5379 12.3096ZM82.2263 7.80171C82.0568 7.47623 81.8254 7.28755 81.5307 7.23252C81.236 7.17749 80.9033 7.2451 80.5294 7.43693L79.0274 8.20738L80.0478 10.1665L81.5799 9.38035C81.9522 9.18852 82.193 8.95424 82.3023 8.67594C82.4101 8.39763 82.3879 8.11304 82.2358 7.82058L82.2263 7.80171Z" fill="#01133C"/>
<path d="M95.8353 8.59554L94.7342 7.0908L91.5575 7.8644L91.2834 9.70404L89.5977 10.1144L90.9618 1.82029L92.486 1.44922L97.5639 8.17572L95.8353 8.59554ZM92.1897 3.60962L91.7888 6.27161L93.7851 5.78575L92.1897 3.60962Z" fill="#01133C"/>
<path d="M103.86 7.75482L99.8038 3.12268L100.121 7.99382L98.4444 8.10074L97.9453 0.440257L99.5122 0.339627L103.437 4.82554L103.129 0.108492L104.806 0L105.305 7.66205L103.86 7.75482Z" fill="#01133C"/>
<path d="M113.898 6.11956C113.649 6.56297 113.324 6.93718 112.925 7.23908C112.524 7.54097 112.063 7.76424 111.54 7.90575C111.018 8.04726 110.455 8.08657 109.855 8.0221L106.855 7.6982L107.692 0.0644531L110.691 0.388357C111.292 0.452823 111.832 0.608485 112.314 0.855344C112.794 1.1022 113.198 1.41667 113.522 1.79718C113.847 2.17769 114.083 2.61008 114.231 3.09279C114.378 3.57551 114.422 4.08652 114.362 4.62426L114.361 4.64627C114.3 5.18559 114.147 5.67616 113.898 6.11956ZM112.589 4.45602C112.626 4.12111 112.604 3.80664 112.521 3.51104C112.439 3.21544 112.307 2.95443 112.128 2.72958C111.949 2.50474 111.723 2.32077 111.45 2.17612C111.176 2.03303 110.869 1.94184 110.523 1.90567L109.216 1.76416L108.711 6.36642L110.018 6.50793C110.362 6.54567 110.683 6.52523 110.981 6.44661C111.279 6.36799 111.539 6.23906 111.764 6.05667C111.987 5.87428 112.171 5.65258 112.315 5.38842C112.459 5.12427 112.55 4.82238 112.588 4.47961L112.589 4.45602Z" fill="#01133C"/>
<path d="M123.731 10.1182C123.501 10.3525 123.236 10.5239 122.934 10.6324C122.631 10.7409 122.3 10.7896 121.94 10.777C121.579 10.7645 121.2 10.6906 120.803 10.5538C120.247 10.3619 119.733 10.0774 119.264 9.70313C118.795 9.32892 118.41 8.86822 118.109 8.32418L119.455 7.52229C119.694 7.90751 119.962 8.23928 120.258 8.51916C120.554 8.79903 120.911 9.0113 121.327 9.15596C121.662 9.27074 121.942 9.30061 122.169 9.24244C122.395 9.18583 122.546 9.04904 122.622 8.8352L122.63 8.81476C122.666 8.71098 122.679 8.6135 122.668 8.52073C122.657 8.42796 122.609 8.3289 122.525 8.22198C122.441 8.11506 122.316 7.99399 122.148 7.85877C121.98 7.72355 121.757 7.56474 121.476 7.38235C121.137 7.16537 120.838 6.94995 120.576 6.73454C120.315 6.5207 120.107 6.29586 119.955 6.06158C119.803 5.8273 119.711 5.56943 119.681 5.28798C119.651 5.00653 119.698 4.68577 119.824 4.32728L119.832 4.30684C119.947 3.97507 120.115 3.69834 120.332 3.47507C120.549 3.25179 120.804 3.08198 121.097 2.9672C121.391 2.85084 121.711 2.79581 122.059 2.79896C122.408 2.80367 122.769 2.86971 123.146 3.00022C123.682 3.18575 124.147 3.43418 124.54 3.74865C124.933 4.06312 125.266 4.43262 125.538 4.85873L124.282 5.77227C124.032 5.43893 123.773 5.15433 123.504 4.91691C123.236 4.68106 122.945 4.50967 122.631 4.40118C122.317 4.29269 122.062 4.27225 121.863 4.33986C121.663 4.40747 121.533 4.53011 121.47 4.70936L121.462 4.7298C121.421 4.84772 121.408 4.95779 121.422 5.05842C121.437 5.16062 121.492 5.26597 121.587 5.37603C121.682 5.4861 121.822 5.60717 122.005 5.74082C122.189 5.87447 122.424 6.03642 122.709 6.22825C123.045 6.45309 123.336 6.67479 123.583 6.89649C123.831 7.11662 124.024 7.34619 124.163 7.58518C124.303 7.82261 124.383 8.07261 124.404 8.33676C124.426 8.59935 124.38 8.89023 124.269 9.20784L124.263 9.22828C124.138 9.58678 123.96 9.88395 123.731 10.1182Z" fill="#01133C"/>
<path d="M124.621 11.8666L128.203 5.06152L133.367 7.73766L132.667 9.06944L128.992 7.16532L128.265 8.54585L131.499 10.222L130.799 11.5537L127.565 9.87762L126.812 11.3069L130.536 13.2362L129.835 14.5679L124.621 11.8666Z" fill="#01133C"/>
<path d="M134.669 17.9974L134.807 15.043L133.731 14.2537L132.26 16.2301L130.891 15.227L135.488 9.05078L138.332 11.1373C139.074 11.6797 139.516 12.282 139.66 12.9439C139.804 13.6043 139.638 14.2553 139.161 14.8968L139.148 14.9141C138.776 15.4141 138.35 15.7317 137.87 15.8653C137.39 15.999 136.895 15.9943 136.39 15.8512L136.268 19.172L134.669 17.9974ZM137.724 13.9502C137.943 13.6562 138.012 13.3653 137.932 13.0807C137.851 12.7945 137.643 12.5272 137.304 12.2804L135.945 11.2835L134.625 13.0571L136.011 14.0744C136.349 14.3213 136.667 14.4329 136.967 14.4062C137.266 14.3795 137.513 14.2348 137.711 13.9691L137.724 13.9502Z" fill="#01133C"/>
<path d="M139.735 22.7169L138.688 21.6477L142.094 14.0312L143.404 15.3677L140.907 20.5769L146.224 18.2467L147.503 19.5518L139.735 22.7169Z" fill="#01133C"/>
<path d="M142.5 25.8114L148.654 21.1572L149.685 22.5016L143.531 27.1557L142.5 25.8114Z" fill="#01133C"/>
<path d="M148.317 33.4409C148.062 33.3434 147.818 33.216 147.585 33.0603C147.352 32.9047 147.13 32.7129 146.924 32.4849C146.717 32.2585 146.519 31.9833 146.327 31.6625C146.039 31.1767 145.861 30.6751 145.793 30.1546C145.725 29.6342 145.755 29.1342 145.884 28.6515C146.012 28.1688 146.235 27.7207 146.554 27.3056C146.872 26.8905 147.27 26.5445 147.745 26.2662L147.764 26.2552C148.241 25.9769 148.737 25.8024 149.254 25.7285C149.77 25.6562 150.275 25.6797 150.77 25.7977C151.264 25.9172 151.725 26.1342 152.158 26.4518C152.589 26.7678 152.956 27.1813 153.259 27.6924C153.443 28.0005 153.584 28.2977 153.683 28.5823C153.783 28.8669 153.851 29.1389 153.886 29.3999C153.921 29.6594 153.926 29.9157 153.904 30.1657C153.881 30.4157 153.839 30.6625 153.775 30.9015L152.15 30.6028C152.232 30.2065 152.261 29.837 152.234 29.4911C152.208 29.1452 152.097 28.8056 151.899 28.4707C151.735 28.1939 151.529 27.9675 151.28 27.7946C151.031 27.6216 150.762 27.5052 150.47 27.4455C150.179 27.3857 149.879 27.3826 149.574 27.4345C149.266 27.4864 148.97 27.5964 148.685 27.7631L148.666 27.7741C148.381 27.9408 148.138 28.1452 147.94 28.3889C147.742 28.631 147.598 28.8921 147.506 29.1704C147.414 29.4487 147.382 29.738 147.412 30.0399C147.441 30.3418 147.539 30.6342 147.707 30.9172C147.931 31.2962 148.19 31.5745 148.485 31.7553C148.78 31.9345 149.124 32.0839 149.52 32.2018L149.125 33.6783C148.842 33.6185 148.571 33.5383 148.317 33.4409Z" fill="#01133C"/>
<path d="M148.461 35.2965L155.662 32.4883L157.791 37.8689L156.381 38.4176L154.865 34.5889L153.404 35.1581L154.738 38.5277L153.328 39.0764L151.994 35.7069L150.483 36.2965L152.018 40.1755L150.608 40.7258L148.461 35.2965Z" fill="#01133C"/>
<path d="M66.2392 58.4509C65.4026 58.4509 64.6358 58.3063 63.9387 58.0138C63.2416 57.7229 62.6458 57.322 62.1499 56.811C61.654 56.3 61.2674 55.6962 60.9886 54.9996C60.7097 54.3031 60.5703 53.5531 60.5703 52.7527C60.5703 51.9414 60.7082 51.2024 60.9822 50.5342C61.2563 49.8659 61.6413 49.292 62.1357 48.8093C62.6316 48.3282 63.2273 47.9524 63.9244 47.6851C64.6215 47.4178 65.3931 47.2841 66.2392 47.2841H67.8838V49.2307H66.2392C65.7005 49.2307 65.203 49.3235 64.7467 49.5106C64.2904 49.6961 63.8959 49.9524 63.5632 50.2763C63.2321 50.6002 62.9722 50.9901 62.7837 51.443C62.5967 51.8958 62.5017 52.3848 62.5017 52.91C62.5017 53.4351 62.5936 53.9163 62.7758 54.3565C62.958 54.7952 63.213 55.1742 63.541 55.4949C63.8674 55.8141 64.2619 56.0625 64.7245 56.2386C65.1856 56.4147 65.691 56.5028 66.2392 56.5028H67.8838V58.4494H66.2392V58.4509Z" fill="white"/>
<path d="M76.5378 47.7857C76.6725 47.5766 76.8388 47.4256 77.0353 47.3344C77.2318 47.2432 77.4409 47.1992 77.6627 47.1992C77.913 47.1992 78.1127 47.2873 78.2616 47.4634C78.4105 47.6395 78.485 47.8769 78.485 48.1725V58.4509H76.5378V50.9068L71.7198 58.4509H69.3828L76.5378 47.7857Z" fill="white"/>
<path d="M89.5633 58.451H86.8224L83.8358 55.3157C83.6631 55.1349 83.53 54.9635 83.4397 54.8C83.3478 54.638 83.3035 54.4761 83.3035 54.3126C83.3035 53.7025 83.6932 53.3676 84.4727 53.311C85.52 53.2355 86.2979 53.0264 86.8018 52.6883C87.3072 52.3503 87.5591 51.8361 87.5591 51.149C87.5591 50.5091 87.3642 50.0295 86.9745 49.7103C86.5847 49.3911 86.0302 49.2307 85.3077 49.2307H83.145V58.4494H81.1836V47.2842H85.3521C85.9383 47.2842 86.4912 47.3675 87.0109 47.5342C87.5306 47.7009 87.979 47.9446 88.3592 48.2638C88.7394 48.5829 89.0389 48.9823 89.2607 49.4587C89.4825 49.9367 89.5918 50.4855 89.5918 51.105C89.5918 51.4776 89.5348 51.8597 89.4191 52.2497C89.3035 52.6412 89.1118 53.0091 88.8424 53.3519C88.5731 53.6962 88.2166 53.9981 87.7746 54.2607C87.3325 54.5233 86.7796 54.7072 86.1157 54.8126L89.5633 58.451Z" fill="white"/>
<path d="M105.387 58.451H102.646L99.6593 55.3157C99.4866 55.1349 99.3535 54.9635 99.2632 54.8C99.1713 54.638 99.127 54.4761 99.127 54.3126C99.127 53.7025 99.5167 53.3676 100.295 53.311C101.342 53.2355 102.12 53.0264 102.624 52.6883C103.129 52.3503 103.381 51.8361 103.381 51.149C103.381 50.5091 103.186 50.0295 102.796 49.7103C102.407 49.3911 101.852 49.2307 101.13 49.2307H98.9654V58.4494H97.0039V47.2842H101.172C101.759 47.2842 102.312 47.3675 102.831 47.5342C103.351 47.7009 103.799 47.9446 104.18 48.2638C104.56 48.5829 104.859 48.9823 105.081 49.4587C105.301 49.9367 105.412 50.4855 105.412 51.105C105.412 51.4776 105.355 51.8597 105.239 52.2497C105.124 52.6412 104.932 53.0091 104.663 53.3519C104.393 53.6962 104.037 53.9981 103.595 54.2607C103.153 54.5233 102.6 54.7072 101.936 54.8126L105.387 58.451Z" fill="white"/>
<path d="M113.496 58.4514H107.914V47.2861H113.41V49.2327H109.877V51.8239H112.921V53.7563H109.876V56.5048H113.496V58.4514Z" fill="white"/>
<path d="M117.821 55.3161V58.4514H115.859V47.2861H119.595C120.24 47.2861 120.817 47.3883 121.327 47.5943C121.837 47.8003 122.27 48.0817 122.625 48.4387C122.98 48.7972 123.254 49.2217 123.447 49.7123C123.639 50.2044 123.735 50.7359 123.735 51.3082C123.735 51.8805 123.639 52.4136 123.447 52.9041C123.255 53.3963 122.978 53.8208 122.618 54.1777C122.257 54.5362 121.823 54.8145 121.313 55.0158C120.803 55.2155 120.231 55.3161 119.597 55.3161H117.821ZM119.538 53.368C119.885 53.368 120.199 53.3161 120.483 53.2107C120.766 53.1054 121.009 52.9607 121.211 52.7736C121.413 52.5881 121.569 52.368 121.68 52.1148C121.791 51.8617 121.847 51.5881 121.847 51.2909C121.847 50.9953 121.791 50.7201 121.68 50.467C121.569 50.2138 121.414 49.9953 121.211 49.8082C121.01 49.6226 120.766 49.4796 120.483 49.3789C120.199 49.2783 119.884 49.228 119.538 49.228H117.822V53.3648H119.538V53.368Z" fill="white"/>
<path d="M130.171 47.7857C130.305 47.5766 130.472 47.4256 130.668 47.3344C130.865 47.2432 131.074 47.1992 131.296 47.1992C131.546 47.1992 131.745 47.2873 131.894 47.4634C132.043 47.6395 132.118 47.8769 132.118 48.1725V58.4509H130.171V50.9068L125.353 58.4509H123.016L130.171 47.7857Z" fill="white"/>
<path d="M134.812 58.4514V47.2861H136.774V58.4514H134.812Z" fill="white"/>
<path d="M147.881 58.451H145.14L142.154 55.3157C141.981 55.1349 141.848 54.9635 141.758 54.8C141.666 54.638 141.621 54.4761 141.621 54.3126C141.621 53.7025 142.011 53.3676 142.791 53.311C143.84 53.2355 144.616 53.0264 145.12 52.6883C145.625 52.3503 145.877 51.8361 145.877 51.149C145.877 50.5091 145.682 50.0295 145.292 49.7103C144.903 49.3911 144.348 49.2307 143.626 49.2307H141.461V58.4494H139.5V47.2842H143.668C144.255 47.2842 144.808 47.3675 145.327 47.5342C145.847 47.7009 146.295 47.9446 146.676 48.2638C147.056 48.5829 147.355 48.9823 147.577 49.4587C147.799 49.9367 147.908 50.4855 147.908 51.105C147.908 51.4776 147.851 51.8597 147.736 52.2497C147.62 52.6412 147.428 53.0091 147.159 53.3519C146.889 53.6962 146.533 53.9981 146.091 54.2607C145.649 54.5233 145.096 54.7072 144.432 54.8126L147.881 58.451Z" fill="white"/>
<path d="M96.124 65.2822L90.1797 71.1815L91.0199 72.0153L96.9643 66.1161L96.124 65.2822Z" fill="#01133C"/>
<path d="M97.3154 66.466L91.3711 72.3652L91.7912 72.7822L97.7356 66.8829L97.3154 66.466Z" fill="#01133C"/>
<path d="M98.1436 67.2873L92.1992 73.1865L92.6193 73.6035L98.5637 67.7042L98.1436 67.2873Z" fill="#01133C"/>
<path d="M98.882 68.0167L92.9375 73.9161L98.1722 79.1112L98.6285 78.6599C98.1612 77.9146 97.9916 77.0373 98.1215 76.1976L96.2948 74.3816C95.9652 74.0561 95.9652 73.5231 96.2948 73.196L98.158 71.3454C98.4875 71.0183 99.0246 71.0183 99.3558 71.3454L101.183 73.1614C102.029 73.0341 102.913 73.2007 103.664 73.663L104.118 73.2117L98.882 68.0167ZM102.883 72.7416L98.5509 68.4459L98.6951 68.3029L103.024 72.5985L102.883 72.7416Z" fill="#01133C"/>
<path d="M99.2081 71.4882C98.9561 71.2397 98.549 71.2397 98.2986 71.4882L96.4338 73.3388C96.1835 73.5873 96.1835 73.9914 96.4338 74.2414L98.164 75.9568C98.3097 75.3058 98.6377 74.6863 99.1479 74.1816C99.658 73.6753 100.281 73.3498 100.937 73.2052L99.2081 71.4882ZM98.8484 73.8844C98.5727 74.158 98.1275 74.158 97.8503 73.8844C97.5746 73.6108 97.5746 73.1659 97.8503 72.8939C98.1275 72.6203 98.5743 72.6203 98.8484 72.8939C99.1241 73.1674 99.1241 73.6124 98.8484 73.8844Z" fill="#01133C"/>
<path d="M112.122 90.2244L111.336 91.0049L111.595 91.2617L112.381 90.4812L112.122 90.2244Z" fill="#01133C"/>
<path d="M115.978 86.3975L115.191 87.178L115.45 87.4348L116.237 86.6543L115.978 86.3975Z" fill="#01133C"/>
<path d="M110.041 84.993C109.165 85.8625 109.129 87.254 109.93 88.1675L110.277 87.8232C109.679 87.0999 109.718 86.0276 110.401 85.3515C111.082 84.6754 112.163 84.6345 112.892 85.2288L113.239 84.8845C112.32 84.0873 110.917 84.1235 110.041 84.993Z" fill="#01133C"/>
<path d="M113.503 88.4273C112.557 89.366 111.048 89.4116 110.047 88.5641L109.234 89.3708L110.725 90.8503C110.884 91.0076 111.14 91.0076 111.3 90.8503L112.21 89.9478C112.84 89.789 113.468 89.4415 113.995 88.9163C114.525 88.3912 114.873 87.7685 115.035 87.1443L115.944 86.2418C116.103 86.0845 116.103 85.8298 115.944 85.671L114.453 84.1914L113.641 84.9981C114.494 85.9918 114.449 87.4887 113.503 88.4273Z" fill="#01133C"/>
<path d="M113.027 87.9571C112.346 88.6332 111.266 88.6741 110.537 88.0798L110.191 88.4225C111.112 89.1914 112.492 89.1458 113.359 88.2857C114.225 87.4257 114.271 86.0561 113.496 85.1426L113.151 85.4854C113.75 86.2087 113.709 87.2794 113.027 87.9571Z" fill="#01133C"/>
<path d="M100.141 74.6533C100.49 74.9646 102.187 76.5023 104.045 78.1895L103.161 78.9851C101.442 77.1313 99.9355 75.5055 99.625 75.1658L100.141 74.6533Z" fill="#01133C"/>
<path d="M109.896 83.5025C109.378 83.7666 108.852 84.2918 108.57 84.8232C108.243 84.4679 107.188 83.3295 105.906 81.9474L106.936 80.8232C108.349 82.1046 109.538 83.1833 109.896 83.5025Z" fill="#01133C"/>
<path d="M112.502 82.2543C112.343 82.0971 112.085 82.0971 111.926 82.2543L111.068 83.1065C110.914 83.2622 110.662 83.2653 110.504 83.1144L107.392 80.3235L107.088 80.6568C108.709 82.1285 110.063 83.3565 110.168 83.4508L110.296 83.5688L110.136 83.6332C109.574 83.8644 108.956 84.4776 108.701 85.0578L108.633 85.2135L108.518 85.0892C108.336 84.8927 107.186 83.6521 105.76 82.1112L105.432 82.4681L108.159 85.4509C108.305 85.6097 108.3 85.8534 108.146 86.0075L107.283 86.8644C107.124 87.0217 107.124 87.2779 107.283 87.4352L108.976 89.116L109.789 88.3094C108.907 87.3188 108.945 85.7984 109.898 84.8502C110.854 83.9037 112.386 83.866 113.384 84.7418L114.197 83.9351L112.502 82.2543ZM108.007 87.7166L107.855 87.572L107.704 87.4257L107.552 87.2795C107.503 87.2308 107.452 87.1805 107.405 87.1301L107.39 87.1176L107.405 87.105L107.65 86.8786C107.69 86.8424 107.731 86.8047 107.772 86.7669L107.897 86.6553L107.91 86.6695C107.893 86.7308 107.867 86.7842 107.84 86.8377C107.813 86.8896 107.783 86.9383 107.752 86.9839C107.722 87.0279 107.69 87.0704 107.658 87.1097C107.669 87.1207 107.679 87.1301 107.688 87.1427C107.737 87.1946 107.779 87.2496 107.821 87.3078C107.864 87.3644 107.902 87.4257 107.935 87.4902C107.969 87.5547 108 87.6223 108.023 87.7025L108.007 87.7166ZM98.8047 75.2228L102.658 79.4351L102.997 79.13C101.089 77.0687 99.4147 75.2621 99.3909 75.2338L99.3228 75.1567L100.131 74.3548L100.208 74.4224C100.239 74.4492 102.086 76.1269 104.204 78.0451L104.531 77.7558L100.185 73.8564L98.8047 75.2228Z" fill="#01133C"/>
<path d="M113.879 65.2833L113.039 66.1172L118.983 72.0164L119.824 71.1826L113.879 65.2833Z" fill="#01133C"/>
<path d="M112.686 66.4649L112.266 66.8818L118.21 72.7811L118.63 72.3642L112.686 66.4649Z" fill="#01133C"/>
<path d="M111.858 67.2882L111.438 67.7051L117.382 73.6043L117.802 73.1874L111.858 67.2882Z" fill="#01133C"/>
<path d="M105.891 73.2116L106.345 73.6629C107.096 73.1991 107.98 73.0308 108.826 73.1598L110.653 71.3453C110.983 71.0182 111.52 71.0182 111.849 71.3453L113.713 73.1959C114.042 73.523 114.042 74.056 113.713 74.383L111.886 76.1975C112.014 77.0387 111.846 77.9145 111.379 78.6598L111.834 79.1111L117.068 73.9161L111.124 68.0166L105.891 73.2116ZM106.981 72.6L111.311 68.3028L111.455 68.4459L107.125 72.7431L106.981 72.6Z" fill="#01133C"/>
<path d="M109.07 73.2049C109.726 73.3495 110.35 73.675 110.861 74.1813C111.371 74.6876 111.699 75.3071 111.845 75.9581L113.573 74.2426C113.823 73.9942 113.823 73.5885 113.573 73.3401L111.708 71.491C111.458 71.2426 111.049 71.2426 110.799 71.491L109.07 73.2049ZM111.159 72.8951C111.434 72.6215 111.881 72.6215 112.157 72.8951C112.432 73.1687 112.432 73.6121 112.157 73.8857C111.881 74.1593 111.434 74.1593 111.159 73.8857C110.883 73.6121 110.883 73.1687 111.159 72.8951Z" fill="#01133C"/>
<path d="M97.8799 90.2217L97.6211 90.4785L98.4076 91.259L98.6663 91.0022L97.8799 90.2217Z" fill="#01133C"/>
<path d="M94.0244 86.3955L93.7656 86.6523L94.5521 87.4328L94.8109 87.176L94.0244 86.3955Z" fill="#01133C"/>
<path d="M99.9629 84.9929C100.839 85.8624 100.875 87.254 100.074 88.1675L99.7268 87.8232C100.326 87.0999 100.286 86.0275 99.6032 85.3514C98.922 84.6753 97.8414 84.6344 97.1126 85.2288L96.7656 84.8844C97.6861 84.0873 99.0867 84.1234 99.9629 84.9929Z" fill="#01133C"/>
<path d="M96.5017 88.4273C97.4476 89.366 98.9559 89.4116 99.9573 88.5641L100.77 89.3707L99.2791 90.8503C99.1207 91.0075 98.864 91.0075 98.704 90.8503L97.7946 89.9478C97.164 89.789 96.5366 89.4415 96.009 88.9163C95.4814 88.3911 95.1313 87.7685 94.9697 87.1443L94.0602 86.2417C93.9018 86.0845 93.9018 85.8298 94.0602 85.671L95.5511 84.1914L96.3639 84.998C95.5099 85.9917 95.5559 87.4886 96.5017 88.4273Z" fill="#01133C"/>
<path d="M96.9785 87.9571C97.6597 88.6332 98.7403 88.6741 99.4691 88.0797L99.8145 88.4225C98.8939 89.1914 97.514 89.1458 96.6473 88.2857C95.7807 87.4256 95.7347 86.0561 96.5095 85.1426L96.8549 85.4853C96.256 86.2086 96.2956 87.2794 96.9785 87.9571Z" fill="#01133C"/>
<path d="M109.864 74.6543L110.381 75.1669C109.989 75.5977 107.694 78.0726 105.469 80.4704C103.622 82.461 101.871 84.3478 101.435 84.8242C101.155 84.2928 100.629 83.7692 100.109 83.5035C100.62 83.0475 102.814 81.0538 104.94 79.1213C107.16 77.104 109.452 75.0207 109.864 74.6543Z" fill="#01133C"/>
<path d="M95.8086 83.9358L96.6198 84.7408C97.6195 83.8666 99.15 83.9028 100.105 84.8509C101.061 85.799 101.097 87.3179 100.216 88.3101L101.028 89.1151L102.723 87.4343C102.881 87.277 102.881 87.0223 102.723 86.8635L101.859 86.0066C101.706 85.8541 101.701 85.6088 101.847 85.45L111.199 75.2234L109.821 73.8555L99.5018 83.115C99.3417 83.2644 99.0914 83.2597 98.9361 83.1072L98.0758 82.2534C97.9174 82.0961 97.6607 82.0961 97.5023 82.2534L95.8086 83.9358ZM101.983 87.7047C102.003 87.6261 102.035 87.5585 102.07 87.494C102.105 87.4296 102.143 87.3682 102.184 87.3101C102.225 87.2519 102.27 87.1968 102.317 87.145C102.327 87.1339 102.338 87.1214 102.349 87.1104C102.317 87.0695 102.285 87.0286 102.255 86.9861C102.224 86.939 102.194 86.8902 102.167 86.8384C102.14 86.7865 102.114 86.7314 102.095 86.6717L102.108 86.6575L102.233 86.7676C102.274 86.8038 102.316 86.8415 102.357 86.8792L102.602 87.1041L102.617 87.1167L102.602 87.1308C102.553 87.1811 102.503 87.2299 102.453 87.2786L102.303 87.4248L102.152 87.5726L101.999 87.7173L101.983 87.7047ZM99.7077 83.5679L99.8361 83.4515C99.947 83.3509 101.447 81.9908 103.185 80.4153C106.11 77.7628 109.751 74.4624 109.794 74.4247L109.871 74.357L110.679 75.1589L110.611 75.236C110.554 75.3005 102.01 84.5254 101.485 85.0915L101.371 85.2141L101.305 85.06C101.05 84.4767 100.432 83.8635 99.8677 83.6339L99.7077 83.5679Z" fill="#01133C"/>
<path d="M116.861 24.9111H119.482C119.482 24.9111 117.018 26.9237 116.113 29.3687C116.113 29.3687 116.706 26.4583 117.611 25.4379L116.861 24.9111Z" fill="#01133C"/>
<path d="M93.2455 24.9111H90.625C90.625 24.9111 93.0887 26.9237 93.9934 29.3687C93.9934 29.3687 93.4008 26.4583 92.4961 25.4379L93.2455 24.9111Z" fill="#01133C"/>
<path d="M95.5591 32.334L94.6037 30.5761C94.4976 30.3811 94.3059 30.2475 94.0856 30.2129C93.0225 30.0493 89.7445 29.5006 87.2095 28.6342C87.0669 28.5855 86.918 28.6893 86.918 28.8402V30.1798C86.918 30.6783 87.1984 31.1343 87.6436 31.3638C88.4754 31.7915 89.8649 32.4613 90.9629 32.7616C91.1435 32.8104 91.3368 32.7899 91.5031 32.7035L92.3064 32.2852C92.4332 32.2192 92.5757 32.194 92.7167 32.2129L95.3912 32.5745C95.5258 32.5918 95.6241 32.4519 95.5591 32.334ZM89.0236 31.2003C88.6592 31.2003 88.3645 30.9078 88.3645 30.5462C88.3645 30.1846 88.6592 29.8921 89.0236 29.8921C89.388 29.8921 89.6827 30.1846 89.6827 30.5462C89.6811 30.9063 89.3864 31.2003 89.0236 31.2003ZM90.9977 31.8261C90.6333 31.8261 90.3386 31.5336 90.3386 31.172C90.3386 30.8104 90.6333 30.5179 90.9977 30.5179C91.3621 30.5179 91.6568 30.8104 91.6568 31.172C91.6568 31.5336 91.3621 31.8261 90.9977 31.8261Z" fill="#01133C"/>
<path d="M87.696 25.529H88.569L89.2756 24.2287L88.672 24.1469L89.1299 22.084C89.1299 22.084 85.6569 22.1044 84.6794 23.9L85.8027 23.8073L85.386 24.2098L84.5954 24.2711C84.5954 24.2711 84.4496 24.8482 85.302 25.0353C86.1544 25.2208 87.9226 25.2617 87.9226 25.2617L87.696 25.529Z" fill="#01133C"/>
<path d="M119.958 24.2488C119.958 24.2488 117.265 17.6135 114.646 16.3037C114.937 16.5647 115.381 17.0883 115.748 17.5333C108.581 17.1308 101.404 17.1323 94.2169 17.5364C94.415 17.3289 94.8158 16.821 95.4749 16.3037C92.6056 17.3352 90.0469 24.2488 90.0469 24.2488C91.3207 24.535 104.679 24.4972 105.003 24.4972C105.327 24.4972 118.684 24.535 119.958 24.2488Z" fill="#01133C"/>
<path d="M122.795 28.6342C120.26 29.5022 116.982 30.0493 115.919 30.2129C115.699 30.2475 115.507 30.3811 115.401 30.5761L114.446 32.334C114.382 32.4519 114.479 32.5918 114.612 32.573L117.286 32.2113C117.427 32.1925 117.572 32.2176 117.697 32.2837L118.5 32.7019C118.666 32.7884 118.86 32.8088 119.04 32.7601C120.138 32.4598 121.528 31.7899 122.36 31.3623C122.805 31.1327 123.085 30.6767 123.085 30.1783V28.8386C123.087 28.6893 122.938 28.5855 122.795 28.6342ZM119.006 31.8261C118.641 31.8261 118.346 31.5336 118.346 31.172C118.346 30.8104 118.641 30.5179 119.006 30.5179C119.37 30.5179 119.665 30.8104 119.665 31.172C119.665 31.5336 119.37 31.8261 119.006 31.8261ZM120.981 31.2003C120.617 31.2003 120.322 30.9078 120.322 30.5462C120.322 30.1846 120.617 29.8921 120.981 29.8921C121.346 29.8921 121.64 30.1846 121.64 30.5462C121.64 30.9063 121.344 31.2003 120.981 31.2003Z" fill="#01133C"/>
<path d="M121.433 25.529L120.727 24.2287L121.33 24.1469L120.872 22.084C120.872 22.084 124.345 22.1044 125.323 23.9L124.2 23.8073L124.615 24.2098L125.405 24.2711C125.405 24.2711 125.551 24.8482 124.699 25.0353C123.846 25.2208 122.078 25.2617 122.078 25.2617L122.306 25.5306H121.433V25.529Z" fill="#01133C"/>
<path d="M111.59 33.9701L113.558 30.6006C105.023 31.7374 96.4883 30.6006 96.4883 30.6006L98.3372 33.9434C98.5781 34.3789 99.0391 34.6494 99.5398 34.6494H110.404C110.893 34.6478 111.346 34.3899 111.59 33.9701Z" fill="#01133C"/>
<path d="M95.7429 38.5477L94.0206 35.5948L88.3359 34.9706L93.726 36.348L93.2364 36.4172L93.8955 38.2395L95.7429 38.5477Z" fill="#01133C"/>
<path d="M114.262 38.5477L115.984 35.5948L121.667 34.9706L116.279 36.348L116.767 36.4172L116.108 38.2395L114.262 38.5477Z" fill="#01133C"/>
</g>
<defs>
<clipPath id="clip0_1_25990">
<rect width="210" height="120" fill="white"/>
</clipPath>
</defs>
</svg>
