<svg width="120" height="120" viewBox="0 0 120 120" fill="none" xmlns="http://www.w3.org/2000/svg">
<g opacity="0.3" clip-path="url(#clip0_1_26080)">
<rect width="120" height="120" fill="white"/>
<path d="M27.0444 90.4581C34.1137 90.4681 41.183 90.4672 48.2523 90.4639C59.5073 90.4585 70.7623 90.4462 82.0173 90.4449C86.5346 90.4446 91.0518 90.4681 95.5691 90.4717C95.7927 90.472 96.086 90.625 96.2023 90.221C96.5022 89.1803 96.179 88.6674 95.1975 88.6568C94.2022 88.6461 93.2069 88.64 92.2116 88.6229C91.8265 88.6165 91.4414 88.5856 90.9176 88.5588C91.8962 87.8497 92.5832 87.1009 93.0335 86.1199C93.2197 85.7136 93.4795 85.4697 93.9211 85.3182C94.8166 85.0115 95.5688 84.4351 96.153 83.4102C95.0441 83.6532 94.0787 83.6561 93.1139 83.657C84.8962 83.6667 76.6785 83.6764 68.4608 83.6764C67.16 83.6764 65.8579 83.6548 64.5583 83.5945C62.8625 83.5159 61.6328 82.6367 60.8333 81.0115C60.1642 79.6516 59.9908 78.1399 59.6117 76.691C59.3842 75.8214 59.1785 74.9447 58.9195 73.8956C60.2939 75.3394 60.9385 76.9848 61.4462 78.7317C62.2301 81.4301 63.1695 82.144 65.7933 82.1482C72.4288 82.1585 79.0643 82.1708 85.6999 82.174C88.507 82.1753 91.3138 82.1473 94.1209 82.1498C95.3054 82.1508 96.0481 81.4948 96.4161 80.3517C97.4383 77.1778 97.3181 73.9507 96.7907 70.559C94.497 72.7809 92.0597 71.2756 89.7029 71.234C91.5828 70.2855 93.5089 69.4997 95.3882 68.4255C95.048 68.0257 94.6886 67.7773 94.3107 67.5498C92.4558 66.4334 90.5197 65.462 88.4627 64.9471C84.9581 64.0698 81.6667 62.7337 78.6266 60.6404C76.8648 59.4274 74.9585 58.4808 73.011 57.6611C69.8487 56.3305 66.5333 55.7831 63.1659 55.476C57.6121 54.9696 52.0673 54.7869 46.5144 55.5102C41.7654 56.1285 37.6198 57.965 34.3977 61.9466C33.1617 63.4738 31.9165 65.0274 30.4013 66.2562C29.1103 67.3033 28.1703 68.6066 27.7117 70.2572C26.5681 74.3741 26.662 78.5706 27.2348 82.7601C27.5371 84.9716 28.3303 86.9985 30.0341 88.6848C28.8053 88.6848 27.761 88.678 26.717 88.6909C26.534 88.6932 26.2252 88.5669 26.1908 88.8417C26.1304 89.3244 26.0813 89.8537 26.209 90.3035C26.3035 90.6357 26.7579 90.4578 27.0444 90.4581ZM63.6631 86.2242C63.8993 85.7487 64.2671 85.7922 64.6447 85.7928C69.0073 85.7973 73.37 85.8064 77.7327 85.8096C78.8297 85.8106 79.932 85.864 81.0215 85.7632C81.7232 85.6984 82.0981 85.9781 82.4287 86.577C82.8476 87.3358 83.4079 87.9712 84.1057 88.5856C76.7195 88.5856 69.3335 88.5856 61.8065 88.5856C62.637 87.8739 63.2251 87.1061 63.6631 86.2242ZM93.7923 75.7453C93.9842 75.532 94.2201 75.3548 94.4581 75.2015C94.9075 74.9112 95.2115 74.8822 95.3529 75.6052C95.5099 76.4084 95.4546 76.9442 94.6429 77.2764C93.3928 77.7883 92.1772 78.3983 90.9412 78.9695C91.9003 77.8815 92.8388 76.8057 93.7923 75.7453ZM68.7852 77.1791C67.8733 76.9152 67.4126 76.2863 67.3878 75.3909C67.3707 74.783 67.5971 74.5677 68.1286 74.792C69.1933 75.2411 70.2538 75.7006 71.3158 76.1571C73.2265 76.9787 75.0948 77.9014 76.9317 78.9115C74.2116 78.3345 71.4616 77.9536 68.7852 77.1791ZM81.6646 70.4247C81.9232 70.4759 82.1044 70.5249 82.334 70.2636C83.3272 69.133 84.3754 69.0257 85.5004 69.9849C85.9283 70.3496 86.2841 70.4553 86.7938 70.2636C87.2468 70.0932 87.738 70.0432 88.2101 69.9292C88.6523 69.8225 89.0915 69.7014 89.6637 69.5522C88.4726 70.9921 87.6815 72.6162 86.4963 73.9153C85.2651 75.2643 83.7194 75.4096 82.2114 74.2565C80.4474 72.9078 78.7705 71.4286 76.9545 70.1563C76.639 69.9353 76.323 69.7155 76.0073 69.4952C76.0163 69.4417 76.0249 69.3879 76.0339 69.3344C77.9109 69.6959 79.7891 70.0526 81.6646 70.4247ZM76.3266 61.4517C74.3148 60.9958 72.306 60.5257 70.2906 60.0892C68.8193 59.7705 67.345 59.4586 65.8468 59.3207C65.5673 59.295 65.3822 59.1738 65.2061 58.9534C64.7944 58.4383 64.3627 57.9411 63.8165 57.2906C68.358 57.7584 72.4513 59.2192 76.3266 61.4517ZM75.2327 71.1696C72.309 71.3626 69.4376 71.8256 66.5363 71.8504C63.2957 71.8778 61.0085 70.2868 59.6347 67.1306C61.201 67.0037 72.3496 69.8886 75.2327 71.1696ZM57.7535 76.9136C58.6678 78.2069 59.0466 79.6944 59.0651 81.5303C59.0305 82.6602 58.8633 83.9754 58.1829 85.17C56.9098 87.4047 54.3885 87.7517 52.6536 85.9098C50.445 83.5652 50.4731 78.6837 52.7086 76.3726C54.2504 74.7788 56.4036 75.004 57.7535 76.9136ZM34.4073 74.7504C35.0644 75.4318 35.5613 76.2164 35.8696 77.1333C36.1123 77.8557 36.3432 78.5854 36.5306 79.3258C36.9713 81.0653 36.9596 81.0673 38.619 81.0644C41.0948 81.0599 43.5706 81.0434 46.0459 81.0686C46.4943 81.0731 46.5831 80.9361 46.602 80.479C46.7078 77.9105 47.4233 75.5685 48.9588 73.5638C49.5846 72.7467 50.3323 72.0943 51.2887 71.7637C52.1743 71.4576 52.9651 71.7196 53.801 72.1964C47.2534 74.4527 46.2653 83.8864 51.0893 88.574C45.557 88.574 40.1267 88.574 34.6049 88.574C35.7288 87.5275 36.4311 86.2871 36.8018 84.843C36.9226 84.3729 37.1866 84.363 37.5406 84.3646C40.4245 84.3775 43.309 84.3607 46.1927 84.3958C46.7521 84.4026 46.8648 84.2779 46.7589 83.676C46.5395 82.4272 46.5769 82.4214 45.4102 82.4224C42.4752 82.4253 39.5395 82.405 36.6048 82.445C35.9751 82.4537 35.802 82.1946 35.6929 81.5876C35.4899 80.459 35.2405 79.3336 34.9209 78.2375C34.4775 76.7164 33.8879 75.2666 32.5126 74.2845C33.3043 74.0558 33.8817 74.2056 34.4073 74.7504ZM29.7689 84.978C28.524 83.1251 28.5072 79.1744 29.7366 77.2883C30.5986 75.966 31.8965 75.9519 32.733 77.2938C33.4999 78.5242 33.6772 79.937 33.7038 81.3814C33.6536 82.6573 33.5214 83.9083 32.8086 84.9874C31.9703 86.2561 30.6219 86.2474 29.7689 84.978Z" fill="#01133C"/>
<path d="M109.369 95.7386C109.533 94.3596 110.372 93.5165 111.665 93.5187C113.476 93.5219 115.288 93.5561 117.1 93.5638C117.363 93.5648 117.655 93.6808 117.892 93.4433C117.877 93.3789 117.874 93.3225 117.851 93.279C117.776 93.136 117.701 92.991 117.611 92.8586C116.015 90.5085 114.016 88.6417 111.584 87.3929C107.82 85.4598 103.696 86.2243 100.7 89.3489C99.9517 90.129 99.3262 91.0453 98.6376 91.8923C97.4851 93.3106 96.0647 94.2246 94.3079 94.4199C93.4982 94.5098 92.6772 94.5027 91.8613 94.503C76.4736 94.5095 61.0858 94.5127 45.698 94.5111C40.0838 94.5104 34.4699 94.4975 28.8557 94.4859C26.6134 94.4814 24.7292 93.6308 23.2873 91.7331C22.8675 91.1806 22.4277 90.6445 21.9822 90.1154C18.9817 86.5543 14.9571 85.5361 10.9347 87.3781C8.64393 88.4272 6.91973 90.2611 5.39166 92.3208C4.87144 93.0222 4.36885 93.7472 4.04297 94.6048C4.36616 94.7198 4.64003 94.6229 4.9097 94.5707C6.69071 94.2259 8.46963 93.8683 10.2503 93.521C11.541 93.2693 12.6078 94.0426 12.8742 95.4167C13.1349 96.7619 13.3944 98.107 13.6491 99.4535C13.8934 100.743 13.0664 101.885 11.8304 102.074C9.74716 102.394 7.67046 102.764 5.50706 103.127C5.74714 103.648 6.10771 103.954 6.45781 104.246C8.04209 105.569 9.76809 106.621 11.6845 107.275C14.6627 108.293 17.4778 107.909 20.0966 106.055C21.2614 105.231 22.1691 104.108 23.0451 102.958C24.1411 101.52 25.5075 100.577 27.2359 100.324C27.9417 100.221 28.6572 100.141 29.3688 100.14C41.2095 100.119 53.0502 100.107 64.8909 100.106C74.2563 100.106 83.6215 100.128 92.987 100.132C95.3585 100.133 97.3718 100.996 98.9848 102.896C99.5184 103.524 100.038 104.172 100.618 104.748C102.912 107.029 105.585 108.205 108.733 107.649C111.495 107.162 113.885 105.775 115.958 103.763C116.531 103.207 117.085 102.621 117.529 101.941C117.352 101.75 117.191 101.808 117.044 101.806C114.825 101.775 112.605 101.756 110.385 101.717C109.444 101.7 108.702 100.653 108.851 99.6532C109.044 98.3522 109.214 97.0461 109.369 95.7386ZM101.752 92.0872C99.9104 94.6925 99.5501 97.5867 100.366 100.808C98.6535 98.8532 98.6571 95.2215 100.29 92.3276C102.257 88.8412 105.722 87.4406 109.256 88.2503C106.127 88.459 103.585 89.4949 101.752 92.0872ZM106.76 93.242C105.584 94.8033 105.141 96.644 104.939 98.5723C104.826 99.6629 104.862 100.766 104.938 101.85C103.9 99.2553 103.369 96.6221 104.127 93.838C104.866 91.1236 107.309 89.3544 109.918 89.6534C110.472 89.7169 110.943 89.9672 111.018 90.5936C111.092 91.2015 110.719 91.5572 110.174 91.6632C108.923 91.9058 107.655 92.055 106.76 93.242Z" fill="#01133C"/>
<path d="M13.4465 41.8603C14.7637 42.5214 16.0993 43.1381 17.3063 44.0306C17.944 44.5019 18.2394 45.069 18.2352 45.9505C18.2032 52.8537 18.2172 59.757 18.2172 66.6602C18.2172 67.1126 18.2172 67.5646 18.2172 68.0398C16.9962 67.6229 16.6712 67.1822 16.6688 65.9711C16.6635 63.4815 16.6673 60.9922 16.6673 58.3645C16.1677 59.1377 15.742 59.8008 15.3115 60.4606C15.2026 60.6275 15.1793 60.8086 15.1805 61.0064C15.191 63.2614 15.2056 65.5168 15.1997 67.7718C15.1982 68.3604 15.3931 68.6881 15.9612 68.7754C16.5657 68.8682 17.1565 69.0886 17.7622 69.1443C19.0768 69.2658 20.3923 69.6273 21.7171 69.2738C23.9714 68.6723 25.6698 67.2128 27.0909 65.2816C27.5438 64.6659 27.734 64.083 27.7385 63.2895C27.7812 56.0254 29.4857 49.2378 33.2193 43.1722C38.0039 35.3994 44.8322 30.6735 53.1312 28.3199C53.7062 28.1569 53.8808 27.9236 53.8198 27.3334C53.7603 26.756 53.7537 26.1313 53.9803 25.6248C54.4841 24.4987 54.3298 23.3231 54.4007 22.1548C54.4434 21.4495 54.2105 21.3999 53.6778 21.5211C46.2688 23.2061 39.6605 26.6304 33.9521 32.0229C33.6908 32.2696 33.559 32.5503 33.5028 32.9324C33.1996 34.9909 32.4988 36.8467 31.029 38.2846C29.9883 39.3031 28.8746 40.2245 27.6909 41.0355C26.8454 41.6148 26.2828 42.3423 25.892 43.3662C24.3439 47.4239 23.0604 51.5508 22.5901 55.9323C22.2167 59.4093 22.1921 62.9009 22.1933 66.3944C22.1936 66.7759 22.1942 67.177 22.092 67.5346C21.9461 68.0447 21.4854 68.2241 21.0572 68.2386C20.6689 68.2518 20.8249 67.8191 20.824 67.5907C20.7998 60.1926 20.7944 52.7941 20.766 45.396C20.7621 44.423 21.1104 43.6884 21.8283 43.1552C22.6884 42.5163 23.5534 41.8806 24.4482 41.3006C29.0934 38.2891 31.1683 33.7537 31.2751 28.0341C31.2799 27.7774 31.2724 27.5557 31.0751 27.365C30.6457 26.95 30.2319 26.516 29.7043 25.9805C30.5638 35.3462 24.8139 40.6756 19.5028 41.1743C16.3226 41.473 13.4787 40.5496 11.0501 38.3294C7.62297 35.1961 6.58402 31.0337 6.8528 26.3333C5.48079 27.208 5.25536 27.6159 5.35732 29.0735C5.7726 35.0102 8.39941 39.3279 13.4465 41.8603Z" fill="#01133C"/>
<path d="M85.725 102.189C84.9794 102.181 84.3434 102.401 83.7081 102.802C81.1782 104.399 78.5977 105.895 75.8791 107.094C67.0461 110.988 58.0242 111.78 48.7917 108.975C44.2966 107.609 40.1345 105.427 36.1226 102.891C35.3551 102.406 34.5747 102.142 33.6659 102.163C31.6256 102.208 29.5839 102.166 27.5431 102.161C27.097 102.16 26.6512 102.161 26.0742 102.161C43.4451 120.562 72.2552 123.533 93.9095 102.2C91.1213 102.2 88.423 102.217 85.725 102.189Z" fill="#01133C"/>
<path d="M86.6917 31.7415C86.7919 32.3318 86.7623 32.9471 86.7954 33.5509C86.9132 35.6932 86.9147 35.6851 88.9385 35.8952C89.2611 35.9287 89.7604 35.7747 89.8139 36.3153C89.8854 37.0354 90.6756 37.6218 90.0178 38.4969C88.975 39.8842 89.0186 39.9271 90.1577 41.2223C90.4735 41.5812 90.7973 41.934 91.1381 42.2649C92.531 43.6168 92.5451 43.631 94.0902 42.4782C94.4597 42.2024 94.7163 42.2671 95.1169 42.3831C96.5562 42.7997 97.4546 43.6323 97.4713 45.3402C97.4752 45.7397 97.7084 45.8676 98.0911 45.8457C99.0081 45.7929 99.9277 45.799 100.846 45.7748C102.436 45.7329 102.436 45.731 102.661 43.9967C102.675 43.8881 102.72 43.7811 102.719 43.6738C102.714 43.1867 103.007 43.0555 103.361 42.8229C104.64 41.983 105.751 42.0851 106.777 43.2543C107.058 43.5743 107.215 43.3159 107.391 43.1196C108.101 42.3303 108.847 41.5738 109.515 40.7451C110.746 39.2179 110.857 39.8478 109.524 38.1344C109.201 37.7191 109.203 37.4217 109.283 36.9127C109.505 35.5069 110.181 34.8197 111.506 34.859C111.704 34.8648 111.904 34.7427 112.104 34.7379C112.562 34.7266 112.628 34.4576 112.606 34.0349C112.536 32.7174 112.463 31.3984 112.458 30.0797C112.456 29.5993 112.223 29.5381 111.915 29.4807C111.288 29.3641 110.662 29.2397 110.031 29.1527C109.743 29.1128 109.659 28.9343 109.498 28.6981C108.457 27.1748 108.969 25.9601 110.062 24.8225C110.133 24.7484 110.198 24.6678 110.251 24.6076C109.469 23.7512 108.708 22.9022 107.932 22.0694C106.717 20.7645 106.716 20.7754 105.31 21.7958C105.054 21.9817 104.825 22.2801 104.423 22.0948C103.745 21.7829 103.063 21.4691 102.324 21.3551C102.048 21.3125 102.076 21.0674 101.999 20.8711C101.714 20.1452 101.863 19.045 101.282 18.7118C100.722 18.3909 99.8479 18.7063 99.1118 18.7428C99.0353 18.7466 98.9587 18.7518 98.8828 18.7595C98.1751 18.8317 97.297 18.6609 96.8139 19.054C96.4294 19.3668 96.4943 20.3643 96.4228 21.0654C96.375 21.5368 96.1295 21.7227 95.7959 21.9734C94.5276 22.9261 93.3024 23.1191 92.0425 21.9885C91.7833 21.7559 91.5677 21.8132 91.3396 22.118C90.7955 22.8446 90.2011 23.527 89.6447 24.2432C89.221 24.7886 88.496 25.367 88.5083 25.915C88.5205 26.4598 89.2656 27.0069 89.7299 27.5092C89.9607 27.7589 89.9703 27.9577 89.9221 28.2928C89.7449 29.5261 89.2091 30.2955 87.9686 30.3123C87.8449 30.3139 87.7232 30.4015 87.5985 30.408C86.7799 30.4502 86.5494 30.9028 86.6917 31.7415ZM99.7014 26.6319C102.688 26.6296 105.076 29.2091 105.086 32.4471C105.095 35.5034 102.736 38.012 99.8485 38.0181C96.871 38.0245 94.3871 35.4009 94.3978 32.2606C94.408 29.1933 96.8196 26.6338 99.7014 26.6319Z" fill="#01133C"/>
<path d="M64.9304 24.7545C65.2019 25.6058 65.3678 26.4551 65.3347 27.3343C65.3119 27.9368 65.4892 28.1624 66.0394 28.3215C73.8355 30.5762 80.0617 35.2109 84.5792 42.4827C88.088 48.1307 90.2126 54.2788 90.6539 61.0763C90.7053 61.8696 90.4512 62.8635 90.8075 63.4077C91.1828 63.9805 92.1186 64.1313 92.8137 64.4551C94.2093 65.105 95.5562 65.8596 96.9228 66.7562C96.9405 66.5564 96.9557 66.4569 96.9575 66.3567C97.0795 59.8172 95.9147 53.5258 93.861 47.3952C93.5862 46.5745 93.1378 46.1364 92.434 45.7481C87.5021 43.0266 84.7999 38.7312 84.7195 32.6791C84.712 32.1182 84.5598 31.7702 84.1855 31.4306C79.4216 27.1123 74.1401 23.8395 68.0754 22.1464C67.0086 21.8487 65.9458 21.5143 64.7774 21.416C64.8689 22.5791 64.5947 23.7029 64.9304 24.7545Z" fill="#01133C"/>
<path d="M18.1076 39.3548C23.5502 39.4019 27.9759 34.7591 28.0238 28.9526C28.0701 23.3181 23.6763 18.5874 18.374 18.5626C12.9299 18.5368 8.60278 22.9818 8.57437 28.6285C8.54448 34.4836 12.8336 39.3091 18.1076 39.3548ZM17.6782 34.4382C15 34.4343 12.874 32.0865 12.8844 29.1446C12.8943 26.3393 14.9871 24.1571 17.6717 24.1529C20.4273 24.1484 22.539 26.463 22.5229 29.4707C22.5085 32.1961 20.3182 34.4421 17.6782 34.4382ZM11.3537 27.2505C11.528 26.2156 11.8201 25.2187 12.421 24.3701C13.8818 22.3071 15.8306 21.299 18.2343 21.2999C21.3951 21.3057 24.0749 23.2679 25.1775 26.3838C26.3244 29.6244 25.541 33.4452 23.2506 35.6194C23.0255 35.833 22.8245 36.4425 22.3468 35.9722C21.8729 35.5056 22.2057 35.1889 22.5235 34.8223C24.7509 32.2496 25.2262 28.5789 23.7056 25.846C21.1404 21.2361 15.1665 21.3702 12.4384 26.1041C12.1974 26.522 12.0129 26.9779 11.8042 27.417C11.7271 27.5794 11.7074 27.853 11.4819 27.8008C11.1782 27.7309 11.3244 27.4244 11.3537 27.2505Z" fill="#01133C"/>
<path d="M54.6969 29.0798C53.3091 29.6217 52.7105 30.5374 52.7007 32.1113C52.6902 33.76 52.6983 35.4086 52.6983 37.0576C52.7028 37.0576 52.7073 37.0576 52.7117 37.0576C52.7117 38.7887 52.6908 40.5201 52.7174 42.2509C52.7461 44.1151 53.9062 45.3401 55.616 45.3488C58.1657 45.3614 60.7157 45.3672 63.2653 45.3652C65.4954 45.3633 66.6013 44.1776 66.6022 41.769C66.6034 38.4994 66.5903 35.2295 66.5735 31.9596C66.5664 30.5258 65.8369 29.47 64.5196 29.0547C64.1285 28.9313 64.0116 28.7721 64.0191 28.3388C64.031 27.6325 64.2421 26.8403 63.8606 26.2375C63.4089 25.5232 63.4722 24.7947 63.489 24.0366C63.5081 23.185 63.5521 22.3338 63.5542 21.4826C63.5589 19.7254 62.3445 18.4024 60.727 18.3889C59.9111 18.3821 59.094 18.3641 58.2796 18.4037C56.7611 18.4782 55.6573 19.7028 55.6336 21.3376C55.616 22.5461 55.6444 23.7553 55.6477 24.9645C55.6483 25.1836 55.7078 25.4736 55.6037 25.6102C54.9466 26.4723 55.1466 27.4831 55.1406 28.4516C55.1388 28.8269 55.0022 28.9606 54.6969 29.0798ZM65.2867 34.9782C65.2541 37.2029 65.2727 39.4286 65.2395 41.6533C65.2168 43.1711 64.611 43.7881 63.2088 43.7984C62.2913 43.8052 61.3734 43.8023 60.4559 43.7852C60.2636 43.7817 59.9479 43.9366 59.9497 43.512C59.9509 43.1724 60.2125 43.204 60.3984 43.2356C61.0386 43.3448 60.8502 42.8325 60.8897 42.4997C60.9459 42.027 60.6831 41.9826 60.3264 41.9871C58.5167 42.01 56.7064 42.0277 54.897 42.0042C54.6207 42.0006 54.0849 42.3299 54.0811 41.6613C54.0769 40.9522 54.6434 41.2625 54.952 41.2531C56.6846 41.2009 58.4186 41.1632 60.1512 41.1935C60.7518 41.2042 60.9184 40.9886 60.8353 40.4035C60.8125 40.2427 60.8272 40.0739 60.8365 39.9096C60.8586 39.5094 60.9034 39.1051 60.3219 39.2153C60.1156 39.2543 59.9883 39.1547 59.9933 38.8966C59.9978 38.6637 60.077 38.5187 60.3052 38.54C61.0532 38.6096 60.8095 38.0125 60.8652 37.6017C60.9342 37.0911 60.6891 36.9993 60.2947 37.046C60.0205 37.0782 59.9452 36.8601 59.9294 36.6281C59.9084 36.3188 60.1503 36.3446 60.3031 36.3768C60.9258 36.5079 60.8553 36.0681 60.8837 35.6444C60.9282 34.9791 60.4875 35.2179 60.2152 35.2169C58.3543 35.2114 56.4932 35.2304 54.6324 35.2288C54.3878 35.2285 54.0533 35.3754 54.0332 34.858C54.012 34.307 54.3513 34.405 54.6428 34.4043C56.3255 34.4011 58.0078 34.4027 59.6905 34.4027C59.6905 34.4018 59.6905 34.4008 59.6905 34.3998C61.3731 34.3998 63.0558 34.415 64.7378 34.3895C65.1671 34.3821 65.2936 34.509 65.2867 34.9782ZM57.1566 25.1452C57.1946 24.6268 57.1656 24.1026 57.1656 23.5807C57.1847 23.5807 57.2039 23.5807 57.223 23.5807C57.223 22.9221 57.1758 22.2587 57.2341 21.6063C57.322 20.623 57.8918 20.0794 58.792 20.0379C59.2755 20.0157 59.7604 20.0134 60.2442 20.0218C61.1441 20.0376 61.8673 20.7019 61.9113 21.6695C61.9657 22.8741 61.917 24.0839 61.9331 25.2912C61.9412 25.8963 61.534 25.7145 61.2389 25.7619C60.8278 25.8283 60.7925 25.5786 60.8015 25.2216C60.8263 24.2334 60.8412 23.2443 60.8254 22.2562C60.8116 21.4014 60.4355 21.0454 59.6133 21.0354C58.8133 21.0257 58.3753 21.3949 58.3436 22.2117C58.3053 23.1982 58.3041 24.1893 58.3433 25.1758C58.3666 25.7635 58.0835 25.7423 57.6846 25.7609C57.2224 25.7825 57.1235 25.5979 57.1566 25.1452ZM57.0753 27.7128C58.7852 27.7054 60.4953 27.6941 62.2052 27.676C62.7646 27.6702 62.5888 28.1271 62.6354 28.4409C62.691 28.8147 62.566 28.9919 62.1822 28.9819C61.3148 28.96 60.4469 28.9751 59.5793 28.9751C59.5793 28.9725 59.5793 28.9703 59.5793 28.9677C58.7624 28.9677 57.9444 28.9371 57.1294 28.9793C56.6496 29.0041 56.5952 28.7483 56.5754 28.3404C56.5557 27.929 56.6696 27.7147 57.0753 27.7128ZM55.3897 30.7729C58.1675 30.6499 60.9462 30.724 63.7243 30.7591C64.185 30.7649 64.5554 31.0152 64.8263 31.4067C65.029 31.6999 65.163 32.0359 65.0114 32.4068C64.8598 32.777 64.5336 32.6558 64.2717 32.6574C62.7167 32.6674 61.1614 32.6623 59.6062 32.6623C59.6062 32.6542 59.6062 32.6465 59.6062 32.6384C58.0001 32.6384 56.3939 32.6181 54.7884 32.6484C54.1603 32.6603 54.0942 32.3075 54.2464 31.8229C54.4267 31.2491 54.7783 30.8 55.3897 30.7729Z" fill="#01133C"/>
<path d="M119.996 55.7309C119.936 54.7995 119.932 53.8622 119.945 52.9279C119.952 52.4933 119.847 52.2523 119.416 52.2204C119.19 52.2036 118.969 52.1234 118.745 52.0715C117.948 51.8866 117.291 50.2585 117.702 49.4834C117.877 49.1528 118.059 48.8261 118.316 48.3554C118.228 48.3074 118.091 48.2674 117.999 48.1756C117.343 47.5241 116.692 46.8668 116.05 46.2009C115.849 45.9931 115.715 46.0053 115.482 46.1883C115.137 46.4596 114.775 46.9316 114.377 46.8582C113.768 46.7457 113.169 46.4396 112.623 46.1068C112.311 45.9164 112.397 45.4086 112.28 45.052C112.171 44.7198 112.251 44.2539 111.698 44.271C110.831 44.298 109.963 44.2861 109.096 44.2735C108.764 44.2687 108.607 44.3676 108.561 44.7671C108.505 45.2498 108.473 45.8771 108.189 46.1542C107.778 46.5546 107.166 46.7496 106.611 46.9303C106.234 47.0534 105.961 46.6558 105.702 46.4193C105.314 46.0649 105.025 46.0772 104.674 46.4686C104.142 47.0602 103.584 47.6256 103.019 48.1801C102.732 48.4617 102.762 48.6805 102.962 49.0181C103.188 49.3986 103.695 49.7843 103.54 50.2038C103.19 51.1465 103.156 52.4614 101.743 52.4713C101.352 52.4742 101.197 52.7307 101.216 53.1805C101.254 54.0311 101.262 54.8865 101.226 55.7367C101.199 56.386 101.341 56.7839 102.028 56.7752C102.714 56.7665 103.095 57.1689 103.237 57.8858C103.289 58.1499 103.392 58.4158 103.525 58.6448C103.691 58.929 103.616 59.1352 103.472 59.3913C102.832 60.53 102.838 60.5348 103.736 61.4724C103.974 61.7211 104.215 61.9673 104.456 62.2121C105.275 63.0421 105.275 63.0414 106.229 62.3861C106.785 62.0043 108.289 62.5772 108.505 63.2525C108.945 64.6321 108.945 64.6347 110.284 64.6321C110.794 64.6311 111.305 64.5876 111.814 64.6144C112.276 64.6385 112.436 64.4385 112.466 63.9545C112.49 63.5573 112.399 63.0182 112.716 62.7969C113.22 62.4457 113.806 62.1828 114.391 62.031C114.717 61.9463 115.033 62.3242 115.299 62.5688C115.7 62.9364 115.983 62.8597 116.315 62.4502C116.785 61.8719 117.297 61.3325 117.812 60.7987C118.184 60.4114 118.348 60.0715 117.928 59.5702C117.732 59.3356 117.417 59.0572 117.56 58.6413C117.904 57.6422 118.064 56.4613 119.439 56.4842C119.871 56.4916 120.029 56.2284 119.996 55.7309ZM110.552 59.0495C108.179 59.0492 106.264 57.0129 106.249 54.4718C106.232 51.8608 108.064 49.8639 110.479 49.861C112.882 49.8581 114.852 51.933 114.857 54.4721C114.862 56.9888 112.924 59.0498 110.552 59.0495Z" fill="#01133C"/>
<path d="M15.4957 52.0431C15.5041 47.5273 12.1227 43.9033 7.90051 43.9033C3.47803 43.9033 0.0113874 47.5109 2.63017e-05 52.1243C-0.0110359 56.6485 3.46876 60.3063 7.77613 60.2983C12.0321 60.2909 15.4874 56.5957 15.4957 52.0431ZM13.7067 51.2811C14.1327 53.3119 13.1287 55.893 11.511 56.9536C11.2957 57.0947 11.0921 57.3158 10.8649 56.9759C10.6834 56.7046 10.5955 56.4529 10.8996 56.1962C13.1039 54.3329 13.5159 51.9523 12.6414 49.164C13.3006 49.7031 13.5377 50.4757 13.7067 51.2811ZM1.42615 51.0814C1.65995 49.4804 2.33115 48.1218 3.47086 47.0402C3.70615 46.8169 3.88943 46.65 4.17286 46.9654C4.43446 47.257 4.45898 47.4687 4.16 47.7712C3.29476 48.6463 2.57632 49.6286 2.32398 50.929C1.94338 52.8902 2.3766 54.6229 3.54739 56.1581C3.75488 56.4304 3.97284 56.6933 4.32354 57.1334C2.32099 56.173 1.07993 53.453 1.42615 51.0814ZM3.91693 51.6098C3.94773 49.4601 5.61363 47.6568 7.57373 47.6517C9.6863 47.6462 11.4945 49.5255 11.4927 51.7255C11.4909 53.9901 9.82682 55.6916 7.62664 55.6778C5.58552 55.6652 3.88554 53.801 3.91693 51.6098Z" fill="#01133C"/>
<path d="M55.7344 12.1446C55.3314 13.4369 55.0357 14.785 54.8662 16.2184C56.3013 15.2576 57.6754 14.3658 59.0184 13.4221C59.4295 13.1331 59.7177 13.1805 60.1067 13.4453C61.4817 14.381 62.8794 15.2783 64.3934 16.2722C63.9928 14.4167 63.6526 12.7043 63.24 11.0121C63.1195 10.5185 63.2289 10.2672 63.5739 9.98982C64.8987 8.92499 66.1323 7.74255 67.3458 6.53949C67.2478 6.34618 67.0815 6.39515 66.9344 6.37968C65.438 6.21923 63.9441 6.02012 62.4444 5.91573C61.8647 5.87546 61.6219 5.62383 61.435 5.06902C60.8771 3.41457 60.2657 1.78074 59.6256 0C59.0103 1.7147 58.3914 3.24574 57.92 4.82737C57.6506 5.73144 57.1621 5.96342 56.3728 6.01078C54.8806 6.10002 53.3931 6.27755 51.7422 6.43381C52.8714 7.50413 53.8231 8.55511 54.914 9.39635C55.895 10.1522 56.1162 10.9206 55.7344 12.1446Z" fill="#01133C"/>
<path d="M19.5977 71.086C18.9023 70.9645 18.9749 71.2629 19.0757 71.7616C20.0241 76.4595 21.5264 80.9344 23.5514 85.224C24.2319 86.6655 25.0098 87.5931 26.6198 87.2093C26.7155 87.1865 26.8201 87.2064 26.9547 87.2064C24.4821 81.3967 24.788 75.5193 25.9818 69.6094C23.331 71.0441 21.7217 71.4568 19.5977 71.086Z" fill="#01133C"/>
<path d="M114.206 74.4993C115.033 73.7914 115.825 73.0368 116.735 72.2069C115.519 72.0806 114.459 71.9314 113.395 71.8766C112.852 71.8486 112.589 71.635 112.411 71.0882C112.062 70.0186 111.641 68.9763 111.21 67.8145C110.749 68.9904 110.316 70.0066 109.953 71.0518C109.756 71.6202 109.478 71.8566 108.899 71.8579C107.882 71.8595 106.866 71.9594 105.66 72.029C106.579 72.9482 107.35 73.7785 108.184 74.5276C108.564 74.8701 108.615 75.1565 108.48 75.6417C108.2 76.6553 107.992 77.6922 107.723 78.8514C108.776 78.2605 109.729 77.7524 110.655 77.1928C110.987 76.9917 111.212 76.9933 111.542 77.2127C112.542 77.8774 113.573 78.486 114.701 79.1836C114.402 77.8629 114.161 76.6901 113.862 75.5351C113.739 75.0563 113.864 74.7918 114.206 74.4993Z" fill="#01133C"/>
<path d="M6.71621 75.7201C6.44893 76.8262 6.21752 77.9423 5.94036 79.1943C7.02954 78.5155 8.0063 77.9352 8.95256 77.3018C9.28084 77.082 9.48743 77.0733 9.82588 77.3024C10.8017 77.9632 11.8171 78.5557 12.9227 79.2407C12.6243 77.9336 12.4004 76.7534 12.0733 75.6077C11.9214 75.0761 12.0518 74.8264 12.4252 74.5219C13.2279 73.8679 13.9915 73.1578 14.8358 72.4135C13.7338 72.2708 12.7101 72.119 11.6825 72.014C11.1761 71.9621 10.8684 71.7736 10.6824 71.214C10.3165 70.1134 9.86444 69.046 9.36994 67.7617C8.99681 69.1007 8.5313 70.1376 8.16536 71.214C7.97162 71.7839 7.64513 71.9579 7.14793 71.9947C6.14247 72.0688 5.13851 72.1625 4 72.2598C4.85119 73.0943 5.59295 73.8717 6.38853 74.5789C6.76883 74.9166 6.83162 75.243 6.71621 75.7201Z" fill="#01133C"/>
<path d="M75.6276 47.5262C75.9086 48.8414 76.2372 50.145 76.5798 51.5967C76.9634 50.1324 77.3371 48.8059 77.6525 47.4634C77.8217 46.7429 78.1763 46.336 78.8559 46.172C79.8231 45.9384 80.7759 45.6362 81.7348 45.3633C80.8014 44.9619 79.8802 44.6777 78.9447 44.467C78.2409 44.3085 77.8358 43.918 77.6609 43.156C77.3676 41.8801 77.0178 40.6194 76.6438 39.165C76.2805 40.5914 75.9008 41.8692 75.6419 43.175C75.4736 44.0243 75.0197 44.3246 74.3013 44.4815C73.3825 44.6819 72.482 44.9809 71.4141 45.2825C72.5514 45.6365 73.4908 45.9697 74.4496 46.2139C75.1366 46.3885 75.4742 46.8084 75.6276 47.5262Z" fill="#01133C"/>
<path d="M82.2069 23.2357C82.4862 23.8682 82.8034 24.4816 83.1648 25.2268C83.4617 24.5167 83.7517 23.9426 83.9422 23.3327C84.1308 22.7286 84.4149 22.4741 85.0394 22.4898C85.8075 22.5092 86.5791 22.3684 87.4955 22.2836C87.1194 21.9308 86.8862 21.6286 86.5893 21.4476C84.968 20.4578 84.8274 18.9499 85.2628 17.2211C85.2882 17.1202 85.2882 17.0116 85.3055 16.8576C84.4337 17.2871 83.8773 18.2717 82.9726 18.3925C82.0933 18.5098 81.2672 17.8542 80.3308 17.7227C80.5577 18.4592 80.7467 19.1133 80.9626 19.7567C81.1022 20.1727 81.0233 20.4652 80.7084 20.7677C80.1661 21.2887 79.6707 21.8658 79.0742 22.5069C79.926 22.5765 80.6534 22.6712 81.3814 22.6812C81.7973 22.6867 82.0329 22.8417 82.2069 23.2357Z" fill="#01133C"/>
<path d="M35.6329 22.8379C35.8377 23.5312 36.1092 24.2014 36.395 25.0007C36.7681 24.3306 37.1409 23.799 37.3729 23.2035C37.5915 22.6426 37.9123 22.4989 38.4283 22.5208C39.1243 22.5505 39.8189 22.478 40.6931 22.2853C40.0978 21.6847 39.6287 21.1889 39.1363 20.7217C38.7055 20.3129 38.5647 19.8795 38.8149 19.2802C39.0487 18.7199 39.2045 18.1216 39.4709 17.3055C37.5493 18.4371 35.8565 18.5089 34.3685 16.4111C34.454 17.4228 34.4717 18.1323 34.5841 18.8237C34.7049 19.5673 34.4791 20.0773 33.9284 20.5145C33.4004 20.9337 32.9224 21.4257 32.3008 21.9976C33.2339 22.0727 34.0157 22.1625 34.7993 22.1886C35.2448 22.2031 35.493 22.3639 35.6329 22.8379Z" fill="#01133C"/>
<path d="M69.6484 17.8829C70.4159 17.7769 71.0931 17.7154 71.7574 17.5814C72.3288 17.466 72.7079 17.6113 73.0075 18.1839C73.2723 18.6897 73.6535 19.125 74.027 19.6527C74.4288 18.6849 74.2602 17.514 74.8868 16.9515C75.5177 16.3851 76.498 16.2707 77.4509 15.9105C76.8063 15.4897 76.2508 15.0693 75.6486 14.7513C75.0919 14.4571 74.8551 14.0428 74.8826 13.3884C74.9089 12.7588 74.8883 12.127 74.8883 11.3145C74.2664 11.916 73.7979 12.3345 73.3686 12.7956C73.0107 13.1796 72.6454 13.3304 72.1359 13.1764C71.4492 12.9686 70.7436 12.8326 69.9522 12.6435C70.2924 13.4 70.5349 14.0685 70.882 14.6672C71.1311 15.0966 71.079 15.4014 70.8446 15.7845C70.4431 16.4415 70.0781 17.1245 69.6484 17.8829Z" fill="#01133C"/>
<path d="M45.3279 17.8149C45.3811 18.3761 45.53 18.9268 45.6364 19.4822C45.6816 19.5457 45.7264 19.6088 45.7716 19.6723C46.606 17.3084 48.2364 17.367 49.9991 17.8252C50.0174 17.83 50.0422 17.8052 50.1172 17.7672C49.8075 17.1728 49.5276 16.5612 49.1829 15.9955C48.8415 15.4349 48.7781 14.9329 49.1118 14.3278C49.4149 13.7778 49.6143 13.1612 49.8861 12.51C49.1285 12.7091 48.4426 12.878 47.7631 13.0719C47.2841 13.2085 46.8862 13.138 46.5118 12.7481C46.0448 12.2619 45.5315 11.8276 45.0026 11.3379C45.0026 12.0596 44.9649 12.6859 45.0131 13.3045C45.0636 13.9544 44.9031 14.3765 44.3135 14.6651C43.694 14.9683 43.1283 15.3991 42.4141 15.8537C43.0709 16.0767 43.6168 16.3196 44.1852 16.4401C44.9198 16.5957 45.2535 17.032 45.3279 17.8149Z" fill="#01133C"/>
<path d="M32.9883 57.4549C37.1943 52.6468 42.6704 50.6444 48.4672 49.347C40.338 48.9768 36.3234 50.9847 32.9883 57.4549Z" fill="#01133C"/>
<path d="M85.9101 59.5781C85.9607 59.4177 85.9403 59.2901 85.865 59.1683C84.5689 57.0718 82.9652 55.3481 80.8006 54.301C77.4132 52.6623 73.7989 52.6929 70.1914 52.6191C75.8519 53.8351 81.3238 55.5192 85.9101 59.5781Z" fill="#01133C"/>
<path d="M43.4056 43.0762C43.5954 43.9945 43.8702 44.8921 44.1088 45.7984C44.3629 44.8457 44.7076 43.9858 44.9109 43.0843C45.044 42.494 45.319 42.1393 45.9023 42.0053C46.6387 41.8358 47.3563 41.5716 48.2831 41.2862C47.3772 40.9904 46.7066 40.6998 46.01 40.5657C45.406 40.4494 45.1396 40.105 44.9901 39.5218C44.7384 38.5405 44.4568 37.5678 44.1461 36.4395C43.8624 37.5913 43.5879 38.5798 43.3828 39.5847C43.2624 40.1752 42.9963 40.4604 42.4414 40.5841C41.6906 40.751 40.9611 41.0281 40.2227 41.2581C40.9387 41.6196 41.638 41.8394 42.349 41.9979C42.9275 42.1268 43.2698 42.4206 43.4056 43.0762Z" fill="#01133C"/>
<path d="M62.4745 51.8269C62.5761 52.4275 62.8476 52.9256 63.4452 53.0686C64.0283 53.2081 64.5664 53.1025 64.9398 52.5306C65.3007 51.978 65.304 51.3852 64.991 50.8284C64.1831 49.3918 63.0037 48.3009 61.9375 47.0811C62.241 48.6627 62.2099 50.2646 62.4745 51.8269Z" fill="#01133C"/>
<path d="M54.4836 52.5876C54.8218 53.0815 55.3133 53.221 55.8479 53.0912C56.5011 52.9323 56.8261 52.4239 56.894 51.737C57.0441 50.2185 57.1717 48.6975 57.326 46.9844C57.0103 47.3398 56.8264 47.5266 56.6641 47.7335C55.8912 48.7184 55.014 49.6147 54.3939 50.7298C54.0477 51.3517 54.0815 51.9999 54.4836 52.5876Z" fill="#01133C"/>
<path d="M15.481 113.144C15.3626 115.137 14.4614 116.274 12.5898 116.518C14.2949 116.862 15.2797 117.851 15.4451 119.757C15.6941 117.944 16.6607 116.919 18.2869 116.518C16.461 116.239 15.8065 114.918 15.481 113.144Z" fill="#01133C"/>
<path d="M103.973 113.595C103.779 115.498 102.856 116.535 101.156 116.834C102.929 117.081 103.76 118.245 104.07 120C104.242 118.201 105.034 117.103 106.751 116.806C104.984 116.571 104.319 115.284 103.973 113.595Z" fill="#01133C"/>
<path d="M97.184 86.9768C97.8229 85.6539 98.4648 84.3326 99.1058 83.011C97.8699 84.667 96.5693 86.1955 94.6367 86.9546C94.6678 87.0396 94.6986 87.1247 94.7297 87.2097C95.4284 87.2097 96.1271 87.2043 96.8258 87.2136C97.0043 87.2155 97.1063 87.1379 97.184 86.9768Z" fill="#01133C"/>
<path d="M53.6729 84.5465C54.4903 85.4699 55.5891 85.4963 56.4573 84.629C58.0359 83.0515 57.9259 79.1153 56.2627 77.6645C55.4512 76.957 54.47 76.9943 53.7112 77.7827C52.8256 78.7026 52.57 79.886 52.5317 80.9186C52.5174 82.44 52.8337 83.5986 53.6729 84.5465Z" fill="#01133C"/>
<path d="M31.9664 83.841C32.4929 83.0362 32.5318 82.1025 32.527 80.9645C32.5449 80.2486 32.469 79.3504 32.0417 78.5359C31.642 77.7736 30.9645 77.7191 30.5223 78.3964C29.7354 79.6017 29.7444 82.6174 30.5385 83.8391C31.0201 84.5805 31.477 84.5892 31.9664 83.841Z" fill="#01133C"/>
</g>
<defs>
<clipPath id="clip0_1_26080">
<rect width="120" height="120" fill="white"/>
</clipPath>
</defs>
</svg>
