<svg width="588" height="601" viewBox="0 0 588 601" fill="none" xmlns="http://www.w3.org/2000/svg">
<g opacity="0.08" clip-path="url(#clip0_1_24523)">
<path d="M477.105 6.51424C476.705 5.34114 476.226 4.20512 475.685 3.1062L483.208 -5.91164L471.582 -17.5314L462.56 -10.0146C461.463 -10.5553 460.322 -11.0218 459.15 -11.4258L458.088 -23.1197H441.647L440.585 -11.4258C439.415 -11.0237 438.274 -10.5572 437.175 -10.0146L428.153 -17.5314L416.527 -5.91164L424.05 3.1062C423.507 4.20708 423.03 5.34114 422.63 6.51424L410.938 7.57413V24.0073L422.63 25.0672C423.03 26.2403 423.507 27.3763 424.05 28.4752L416.527 37.4931L428.153 49.1128L437.175 41.594C438.274 42.1347 439.411 42.613 440.585 43.0131L441.645 54.6992H458.086L459.147 43.0131C460.32 42.613 461.457 42.1347 462.556 41.594L471.578 49.1128L483.204 37.4931L475.681 28.4752C476.224 27.3763 476.701 26.2403 477.101 25.0672L488.793 24.0073V7.57413L477.105 6.51424ZM468.88 15.7917C468.88 26.2871 460.367 34.7955 449.867 34.7955C439.366 34.7955 430.853 26.2871 430.853 15.7917C430.853 5.29623 439.366 -3.21215 449.867 -3.21215C460.367 -3.21215 468.88 5.29623 468.88 15.7917Z" stroke="#01133C" stroke-width="1.4847" stroke-miterlimit="10"/>
<path d="M239.386 2.35116C238.986 1.17806 238.508 0.042039 237.967 -1.05689L245.489 -10.0747L233.864 -21.6945L224.841 -14.1777C223.744 -14.7184 222.603 -15.1849 221.432 -15.5889L220.369 -27.2828H203.928L202.866 -15.5889C201.696 -15.1868 200.556 -14.7203 199.456 -14.1777L190.434 -21.6945L178.808 -10.0747L186.331 -1.05689C185.788 0.0439909 185.312 1.17806 184.911 2.35116L173.219 3.41105V19.8442L184.911 20.9041C185.312 22.0772 185.788 23.2132 186.331 24.3122L178.808 33.33L190.434 44.9498L199.456 37.4309C200.556 37.9716 201.692 38.4499 202.866 38.85L203.926 50.5361H220.367L221.428 38.85C222.601 38.4499 223.738 37.9716 224.837 37.4309L233.86 44.9498L245.485 33.33L237.963 24.3122C238.506 23.2132 238.982 22.0772 239.382 20.9041L251.074 19.8442V3.41105L239.386 2.35116ZM231.161 11.6286C231.161 22.124 222.648 30.6324 212.148 30.6324C201.647 30.6324 193.135 22.124 193.135 11.6286C193.135 1.13315 201.647 -7.37524 212.148 -7.37524C222.648 -7.37524 231.161 1.13315 231.161 11.6286Z" stroke="#01133C" stroke-width="1.4847" stroke-miterlimit="10"/>
<path d="M436.929 629.621L444.414 626.836L440.866 611.3L432.941 612.034C432.556 611.17 432.146 610.321 431.713 609.485L437.228 603.75L427.287 591.291L420.464 595.39C419.747 594.781 418.998 594.217 418.244 593.651L420.732 586.064L406.368 579.15L401.988 585.822C401.078 585.586 400.17 585.34 399.238 585.158L398.194 577.286H382.25L381.206 585.158C380.274 585.34 379.368 585.586 378.456 585.822L374.076 579.15L359.712 586.064L362.2 593.651C361.447 594.215 360.697 594.781 359.98 595.39L353.157 591.291L343.217 603.75L348.732 609.485C348.296 610.321 347.888 611.172 347.503 612.034L339.578 611.3L336.03 626.836L343.515 629.621C343.502 630.092 343.445 630.552 343.445 631.026C343.445 631.501 343.502 631.961 343.515 632.432L336.03 635.217L339.578 650.753L347.503 650.019C347.888 650.883 348.298 651.732 348.732 652.57L343.217 658.304L353.157 670.764L359.98 666.665C360.697 667.274 361.447 667.838 362.2 668.404L359.712 675.991L374.076 682.904L378.456 676.233C379.368 676.469 380.274 676.715 381.206 676.896L382.25 684.769H398.194L399.238 676.896C400.17 676.715 401.076 676.469 401.988 676.233L406.368 682.904L420.732 675.991L418.244 668.404C418.998 667.84 419.747 667.274 420.464 666.665L427.287 670.764L437.228 658.304L431.713 652.57C432.148 651.734 432.556 650.883 432.941 650.019L440.866 650.753L444.414 635.217L436.929 632.432C436.942 631.961 436.999 631.501 436.999 631.026C436.999 630.552 436.942 630.092 436.929 629.621ZM426.323 631.026C426.323 650.956 410.159 667.112 390.22 667.112C370.281 667.112 354.118 650.956 354.118 631.026C354.118 611.097 370.281 594.943 390.22 594.943C410.159 594.943 426.323 611.097 426.323 631.026Z" stroke="#01133C" stroke-width="1.4847" stroke-miterlimit="10"/>
<path d="M691.695 220.26L707.059 213.522L699.099 189.036L682.72 192.608C682.345 192.071 681.941 191.559 681.546 191.038L690.022 176.547L669.181 161.414L658.02 173.936C657.397 173.719 656.786 173.485 656.153 173.293L654.493 156.644H628.733L627.073 173.293C626.44 173.485 625.827 173.721 625.206 173.936L614.048 161.414L593.207 176.547L601.682 191.038C601.288 191.559 600.883 192.071 600.508 192.608L584.13 189.036L576.168 213.522L591.533 220.26C591.527 220.59 591.484 220.908 591.484 221.24C591.484 221.57 591.527 221.89 591.533 222.22L576.168 228.958L584.13 253.445L600.508 249.873C600.883 250.41 601.288 250.921 601.682 251.442L593.207 265.933L614.048 281.068L625.206 268.545C625.829 268.762 626.44 268.996 627.073 269.189L628.733 285.839H654.493L656.153 269.189C656.786 268.998 657.399 268.762 658.02 268.545L669.181 281.068L690.022 265.933L681.546 251.442C681.941 250.921 682.345 250.41 682.72 249.873L699.099 253.445L707.059 228.958L691.695 222.22C691.701 221.89 691.744 221.57 691.744 221.24C691.744 220.908 691.701 220.59 691.695 220.26ZM679.603 221.24C679.603 242.212 662.594 259.213 641.612 259.213C620.631 259.213 603.621 242.212 603.621 221.24C603.621 200.269 620.631 183.268 641.612 183.268C662.594 183.266 679.603 200.269 679.603 221.24Z" stroke="#01133C" stroke-width="1.4847" stroke-miterlimit="10"/>
<path d="M419.727 445.319L412.417 444.25C411.622 439.934 410.501 435.735 409.064 431.683L414.86 427.104" stroke="#01133C" stroke-width="1.4847" stroke-miterlimit="10"/>
<path d="M416.341 425.934L422.137 421.354L418.442 414.96" stroke="#01133C" stroke-width="1.4847" stroke-miterlimit="10"/>
<path d="M413.203 405.888L409.508 399.493L402.644 402.22" stroke="#01133C" stroke-width="1.4847" stroke-miterlimit="10"/>
<path d="M400.863 402.926L393.999 405.653C391.179 402.357 388.107 399.284 384.809 396.468L387.537 389.607" stroke="#01133C" stroke-width="1.4847" stroke-miterlimit="10"/>
<path d="M388.244 387.829L390.973 380.968L384.575 377.275" stroke="#01133C" stroke-width="1.4847" stroke-miterlimit="10"/>
<path d="M375.5 372.036L369.1 368.345L364.521 374.139" stroke="#01133C" stroke-width="1.4847" stroke-miterlimit="10"/>
<path d="M363.348 375.618L358.766 381.411C354.712 379.975 350.511 378.854 346.194 378.06L345.124 370.754" stroke="#01133C" stroke-width="1.4847" stroke-miterlimit="10"/>
<path d="M344.852 368.87L343.781 361.564H336.396" stroke="#01133C" stroke-width="1.4847" stroke-miterlimit="10"/>
<path d="M325.91 361.564H318.522L317.454 368.87" stroke="#01133C" stroke-width="1.4847" stroke-miterlimit="10"/>
<path d="M317.176 370.754L316.108 378.06C311.79 378.854 307.589 379.975 303.535 381.411L298.954 375.618" stroke="#01133C" stroke-width="1.4847" stroke-miterlimit="10"/>
<path d="M297.785 374.139L293.204 368.345L286.806 372.036" stroke="#01133C" stroke-width="1.4847" stroke-miterlimit="10"/>
<path d="M277.73 377.275L271.333 380.968L274.061 387.829" stroke="#01133C" stroke-width="1.4847" stroke-miterlimit="10"/>
<path d="M274.772 389.607L277.5 396.468C274.202 399.286 271.13 402.357 268.31 405.653L261.445 402.926" stroke="#01133C" stroke-width="1.4847" stroke-miterlimit="10"/>
<path d="M259.664 402.22L252.8 399.493L249.105 405.888" stroke="#01133C" stroke-width="1.4847" stroke-miterlimit="10"/>
<path d="M243.866 414.96L240.173 421.354L245.969 425.934" stroke="#01133C" stroke-width="1.4847" stroke-miterlimit="10"/>
<path d="M247.446 427.104L253.242 431.683C251.805 435.735 250.684 439.936 249.889 444.25L242.58 445.319" stroke="#01133C" stroke-width="1.4847" stroke-miterlimit="10"/>
<path d="M240.695 445.593L233.386 446.661V454.045" stroke="#01133C" stroke-width="1.4847" stroke-miterlimit="10"/>
<path d="M233.386 464.524V471.908L240.695 472.976" stroke="#01133C" stroke-width="1.4847" stroke-miterlimit="10"/>
<path d="M242.58 473.251L249.889 474.318C250.684 478.634 251.805 482.832 253.242 486.885L247.446 491.464" stroke="#01133C" stroke-width="1.4847" stroke-miterlimit="10"/>
<path d="M245.969 492.634L240.173 497.211L243.866 503.607" stroke="#01133C" stroke-width="1.4847" stroke-miterlimit="10"/>
<path d="M249.105 512.682L252.8 519.076L259.664 516.349" stroke="#01133C" stroke-width="1.4847" stroke-miterlimit="10"/>
<path d="M261.446 515.639L268.31 512.912C271.13 516.209 274.202 519.279 277.5 522.098L274.772 528.959" stroke="#01133C" stroke-width="1.4847" stroke-miterlimit="10"/>
<path d="M274.061 530.74L271.333 537.601L277.73 541.294" stroke="#01133C" stroke-width="1.4847" stroke-miterlimit="10"/>
<path d="M286.806 546.532L293.204 550.225L297.785 544.431" stroke="#01133C" stroke-width="1.4847" stroke-miterlimit="10"/>
<path d="M298.954 542.949L303.535 537.156C307.589 538.593 311.79 539.713 316.108 540.507L317.176 547.813" stroke="#01133C" stroke-width="1.4847" stroke-miterlimit="10"/>
<path d="M317.458 549.697L318.526 557.005H325.914" stroke="#01133C" stroke-width="1.4847" stroke-miterlimit="10"/>
<path d="M336.396 557.005H343.781L344.852 549.697" stroke="#01133C" stroke-width="1.4847" stroke-miterlimit="10"/>
<path d="M345.127 547.813L346.198 540.507C350.515 539.713 354.716 538.593 358.77 537.156L363.352 542.949" stroke="#01133C" stroke-width="1.4847" stroke-miterlimit="10"/>
<path d="M364.521 544.431L369.1 550.225L375.5 546.532" stroke="#01133C" stroke-width="1.4847" stroke-miterlimit="10"/>
<path d="M384.575 541.294L390.973 537.601L388.244 530.74" stroke="#01133C" stroke-width="1.4847" stroke-miterlimit="10"/>
<path d="M387.537 528.959L384.809 522.098C388.107 519.279 391.179 516.209 393.999 512.912L400.863 515.639" stroke="#01133C" stroke-width="1.4847" stroke-miterlimit="10"/>
<path d="M402.644 516.349L409.508 519.076L413.203 512.682" stroke="#01133C" stroke-width="1.4847" stroke-miterlimit="10"/>
<path d="M418.442 503.607L422.137 497.211L416.341 492.634" stroke="#01133C" stroke-width="1.4847" stroke-miterlimit="10"/>
<path d="M414.86 491.464L409.064 486.885C410.501 482.832 411.622 478.634 412.417 474.318L419.727 473.251" stroke="#01133C" stroke-width="1.4847" stroke-miterlimit="10"/>
<path d="M421.612 472.976L428.922 471.908V464.524" stroke="#01133C" stroke-width="1.4847" stroke-miterlimit="10"/>
<path d="M428.922 454.045V446.661L421.612 445.593" stroke="#01133C" stroke-width="1.4847" stroke-miterlimit="10"/>
<path d="M282.985 411.132C256.379 437.725 256.379 480.841 282.985 507.434C309.591 534.027 352.727 534.027 379.333 507.434C405.939 480.841 405.939 437.725 379.333 411.132C352.727 384.539 309.591 384.539 282.985 411.132Z" stroke="#01133C" stroke-width="1.4847" stroke-miterlimit="10" stroke-dasharray="7.83 7.83"/>
<path d="M376.515 450.89C376.072 448.481 375.447 446.137 374.644 443.874L381.942 438.11L374.892 425.907L366.235 429.346C364.661 427.506 362.946 425.792 361.105 424.219L364.546 415.566L352.336 408.519L346.57 415.814C344.306 415.011 341.961 414.387 339.551 413.944L338.204 404.737H324.106L322.758 413.944C320.349 414.387 318.003 415.013 315.74 415.814L309.973 408.519L297.764 415.566L301.205 424.219C299.363 425.792 297.649 427.506 296.074 429.346L287.417 425.907L280.368 438.11L287.665 443.874C286.863 446.137 286.238 448.481 285.795 450.89L276.583 452.236V466.327L285.795 467.674C286.238 470.083 286.865 472.427 287.665 474.689L280.368 480.453L287.417 492.657L296.074 489.217C297.649 491.058 299.363 492.772 301.205 494.345L297.764 502.998L309.973 510.042L315.74 502.75C318.003 503.552 320.347 504.177 322.758 504.62L324.106 513.829H338.204L339.551 504.62C341.961 504.177 344.306 503.552 346.57 502.75L352.336 510.042L364.546 502.998L361.105 494.345C362.946 492.772 364.661 491.058 366.235 489.217L374.892 492.657L381.942 480.453L374.644 474.689C375.447 472.427 376.072 470.083 376.515 467.674L385.727 466.327V452.236L376.515 450.89ZM369.184 459.283C369.184 480.276 352.157 497.292 331.156 497.292C310.153 497.292 293.128 480.276 293.128 459.283C293.128 438.29 310.153 421.273 331.156 421.273C352.159 421.271 369.184 438.29 369.184 459.283Z" stroke="#01133C" stroke-width="1.4847" stroke-miterlimit="10"/>
<path d="M509.645 237.205C509.645 195.904 476.028 162.304 434.707 162.304C393.387 162.304 359.77 195.904 359.77 237.205C359.77 278.505 393.387 312.105 434.707 312.105C476.028 312.105 509.645 278.505 509.645 237.205ZM443.524 276.358L440.453 259.17C444.466 258.123 448.053 256.031 450.881 253.169L464.225 264.412C467.326 267.024 470.673 269.37 474.21 271.412L487.146 278.876C476.799 291.856 461.753 300.874 444.597 303.425V288.501C444.597 284.42 444.237 280.348 443.524 276.358ZM423.761 303.259C407.045 300.499 392.404 291.589 382.271 278.876L395.207 271.412C398.747 269.368 402.1 267.016 405.227 264.383L418.536 253.171C421.363 256.033 424.951 258.125 428.964 259.171L425.892 276.36C425.177 280.356 424.82 284.404 424.82 288.464V302.362C424.82 302.914 424.308 303.351 423.761 303.259ZM372.37 212.644L385.319 220.116C388.856 222.157 392.563 223.881 396.376 225.259L412.802 231.193C412.275 233.11 411.972 235.12 411.972 237.205C411.972 239.289 412.277 241.298 412.802 243.217L396.376 249.15C392.563 250.528 388.856 252.252 385.319 254.294L372.37 261.766C369.355 254.149 367.644 245.879 367.644 237.205C367.642 228.528 369.355 220.26 372.37 212.644ZM425.892 198.051L428.964 215.24C424.951 216.286 421.363 218.378 418.536 221.24L405.192 209.999C402.091 207.387 398.745 205.041 395.207 202.999L382.271 195.535C392.617 182.555 407.664 173.537 424.82 170.986V185.91C424.82 189.992 425.179 194.061 425.892 198.051ZM487.146 195.533L474.21 202.997C470.673 205.039 467.326 207.385 464.225 209.997L450.881 221.238C448.053 218.376 444.466 216.284 440.453 215.238L443.524 198.049C444.237 194.06 444.597 189.988 444.597 185.906V170.982C461.753 173.535 476.799 182.553 487.146 195.533ZM497.047 212.644C500.062 220.26 501.773 228.53 501.773 237.207C501.773 245.883 500.062 254.151 497.047 261.768L484.097 254.294C480.561 252.252 476.852 250.528 473.04 249.15L456.615 243.217C457.14 241.3 457.444 239.289 457.444 237.205C457.444 235.12 457.14 233.111 456.615 231.193L473.04 225.259C476.854 223.881 480.561 222.157 484.097 220.116L497.047 212.644Z" stroke="#01133C" stroke-width="1.4847" stroke-miterlimit="10"/>
<path d="M548.406 237.204C548.406 299.867 497.401 350.847 434.709 350.847C372.016 350.847 321.011 299.867 321.011 237.204C321.011 174.542 372.016 123.562 434.709 123.562C497.401 123.562 548.406 174.542 548.406 237.204ZM520.721 237.204C520.721 189.8 482.136 151.234 434.709 151.234C387.281 151.234 348.697 189.8 348.697 237.204C348.697 284.608 387.281 323.174 434.709 323.174C482.136 323.174 520.721 284.608 520.721 237.204Z" stroke="#01133C" stroke-width="1.4847" stroke-miterlimit="10"/>
<path d="M434.705 225.243C428.095 225.243 422.738 230.598 422.738 237.204C422.738 243.81 428.095 249.166 434.705 249.166C441.314 249.166 446.672 243.81 446.672 237.204C446.672 230.598 441.314 225.243 434.705 225.243Z" stroke="#01133C" stroke-width="1.4847" stroke-miterlimit="10"/>
<path d="M440.492 237.205C440.492 234.011 437.903 231.421 434.706 231.421C431.509 231.421 428.92 234.009 428.92 237.205C428.92 240.4 431.509 242.988 434.706 242.988C437.903 242.988 440.492 240.398 440.492 237.205Z" stroke="#01133C" stroke-width="1.4847" stroke-miterlimit="10"/>
<path d="M126.548 683.415C126.548 699.602 139.677 712.727 155.874 712.727C172.069 712.727 185.2 699.604 185.2 683.415C185.2 671.162 177.674 660.679 166.996 656.299V556.829C177.799 554.391 187.147 546.638 191.055 535.413C194.855 524.5 192.611 512.952 186.095 504.401L175.442 534.989L140.903 522.973L151.556 492.385C141.136 495.043 132.201 502.703 128.401 513.616C122.873 529.489 130.145 546.685 144.754 554.061V656.299C134.074 660.679 126.548 671.162 126.548 683.415ZM136.461 683.294C136.461 672.58 145.151 663.892 155.872 663.892C166.593 663.892 175.284 672.578 175.284 683.294C175.284 694.01 166.593 702.696 155.872 702.696C145.153 702.696 136.461 694.01 136.461 683.294Z" stroke="#01133C" stroke-width="1.4847" stroke-miterlimit="10"/>
<path d="M662.699 70.509C662.699 54.2632 657.86 38.7142 648.685 25.4178C648.119 24.596 646.973 24.4126 646.164 24.9981L645.873 25.2089C631.789 5.77373 608.917 -6.90591 583.124 -6.90591C557.331 -6.90591 534.459 5.77178 520.375 25.2089L520.084 24.9981C519.275 24.4126 518.129 24.596 517.562 25.4178C508.388 38.7123 503.549 54.2632 503.549 70.509C503.549 89.792 510.487 108.275 523.128 122.762C523.784 123.513 524.94 123.564 525.677 122.892L525.936 122.656C540.11 138.172 560.498 147.924 583.126 147.924C605.752 147.924 626.142 138.172 640.315 122.656L640.575 122.892C641.311 123.564 642.468 123.513 643.122 122.762C655.759 108.275 662.699 89.792 662.699 70.509ZM534.603 114.747L535.003 114.38C535.722 113.724 535.771 112.625 535.134 111.888C528.955 104.736 524.517 96.3738 522.038 87.4067C528.217 83.0715 536.056 81.389 543.694 83.2472L564.515 88.3123C569.208 93.2116 575.803 96.2782 583.126 96.2782C590.449 96.2782 597.042 93.2136 601.737 88.3123L622.556 83.2472C630.194 81.389 638.033 83.0715 644.211 87.4067C641.733 96.3757 637.294 104.736 631.116 111.888C630.479 112.623 630.526 113.724 631.244 114.38L631.647 114.747C619.609 127.926 602.344 136.257 583.126 136.257C563.904 136.257 546.641 127.926 534.603 114.747ZM559.367 9.26767C579.037 7.78617 576.99 34.7928 570.089 48.304C566.587 50.3633 563.617 53.215 561.426 56.627C539.653 65.9474 528.09 61.171 521.841 54.4252C523.657 47.4822 526.614 40.877 530.727 34.8592C531.275 34.057 531.104 32.9697 530.315 32.3998L529.865 32.0758C537.249 21.8809 547.461 13.8996 559.367 9.26767ZM636.38 32.0738L635.931 32.3998C635.142 32.9697 634.971 34.057 635.519 34.8592C639.63 40.877 642.589 47.4822 644.403 54.4252C638.156 61.171 626.593 65.9474 604.82 56.627C602.629 53.215 599.661 50.3633 596.157 48.304C589.258 34.7928 587.211 7.78617 606.881 9.26767C618.785 13.8996 628.997 21.8809 636.38 32.0738Z" stroke="#01133C" stroke-width="1.4847" stroke-miterlimit="10"/>
<path d="M583.123 53.5318C573.742 53.5318 566.137 61.133 566.137 70.5096C566.137 79.8861 573.742 87.4873 583.123 87.4873C592.504 87.4873 600.109 79.8861 600.109 70.5096C600.109 61.133 592.504 53.5318 583.123 53.5318Z" stroke="#01133C" stroke-width="1.4847" stroke-miterlimit="10"/>
<path d="M592.738 70.5079C592.738 75.8093 588.424 80.1211 583.12 80.1211C577.816 80.1211 573.503 75.8093 573.503 70.5079C573.503 65.2085 577.816 60.8947 583.12 60.8947C588.424 60.8967 592.738 65.2085 592.738 70.5079Z" stroke="#01133C" stroke-width="1.4847" stroke-miterlimit="10"/>
<path d="M599.746 446.182H571.867C571.488 446.182 571.18 446.488 571.18 446.869V455.539C571.18 455.918 571.486 456.227 571.867 456.227H599.746C600.125 456.227 600.434 455.92 600.434 455.539V446.871C600.434 446.488 600.125 446.182 599.746 446.182Z" stroke="#01133C" stroke-width="1.4847" stroke-miterlimit="10"/>
<path d="M676.875 376.872V327.842C676.875 320.901 671.245 315.273 664.301 315.273H571.375C564.431 315.273 558.801 320.901 558.801 327.842V334.185C558.801 336.155 559.584 338.044 560.976 339.436L563.935 342.393C564.347 342.805 564.58 343.363 564.58 343.947V348.454C563.367 348.692 562.451 349.76 562.451 351.042V354.811C562.451 356.094 563.365 357.161 564.58 357.399V359.115C563.367 359.353 562.451 360.421 562.451 361.703V365.473C562.451 366.755 563.365 367.823 564.58 368.061V369.777C563.367 370.015 562.451 371.082 562.451 372.365V376.134C562.451 377.416 563.365 378.484 564.58 378.722V380.438C563.367 380.676 562.451 381.744 562.451 383.026V386.795C562.451 388.078 563.365 389.145 564.58 389.384V391.099C563.367 391.337 562.451 392.405 562.451 393.688V397.457C562.451 398.739 563.365 399.807 564.58 400.045V402.645C564.58 403.711 564.156 404.733 563.402 405.489L561.988 406.902C560.596 408.296 559.813 410.183 559.813 412.153V426.829C559.813 430.901 561.787 434.721 565.109 437.079C567.235 438.587 569.78 439.397 572.387 439.397H612.456C617.703 439.397 622.747 437.373 626.538 433.745L670.598 391.566C674.608 387.73 676.875 382.421 676.875 376.872ZM647.584 390.281L611.78 426.068C611.171 426.677 610.339 427.009 609.48 426.987C607.773 426.946 606.41 425.551 606.41 423.843V388.056C606.41 386.319 607.818 384.912 609.556 384.912H645.36C648.162 384.912 649.566 388.3 647.584 390.281Z" stroke="#01133C" stroke-width="1.4847" stroke-miterlimit="10"/>
<path d="M649.939 334.292H585.741C579.521 334.292 574.48 339.332 574.48 345.547V362.702C574.48 368.919 579.523 373.957 585.743 373.957H649.939C656.159 373.957 661.199 368.917 661.199 362.702V345.549C661.199 339.332 656.159 334.292 649.939 334.292Z" stroke="#01133C" stroke-width="1.4847" stroke-miterlimit="10"/>
<path d="M594.981 383.872H580.608C577.597 383.872 575.156 386.312 575.156 389.322V421.54C575.156 424.55 577.597 426.99 580.608 426.99H594.981C597.993 426.99 600.434 424.55 600.434 421.54V389.322C600.434 386.312 597.993 383.872 594.981 383.872Z" stroke="#01133C" stroke-width="1.4847" stroke-miterlimit="10"/>
<path d="M276.578 602.557L259.653 573.257H225.804L208.878 602.557L225.804 631.857H259.653L276.578 602.557ZM259.778 602.557C259.778 611.967 252.146 619.597 242.729 619.597C233.314 619.597 225.681 611.969 225.681 602.557C225.681 593.147 233.312 585.517 242.729 585.517C252.144 585.517 259.778 593.145 259.778 602.557Z" stroke="#01133C" stroke-width="1.4847" stroke-miterlimit="10"/>
<path d="M613.504 549.795C611.923 543.692 609.522 537.935 606.398 532.634L617.547 518.752L596.374 497.589L582.485 508.733C577.181 505.61 571.422 503.211 565.315 501.63L563.376 483.928H533.435L531.496 501.63C525.391 503.211 519.63 505.61 514.326 508.733L500.437 497.589L479.264 518.752L490.413 532.634C487.289 537.935 484.889 543.694 483.307 549.795L465.598 551.732V581.66L483.307 583.598C484.891 589.7 487.289 595.458 490.413 600.76L479.264 614.642L500.437 635.804L514.326 624.661C519.63 627.784 525.391 630.183 531.496 631.764L533.435 649.464H563.376L565.315 631.764C571.422 630.183 577.181 627.784 582.485 624.661L596.374 635.804L617.547 614.642L606.398 600.76C609.522 595.458 611.923 589.7 613.504 583.598L631.215 581.66V551.732L613.504 549.795ZM602.361 566.697C602.361 596.481 578.204 620.624 548.406 620.624C518.607 620.624 494.452 596.479 494.452 566.697C494.452 536.913 518.609 512.769 548.406 512.769C578.204 512.769 602.361 536.913 602.361 566.697Z" stroke="#01133C" stroke-width="1.4847" stroke-miterlimit="10" stroke-dasharray="4.32 4.32"/>
<path d="M254.422 171.058C252.84 164.954 250.44 159.198 247.316 153.897L258.465 140.015L237.292 118.852L223.403 129.995C218.099 126.872 212.34 124.474 206.233 122.892L204.294 105.191H174.353L172.414 122.892C166.309 124.474 160.548 126.872 155.244 129.995L141.355 118.852L120.182 140.015L131.331 153.897C128.207 159.198 125.807 164.956 124.225 171.058L106.516 172.994V202.923L124.225 204.861C125.809 210.963 128.207 216.721 131.331 222.022L120.182 235.904L141.355 257.067L155.244 245.924C160.548 249.047 166.309 251.446 172.414 253.027L174.353 270.727H204.294L206.233 253.027C212.34 251.446 218.099 249.047 223.403 245.924L237.292 257.067L258.465 235.904L247.316 222.022C250.44 216.721 252.84 210.963 254.422 204.861L272.133 202.923V172.994L254.422 171.058ZM243.279 187.96C243.279 217.744 219.122 241.887 189.324 241.887C159.525 241.887 135.37 217.742 135.37 187.96C135.37 158.175 159.527 134.032 189.324 134.032C219.122 134.032 243.279 158.175 243.279 187.96Z" stroke="#01133C" stroke-width="1.4847" stroke-miterlimit="10" stroke-dasharray="4.32 4.32"/>
<path d="M490.25 87.4881L479.564 68.9897H458.194L447.508 87.4881L458.194 105.986H479.564L490.25 87.4881ZM479.642 87.4881C479.642 93.4297 474.822 98.247 468.88 98.247C462.937 98.247 458.116 93.4297 458.116 87.4881C458.116 81.5464 462.935 76.7291 468.88 76.7291C474.824 76.7291 479.642 81.5464 479.642 87.4881Z" stroke="#01133C" stroke-width="1.4847" stroke-miterlimit="10"/>
<path d="M255.125 87.0857L244.439 68.5874H223.069L212.383 87.0857L223.069 105.584H244.439L255.125 87.0857ZM244.517 87.0857C244.517 93.0273 239.697 97.8447 233.755 97.8447C227.812 97.8447 222.991 93.0273 222.991 87.0857C222.991 81.1441 227.81 76.3267 233.755 76.3267C239.699 76.3267 244.517 81.1441 244.517 87.0857Z" stroke="#01133C" stroke-width="1.4847" stroke-miterlimit="10"/>
<path d="M437.246 377.799L433.083 370.593H424.758L420.594 377.799L424.758 385.006H433.083L437.246 377.799Z" stroke="#01133C" stroke-width="1.4847" stroke-miterlimit="10"/>
<path d="M158.746 43.3297L154.583 36.1232H146.258L142.094 43.3297L146.258 50.5361H154.583L158.746 43.3297Z" stroke="#01133C" stroke-width="1.4847" stroke-miterlimit="10"/>
<path d="M428.922 557.004L424.758 549.798H416.433L412.27 557.004L416.433 564.211H424.758L428.922 557.004Z" stroke="#01133C" stroke-width="1.4847" stroke-miterlimit="10"/>
<path d="M567.129 170.983L562.965 163.777H554.64L550.477 170.983L554.64 178.189H562.965L567.129 170.983Z" stroke="#01133C" stroke-width="1.4847" stroke-miterlimit="10"/>
<path d="M234.008 513.828L229.844 506.621H221.519L217.356 513.828L221.519 521.034H229.844L234.008 513.828Z" stroke="#01133C" stroke-width="1.4847" stroke-miterlimit="10"/>
<path d="M124.84 608.7L114.154 590.202H92.7836L82.0975 608.7L92.7836 627.198H114.154L124.84 608.7ZM114.234 608.7C114.234 614.642 109.414 619.459 103.47 619.459C97.5252 619.459 92.7054 614.642 92.7054 608.7C92.7054 602.758 97.5252 597.941 103.47 597.941C109.414 597.941 114.234 602.758 114.234 608.7Z" stroke="#01133C" stroke-width="1.4847" stroke-miterlimit="10"/>
<path d="M417.36 78.9186C417.128 78.1554 416.823 77.4254 416.454 76.7344L419.178 73.0804L415.042 68.9462L411.384 71.6692C410.693 71.3003 409.961 70.9957 409.199 70.7634L408.539 66.2545H402.69L402.03 70.7634C401.266 70.9957 400.536 71.3003 399.845 71.6692L396.187 68.9462L392.051 73.0804L394.775 76.7344C394.406 77.4254 394.101 78.1573 393.869 78.9186L389.358 79.5783V85.4243L393.869 86.084C394.101 86.8472 394.406 87.5773 394.775 88.2682L392.051 91.9222L396.187 96.0564L399.845 93.3335C400.536 93.7024 401.268 94.0069 402.03 94.2391L402.69 98.748H408.539L409.199 94.2391C409.963 94.0069 410.693 93.7024 411.384 93.3335L415.042 96.0564L419.178 91.9222L416.454 88.2682C416.823 87.5773 417.128 86.8453 417.36 86.084L421.871 85.4243V79.5783L417.36 78.9186ZM413.821 82.5003C413.821 87.0307 410.148 90.7023 405.615 90.7023C401.083 90.7023 397.41 87.0307 397.41 82.5003C397.41 77.9699 401.083 74.2984 405.615 74.2984C410.148 74.2984 413.821 77.9699 413.821 82.5003Z" stroke="#01133C" stroke-width="1.4847" stroke-miterlimit="10"/>
<path d="M321.126 319.593C320.893 318.83 320.589 318.1 320.219 317.409L322.944 313.755L318.808 309.621L315.15 312.344C314.459 311.975 313.726 311.67 312.965 311.438L312.304 306.929H306.456L305.796 311.438C305.032 311.67 304.302 311.975 303.61 312.344L299.955 309.621L295.818 313.755L298.543 317.409C298.174 318.1 297.869 318.832 297.637 319.593L293.125 320.253V326.099L297.637 326.759C297.869 327.522 298.174 328.252 298.543 328.943L295.818 332.599L299.955 336.733L303.61 334.01C304.302 334.379 305.034 334.683 305.796 334.916L306.456 339.425H312.304L312.965 334.916C313.728 334.683 314.459 334.379 315.15 334.01L318.808 336.733L322.944 332.599L320.219 328.943C320.589 328.252 320.893 327.52 321.126 326.759L325.637 326.099V320.253L321.126 319.593ZM317.585 323.175C317.585 327.705 313.912 331.377 309.379 331.377C304.847 331.377 301.173 327.705 301.173 323.175C301.173 318.644 304.847 314.973 309.379 314.973C313.912 314.973 317.585 318.644 317.585 323.175Z" stroke="#01133C" stroke-width="1.4847" stroke-miterlimit="10"/>
<path d="M467.309 497.446C467.309 492.369 463.19 488.252 458.111 488.252C453.031 488.252 448.913 492.369 448.913 497.446C448.913 505.548 458.111 512.099 458.111 512.099C458.111 512.099 467.309 505.55 467.309 497.446Z" stroke="#01133C" stroke-width="1.4847" stroke-miterlimit="10"/>
<path d="M542.344 350.598C542.344 345.521 538.225 341.404 533.146 341.404C528.066 341.404 523.948 345.521 523.948 350.598C523.948 358.7 533.146 365.251 533.146 365.251C533.146 365.251 542.344 358.7 542.344 350.598Z" stroke="#01133C" stroke-width="1.4847" stroke-miterlimit="10"/>
<path d="M487.145 375.295C461.74 375.295 441.145 395.88 441.145 421.273C441.145 446.665 461.74 467.25 487.145 467.25C512.55 467.25 533.145 446.665 533.145 421.273C533.145 395.88 512.55 375.295 487.145 375.295Z" stroke="#01133C" stroke-width="1.4847" stroke-miterlimit="10" stroke-dasharray="4.32 4.32"/>
<path d="M318.465 23.3431C293.06 23.3431 272.465 43.9279 272.465 69.3205C272.465 94.7131 293.06 115.298 318.465 115.298C343.87 115.298 364.465 94.7131 364.465 69.3205C364.465 43.9279 343.87 23.3431 318.465 23.3431Z" stroke="#01133C" stroke-width="1.4847" stroke-miterlimit="10" stroke-dasharray="4.32 4.32"/>
<path d="M478.643 384.994C458.598 389.684 446.151 409.728 450.843 429.764C455.534 449.8 475.588 462.24 495.634 457.551C515.679 452.861 528.126 432.817 523.434 412.782C518.743 392.746 498.689 380.305 478.643 384.994Z" stroke="#01133C" stroke-width="1.4847" stroke-miterlimit="10"/>
<path d="M309.964 33.042C289.918 37.7316 277.471 57.7755 282.163 77.8114C286.855 97.8474 306.908 110.288 326.954 105.599C347 100.909 359.447 80.8651 354.755 60.8292C350.063 40.7932 330.009 28.3525 309.964 33.042Z" stroke="#01133C" stroke-width="1.4847" stroke-miterlimit="10"/>
<path d="M144.977 9.05831V-39.9718C144.977 -46.9129 139.346 -52.5402 132.402 -52.5402H39.477C32.5326 -52.5402 26.9025 -46.9129 26.9025 -39.9718V-33.6281C26.9025 -31.6586 27.6856 -29.7692 29.078 -28.3775L32.0366 -25.4203C32.4487 -25.0085 32.6811 -24.4502 32.6811 -23.8666V-19.3596C31.4683 -19.1215 30.5524 -18.0538 30.5524 -16.7714V-13.0022C30.5524 -11.7198 31.4664 -10.6521 32.6811 -10.414V-8.69826C31.4683 -8.46013 30.5524 -7.39242 30.5524 -6.11001V-2.34087C30.5524 -1.05846 31.4664 0.00923113 32.6811 0.247365V1.96309C31.4683 2.20123 30.5524 3.26893 30.5524 4.55134V8.32049C30.5524 9.60289 31.4664 10.6706 32.6811 10.9087V12.6245C31.4683 12.8626 30.5524 13.9303 30.5524 15.2127V18.9818C30.5524 20.2642 31.4664 21.332 32.6811 21.5701V23.2858C31.4683 23.5239 30.5524 24.5916 30.5524 25.874V29.6432C30.5524 30.9256 31.4664 31.9933 32.6811 32.2314V34.8314C32.6811 35.8971 32.2573 36.9199 31.5035 37.6753L30.0896 39.0885C28.6972 40.4822 27.9141 42.3697 27.9141 44.3392V59.0156C27.9141 63.0873 29.8885 66.9072 33.2103 69.2651C35.337 70.7739 37.8815 71.584 40.4886 71.584H80.5575C85.8048 71.584 90.849 69.5599 94.6396 65.9312L138.7 23.7523C142.709 19.9168 144.977 14.6076 144.977 9.05831ZM115.686 22.468L79.8818 58.2544C79.2725 58.8634 78.4406 59.1952 77.5813 59.1737C75.8745 59.1327 74.5114 57.7371 74.5114 56.0292V20.2428C74.5114 18.5056 75.9194 17.0983 77.6575 17.0983H113.461C116.264 17.0983 117.668 20.4868 115.686 22.468Z" stroke="#01133C" stroke-width="1.4847" stroke-miterlimit="10"/>
<path d="M118.041 -33.5223H53.8421C47.6223 -33.5223 42.5819 -28.4825 42.5819 -22.2676V-5.11218C42.5819 1.10467 47.6242 6.14258 53.8441 6.14258H118.041C124.26 6.14258 129.301 1.10272 129.301 -5.11218V-22.2656C129.301 -28.4824 124.26 -33.5223 118.041 -33.5223Z" stroke="#01133C" stroke-width="1.4847" stroke-miterlimit="10"/>
<path d="M63.0789 16.058H48.7058C45.6945 16.058 43.2534 18.4979 43.2534 21.5077V53.726C43.2534 56.7359 45.6945 59.1758 48.7058 59.1758H63.0789C66.0902 59.1758 68.5312 56.7359 68.5312 53.726V21.5077C68.5312 18.4979 66.0902 16.058 63.0789 16.058Z" stroke="#01133C" stroke-width="1.4847" stroke-miterlimit="10"/>
</g>
<defs>
<clipPath id="clip0_1_24523">
<rect width="588" height="600" fill="white" transform="matrix(-1 0 0 -1 588 600.346)"/>
</clipPath>
</defs>
</svg>
