<svg width="173" height="173" viewBox="0 0 173 173" fill="none" xmlns="http://www.w3.org/2000/svg">
<path d="M123.685 18.1255L118.945 28.0252L113.548 25.4411C113.018 25.1877 112.595 24.861 112.278 24.4609C111.952 24.0562 111.756 23.6134 111.69 23.1327C111.625 22.6519 111.71 22.1662 111.945 21.6756C112.124 21.3004 112.36 20.9934 112.652 20.7546C112.943 20.5158 113.265 20.3505 113.616 20.2586C113.954 20.1717 114.302 20.1491 114.66 20.1907L114.688 20.1329C114.359 19.8809 114.103 19.5752 113.921 19.2157C113.733 18.8659 113.638 18.4834 113.636 18.0684C113.629 17.663 113.729 17.2438 113.937 16.8109C114.232 16.1951 114.615 15.752 115.088 15.4815C115.55 15.2065 116.061 15.0784 116.62 15.0975C117.164 15.1216 117.72 15.2695 118.288 15.5413L123.685 18.1255ZM121.042 18.8291L117.766 17.2606C117.371 17.0718 116.999 17.0233 116.647 17.1152C116.281 17.2121 115.988 17.4914 115.767 17.9532C115.638 18.2226 115.578 18.4836 115.587 18.7363C115.596 18.9891 115.686 19.2213 115.857 19.4331C116.013 19.6499 116.259 19.8389 116.596 20.0001L119.757 21.5133L121.042 18.8291ZM119.003 23.0863L115.973 21.6353C115.684 21.4971 115.418 21.4348 115.175 21.4485C114.923 21.4576 114.704 21.5305 114.521 21.6673C114.327 21.7994 114.178 21.9761 114.072 22.1974C113.869 22.6207 113.835 22.9886 113.969 23.3012C114.094 23.6092 114.339 23.8507 114.704 24.0258L117.836 25.5251L119.003 23.0863Z" fill="#01133C"/>
<path d="M104.496 10.6027C105.368 10.8082 106.059 11.13 106.57 11.5681C107.078 12.0165 107.402 12.5917 107.544 13.2935C107.685 13.9953 107.641 14.8342 107.411 15.8101C107.179 16.7965 106.844 17.5668 106.406 18.1213C105.966 18.6861 105.42 19.0506 104.768 19.2147C104.113 19.3892 103.35 19.3737 102.478 19.1682C101.689 18.9823 101.065 18.6764 100.606 18.2505C100.135 17.8326 99.8363 17.2856 99.7107 16.6094C99.585 15.9333 99.6372 15.1072 99.8671 14.1313L99.9992 13.5706L105.575 14.8843C105.674 14.3706 105.697 13.9214 105.646 13.5366C105.591 13.1622 105.445 12.8537 105.206 12.6112C104.954 12.3765 104.595 12.2042 104.128 12.0941C103.889 12.0379 103.659 12.0164 103.436 12.0298C103.214 12.0431 103.01 12.0938 102.825 12.1817C102.638 12.28 102.479 12.4179 102.349 12.5956C102.21 12.7709 102.109 12.9883 102.048 13.2478L100.179 12.8075C100.301 12.2884 100.501 11.8588 100.779 11.5187C101.046 11.1761 101.375 10.9194 101.766 10.7485C102.146 10.5751 102.569 10.4775 103.034 10.4557C103.5 10.4338 103.987 10.4829 104.496 10.6027ZM105.228 16.2162L101.662 15.376C101.581 15.7186 101.554 16.0191 101.581 16.2774C101.597 16.5334 101.66 16.7563 101.768 16.9463C101.867 17.1338 102.007 17.282 102.19 17.3908C102.37 17.5099 102.584 17.5988 102.834 17.6575C103.238 17.753 103.597 17.7662 103.909 17.6973C104.211 17.6259 104.467 17.4672 104.679 17.2211C104.89 16.975 105.073 16.6401 105.228 16.2162Z" fill="#01133C"/>
<path d="M88.8234 8.45867C89.4313 8.47276 89.963 8.54911 90.4185 8.68771C90.8739 8.83697 91.2534 9.03249 91.5572 9.27426C91.8611 9.51603 92.0894 9.7934 92.2421 10.1064C92.384 10.4297 92.4506 10.778 92.442 11.1513C92.4407 11.2046 92.4396 11.2526 92.4386 11.2952C92.427 11.3376 92.4209 11.3695 92.4204 11.3908L90.5009 11.3463C90.5014 11.325 90.5019 11.3037 90.5024 11.2823C90.5029 11.261 90.5034 11.2397 90.5039 11.2184C90.4999 10.9302 90.4147 10.6935 90.2483 10.5082C90.0816 10.3337 89.8605 10.2058 89.585 10.1248C89.3095 10.0437 89.0171 9.99957 88.7078 9.9924C88.4306 9.98597 88.1687 10.0066 87.9222 10.0542C87.6648 10.1123 87.4546 10.2034 87.2917 10.3277C87.1178 10.4623 87.0285 10.6363 87.0235 10.8496C87.0171 11.1268 87.1188 11.3426 87.3286 11.4968C87.5384 11.6511 87.8181 11.7803 88.1678 11.8844C88.5068 11.9883 88.8724 12.0981 89.2645 12.2139C89.6142 12.318 89.9636 12.4328 90.3128 12.5583C90.662 12.6838 90.9784 12.8405 91.2621 13.0284C91.5352 13.2161 91.759 13.4561 91.9336 13.7482C92.0976 14.0401 92.1746 14.3993 92.1647 14.8258C92.1551 15.2417 92.056 15.6022 91.8676 15.9072C91.6791 16.2123 91.4226 16.4624 91.098 16.6576C90.7731 16.8635 90.3908 17.0146 89.9511 17.1111C89.5115 17.2076 89.0357 17.2499 88.5238 17.2381C88.0226 17.2265 87.5706 17.1626 87.1679 17.0466C86.7545 16.9303 86.4008 16.7674 86.1069 16.5579C85.8021 16.3588 85.5731 16.1134 85.4198 15.8217C85.2556 15.5405 85.1775 15.2293 85.1854 14.8881C85.1871 14.8134 85.1942 14.7389 85.2066 14.6645C85.2083 14.5898 85.2093 14.5472 85.2096 14.5365L87.113 14.5807L87.1104 14.6926C87.1057 14.8952 87.1658 15.0673 87.2905 15.2089C87.4044 15.361 87.5776 15.4823 87.8102 15.5731C88.0322 15.6636 88.3138 15.7128 88.655 15.7207C88.911 15.7266 89.1354 15.7105 89.3283 15.6723C89.5213 15.6341 89.6826 15.5792 89.8123 15.5075C89.9313 15.4356 90.0239 15.3523 90.0901 15.2579C90.1564 15.1634 90.1908 15.0575 90.1935 14.9402C90.1982 14.7376 90.122 14.5757 89.9647 14.4547C89.8075 14.3337 89.5966 14.2275 89.3319 14.136C89.0567 14.0442 88.7602 13.9467 88.4425 13.8433C88.0611 13.7277 87.6691 13.6066 87.2666 13.4799C86.8638 13.3639 86.4938 13.2166 86.1565 13.0381C85.8086 12.8593 85.5316 12.6128 85.3255 12.2986C85.1194 11.9844 85.0222 11.5714 85.0341 11.0595C85.0455 10.569 85.1512 10.15 85.3513 9.80254C85.5405 9.4655 85.8082 9.1943 86.1544 8.98894C86.4897 8.79399 86.8877 8.65385 87.3485 8.5685C87.7986 8.48292 88.2902 8.4463 88.8234 8.45867Z" fill="#01133C"/>
<path d="M73.7483 9.3981C74.2621 9.30194 74.6844 9.32599 75.0152 9.47026C75.348 9.625 75.6068 9.84787 75.7915 10.1389C75.9676 10.4423 76.0871 10.7618 76.1499 11.0973L77.0506 15.9097L78.0414 15.7243L78.3358 17.297L77.2978 17.4912L77.3845 19.8678L75.859 20.1534L75.4263 17.8415L73.9952 18.1094L73.7008 16.5367L75.132 16.2688L74.2666 11.6451C74.2253 11.4249 74.1353 11.2627 73.9964 11.1585C73.8595 11.0648 73.6757 11.0395 73.4451 11.0826L72.7059 11.221L72.4586 9.89993C72.5556 9.83837 72.6798 9.77714 72.8312 9.71625C72.9701 9.64684 73.1215 9.58595 73.2853 9.53358C73.4472 9.47073 73.6015 9.42557 73.7483 9.3981Z" fill="#01133C"/>
<path d="M46.8946 19.0945C47.8637 18.5331 48.7933 18.2226 49.6833 18.163C50.5642 18.1088 51.3977 18.3348 52.184 18.8408C52.9664 19.3614 53.6891 20.1939 54.3521 21.3384C55.32 23.0089 55.6304 24.481 55.2834 25.7545C54.9364 27.028 54.0384 28.0845 52.5893 28.9241C51.8048 29.3786 51.0212 29.6538 50.2385 29.7497C49.4466 29.851 48.7083 29.7364 48.0237 29.4057C47.3351 29.0896 46.7502 28.5163 46.269 27.6856L48.1103 26.6188C48.3776 27.0803 48.7037 27.4091 49.0886 27.6053C49.4696 27.816 49.8835 27.9029 50.3305 27.8658C50.7775 27.8288 51.2271 27.6792 51.6793 27.4172C52.307 27.0536 52.7562 26.6269 53.0272 26.1371C53.3035 25.6565 53.4042 25.1174 53.3292 24.5198C53.2449 23.9276 52.9969 23.2761 52.5852 22.5654L52.4087 22.2609C51.9917 21.541 51.5472 20.9972 51.0753 20.6295C50.5942 20.2672 50.0811 20.0837 49.536 20.079C48.9816 20.0797 48.386 20.2645 47.7492 20.6335C47.2692 20.9115 46.8947 21.2333 46.6257 21.5987C46.362 21.9734 46.2241 22.3738 46.2121 22.7999C46.1962 23.2405 46.3219 23.6916 46.5893 24.1531L44.8172 25.1798C44.336 24.3491 44.1222 23.5545 44.1759 22.7961C44.2349 22.0469 44.5053 21.354 44.9871 20.7174C45.465 20.0953 46.1008 19.5544 46.8946 19.0945Z" fill="#01133C"/>
<path d="M35.202 27.4565C35.3753 27.2983 35.5977 27.1384 35.8692 26.977C36.1257 26.815 36.4142 26.6959 36.7348 26.6198C37.0474 26.5508 37.375 26.5694 37.7175 26.6755C38.0673 26.7894 38.4148 27.0354 38.7601 27.4134C39.1486 27.8387 39.3742 28.2755 39.437 28.7238C39.507 29.1799 39.4447 29.6415 39.2499 30.1083C39.0545 30.5902 38.7493 31.0785 38.3343 31.5732C37.9187 32.0829 37.4274 32.5968 36.8604 33.1148L37.3244 33.6228C37.4899 33.8039 37.6649 33.9401 37.8495 34.0315C38.0342 34.1229 38.2373 34.1397 38.4588 34.0817C38.6797 34.0388 38.9359 33.8843 39.2272 33.6181C39.5186 33.3519 39.7146 33.1079 39.8153 32.8859C39.9159 32.6639 39.9509 32.473 39.9204 32.3131C39.8899 32.1531 39.8243 32.018 39.7236 31.9078L39.5725 31.7424L40.9664 30.469C41.0102 30.5012 41.0501 30.537 41.0861 30.5763C41.1221 30.6157 41.1652 30.663 41.2156 30.7181C41.5394 31.0725 41.7136 31.4767 41.7384 31.9309C41.7632 32.385 41.6477 32.8517 41.392 33.3309C41.1435 33.8179 40.7712 34.2881 40.275 34.7414C39.708 35.2594 39.1715 35.6051 38.6653 35.7785C38.1513 35.9591 37.6706 35.9865 37.2233 35.8606C36.776 35.7347 36.3617 35.463 35.9804 35.0456L33.3041 32.1161C33.1674 31.9664 33.0269 31.8997 32.8827 31.9158C32.7386 31.932 32.6153 31.9868 32.5129 32.0803L32.1349 32.4256L31.2284 31.4334C31.2784 31.3299 31.3602 31.1902 31.4738 31.0141C31.5803 30.8302 31.7438 30.6375 31.9643 30.436C32.1691 30.249 32.3865 30.1153 32.6166 30.0351C32.8317 29.9542 33.0519 29.9264 33.2773 29.9517C33.5026 29.977 33.7181 30.0547 33.9236 30.1848L33.9945 30.12C33.9773 29.8324 34.002 29.5352 34.0687 29.2287C34.1347 28.9372 34.2614 28.6409 34.4486 28.3398C34.628 28.0459 34.8791 27.7515 35.202 27.4565ZM35.8441 29.0371C35.6079 29.2529 35.4315 29.479 35.3152 29.7154C35.1909 29.9589 35.1273 30.1976 35.1242 30.4316C35.1134 30.6727 35.1591 30.9126 35.2616 31.1513C35.3562 31.3971 35.5006 31.6264 35.6949 31.839L35.9539 32.1225C36.387 31.7268 36.7635 31.3324 37.0832 30.9391C37.3951 30.553 37.593 30.1845 37.6768 29.8334C37.7527 29.4895 37.6648 29.1798 37.413 28.9041C37.2835 28.7624 37.1369 28.6651 36.9732 28.6125C36.8088 28.5748 36.6308 28.5857 36.4394 28.645C36.2473 28.7193 36.0489 28.85 35.8441 29.0371Z" fill="#01133C"/>
<path d="M25.585 37.6258L32.4231 42.5318L31.4718 43.8579L30.2995 43.2137L30.2342 43.3047C30.3887 43.5468 30.5134 43.7939 30.6083 44.0458C30.7057 44.3126 30.7393 44.5861 30.7089 44.8662C30.6872 45.1526 30.5738 45.4388 30.3686 45.7248C30.2691 45.8635 30.166 45.9798 30.0591 46.0738C29.9461 46.1765 29.8548 46.2489 29.7853 46.2909L28.2902 45.2183L28.6353 44.7373C28.8281 44.4686 28.9601 44.2023 29.0313 43.9383C29.1112 43.6806 29.126 43.4221 29.0757 43.1628C29.0192 42.9122 28.8988 42.6683 28.7145 42.4311C28.5303 42.1939 28.2821 41.9633 27.9701 41.7395L24.4471 39.2119L25.585 37.6258Z" fill="#01133C"/>
<path d="M16.796 51.3575L26.8442 55.7742L24.52 61.0619C24.1938 61.8041 23.7964 62.3635 23.3279 62.7401C22.8594 63.1168 22.3371 63.3242 21.7611 63.3623C21.1851 63.4004 20.5797 63.2799 19.945 63.0009C19.2907 62.7133 18.7741 62.3115 18.3951 61.7953C18.0259 61.2835 17.8388 60.6886 17.8338 60.0106L12.8622 60.3071L13.7765 58.2272L18.3228 58.0234L19.6941 54.9035L15.959 53.2617L16.796 51.3575ZM21.2907 55.6052L19.8679 58.8423C19.6533 59.3306 19.6296 59.7688 19.7969 60.1569C19.9642 60.545 20.2968 60.8485 20.7949 61.0675C21.1171 61.2091 21.4114 61.2685 21.6777 61.2458C21.9538 61.2273 22.1998 61.1316 22.4157 60.9585C22.6316 60.7854 22.8125 60.5328 22.9585 60.2008L24.3813 56.9637L21.2907 55.6052Z" fill="#01133C"/>
<path d="M10.1983 69.8184C10.3754 68.94 10.6746 68.2387 11.096 67.7143C11.5277 67.192 12.092 66.8488 12.7889 66.6846C13.4858 66.5205 14.3256 66.5375 15.3085 66.7357C16.3019 66.936 17.0827 67.2458 17.651 67.6651C18.2298 68.0864 18.6118 68.6205 18.7969 69.2672C18.9926 69.916 19.0018 70.6795 18.8247 71.5579C18.6644 72.3525 18.3789 72.9859 17.9682 73.458C17.5658 73.9427 17.0287 74.2588 16.357 74.4063C15.6852 74.5537 14.8579 74.5284 13.875 74.3302L13.3104 74.2163L14.4426 68.6013C13.9261 68.5189 13.4763 68.5098 13.0934 68.5741C12.7209 68.6404 12.4174 68.7968 12.1827 69.0433C11.9563 69.3024 11.7957 69.6671 11.7009 70.1377C11.6524 70.3782 11.6384 70.6093 11.659 70.8311C11.6795 71.0528 11.7367 71.2548 11.8306 71.437C11.9349 71.6212 12.0779 71.7752 12.2597 71.8989C12.4394 72.0331 12.66 72.1265 12.9214 72.1792L12.5419 74.0613C12.0191 73.9559 11.5832 73.7701 11.2343 73.5039C10.8832 73.2481 10.616 72.9276 10.4325 72.5424C10.2469 72.1677 10.1357 71.7481 10.0987 71.2836C10.0618 70.8191 10.095 70.3307 10.1983 69.8184ZM15.7852 68.9047L15.0609 72.4964C15.406 72.566 15.7072 72.5832 15.9645 72.548C16.2198 72.5233 16.4406 72.4536 16.627 72.3388C16.8112 72.2345 16.9547 72.0894 17.0575 71.9034C17.1708 71.7195 17.2527 71.502 17.3033 71.2511C17.3855 70.8433 17.3872 70.4845 17.3082 70.1748C17.227 69.8755 17.0601 69.6242 16.8073 69.4209C16.5545 69.2176 16.2138 69.0455 15.7852 68.9047Z" fill="#01133C"/>
<path d="M5.77728 83.45L16.9562 83.114L17.0048 84.7293L15.8901 84.9228L15.8935 85.0348C16.3389 85.2989 16.675 85.6516 16.9017 86.093C17.1391 86.534 17.2659 87.0265 17.2823 87.5702C17.3031 88.2632 17.1663 88.8596 16.8718 89.3593C16.5777 89.8698 16.1095 90.268 15.4671 90.5541C14.8251 90.8509 13.9923 91.0146 12.9687 91.0454C11.9665 91.0755 11.1361 90.9617 10.4773 90.7041C9.81864 90.4464 9.32732 90.077 9.00339 89.5959C8.67977 89.1254 8.50851 88.5756 8.4896 87.9466C8.47806 87.5627 8.51013 87.2096 8.58581 86.8872C8.6615 86.5648 8.78094 86.2784 8.94416 86.028C9.11804 85.7774 9.33036 85.5629 9.58112 85.3846L9.57823 85.2887L5.83592 85.4011L5.77728 83.45ZM10.1472 87.1764C10.1616 87.6562 10.2636 88.032 10.4532 88.3037C10.6538 88.5858 10.9477 88.7797 11.3351 88.8855C11.7228 89.0019 12.2098 89.0513 12.7962 89.0337L13.0201 89.0269C13.6172 89.009 14.1057 88.9303 14.4857 88.7908C14.8766 88.6616 15.1584 88.4504 15.331 88.1571C15.5146 87.8741 15.5992 87.4927 15.5848 87.013C15.5716 86.5758 15.4594 86.2164 15.2482 85.9346C15.0373 85.6635 14.7325 85.4645 14.3339 85.3378C13.9462 85.2214 13.4698 85.1717 12.9047 85.1887L12.7128 85.1944C12.297 85.2069 11.925 85.2555 11.5967 85.34C11.2791 85.4243 11.0106 85.5444 10.7912 85.7004C10.5721 85.8671 10.4074 86.0694 10.2972 86.3075C10.1873 86.5563 10.1373 86.8459 10.1472 87.1764Z" fill="#01133C"/>
<path d="M10.431 103.703C10.3709 103.477 10.3321 103.205 10.3148 102.89C10.2898 102.588 10.3178 102.277 10.3986 101.957C10.4822 101.648 10.6503 101.367 10.9029 101.112C11.1657 100.855 11.5446 100.661 12.0395 100.529C12.5963 100.382 13.0879 100.384 13.5144 100.536C13.9512 100.685 14.3314 100.954 14.6551 101.342C14.9919 101.739 15.2835 102.235 15.53 102.832C15.7894 103.436 16.0176 104.11 16.2143 104.852L16.8794 104.676C17.1165 104.613 17.3183 104.521 17.4848 104.4C17.6512 104.278 17.7601 104.106 17.8112 103.883C17.8755 103.667 17.857 103.368 17.7559 102.987C17.6548 102.605 17.5292 102.319 17.379 102.127C17.2288 101.935 17.0758 101.815 16.9199 101.768C16.764 101.721 16.6138 101.717 16.4695 101.755L16.253 101.813L15.7693 99.9878C15.8181 99.9638 15.8683 99.945 15.9198 99.9313C15.9714 99.9177 16.0332 99.9013 16.1054 99.8822C16.5694 99.7592 17.0084 99.7918 17.4224 99.98C17.8365 100.168 18.1967 100.487 18.5032 100.935C18.8199 101.381 19.0644 101.928 19.2366 102.578C19.4333 103.32 19.4914 103.956 19.4109 104.485C19.3332 105.024 19.1349 105.463 18.8163 105.801C18.4977 106.139 18.0651 106.381 17.5186 106.526L13.6831 107.542C13.4872 107.594 13.363 107.688 13.3106 107.823C13.2581 107.958 13.2497 108.093 13.2852 108.227L13.4164 108.722L12.1172 109.066C12.0487 108.974 11.9627 108.837 11.8592 108.655C11.7454 108.475 11.6502 108.241 11.5737 107.952C11.5027 107.684 11.4849 107.43 11.5203 107.189C11.5481 106.961 11.6254 106.753 11.7521 106.564C11.8788 106.376 12.0474 106.221 12.2578 106.099L12.2332 106.007C11.9702 105.889 11.7183 105.729 11.4774 105.528C11.2496 105.335 11.0456 105.085 10.8653 104.78C10.6878 104.485 10.5431 104.126 10.431 103.703ZM12.1293 103.866C12.2113 104.175 12.3301 104.436 12.4857 104.649C12.6441 104.871 12.8263 105.038 13.0322 105.149C13.2409 105.271 13.4748 105.341 13.7338 105.361C13.9955 105.391 14.2656 105.369 14.544 105.295L14.9152 105.196C14.7649 104.629 14.5894 104.113 14.3888 103.648C14.1909 103.192 13.9558 102.846 13.6834 102.61C13.4137 102.383 13.0984 102.318 12.7375 102.413C12.5519 102.463 12.3979 102.548 12.2754 102.668C12.166 102.797 12.0932 102.959 12.0572 103.157C12.0342 103.361 12.0582 103.598 12.1293 103.866Z" fill="#01133C"/>
<path d="M23.9411 113.465L25.5864 112.606L26.4898 114.336L24.8446 115.195L23.9411 113.465ZM15.3319 117.96L22.7923 114.065L23.6957 115.795L16.2353 119.69L15.3319 117.96Z" fill="#01133C"/>
<path d="M24.068 132.828L30.4493 127.341L31.5133 128.579L30.6107 129.566L30.6837 129.651C30.9554 129.558 31.2249 129.495 31.4921 129.462C31.7744 129.43 32.0481 129.462 32.3131 129.558C32.5863 129.647 32.8377 129.824 33.0672 130.091C33.1784 130.221 33.2672 130.348 33.3333 130.474C33.4064 130.608 33.4552 130.714 33.4796 130.792L32.0844 131.991L31.6985 131.542C31.4829 131.292 31.2552 131.101 31.0155 130.969C30.7839 130.831 30.5362 130.755 30.2724 130.743C30.0155 130.739 29.7501 130.798 29.4761 130.921C29.2021 131.044 28.9195 131.231 28.6284 131.481L25.3407 134.308L24.068 132.828Z" fill="#01133C"/>
<path d="M39.2243 148.089C38.7361 147.727 38.3459 147.357 38.0539 146.981C37.7683 146.597 37.5712 146.218 37.4626 145.845C37.3541 145.472 37.3278 145.114 37.3837 144.77C37.4545 144.424 37.6011 144.101 37.8236 143.802C37.8554 143.759 37.884 143.72 37.9095 143.686C37.9435 143.658 37.9668 143.636 37.9795 143.618L39.5213 144.763C39.5086 144.78 39.4958 144.797 39.4831 144.814C39.4704 144.831 39.4577 144.848 39.445 144.866C39.2819 145.103 39.2148 145.346 39.2438 145.593C39.2791 145.832 39.3859 146.064 39.5641 146.289C39.7423 146.514 39.9556 146.719 40.204 146.903C40.4267 147.069 40.6524 147.203 40.8812 147.306C41.1249 147.408 41.3491 147.454 41.5539 147.447C41.7736 147.437 41.947 147.347 42.0742 147.176C42.2394 146.953 42.2809 146.718 42.1986 146.471C42.1163 146.224 41.9625 145.957 41.737 145.67C41.5202 145.39 41.2851 145.089 41.0317 144.768C40.8063 144.481 40.5872 144.186 40.3745 143.882C40.1618 143.578 39.9938 143.267 39.8706 142.95C39.756 142.639 39.7117 142.314 39.7377 141.974C39.7724 141.641 39.9168 141.304 40.1711 140.961C40.419 140.627 40.708 140.39 41.038 140.25C41.3679 140.109 41.7218 140.053 42.0995 140.081C42.4836 140.1 42.883 140.198 43.2978 140.373C43.7125 140.548 44.1255 140.788 44.5366 141.093C44.9392 141.392 45.2714 141.705 45.5333 142.032C45.8038 142.365 45.9985 142.703 46.1176 143.043C46.2515 143.382 46.2969 143.715 46.2538 144.041C46.2255 144.366 46.1097 144.665 45.9062 144.939C45.8617 144.999 45.8129 145.056 45.7599 145.109C45.7154 145.169 45.6899 145.203 45.6836 145.212L44.1547 144.077L44.2215 143.987C44.3422 143.825 44.3926 143.649 44.3724 143.462C44.3672 143.272 44.2958 143.073 44.1582 142.864C44.0292 142.662 43.8277 142.46 43.5536 142.256C43.348 142.104 43.1555 141.987 42.9759 141.907C42.7963 141.827 42.6328 141.779 42.4855 141.762C42.3468 141.752 42.2231 141.767 42.1145 141.806C42.0059 141.845 41.9167 141.911 41.8467 142.006C41.7259 142.168 41.6948 142.344 41.7534 142.534C41.8119 142.724 41.9228 142.932 42.0861 143.16C42.2579 143.393 42.4437 143.644 42.6435 143.912C42.8882 144.226 43.1384 144.552 43.3939 144.887C43.6558 145.215 43.873 145.548 44.0454 145.889C44.2263 146.236 44.3102 146.597 44.2972 146.973C44.2841 147.348 44.125 147.741 43.8199 148.153C43.5274 148.547 43.1992 148.828 42.8352 148.996C42.4862 149.162 42.1111 149.229 41.7098 149.197C41.3235 149.162 40.9176 149.047 40.4921 148.851C40.0751 148.661 39.6525 148.407 39.2243 148.089Z" fill="#01133C"/>
<path d="M63.931 160.635C62.8401 160.3 61.9566 159.816 61.2806 159.184C60.6077 158.542 60.181 157.752 60.0005 156.815C59.8303 155.881 59.9334 154.802 60.3097 153.579C60.6892 152.345 61.2103 151.395 61.8729 150.728C62.5488 150.055 63.344 149.646 64.2584 149.504C65.176 149.351 66.1802 149.442 67.2711 149.777C68.3721 150.116 69.254 150.605 69.9168 151.244C70.5928 151.876 71.0159 152.659 71.1862 153.593C71.3698 154.52 71.2718 155.6 70.8923 156.834C70.516 158.058 69.9898 159.006 69.3138 159.68C68.6481 160.357 67.8564 160.772 66.9389 160.925C66.0347 161.07 65.032 160.974 63.931 160.635ZM64.4484 158.953C64.9786 159.116 65.466 159.182 65.9106 159.152C66.3655 159.124 66.776 159.005 67.1423 158.794C67.5116 158.573 67.8351 158.265 68.1127 157.871C68.3934 157.466 68.6232 156.973 68.8019 156.392L68.9054 156.056C69.0873 155.464 69.1759 154.922 69.1712 154.43C69.1664 153.937 69.0719 153.501 68.8876 153.121C68.7064 152.73 68.4354 152.396 68.0747 152.117C67.7241 151.842 67.2837 151.623 66.7536 151.46C66.2234 151.297 65.7309 151.229 65.2761 151.256C64.8314 151.287 64.4244 151.413 64.0551 151.634C63.6888 151.845 63.3654 152.153 63.0846 152.557C62.8141 152.965 62.5879 153.465 62.406 154.056L62.3025 154.393C62.1237 154.974 62.0316 155.509 62.0262 155.998C62.034 156.481 62.1286 156.917 62.3097 157.308C62.4941 157.688 62.7615 158.016 63.1121 158.291C63.4728 158.569 63.9183 158.79 64.4484 158.953Z" fill="#01133C"/>
<path d="M76.0746 163.126L76.6416 156.333L75.4299 156.232L75.563 154.638L76.7747 154.739L76.8639 153.67C76.895 153.298 76.9827 152.953 77.1272 152.633C77.2831 152.303 77.5241 152.045 77.8501 151.858C78.1761 151.671 78.6155 151.601 79.1682 151.647C79.3277 151.66 79.4862 151.684 79.6439 151.719C79.8122 151.754 79.969 151.8 80.1142 151.855C80.2604 151.899 80.3848 151.947 80.4876 151.998L80.3745 153.353L79.5772 153.287C79.3434 153.267 79.1574 153.316 79.0191 153.433C78.8925 153.54 78.8194 153.711 78.7998 153.944L78.72 154.901L80.2347 155.028L80.1016 156.622L78.5869 156.496L78.0199 163.288L76.0746 163.126Z" fill="#01133C"/>
<path d="M103.271 164.856C102.889 164.957 102.572 165.007 102.318 165.007C102.067 165.018 101.925 165.022 101.891 165.02L101.538 163.674L102.404 163.446C102.621 163.389 102.823 163.276 103.01 163.105C103.197 162.935 103.352 162.729 103.476 162.487C103.6 162.245 103.672 161.994 103.692 161.735L98.3821 154.428L100.363 153.908L102.904 157.41C103.022 157.566 103.152 157.769 103.295 158.018C103.448 158.265 103.604 158.522 103.762 158.789C103.918 159.046 104.051 159.281 104.162 159.494L104.24 159.474C104.24 159.308 104.241 159.121 104.241 158.911C104.241 158.702 104.24 158.487 104.237 158.267C104.245 158.044 104.254 157.827 104.264 157.615C104.275 157.402 104.282 157.219 104.285 157.063L104.495 152.823L106.414 152.319L105.718 160.757C105.677 161.23 105.61 161.689 105.517 162.133C105.434 162.574 105.303 162.977 105.124 163.344C104.955 163.709 104.716 164.019 104.409 164.276C104.115 164.541 103.735 164.735 103.271 164.856Z" fill="#01133C"/>
<path d="M121.118 155.611C120.32 156.018 119.584 156.22 118.912 156.216C118.234 156.202 117.615 155.974 117.053 155.53C116.491 155.086 115.982 154.418 115.526 153.525C115.066 152.622 114.823 151.818 114.798 151.112C114.768 150.397 114.949 149.766 115.34 149.218C115.727 148.662 116.319 148.18 117.117 147.773C117.839 147.404 118.513 147.234 119.138 147.262C119.768 147.276 120.349 147.5 120.883 147.935C121.416 148.369 121.91 149.033 122.366 149.926L122.628 150.439L117.526 153.043C117.783 153.499 118.055 153.857 118.343 154.117C118.627 154.367 118.938 154.508 119.277 154.538C119.621 154.555 120.006 154.454 120.434 154.235C120.652 154.124 120.842 153.991 121.003 153.837C121.164 153.683 121.287 153.513 121.371 153.326C121.45 153.13 121.482 152.922 121.466 152.703C121.459 152.478 121.395 152.248 121.274 152.01L122.984 151.137C123.227 151.612 123.352 152.069 123.361 152.508C123.378 152.942 123.294 153.351 123.106 153.734C122.928 154.112 122.668 154.46 122.327 154.778C121.987 155.095 121.583 155.373 121.118 155.611ZM116.929 151.803L120.192 150.137C120.032 149.824 119.859 149.577 119.671 149.397C119.493 149.213 119.301 149.083 119.095 149.008C118.899 148.929 118.696 148.907 118.487 148.942C118.272 148.968 118.051 149.039 117.823 149.155C117.452 149.344 117.17 149.566 116.977 149.82C116.793 150.07 116.7 150.357 116.698 150.681C116.696 151.006 116.773 151.38 116.929 151.803Z" fill="#01133C"/>
<path d="M133.616 147.81C133.434 147.959 133.204 148.107 132.924 148.254C132.659 148.402 132.365 148.505 132.041 148.564C131.725 148.617 131.399 148.581 131.062 148.457C130.719 148.324 130.385 148.06 130.061 147.664C129.695 147.219 129.493 146.771 129.454 146.32C129.408 145.861 129.495 145.403 129.715 144.947C129.935 144.476 130.266 144.005 130.707 143.533C131.149 143.046 131.667 142.559 132.261 142.072L131.824 141.54C131.669 141.35 131.501 141.205 131.321 141.104C131.142 141.003 130.94 140.975 130.716 141.021C130.493 141.052 130.229 141.193 129.924 141.443C129.619 141.694 129.41 141.927 129.298 142.143C129.185 142.36 129.14 142.549 129.162 142.71C129.184 142.871 129.243 143.01 129.337 143.125L129.479 143.298L128.02 144.496C127.978 144.461 127.94 144.423 127.906 144.382C127.872 144.341 127.831 144.292 127.784 144.234C127.48 143.863 127.327 143.45 127.326 142.995C127.326 142.54 127.466 142.08 127.747 141.615C128.021 141.142 128.418 140.692 128.937 140.266C129.531 139.779 130.085 139.462 130.6 139.316C131.123 139.163 131.604 139.161 132.044 139.311C132.484 139.46 132.883 139.753 133.242 140.191L135.759 143.258C135.887 143.415 136.024 143.489 136.169 143.48C136.314 143.472 136.44 143.424 136.547 143.336L136.943 143.011L137.795 144.05C137.74 144.151 137.651 144.286 137.528 144.456C137.412 144.634 137.238 144.818 137.007 145.007C136.793 145.183 136.569 145.305 136.335 145.373C136.116 145.442 135.894 145.458 135.67 145.421C135.447 145.384 135.236 145.295 135.037 145.154L134.963 145.215C134.965 145.503 134.925 145.798 134.842 146.101C134.76 146.388 134.618 146.678 134.415 146.968C134.22 147.252 133.954 147.533 133.616 147.81ZM133.059 146.198C133.306 145.995 133.494 145.778 133.623 145.549C133.76 145.312 133.836 145.077 133.852 144.844C133.875 144.603 133.842 144.361 133.753 144.118C133.671 143.867 133.539 143.63 133.357 143.408L133.113 143.111C132.659 143.483 132.263 143.857 131.922 144.233C131.59 144.602 131.373 144.959 131.271 145.305C131.177 145.645 131.248 145.959 131.485 146.247C131.607 146.396 131.748 146.501 131.909 146.562C132.071 146.608 132.249 146.607 132.443 146.558C132.639 146.494 132.844 146.374 133.059 146.198Z" fill="#01133C"/>
<path d="M144.556 137.431L137.916 132.26L138.919 130.973L140.065 131.662L140.134 131.574C139.989 131.326 139.874 131.074 139.789 130.819C139.702 130.548 139.679 130.274 139.721 129.995C139.753 129.71 139.878 129.428 140.094 129.15C140.199 129.016 140.307 128.903 140.417 128.814C140.534 128.716 140.628 128.647 140.699 128.608L142.151 129.738L141.787 130.205C141.584 130.466 141.442 130.727 141.36 130.988C141.27 131.242 141.246 131.5 141.286 131.761C141.332 132.014 141.443 132.262 141.618 132.506C141.793 132.751 142.031 132.991 142.334 133.227L145.756 135.891L144.556 137.431Z" fill="#01133C"/>
<path d="M158.405 114.759L157.904 114.592C157.449 114.44 157.061 114.221 156.74 113.934C156.42 113.648 156.153 113.317 155.941 112.943C155.718 112.565 155.526 112.164 155.364 111.739C155.195 111.3 155.041 110.867 154.903 110.438C154.731 109.909 154.55 109.405 154.361 108.926C154.162 108.443 153.919 108.025 153.632 107.671C153.335 107.313 152.959 107.059 152.504 106.907C152.291 106.836 152.062 106.816 151.816 106.847C151.57 106.877 151.337 106.985 151.118 107.171C150.902 107.346 150.73 107.626 150.602 108.011C150.474 108.395 150.433 108.736 150.48 109.033C150.518 109.326 150.631 109.577 150.82 109.786C151.012 109.985 151.28 110.142 151.624 110.257L152.247 110.464L151.63 112.316C151.576 112.309 151.496 112.294 151.392 112.271C151.287 112.247 151.159 112.21 151.007 112.159C150.258 111.91 149.712 111.542 149.368 111.057C149.017 110.558 148.828 109.994 148.801 109.367C148.767 108.726 148.859 108.077 149.079 107.419C149.308 106.731 149.596 106.203 149.943 105.835C150.294 105.457 150.667 105.199 151.061 105.061C151.459 104.912 151.851 104.851 152.235 104.878C152.623 104.895 152.964 104.952 153.257 105.05C153.743 105.212 154.16 105.446 154.507 105.753C154.848 106.047 155.147 106.399 155.403 106.81C155.649 107.219 155.867 107.679 156.056 108.192C156.238 108.691 156.415 109.222 156.588 109.785C156.672 110.072 156.758 110.354 156.846 110.63C156.934 110.907 157.03 111.158 157.134 111.384C157.242 111.6 157.362 111.78 157.494 111.925L159.152 106.946L160.822 107.503L158.405 114.759Z" fill="#01133C"/>
<path d="M163.395 95.4432C163.332 96.0372 163.19 96.5584 162.971 97.007C162.741 97.4544 162.396 97.8199 161.937 98.1034C161.477 98.3869 160.878 98.5749 160.139 98.6676C159.389 98.7592 158.457 98.7455 157.343 98.6265C156.229 98.5076 155.321 98.3248 154.618 98.078C153.904 97.8302 153.353 97.5192 152.964 97.1451C152.575 96.771 152.32 96.3415 152.2 95.8567C152.07 95.3708 152.036 94.8308 152.1 94.2369C152.163 93.6429 152.309 93.1275 152.538 92.6907C152.758 92.2422 153.097 91.8761 153.557 91.5927C154.016 91.3092 154.621 91.1217 155.371 91.0301C156.11 90.9374 157.037 90.9506 158.15 91.0695C159.264 91.1884 160.178 91.3718 160.891 91.6197C161.594 91.8664 162.141 92.1768 162.53 92.5509C162.919 92.925 163.179 93.3551 163.309 93.841C163.43 94.3152 163.459 94.8493 163.395 95.4432ZM161.804 95.2733C161.858 94.7748 161.765 94.3894 161.526 94.1172C161.277 93.8332 160.892 93.6204 160.371 93.4789C159.84 93.3257 159.177 93.2066 158.382 93.1217L157.554 93.0333C156.738 92.9461 156.054 92.9213 155.503 92.959C154.942 92.985 154.516 93.1111 154.223 93.3373C153.921 93.5518 153.744 93.9083 153.691 94.4068C153.638 94.8947 153.736 95.2859 153.984 95.5805C154.222 95.8634 154.606 96.0815 155.137 96.2347C155.658 96.3762 156.322 96.49 157.128 96.5761L157.955 96.6644C158.761 96.7505 159.444 96.7806 160.005 96.7546C160.556 96.7169 160.983 96.5855 161.286 96.3604C161.58 96.1236 161.752 95.7612 161.804 95.2733Z" fill="#01133C"/>
<path d="M163.761 82.0278L163.236 82.0851C162.758 82.1372 162.314 82.0999 161.904 81.9731C161.493 81.8462 161.113 81.657 160.763 81.4055C160.403 81.1551 160.061 80.8705 159.737 80.5519C159.4 80.2238 159.08 79.8939 158.775 79.5623C158.398 79.1529 158.024 78.7699 157.652 78.4135C157.27 78.0582 156.875 77.7795 156.466 77.5772C156.047 77.3762 155.599 77.3017 155.122 77.3538C154.899 77.3781 154.683 77.4555 154.471 77.5858C154.26 77.7162 154.094 77.9114 153.972 78.1715C153.849 78.421 153.81 78.7472 153.854 79.1501C153.898 79.5531 154.003 79.8796 154.17 80.1296C154.326 80.3808 154.534 80.562 154.792 80.6732C155.05 80.7738 155.359 80.8045 155.72 80.7651L156.372 80.6939L156.584 82.6344C156.532 82.6508 156.454 82.67 156.349 82.6922C156.244 82.7144 156.112 82.7342 155.953 82.7515C155.168 82.8372 154.518 82.7311 154.003 82.4333C153.476 82.1261 153.069 81.693 152.783 81.1341C152.485 80.5658 152.298 79.937 152.223 79.2477C152.144 78.5267 152.186 77.9266 152.348 77.4475C152.509 76.9578 152.74 76.5677 153.041 76.2774C153.341 75.9764 153.671 75.7579 154.032 75.622C154.391 75.4754 154.725 75.3853 155.032 75.3518C155.541 75.2962 156.018 75.3354 156.462 75.4693C156.894 75.5938 157.312 75.7896 157.717 76.0566C158.111 76.3247 158.501 76.6523 158.886 77.0394C159.26 77.4171 159.643 77.8259 160.034 78.2661C160.23 78.4914 160.426 78.7115 160.621 78.9262C160.816 79.141 161.009 79.3292 161.198 79.491C161.386 79.6421 161.57 79.7561 161.75 79.833L161.181 74.616L162.93 74.425L163.761 82.0278Z" fill="#01133C"/>
<path d="M160.238 62.447C160.478 63.1767 160.552 63.8652 160.461 64.5124C160.367 65.1495 160.117 65.7031 159.71 66.1734C159.292 66.647 158.729 67.0002 158.02 67.2329L157.391 65.3174C157.776 65.191 158.093 65.0087 158.34 64.7704C158.577 64.5354 158.729 64.2612 158.794 63.9478C158.86 63.6345 158.834 63.3004 158.718 62.9457C158.605 62.6011 158.431 62.327 158.196 62.1235C157.961 61.92 157.668 61.7971 157.317 61.755C156.953 61.706 156.543 61.7563 156.087 61.9059C155.661 62.0456 155.335 62.2312 155.108 62.4629C154.871 62.6979 154.728 62.9637 154.679 63.2603C154.62 63.5602 154.644 63.8723 154.75 64.1967C154.83 64.4399 154.944 64.6496 155.091 64.8257C155.239 65.0018 155.404 65.1443 155.585 65.2531C155.757 65.3652 155.942 65.4504 156.141 65.5087L156.491 67.3471L150.574 68.8164L148.609 62.8264L150.297 62.2729L151.733 66.6513L154.357 65.9758C154.209 65.8671 154.06 65.7366 153.909 65.584C153.758 65.4315 153.612 65.2436 153.471 65.0203C153.327 64.7869 153.202 64.508 153.096 64.1837C152.906 63.606 152.857 63.0441 152.947 62.4981C153.037 61.9521 153.286 61.4608 153.693 61.0242C154.1 60.5877 154.688 60.243 155.459 59.9904C156.219 59.741 156.916 59.6752 157.549 59.7929C158.183 59.9106 158.731 60.1966 159.195 60.6508C159.644 61.0982 159.992 61.6969 160.238 62.447Z" fill="#01133C"/>
<path d="M147.422 38.2348C148.458 39.5777 148.903 40.8976 148.759 42.1946C148.606 43.4982 147.752 44.7493 146.198 45.948C145.176 46.7363 144.202 47.2114 143.276 47.3733C142.335 47.5333 141.45 47.4076 140.621 46.9964C139.777 46.5833 138.997 45.9122 138.28 44.9831C137.85 44.4257 137.51 43.8532 137.259 43.2656C137.007 42.678 136.869 42.0974 136.844 41.5239C136.805 40.9483 136.898 40.4052 137.123 39.8943C137.349 39.3835 137.728 38.9229 138.26 38.5124L139.569 40.2101C139.291 40.425 139.095 40.6773 138.981 40.9669C138.853 41.2545 138.801 41.5635 138.827 41.8939C138.838 42.2223 138.917 42.5519 139.065 42.8827C139.204 43.2201 139.394 43.545 139.635 43.8575C139.993 44.322 140.372 44.6828 140.773 44.9398C141.158 45.1949 141.569 45.3429 142.004 45.384C142.425 45.4231 142.867 45.3584 143.33 45.19C143.786 45.0131 144.264 44.7325 144.762 44.3481L145.028 44.1429C145.712 43.6152 146.199 43.0848 146.488 42.5518C146.777 42.0188 146.878 41.4766 146.789 40.9252C146.686 40.3719 146.409 39.8038 145.96 39.221C145.575 38.7227 145.164 38.3464 144.725 38.0921C144.28 37.8293 143.832 37.703 143.382 37.7134C142.917 37.7218 142.474 37.8889 142.051 38.2147L141.963 38.2831L144.103 41.0576L142.735 42.113L139.324 37.6915L143.986 34.0953L144.895 35.2735L144.04 36.1556C144.489 36.2135 144.908 36.3209 145.299 36.4777C145.681 36.6411 146.043 36.8666 146.386 37.1543C146.738 37.4354 147.083 37.7956 147.422 38.2348Z" fill="#01133C"/>
<path d="M136.566 26.939C137.253 27.5153 137.725 28.1139 137.983 28.735C138.235 29.3642 138.266 30.0239 138.076 30.7143C137.886 31.4046 137.469 32.1337 136.824 32.9014C136.172 33.6774 135.526 34.2144 134.886 34.5123C134.239 34.8185 133.587 34.8979 132.931 34.7506C132.267 34.6115 131.593 34.2538 130.907 33.6775C130.286 33.1561 129.867 32.6021 129.649 32.0153C129.417 31.4299 129.396 30.807 129.589 30.1468C129.781 29.4865 130.2 28.7725 130.845 28.0047L131.215 27.5636L135.601 31.2476C135.921 30.8336 136.145 30.4432 136.272 30.0763C136.392 29.7176 136.4 29.3762 136.296 29.0521C136.177 28.7293 135.934 28.4136 135.566 28.1049C135.378 27.9471 135.182 27.8241 134.978 27.7359C134.773 27.6477 134.569 27.6012 134.364 27.5963C134.152 27.5996 133.948 27.6513 133.753 27.7517C133.549 27.8451 133.361 27.9939 133.19 28.1981L131.719 26.9633C132.062 26.5549 132.434 26.2613 132.835 26.0826C133.228 25.897 133.637 25.816 134.063 25.8395C134.481 25.8561 134.903 25.9595 135.328 26.1496C135.753 26.3397 136.166 26.6028 136.566 26.939ZM134.692 32.2807L131.886 29.9241C131.66 30.1937 131.5 30.4498 131.408 30.6926C131.307 30.9285 131.263 31.1557 131.274 31.3742C131.277 31.5859 131.336 31.7815 131.45 31.9608C131.557 32.1483 131.709 32.3244 131.905 32.4891C132.223 32.7566 132.538 32.9299 132.847 33.009C133.149 33.0812 133.449 33.055 133.749 32.9305C134.049 32.806 134.363 32.5894 134.692 32.2807Z" fill="#01133C"/>
</svg>
