<svg width="225" height="65" viewBox="0 0 225 65" fill="none" xmlns="http://www.w3.org/2000/svg">
<path d="M95.5327 50.068C95.9173 50.1179 102.358 50.1003 102.664 50.0491C102.667 50.036 102.674 50.0219 102.671 50.0095C102.405 48.5019 101.861 47.1218 100.83 45.9583C100.128 45.1669 99.3266 44.4946 98.4481 43.91C97.0946 43.0095 95.6341 42.3221 94.1164 41.7503C92.2895 41.0617 90.4133 40.5439 88.5011 40.1506C87.4446 39.9333 86.3833 39.7423 85.3131 39.613C84.4484 39.5084 83.5821 39.414 82.7091 39.4028C82.3775 39.3986 82.0462 39.3685 81.7145 39.3561C81.0804 39.3324 80.491 39.1468 79.9284 38.8674C79.6561 38.7324 79.3905 38.5839 79.1208 38.4437C78.6304 38.189 78.1381 37.9381 77.649 37.6812C77.3799 37.5398 77.1211 37.3788 76.8488 37.2444C75.8202 36.7375 74.7843 36.2447 73.7576 35.7343C71.4311 34.5778 69.108 33.4146 66.7844 32.2531C65.1403 31.4313 63.4976 30.6073 61.8542 29.7843C61.817 29.7657 61.7782 29.75 61.7438 29.727C61.5569 29.6019 61.3692 29.6003 61.1569 29.6767C60.6232 29.8691 60.0741 30.0111 59.5132 30.0998C58.8252 30.2089 58.1363 30.2115 57.4477 30.103C57.2848 30.0774 57.1212 30.055 56.9801 30.0342C56.6379 30.2963 55.6308 31.2764 55.4079 31.5628C55.5076 31.6793 55.6561 31.7203 55.7867 31.7836C58.0616 32.8882 60.3387 33.9884 62.613 35.094C63.918 35.7282 65.2215 36.3657 66.5211 37.0108C67.115 37.3058 67.6863 37.6479 68.2883 37.9244C69.0667 38.2818 69.8262 38.6735 70.5879 39.0636C71.3252 39.4415 72.0847 39.7769 72.8339 40.1321C72.9936 40.2079 73.1508 40.2895 73.2951 40.3615C73.2955 40.4729 73.2364 40.4703 73.1838 40.4713C73.0594 40.4732 72.935 40.4732 72.8102 40.4729C65.2706 40.4578 57.7309 40.4428 50.1913 40.4274C50.1637 40.4274 50.1355 40.4242 50.1082 40.4277C49.8558 40.4607 49.6727 40.3663 49.4866 40.1852C47.493 38.2402 45.3265 36.5068 42.9954 34.9814C42.3373 34.5506 41.6487 34.1647 40.9614 33.7807C39.9771 33.2303 38.9148 32.8841 37.8176 32.6338C36.469 32.3263 35.111 32.07 33.738 31.9036C32.6398 31.7705 31.5378 31.6761 30.4323 31.6163C29.2016 31.5497 27.971 31.5347 26.7401 31.5631C25.6201 31.5891 24.5027 31.6627 23.3875 31.7785C22.1617 31.9062 20.9484 32.0988 19.7489 32.3785C17.8226 32.8274 16.0111 33.5596 14.3084 34.566C12.8199 35.4457 11.3872 36.4102 9.95676 37.3788C9.65945 37.5801 9.37561 37.8018 9.09273 38.0229C8.45609 38.5209 7.73252 38.805 6.9368 38.9221C6.21195 39.029 5.4855 39.1257 4.76419 39.2527C4.39857 39.317 4.03775 39.4223 3.68367 39.5369C2.72501 39.8469 2.1336 40.5209 1.8552 41.4687C1.73109 41.8908 1.64706 42.3263 1.56719 42.7596C1.44467 43.4245 1.34814 44.0946 1.3414 44.7724C1.33788 45.142 1.36001 45.5119 1.37123 45.9093C1.31158 45.9327 1.2346 45.9576 1.16212 45.9922C0.98732 46.0748 0.813812 46.1596 0.641579 46.2476C0.205391 46.4699 -0.0162354 46.8191 0.00172424 47.3154C0.0119858 47.6047 -0.00308228 47.8952 0.0126343 48.1842C0.0754929 49.3349 0.933113 49.9557 1.78208 50.076C2.16374 50.1301 2.55311 50.1503 2.93926 50.1499C4.36393 50.1493 5.78892 50.1336 7.21358 50.1231C7.36401 50.1218 7.51475 50.1157 7.64913 50.1122C8.27263 48.6895 9.25212 47.5826 10.4292 46.6415C11.605 45.7013 12.943 45.0828 14.4248 44.8159C16.8938 44.3714 19.1802 44.8482 21.2617 46.2578C22.0565 46.796 22.7499 47.4469 23.3763 48.1717C23.6669 48.508 23.909 48.8738 24.1063 49.2728C24.2461 49.5554 24.3786 49.8479 24.6213 50.0533C42.5451 50.0799 60.458 50.0696 78.387 50.0703C78.4739 49.9106 78.5534 49.7672 78.6304 49.6229C79.4059 48.1695 80.4618 46.9672 81.8563 46.076C83.076 45.2965 84.4131 44.8447 85.8516 44.6799C87.7743 44.4597 89.605 44.7736 91.3177 45.6687C93.1471 46.6251 94.5558 48.0059 95.4304 49.8955C95.4535 49.9455 95.482 49.9931 95.509 50.0411C95.5154 50.052 95.5263 50.0607 95.5327 50.068ZM37.9642 35.7964C37.9459 35.8169 37.9273 35.837 37.909 35.8575C38.0332 35.965 38.1525 36.079 38.2827 36.1785C38.579 36.405 38.885 36.6191 39.1794 36.8479C39.6483 37.2121 40.1349 37.5586 40.572 37.958C41.4274 38.7397 42.2542 39.5525 43.133 40.3909C43.0025 40.4169 42.9271 40.4444 42.8518 40.4447C42.4643 40.4469 42.0772 40.4405 41.6898 40.4402C35.7278 40.4354 29.7655 40.4309 23.8035 40.4261C23.679 40.4261 23.554 40.4322 23.4302 40.4226C23.3522 40.4165 23.2762 40.3861 23.2024 40.3673C23.1178 40.0521 23.1168 39.7474 23.1152 39.4453C23.1082 38.0517 23.1069 36.6585 23.1078 35.2649C23.1078 35.0585 23.1261 34.8514 23.147 34.6457C23.1563 34.5532 23.1925 34.4633 23.2166 34.3714C23.3253 34.3417 23.4164 34.3046 23.5107 34.2934C23.84 34.2543 24.1701 34.2066 24.5007 34.1951C25.164 34.1721 25.8282 34.1631 26.4921 34.1615C30.1715 34.1526 33.8512 34.1468 37.5309 34.142C37.7795 34.1417 38.0284 34.1618 38.2769 34.1631C38.5473 34.1647 38.7862 34.2476 39.0223 34.3778C40.6843 35.294 42.2632 36.3343 43.7646 37.493C44.8486 38.3298 45.8849 39.222 46.8827 40.1586C46.9558 40.2274 47.0607 40.2828 47.0568 40.4383C46.9096 40.4453 46.7746 40.4572 46.6399 40.4572C46.0173 40.4575 45.3948 40.4441 44.7726 40.4572C44.5074 40.4629 44.2806 40.4204 44.1023 40.213C44.0667 40.1717 44.0195 40.1397 43.9775 40.1042C42.6924 39.0127 41.3915 37.941 39.9864 37.0028C39.3324 36.5663 38.6499 36.1785 37.9642 35.7964ZM22.1517 34.5641C22.1678 34.6636 22.1877 34.7564 22.1976 34.8505C22.2582 35.4284 22.2496 36.007 22.2316 36.5868C22.2056 37.4418 22.1832 38.2969 22.1771 39.1522C22.1742 39.5618 22.213 39.9717 22.2332 40.3941C22.0969 40.4674 21.942 40.4335 21.7938 40.4348C20.2726 40.4476 18.7511 40.4623 17.2299 40.4649C16.8434 40.4655 16.4563 40.4338 16.0711 40.4002C15.8501 40.381 15.6291 40.3228 15.454 40.1797C15.2622 40.0233 15.0743 39.8569 14.9107 39.6719C14.6131 39.3356 14.6092 39.0108 14.9088 38.6719C15.0903 38.4668 15.2991 38.2793 15.5194 38.1154C16.2401 37.5797 16.963 37.0463 17.7023 36.5362C18.202 36.1916 18.7216 35.8726 19.2482 35.5702C20.0298 35.1212 20.8534 34.766 21.7393 34.5702C21.8599 34.5436 21.9786 34.4962 22.1517 34.5641ZM95.6568 45.0568C95.7162 45.013 95.7261 45.0018 95.7383 44.997C95.7765 44.9826 95.8149 44.9663 95.8547 44.958C96.416 44.8431 96.9753 44.8293 97.5424 44.9381C98.3776 45.0981 99.1781 45.3426 99.9026 45.7983C100.305 46.0514 100.658 46.3618 100.915 46.7621C101.033 46.9451 101.127 47.1506 101.191 47.3586C101.271 47.621 101.176 47.8469 100.952 48.012C100.734 48.1727 100.488 48.2632 100.219 48.2655C99.6521 48.2706 99.0848 48.2703 98.518 48.2571C98.3121 48.2523 98.1043 48.2171 97.9022 48.1736C97.4122 48.0683 97.0036 47.8216 96.695 47.4245C96.1511 46.7243 95.8675 45.9116 95.6568 45.0568ZM25.6955 42.8812C25.8363 43.1144 25.9286 43.3263 25.9168 43.5701C25.9068 43.7704 25.8212 43.8706 25.6246 43.9106C25.503 43.9352 25.3789 43.9535 25.2554 43.9599C24.6621 43.9909 24.0684 44.0255 23.4747 44.0418C23.0883 44.0524 22.7012 44.0357 22.314 44.0274C22.1129 44.0229 21.9369 43.9548 21.7945 43.8069C21.5385 43.5407 21.5764 43.1893 21.8939 43.0021C21.9988 42.9404 22.1206 42.8988 22.2403 42.8738C22.4016 42.8399 22.5684 42.8152 22.7329 42.814C23.5068 42.8072 24.2807 42.8047 25.0546 42.812C25.2599 42.8136 25.4652 42.8552 25.6955 42.8812Z" fill="white"/>
<path d="M71.7935 4.96862C71.6783 5.06846 71.56 5.1603 71.4538 5.26462C71.0103 5.70014 70.5786 6.14813 70.1267 6.57501C69.7456 6.93501 69.3524 7.28413 68.9467 7.61661C68.5711 7.92413 68.151 8.16476 67.6885 8.32508C67.1782 8.50204 66.6654 8.52668 66.1394 8.38588C65.3892 8.18524 64.6685 7.90365 63.9546 7.60637C62.5986 7.04221 61.2069 6.59549 59.7723 6.27773C59.4493 6.20605 59.128 6.11453 58.8182 5.99965C57.8582 5.64414 57.2367 4.96926 56.9528 3.98462C56.7944 3.43551 56.7504 2.87199 56.7437 2.30623C56.7386 1.85151 56.769 1.39615 56.7812 0.941116C56.7854 0.791676 56.7819 0.642237 56.7819 0.476798C56.6658 0.451518 56.5753 0.423678 56.4829 0.413118C55.1359 0.261759 53.7863 0.146559 52.4331 0.0607995C51.7416 0.0169597 51.0514 -0.0214402 50.3612 0.0137597C49.5466 0.0553595 48.7339 0.130879 47.9208 0.199039C47.5074 0.233599 47.0956 0.283519 46.6831 0.327358C46.5882 0.337278 46.4939 0.350398 46.3759 0.364798C46.3621 0.463678 46.3371 0.554877 46.3384 0.645757C46.3448 1.10111 46.364 1.55615 46.3672 2.01151C46.3711 2.56319 46.3695 3.11487 46.2649 3.6611C46.059 4.73694 45.4455 5.48766 44.4345 5.89405C44.0141 6.06301 43.5673 6.17501 43.1247 6.27965C41.3556 6.69757 39.6544 7.30461 38.0097 8.07421C37.697 8.22044 37.3818 8.36348 37.0594 8.48604C36.6672 8.63516 36.2589 8.6854 35.8368 8.63644C35.399 8.58588 34.9991 8.44636 34.6639 8.15997C34.0863 7.66653 33.5083 7.17277 32.9487 6.65917C32.3797 6.13693 31.8306 5.59294 31.362 4.96158C31.0891 5.01918 30.8713 5.1651 30.6555 5.30878C30.2761 5.56158 29.8989 5.81821 29.5275 6.08285C27.9922 7.17693 26.5749 8.40668 25.2775 9.77372C25.0399 10.0243 24.8009 10.2739 24.5681 10.5289C24.4565 10.6508 24.3477 10.7776 24.2547 10.9139C24.0966 11.1452 24.0973 11.2176 24.2637 11.432C24.4074 11.6172 24.562 11.7948 24.7217 11.9663C25.0232 12.2899 25.3391 12.5996 25.6351 12.9279C25.8936 13.2147 26.1432 13.5113 26.3767 13.8185C26.5175 14.0041 26.6352 14.2111 26.7365 14.4214C27.1089 15.1942 27.0906 15.9705 26.7064 16.7321C26.5829 16.9769 26.4209 17.2041 26.2625 17.4294C26.0559 17.7228 25.8327 18.0047 25.6217 18.295C24.9555 19.2124 24.3516 20.1673 23.842 21.1823C23.5575 21.749 23.2467 22.3036 22.9298 22.8533C22.772 23.1273 22.5908 23.3919 22.3904 23.6367C21.9298 24.1999 21.3409 24.5138 20.5943 24.517C19.9836 24.5199 19.3787 24.4633 18.7751 24.3845C18.0897 24.2949 17.4053 24.1986 16.7199 24.11C16.6118 24.0959 16.5002 24.1081 16.3815 24.1081C16.2369 24.2418 16.1753 24.4293 16.1243 24.6117C15.954 25.2223 15.7792 25.8325 15.6423 26.4511C15.3584 27.7311 15.1612 29.0264 15.0335 30.3314C14.9893 30.7842 14.9588 31.2386 14.9386 31.693C14.9277 31.9403 14.9456 32.1893 14.9636 32.4367C14.9703 32.5269 15.0159 32.6143 15.0502 32.7247C15.82 32.3125 16.6266 32.0667 17.4229 31.7992C19.1042 31.2347 20.8242 30.828 22.5873 30.6191C23.3419 30.5295 24.1008 30.4722 24.8577 30.4012C24.9526 30.3922 25.0479 30.388 25.1444 30.3816C25.2349 29.9346 25.3 29.5007 25.4116 29.0786C26.1682 26.2165 27.3174 23.5266 28.9694 21.0582C30.4011 18.9193 32.1093 17.0316 34.1158 15.4159C36.6932 13.3407 39.5524 11.7804 42.7061 10.7622C44.3018 10.247 45.9314 9.88988 47.593 9.6614C49.5751 9.38908 51.5646 9.32764 53.555 9.45948C59.4856 9.85244 64.7869 11.8924 69.4047 15.6323C72.2386 17.9273 74.4616 20.7167 75.9812 24.0428C76.8003 25.8354 77.3456 27.7087 77.6499 29.6559C77.9242 31.4101 77.9578 33.1717 77.8677 34.939C77.8481 35.324 77.8036 35.7074 77.7696 36.1026C77.8324 36.1477 77.8821 36.195 77.9412 36.2242C79.0922 36.7957 80.244 37.3653 81.3963 37.9346C81.4204 37.9464 81.4489 37.9496 81.5044 37.965C81.5859 37.8622 81.5958 37.7288 81.6164 37.5982C81.6981 37.0808 81.7754 36.5624 81.8672 36.0469C81.9031 35.8443 81.9637 35.6446 82.0285 35.4485C82.424 34.2527 83.2376 33.5762 84.5074 33.4488C85.3753 33.3618 86.2448 33.3176 87.1159 33.2901C87.4055 33.2808 87.6951 33.2751 88.0091 33.2671C88.0306 33.1666 88.0649 33.0776 88.0662 32.988C88.071 32.6431 88.0736 32.2981 88.0626 31.9535C88.02 30.6283 87.9084 29.31 87.6823 28.0021C87.4706 26.7775 87.1832 25.5714 86.8099 24.3858C86.7817 24.2959 86.7422 24.2092 86.7057 24.1148C86.5982 24.1148 86.502 24.1029 86.4096 24.1167C85.6578 24.229 84.9083 24.3583 84.1546 24.4575C83.6758 24.5205 83.1915 24.5756 82.7097 24.5743C81.6481 24.5714 80.8181 24.1077 80.2546 23.2076C80.0355 22.8578 79.8578 22.4815 79.6724 22.1116C79.5182 21.8034 79.3694 21.4914 79.2369 21.1733C78.6865 19.8511 77.9181 18.6588 77.0701 17.5122C76.8815 17.2572 76.699 16.9964 76.5332 16.7263C76.2833 16.319 76.1573 15.871 76.1403 15.3916C76.1249 14.9529 76.2275 14.5439 76.4302 14.1574C76.6506 13.7375 76.9392 13.3657 77.283 13.0435C77.7465 12.6092 78.2305 12.1967 78.7064 11.7763C78.8703 11.6313 79.0531 11.5062 79.2045 11.3244C79.0708 11.1168 78.9171 10.942 78.7661 10.7657C77.784 9.61852 76.6903 8.58556 75.5235 7.62813C74.4327 6.73309 73.2855 5.91485 72.1001 5.14942C72.0087 5.09118 71.9121 5.03838 71.7935 4.96862Z" fill="#01133C"/>
<path d="M25.2558 52.0701C25.1984 52.255 25.2404 52.4195 25.2628 52.5773C25.3619 53.2733 25.4768 53.967 25.5765 54.663C25.6092 54.8906 25.6981 55.0854 25.8434 55.2582C25.9854 55.4272 26.124 55.6003 26.2776 55.7584C27.5708 57.0893 28.9759 58.2912 30.483 59.3744C30.7174 59.543 30.9551 59.7101 31.2518 59.831C31.3002 59.7683 31.3489 59.7078 31.3945 59.6451C31.8361 59.04 32.3608 58.5107 32.9102 58.0048C33.0427 57.8829 33.1578 57.7507 33.2691 57.6086C33.8416 56.8787 34.5174 56.2867 35.4344 56.0141C36.0213 55.8394 36.6057 55.8083 37.1881 56.0016C37.5544 56.1232 37.9174 56.2608 38.268 56.4214C38.9213 56.7209 39.5794 57.0064 40.2507 57.2646C41.1449 57.6086 42.0769 57.8054 43.0074 58.0144C43.4112 58.1049 43.814 58.2093 44.2059 58.3411C45.1306 58.6521 45.7473 59.2877 46.078 60.1981C46.2393 60.6416 46.3323 61.1036 46.3404 61.5744C46.3529 62.3049 46.3404 63.0361 46.3388 63.767C46.3384 63.9449 46.3388 64.1232 46.3388 64.3056C46.4074 64.3318 46.4565 64.3635 46.5078 64.3683C47.2512 64.4345 47.9947 64.503 48.7391 64.5596C49.7465 64.6361 50.7561 64.6467 51.7661 64.6345C53.0528 64.6192 54.3364 64.5433 55.6171 64.4179C55.9875 64.3817 56.3583 64.3468 56.7543 64.3091C56.7678 64.1833 56.789 64.0784 56.789 63.9734C56.7874 63.2697 56.7794 62.5664 56.7778 61.8627C56.7768 61.4624 56.7896 61.0624 56.8842 60.67C57.1546 59.551 57.8118 58.7789 58.9257 58.4249C59.2018 58.3373 59.4841 58.2678 59.7666 58.2022C61.2105 57.8665 62.6182 57.4294 63.9595 56.7875C64.4944 56.5315 65.0499 56.3174 65.6003 56.0937C65.7915 56.016 65.9929 55.9606 66.1927 55.9072C66.9621 55.7024 67.6805 55.8234 68.314 56.3034C68.7094 56.6029 69.0895 56.9283 69.4416 57.2774C70.1088 57.9382 70.7509 58.624 71.4029 59.3001C71.5366 59.439 71.6675 59.5808 71.816 59.7382C71.9048 59.6925 71.9895 59.6557 72.0674 59.6073C73.2561 58.871 74.3821 58.0486 75.4527 57.1507C76.2042 56.5206 76.9508 55.8851 77.7132 55.2406C77.7212 54.719 77.7016 54.1808 77.7453 53.6474C77.7876 53.128 77.8941 52.6138 77.9727 52.0947C77.8453 52.0112 77.7036 52.041 77.5698 52.04C76.0486 52.031 74.5271 52.0208 73.0056 52.0211C71.7191 52.0214 70.433 52.0438 69.1466 52.041C68.1786 52.0387 67.2107 52.001 66.2427 52C65.5933 51.9994 64.9438 52.032 64.2943 52.0557C63.9871 52.0669 63.6939 52.1533 63.4113 52.2672C63.1169 52.3859 62.819 52.5018 62.5383 52.6486C61.5415 53.1715 60.4863 53.535 59.4055 53.8362C58.0052 54.2262 56.584 54.513 55.1421 54.6928C53.5051 54.897 51.861 54.9421 50.2138 54.8762C47.3462 54.7616 44.5632 54.2125 41.8685 53.231C41.3633 53.047 40.8813 52.8006 40.3877 52.585C40.16 52.4854 39.9306 52.3891 39.7007 52.2941C39.3264 52.1398 38.9367 52.0675 38.5319 52.0394C37.6192 51.976 36.7073 52.0205 35.7949 52.0314C34.315 52.0493 32.8349 52.047 31.355 52.0496C29.474 52.0531 27.5929 52.0525 25.7119 52.055C25.563 52.056 25.4139 52.065 25.2558 52.0701Z" fill="#01133C"/>
<path d="M71.7559 33.1942C72.797 33.737 73.8361 34.2522 74.8913 34.7344C74.9247 34.7498 74.9699 34.7395 75.0324 34.7424C75.0433 34.6435 75.0587 34.5517 75.0629 34.4595C75.322 28.8195 73.567 23.8989 69.7507 19.7233C67.8555 17.6497 65.6169 16.0257 63.1065 14.7713C60.9795 13.7082 58.7376 12.978 56.403 12.5335C55.5072 12.363 54.6031 12.2407 53.6926 12.1633C52.3102 12.0462 50.9301 12.0734 49.5481 12.1598C47.9419 12.2603 46.3582 12.5047 44.8078 12.9278C39.1877 14.4606 34.6882 17.5911 31.3591 22.3716C30.3356 23.8413 29.5582 25.4397 28.9321 27.1136C28.6762 27.7984 28.4148 28.4813 28.2355 29.1917C28.1916 29.3655 28.1492 29.5399 28.1172 29.7162C28.0902 29.8637 28.0662 30.0144 28.1297 30.1834C28.1887 30.1936 28.2538 30.2138 28.3196 30.2154C29.3982 30.2416 30.4768 30.2659 31.5554 30.2903C31.65 30.2925 31.7446 30.2906 31.8453 30.2906C32.1109 28.841 32.7177 27.5424 33.3396 26.2528C33.9656 24.9552 34.7495 23.7533 35.6626 22.6369C36.576 21.5204 37.6033 20.5185 38.7438 19.6346C40.553 18.2327 42.5637 17.2078 44.7311 16.481C45.9659 16.067 47.2283 15.7646 48.5157 15.5716C49.9157 15.362 51.3266 15.2974 52.7371 15.4058C55.0643 15.585 57.3379 16.025 59.5105 16.9079C61.8919 17.8756 64.0395 19.2119 65.9212 20.9636C67.8674 22.7757 69.3992 24.8832 70.4544 27.328C71.0711 28.7565 71.472 30.2432 71.6481 31.7882C71.6994 32.2394 71.7184 32.6947 71.7559 33.1942Z" fill="#01133C"/>
<path d="M94.7772 53.5908C94.7608 50.3012 92.6241 47.8196 90.2434 46.7732C89.2834 46.3515 88.2786 46.1195 87.2369 46.0446C85.9373 45.9512 84.7022 46.2196 83.5383 46.7851C81.3746 47.8356 79.9628 49.515 79.3659 51.8529C78.6744 54.5623 79.6591 57.4666 81.7627 59.257C82.9969 60.3073 84.4251 60.9303 86.0326 61.114C89.3505 61.4929 92.9234 59.6842 94.2602 56.297C94.6033 55.4282 94.7839 54.491 94.7772 53.5908ZM90.1866 50.5883C90.4887 51.1204 90.8335 51.5979 91.0882 52.1479C90.9355 52.2769 90.7969 52.3899 90.6635 52.5079C90.5304 52.6254 90.3649 52.7089 90.2703 52.8699C90.2556 53.2417 90.2411 53.6122 90.2257 54.0068C90.4589 54.2103 90.6985 54.4167 90.9342 54.6273C91.0029 54.6887 91.0612 54.7617 91.1315 54.8372C90.8354 55.3396 90.5599 55.8295 90.2257 56.2945C89.9579 56.1985 89.7106 56.1166 89.4685 56.0209C89.3001 55.9543 89.16 55.9646 89.0041 56.0711C88.7882 56.2183 88.5519 56.3358 88.3251 56.467C88.2308 56.5217 88.1378 56.579 88.0608 56.625C87.946 56.9886 87.9746 57.3559 87.845 57.714C87.327 57.7367 86.8177 57.7646 86.3077 57.7793C86.0714 57.786 86.022 57.7425 85.9735 57.505C85.9238 57.2622 85.8889 57.0164 85.8539 56.771C85.8369 56.6526 85.7888 56.5652 85.6791 56.5102C85.3953 56.3681 85.1127 56.2228 84.8305 56.0775C84.7227 56.0222 84.6185 56.0346 84.512 56.0817C84.3228 56.1655 84.1326 56.2484 83.9417 56.3287C83.8686 56.3594 83.7923 56.3828 83.6954 56.417C83.3468 55.9543 83.0241 55.4983 82.765 54.9809C83.0257 54.7134 83.2746 54.4583 83.5059 54.2212C83.5059 53.8881 83.4985 53.585 83.5088 53.2823C83.5152 53.0958 83.4369 52.9729 83.2926 52.8657C83.0947 52.7185 82.9084 52.5566 82.722 52.4052C83.0023 51.8375 83.6473 50.9412 83.9401 50.7131C84.0995 50.7735 84.2676 50.8359 84.4344 50.9009C84.5431 50.9431 84.6457 50.9435 84.7532 50.8884C85.0963 50.7127 85.4421 50.5419 85.8116 50.3569C85.8937 50.0606 85.9809 49.746 86.0649 49.4436C86.5095 49.3751 87.5098 49.3927 87.8228 49.4718C87.9011 49.7732 87.9803 50.0791 88.0608 50.3908C88.4261 50.5681 88.7853 50.7422 89.1628 50.9252C89.4775 50.8215 89.8037 50.7143 90.1866 50.5883Z" fill="#01133C"/>
<path d="M8.36099 53.7293C8.4601 56.3238 9.59611 58.4214 11.8149 59.8867C14.9227 61.9388 19.0992 61.5545 21.7911 58.8403C22.946 57.6758 23.6324 56.2669 23.8489 54.6413C24.1266 52.5578 23.5314 50.7072 22.2715 49.0608C21.0704 47.4909 19.4601 46.5914 17.527 46.1808C13.6616 45.36 9.33504 48.0407 8.5066 52.2688C8.46683 52.4717 8.43379 52.6765 8.41391 52.8822C8.38857 53.1424 8.38024 53.4048 8.36099 53.7293ZM12.9512 56.3936C12.6263 56.0777 12.4079 55.7293 12.2344 55.3526C12.093 55.0454 12.1116 54.9625 12.3463 54.7309C12.4342 54.6441 12.5343 54.5686 12.6318 54.4921C12.7177 54.4249 12.8079 54.3632 12.8694 54.3184C12.89 53.8349 12.9092 53.3833 12.9294 52.9149C12.9034 52.8934 12.8601 52.8602 12.8191 52.8237C12.6337 52.6592 12.4461 52.4976 12.2652 52.328C12.126 52.1974 12.1228 52.048 12.2052 51.8768C12.3867 51.4998 12.6308 51.1696 12.9137 50.864C13.0221 50.7469 13.1379 50.7334 13.2864 50.7946C13.5561 50.9062 13.8445 50.9443 14.1151 50.9677C14.4493 50.7952 14.7672 50.631 15.1001 50.4589C15.1774 50.1085 15.2518 49.7427 15.5097 49.4262C16.0071 49.4016 16.5139 49.3475 17.0312 49.4509C17.0867 49.6531 17.1386 49.8518 17.1957 50.0486C17.281 50.3424 17.4533 50.5619 17.7448 50.6797C17.8981 50.7418 18.0473 50.8141 18.1996 50.8794C18.3943 50.9632 18.5854 50.9894 18.8 50.921C19.0463 50.8426 19.3016 50.7798 19.5758 50.7734C19.6583 50.9427 19.7301 51.1053 19.8157 51.2605C19.902 51.4173 19.9986 51.5686 20.0967 51.7184C20.1929 51.8643 20.2972 52.0051 20.4011 52.1526C20.2279 52.3091 20.0672 52.439 19.9251 52.5872C19.8215 52.6954 19.7016 52.8144 19.6599 52.9501C19.4873 53.5142 19.4645 54.0662 19.9229 54.5305C20.0486 54.6579 20.1794 54.7805 20.3081 54.9056C20.3738 54.9696 20.4396 55.0339 20.4857 55.0787C20.1907 55.5248 19.9104 55.9478 19.615 56.3942C19.2782 56.3833 18.9424 56.2537 18.5652 56.1561C18.3221 56.256 18.0556 56.368 17.7871 56.4745C17.4343 56.6144 17.2339 56.8745 17.1742 57.2435C17.1396 57.4589 17.1162 57.6758 17.0851 57.912C17.011 57.9229 16.9318 57.9421 16.8519 57.9446C16.5482 57.9536 16.2441 57.9593 15.9401 57.9622C15.3387 57.968 15.2694 57.9113 15.1495 57.3168C15.1306 57.2227 15.1258 57.1254 15.1161 57.0297C15.1068 56.936 15.0995 56.8419 15.0934 56.7705C14.7787 56.5757 14.4872 56.3949 14.1786 56.2038C13.7838 56.1958 13.3778 56.2662 12.9512 56.3936Z" fill="#01133C"/>
<path d="M61.3016 19.8778C61.0848 19.8046 60.9587 19.7553 60.8292 19.7194C59.3522 19.3121 57.9269 19.4778 56.5436 20.1066C55.7075 20.4868 54.9566 21.002 54.227 21.5521C54.0965 21.6506 54.0227 21.7716 53.989 21.9249C53.8768 22.4365 53.7623 22.9479 53.6526 23.4602C53.5717 23.8378 53.4855 24.2148 53.4245 24.5956C53.3848 24.8442 53.2651 25.0228 53.0775 25.1828C52.2263 25.9095 51.3821 26.6448 50.5348 27.376C48.8295 28.8477 47.1255 30.3207 45.417 31.7885C44.9663 32.1757 44.4984 32.5427 44.0459 32.9274C43.8252 33.1149 43.619 33.32 43.4102 33.521C43.363 33.5664 43.3316 33.6285 43.2806 33.6999C43.3502 33.7655 43.4028 33.8279 43.4673 33.8733C43.6366 33.9927 43.8072 34.1111 43.9843 34.2186C45.3486 35.0493 46.5876 36.039 47.7332 37.1478C47.8016 37.2138 47.8772 37.272 47.9616 37.3446C48.0735 37.2442 48.1774 37.1546 48.2775 37.0608C49.0027 36.3798 49.7195 35.6896 50.4533 35.0176C52.5223 33.1229 54.5057 31.1389 56.5587 29.2276C56.6594 29.1338 56.7607 29.041 56.88 28.9309C57.1174 28.9764 57.3586 29.0279 57.6014 29.0685C59.467 29.3802 61.0489 28.8503 62.3189 27.449C63.0928 26.5953 63.5127 25.57 63.6888 24.4404C63.7029 24.3495 63.7 24.2557 63.707 24.1204C63.5598 24.1924 63.446 24.2372 63.3433 24.3002C62.4132 24.8714 61.4857 25.4474 60.5556 26.0186C60.2852 26.1847 60.0171 26.3569 59.7332 26.497C59.4465 26.6381 59.2807 26.5911 59.0674 26.3642C59.0013 26.2938 58.9407 26.218 58.8811 26.1418C58.2088 25.2817 57.5699 24.3978 56.9779 23.4807C56.7524 23.1313 56.6459 23.0989 57.0619 22.7146C57.3752 22.425 57.7127 22.1543 58.0683 21.9191C58.9096 21.3626 59.7675 20.8318 60.6197 20.2922C60.8166 20.1681 61.0184 20.05 61.3016 19.8778Z" fill="#E8EBEE"/>
<path d="M40.1217 27.4293C40.1634 27.4005 40.2031 27.3842 40.2266 27.3548C40.7968 26.6492 41.5534 26.238 42.4162 26.023C43.7414 25.693 44.999 25.8598 46.1331 26.6521C46.8627 27.1618 47.1899 27.8665 47.0452 28.7634C47.0234 28.8978 47.0083 29.0335 46.983 29.2197C47.0766 29.1653 47.1357 29.1407 47.1831 29.102C47.6649 28.7103 48.1453 28.3167 48.6251 27.9228C49.3397 27.3362 50.0539 26.749 50.7676 26.1612C50.841 26.1007 50.91 26.0348 50.9844 25.9686C50.9529 25.9238 50.9366 25.8825 50.9064 25.8601C50.1415 25.2934 49.3856 24.7135 48.6055 24.1676C47.8987 23.6732 47.1174 23.3305 46.2665 23.1513C44.3004 22.7372 42.0961 23.5375 40.8924 25.0879C40.4989 25.5948 40.1977 26.15 40.0861 26.7893C40.0556 26.9634 40.0627 27.1449 40.0601 27.3228C40.0598 27.3557 40.0973 27.389 40.1217 27.4293Z" fill="#01133C"/>
<path d="M96.0345 51.5159C96.0874 51.9987 96.1506 52.4595 96.1856 52.9226C96.2196 53.3741 96.2247 53.8275 96.2433 54.2992C96.3049 54.3037 96.3584 54.3197 96.4059 54.3091C97.524 54.0598 98.6443 53.8198 99.7578 53.551C100.307 53.4186 100.848 53.2486 101.362 53.0042C101.766 52.8125 102.129 52.5645 102.445 52.2518C102.542 52.1562 102.63 52.0451 102.697 51.927C102.811 51.7264 102.736 51.5725 102.517 51.528C102.436 51.5117 102.352 51.5056 102.27 51.5027C102.076 51.4963 101.883 51.4912 101.69 51.4912C99.9208 51.4931 98.1523 51.4963 96.3835 51.5002C96.2747 51.5005 96.1666 51.5098 96.0345 51.5159Z" fill="#01133C"/>
<path d="M6.99173 53.128C6.99173 52.9133 6.98082 52.736 6.99494 52.5606C7.00809 52.3971 7.03792 52.2333 7.07801 52.0739C7.12034 51.9043 7.18352 51.7402 7.24414 51.5527C7.16973 51.5379 7.1197 51.5194 7.06967 51.5191C5.55199 51.5104 4.03463 51.4995 2.51695 51.5011C2.28539 51.5015 2.0519 51.5527 1.82322 51.5991C1.67087 51.6298 1.63495 51.7789 1.76004 51.8743C1.91142 51.9898 2.07275 52.1095 2.24979 52.1715C2.65166 52.3126 3.06283 52.4314 3.47592 52.5379C3.91564 52.6515 4.36017 52.7488 4.80566 52.8387C5.50837 52.9814 6.22135 53.055 6.99173 53.128Z" fill="#01133C"/>
<path d="M87.0205 51.1504C86.1195 51.1616 85.4483 51.4279 84.9399 52.0471C84.2093 52.9373 84.242 54.2151 85.0576 55.0263C85.7632 55.7283 86.6234 55.9927 87.6067 55.7277C88.5648 55.4695 89.2271 54.6704 89.3069 53.658C89.3781 52.7556 88.9448 51.8916 88.0205 51.4346C87.6718 51.2624 87.3123 51.1165 87.0205 51.1504ZM84.9021 53.401C84.9191 53.3101 84.9341 53.1293 84.9883 52.9604C85.2552 52.1274 85.8729 51.7101 86.7081 51.6218C87.4871 51.5392 88.1042 51.8717 88.5551 52.5028C88.7084 52.7175 88.8085 52.9626 88.839 53.2279C88.983 54.4877 87.9647 55.4848 86.6022 55.3437C86.1731 55.2992 85.7857 55.0832 85.4694 54.7779C85.106 54.4282 84.9078 53.9988 84.9021 53.401Z" fill="#01133C"/>
<path d="M13.7136 53.3963C13.7158 54.6939 14.4265 55.619 15.5177 55.9169C16.3916 56.1557 17.197 56.011 17.8971 55.436C19.1492 54.4081 19.0036 52.3845 17.6261 51.5304C16.7005 50.9563 15.762 50.9723 14.8432 51.5275C14.0843 51.9858 13.7383 52.6958 13.7136 53.3963ZM16.3294 51.5877C16.7435 51.5864 17.0485 51.692 17.4651 51.9986C18.1348 52.491 18.4327 53.333 18.1871 54.123C17.9327 54.9406 17.3631 55.5166 16.3342 55.5576C16.0529 55.5688 15.7874 55.4987 15.5263 55.4085C14.8018 55.1579 14.3335 54.6686 14.2168 53.9042C14.0972 53.1202 14.3547 52.4674 15.0013 51.9848C15.3801 51.7019 15.8105 51.5813 16.3294 51.5877Z" fill="#01133C"/>
<path d="M126.788 34.432C124.22 34.432 122.024 33.988 120.2 33.1C118.376 32.188 116.984 30.784 116.024 28.888C115.088 26.992 114.62 24.58 114.62 21.652C114.62 17.332 115.676 14.128 117.788 12.04C119.924 9.928 122.924 8.872 126.788 8.872C128.9 8.872 130.796 9.232 132.476 9.952C134.156 10.672 135.476 11.752 136.436 13.192C137.42 14.632 137.912 16.444 137.912 18.628H132.512C132.512 17.476 132.272 16.504 131.792 15.712C131.336 14.92 130.676 14.32 129.812 13.912C128.972 13.48 127.988 13.264 126.86 13.264C125.324 13.264 124.052 13.564 123.044 14.164C122.06 14.764 121.328 15.652 120.848 16.828C120.392 17.98 120.164 19.396 120.164 21.076V22.192C120.164 23.92 120.404 25.372 120.884 26.548C121.364 27.7 122.084 28.576 123.044 29.176C124.028 29.752 125.288 30.04 126.824 30.04C128.024 30.04 129.068 29.836 129.956 29.428C130.844 29.02 131.528 28.42 132.008 27.628C132.488 26.836 132.728 25.864 132.728 24.712H137.912C137.912 26.896 137.432 28.708 136.472 30.148C135.536 31.588 134.228 32.668 132.548 33.388C130.868 34.084 128.948 34.432 126.788 34.432ZM141.706 34V15.064H145.846L146.242 18.016H146.494C146.734 17.392 147.046 16.828 147.43 16.324C147.814 15.796 148.294 15.376 148.87 15.064C149.446 14.752 150.118 14.596 150.886 14.596C151.294 14.596 151.666 14.644 152.002 14.74C152.338 14.812 152.59 14.884 152.758 14.956V19.492H151.21C150.466 19.492 149.806 19.6 149.23 19.816C148.678 20.008 148.21 20.32 147.826 20.752C147.442 21.184 147.154 21.712 146.962 22.336C146.794 22.96 146.71 23.692 146.71 24.532V34H141.706ZM155.382 12.292V7.972H160.386V12.292H155.382ZM155.382 34V15.064H160.386V34H155.382ZM164.98 40.408V15.064H169.084L169.516 17.62H169.768C170.392 16.588 171.208 15.832 172.216 15.352C173.224 14.872 174.34 14.632 175.564 14.632C177.148 14.632 178.504 14.98 179.632 15.676C180.784 16.372 181.66 17.452 182.26 18.916C182.884 20.38 183.196 22.264 183.196 24.568C183.196 26.8 182.884 28.648 182.26 30.112C181.636 31.576 180.76 32.668 179.632 33.388C178.528 34.084 177.232 34.432 175.744 34.432C174.928 34.432 174.172 34.336 173.476 34.144C172.78 33.976 172.156 33.7 171.604 33.316C171.052 32.932 170.584 32.464 170.2 31.912H169.984V40.408H164.98ZM174.016 30.328C175.024 30.328 175.816 30.136 176.392 29.752C176.992 29.344 177.424 28.744 177.688 27.952C177.952 27.136 178.084 26.14 178.084 24.964V24.136C178.084 22.936 177.952 21.94 177.688 21.148C177.424 20.332 176.992 19.732 176.392 19.348C175.816 18.94 175.024 18.736 174.016 18.736C173.08 18.736 172.312 18.952 171.712 19.384C171.112 19.816 170.668 20.44 170.38 21.256C170.092 22.072 169.948 23.056 169.948 24.208V24.82C169.948 25.66 170.032 26.428 170.2 27.124C170.368 27.796 170.608 28.372 170.92 28.852C171.256 29.332 171.676 29.704 172.18 29.968C172.684 30.208 173.296 30.328 174.016 30.328ZM191.886 34.432C191.262 34.432 190.59 34.36 189.87 34.216C189.174 34.072 188.514 33.82 187.89 33.46C187.266 33.076 186.75 32.536 186.342 31.84C185.958 31.12 185.766 30.208 185.766 29.104C185.766 27.784 186.054 26.692 186.63 25.828C187.206 24.964 188.022 24.292 189.078 23.812C190.158 23.308 191.442 22.96 192.93 22.768C194.418 22.576 196.062 22.48 197.862 22.48V21.076C197.862 20.524 197.766 20.044 197.574 19.636C197.406 19.228 197.094 18.904 196.638 18.664C196.206 18.424 195.594 18.304 194.802 18.304C194.01 18.304 193.362 18.4 192.858 18.592C192.378 18.784 192.03 19.036 191.814 19.348C191.622 19.636 191.526 19.96 191.526 20.32V20.752H186.666C186.642 20.632 186.63 20.524 186.63 20.428C186.63 20.308 186.63 20.164 186.63 19.996C186.63 18.892 186.966 17.944 187.638 17.152C188.31 16.336 189.258 15.712 190.482 15.28C191.706 14.848 193.134 14.632 194.766 14.632C196.518 14.632 197.982 14.86 199.158 15.316C200.358 15.772 201.27 16.444 201.894 17.332C202.542 18.22 202.866 19.336 202.866 20.68V29.284C202.866 29.716 202.986 30.04 203.226 30.256C203.49 30.448 203.778 30.544 204.09 30.544H205.278V33.82C205.038 33.94 204.666 34.06 204.162 34.18C203.658 34.324 203.046 34.396 202.326 34.396C201.63 34.396 201.006 34.288 200.454 34.072C199.926 33.88 199.482 33.604 199.122 33.244C198.762 32.86 198.51 32.404 198.366 31.876H198.114C197.706 32.38 197.202 32.824 196.602 33.208C196.026 33.592 195.342 33.892 194.55 34.108C193.782 34.324 192.894 34.432 191.886 34.432ZM193.578 30.652C194.25 30.652 194.85 30.556 195.378 30.364C195.906 30.148 196.35 29.872 196.71 29.536C197.07 29.176 197.346 28.744 197.538 28.24C197.754 27.736 197.862 27.196 197.862 26.62V25.576C196.518 25.576 195.318 25.672 194.262 25.864C193.206 26.032 192.366 26.332 191.742 26.764C191.142 27.196 190.842 27.796 190.842 28.564C190.842 28.996 190.95 29.368 191.166 29.68C191.382 29.992 191.694 30.232 192.102 30.4C192.51 30.568 193.002 30.652 193.578 30.652ZM207.765 34V15.064H211.905L212.301 18.016H212.553C212.793 17.392 213.105 16.828 213.489 16.324C213.873 15.796 214.353 15.376 214.929 15.064C215.505 14.752 216.177 14.596 216.945 14.596C217.353 14.596 217.725 14.644 218.061 14.74C218.397 14.812 218.649 14.884 218.817 14.956V19.492H217.269C216.525 19.492 215.865 19.6 215.289 19.816C214.737 20.008 214.269 20.32 213.885 20.752C213.501 21.184 213.213 21.712 213.021 22.336C212.853 22.96 212.769 23.692 212.769 24.532V34H207.765Z" fill="white"/>
<path d="M114.064 55.9453V46.3413H119.118C119.827 46.3413 120.415 46.4626 120.882 46.7053C121.349 46.948 121.699 47.2933 121.932 47.7413C122.165 48.1893 122.282 48.7166 122.282 49.3233C122.282 49.9486 122.142 50.504 121.862 50.9893C121.582 51.4653 121.171 51.8246 120.63 52.0673L122.618 55.9453H120.63L118.866 52.3753H115.884V55.9453H114.064ZM115.884 50.8493H118.978C119.445 50.8493 119.804 50.714 120.056 50.4433C120.308 50.1726 120.434 49.7993 120.434 49.3233C120.434 49.0153 120.378 48.7586 120.266 48.5533C120.154 48.3386 119.991 48.1753 119.776 48.0633C119.561 47.9513 119.295 47.8953 118.978 47.8953H115.884V50.8493ZM126.972 56.1133C126.188 56.1133 125.535 55.978 125.012 55.7073C124.49 55.4273 124.098 55.0026 123.836 54.4333C123.575 53.864 123.444 53.1406 123.444 52.2633C123.444 51.3766 123.575 50.6533 123.836 50.0933C124.098 49.524 124.49 49.104 125.012 48.8333C125.535 48.5533 126.188 48.4133 126.972 48.4133C127.682 48.4133 128.274 48.5486 128.75 48.8193C129.236 49.0806 129.6 49.4866 129.842 50.0373C130.085 50.588 130.206 51.302 130.206 52.1793V52.6833H125.194C125.213 53.1406 125.283 53.528 125.404 53.8453C125.526 54.1533 125.712 54.3866 125.964 54.5453C126.226 54.6946 126.566 54.7693 126.986 54.7693C127.201 54.7693 127.402 54.7413 127.588 54.6853C127.775 54.6293 127.938 54.5453 128.078 54.4333C128.218 54.312 128.326 54.1626 128.4 53.9853C128.484 53.808 128.526 53.6026 128.526 53.3693H130.206C130.206 53.836 130.122 54.242 129.954 54.5873C129.796 54.9326 129.567 55.2173 129.268 55.4413C128.979 55.6653 128.638 55.8333 128.246 55.9453C127.854 56.0573 127.43 56.1133 126.972 56.1133ZM125.222 51.4793H128.428C128.428 51.1713 128.391 50.91 128.316 50.6953C128.251 50.4806 128.153 50.3033 128.022 50.1633C127.901 50.0233 127.752 49.9253 127.574 49.8693C127.397 49.804 127.196 49.7713 126.972 49.7713C126.608 49.7713 126.3 49.832 126.048 49.9533C125.806 50.0746 125.619 50.2613 125.488 50.5133C125.358 50.7653 125.269 51.0873 125.222 51.4793ZM131.656 58.3673V48.5813H133.07L133.21 49.5613H133.308C133.551 49.1786 133.868 48.894 134.26 48.7073C134.652 48.5113 135.086 48.4133 135.562 48.4133C136.169 48.4133 136.687 48.5486 137.116 48.8193C137.555 49.09 137.891 49.51 138.124 50.0793C138.367 50.6486 138.488 51.3813 138.488 52.2773C138.488 53.1546 138.367 53.878 138.124 54.4473C137.881 55.0166 137.545 55.4366 137.116 55.7073C136.696 55.978 136.211 56.1133 135.66 56.1133C135.324 56.1133 135.016 56.076 134.736 56.0013C134.456 55.9266 134.209 55.8146 133.994 55.6653C133.779 55.5066 133.597 55.3153 133.448 55.0913H133.364V58.3673H131.656ZM135.03 54.6433C135.45 54.6433 135.781 54.564 136.024 54.4053C136.276 54.2373 136.453 53.9853 136.556 53.6493C136.668 53.3133 136.724 52.8886 136.724 52.3753V52.1793C136.724 51.6566 136.668 51.2273 136.556 50.8913C136.453 50.546 136.276 50.294 136.024 50.1353C135.781 49.9673 135.45 49.8833 135.03 49.8833C134.647 49.8833 134.33 49.972 134.078 50.1493C133.835 50.3266 133.653 50.588 133.532 50.9333C133.42 51.2693 133.364 51.6846 133.364 52.1793V52.3473C133.364 52.7113 133.397 53.038 133.462 53.3273C133.527 53.6073 133.625 53.8453 133.756 54.0413C133.896 54.2373 134.069 54.3866 134.274 54.4893C134.489 54.592 134.741 54.6433 135.03 54.6433ZM141.831 56.1133C141.626 56.1133 141.388 56.0853 141.117 56.0293C140.856 55.9826 140.599 55.8893 140.347 55.7493C140.105 55.6093 139.904 55.404 139.745 55.1333C139.587 54.8533 139.507 54.4893 139.507 54.0413C139.507 53.5373 139.619 53.122 139.843 52.7953C140.067 52.4593 140.38 52.198 140.781 52.0113C141.192 51.8153 141.677 51.68 142.237 51.6053C142.807 51.5213 143.427 51.4793 144.099 51.4793V50.8773C144.099 50.6626 144.067 50.4713 144.001 50.3033C143.936 50.1353 143.815 50.0046 143.637 49.9113C143.469 49.8086 143.213 49.7573 142.867 49.7573C142.522 49.7573 142.251 49.7993 142.055 49.8833C141.859 49.9673 141.724 50.07 141.649 50.1913C141.575 50.3126 141.537 50.4386 141.537 50.5693V50.7653H139.885C139.876 50.7186 139.871 50.672 139.871 50.6253C139.871 50.5786 139.871 50.5226 139.871 50.4573C139.871 50.0373 139.997 49.6733 140.249 49.3653C140.501 49.0573 140.851 48.824 141.299 48.6653C141.747 48.4973 142.265 48.4133 142.853 48.4133C143.525 48.4133 144.076 48.5066 144.505 48.6933C144.944 48.88 145.271 49.146 145.485 49.4913C145.7 49.8366 145.807 50.2566 145.807 50.7513V54.2233C145.807 54.4006 145.859 54.5266 145.961 54.6013C146.064 54.676 146.176 54.7133 146.297 54.7133H146.745V55.8893C146.652 55.9266 146.517 55.9686 146.339 56.0153C146.162 56.0713 145.943 56.0993 145.681 56.0993C145.439 56.0993 145.219 56.0573 145.023 55.9733C144.837 55.8986 144.678 55.7866 144.547 55.6373C144.417 55.488 144.323 55.3106 144.267 55.1053H144.183C144.025 55.3013 143.833 55.4786 143.609 55.6373C143.395 55.7866 143.138 55.9033 142.839 55.9873C142.55 56.0713 142.214 56.1133 141.831 56.1133ZM142.349 54.7133C142.629 54.7133 142.877 54.6713 143.091 54.5873C143.315 54.5033 143.497 54.3866 143.637 54.2373C143.787 54.088 143.899 53.906 143.973 53.6913C144.057 53.4766 144.099 53.2433 144.099 52.9913V52.6553C143.586 52.6553 143.11 52.688 142.671 52.7533C142.242 52.8186 141.897 52.94 141.635 53.1173C141.383 53.2946 141.257 53.5466 141.257 53.8733C141.257 54.0413 141.295 54.1906 141.369 54.3213C141.453 54.4426 141.575 54.5406 141.733 54.6153C141.901 54.6806 142.107 54.7133 142.349 54.7133ZM147.721 47.4473V45.8233H149.429V47.4473H147.721ZM147.721 55.9453V48.5813H149.429V55.9453H147.721ZM151.248 55.9453V48.5813H152.676L152.816 49.7433H152.914C153.007 49.51 153.119 49.2953 153.25 49.0993C153.39 48.894 153.567 48.7306 153.782 48.6093C153.997 48.4786 154.258 48.4133 154.566 48.4133C154.715 48.4133 154.851 48.4273 154.972 48.4553C155.103 48.4833 155.201 48.5113 155.266 48.5393V50.1493H154.748C154.459 50.1493 154.202 50.1913 153.978 50.2753C153.754 50.35 153.563 50.4713 153.404 50.6393C153.255 50.8073 153.143 51.0173 153.068 51.2693C152.993 51.5213 152.956 51.8153 152.956 52.1513V55.9453H151.248ZM162.587 56.1133C162.055 56.1133 161.547 56.0573 161.061 55.9453C160.576 55.824 160.147 55.642 159.773 55.3993C159.4 55.1473 159.106 54.8393 158.891 54.4753C158.677 54.102 158.569 53.6633 158.569 53.1593C158.569 53.1033 158.569 53.0473 158.569 52.9913C158.579 52.9353 158.583 52.8933 158.583 52.8653H160.417C160.417 52.884 160.413 52.9213 160.403 52.9773C160.403 53.024 160.403 53.066 160.403 53.1033C160.403 53.4113 160.492 53.6773 160.669 53.9013C160.847 54.116 161.103 54.284 161.439 54.4053C161.775 54.5173 162.172 54.5733 162.629 54.5733C162.937 54.5733 163.208 54.5546 163.441 54.5173C163.684 54.48 163.889 54.4286 164.057 54.3633C164.235 54.2886 164.379 54.2046 164.491 54.1113C164.603 54.0086 164.683 53.8966 164.729 53.7753C164.785 53.654 164.813 53.5233 164.813 53.3833C164.813 53.1126 164.729 52.8886 164.561 52.7113C164.393 52.534 164.165 52.3846 163.875 52.2633C163.595 52.142 163.273 52.0346 162.909 51.9413C162.555 51.8386 162.186 51.736 161.803 51.6333C161.43 51.5306 161.061 51.4093 160.697 51.2693C160.343 51.12 160.021 50.9426 159.731 50.7373C159.451 50.532 159.227 50.2753 159.059 49.9673C158.891 49.65 158.807 49.272 158.807 48.8333C158.807 48.3853 158.901 47.9933 159.087 47.6573C159.283 47.3213 159.554 47.046 159.899 46.8313C160.254 46.6073 160.665 46.444 161.131 46.3413C161.598 46.2293 162.107 46.1733 162.657 46.1733C163.171 46.1733 163.651 46.2293 164.099 46.3413C164.557 46.444 164.958 46.612 165.303 46.8453C165.649 47.0693 165.919 47.3586 166.115 47.7133C166.311 48.0586 166.409 48.474 166.409 48.9593V49.1273H164.603V48.9873C164.603 48.7166 164.519 48.488 164.351 48.3013C164.193 48.1146 163.964 47.97 163.665 47.8673C163.376 47.7646 163.035 47.7133 162.643 47.7133C162.223 47.7133 161.864 47.7553 161.565 47.8393C161.267 47.914 161.038 48.0306 160.879 48.1893C160.721 48.3386 160.641 48.5253 160.641 48.7493C160.641 48.9826 160.725 49.1786 160.893 49.3373C161.061 49.496 161.285 49.6313 161.565 49.7433C161.855 49.8553 162.177 49.958 162.531 50.0513C162.895 50.1446 163.264 50.2473 163.637 50.3593C164.02 50.462 164.389 50.5833 164.743 50.7233C165.107 50.8633 165.429 51.0406 165.709 51.2553C165.999 51.4606 166.227 51.7173 166.395 52.0253C166.563 52.3333 166.647 52.702 166.647 53.1313C166.647 53.85 166.47 54.4286 166.115 54.8673C165.77 55.306 165.289 55.6233 164.673 55.8193C164.067 56.0153 163.371 56.1133 162.587 56.1133ZM171.351 56.1133C170.567 56.1133 169.914 55.978 169.391 55.7073C168.869 55.4273 168.477 55.0026 168.215 54.4333C167.954 53.864 167.823 53.1406 167.823 52.2633C167.823 51.3766 167.954 50.6533 168.215 50.0933C168.477 49.524 168.869 49.104 169.391 48.8333C169.914 48.5533 170.567 48.4133 171.351 48.4133C172.061 48.4133 172.653 48.5486 173.129 48.8193C173.615 49.0806 173.979 49.4866 174.221 50.0373C174.464 50.588 174.585 51.302 174.585 52.1793V52.6833H169.573C169.592 53.1406 169.662 53.528 169.783 53.8453C169.905 54.1533 170.091 54.3866 170.343 54.5453C170.605 54.6946 170.945 54.7693 171.365 54.7693C171.58 54.7693 171.781 54.7413 171.967 54.6853C172.154 54.6293 172.317 54.5453 172.457 54.4333C172.597 54.312 172.705 54.1626 172.779 53.9853C172.863 53.808 172.905 53.6026 172.905 53.3693H174.585C174.585 53.836 174.501 54.242 174.333 54.5873C174.175 54.9326 173.946 55.2173 173.647 55.4413C173.358 55.6653 173.017 55.8333 172.625 55.9453C172.233 56.0573 171.809 56.1133 171.351 56.1133ZM169.601 51.4793H172.807C172.807 51.1713 172.77 50.91 172.695 50.6953C172.63 50.4806 172.532 50.3033 172.401 50.1633C172.28 50.0233 172.131 49.9253 171.953 49.8693C171.776 49.804 171.575 49.7713 171.351 49.7713C170.987 49.7713 170.679 49.832 170.427 49.9533C170.185 50.0746 169.998 50.2613 169.867 50.5133C169.737 50.7653 169.648 51.0873 169.601 51.4793ZM176.035 55.9453V48.5813H177.463L177.603 49.7433H177.701C177.794 49.51 177.906 49.2953 178.037 49.0993C178.177 48.894 178.354 48.7306 178.569 48.6093C178.784 48.4786 179.045 48.4133 179.353 48.4133C179.502 48.4133 179.638 48.4273 179.759 48.4553C179.89 48.4833 179.988 48.5113 180.053 48.5393V50.1493H179.535C179.246 50.1493 178.989 50.1913 178.765 50.2753C178.541 50.35 178.35 50.4713 178.191 50.6393C178.042 50.8073 177.93 51.0173 177.855 51.2693C177.78 51.5213 177.743 51.8153 177.743 52.1513V55.9453H176.035ZM182.997 55.9453L180.267 48.5813H182.059L183.249 51.8993C183.305 52.058 183.371 52.2726 183.445 52.5433C183.529 52.8046 183.613 53.08 183.697 53.3693C183.781 53.6493 183.851 53.906 183.907 54.1393H183.977C184.033 53.9246 184.099 53.6773 184.173 53.3973C184.248 53.1173 184.323 52.842 184.397 52.5713C184.481 52.3006 184.556 52.0766 184.621 51.8993L185.797 48.5813H187.533L184.789 55.9453H182.997ZM188.517 47.4473V45.8233H190.225V47.4473H188.517ZM188.517 55.9453V48.5813H190.225V55.9453H188.517ZM195.111 56.1133C194.345 56.1133 193.706 55.978 193.193 55.7073C192.689 55.4273 192.311 55.0026 192.059 54.4333C191.807 53.864 191.681 53.1406 191.681 52.2633C191.681 51.3766 191.807 50.6533 192.059 50.0933C192.32 49.524 192.703 49.104 193.207 48.8333C193.72 48.5533 194.355 48.4133 195.111 48.4133C195.605 48.4133 196.044 48.474 196.427 48.5953C196.809 48.7166 197.136 48.9033 197.407 49.1553C197.687 49.398 197.897 49.7013 198.037 50.0653C198.177 50.4293 198.247 50.854 198.247 51.3393H196.511C196.511 50.994 196.459 50.7093 196.357 50.4853C196.254 50.2613 196.095 50.0933 195.881 49.9813C195.675 49.86 195.409 49.7993 195.083 49.7993C194.7 49.7993 194.387 49.888 194.145 50.0653C193.902 50.2426 193.72 50.5086 193.599 50.8633C193.487 51.2086 193.431 51.6473 193.431 52.1793V52.3613C193.431 52.884 193.487 53.3226 193.599 53.6773C193.72 54.032 193.907 54.298 194.159 54.4753C194.411 54.6433 194.742 54.7273 195.153 54.7273C195.47 54.7273 195.731 54.6713 195.937 54.5593C196.151 54.438 196.315 54.2606 196.427 54.0273C196.539 53.794 196.595 53.514 196.595 53.1873H198.247C198.247 53.6446 198.177 54.0553 198.037 54.4193C197.897 54.7833 197.691 55.0913 197.421 55.3433C197.15 55.5953 196.819 55.7866 196.427 55.9173C196.044 56.048 195.605 56.1133 195.111 56.1133ZM202.865 56.1133C202.081 56.1133 201.428 55.978 200.905 55.7073C200.382 55.4273 199.99 55.0026 199.729 54.4333C199.468 53.864 199.337 53.1406 199.337 52.2633C199.337 51.3766 199.468 50.6533 199.729 50.0933C199.99 49.524 200.382 49.104 200.905 48.8333C201.428 48.5533 202.081 48.4133 202.865 48.4133C203.574 48.4133 204.167 48.5486 204.643 48.8193C205.128 49.0806 205.492 49.4866 205.735 50.0373C205.978 50.588 206.099 51.302 206.099 52.1793V52.6833H201.087C201.106 53.1406 201.176 53.528 201.297 53.8453C201.418 54.1533 201.605 54.3866 201.857 54.5453C202.118 54.6946 202.459 54.7693 202.879 54.7693C203.094 54.7693 203.294 54.7413 203.481 54.6853C203.668 54.6293 203.831 54.5453 203.971 54.4333C204.111 54.312 204.218 54.1626 204.293 53.9853C204.377 53.808 204.419 53.6026 204.419 53.3693H206.099C206.099 53.836 206.015 54.242 205.847 54.5873C205.688 54.9326 205.46 55.2173 205.161 55.4413C204.872 55.6653 204.531 55.8333 204.139 55.9453C203.747 56.0573 203.322 56.1133 202.865 56.1133ZM201.115 51.4793H204.321C204.321 51.1713 204.284 50.91 204.209 50.6953C204.144 50.4806 204.046 50.3033 203.915 50.1633C203.794 50.0233 203.644 49.9253 203.467 49.8693C203.29 49.804 203.089 49.7713 202.865 49.7713C202.501 49.7713 202.193 49.832 201.941 49.9533C201.698 50.0746 201.512 50.2613 201.381 50.5133C201.25 50.7653 201.162 51.0873 201.115 51.4793ZM210.419 56.1133C209.887 56.1133 209.42 56.0573 209.019 55.9453C208.617 55.824 208.281 55.6606 208.011 55.4553C207.74 55.25 207.535 55.012 207.395 54.7413C207.264 54.4613 207.199 54.158 207.199 53.8313C207.199 53.7846 207.199 53.7426 207.199 53.7053C207.208 53.668 207.213 53.64 207.213 53.6213H208.893C208.893 53.64 208.893 53.6586 208.893 53.6773C208.893 53.696 208.893 53.7146 208.893 53.7333C208.902 53.9853 208.981 54.1906 209.131 54.3493C209.28 54.4986 209.476 54.606 209.719 54.6713C209.961 54.7366 210.218 54.7693 210.489 54.7693C210.731 54.7693 210.96 54.746 211.175 54.6993C211.399 54.6433 211.581 54.5593 211.721 54.4473C211.87 54.326 211.945 54.172 211.945 53.9853C211.945 53.7426 211.851 53.556 211.665 53.4253C211.478 53.2946 211.231 53.1873 210.923 53.1033C210.624 53.0193 210.302 52.9306 209.957 52.8373C209.649 52.7533 209.341 52.66 209.033 52.5573C208.725 52.4546 208.445 52.324 208.193 52.1653C207.95 52.0066 207.749 51.8013 207.591 51.5493C207.441 51.2973 207.367 50.9846 207.367 50.6113C207.367 50.2473 207.446 49.93 207.605 49.6593C207.763 49.3886 207.983 49.1646 208.263 48.9873C208.543 48.8006 208.874 48.6606 209.257 48.5673C209.639 48.474 210.055 48.4273 210.503 48.4273C210.941 48.4273 211.338 48.474 211.693 48.5673C212.057 48.6606 212.369 48.796 212.631 48.9733C212.901 49.1413 213.107 49.3513 213.247 49.6033C213.396 49.846 213.471 50.1166 213.471 50.4153C213.471 50.4806 213.466 50.546 213.457 50.6113C213.457 50.6766 213.457 50.714 213.457 50.7233H211.791V50.6253C211.791 50.448 211.735 50.2986 211.623 50.1773C211.52 50.0466 211.366 49.944 211.161 49.8693C210.965 49.7946 210.717 49.7573 210.419 49.7573C210.195 49.7573 209.999 49.776 209.831 49.8133C209.663 49.8506 209.523 49.902 209.411 49.9673C209.308 50.0326 209.229 50.1073 209.173 50.1913C209.117 50.2753 209.089 50.3686 209.089 50.4713C209.089 50.6486 209.159 50.7886 209.299 50.8913C209.439 50.994 209.625 51.0826 209.859 51.1573C210.101 51.232 210.363 51.3113 210.643 51.3953C210.979 51.4886 211.324 51.5866 211.679 51.6893C212.033 51.7826 212.36 51.904 212.659 52.0533C212.967 52.2026 213.214 52.4126 213.401 52.6833C213.587 52.954 213.681 53.3133 213.681 53.7613C213.681 54.1906 213.597 54.5593 213.429 54.8673C213.27 55.166 213.041 55.4086 212.743 55.5953C212.453 55.7726 212.108 55.9033 211.707 55.9873C211.315 56.0713 210.885 56.1133 210.419 56.1133Z" fill="white"/>
</svg>
