<svg width="1920" height="689" viewBox="0 0 1920 689" fill="none" xmlns="http://www.w3.org/2000/svg">
<rect width="1920" height="689" fill="#01133C"/>
<g style="mix-blend-mode:plus-darker" opacity="0.43" clip-path="url(#clip0_1_26241)">
<mask id="mask0_1_26241" style="mask-type:luminance" maskUnits="userSpaceOnUse" x="-14" y="-296" width="1974" height="1316">
<path d="M1960 -296H-14V1020H1960V-296Z" fill="white"/>
</mask>
<g mask="url(#mask0_1_26241)">
<path d="M973.594 362.508L1062.67 1390.97H884.518L973.594 362.508Z" fill="url(#paint0_linear_1_26241)"/>
<path d="M973.594 362.508L887.296 1391.12L710.773 1372.04L973.594 362.508Z" fill="url(#paint1_linear_1_26241)"/>
<path d="M973.594 362.508L887.296 1391.12L710.773 1372.04L973.594 362.508Z" fill="url(#paint2_linear_1_26241)"/>
<path d="M973.595 362.508L713.502 1372.48L541.828 1334.66L973.595 362.508Z" fill="url(#paint3_linear_1_26241)"/>
<path d="M973.595 362.508L713.502 1372.48L541.828 1334.66L973.595 362.508Z" fill="url(#paint4_linear_1_26241)"/>
<path d="M973.591 362.508L544.452 1335.4L380.77 1279.53L973.591 362.508Z" fill="url(#paint5_linear_1_26241)"/>
<path d="M973.591 362.508L544.452 1335.4L380.77 1279.53L973.591 362.508Z" fill="url(#paint6_linear_1_26241)"/>
<path d="M973.594 362.508L383.249 1280.54L230.543 1207.65L973.594 362.508Z" fill="url(#paint7_linear_1_26241)"/>
<path d="M973.594 362.508L383.249 1280.54L230.543 1207.65L973.594 362.508Z" fill="url(#paint8_linear_1_26241)"/>
<path d="M973.594 362.508L232.823 1208.92L93.8848 1120.33L973.594 362.508Z" fill="url(#paint9_linear_1_26241)"/>
<path d="M973.594 362.508L232.823 1208.92L93.8848 1120.33L973.594 362.508Z" fill="url(#paint10_linear_1_26241)"/>
<path d="M973.595 362.508L95.9323 1121.83L-26.707 1019.17L973.595 362.508Z" fill="url(#paint11_linear_1_26241)"/>
<path d="M973.595 362.508L95.9323 1121.83L-26.707 1019.17L973.595 362.508Z" fill="url(#paint12_linear_1_26241)"/>
<path d="M973.593 362.508L-24.9308 1020.88L-129.027 906.02L973.593 362.508Z" fill="url(#paint13_linear_1_26241)"/>
<path d="M973.593 362.508L-24.9308 1020.88L-129.027 906.02L973.593 362.508Z" fill="url(#paint14_linear_1_26241)"/>
<path d="M973.594 362.508L-127.555 907.898L-211.203 782.938L973.594 362.508Z" fill="url(#paint15_linear_1_26241)"/>
<path d="M973.594 362.508L-127.555 907.898L-211.203 782.938L973.594 362.508Z" fill="url(#paint16_linear_1_26241)"/>
<path d="M973.595 362.508L-210.065 784.958L-271.738 652.179L973.595 362.508Z" fill="url(#paint17_linear_1_26241)"/>
<path d="M973.595 362.508L-210.065 784.958L-271.738 652.179L973.595 362.508Z" fill="url(#paint18_linear_1_26241)"/>
<path d="M973.594 362.508L-270.958 654.299L-309.533 516.128L973.594 362.508Z" fill="url(#paint19_linear_1_26241)"/>
<path d="M973.594 362.508L-270.958 654.299L-309.533 516.128L973.594 362.508Z" fill="url(#paint20_linear_1_26241)"/>
<path d="M973.593 362.508L-309.114 518.312L-323.887 377.267L973.593 362.508Z" fill="url(#paint21_linear_1_26241)"/>
<path d="M973.593 362.508L-309.114 518.312L-323.887 377.267L973.593 362.508Z" fill="url(#paint22_linear_1_26241)"/>
<path d="M973.591 362.509L-323.848 379.48L-314.544 238.143L973.591 362.509Z" fill="url(#paint23_linear_1_26241)"/>
<path d="M973.591 362.509L-323.848 379.48L-314.544 238.143L973.591 362.509Z" fill="url(#paint24_linear_1_26241)"/>
<path d="M973.594 362.508L-314.875 240.339L-281.669 101.286L973.594 362.508Z" fill="url(#paint25_linear_1_26241)"/>
<path d="M973.594 362.508L-314.875 240.339L-281.669 101.286L973.594 362.508Z" fill="url(#paint26_linear_1_26241)"/>
<path d="M973.594 362.509L-282.373 103.426L-225.867 -30.7969L973.594 362.509Z" fill="url(#paint27_linear_1_26241)"/>
<path d="M973.594 362.509L-282.373 103.426L-225.867 -30.7969L973.594 362.509Z" fill="url(#paint28_linear_1_26241)"/>
<path d="M973.595 362.509L-226.926 -28.7499L-148.158 -155.698L973.595 362.509Z" fill="url(#paint29_linear_1_26241)"/>
<path d="M973.595 362.509L-226.926 -28.7499L-148.158 -155.698L973.595 362.509Z" fill="url(#paint30_linear_1_26241)"/>
<path d="M973.593 362.507L-149.559 -153.785L-49.963 -271.133L973.593 362.507Z" fill="url(#paint31_linear_1_26241)"/>
<path d="M973.593 362.507L-149.559 -153.785L-49.963 -271.133L973.593 362.507Z" fill="url(#paint32_linear_1_26241)"/>
<path d="M973.595 362.508L-51.6699 -269.387L66.9346 -374.991L973.595 362.508Z" fill="url(#paint33_linear_1_26241)"/>
<path d="M973.595 362.508L-51.6699 -269.387L66.9346 -374.991L973.595 362.508Z" fill="url(#paint34_linear_1_26241)"/>
<path d="M973.595 362.507L64.9473 -373.448L200.39 -465.385L973.595 362.507Z" fill="url(#paint35_linear_1_26241)"/>
<path d="M973.595 362.507L64.9473 -373.448L200.39 -465.385L973.595 362.507Z" fill="url(#paint36_linear_1_26241)"/>
<path d="M973.596 362.508L198.156 -464.063L347.97 -540.651L973.596 362.508Z" fill="url(#paint37_linear_1_26241)"/>
<path d="M973.596 362.508L198.156 -464.063L347.97 -540.651L973.596 362.508Z" fill="url(#paint38_linear_1_26241)"/>
<path d="M973.593 362.507L345.527 -539.583L506.97 -599.425L973.593 362.507Z" fill="url(#paint39_linear_1_26241)"/>
<path d="M973.593 362.507L345.527 -539.583L506.97 -599.425L973.593 362.507Z" fill="url(#paint40_linear_1_26241)"/>
<path d="M973.593 362.508L504.375 -598.625L674.5 -640.627L973.593 362.508Z" fill="url(#paint41_linear_1_26241)"/>
<path d="M973.593 362.508L504.375 -598.625L674.5 -640.627L973.593 362.508Z" fill="url(#paint42_linear_1_26241)"/>
<path d="M973.594 362.507L671.791 -640.116L847.491 -663.502L973.594 362.507Z" fill="url(#paint43_linear_1_26241)"/>
<path d="M973.594 362.507L671.791 -640.116L847.491 -663.502L973.594 362.507Z" fill="url(#paint44_linear_1_26241)"/>
<path d="M973.595 362.509L844.723 -663.286L1022.79 -667.641L973.595 362.509Z" fill="url(#paint45_linear_1_26241)"/>
<path d="M973.595 362.509L844.723 -663.286L1022.79 -667.641L973.595 362.509Z" fill="url(#paint46_linear_1_26241)"/>
<path d="M973.594 362.508L1020.01 -667.724L1197.18 -652.964L973.594 362.508Z" fill="url(#paint47_linear_1_26241)"/>
<path d="M973.594 362.508L1020.01 -667.724L1197.18 -652.964L973.594 362.508Z" fill="url(#paint48_linear_1_26241)"/>
<path d="M973.594 362.508L1194.44 -653.344L1367.49 -619.74L973.594 362.508Z" fill="url(#paint49_linear_1_26241)"/>
<path d="M973.594 362.508L1194.44 -653.344L1367.49 -619.74L973.594 362.508Z" fill="url(#paint50_linear_1_26241)"/>
<path d="M973.594 362.508L1364.84 -620.407L1530.61 -568.571L973.594 362.508Z" fill="url(#paint51_linear_1_26241)"/>
<path d="M973.594 362.508L1364.84 -620.407L1530.61 -568.571L973.594 362.508Z" fill="url(#paint52_linear_1_26241)"/>
<path d="M973.594 362.509L1528.1 -569.516L1683.56 -500.394L973.594 362.509Z" fill="url(#paint53_linear_1_26241)"/>
<path d="M973.594 362.509L1528.1 -569.516L1683.56 -500.394L973.594 362.509Z" fill="url(#paint54_linear_1_26241)"/>
<path d="M973.594 362.508L1681.22 -501.606L1823.53 -416.459L973.594 362.508Z" fill="url(#paint55_linear_1_26241)"/>
<path d="M973.594 362.508L1681.22 -501.606L1823.53 -416.459L973.594 362.508Z" fill="url(#paint56_linear_1_26241)"/>
<path d="M973.594 362.507L1821.43 -417.908L1947.98 -318.299L973.594 362.507Z" fill="url(#paint57_linear_1_26241)"/>
<path d="M973.594 362.507L1821.43 -417.908L1947.98 -318.299L973.594 362.507Z" fill="url(#paint58_linear_1_26241)"/>
<path d="M973.594 362.508L1946.14 -319.957L2054.64 -207.7L973.594 362.508Z" fill="url(#paint59_linear_1_26241)"/>
<path d="M973.594 362.508L1946.14 -319.957L2054.64 -207.7L973.594 362.508Z" fill="url(#paint60_linear_1_26241)"/>
<path d="M973.594 362.508L2053.09 -209.541L2141.54 -86.6869L973.594 362.508Z" fill="url(#paint61_linear_1_26241)"/>
<path d="M973.594 362.508L2053.09 -209.541L2141.54 -86.6869L973.594 362.508Z" fill="url(#paint62_linear_1_26241)"/>
<path d="M973.594 362.509L2140.33 -88.6738L2207.12 42.5332L973.594 362.509Z" fill="url(#paint63_linear_1_26241)"/>
<path d="M973.594 362.509L2140.33 -88.6738L2207.12 42.5332L973.594 362.509Z" fill="url(#paint64_linear_1_26241)"/>
<path d="M973.594 362.508L2206.25 40.4307L2250.16 177.596L973.594 362.508Z" fill="url(#paint65_linear_1_26241)"/>
<path d="M973.594 362.508L2206.25 40.4307L2250.16 177.596L973.594 362.508Z" fill="url(#paint66_linear_1_26241)"/>
<path d="M973.594 362.509L2249.66 175.422L2269.89 316.037L973.594 362.509Z" fill="url(#paint67_linear_1_26241)"/>
<path d="M973.594 362.509L2249.66 175.422L2269.89 316.037L973.594 362.509Z" fill="url(#paint68_linear_1_26241)"/>
<path d="M973.594 362.508L2269.76 313.83L2265.94 455.328L973.594 362.508Z" fill="url(#paint69_linear_1_26241)"/>
<path d="M973.594 362.508L2269.76 313.83L2265.94 455.328L973.594 362.508Z" fill="url(#paint70_linear_1_26241)"/>
<path d="M973.594 362.508L2266.18 453.125L2238.38 592.922L973.594 362.508Z" fill="url(#paint71_linear_1_26241)"/>
<path d="M973.594 362.508L2266.18 453.125L2238.38 592.922L973.594 362.508Z" fill="url(#paint72_linear_1_26241)"/>
<path d="M973.594 362.508L2239 590.765L2187.72 726.309L973.594 362.508Z" fill="url(#paint73_linear_1_26241)"/>
<path d="M973.594 362.508L2239 590.765L2187.72 726.309L973.594 362.508Z" fill="url(#paint74_linear_1_26241)"/>
<path d="M973.594 362.508L2188.7 724.234L2114.89 853.047L973.594 362.508Z" fill="url(#paint75_linear_1_26241)"/>
<path d="M973.594 362.508L2188.7 724.234L2114.89 853.047L973.594 362.508Z" fill="url(#paint76_linear_1_26241)"/>
<path d="M973.594 362.508L2116.21 851.1L2021.21 970.829L973.594 362.508Z" fill="url(#paint77_linear_1_26241)"/>
<path d="M973.594 362.508L2116.21 851.1L2021.21 970.829L973.594 362.508Z" fill="url(#paint78_linear_1_26241)"/>
<path d="M973.594 362.508L2022.85 969.042L1908.39 1077.5L973.594 362.508Z" fill="url(#paint79_linear_1_26241)"/>
<path d="M973.594 362.508L2022.85 969.042L1908.39 1077.5L973.594 362.508Z" fill="url(#paint80_linear_1_26241)"/>
<path d="M973.594 362.508L1910.32 1075.9L1778.5 1171.11L973.594 362.508Z" fill="url(#paint81_linear_1_26241)"/>
<path d="M973.594 362.508L1910.32 1075.9L1778.5 1171.11L973.594 362.508Z" fill="url(#paint82_linear_1_26241)"/>
<path d="M973.594 362.508L1780.68 1169.73L1633.91 1249.95L973.594 362.508Z" fill="url(#paint83_linear_1_26241)"/>
<path d="M973.594 362.508L1780.68 1169.73L1633.91 1249.95L973.594 362.508Z" fill="url(#paint84_linear_1_26241)"/>
<path d="M973.594 362.508L1636.3 1248.82L1477.25 1312.58L973.594 362.508Z" fill="url(#paint85_linear_1_26241)"/>
<path d="M973.594 362.508L1661.27 1236.73L1504.07 1303.32L973.594 362.508Z" fill="url(#paint86_linear_1_26241)"/>
<path d="M973.594 362.508L1479.82 1311.72L1311.4 1357.86L973.594 362.508Z" fill="url(#paint87_linear_1_26241)"/>
<path d="M973.594 362.508L1528 1294.57L1362.08 1346.12L973.594 362.508Z" fill="url(#paint88_linear_1_26241)"/>
<path d="M973.594 362.508L1314.09 1357.28L1139.38 1384.95L973.594 362.508Z" fill="url(#paint89_linear_1_26241)"/>
<path d="M973.594 362.508L1379.77 1341.6L1207.14 1376.57L973.594 362.508Z" fill="url(#paint90_linear_1_26241)"/>
<path d="M973.594 362.508L1224.35 1373.97L1047.61 1391.72L973.594 362.508Z" fill="url(#paint91_linear_1_26241)"/>
</g>
</g>
<defs>
<linearGradient id="paint0_linear_1_26241" x1="935.03" y1="878.279" x2="1190.39" y2="944.029" gradientUnits="userSpaceOnUse">
<stop stop-color="white"/>
<stop offset="0.2937" stop-color="#F3F3F3"/>
<stop offset="0.824" stop-color="#D3D3D3"/>
<stop offset="1" stop-color="#C7C7C7"/>
</linearGradient>
<linearGradient id="paint1_linear_1_26241" x1="854.433" y1="872.27" x2="1074.23" y2="961.905" gradientUnits="userSpaceOnUse">
<stop stop-color="white"/>
<stop offset="0.2937" stop-color="#F3F3F3"/>
<stop offset="0.824" stop-color="#D3D3D3"/>
<stop offset="1" stop-color="#C7C7C7"/>
</linearGradient>
<linearGradient id="paint2_linear_1_26241" x1="854.433" y1="872.27" x2="1074.23" y2="961.905" gradientUnits="userSpaceOnUse">
<stop stop-color="white"/>
<stop offset="0.2937" stop-color="#F3F3F3"/>
<stop offset="0.824" stop-color="#D3D3D3"/>
<stop offset="1" stop-color="#C7C7C7"/>
</linearGradient>
<linearGradient id="paint3_linear_1_26241" x1="773.916" y1="857.919" x2="959.704" y2="964.913" gradientUnits="userSpaceOnUse">
<stop stop-color="white"/>
<stop offset="0.2937" stop-color="#F3F3F3"/>
<stop offset="0.824" stop-color="#D3D3D3"/>
<stop offset="1" stop-color="#C7C7C7"/>
</linearGradient>
<linearGradient id="paint4_linear_1_26241" x1="773.916" y1="857.919" x2="959.704" y2="964.913" gradientUnits="userSpaceOnUse">
<stop stop-color="white"/>
<stop offset="0.2937" stop-color="#F3F3F3"/>
<stop offset="0.824" stop-color="#D3D3D3"/>
<stop offset="1" stop-color="#C7C7C7"/>
</linearGradient>
<linearGradient id="paint5_linear_1_26241" x1="694.756" y1="834.599" x2="850.122" y2="954.622" gradientUnits="userSpaceOnUse">
<stop stop-color="white"/>
<stop offset="0.2937" stop-color="#F3F3F3"/>
<stop offset="0.824" stop-color="#D3D3D3"/>
<stop offset="1" stop-color="#C7C7C7"/>
</linearGradient>
<linearGradient id="paint6_linear_1_26241" x1="694.756" y1="834.599" x2="850.122" y2="954.622" gradientUnits="userSpaceOnUse">
<stop stop-color="white"/>
<stop offset="0.2937" stop-color="#F3F3F3"/>
<stop offset="0.824" stop-color="#D3D3D3"/>
<stop offset="1" stop-color="#C7C7C7"/>
</linearGradient>
<linearGradient id="paint7_linear_1_26241" x1="618.554" y1="801.82" x2="748.036" y2="933.29" gradientUnits="userSpaceOnUse">
<stop stop-color="white"/>
<stop offset="0.2937" stop-color="#F3F3F3"/>
<stop offset="0.824" stop-color="#D3D3D3"/>
<stop offset="1" stop-color="#C7C7C7"/>
</linearGradient>
<linearGradient id="paint8_linear_1_26241" x1="618.554" y1="801.82" x2="748.036" y2="933.29" gradientUnits="userSpaceOnUse">
<stop stop-color="white"/>
<stop offset="0.2937" stop-color="#F3F3F3"/>
<stop offset="0.824" stop-color="#D3D3D3"/>
<stop offset="1" stop-color="#C7C7C7"/>
</linearGradient>
<linearGradient id="paint9_linear_1_26241" x1="547.193" y1="759.398" x2="654.967" y2="903.398" gradientUnits="userSpaceOnUse">
<stop stop-color="white"/>
<stop offset="0.2937" stop-color="#F3F3F3"/>
<stop offset="0.824" stop-color="#D3D3D3"/>
<stop offset="1" stop-color="#C7C7C7"/>
</linearGradient>
<linearGradient id="paint10_linear_1_26241" x1="547.193" y1="759.398" x2="654.967" y2="903.398" gradientUnits="userSpaceOnUse">
<stop stop-color="white"/>
<stop offset="0.2937" stop-color="#F3F3F3"/>
<stop offset="0.824" stop-color="#D3D3D3"/>
<stop offset="1" stop-color="#C7C7C7"/>
</linearGradient>
<linearGradient id="paint11_linear_1_26241" x1="482.768" y1="707.616" x2="571.474" y2="867.217" gradientUnits="userSpaceOnUse">
<stop stop-color="white"/>
<stop offset="0.2937" stop-color="#F3F3F3"/>
<stop offset="0.824" stop-color="#D3D3D3"/>
<stop offset="1" stop-color="#C7C7C7"/>
</linearGradient>
<linearGradient id="paint12_linear_1_26241" x1="482.768" y1="707.616" x2="571.474" y2="867.217" gradientUnits="userSpaceOnUse">
<stop stop-color="white"/>
<stop offset="0.2937" stop-color="#F3F3F3"/>
<stop offset="0.824" stop-color="#D3D3D3"/>
<stop offset="1" stop-color="#C7C7C7"/>
</linearGradient>
<linearGradient id="paint13_linear_1_26241" x1="427.34" y1="647.222" x2="497.363" y2="826.677" gradientUnits="userSpaceOnUse">
<stop stop-color="white"/>
<stop offset="0.2937" stop-color="#F3F3F3"/>
<stop offset="0.824" stop-color="#D3D3D3"/>
<stop offset="1" stop-color="#C7C7C7"/>
</linearGradient>
<linearGradient id="paint14_linear_1_26241" x1="427.34" y1="647.222" x2="497.363" y2="826.677" gradientUnits="userSpaceOnUse">
<stop stop-color="white"/>
<stop offset="0.2937" stop-color="#F3F3F3"/>
<stop offset="0.824" stop-color="#D3D3D3"/>
<stop offset="1" stop-color="#C7C7C7"/>
</linearGradient>
<linearGradient id="paint15_linear_1_26241" x1="382.836" y1="579.523" x2="431.905" y2="782.917" gradientUnits="userSpaceOnUse">
<stop stop-color="white"/>
<stop offset="0.2937" stop-color="#F3F3F3"/>
<stop offset="0.824" stop-color="#D3D3D3"/>
<stop offset="1" stop-color="#C7C7C7"/>
</linearGradient>
<linearGradient id="paint16_linear_1_26241" x1="382.836" y1="579.523" x2="431.905" y2="782.917" gradientUnits="userSpaceOnUse">
<stop stop-color="white"/>
<stop offset="0.2937" stop-color="#F3F3F3"/>
<stop offset="0.824" stop-color="#D3D3D3"/>
<stop offset="1" stop-color="#C7C7C7"/>
</linearGradient>
<linearGradient id="paint17_linear_1_26241" x1="350.824" y1="506.329" x2="374.238" y2="736.232" gradientUnits="userSpaceOnUse">
<stop stop-color="white"/>
<stop offset="0.2937" stop-color="#F3F3F3"/>
<stop offset="0.824" stop-color="#D3D3D3"/>
<stop offset="1" stop-color="#C7C7C7"/>
</linearGradient>
<linearGradient id="paint18_linear_1_26241" x1="350.824" y1="506.329" x2="374.238" y2="736.232" gradientUnits="userSpaceOnUse">
<stop stop-color="white"/>
<stop offset="0.2937" stop-color="#F3F3F3"/>
<stop offset="0.824" stop-color="#D3D3D3"/>
<stop offset="1" stop-color="#C7C7C7"/>
</linearGradient>
<linearGradient id="paint19_linear_1_26241" x1="332.354" y1="429.74" x2="323.682" y2="686.322" gradientUnits="userSpaceOnUse">
<stop stop-color="white"/>
<stop offset="0.2937" stop-color="#F3F3F3"/>
<stop offset="0.824" stop-color="#D3D3D3"/>
<stop offset="1" stop-color="#C7C7C7"/>
</linearGradient>
<linearGradient id="paint20_linear_1_26241" x1="332.354" y1="429.74" x2="323.682" y2="686.322" gradientUnits="userSpaceOnUse">
<stop stop-color="white"/>
<stop offset="0.2937" stop-color="#F3F3F3"/>
<stop offset="0.824" stop-color="#D3D3D3"/>
<stop offset="1" stop-color="#C7C7C7"/>
</linearGradient>
<linearGradient id="paint21_linear_1_26241" x1="327.888" y1="352.101" x2="280.083" y2="632.239" gradientUnits="userSpaceOnUse">
<stop stop-color="white"/>
<stop offset="0.2937" stop-color="#F3F3F3"/>
<stop offset="0.824" stop-color="#D3D3D3"/>
<stop offset="1" stop-color="#C7C7C7"/>
</linearGradient>
<linearGradient id="paint22_linear_1_26241" x1="327.888" y1="352.101" x2="280.083" y2="632.239" gradientUnits="userSpaceOnUse">
<stop stop-color="white"/>
<stop offset="0.2937" stop-color="#F3F3F3"/>
<stop offset="0.824" stop-color="#D3D3D3"/>
<stop offset="1" stop-color="#C7C7C7"/>
</linearGradient>
<linearGradient id="paint23_linear_1_26241" x1="337.252" y1="275.712" x2="243.935" y2="572.911" gradientUnits="userSpaceOnUse">
<stop stop-color="white"/>
<stop offset="0.2937" stop-color="#F3F3F3"/>
<stop offset="0.824" stop-color="#D3D3D3"/>
<stop offset="1" stop-color="#C7C7C7"/>
</linearGradient>
<linearGradient id="paint24_linear_1_26241" x1="337.252" y1="275.712" x2="243.935" y2="572.911" gradientUnits="userSpaceOnUse">
<stop stop-color="white"/>
<stop offset="0.2937" stop-color="#F3F3F3"/>
<stop offset="0.824" stop-color="#D3D3D3"/>
<stop offset="1" stop-color="#C7C7C7"/>
</linearGradient>
<linearGradient id="paint25_linear_1_26241" x1="359.707" y1="202.665" x2="216.423" y2="507.412" gradientUnits="userSpaceOnUse">
<stop stop-color="white"/>
<stop offset="0.2937" stop-color="#F3F3F3"/>
<stop offset="0.824" stop-color="#D3D3D3"/>
<stop offset="1" stop-color="#C7C7C7"/>
</linearGradient>
<linearGradient id="paint26_linear_1_26241" x1="359.707" y1="202.665" x2="216.423" y2="507.412" gradientUnits="userSpaceOnUse">
<stop stop-color="white"/>
<stop offset="0.2937" stop-color="#F3F3F3"/>
<stop offset="0.824" stop-color="#D3D3D3"/>
<stop offset="1" stop-color="#C7C7C7"/>
</linearGradient>
<linearGradient id="paint27_linear_1_26241" x1="394.013" y1="134.747" x2="199.363" y2="435.26" gradientUnits="userSpaceOnUse">
<stop stop-color="white"/>
<stop offset="0.2937" stop-color="#F3F3F3"/>
<stop offset="0.824" stop-color="#D3D3D3"/>
<stop offset="1" stop-color="#C7C7C7"/>
</linearGradient>
<linearGradient id="paint28_linear_1_26241" x1="394.013" y1="134.747" x2="199.363" y2="435.26" gradientUnits="userSpaceOnUse">
<stop stop-color="white"/>
<stop offset="0.2937" stop-color="#F3F3F3"/>
<stop offset="0.824" stop-color="#D3D3D3"/>
<stop offset="1" stop-color="#C7C7C7"/>
</linearGradient>
<linearGradient id="paint29_linear_1_26241" x1="438.631" y1="73.264" x2="194.917" y2="356.769" gradientUnits="userSpaceOnUse">
<stop stop-color="white"/>
<stop offset="0.2937" stop-color="#F3F3F3"/>
<stop offset="0.824" stop-color="#D3D3D3"/>
<stop offset="1" stop-color="#C7C7C7"/>
</linearGradient>
<linearGradient id="paint30_linear_1_26241" x1="438.631" y1="73.264" x2="194.917" y2="356.769" gradientUnits="userSpaceOnUse">
<stop stop-color="white"/>
<stop offset="0.2937" stop-color="#F3F3F3"/>
<stop offset="0.824" stop-color="#D3D3D3"/>
<stop offset="1" stop-color="#C7C7C7"/>
</linearGradient>
<linearGradient id="paint31_linear_1_26241" x1="491.846" y1="19.0558" x2="205.308" y2="273.163" gradientUnits="userSpaceOnUse">
<stop stop-color="white"/>
<stop offset="0.2937" stop-color="#F3F3F3"/>
<stop offset="0.824" stop-color="#D3D3D3"/>
<stop offset="1" stop-color="#C7C7C7"/>
</linearGradient>
<linearGradient id="paint32_linear_1_26241" x1="491.846" y1="19.0558" x2="205.308" y2="273.163" gradientUnits="userSpaceOnUse">
<stop stop-color="white"/>
<stop offset="0.2937" stop-color="#F3F3F3"/>
<stop offset="0.824" stop-color="#D3D3D3"/>
<stop offset="1" stop-color="#C7C7C7"/>
</linearGradient>
<linearGradient id="paint33_linear_1_26241" x1="552.012" y1="-27.5103" x2="232.349" y2="186.645" gradientUnits="userSpaceOnUse">
<stop stop-color="white"/>
<stop offset="0.2937" stop-color="#F3F3F3"/>
<stop offset="0.824" stop-color="#D3D3D3"/>
<stop offset="1" stop-color="#C7C7C7"/>
</linearGradient>
<linearGradient id="paint34_linear_1_26241" x1="552.012" y1="-27.5103" x2="232.349" y2="186.645" gradientUnits="userSpaceOnUse">
<stop stop-color="white"/>
<stop offset="0.2937" stop-color="#F3F3F3"/>
<stop offset="0.824" stop-color="#D3D3D3"/>
<stop offset="1" stop-color="#C7C7C7"/>
</linearGradient>
<linearGradient id="paint35_linear_1_26241" x1="617.643" y1="-66.434" x2="277.093" y2="100.189" gradientUnits="userSpaceOnUse">
<stop stop-color="white"/>
<stop offset="0.2937" stop-color="#F3F3F3"/>
<stop offset="0.824" stop-color="#D3D3D3"/>
<stop offset="1" stop-color="#C7C7C7"/>
</linearGradient>
<linearGradient id="paint36_linear_1_26241" x1="617.643" y1="-66.434" x2="277.093" y2="100.189" gradientUnits="userSpaceOnUse">
<stop stop-color="white"/>
<stop offset="0.2937" stop-color="#F3F3F3"/>
<stop offset="0.824" stop-color="#D3D3D3"/>
<stop offset="1" stop-color="#C7C7C7"/>
</linearGradient>
<linearGradient id="paint37_linear_1_26241" x1="687.522" y1="-97.9244" x2="339.623" y2="17.2746" gradientUnits="userSpaceOnUse">
<stop stop-color="white"/>
<stop offset="0.2937" stop-color="#F3F3F3"/>
<stop offset="0.824" stop-color="#D3D3D3"/>
<stop offset="1" stop-color="#C7C7C7"/>
</linearGradient>
<linearGradient id="paint38_linear_1_26241" x1="687.522" y1="-97.9244" x2="339.623" y2="17.2746" gradientUnits="userSpaceOnUse">
<stop stop-color="white"/>
<stop offset="0.2937" stop-color="#F3F3F3"/>
<stop offset="0.824" stop-color="#D3D3D3"/>
<stop offset="1" stop-color="#C7C7C7"/>
</linearGradient>
<linearGradient id="paint39_linear_1_26241" x1="760.695" y1="-122.267" x2="418.914" y2="-58.4722" gradientUnits="userSpaceOnUse">
<stop stop-color="white"/>
<stop offset="0.2937" stop-color="#F3F3F3"/>
<stop offset="0.824" stop-color="#D3D3D3"/>
<stop offset="1" stop-color="#C7C7C7"/>
</linearGradient>
<linearGradient id="paint40_linear_1_26241" x1="760.695" y1="-122.267" x2="418.914" y2="-58.4722" gradientUnits="userSpaceOnUse">
<stop stop-color="white"/>
<stop offset="0.2937" stop-color="#F3F3F3"/>
<stop offset="0.824" stop-color="#D3D3D3"/>
<stop offset="1" stop-color="#C7C7C7"/>
</linearGradient>
<linearGradient id="paint41_linear_1_26241" x1="836.513" y1="-139.671" x2="512.7" y2="-123.722" gradientUnits="userSpaceOnUse">
<stop stop-color="white"/>
<stop offset="0.2937" stop-color="#F3F3F3"/>
<stop offset="0.824" stop-color="#D3D3D3"/>
<stop offset="1" stop-color="#C7C7C7"/>
</linearGradient>
<linearGradient id="paint42_linear_1_26241" x1="836.513" y1="-139.671" x2="512.7" y2="-123.722" gradientUnits="userSpaceOnUse">
<stop stop-color="white"/>
<stop offset="0.2937" stop-color="#F3F3F3"/>
<stop offset="0.824" stop-color="#D3D3D3"/>
<stop offset="1" stop-color="#C7C7C7"/>
</linearGradient>
<linearGradient id="paint43_linear_1_26241" x1="914.391" y1="-150.166" x2="617.919" y2="-175.708" gradientUnits="userSpaceOnUse">
<stop stop-color="white"/>
<stop offset="0.2937" stop-color="#F3F3F3"/>
<stop offset="0.824" stop-color="#D3D3D3"/>
<stop offset="1" stop-color="#C7C7C7"/>
</linearGradient>
<linearGradient id="paint44_linear_1_26241" x1="914.391" y1="-150.166" x2="617.919" y2="-175.708" gradientUnits="userSpaceOnUse">
<stop stop-color="white"/>
<stop offset="0.2937" stop-color="#F3F3F3"/>
<stop offset="0.824" stop-color="#D3D3D3"/>
<stop offset="1" stop-color="#C7C7C7"/>
</linearGradient>
<linearGradient id="paint45_linear_1_26241" x1="993.896" y1="-153.531" x2="730.563" y2="-212.751" gradientUnits="userSpaceOnUse">
<stop stop-color="white"/>
<stop offset="0.2937" stop-color="#F3F3F3"/>
<stop offset="0.824" stop-color="#D3D3D3"/>
<stop offset="1" stop-color="#C7C7C7"/>
</linearGradient>
<linearGradient id="paint46_linear_1_26241" x1="993.896" y1="-153.531" x2="730.563" y2="-212.751" gradientUnits="userSpaceOnUse">
<stop stop-color="white"/>
<stop offset="0.2937" stop-color="#F3F3F3"/>
<stop offset="0.824" stop-color="#D3D3D3"/>
<stop offset="1" stop-color="#C7C7C7"/>
</linearGradient>
<linearGradient id="paint47_linear_1_26241" x1="1074.4" y1="-149.321" x2="846.505" y2="-234.192" gradientUnits="userSpaceOnUse">
<stop stop-color="white"/>
<stop offset="0.2937" stop-color="#F3F3F3"/>
<stop offset="0.824" stop-color="#D3D3D3"/>
<stop offset="1" stop-color="#C7C7C7"/>
</linearGradient>
<linearGradient id="paint48_linear_1_26241" x1="1074.4" y1="-149.321" x2="846.505" y2="-234.192" gradientUnits="userSpaceOnUse">
<stop stop-color="white"/>
<stop offset="0.2937" stop-color="#F3F3F3"/>
<stop offset="0.824" stop-color="#D3D3D3"/>
<stop offset="1" stop-color="#C7C7C7"/>
</linearGradient>
<linearGradient id="paint49_linear_1_26241" x1="1155.01" y1="-136.933" x2="961.754" y2="-240.437" gradientUnits="userSpaceOnUse">
<stop stop-color="white"/>
<stop offset="0.2937" stop-color="#F3F3F3"/>
<stop offset="0.824" stop-color="#D3D3D3"/>
<stop offset="1" stop-color="#C7C7C7"/>
</linearGradient>
<linearGradient id="paint50_linear_1_26241" x1="1155.01" y1="-136.933" x2="961.754" y2="-240.437" gradientUnits="userSpaceOnUse">
<stop stop-color="white"/>
<stop offset="0.2937" stop-color="#F3F3F3"/>
<stop offset="0.824" stop-color="#D3D3D3"/>
<stop offset="1" stop-color="#C7C7C7"/>
</linearGradient>
<linearGradient id="paint51_linear_1_26241" x1="1234.62" y1="-115.695" x2="1072.69" y2="-233.031" gradientUnits="userSpaceOnUse">
<stop stop-color="white"/>
<stop offset="0.2937" stop-color="#F3F3F3"/>
<stop offset="0.824" stop-color="#D3D3D3"/>
<stop offset="1" stop-color="#C7C7C7"/>
</linearGradient>
<linearGradient id="paint52_linear_1_26241" x1="1234.62" y1="-115.695" x2="1072.69" y2="-233.031" gradientUnits="userSpaceOnUse">
<stop stop-color="white"/>
<stop offset="0.2937" stop-color="#F3F3F3"/>
<stop offset="0.824" stop-color="#D3D3D3"/>
<stop offset="1" stop-color="#C7C7C7"/>
</linearGradient>
<linearGradient id="paint53_linear_1_26241" x1="1311.65" y1="-85.0971" x2="1176.66" y2="-213.987" gradientUnits="userSpaceOnUse">
<stop stop-color="white"/>
<stop offset="0.2937" stop-color="#F3F3F3"/>
<stop offset="0.824" stop-color="#D3D3D3"/>
<stop offset="1" stop-color="#C7C7C7"/>
</linearGradient>
<linearGradient id="paint54_linear_1_26241" x1="1311.65" y1="-85.0971" x2="1176.66" y2="-213.987" gradientUnits="userSpaceOnUse">
<stop stop-color="white"/>
<stop offset="0.2937" stop-color="#F3F3F3"/>
<stop offset="0.824" stop-color="#D3D3D3"/>
<stop offset="1" stop-color="#C7C7C7"/>
</linearGradient>
<linearGradient id="paint55_linear_1_26241" x1="1384.29" y1="-44.8737" x2="1271.88" y2="-185.807" gradientUnits="userSpaceOnUse">
<stop stop-color="white"/>
<stop offset="0.2937" stop-color="#F3F3F3"/>
<stop offset="0.824" stop-color="#D3D3D3"/>
<stop offset="1" stop-color="#C7C7C7"/>
</linearGradient>
<linearGradient id="paint56_linear_1_26241" x1="1384.29" y1="-44.8737" x2="1271.88" y2="-185.807" gradientUnits="userSpaceOnUse">
<stop stop-color="white"/>
<stop offset="0.2937" stop-color="#F3F3F3"/>
<stop offset="0.824" stop-color="#D3D3D3"/>
<stop offset="1" stop-color="#C7C7C7"/>
</linearGradient>
<linearGradient id="paint57_linear_1_26241" x1="1450.48" y1="4.82885" x2="1357.55" y2="-150.877" gradientUnits="userSpaceOnUse">
<stop stop-color="white"/>
<stop offset="0.2937" stop-color="#F3F3F3"/>
<stop offset="0.824" stop-color="#D3D3D3"/>
<stop offset="1" stop-color="#C7C7C7"/>
</linearGradient>
<linearGradient id="paint58_linear_1_26241" x1="1450.48" y1="4.82885" x2="1357.55" y2="-150.877" gradientUnits="userSpaceOnUse">
<stop stop-color="white"/>
<stop offset="0.2937" stop-color="#F3F3F3"/>
<stop offset="0.824" stop-color="#D3D3D3"/>
<stop offset="1" stop-color="#C7C7C7"/>
</linearGradient>
<linearGradient id="paint59_linear_1_26241" x1="1508.13" y1="63.3686" x2="1433.75" y2="-111.22" gradientUnits="userSpaceOnUse">
<stop stop-color="white"/>
<stop offset="0.2937" stop-color="#F3F3F3"/>
<stop offset="0.824" stop-color="#D3D3D3"/>
<stop offset="1" stop-color="#C7C7C7"/>
</linearGradient>
<linearGradient id="paint60_linear_1_26241" x1="1508.13" y1="63.3686" x2="1433.75" y2="-111.22" gradientUnits="userSpaceOnUse">
<stop stop-color="white"/>
<stop offset="0.2937" stop-color="#F3F3F3"/>
<stop offset="0.824" stop-color="#D3D3D3"/>
<stop offset="1" stop-color="#C7C7C7"/>
</linearGradient>
<linearGradient id="paint61_linear_1_26241" x1="1555.27" y1="129.52" x2="1501.1" y2="-68.0759" gradientUnits="userSpaceOnUse">
<stop stop-color="white"/>
<stop offset="0.2937" stop-color="#F3F3F3"/>
<stop offset="0.824" stop-color="#D3D3D3"/>
<stop offset="1" stop-color="#C7C7C7"/>
</linearGradient>
<linearGradient id="paint62_linear_1_26241" x1="1555.27" y1="129.52" x2="1501.1" y2="-68.0759" gradientUnits="userSpaceOnUse">
<stop stop-color="white"/>
<stop offset="0.2937" stop-color="#F3F3F3"/>
<stop offset="0.824" stop-color="#D3D3D3"/>
<stop offset="1" stop-color="#C7C7C7"/>
</linearGradient>
<linearGradient id="paint63_linear_1_26241" x1="1590.24" y1="201.658" x2="1560.47" y2="-22.0995" gradientUnits="userSpaceOnUse">
<stop stop-color="white"/>
<stop offset="0.2937" stop-color="#F3F3F3"/>
<stop offset="0.824" stop-color="#D3D3D3"/>
<stop offset="1" stop-color="#C7C7C7"/>
</linearGradient>
<linearGradient id="paint64_linear_1_26241" x1="1590.24" y1="201.658" x2="1560.47" y2="-22.0995" gradientUnits="userSpaceOnUse">
<stop stop-color="white"/>
<stop offset="0.2937" stop-color="#F3F3F3"/>
<stop offset="0.824" stop-color="#D3D3D3"/>
<stop offset="1" stop-color="#C7C7C7"/>
</linearGradient>
<linearGradient id="paint65_linear_1_26241" x1="1611.85" y1="277.652" x2="1612.59" y2="27.0584" gradientUnits="userSpaceOnUse">
<stop stop-color="white"/>
<stop offset="0.2937" stop-color="#F3F3F3"/>
<stop offset="0.824" stop-color="#D3D3D3"/>
<stop offset="1" stop-color="#C7C7C7"/>
</linearGradient>
<linearGradient id="paint66_linear_1_26241" x1="1611.85" y1="277.652" x2="1612.59" y2="27.0584" gradientUnits="userSpaceOnUse">
<stop stop-color="white"/>
<stop offset="0.2937" stop-color="#F3F3F3"/>
<stop offset="0.824" stop-color="#D3D3D3"/>
<stop offset="1" stop-color="#C7C7C7"/>
</linearGradient>
<linearGradient id="paint67_linear_1_26241" x1="1619.51" y1="355.285" x2="1657.81" y2="80.0436" gradientUnits="userSpaceOnUse">
<stop stop-color="white"/>
<stop offset="0.2937" stop-color="#F3F3F3"/>
<stop offset="0.824" stop-color="#D3D3D3"/>
<stop offset="1" stop-color="#C7C7C7"/>
</linearGradient>
<linearGradient id="paint68_linear_1_26241" x1="1619.51" y1="355.285" x2="1657.81" y2="80.0436" gradientUnits="userSpaceOnUse">
<stop stop-color="white"/>
<stop offset="0.2937" stop-color="#F3F3F3"/>
<stop offset="0.824" stop-color="#D3D3D3"/>
<stop offset="1" stop-color="#C7C7C7"/>
</linearGradient>
<linearGradient id="paint69_linear_1_26241" x1="1613.24" y1="432.163" x2="1695.75" y2="138.069" gradientUnits="userSpaceOnUse">
<stop stop-color="white"/>
<stop offset="0.2937" stop-color="#F3F3F3"/>
<stop offset="0.824" stop-color="#D3D3D3"/>
<stop offset="1" stop-color="#C7C7C7"/>
</linearGradient>
<linearGradient id="paint70_linear_1_26241" x1="1613.24" y1="432.163" x2="1695.75" y2="138.069" gradientUnits="userSpaceOnUse">
<stop stop-color="white"/>
<stop offset="0.2937" stop-color="#F3F3F3"/>
<stop offset="0.824" stop-color="#D3D3D3"/>
<stop offset="1" stop-color="#C7C7C7"/>
</linearGradient>
<linearGradient id="paint71_linear_1_26241" x1="1593.68" y1="506.135" x2="1725.37" y2="202.106" gradientUnits="userSpaceOnUse">
<stop stop-color="white"/>
<stop offset="0.2937" stop-color="#F3F3F3"/>
<stop offset="0.824" stop-color="#D3D3D3"/>
<stop offset="1" stop-color="#C7C7C7"/>
</linearGradient>
<linearGradient id="paint72_linear_1_26241" x1="1593.68" y1="506.135" x2="1725.37" y2="202.106" gradientUnits="userSpaceOnUse">
<stop stop-color="white"/>
<stop offset="0.2937" stop-color="#F3F3F3"/>
<stop offset="0.824" stop-color="#D3D3D3"/>
<stop offset="1" stop-color="#C7C7C7"/>
</linearGradient>
<linearGradient id="paint73_linear_1_26241" x1="1561.96" y1="575.332" x2="1744.94" y2="272.779" gradientUnits="userSpaceOnUse">
<stop stop-color="white"/>
<stop offset="0.2937" stop-color="#F3F3F3"/>
<stop offset="0.824" stop-color="#D3D3D3"/>
<stop offset="1" stop-color="#C7C7C7"/>
</linearGradient>
<linearGradient id="paint74_linear_1_26241" x1="1561.96" y1="575.332" x2="1744.94" y2="272.779" gradientUnits="userSpaceOnUse">
<stop stop-color="white"/>
<stop offset="0.2937" stop-color="#F3F3F3"/>
<stop offset="0.824" stop-color="#D3D3D3"/>
<stop offset="1" stop-color="#C7C7C7"/>
</linearGradient>
<linearGradient id="paint75_linear_1_26241" x1="1519.54" y1="638.367" x2="1752.43" y2="349.903" gradientUnits="userSpaceOnUse">
<stop stop-color="white"/>
<stop offset="0.2937" stop-color="#F3F3F3"/>
<stop offset="0.824" stop-color="#D3D3D3"/>
<stop offset="1" stop-color="#C7C7C7"/>
</linearGradient>
<linearGradient id="paint76_linear_1_26241" x1="1519.54" y1="638.367" x2="1752.43" y2="349.903" gradientUnits="userSpaceOnUse">
<stop stop-color="white"/>
<stop offset="0.2937" stop-color="#F3F3F3"/>
<stop offset="0.824" stop-color="#D3D3D3"/>
<stop offset="1" stop-color="#C7C7C7"/>
</linearGradient>
<linearGradient id="paint77_linear_1_26241" x1="1468.12" y1="694.291" x2="1745.64" y2="432.485" gradientUnits="userSpaceOnUse">
<stop stop-color="white"/>
<stop offset="0.2937" stop-color="#F3F3F3"/>
<stop offset="0.824" stop-color="#D3D3D3"/>
<stop offset="1" stop-color="#C7C7C7"/>
</linearGradient>
<linearGradient id="paint78_linear_1_26241" x1="1468.12" y1="694.291" x2="1745.64" y2="432.485" gradientUnits="userSpaceOnUse">
<stop stop-color="white"/>
<stop offset="0.2937" stop-color="#F3F3F3"/>
<stop offset="0.824" stop-color="#D3D3D3"/>
<stop offset="1" stop-color="#C7C7C7"/>
</linearGradient>
<linearGradient id="paint79_linear_1_26241" x1="1409.4" y1="742.61" x2="1722.52" y2="518.574" gradientUnits="userSpaceOnUse">
<stop stop-color="white"/>
<stop offset="0.2937" stop-color="#F3F3F3"/>
<stop offset="0.824" stop-color="#D3D3D3"/>
<stop offset="1" stop-color="#C7C7C7"/>
</linearGradient>
<linearGradient id="paint80_linear_1_26241" x1="1409.4" y1="742.61" x2="1722.52" y2="518.574" gradientUnits="userSpaceOnUse">
<stop stop-color="white"/>
<stop offset="0.2937" stop-color="#F3F3F3"/>
<stop offset="0.824" stop-color="#D3D3D3"/>
<stop offset="1" stop-color="#C7C7C7"/>
</linearGradient>
<linearGradient id="paint81_linear_1_26241" x1="1344.9" y1="783.255" x2="1681.83" y2="605.336" gradientUnits="userSpaceOnUse">
<stop stop-color="white"/>
<stop offset="0.2937" stop-color="#F3F3F3"/>
<stop offset="0.824" stop-color="#D3D3D3"/>
<stop offset="1" stop-color="#C7C7C7"/>
</linearGradient>
<linearGradient id="paint82_linear_1_26241" x1="1344.9" y1="783.255" x2="1681.83" y2="605.336" gradientUnits="userSpaceOnUse">
<stop stop-color="white"/>
<stop offset="0.2937" stop-color="#F3F3F3"/>
<stop offset="0.824" stop-color="#D3D3D3"/>
<stop offset="1" stop-color="#C7C7C7"/>
</linearGradient>
<linearGradient id="paint83_linear_1_26241" x1="1275.9" y1="816.415" x2="1623.3" y2="689.373" gradientUnits="userSpaceOnUse">
<stop stop-color="white"/>
<stop offset="0.2937" stop-color="#F3F3F3"/>
<stop offset="0.824" stop-color="#D3D3D3"/>
<stop offset="1" stop-color="#C7C7C7"/>
</linearGradient>
<linearGradient id="paint84_linear_1_26241" x1="1275.9" y1="816.415" x2="1623.3" y2="689.373" gradientUnits="userSpaceOnUse">
<stop stop-color="white"/>
<stop offset="0.2937" stop-color="#F3F3F3"/>
<stop offset="0.824" stop-color="#D3D3D3"/>
<stop offset="1" stop-color="#C7C7C7"/>
</linearGradient>
<linearGradient id="paint85_linear_1_26241" x1="1203.39" y1="842.363" x2="1547.69" y2="767.068" gradientUnits="userSpaceOnUse">
<stop stop-color="white"/>
<stop offset="0.2937" stop-color="#F3F3F3"/>
<stop offset="0.824" stop-color="#D3D3D3"/>
<stop offset="1" stop-color="#C7C7C7"/>
</linearGradient>
<linearGradient id="paint86_linear_1_26241" x1="1215.68" y1="838.528" x2="1561.4" y2="754.714" gradientUnits="userSpaceOnUse">
<stop stop-color="white"/>
<stop offset="0.2937" stop-color="#F3F3F3"/>
<stop offset="0.824" stop-color="#D3D3D3"/>
<stop offset="1" stop-color="#C7C7C7"/>
</linearGradient>
<linearGradient id="paint87_linear_1_26241" x1="1128.14" y1="861.336" x2="1456.93" y2="834.96" gradientUnits="userSpaceOnUse">
<stop stop-color="white"/>
<stop offset="0.2937" stop-color="#F3F3F3"/>
<stop offset="0.824" stop-color="#D3D3D3"/>
<stop offset="1" stop-color="#C7C7C7"/>
</linearGradient>
<linearGradient id="paint88_linear_1_26241" x1="1151.04" y1="856.352" x2="1485.65" y2="815.744" gradientUnits="userSpaceOnUse">
<stop stop-color="white"/>
<stop offset="0.2937" stop-color="#F3F3F3"/>
<stop offset="0.824" stop-color="#D3D3D3"/>
<stop offset="1" stop-color="#C7C7C7"/>
</linearGradient>
<linearGradient id="paint89_linear_1_26241" x1="1050.66" y1="873.411" x2="1354.04" y2="890.187" gradientUnits="userSpaceOnUse">
<stop stop-color="white"/>
<stop offset="0.2937" stop-color="#F3F3F3"/>
<stop offset="0.824" stop-color="#D3D3D3"/>
<stop offset="1" stop-color="#C7C7C7"/>
</linearGradient>
<linearGradient id="paint90_linear_1_26241" x1="1081.18" y1="869.518" x2="1395.45" y2="870.249" gradientUnits="userSpaceOnUse">
<stop stop-color="white"/>
<stop offset="0.2937" stop-color="#F3F3F3"/>
<stop offset="0.824" stop-color="#D3D3D3"/>
<stop offset="1" stop-color="#C7C7C7"/>
</linearGradient>
<linearGradient id="paint91_linear_1_26241" x1="1009.25" y1="876.946" x2="1296.37" y2="913.397" gradientUnits="userSpaceOnUse">
<stop stop-color="white"/>
<stop offset="0.2937" stop-color="#F3F3F3"/>
<stop offset="0.824" stop-color="#D3D3D3"/>
<stop offset="1" stop-color="#C7C7C7"/>
</linearGradient>
<clipPath id="clip0_1_26241">
<rect width="1920" height="688.641" fill="white"/>
</clipPath>
</defs>
</svg>
