<svg width="225" height="64" viewBox="0 0 225 64" fill="none" xmlns="http://www.w3.org/2000/svg">
<path d="M95.5327 49.5811C95.9173 49.6305 102.358 49.6131 102.664 49.5624C102.667 49.5494 102.674 49.5355 102.671 49.5231C102.405 48.0305 101.861 46.664 100.83 45.5119C100.128 44.7284 99.3266 44.0627 98.4481 43.4839C97.0946 42.5923 95.6341 41.9117 94.1164 41.3456C92.2895 40.6637 90.4133 40.1511 88.5011 39.7617C87.4446 39.5466 86.3833 39.3574 85.3131 39.2294C84.4484 39.1258 83.5821 39.0323 82.7091 39.0212C82.3775 39.0171 82.0462 38.9873 81.7145 38.975C81.0804 38.9515 80.491 38.7678 79.9284 38.4912C79.6561 38.3575 79.3905 38.2105 79.1208 38.0717C78.6304 37.8195 78.1381 37.5711 77.649 37.3167C77.3799 37.1766 77.1211 37.0173 76.8488 36.8842C75.8202 36.3823 74.7843 35.8944 73.7576 35.389C71.4311 34.244 69.108 33.0923 66.7844 31.9422C65.1403 31.1285 63.4976 30.3127 61.8542 29.4978C61.817 29.4794 61.7782 29.4639 61.7438 29.4411C61.5569 29.3172 61.3692 29.3156 61.1569 29.3913C60.6232 29.5817 60.0741 29.7224 59.5132 29.8102C58.8252 29.9182 58.1363 29.9208 57.4477 29.8133C57.2848 29.788 57.1212 29.7658 56.9801 29.7452C56.6379 30.0047 55.6308 30.9752 55.4079 31.2588C55.5076 31.3741 55.6561 31.4146 55.7867 31.4774C58.0616 32.5711 60.3387 33.6604 62.613 34.755C63.918 35.383 65.2215 36.0141 66.5211 36.6529C67.115 36.945 67.6863 37.2837 68.2883 37.5575C69.0667 37.9114 69.8262 38.2992 70.5879 38.6854C71.3252 39.0596 72.0847 39.3916 72.8339 39.7433C72.9936 39.8184 73.1508 39.8992 73.2951 39.9705C73.2955 40.0807 73.2364 40.0782 73.1838 40.0792C73.0594 40.0811 72.935 40.0811 72.8102 40.0807C65.2706 40.0659 57.7309 40.051 50.1913 40.0358C50.1637 40.0358 50.1355 40.0326 50.1082 40.0361C49.8558 40.0687 49.6727 39.9752 49.4866 39.7959C47.493 37.8702 45.3265 36.1539 42.9954 34.6435C42.3373 34.2171 41.6487 33.8349 40.9614 33.4547C39.9771 32.9098 38.9148 32.567 37.8176 32.3192C36.469 32.0147 35.111 31.7609 33.738 31.5962C32.6398 31.4644 31.5378 31.3709 30.4323 31.3117C29.2016 31.2458 27.971 31.2309 26.7401 31.2591C25.6201 31.2847 24.5027 31.3576 23.3875 31.4723C22.1617 31.5987 20.9484 31.7895 19.7489 32.0664C17.8226 32.5109 16.0111 33.2358 14.3084 34.2323C12.8199 35.1032 11.3872 36.0582 9.95676 37.0173C9.65945 37.2165 9.37561 37.4361 9.09273 37.655C8.45609 38.148 7.73252 38.4294 6.9368 38.5454C6.21195 38.6512 5.4855 38.7469 4.76419 38.8726C4.39857 38.9363 4.03775 39.0406 3.68367 39.154C2.72501 39.461 2.1336 40.1283 1.8552 41.0667C1.73109 41.4846 1.64706 41.9159 1.56719 42.3449C1.44467 43.0032 1.34814 43.6667 1.3414 44.3378C1.33788 44.7037 1.36001 45.07 1.37123 45.4635C1.31158 45.4866 1.2346 45.5113 1.16212 45.5455C0.98732 45.6273 0.813812 45.7112 0.641579 45.7984C0.205391 46.0186 -0.0162354 46.3642 0.00172424 46.8557C0.0119858 47.1421 -0.00308228 47.4298 0.0126343 47.7159C0.0754929 48.8552 0.933113 49.4699 1.78208 49.589C2.16374 49.6425 2.55311 49.6625 2.93926 49.6622C4.36393 49.6616 5.78892 49.646 7.21358 49.6356C7.36401 49.6343 7.51475 49.6283 7.64913 49.6248C8.27263 48.2162 9.25212 47.1202 10.4292 46.1884C11.605 45.2575 12.943 44.6451 14.4248 44.3808C16.8938 43.9408 19.1802 44.4128 21.2617 45.8085C22.0565 46.3414 22.7499 46.9859 23.3763 47.7035C23.6669 48.0365 23.909 48.3986 24.1063 48.7937C24.2461 49.0735 24.3786 49.3631 24.6213 49.5665C42.5451 49.5928 60.458 49.5827 78.387 49.5833C78.4739 49.4252 78.5534 49.2833 78.6304 49.1404C79.4059 47.7013 80.4618 46.5109 81.8563 45.6285C83.076 44.8567 84.4131 44.4094 85.8516 44.2462C87.7743 44.0282 89.605 44.339 91.3177 45.2252C93.1471 46.1722 94.5558 47.5394 95.4304 49.4103C95.4535 49.4597 95.482 49.5069 95.509 49.5545C95.5154 49.5652 95.5263 49.5738 95.5327 49.5811ZM37.9642 35.4505C37.9459 35.4708 37.9273 35.4907 37.909 35.511C38.0332 35.6175 38.1525 35.7303 38.2827 35.8288C38.579 36.0531 38.885 36.2651 39.1794 36.4916C39.6483 36.8522 40.1349 37.1953 40.572 37.5907C41.4274 38.3648 42.2542 39.1695 43.133 39.9996C43.0025 40.0253 42.9271 40.0525 42.8518 40.0529C42.4643 40.0551 42.0772 40.0487 41.6898 40.0484C35.7278 40.0437 29.7655 40.0392 23.8035 40.0345C23.679 40.0345 23.554 40.0405 23.4302 40.031C23.3522 40.025 23.2762 39.9949 23.2024 39.9762C23.1178 39.6641 23.1168 39.3625 23.1152 39.0634C23.1082 37.6836 23.1069 36.3041 23.1078 34.9242C23.1078 34.7199 23.1261 34.5149 23.147 34.3112C23.1563 34.2196 23.1925 34.1306 23.2166 34.0396C23.3253 34.0102 23.4164 33.9734 23.5107 33.9623C23.84 33.9237 24.1701 33.8765 24.5007 33.865C25.164 33.8422 25.8282 33.8334 26.4921 33.8318C30.1715 33.8229 33.8512 33.8172 37.5309 33.8125C37.7795 33.8121 38.0284 33.8321 38.2769 33.8334C38.5473 33.8349 38.7862 33.917 39.0223 34.046C40.6843 34.9531 42.2632 35.9831 43.7646 37.1304C44.8486 37.9589 45.8849 38.8422 46.8827 39.7696C46.9558 39.8377 47.0607 39.8925 47.0568 40.0465C46.9096 40.0535 46.7746 40.0652 46.6399 40.0652C46.0173 40.0655 45.3948 40.0522 44.7726 40.0652C44.5074 40.0709 44.2806 40.0288 44.1023 39.8235C44.0667 39.7826 44.0195 39.7509 43.9775 39.7157C42.6924 38.635 41.3915 37.5739 39.9864 36.645C39.3324 36.2128 38.6499 35.8288 37.9642 35.4505ZM22.1517 34.2304C22.1678 34.3289 22.1877 34.4208 22.1976 34.5139C22.2582 35.0861 22.2496 35.659 22.2316 36.2331C22.2056 37.0797 22.1832 37.9263 22.1771 38.7732C22.1742 39.1787 22.213 39.5846 22.2332 40.0028C22.0969 40.0754 21.942 40.0418 21.7938 40.043C20.2726 40.0557 18.7511 40.0703 17.2299 40.0728C16.8434 40.0735 16.4563 40.0421 16.0711 40.0088C15.8501 39.9898 15.6291 39.9321 15.454 39.7905C15.2622 39.6356 15.0743 39.4708 14.9107 39.2877C14.6131 38.9547 14.6092 38.6331 14.9088 38.2976C15.0903 38.0945 15.2991 37.9088 15.5194 37.7466C16.2401 37.2162 16.963 36.6881 17.7023 36.183C18.202 35.8418 18.7216 35.5259 19.2482 35.2265C20.0298 34.782 20.8534 34.4303 21.7393 34.2364C21.8599 34.2101 21.9786 34.1632 22.1517 34.2304ZM95.6568 44.6194C95.7162 44.576 95.7261 44.5649 95.7383 44.5602C95.7765 44.5459 95.8149 44.5298 95.8547 44.5215C96.416 44.4078 96.9753 44.3942 97.5424 44.5019C98.3776 44.6603 99.1781 44.9024 99.9026 45.3535C100.305 45.6041 100.658 45.9115 100.915 46.3078C101.033 46.4891 101.127 46.6925 101.191 46.8984C101.271 47.1582 101.176 47.3819 100.952 47.5454C100.734 47.7045 100.488 47.7941 100.219 47.7963C99.6521 47.8014 99.0848 47.8011 98.518 47.7881C98.3121 47.7834 98.1043 47.7485 97.9022 47.7054C97.4122 47.6012 97.0036 47.3569 96.695 46.9637C96.1511 46.2705 95.8675 45.4657 95.6568 44.6194ZM25.6955 42.4653C25.8363 42.6962 25.9286 42.906 25.9168 43.1474C25.9068 43.3457 25.8212 43.4449 25.6246 43.4845C25.503 43.5089 25.3789 43.527 25.2554 43.5333C24.6621 43.564 24.0684 43.5983 23.4747 43.6144C23.0883 43.6249 22.7012 43.6084 22.314 43.6002C22.1129 43.5957 21.9369 43.5282 21.7945 43.3819C21.5385 43.1183 21.5764 42.7704 21.8939 42.585C21.9988 42.5239 22.1206 42.4827 22.2403 42.458C22.4016 42.4244 22.5684 42.4 22.7329 42.3987C23.5068 42.3921 24.2807 42.3895 25.0546 42.3968C25.2599 42.3984 25.4652 42.4396 25.6955 42.4653Z" fill="#EF0F3A"/>
<path d="M71.7935 4.92733C71.6783 5.02618 71.56 5.11711 71.4538 5.2204C71.0103 5.65162 70.5786 6.09519 70.1267 6.51785C69.7456 6.87429 69.3524 7.21996 68.9467 7.54915C68.5711 7.85363 68.151 8.09189 67.6885 8.25063C67.1782 8.42584 66.6654 8.45023 66.1394 8.31082C65.3892 8.11217 64.6685 7.83335 63.9546 7.53901C62.5986 6.98043 61.2069 6.53813 59.7723 6.22351C59.4493 6.15254 59.128 6.06192 58.8182 5.94818C57.8582 5.59617 57.2367 4.92796 56.9528 3.95306C56.7944 3.40937 56.7504 2.85142 56.7437 2.29125C56.7386 1.84103 56.769 1.39017 56.7812 0.939628C56.7854 0.791665 56.7819 0.643703 56.7819 0.479898C56.6658 0.454868 56.5753 0.427303 56.4829 0.416848C55.1359 0.266984 53.7863 0.152923 52.4331 0.0680111C51.7416 0.0246046 51.0514 -0.0134158 50.3612 0.0214362C49.5466 0.0626249 48.7339 0.137398 47.9208 0.204884C47.5074 0.239103 47.0956 0.288529 46.6831 0.331936C46.5882 0.341758 46.4939 0.354748 46.3759 0.369006C46.3621 0.466908 46.3371 0.557206 46.3384 0.647188C46.3448 1.09805 46.364 1.54859 46.3672 1.99945C46.3711 2.54567 46.3695 3.0919 46.2649 3.63274C46.059 4.69794 45.4455 5.44124 44.4345 5.84362C44.0141 6.01091 43.5673 6.1218 43.1247 6.22541C41.3556 6.6392 39.6544 7.24023 38.0097 8.00223C37.697 8.14702 37.3818 8.28865 37.0594 8.40999C36.6672 8.55764 36.2589 8.60738 35.8368 8.55891C35.399 8.50885 34.9991 8.37071 34.6639 8.08714C34.0863 7.59858 33.5083 7.1097 32.9487 6.60118C32.3797 6.0841 31.8306 5.54548 31.362 4.92036C31.0891 4.97739 30.8713 5.12187 30.6555 5.26413C30.2761 5.51443 29.8989 5.76853 29.5275 6.03055C27.9922 7.11382 26.5749 8.33142 25.2775 9.68494C25.0399 9.93303 24.8009 10.1802 24.5681 10.4327C24.4565 10.5534 24.3477 10.6789 24.2547 10.8138C24.0966 11.0429 24.0973 11.1145 24.2637 11.3268C24.4074 11.5102 24.562 11.6861 24.7217 11.8559C25.0232 12.1762 25.3391 12.4829 25.6351 12.808C25.8936 13.0919 26.1432 13.3856 26.3767 13.6898C26.5175 13.8735 26.6352 14.0785 26.7365 14.2867C27.1089 15.0518 27.0906 15.8205 26.7064 16.5746C26.5829 16.8169 26.4209 17.0419 26.2625 17.2649C26.0559 17.5555 25.8327 17.8346 25.6217 18.122C24.9555 19.0303 24.3516 19.9758 23.842 20.9808C23.5575 21.5419 23.2467 22.091 22.9298 22.6353C22.772 22.9065 22.5908 23.1685 22.3904 23.4109C21.9298 23.9686 21.3409 24.2794 20.5943 24.2825C19.9836 24.2854 19.3787 24.2293 18.7751 24.1514C18.0897 24.0627 17.4053 23.9673 16.7199 23.8795C16.6118 23.8656 16.5002 23.8776 16.3815 23.8776C16.2369 24.0101 16.1753 24.1957 16.1243 24.3763C15.954 24.9809 15.7792 25.5851 15.6423 26.1975C15.3584 27.4648 15.1612 28.7474 15.0335 30.0395C14.9893 30.4878 14.9588 30.9377 14.9386 31.3876C14.9277 31.6325 14.9456 31.879 14.9636 32.1239C14.9703 32.2133 15.0159 32.2998 15.0502 32.4091C15.82 32.001 16.6266 31.7577 17.4229 31.4928C19.1042 30.9339 20.8242 30.5312 22.5873 30.3243C23.3419 30.2356 24.1008 30.1789 24.8577 30.1085C24.9526 30.0997 25.0479 30.0955 25.1444 30.0892C25.2349 29.6466 25.3 29.217 25.4116 28.799C26.1682 25.9653 27.3174 23.3019 28.9694 20.8579C30.4011 18.7401 32.1093 16.8711 34.1158 15.2714C36.6932 13.2167 39.5524 11.6718 42.7061 10.6637C44.3018 10.1535 45.9314 9.79996 47.593 9.57373C49.5751 9.30411 51.5646 9.24327 53.555 9.37381C59.4856 9.76289 64.7869 11.7827 69.4047 15.4856C72.2386 17.7579 74.4616 20.5198 75.9812 23.813C76.8003 25.5879 77.3456 27.4427 77.6499 29.3706C77.9242 31.1075 77.9578 32.8517 77.8677 34.6016C77.8481 34.9827 77.8036 35.3623 77.7696 35.7536C77.8324 35.7983 77.8821 35.8452 77.9412 35.874C79.0922 36.4399 80.244 37.0038 81.3963 37.5675C81.4204 37.5792 81.4489 37.5824 81.5044 37.5976C81.5859 37.4959 81.5958 37.3638 81.6164 37.2345C81.6981 36.7222 81.7754 36.2089 81.8672 35.6985C81.9031 35.4979 81.9637 35.3002 82.0285 35.106C82.424 33.922 83.2376 33.2522 84.5074 33.1261C85.3753 33.0399 86.2448 32.9962 87.1159 32.9689C87.4055 32.9597 87.6951 32.954 88.0091 32.9461C88.0306 32.8466 88.0649 32.7585 88.0662 32.6698C88.071 32.3283 88.0736 31.9867 88.0626 31.6455C88.02 30.3335 87.9084 29.0281 87.6823 27.7332C87.4706 26.5207 87.1832 25.3265 86.8099 24.1526C86.7817 24.0636 86.7422 23.9777 86.7057 23.8843C86.5982 23.8843 86.502 23.8726 86.4096 23.8862C85.6578 23.9974 84.9083 24.1254 84.1546 24.2236C83.6758 24.286 83.1915 24.3405 82.7097 24.3393C81.6481 24.3364 80.8181 23.8773 80.2546 22.986C80.0355 22.6397 79.8578 22.2671 79.6724 21.9009C79.5182 21.5958 79.3694 21.2869 79.2369 20.9719C78.6865 19.6628 77.9181 18.4822 77.0701 17.347C76.8815 17.0945 76.699 16.8363 76.5332 16.5688C76.2833 16.1655 76.1573 15.7219 76.1403 15.2473C76.1249 14.8129 76.2275 14.408 76.4302 14.0253C76.6506 13.6096 76.9392 13.2414 77.283 12.9224C77.7465 12.4924 78.2305 12.084 78.7064 11.6677C78.8703 11.5242 79.0531 11.4003 79.2045 11.2203C79.0708 11.0147 78.9171 10.8417 78.7661 10.6671C77.784 9.53128 76.6903 8.50853 75.5235 7.56056C74.4327 6.67437 73.2855 5.86421 72.1001 5.10634C72.0087 5.04868 71.9121 4.9964 71.7935 4.92733Z" fill="white"/>
<path d="M25.2558 51.5633C25.1984 51.7464 25.2404 51.9093 25.2628 52.0655C25.3619 52.7546 25.4768 53.4415 25.5765 54.1306C25.6092 54.3559 25.6981 54.5488 25.8434 54.7199C25.9854 54.8872 26.124 55.0586 26.2776 55.2151C27.5708 56.5329 28.9759 57.7229 30.483 58.7954C30.7174 58.9624 30.9551 59.1278 31.2518 59.2475C31.3002 59.1854 31.3489 59.1255 31.3945 59.0634C31.8361 58.4643 32.3608 57.9403 32.9102 57.4393C33.0427 57.3186 33.1578 57.1878 33.2691 57.0471C33.8416 56.3244 34.5174 55.7382 35.4344 55.4683C36.0213 55.2953 36.6057 55.2646 37.1881 55.4559C37.5544 55.5763 37.9174 55.7126 38.268 55.8716C38.9213 56.1682 39.5794 56.4508 40.2507 56.7065C41.1449 57.0471 42.0769 57.2419 43.0074 57.4488C43.4112 57.5385 43.814 57.6418 44.2059 57.7723C45.1306 58.0803 45.7473 58.7095 46.078 59.6109C46.2393 60.0501 46.3323 60.5076 46.3404 60.9736C46.3529 61.697 46.3404 62.421 46.3388 63.1446C46.3384 63.3208 46.3388 63.4972 46.3388 63.6778C46.4074 63.7038 46.4565 63.7352 46.5078 63.7399C47.2512 63.8055 47.9947 63.8733 48.7391 63.9294C49.7465 64.0051 50.7561 64.0156 51.7661 64.0036C53.0528 63.9883 54.3364 63.9133 55.6171 63.7891C55.9875 63.7533 56.3583 63.7187 56.7543 63.6813C56.7678 63.5568 56.789 63.4529 56.789 63.349C56.7874 62.6522 56.7794 61.9558 56.7778 61.2591C56.7768 60.8628 56.7896 60.4667 56.8842 60.0783C57.1546 58.9703 57.8118 58.2058 58.9257 57.8553C59.2018 57.7685 59.4841 57.6998 59.7666 57.6348C61.2105 57.3025 62.6182 56.8697 63.9595 56.2341C64.4944 55.9806 65.0499 55.7687 65.6003 55.5472C65.7915 55.4702 65.9929 55.4154 66.1927 55.3625C66.9621 55.1597 67.6805 55.2795 68.314 55.7547C68.7094 56.0513 69.0895 56.3735 69.4416 56.7192C70.1088 57.3734 70.7509 58.0524 71.4029 58.7219C71.5366 58.8594 71.6675 58.9998 71.816 59.1556C71.9048 59.1103 71.9895 59.0739 72.0674 59.0261C73.2561 58.297 74.3821 57.4827 75.4527 56.5937C76.2042 55.9699 76.9508 55.3406 77.7132 54.7025C77.7212 54.1861 77.7016 53.6531 77.7453 53.125C77.7876 52.6108 77.8941 52.1016 77.9727 51.5877C77.8453 51.505 77.7036 51.5345 77.5698 51.5335C76.0486 51.5246 74.5271 51.5145 73.0056 51.5148C71.7191 51.5151 70.433 51.5373 69.1466 51.5345C68.1786 51.5322 67.2107 51.4949 66.2427 51.4939C65.5933 51.4933 64.9438 51.5256 64.2943 51.549C63.9871 51.5601 63.6939 51.6457 63.4113 51.7585C63.1169 51.876 62.819 51.9907 62.5383 52.1361C61.5415 52.6538 60.4863 53.0138 59.4055 53.3119C58.0052 53.6981 56.584 53.982 55.1421 54.1601C53.5051 54.3622 51.861 54.4069 50.2138 54.3416C47.3462 54.2282 44.5632 53.6845 41.8685 52.7128C41.3633 52.5306 40.8813 52.2866 40.3877 52.0731C40.16 51.9745 39.9306 51.8792 39.7007 51.7851C39.3264 51.6324 38.9367 51.5608 38.5319 51.5329C37.6192 51.4701 36.7073 51.5142 35.7949 51.525C34.315 51.5427 32.8349 51.5405 31.355 51.543C29.474 51.5465 27.5929 51.5459 25.7119 51.5484C25.563 51.5494 25.4139 51.5582 25.2558 51.5633Z" fill="white"/>
<path d="M71.7539 32.8743C72.795 33.4117 73.8342 33.9218 74.8894 34.3992C74.9227 34.4144 74.9679 34.4043 75.0305 34.4072C75.0414 34.3093 75.0568 34.2183 75.0609 34.1271C75.3201 28.5428 73.5651 23.6708 69.7487 19.5365C67.8536 17.4834 65.6149 15.8754 63.1046 14.6334C60.9775 13.5809 58.7356 12.8579 56.4011 12.4178C55.5053 12.2489 54.6012 12.1279 53.6906 12.0512C52.3083 11.9352 50.9282 11.9622 49.5462 12.0477C47.94 12.1472 46.3562 12.3893 44.8058 12.8081C39.1857 14.3258 34.6863 17.4254 31.3571 22.1586C30.3337 23.6138 29.5562 25.1964 28.9302 26.8538C28.6742 27.5318 28.4129 28.2079 28.2336 28.9113C28.1896 29.0834 28.1473 29.256 28.1152 29.4306C28.0883 29.5767 28.0642 29.7259 28.1277 29.8932C28.1867 29.9033 28.2519 29.9233 28.3176 29.9249C29.3962 29.9509 30.4748 29.9749 31.5534 29.999C31.648 30.0012 31.7426 29.9993 31.8433 29.9993C32.1089 28.5641 32.7157 27.2783 33.3376 26.0015C33.9637 24.7167 34.7475 23.5267 35.6606 22.4212C36.5741 21.3158 37.6014 20.3238 38.7419 19.4487C40.5511 18.0606 42.5617 17.0458 44.7292 16.3263C45.964 15.9163 47.2264 15.6169 48.5138 15.4258C49.9137 15.2183 51.3246 15.1543 52.7352 15.2617C55.0624 15.4391 57.336 15.8748 59.5086 16.7489C61.89 17.707 64.0376 19.0301 65.9193 20.7645C67.8654 22.5588 69.3972 24.6454 70.4524 27.0661C71.0692 28.4804 71.4701 29.9524 71.6462 31.4821C71.6975 31.9289 71.7164 32.3797 71.7539 32.8743Z" fill="white"/>
<path d="M94.7772 53.069C94.7608 49.812 92.6241 47.3549 90.2434 46.3188C89.2834 45.9012 88.2786 45.6715 87.2369 45.5974C85.9373 45.5049 84.7022 45.7707 83.5383 46.3306C81.3746 47.3707 79.9628 49.0335 79.3659 51.3483C78.6744 54.0309 79.6591 56.9066 81.7627 58.6793C82.9969 59.7191 84.4251 60.336 86.0326 60.5179C89.3505 60.893 92.9234 59.1022 94.2602 55.7485C94.6033 54.8883 94.7839 53.9603 94.7772 53.069ZM90.1866 50.0962C90.4887 50.6231 90.8335 51.0958 91.0882 51.6404C90.9355 51.7681 90.7969 51.8799 90.6635 51.9969C90.5304 52.1131 90.3649 52.1958 90.2703 52.3552C90.2556 52.7234 90.2411 53.0903 90.2257 53.4809C90.4589 53.6824 90.6985 53.8868 90.9342 54.0953C91.0029 54.1561 91.0612 54.2283 91.1315 54.3031C90.8354 54.8005 90.5599 55.2856 90.2257 55.746C89.9579 55.6509 89.7106 55.5698 89.4685 55.4751C89.3001 55.4092 89.16 55.4193 89.0041 55.5248C88.7882 55.6706 88.5519 55.7869 88.3251 55.9168C88.2308 55.9709 88.1378 56.0277 88.0608 56.0733C87.946 56.4332 87.9746 56.7969 87.845 57.1515C87.327 57.174 86.8177 57.2015 86.3077 57.2161C86.0714 57.2228 86.022 57.1797 85.9735 56.9446C85.9238 56.7041 85.8889 56.4608 85.8539 56.2178C85.8369 56.1005 85.7888 56.014 85.6791 55.9595C85.3953 55.8189 85.1127 55.675 84.8305 55.5312C84.7227 55.4764 84.6185 55.4887 84.512 55.5353C84.3228 55.6183 84.1326 55.7004 83.9417 55.7799C83.8686 55.8103 83.7923 55.8334 83.6954 55.8673C83.3468 55.4092 83.0241 54.9577 82.765 54.4454C83.0257 54.1805 83.2746 53.928 83.5059 53.6932C83.5059 53.3634 83.4985 53.0633 83.5088 52.7636C83.5152 52.5789 83.4369 52.4572 83.2926 52.3511C83.0947 52.2053 82.9084 52.045 82.722 51.8952C83.0023 51.3331 83.6473 50.4456 83.9401 50.2197C84.0995 50.2796 84.2676 50.3414 84.4344 50.4057C84.5431 50.4475 84.6457 50.4478 84.7532 50.3934C85.0963 50.2194 85.4421 50.0502 85.8116 49.8671C85.8937 49.5737 85.9809 49.2622 86.0649 48.9628C86.5095 48.895 87.5098 48.9125 87.8228 48.9907C87.9011 49.2892 87.9803 49.5921 88.0608 49.9007C88.4261 50.0762 88.7853 50.2486 89.1628 50.4298C89.4775 50.3271 89.8037 50.221 90.1866 50.0962Z" fill="white"/>
<path d="M8.35904 53.2062C8.45814 55.7751 9.59416 57.852 11.8129 59.3028C14.9208 61.3346 19.0973 60.9541 21.7891 58.2667C22.9441 57.1137 23.6304 55.7187 23.8469 54.1092C24.1247 52.0463 23.5294 50.214 22.2696 48.5839C21.0685 47.0295 19.4581 46.1388 17.5251 45.7323C13.6597 44.9197 9.33309 47.5738 8.50465 51.7602C8.46488 51.961 8.43184 52.1638 8.41196 52.3675C8.38662 52.6251 8.37828 52.8849 8.35904 53.2062ZM12.9493 55.8442C12.6244 55.5315 12.406 55.1864 12.2325 54.8135C12.091 54.5093 12.1096 54.4273 12.3444 54.1979C12.4323 54.112 12.5323 54.0373 12.6298 53.9615C12.7158 53.895 12.8059 53.8338 12.8675 53.7895C12.888 53.3107 12.9073 52.8637 12.9275 52.3998C12.9015 52.3786 12.8582 52.3457 12.8171 52.3095C12.6318 52.1467 12.4441 51.9867 12.2632 51.8188C12.124 51.6895 12.1208 51.5415 12.2033 51.372C12.3848 50.9988 12.6289 50.6718 12.9118 50.3692C13.0202 50.2533 13.1359 50.24 13.2844 50.3005C13.5542 50.4111 13.8425 50.4488 14.1132 50.4719C14.4474 50.3011 14.7652 50.1386 15.0981 49.9681C15.1754 49.6212 15.2498 49.259 15.5077 48.9457C16.0052 48.9213 16.5119 48.8678 17.0292 48.9701C17.0847 49.1703 17.1367 49.3671 17.1938 49.5619C17.2791 49.8528 17.4513 50.0701 17.7429 50.1867C17.8962 50.2482 18.0453 50.3198 18.1976 50.3844C18.3923 50.4675 18.5835 50.4934 18.798 50.4256C19.0444 50.348 19.2997 50.2859 19.5739 50.2796C19.6563 50.4472 19.7282 50.6081 19.8138 50.7618C19.9001 50.9171 19.9966 51.0669 20.0947 51.2152C20.191 51.3597 20.2952 51.4991 20.3991 51.6451C20.2259 51.8001 20.0652 51.9287 19.9232 52.0754C19.8196 52.1825 19.6996 52.3004 19.6579 52.4347C19.4854 52.9933 19.4626 53.5398 19.9209 53.9995C20.0466 54.1256 20.1775 54.247 20.3061 54.3709C20.3719 54.4343 20.4376 54.4979 20.4838 54.5423C20.1887 54.984 19.9084 55.4028 19.613 55.8448C19.2762 55.834 18.9404 55.7057 18.5633 55.6091C18.3202 55.7079 18.0536 55.8188 17.7852 55.9243C17.4324 56.0628 17.2319 56.3204 17.1723 56.6857C17.1376 56.8989 17.1142 57.1137 17.0831 57.3476C17.009 57.3583 16.9298 57.3773 16.85 57.3799C16.5462 57.3887 16.2422 57.3945 15.9381 57.3973C15.3368 57.403 15.2675 57.3469 15.1475 56.7582C15.1286 56.6651 15.1238 56.5688 15.1142 56.474C15.1049 56.3812 15.0975 56.2881 15.0914 56.2174C14.7768 56.0245 14.4852 55.8454 14.1767 55.6563C13.7819 55.6484 13.3758 55.7181 12.9493 55.8442Z" fill="white"/>
<path d="M61.3016 19.6895C61.0848 19.6169 60.9587 19.5682 60.8292 19.5327C59.3522 19.1293 57.9269 19.2935 56.5436 19.916C55.7075 20.2924 54.9566 20.8026 54.227 21.3472C54.0965 21.4448 54.0227 21.5645 53.989 21.7163C53.8768 22.2229 53.7623 22.7292 53.6526 23.2365C53.5717 23.6104 53.4855 23.9836 53.4245 24.3606C53.3848 24.6068 53.2651 24.7836 53.0775 24.942C52.2263 25.6616 51.3821 26.3896 50.5348 27.1136C48.8295 28.5707 47.1255 30.0291 45.417 31.4825C44.9663 31.8658 44.4984 32.2293 44.0459 32.6101C43.8252 32.7958 43.619 32.9988 43.4102 33.1978C43.363 33.2428 43.3316 33.3043 43.2806 33.3749C43.3502 33.4399 43.4028 33.5017 43.4673 33.5467C43.6366 33.6648 43.8072 33.7821 43.9843 33.8885C45.3486 34.711 46.5876 35.691 47.7332 36.7888C47.8016 36.8541 47.8772 36.9118 47.9616 36.9837C48.0735 36.8842 48.1774 36.7955 48.2775 36.7027C49.0027 36.0284 49.7195 35.345 50.4533 34.6797C52.5223 32.8037 54.5057 30.8393 56.5587 28.9468C56.6594 28.854 56.7607 28.7621 56.88 28.6531C57.1174 28.6981 57.3586 28.7491 57.6014 28.7894C59.467 29.098 61.0489 28.5733 62.3189 27.1859C63.0928 26.3405 63.5127 25.3254 63.6888 24.207C63.7029 24.117 63.7 24.0241 63.707 23.8901C63.5598 23.9614 63.446 24.0058 63.3433 24.0682C62.4132 24.6337 61.4857 25.204 60.5556 25.7696C60.2852 25.934 60.0171 26.1045 59.7332 26.2433C59.4465 26.383 59.2807 26.3364 59.0674 26.1118C59.0013 26.0421 58.9407 25.967 58.8811 25.8916C58.2088 25.0399 57.5699 24.1648 56.9779 23.2568C56.7524 22.9108 56.6459 22.8788 57.0619 22.4983C57.3752 22.2115 57.7127 21.9435 58.0683 21.7106C58.9096 21.1596 59.7675 20.634 60.6197 20.0998C60.8166 19.9769 61.0184 19.86 61.3016 19.6895Z" fill="#EF0F3A"/>
<path d="M40.1217 27.166C40.1634 27.1375 40.2031 27.1214 40.2266 27.0922C40.7968 26.3936 41.5534 25.9864 42.4162 25.7735C43.7414 25.4469 44.999 25.6119 46.1331 26.3964C46.8627 26.9012 47.1899 27.5988 47.0452 28.4869C47.0234 28.62 47.0083 28.7543 46.983 28.9387C47.0766 28.8849 47.1357 28.8605 47.1831 28.8221C47.6649 28.4343 48.1453 28.0446 48.6251 27.6546C49.3397 27.0738 50.0539 26.4924 50.7676 25.9104C50.841 25.8505 50.91 25.7853 50.9844 25.7197C50.9529 25.6753 50.9366 25.6344 50.9064 25.6123C50.1415 25.0511 49.3856 24.477 48.6055 23.9365C47.8987 23.447 47.1174 23.1077 46.2665 22.9302C44.3004 22.5203 42.0961 23.3127 40.8924 24.8477C40.4989 25.3496 40.1977 25.8993 40.0861 26.5324C40.0556 26.7047 40.0627 26.8844 40.0601 27.0605C40.0598 27.0932 40.0973 27.1261 40.1217 27.166Z" fill="white"/>
<path d="M96.0345 51.0146C96.0874 51.4927 96.1506 51.949 96.1856 52.4074C96.2196 52.8545 96.2247 53.3035 96.2433 53.7705C96.3049 53.7749 96.3584 53.7908 96.4059 53.7803C97.524 53.5335 98.6443 53.2959 99.7578 53.0297C100.307 52.8985 100.848 52.7303 101.362 52.4882C101.766 52.2985 102.129 52.0529 102.445 51.7434C102.542 51.6486 102.63 51.5387 102.697 51.4218C102.811 51.2231 102.736 51.0707 102.517 51.0267C102.436 51.0105 102.352 51.0045 102.27 51.0016C102.076 50.9953 101.883 50.9902 101.69 50.9902C99.9208 50.9921 98.1523 50.9953 96.3835 50.9991C96.2747 50.9994 96.1666 51.0086 96.0345 51.0146Z" fill="white"/>
<path d="M6.98978 52.6107C6.98978 52.3981 6.97887 52.2226 6.99298 52.049C7.00613 51.8871 7.03596 51.7248 7.07605 51.5671C7.11839 51.3991 7.18157 51.2366 7.24219 51.0509C7.16778 51.0363 7.11775 51.018 7.06771 51.0177C5.55004 51.0091 4.03268 50.9983 2.515 50.9999C2.28344 51.0002 2.04994 51.0509 1.82127 51.0969C1.66892 51.1273 1.633 51.2749 1.75808 51.3693C1.90947 51.4837 2.07079 51.6022 2.24783 51.6637C2.6497 51.8034 3.06087 51.921 3.47397 52.0265C3.91369 52.1389 4.35821 52.2353 4.8037 52.3243C5.50641 52.4656 6.21939 52.5385 6.98978 52.6107Z" fill="white"/>
<path d="M87.0185 50.6523C86.1176 50.6634 85.4463 50.927 84.9379 51.5401C84.2073 52.4216 84.24 53.6867 85.0557 54.4899C85.7613 55.185 86.6214 55.4467 87.6048 55.1844C88.5628 54.9287 89.2251 54.1375 89.305 53.1351C89.3762 52.2416 88.9429 51.3861 88.0185 50.9337C87.6699 50.7632 87.3104 50.6188 87.0185 50.6523ZM84.9001 52.8807C84.9171 52.7907 84.9322 52.6117 84.9864 52.4444C85.2532 51.6197 85.8709 51.2065 86.7061 51.119C87.4852 51.0373 88.1022 51.3665 88.5532 51.9913C88.7065 52.2039 88.8065 52.4466 88.837 52.7093C88.981 53.9566 87.9627 54.9439 86.6003 54.8042C86.1711 54.7601 85.7837 54.5463 85.4675 54.244C85.1041 53.8977 84.9059 53.4725 84.9001 52.8807Z" fill="white"/>
<path d="M13.7136 52.8764C13.7158 54.1611 14.4265 55.0771 15.5177 55.3721C16.3916 55.6084 17.197 55.4652 17.8971 54.8959C19.1492 53.8782 19.0036 51.8745 17.6261 51.0289C16.7005 50.4605 15.762 50.4763 14.8432 51.026C14.0843 51.4797 13.7383 52.1828 13.7136 52.8764ZM16.3294 51.0856C16.7435 51.0843 17.0485 51.1889 17.4651 51.4924C18.1348 51.98 18.4327 52.8136 18.1871 53.5959C17.9327 54.4054 17.3631 54.9757 16.3342 55.0163C16.0529 55.0274 15.7874 54.958 15.5263 54.8686C14.8018 54.6205 14.3335 54.1361 14.2168 53.3792C14.0972 52.6029 14.3547 51.9566 15.0013 51.4788C15.3801 51.1987 15.8105 51.0793 16.3294 51.0856Z" fill="white"/>
<path d="M126.644 35.4589C124.052 35.4589 121.814 34.8949 119.93 33.7669C118.058 32.6389 116.612 31.0609 115.592 29.0329C114.584 27.0049 114.08 24.6469 114.08 21.9589C114.08 19.2709 114.584 16.9129 115.592 14.8849C116.612 12.8569 118.058 11.2789 119.93 10.1509C121.814 9.02294 124.052 8.45894 126.644 8.45894C129.62 8.45894 132.116 9.19694 134.132 10.6729C136.16 12.1489 137.588 14.1469 138.416 16.6669L133.484 18.0349C133.004 16.4629 132.194 15.2449 131.054 14.3809C129.914 13.5049 128.444 13.0669 126.644 13.0669C125 13.0669 123.626 13.4329 122.522 14.1649C121.43 14.8969 120.608 15.9289 120.056 17.2609C119.504 18.5929 119.228 20.1589 119.228 21.9589C119.228 23.7589 119.504 25.3249 120.056 26.6569C120.608 27.9889 121.43 29.0209 122.522 29.7529C123.626 30.4849 125 30.8509 126.644 30.8509C128.444 30.8509 129.914 30.4129 131.054 29.5369C132.194 28.6609 133.004 27.4429 133.484 25.8829L138.416 27.2509C137.588 29.7709 136.16 31.7689 134.132 33.2449C132.116 34.7209 129.62 35.4589 126.644 35.4589ZM142.379 34.9189V15.4789H146.699V20.2309L146.231 19.6189C146.483 18.9469 146.819 18.3349 147.239 17.7829C147.659 17.2309 148.175 16.7749 148.787 16.4149C149.255 16.1269 149.765 15.9049 150.317 15.7489C150.869 15.5809 151.439 15.4789 152.027 15.4429C152.615 15.3949 153.203 15.4069 153.791 15.4789V20.0509C153.251 19.8829 152.621 19.8289 151.901 19.8889C151.193 19.9369 150.551 20.0989 149.975 20.3749C149.399 20.6389 148.913 20.9929 148.517 21.4369C148.121 21.8689 147.821 22.3849 147.617 22.9849C147.413 23.5729 147.311 24.2389 147.311 24.9829V34.9189H142.379ZM157.575 12.7789V8.45894H162.471V12.7789H157.575ZM157.575 34.9189V15.4789H162.471V34.9189H157.575ZM177.408 35.4589C175.476 35.4589 173.862 35.0089 172.566 34.1089C171.27 33.2089 170.292 31.9849 169.632 30.4369C168.984 28.8889 168.66 27.1429 168.66 25.1989C168.66 23.2549 168.984 21.5089 169.632 19.9609C170.28 18.4129 171.234 17.1889 172.494 16.2889C173.754 15.3889 175.308 14.9389 177.156 14.9389C179.016 14.9389 180.636 15.3829 182.016 16.2709C183.396 17.1589 184.464 18.3769 185.22 19.9249C185.988 21.4609 186.372 23.2189 186.372 25.1989C186.372 27.1429 185.994 28.8889 185.238 30.4369C184.494 31.9849 183.45 33.2089 182.106 34.1089C180.762 35.0089 179.196 35.4589 177.408 35.4589ZM167.832 43.5589V15.4789H172.152V28.7989H172.764V43.5589H167.832ZM176.616 31.1029C177.672 31.1029 178.536 30.8389 179.208 30.3109C179.88 29.7829 180.378 29.0749 180.702 28.1869C181.026 27.2869 181.188 26.2909 181.188 25.1989C181.188 24.1189 181.02 23.1349 180.684 22.2469C180.348 21.3469 179.826 20.6329 179.118 20.1049C178.422 19.5649 177.528 19.2949 176.436 19.2949C175.416 19.2949 174.588 19.5409 173.952 20.0329C173.328 20.5249 172.872 21.2149 172.584 22.1029C172.296 22.9909 172.152 24.0229 172.152 25.1989C172.152 26.3749 172.296 27.4069 172.584 28.2949C172.872 29.1829 173.34 29.8729 173.988 30.3649C174.648 30.8569 175.524 31.1029 176.616 31.1029ZM195.733 35.4589C194.341 35.4589 193.159 35.1949 192.187 34.6669C191.227 34.1269 190.495 33.4129 189.991 32.5249C189.499 31.6249 189.253 30.6349 189.253 29.5549C189.253 28.6549 189.391 27.8329 189.667 27.0889C189.943 26.3449 190.387 25.6909 190.999 25.1269C191.623 24.5509 192.457 24.0709 193.501 23.6869C194.221 23.4229 195.079 23.1889 196.075 22.9849C197.071 22.7809 198.199 22.5889 199.459 22.4089C200.719 22.2169 202.105 22.0069 203.617 21.7789L201.853 22.7509C201.853 21.5989 201.577 20.7529 201.025 20.2129C200.473 19.6729 199.549 19.4029 198.253 19.4029C197.533 19.4029 196.783 19.5769 196.003 19.9249C195.223 20.2729 194.677 20.8909 194.365 21.7789L189.937 20.3749C190.429 18.7669 191.353 17.4589 192.709 16.4509C194.065 15.4429 195.913 14.9389 198.253 14.9389C199.969 14.9389 201.493 15.2029 202.825 15.7309C204.157 16.2589 205.165 17.1709 205.849 18.4669C206.233 19.1869 206.461 19.9069 206.533 20.6269C206.605 21.3469 206.641 22.1509 206.641 23.0389V34.9189H202.357V30.9229L202.969 31.7509C202.021 33.0589 200.995 34.0069 199.891 34.5949C198.799 35.1709 197.413 35.4589 195.733 35.4589ZM196.777 31.6069C197.677 31.6069 198.433 31.4509 199.045 31.1389C199.669 30.8149 200.161 30.4489 200.521 30.0409C200.893 29.6329 201.145 29.2909 201.277 29.0149C201.529 28.4869 201.673 27.8749 201.709 27.1789C201.757 26.4709 201.781 25.8829 201.781 25.4149L203.221 25.7749C201.769 26.0149 200.593 26.2189 199.693 26.3869C198.793 26.5429 198.067 26.6869 197.515 26.8189C196.963 26.9509 196.477 27.0949 196.057 27.2509C195.577 27.4429 195.187 27.6529 194.887 27.8809C194.599 28.0969 194.383 28.3369 194.239 28.6009C194.107 28.8649 194.041 29.1589 194.041 29.4829C194.041 29.9269 194.149 30.3109 194.365 30.6349C194.593 30.9469 194.911 31.1869 195.319 31.3549C195.727 31.5229 196.213 31.6069 196.777 31.6069ZM211.321 34.9189V15.4789H215.641V20.2309L215.173 19.6189C215.425 18.9469 215.761 18.3349 216.181 17.7829C216.601 17.2309 217.117 16.7749 217.729 16.4149C218.197 16.1269 218.707 15.9049 219.259 15.7489C219.811 15.5809 220.381 15.4789 220.969 15.4429C221.557 15.3949 222.145 15.4069 222.733 15.4789V20.0509C222.193 19.8829 221.563 19.8289 220.843 19.8889C220.135 19.9369 219.493 20.0989 218.917 20.3749C218.341 20.6389 217.855 20.9929 217.459 21.4369C217.063 21.8689 216.763 22.3849 216.559 22.9849C216.355 23.5729 216.253 24.2389 216.253 24.9829V34.9189H211.321Z" fill="#EF0F3A"/>
<path d="M114.064 55.499V45.895H119.118C119.827 45.895 120.415 46.0164 120.882 46.259C121.349 46.5017 121.699 46.847 121.932 47.295C122.165 47.743 122.282 48.2704 122.282 48.877C122.282 49.5024 122.142 50.0577 121.862 50.543C121.582 51.019 121.171 51.3784 120.63 51.621L122.618 55.499H120.63L118.866 51.929H115.884V55.499H114.064ZM115.884 50.403H118.978C119.445 50.403 119.804 50.2677 120.056 49.997C120.308 49.7264 120.434 49.353 120.434 48.877C120.434 48.569 120.378 48.3124 120.266 48.107C120.154 47.8924 119.991 47.729 119.776 47.617C119.561 47.505 119.295 47.449 118.978 47.449H115.884V50.403ZM126.972 55.667C126.188 55.667 125.535 55.5317 125.012 55.261C124.49 54.981 124.098 54.5564 123.836 53.987C123.575 53.4177 123.444 52.6944 123.444 51.817C123.444 50.9304 123.575 50.207 123.836 49.647C124.098 49.0777 124.49 48.6577 125.012 48.387C125.535 48.107 126.188 47.967 126.972 47.967C127.682 47.967 128.274 48.1024 128.75 48.373C129.236 48.6344 129.6 49.0404 129.842 49.591C130.085 50.1417 130.206 50.8557 130.206 51.733V52.237H125.194C125.213 52.6944 125.283 53.0817 125.404 53.399C125.526 53.707 125.712 53.9404 125.964 54.099C126.226 54.2484 126.566 54.323 126.986 54.323C127.201 54.323 127.402 54.295 127.588 54.239C127.775 54.183 127.938 54.099 128.078 53.987C128.218 53.8657 128.326 53.7164 128.4 53.539C128.484 53.3617 128.526 53.1564 128.526 52.923H130.206C130.206 53.3897 130.122 53.7957 129.954 54.141C129.796 54.4864 129.567 54.771 129.268 54.995C128.979 55.219 128.638 55.387 128.246 55.499C127.854 55.611 127.43 55.667 126.972 55.667ZM125.222 51.033H128.428C128.428 50.725 128.391 50.4637 128.316 50.249C128.251 50.0344 128.153 49.857 128.022 49.717C127.901 49.577 127.752 49.479 127.574 49.423C127.397 49.3577 127.196 49.325 126.972 49.325C126.608 49.325 126.3 49.3857 126.048 49.507C125.806 49.6284 125.619 49.815 125.488 50.067C125.358 50.319 125.269 50.641 125.222 51.033ZM131.656 57.921V48.135H133.07L133.21 49.115H133.308C133.551 48.7324 133.868 48.4477 134.26 48.261C134.652 48.065 135.086 47.967 135.562 47.967C136.169 47.967 136.687 48.1024 137.116 48.373C137.555 48.6437 137.891 49.0637 138.124 49.633C138.367 50.2024 138.488 50.935 138.488 51.831C138.488 52.7084 138.367 53.4317 138.124 54.001C137.881 54.5704 137.545 54.9904 137.116 55.261C136.696 55.5317 136.211 55.667 135.66 55.667C135.324 55.667 135.016 55.6297 134.736 55.555C134.456 55.4804 134.209 55.3684 133.994 55.219C133.779 55.0604 133.597 54.869 133.448 54.645H133.364V57.921H131.656ZM135.03 54.197C135.45 54.197 135.781 54.1177 136.024 53.959C136.276 53.791 136.453 53.539 136.556 53.203C136.668 52.867 136.724 52.4424 136.724 51.929V51.733C136.724 51.2104 136.668 50.781 136.556 50.445C136.453 50.0997 136.276 49.8477 136.024 49.689C135.781 49.521 135.45 49.437 135.03 49.437C134.647 49.437 134.33 49.5257 134.078 49.703C133.835 49.8804 133.653 50.1417 133.532 50.487C133.42 50.823 133.364 51.2384 133.364 51.733V51.901C133.364 52.265 133.397 52.5917 133.462 52.881C133.527 53.161 133.625 53.399 133.756 53.595C133.896 53.791 134.069 53.9404 134.274 54.043C134.489 54.1457 134.741 54.197 135.03 54.197ZM141.831 55.667C141.626 55.667 141.388 55.639 141.117 55.583C140.856 55.5364 140.599 55.443 140.347 55.303C140.105 55.163 139.904 54.9577 139.745 54.687C139.587 54.407 139.507 54.043 139.507 53.595C139.507 53.091 139.619 52.6757 139.843 52.349C140.067 52.013 140.38 51.7517 140.781 51.565C141.192 51.369 141.677 51.2337 142.237 51.159C142.807 51.075 143.427 51.033 144.099 51.033V50.431C144.099 50.2164 144.067 50.025 144.001 49.857C143.936 49.689 143.815 49.5584 143.637 49.465C143.469 49.3624 143.213 49.311 142.867 49.311C142.522 49.311 142.251 49.353 142.055 49.437C141.859 49.521 141.724 49.6237 141.649 49.745C141.575 49.8664 141.537 49.9924 141.537 50.123V50.319H139.885C139.876 50.2724 139.871 50.2257 139.871 50.179C139.871 50.1324 139.871 50.0764 139.871 50.011C139.871 49.591 139.997 49.227 140.249 48.919C140.501 48.611 140.851 48.3777 141.299 48.219C141.747 48.051 142.265 47.967 142.853 47.967C143.525 47.967 144.076 48.0604 144.505 48.247C144.944 48.4337 145.271 48.6997 145.485 49.045C145.7 49.3904 145.807 49.8104 145.807 50.305V53.777C145.807 53.9544 145.859 54.0804 145.961 54.155C146.064 54.2297 146.176 54.267 146.297 54.267H146.745V55.443C146.652 55.4804 146.517 55.5224 146.339 55.569C146.162 55.625 145.943 55.653 145.681 55.653C145.439 55.653 145.219 55.611 145.023 55.527C144.837 55.4524 144.678 55.3404 144.547 55.191C144.417 55.0417 144.323 54.8644 144.267 54.659H144.183C144.025 54.855 143.833 55.0324 143.609 55.191C143.395 55.3404 143.138 55.457 142.839 55.541C142.55 55.625 142.214 55.667 141.831 55.667ZM142.349 54.267C142.629 54.267 142.877 54.225 143.091 54.141C143.315 54.057 143.497 53.9404 143.637 53.791C143.787 53.6417 143.899 53.4597 143.973 53.245C144.057 53.0304 144.099 52.797 144.099 52.545V52.209C143.586 52.209 143.11 52.2417 142.671 52.307C142.242 52.3724 141.897 52.4937 141.635 52.671C141.383 52.8484 141.257 53.1004 141.257 53.427C141.257 53.595 141.295 53.7444 141.369 53.875C141.453 53.9964 141.575 54.0944 141.733 54.169C141.901 54.2344 142.107 54.267 142.349 54.267ZM147.721 47.001V45.377H149.429V47.001H147.721ZM147.721 55.499V48.135H149.429V55.499H147.721ZM151.248 55.499V48.135H152.676L152.816 49.297H152.914C153.007 49.0637 153.119 48.849 153.25 48.653C153.39 48.4477 153.567 48.2844 153.782 48.163C153.997 48.0324 154.258 47.967 154.566 47.967C154.715 47.967 154.851 47.981 154.972 48.009C155.103 48.037 155.201 48.065 155.266 48.093V49.703H154.748C154.459 49.703 154.202 49.745 153.978 49.829C153.754 49.9037 153.563 50.025 153.404 50.193C153.255 50.361 153.143 50.571 153.068 50.823C152.993 51.075 152.956 51.369 152.956 51.705V55.499H151.248ZM162.587 55.667C162.055 55.667 161.547 55.611 161.061 55.499C160.576 55.3777 160.147 55.1957 159.773 54.953C159.4 54.701 159.106 54.393 158.891 54.029C158.677 53.6557 158.569 53.217 158.569 52.713C158.569 52.657 158.569 52.601 158.569 52.545C158.579 52.489 158.583 52.447 158.583 52.419H160.417C160.417 52.4377 160.413 52.475 160.403 52.531C160.403 52.5777 160.403 52.6197 160.403 52.657C160.403 52.965 160.492 53.231 160.669 53.455C160.847 53.6697 161.103 53.8377 161.439 53.959C161.775 54.071 162.172 54.127 162.629 54.127C162.937 54.127 163.208 54.1084 163.441 54.071C163.684 54.0337 163.889 53.9824 164.057 53.917C164.235 53.8424 164.379 53.7584 164.491 53.665C164.603 53.5624 164.683 53.4504 164.729 53.329C164.785 53.2077 164.813 53.077 164.813 52.937C164.813 52.6664 164.729 52.4424 164.561 52.265C164.393 52.0877 164.165 51.9384 163.875 51.817C163.595 51.6957 163.273 51.5884 162.909 51.495C162.555 51.3924 162.186 51.2897 161.803 51.187C161.43 51.0844 161.061 50.963 160.697 50.823C160.343 50.6737 160.021 50.4964 159.731 50.291C159.451 50.0857 159.227 49.829 159.059 49.521C158.891 49.2037 158.807 48.8257 158.807 48.387C158.807 47.939 158.901 47.547 159.087 47.211C159.283 46.875 159.554 46.5997 159.899 46.385C160.254 46.161 160.665 45.9977 161.131 45.895C161.598 45.783 162.107 45.727 162.657 45.727C163.171 45.727 163.651 45.783 164.099 45.895C164.557 45.9977 164.958 46.1657 165.303 46.399C165.649 46.623 165.919 46.9124 166.115 47.267C166.311 47.6124 166.409 48.0277 166.409 48.513V48.681H164.603V48.541C164.603 48.2704 164.519 48.0417 164.351 47.855C164.193 47.6684 163.964 47.5237 163.665 47.421C163.376 47.3184 163.035 47.267 162.643 47.267C162.223 47.267 161.864 47.309 161.565 47.393C161.267 47.4677 161.038 47.5844 160.879 47.743C160.721 47.8924 160.641 48.079 160.641 48.303C160.641 48.5364 160.725 48.7324 160.893 48.891C161.061 49.0497 161.285 49.185 161.565 49.297C161.855 49.409 162.177 49.5117 162.531 49.605C162.895 49.6984 163.264 49.801 163.637 49.913C164.02 50.0157 164.389 50.137 164.743 50.277C165.107 50.417 165.429 50.5944 165.709 50.809C165.999 51.0144 166.227 51.271 166.395 51.579C166.563 51.887 166.647 52.2557 166.647 52.685C166.647 53.4037 166.47 53.9824 166.115 54.421C165.77 54.8597 165.289 55.177 164.673 55.373C164.067 55.569 163.371 55.667 162.587 55.667ZM171.351 55.667C170.567 55.667 169.914 55.5317 169.391 55.261C168.869 54.981 168.477 54.5564 168.215 53.987C167.954 53.4177 167.823 52.6944 167.823 51.817C167.823 50.9304 167.954 50.207 168.215 49.647C168.477 49.0777 168.869 48.6577 169.391 48.387C169.914 48.107 170.567 47.967 171.351 47.967C172.061 47.967 172.653 48.1024 173.129 48.373C173.615 48.6344 173.979 49.0404 174.221 49.591C174.464 50.1417 174.585 50.8557 174.585 51.733V52.237H169.573C169.592 52.6944 169.662 53.0817 169.783 53.399C169.905 53.707 170.091 53.9404 170.343 54.099C170.605 54.2484 170.945 54.323 171.365 54.323C171.58 54.323 171.781 54.295 171.967 54.239C172.154 54.183 172.317 54.099 172.457 53.987C172.597 53.8657 172.705 53.7164 172.779 53.539C172.863 53.3617 172.905 53.1564 172.905 52.923H174.585C174.585 53.3897 174.501 53.7957 174.333 54.141C174.175 54.4864 173.946 54.771 173.647 54.995C173.358 55.219 173.017 55.387 172.625 55.499C172.233 55.611 171.809 55.667 171.351 55.667ZM169.601 51.033H172.807C172.807 50.725 172.77 50.4637 172.695 50.249C172.63 50.0344 172.532 49.857 172.401 49.717C172.28 49.577 172.131 49.479 171.953 49.423C171.776 49.3577 171.575 49.325 171.351 49.325C170.987 49.325 170.679 49.3857 170.427 49.507C170.185 49.6284 169.998 49.815 169.867 50.067C169.737 50.319 169.648 50.641 169.601 51.033ZM176.035 55.499V48.135H177.463L177.603 49.297H177.701C177.794 49.0637 177.906 48.849 178.037 48.653C178.177 48.4477 178.354 48.2844 178.569 48.163C178.784 48.0324 179.045 47.967 179.353 47.967C179.502 47.967 179.638 47.981 179.759 48.009C179.89 48.037 179.988 48.065 180.053 48.093V49.703H179.535C179.246 49.703 178.989 49.745 178.765 49.829C178.541 49.9037 178.35 50.025 178.191 50.193C178.042 50.361 177.93 50.571 177.855 50.823C177.78 51.075 177.743 51.369 177.743 51.705V55.499H176.035ZM182.997 55.499L180.267 48.135H182.059L183.249 51.453C183.305 51.6117 183.371 51.8264 183.445 52.097C183.529 52.3584 183.613 52.6337 183.697 52.923C183.781 53.203 183.851 53.4597 183.907 53.693H183.977C184.033 53.4784 184.099 53.231 184.173 52.951C184.248 52.671 184.323 52.3957 184.397 52.125C184.481 51.8544 184.556 51.6304 184.621 51.453L185.797 48.135H187.533L184.789 55.499H182.997ZM188.517 47.001V45.377H190.225V47.001H188.517ZM188.517 55.499V48.135H190.225V55.499H188.517ZM195.111 55.667C194.345 55.667 193.706 55.5317 193.193 55.261C192.689 54.981 192.311 54.5564 192.059 53.987C191.807 53.4177 191.681 52.6944 191.681 51.817C191.681 50.9304 191.807 50.207 192.059 49.647C192.32 49.0777 192.703 48.6577 193.207 48.387C193.72 48.107 194.355 47.967 195.111 47.967C195.605 47.967 196.044 48.0277 196.427 48.149C196.809 48.2704 197.136 48.457 197.407 48.709C197.687 48.9517 197.897 49.255 198.037 49.619C198.177 49.983 198.247 50.4077 198.247 50.893H196.511C196.511 50.5477 196.459 50.263 196.357 50.039C196.254 49.815 196.095 49.647 195.881 49.535C195.675 49.4137 195.409 49.353 195.083 49.353C194.7 49.353 194.387 49.4417 194.145 49.619C193.902 49.7964 193.72 50.0624 193.599 50.417C193.487 50.7624 193.431 51.201 193.431 51.733V51.915C193.431 52.4377 193.487 52.8764 193.599 53.231C193.72 53.5857 193.907 53.8517 194.159 54.029C194.411 54.197 194.742 54.281 195.153 54.281C195.47 54.281 195.731 54.225 195.937 54.113C196.151 53.9917 196.315 53.8144 196.427 53.581C196.539 53.3477 196.595 53.0677 196.595 52.741H198.247C198.247 53.1984 198.177 53.609 198.037 53.973C197.897 54.337 197.691 54.645 197.421 54.897C197.15 55.149 196.819 55.3404 196.427 55.471C196.044 55.6017 195.605 55.667 195.111 55.667ZM202.865 55.667C202.081 55.667 201.428 55.5317 200.905 55.261C200.382 54.981 199.99 54.5564 199.729 53.987C199.468 53.4177 199.337 52.6944 199.337 51.817C199.337 50.9304 199.468 50.207 199.729 49.647C199.99 49.0777 200.382 48.6577 200.905 48.387C201.428 48.107 202.081 47.967 202.865 47.967C203.574 47.967 204.167 48.1024 204.643 48.373C205.128 48.6344 205.492 49.0404 205.735 49.591C205.978 50.1417 206.099 50.8557 206.099 51.733V52.237H201.087C201.106 52.6944 201.176 53.0817 201.297 53.399C201.418 53.707 201.605 53.9404 201.857 54.099C202.118 54.2484 202.459 54.323 202.879 54.323C203.094 54.323 203.294 54.295 203.481 54.239C203.668 54.183 203.831 54.099 203.971 53.987C204.111 53.8657 204.218 53.7164 204.293 53.539C204.377 53.3617 204.419 53.1564 204.419 52.923H206.099C206.099 53.3897 206.015 53.7957 205.847 54.141C205.688 54.4864 205.46 54.771 205.161 54.995C204.872 55.219 204.531 55.387 204.139 55.499C203.747 55.611 203.322 55.667 202.865 55.667ZM201.115 51.033H204.321C204.321 50.725 204.284 50.4637 204.209 50.249C204.144 50.0344 204.046 49.857 203.915 49.717C203.794 49.577 203.644 49.479 203.467 49.423C203.29 49.3577 203.089 49.325 202.865 49.325C202.501 49.325 202.193 49.3857 201.941 49.507C201.698 49.6284 201.512 49.815 201.381 50.067C201.25 50.319 201.162 50.641 201.115 51.033ZM210.419 55.667C209.887 55.667 209.42 55.611 209.019 55.499C208.617 55.3777 208.281 55.2144 208.011 55.009C207.74 54.8037 207.535 54.5657 207.395 54.295C207.264 54.015 207.199 53.7117 207.199 53.385C207.199 53.3384 207.199 53.2964 207.199 53.259C207.208 53.2217 207.213 53.1937 207.213 53.175H208.893C208.893 53.1937 208.893 53.2124 208.893 53.231C208.893 53.2497 208.893 53.2684 208.893 53.287C208.902 53.539 208.981 53.7444 209.131 53.903C209.28 54.0524 209.476 54.1597 209.719 54.225C209.961 54.2904 210.218 54.323 210.489 54.323C210.731 54.323 210.96 54.2997 211.175 54.253C211.399 54.197 211.581 54.113 211.721 54.001C211.87 53.8797 211.945 53.7257 211.945 53.539C211.945 53.2964 211.851 53.1097 211.665 52.979C211.478 52.8484 211.231 52.741 210.923 52.657C210.624 52.573 210.302 52.4844 209.957 52.391C209.649 52.307 209.341 52.2137 209.033 52.111C208.725 52.0084 208.445 51.8777 208.193 51.719C207.95 51.5604 207.749 51.355 207.591 51.103C207.441 50.851 207.367 50.5384 207.367 50.165C207.367 49.801 207.446 49.4837 207.605 49.213C207.763 48.9424 207.983 48.7184 208.263 48.541C208.543 48.3544 208.874 48.2144 209.257 48.121C209.639 48.0277 210.055 47.981 210.503 47.981C210.941 47.981 211.338 48.0277 211.693 48.121C212.057 48.2144 212.369 48.3497 212.631 48.527C212.901 48.695 213.107 48.905 213.247 49.157C213.396 49.3997 213.471 49.6704 213.471 49.969C213.471 50.0344 213.466 50.0997 213.457 50.165C213.457 50.2304 213.457 50.2677 213.457 50.277H211.791V50.179C211.791 50.0017 211.735 49.8524 211.623 49.731C211.52 49.6004 211.366 49.4977 211.161 49.423C210.965 49.3484 210.717 49.311 210.419 49.311C210.195 49.311 209.999 49.3297 209.831 49.367C209.663 49.4044 209.523 49.4557 209.411 49.521C209.308 49.5864 209.229 49.661 209.173 49.745C209.117 49.829 209.089 49.9224 209.089 50.025C209.089 50.2024 209.159 50.3424 209.299 50.445C209.439 50.5477 209.625 50.6364 209.859 50.711C210.101 50.7857 210.363 50.865 210.643 50.949C210.979 51.0424 211.324 51.1404 211.679 51.243C212.033 51.3364 212.36 51.4577 212.659 51.607C212.967 51.7564 213.214 51.9664 213.401 52.237C213.587 52.5077 213.681 52.867 213.681 53.315C213.681 53.7444 213.597 54.113 213.429 54.421C213.27 54.7197 213.041 54.9624 212.743 55.149C212.453 55.3264 212.108 55.457 211.707 55.541C211.315 55.625 210.885 55.667 210.419 55.667Z" fill="white"/>
</svg>
