<svg width="412" height="141" viewBox="0 0 412 141" fill="none" xmlns="http://www.w3.org/2000/svg">
<g opacity="0.12" clip-path="url(#clip0_1_28720)">
<path d="M405.283 80.0586C405.283 82.2627 405.064 84.4667 404.91 86.6708L411.472 87.1383C411.648 84.8675 411.846 82.5966 411.868 80.3257L405.283 80.0586Z" fill="white"/>
<path fill-rule="evenodd" clip-rule="evenodd" d="M408.203 86.9162C406.381 86.7827 405.02 85.2019 405.174 83.3763C405.306 81.5508 406.754 80.1259 408.598 80.1927C410.397 80.2595 411.89 81.8402 411.758 83.7326C411.605 85.625 410.002 87.0498 408.203 86.9162Z" fill="white"/>
<path d="M403.835 97.647C403.528 99.8288 403.353 102.033 402.936 104.192L409.432 105.239C409.849 102.99 410.047 100.719 410.354 98.4707L403.835 97.647Z" fill="white"/>
<path fill-rule="evenodd" clip-rule="evenodd" d="M406.205 104.749C404.405 104.46 403.242 102.768 403.44 100.942C403.659 99.139 405.327 97.8477 407.127 98.0704C408.927 98.293 410.2 100.007 409.958 101.877C409.739 103.77 408.005 105.039 406.205 104.749Z" fill="white"/>
<path d="M400.917 115.057L399.469 121.513L405.856 123.138L407.37 116.481L400.917 115.057Z" fill="white"/>
<path fill-rule="evenodd" clip-rule="evenodd" d="M402.651 122.315C400.895 121.87 399.776 120.044 400.193 118.285C400.588 116.504 402.366 115.391 404.143 115.77C405.921 116.148 407.018 117.951 406.601 119.799C406.184 121.647 404.407 122.783 402.651 122.315Z" fill="white"/>
<path d="M396.548 132.133L394.441 138.412L400.675 140.593L402.825 134.115L396.548 132.133Z" fill="white"/>
<path fill-rule="evenodd" clip-rule="evenodd" d="M397.558 139.502C395.846 138.901 394.924 136.986 395.495 135.272C396.066 133.536 397.953 132.601 399.687 133.135C401.421 133.669 402.343 135.562 401.75 137.365C401.158 139.168 399.27 140.126 397.558 139.502Z" fill="white"/>
<path d="M15.956 133.624C15.2098 131.554 14.7269 129.394 14.1124 127.279L7.76953 129.105C8.40601 131.287 8.93275 133.513 9.67897 135.65L15.956 133.624Z" fill="white"/>
<path fill-rule="evenodd" clip-rule="evenodd" d="M10.9293 128.192C12.6851 127.702 14.5068 128.704 14.9896 130.463C15.4505 132.222 14.5507 134.069 12.8168 134.648C11.1049 135.205 9.17351 134.225 8.69067 132.4C8.18587 130.574 9.19546 128.704 10.9293 128.192Z" fill="white"/>
<path d="M11.4344 116.593C10.9296 114.456 10.4468 112.297 10.0956 110.115L3.62109 111.361C3.97226 113.61 4.47705 115.836 5.00379 118.063L11.4344 116.593Z" fill="white"/>
<path fill-rule="evenodd" clip-rule="evenodd" d="M6.8467 110.738C8.6464 110.404 10.3144 111.584 10.6875 113.365C11.0826 115.146 9.98521 116.905 8.20745 117.328C6.4297 117.728 4.65194 116.571 4.23494 114.723C3.86183 112.875 5.0909 111.072 6.8467 110.738Z" fill="white"/>
<path d="M8.36267 99.2279L7.52866 92.6602L0.988281 93.3281L1.82229 100.118L8.36267 99.2279Z" fill="white"/>
<path fill-rule="evenodd" clip-rule="evenodd" d="M4.25756 92.9942C6.05726 92.8161 7.72528 94.1296 7.94475 95.933C8.16423 97.7363 6.89127 99.406 5.09157 99.6509C3.29187 99.8958 1.6458 98.5823 1.40437 96.7122C1.16295 94.8421 2.43591 93.1723 4.25756 92.9942Z" fill="white"/>
<path d="M6.75986 81.6396L6.58427 75.0273L0 75.1164L0.175581 81.9513L6.75986 81.6396Z" fill="white"/>
<path fill-rule="evenodd" clip-rule="evenodd" d="M3.29127 75.072C5.11292 75.0498 6.6273 76.5191 6.6712 78.3225C6.71509 80.1481 5.26655 81.7065 3.46685 81.7956C1.6452 81.8846 0.130819 80.4375 0.0869238 78.5451C0.0430287 76.6527 1.46962 75.0943 3.29127 75.072Z" fill="white"/>
<path d="M6.71513 63.9845C6.71513 61.7805 6.93461 59.5764 7.08824 57.3723L0.525916 56.9048C0.350335 59.1756 0.152807 61.4465 0.130859 63.7174L6.71513 63.9845Z" fill="white"/>
<path fill-rule="evenodd" clip-rule="evenodd" d="M3.79603 57.1273C5.61768 57.2609 6.97843 58.8416 6.82479 60.6672C6.69311 62.4928 5.24457 63.9177 3.40097 63.8509C1.60127 63.7841 0.108834 62.2034 0.24052 60.311C0.394153 58.4186 1.99633 56.9937 3.79603 57.1273Z" fill="white"/>
<path d="M8.16492 46.396C8.47218 44.2142 8.64776 42.0101 9.06477 39.8506L2.56828 38.8042C2.15128 41.0528 1.95375 43.3237 1.64648 45.5723L8.16492 46.396Z" fill="white"/>
<path fill-rule="evenodd" clip-rule="evenodd" d="M5.79368 39.294C7.59338 39.6057 8.77855 41.2977 8.58102 43.1011C8.36155 44.9044 6.69353 46.1957 4.89383 45.973C3.09413 45.7504 1.82117 44.0361 2.06259 42.166C2.26012 40.2736 4.01592 39.0046 5.79368 39.294Z" fill="white"/>
<path d="M11.0834 28.9864L12.5539 22.53L6.14524 20.9048L4.63086 27.5838L11.0834 28.9864Z" fill="white"/>
<path fill-rule="evenodd" clip-rule="evenodd" d="M9.34954 21.7283C11.1053 22.1735 12.2247 23.9991 11.8077 25.7579C11.4126 27.539 9.63486 28.6522 7.85711 28.2737C6.07935 27.8952 4.98197 26.0919 5.39898 24.244C5.81598 22.3962 7.59374 21.2607 9.34954 21.7283Z" fill="white"/>
<path d="M15.4728 11.9103L17.5578 5.632L11.3247 3.4502L9.17383 9.92884L15.4728 11.9103Z" fill="white"/>
<path fill-rule="evenodd" clip-rule="evenodd" d="M14.4419 4.54089C16.1538 5.142 17.0756 7.05664 16.5049 8.77092C15.9343 10.5075 14.0468 11.4425 12.313 10.9082C10.5791 10.3739 9.65729 8.48151 10.2499 6.67818C10.8425 4.89711 12.73 3.93978 14.4419 4.54089Z" fill="white"/>
<path d="M396.045 10.4186C396.791 12.489 397.274 14.6486 397.889 16.7636L404.231 14.938C403.595 12.7562 403.068 10.5299 402.322 8.39258L396.045 10.4186Z" fill="white"/>
<path fill-rule="evenodd" clip-rule="evenodd" d="M401.071 15.8508C399.315 16.3406 397.493 15.3387 397.01 13.5799C396.55 11.8211 397.449 9.97324 399.183 9.39439C400.895 8.83781 402.826 9.81738 403.309 11.643C403.836 13.4686 402.827 15.361 401.071 15.8508Z" fill="white"/>
<path d="M400.564 27.4503C401.069 29.5876 401.552 31.7472 401.903 33.929L408.378 32.6822C408.027 30.4336 407.522 28.2073 406.995 25.981L400.564 27.4503Z" fill="white"/>
<path fill-rule="evenodd" clip-rule="evenodd" d="M405.152 33.3059C403.352 33.6399 401.684 32.4599 401.311 30.6788C400.916 28.8978 402.013 27.139 403.791 26.716C405.569 26.3152 407.346 27.4729 407.763 29.3208C408.137 31.1686 406.929 32.972 405.152 33.3059Z" fill="white"/>
<path d="M403.639 44.8383L404.473 51.3837L411.013 50.7158L410.179 43.9478L403.639 44.8383Z" fill="white"/>
<path fill-rule="evenodd" clip-rule="evenodd" d="M407.743 51.0499C405.943 51.228 404.275 49.9145 404.056 48.1111C403.836 46.3078 405.109 44.638 406.909 44.3931C408.709 44.1482 410.355 45.4618 410.596 47.3319C410.838 49.202 409.565 50.8718 407.743 51.0499Z" fill="white"/>
<path d="M405.24 62.4035L405.416 69.0157L412 68.9267L411.825 62.0918L405.24 62.4035Z" fill="white"/>
<path fill-rule="evenodd" clip-rule="evenodd" d="M408.707 68.9706C406.885 68.9929 405.371 67.5235 405.327 65.7201C405.283 63.8945 406.732 62.3361 408.532 62.2471C410.353 62.158 411.868 63.6051 411.911 65.4975C411.955 67.4122 410.529 68.9483 408.707 68.9706Z" fill="white"/>
<path d="M387.308 80.0142C387.286 82.196 387.022 84.3778 386.891 86.5596L393.453 87.0717C393.585 84.8008 393.87 82.5522 393.892 80.2813L387.308 80.0142Z" fill="white"/>
<path fill-rule="evenodd" clip-rule="evenodd" d="M390.183 86.8273C388.361 86.6715 387 85.0907 387.132 83.2874C387.307 81.4841 388.778 80.0815 390.6 80.1483C392.399 80.2151 393.892 81.818 393.716 83.6882C393.584 85.5805 392.004 86.9831 390.183 86.8273Z" fill="white"/>
<path d="M385.75 97.4688C385.53 99.6506 385.135 101.81 384.74 103.947L391.237 105.105C391.632 102.879 392.049 100.63 392.29 98.3815L385.75 97.4688Z" fill="white"/>
<path fill-rule="evenodd" clip-rule="evenodd" d="M387.988 104.526C386.188 104.192 385.003 102.5 385.31 100.719C385.595 98.9382 387.198 97.6692 389.019 97.9141C390.797 98.159 392.136 99.8732 391.829 101.743C391.499 103.591 389.787 104.838 387.988 104.526Z" fill="white"/>
<path d="M382.567 114.679L381.843 117.885L380.965 121.046L387.308 122.805L388.229 119.532L388.976 116.215L382.567 114.679Z" fill="white"/>
<path fill-rule="evenodd" clip-rule="evenodd" d="M384.146 121.937C382.39 121.447 381.381 119.622 381.842 117.885C382.237 116.126 384.015 115.035 385.77 115.458C387.548 115.881 388.646 117.707 388.229 119.555C387.724 121.358 385.88 122.427 384.146 121.937Z" fill="white"/>
<path d="M377.783 131.509C377.102 133.58 376.422 135.673 375.588 137.698L381.733 140.081C382.589 137.988 383.291 135.828 383.994 133.669L377.783 131.509Z" fill="white"/>
<path fill-rule="evenodd" clip-rule="evenodd" d="M378.66 138.878C376.948 138.21 376.158 136.318 376.729 134.626C377.299 132.911 379.165 131.998 380.877 132.6C382.589 133.178 383.51 135.115 382.918 136.896C382.325 138.677 380.35 139.546 378.66 138.878Z" fill="white"/>
<path d="M34.7214 132.979L32.6364 126.767L26.3594 128.749L28.4883 135.205L34.7214 132.979Z" fill="white"/>
<path fill-rule="evenodd" clip-rule="evenodd" d="M29.4973 127.746C31.2312 127.212 33.1186 128.147 33.6893 129.861C34.2599 131.576 33.3381 133.468 31.6262 134.069C29.9143 134.693 28.0488 133.735 27.4342 131.954C26.8197 130.195 27.7634 128.303 29.4973 127.746Z" fill="white"/>
<path d="M29.782 116.192L28.3115 109.803L21.8809 111.161L23.3733 117.795L29.782 116.192Z" fill="white"/>
<path fill-rule="evenodd" clip-rule="evenodd" d="M25.0859 110.471C26.8636 110.092 28.6414 111.228 29.0365 112.987C29.4315 114.745 28.3341 116.549 26.5564 116.994C24.8006 117.439 23.0228 116.304 22.6058 114.478C22.2108 112.653 23.3081 110.849 25.0859 110.471Z" fill="white"/>
<path d="M26.4467 99.0051L25.6346 92.4819L19.0723 93.2166L19.9282 99.9847L26.4467 99.0051Z" fill="white"/>
<path fill-rule="evenodd" clip-rule="evenodd" d="M22.3431 92.8598C24.1428 92.6595 25.8108 93.9507 26.0303 95.7541C26.2498 97.5574 24.9768 99.2272 23.1771 99.4943C21.3774 99.7615 19.7313 98.4702 19.4899 96.6001C19.2485 94.73 20.5434 93.0602 22.3431 92.8598Z" fill="white"/>
<path d="M24.7345 81.5721L24.5589 75.0044L17.9746 75.0935L18.1502 81.9061L24.7345 81.5721Z" fill="white"/>
<path fill-rule="evenodd" clip-rule="evenodd" d="M21.2659 75.0491C23.0875 75.0268 24.6019 76.4739 24.6458 78.2773C24.6897 80.0806 23.2412 81.639 21.4415 81.7281C19.6198 81.8171 18.1054 80.3923 18.0615 78.4999C18.0176 76.6298 19.4442 75.0713 21.2659 75.0491Z" fill="white"/>
<path d="M24.6902 64.0287C24.7122 61.8469 24.9755 59.6651 25.1072 57.4833L18.5229 56.9712C18.3913 59.2421 18.1059 61.4907 18.084 63.7615L24.6902 64.0287Z" fill="white"/>
<path fill-rule="evenodd" clip-rule="evenodd" d="M21.8152 57.2158C23.6369 57.3717 24.9976 58.9524 24.8659 60.7557C24.6903 62.5591 23.2199 63.9616 21.3982 63.8948C19.5985 63.8281 18.1061 62.2251 18.2816 60.355C18.4133 58.4849 19.9936 57.0823 21.8152 57.2158Z" fill="white"/>
<path d="M26.2494 46.5973C26.4688 44.4155 26.8639 42.2559 27.259 40.1186L20.7625 38.9609C20.3674 41.1873 19.9504 43.4359 19.709 45.6845L26.2494 46.5973Z" fill="white"/>
<path fill-rule="evenodd" clip-rule="evenodd" d="M24.0099 39.518C25.8096 39.8519 26.9948 41.5439 26.6875 43.325C26.4022 45.1061 24.8 46.3751 22.9783 46.1302C21.2006 45.8853 19.8618 44.171 20.1691 42.3009C20.4983 40.453 22.2321 39.2063 24.0099 39.518Z" fill="white"/>
<path d="M29.4321 29.3649L30.1564 26.159L31.0343 22.9976L24.6915 21.2388L23.7697 24.5115L23.0234 27.8287L29.4321 29.3649Z" fill="white"/>
<path fill-rule="evenodd" clip-rule="evenodd" d="M27.8523 22.1296C29.6081 22.6194 30.6177 24.445 30.1568 26.1815C29.7618 27.9404 27.984 29.0313 26.2282 28.6083C24.4504 28.1853 23.3531 26.3597 23.7701 24.5118C24.2749 22.6862 26.1185 21.6176 27.8523 22.1296Z" fill="white"/>
<path d="M34.2151 12.5343C34.8954 10.4638 35.5758 8.37104 36.4098 6.34507L30.2645 3.96289C29.4086 6.05565 28.7062 8.21519 28.0039 10.3747L34.2151 12.5343Z" fill="white"/>
<path fill-rule="evenodd" clip-rule="evenodd" d="M33.338 5.16531C35.0499 5.83321 35.84 7.72559 35.2694 9.41761C34.6987 11.1319 32.8332 12.0447 31.1213 11.4436C29.4094 10.8647 28.4876 8.92782 29.0801 7.14675C29.6727 5.36568 31.648 4.51967 33.338 5.16531Z" fill="white"/>
<path d="M370.781 -5.16503C371.659 -3.16133 372.581 -1.17988 373.437 0.823819L379.516 -1.75873C378.638 -3.85149 377.695 -5.89972 376.773 -7.97021L370.781 -5.16503Z" fill="white"/>
<path fill-rule="evenodd" clip-rule="evenodd" d="M376.466 -0.467717C374.797 0.222448 372.844 -0.534508 372.12 -2.182C371.396 -3.82949 372.12 -5.78866 373.788 -6.56788C375.434 -7.34709 377.387 -6.59014 378.155 -4.87586C378.924 -3.16158 378.177 -1.18014 376.466 -0.467717Z" fill="white"/>
<path d="M377.279 11.0647L379.364 17.2762L385.663 15.2947L383.512 8.83838L377.279 11.0647Z" fill="white"/>
<path fill-rule="evenodd" clip-rule="evenodd" d="M382.503 16.2966C380.77 16.831 378.882 15.8959 378.311 14.1816C377.741 12.4673 378.663 10.5749 380.375 9.97384C382.086 9.35046 383.952 10.3078 384.567 12.0889C385.181 13.8699 384.259 15.7401 382.503 16.2966Z" fill="white"/>
<path d="M382.217 27.8515L383.687 34.2411L390.14 32.883L388.626 26.2485L382.217 27.8515Z" fill="white"/>
<path fill-rule="evenodd" clip-rule="evenodd" d="M386.914 33.5725C385.136 33.951 383.358 32.8156 382.963 31.0568C382.568 29.2979 383.666 27.4946 385.443 27.0494C387.199 26.6041 388.977 27.7395 389.394 29.5651C389.789 31.413 388.692 33.194 386.914 33.5725Z" fill="white"/>
<path d="M385.553 45.0387L386.365 51.5618L392.927 50.8271L392.071 44.0591L385.553 45.0387Z" fill="white"/>
<path fill-rule="evenodd" clip-rule="evenodd" d="M389.657 51.1832C387.857 51.3835 386.189 50.0922 385.97 48.2889C385.75 46.4856 387.023 44.8158 388.823 44.5487C390.623 44.2815 392.269 45.5728 392.51 47.4429C392.73 49.313 391.457 50.9828 389.657 51.1832Z" fill="white"/>
<path d="M387.287 62.4707L387.441 69.0384L394.025 68.9493L393.849 62.1367L387.287 62.4707Z" fill="white"/>
<path fill-rule="evenodd" clip-rule="evenodd" d="M390.732 68.994C388.911 69.0163 387.396 67.5692 387.353 65.7658C387.309 63.9625 388.757 62.404 390.557 62.315C392.379 62.2259 393.893 63.6508 393.937 65.5432C394.003 67.4133 392.554 68.9717 390.732 68.994Z" fill="white"/>
<path d="M369.355 79.9248C369.246 82.0844 369.048 84.2439 368.895 86.4257L375.457 87.0045C375.611 84.7559 375.83 82.5073 375.94 80.2587L369.355 79.9248Z" fill="white"/>
<path fill-rule="evenodd" clip-rule="evenodd" d="M372.186 86.7149C370.387 86.5591 369.004 84.9561 369.136 83.1751C369.289 81.394 370.848 80.0137 372.647 80.0804C374.491 80.1695 375.874 81.7502 375.72 83.6203C375.566 85.4904 373.986 86.893 372.186 86.7149Z" fill="white"/>
<path d="M367.664 97.2236L366.545 103.635L373.019 104.904L374.183 98.2255L367.664 97.2236Z" fill="white"/>
<path fill-rule="evenodd" clip-rule="evenodd" d="M369.77 104.259C367.993 103.902 366.785 102.188 367.093 100.429C367.4 98.6704 369.112 97.4682 370.912 97.7354C372.711 98.0026 373.918 99.7168 373.589 101.565C373.282 103.413 371.57 104.615 369.77 104.259Z" fill="white"/>
<path d="M364.197 114.232L362.441 120.488L368.74 122.425L370.562 115.924L364.197 114.232Z" fill="white"/>
<path fill-rule="evenodd" clip-rule="evenodd" d="M365.579 121.468C363.845 120.934 362.814 119.086 363.297 117.349C363.78 115.613 365.601 114.611 367.357 115.056C369.113 115.524 370.144 117.349 369.64 119.153C369.135 120.956 367.335 122.002 365.579 121.468Z" fill="white"/>
<path d="M358.974 130.752L356.604 136.808L362.661 139.412L365.119 133.112L358.974 130.752Z" fill="white"/>
<path fill-rule="evenodd" clip-rule="evenodd" d="M359.633 138.121C357.987 137.409 357.131 135.449 357.789 133.78C358.448 132.11 360.357 131.286 362.047 131.932C363.737 132.577 364.571 134.514 363.913 136.273C363.21 138.01 361.323 138.856 359.633 138.121Z" fill="white"/>
<path d="M53.5944 132.2L52.4092 129.172L51.3776 126.077L45.1445 128.259L46.2419 131.465L47.449 134.626L53.5944 132.2Z" fill="white"/>
<path fill-rule="evenodd" clip-rule="evenodd" d="M48.2619 127.168C49.9738 126.567 51.8394 127.457 52.41 129.172C53.0684 130.841 52.2125 132.734 50.5225 133.402C48.8325 134.07 46.9011 133.201 46.2208 131.465C45.6282 129.706 46.55 127.769 48.2619 127.168Z" fill="white"/>
<path d="M48.2174 115.702C47.581 113.632 47.142 111.494 46.6592 109.379L40.2285 110.871C40.7333 113.075 41.1942 115.279 41.8526 117.439L48.2174 115.702Z" fill="white"/>
<path fill-rule="evenodd" clip-rule="evenodd" d="M43.4556 110.136C45.2333 109.736 46.9891 110.804 47.3842 112.563C47.7792 114.3 46.8136 116.081 45.0358 116.593C43.3019 117.082 41.4144 116.036 40.9974 114.21C40.5804 112.363 41.6998 110.559 43.4556 110.136Z" fill="white"/>
<path d="M44.596 98.7376C44.179 96.6003 44.0254 94.4408 43.7181 92.2812L37.1777 93.0827C37.485 95.3091 37.6606 97.5799 38.0995 99.784L44.596 98.7376Z" fill="white"/>
<path fill-rule="evenodd" clip-rule="evenodd" d="M40.4482 92.7041C42.2479 92.4814 43.894 93.7504 44.1135 95.5315C44.311 97.3126 43.1258 98.9823 41.3261 99.294C39.5484 99.5834 37.7926 98.3367 37.5731 96.4888C37.3536 94.5964 38.6485 92.9267 40.4482 92.7041Z" fill="white"/>
<path d="M42.731 81.4833C42.5774 79.3238 42.5993 77.142 42.5335 74.9824L35.9492 75.0937C36.0151 77.3423 36.0151 79.6132 36.1687 81.8618L42.731 81.4833Z" fill="white"/>
<path fill-rule="evenodd" clip-rule="evenodd" d="M39.2417 75.0271C41.0633 75.0048 42.5777 76.4297 42.6216 78.233C42.6435 80.0364 41.2608 81.5725 39.4611 81.6839C37.6395 81.7952 36.0593 80.3703 36.0373 78.5002C35.9715 76.6078 37.42 75.0494 39.2417 75.0271Z" fill="white"/>
<path d="M42.6429 64.1183C42.7526 61.9588 42.9501 59.7992 43.1038 57.6174L36.5414 57.0386C36.3878 59.2872 36.1683 61.5358 36.0586 63.7844L42.6429 64.1183Z" fill="white"/>
<path fill-rule="evenodd" clip-rule="evenodd" d="M39.8343 57.3279C41.634 57.4838 43.0167 59.0867 42.885 60.8678C42.7314 62.6489 41.1731 64.0292 39.3734 63.9624C37.5298 63.8733 36.1471 62.2926 36.3007 60.4225C36.4324 58.5524 38.0126 57.1721 39.8343 57.3279Z" fill="white"/>
<path d="M44.3329 46.8191L45.4522 40.4072L38.9777 39.1382L37.8145 45.8172L44.3329 46.8191Z" fill="white"/>
<path fill-rule="evenodd" clip-rule="evenodd" d="M42.2265 39.7842C44.0043 40.1404 45.2114 41.8547 44.9041 43.6135C44.5969 45.3723 42.885 46.5745 41.0853 46.3074C39.2855 46.0402 38.0784 44.3259 38.4076 42.478C38.7149 40.6302 40.4488 39.428 42.2265 39.7842Z" fill="white"/>
<path d="M47.8003 29.8324L49.5562 23.5541L43.2572 21.6172L41.4355 28.1181L47.8003 29.8324Z" fill="white"/>
<path fill-rule="evenodd" clip-rule="evenodd" d="M46.4171 22.5751C48.1509 23.1094 49.1825 24.9572 48.6996 26.6938C48.2168 28.4081 46.3951 29.4322 44.6393 28.9869C42.8835 28.5194 41.852 26.6938 42.3568 24.8905C42.8616 23.0649 44.6832 22.0407 46.4171 22.5751Z" fill="white"/>
<path d="M53.0462 13.2903L55.3946 7.2347L49.337 4.62988L46.8789 10.9304L53.0462 13.2903Z" fill="white"/>
<path fill-rule="evenodd" clip-rule="evenodd" d="M52.3663 5.92078C54.0124 6.63321 54.8684 8.59239 54.2099 10.2621C53.5515 11.9319 51.6421 12.7556 49.9521 12.11C48.2621 11.4644 47.4281 9.52745 48.0866 7.76864C48.7889 6.0321 50.6764 5.18609 52.3663 5.92078Z" fill="white"/>
<path d="M351.357 -3.9633C352.323 -2.02638 353.355 -0.133998 354.211 1.86971L360.18 -0.957736C359.302 -3.02823 358.227 -5.00968 357.217 -7.03564L351.357 -3.9633Z" fill="white"/>
<path fill-rule="evenodd" clip-rule="evenodd" d="M357.196 0.444441C355.528 1.22366 353.662 0.488967 352.828 -1.06947C352.016 -2.67243 352.675 -4.65387 354.299 -5.49988C355.901 -6.34588 357.898 -5.70025 358.754 -4.00823C359.61 -2.36074 358.82 -0.312514 357.196 0.444441Z" fill="white"/>
<path d="M358.402 11.8432L359.587 14.871L360.619 17.9656L366.852 15.7838L365.777 12.5779L364.548 9.4165L358.402 11.8432Z" fill="white"/>
<path fill-rule="evenodd" clip-rule="evenodd" d="M363.736 16.8749C362.024 17.4761 360.158 16.5855 359.587 14.8713C358.929 13.2015 359.785 11.3091 361.475 10.6412C363.165 9.97331 365.096 10.8416 365.777 12.5781C366.369 14.3592 365.448 16.2738 363.736 16.8749Z" fill="white"/>
<path d="M363.779 28.3405C364.416 30.411 364.855 32.5483 365.338 34.6634L371.768 33.1717C371.263 30.9676 370.803 28.7636 370.144 26.604L363.779 28.3405Z" fill="white"/>
<path fill-rule="evenodd" clip-rule="evenodd" d="M368.542 33.9059C366.764 34.3066 365.008 33.238 364.613 31.4792C364.218 29.7426 365.184 27.9615 366.962 27.4495C368.695 26.9597 370.583 28.0061 371 29.8317C371.417 31.6795 370.32 33.4829 368.542 33.9059Z" fill="white"/>
<path d="M367.402 45.3061C367.819 47.4434 367.973 49.603 368.28 51.7625L374.821 50.961C374.513 48.7347 374.338 46.4638 373.899 44.2598L367.402 45.3061Z" fill="white"/>
<path fill-rule="evenodd" clip-rule="evenodd" d="M371.55 51.3392C369.75 51.5618 368.104 50.2928 367.885 48.5117C367.687 46.7307 368.872 45.0609 370.672 44.7492C372.45 44.4598 374.206 45.7066 374.425 47.5544C374.645 49.4468 373.372 51.1388 371.55 51.3392Z" fill="white"/>
<path d="M369.268 62.5591C369.421 64.7187 369.399 66.9005 369.465 69.06L376.049 68.9487C375.984 66.7001 375.984 64.4293 375.83 62.1807L369.268 62.5591Z" fill="white"/>
<path fill-rule="evenodd" clip-rule="evenodd" d="M372.757 69.0159C370.935 69.0382 369.421 67.6133 369.377 65.81C369.355 64.0066 370.738 62.4704 372.538 62.3591C374.359 62.2478 375.94 63.6727 375.961 65.5428C376.027 67.4574 374.579 68.9936 372.757 69.0159Z" fill="white"/>
<path d="M351.36 79.9922L350.877 86.5376L357.417 87.1832L357.944 80.3484L351.36 79.9922Z" fill="white"/>
<path fill-rule="evenodd" clip-rule="evenodd" d="M354.147 86.8719C352.347 86.6938 350.986 85.0685 351.118 83.2652C351.25 81.4619 352.83 80.0815 354.652 80.1706C356.473 80.2596 357.834 81.8626 357.681 83.7773C357.549 85.6696 355.947 87.05 354.147 86.8719Z" fill="white"/>
<path d="M349.385 97.3794C348.99 99.5389 348.683 101.698 348.156 103.814L354.587 105.238C355.136 103.012 355.465 100.763 355.882 98.5148L349.385 97.3794Z" fill="white"/>
<path fill-rule="evenodd" clip-rule="evenodd" d="M351.382 104.526C349.582 104.125 348.551 102.389 348.836 100.607C349.143 98.8264 350.855 97.6464 352.655 97.9581C354.455 98.2698 355.64 100.029 355.311 101.899C354.981 103.769 353.116 104.927 351.382 104.526Z" fill="white"/>
<path d="M345.456 114.411C344.907 116.526 344.117 118.574 343.459 120.645L349.67 122.849C350.351 120.667 351.185 118.53 351.755 116.326L345.456 114.411Z" fill="white"/>
<path fill-rule="evenodd" clip-rule="evenodd" d="M346.576 121.758C344.864 121.135 343.92 119.265 344.491 117.55C345.083 115.858 346.861 114.857 348.617 115.369C350.351 115.881 351.404 117.818 350.768 119.599C350.175 121.402 348.288 122.359 346.576 121.758Z" fill="white"/>
<path d="M339.551 130.841C338.651 132.823 337.817 134.849 336.852 136.808L342.777 139.747C343.787 137.698 344.665 135.583 345.609 133.513L339.551 130.841Z" fill="white"/>
<path fill-rule="evenodd" clip-rule="evenodd" d="M339.792 138.277C338.19 137.475 337.487 135.494 338.19 133.846C338.914 132.199 340.867 131.464 342.535 132.199C344.203 132.934 344.928 134.915 344.16 136.652C343.435 138.366 341.438 139.101 339.792 138.277Z" fill="white"/>
<path d="M76.862 140.148C75.8963 138.188 74.8428 136.274 74.0088 134.27L68.0391 137.097C68.917 139.212 70.0143 141.194 71.0239 143.242L76.862 140.148Z" fill="white"/>
<path fill-rule="evenodd" clip-rule="evenodd" d="M71.0014 135.673C72.6694 134.893 74.5349 135.628 75.3689 137.231C76.181 138.834 75.5226 140.838 73.9204 141.706C72.3182 142.574 70.321 141.884 69.465 140.192C68.5871 138.5 69.3772 136.43 71.0014 135.673Z" fill="white"/>
<path d="M69.7946 124.185C68.9606 122.159 68.368 120.067 67.6437 117.996L61.3887 120.067C62.1349 122.226 62.7714 124.43 63.6273 126.545L69.7946 124.185Z" fill="white"/>
<path fill-rule="evenodd" clip-rule="evenodd" d="M64.5267 119.02C66.2605 118.463 68.1261 119.376 68.6967 121.09C69.2454 122.805 68.4114 124.697 66.7214 125.343C65.0314 125.988 63.0562 125.12 62.4855 123.294C61.871 121.513 62.7928 119.599 64.5267 119.02Z" fill="white"/>
<path d="M64.68 107.465C64.2191 105.327 63.6704 103.212 63.2534 101.075L56.8008 102.389C57.2397 104.637 57.7884 106.841 58.2932 109.09L64.68 107.465Z" fill="white"/>
<path fill-rule="evenodd" clip-rule="evenodd" d="M60.0277 101.721C61.7836 101.365 63.5394 102.523 63.9564 104.281C64.3514 106.04 63.254 107.821 61.4763 108.267C59.7205 108.712 57.9427 107.576 57.5257 105.729C57.0868 103.881 58.228 102.077 60.0277 101.721Z" fill="white"/>
<path d="M61.586 90.2561L61.169 87.0056L60.9276 83.7329L54.3652 84.2672L54.6067 87.6735L55.0456 91.0798L61.586 90.2561Z" fill="white"/>
<path fill-rule="evenodd" clip-rule="evenodd" d="M57.6352 83.9994C59.4569 83.8659 61.0371 85.2017 61.1688 87.005C61.3883 88.7861 60.1153 90.4336 58.2937 90.6785C56.494 90.9011 54.8259 89.5653 54.6065 87.6952C54.4748 85.7805 55.8355 84.133 57.6352 83.9994Z" fill="white"/>
<path d="M60.4446 72.8007C60.4226 70.6189 60.5324 68.4371 60.5763 66.233L53.992 65.9658C53.9481 68.2589 53.8383 70.5298 53.8603 72.8229L60.4446 72.8007Z" fill="white"/>
<path fill-rule="evenodd" clip-rule="evenodd" d="M57.2844 66.121C59.1061 66.2101 60.5326 67.724 60.4887 69.5273C60.4229 71.3307 58.9524 72.8 57.1527 72.8223C55.3091 72.8446 53.8386 71.3084 53.9045 69.416C53.9484 67.5014 55.4628 66.032 57.2844 66.121Z" fill="white"/>
<path d="M61.3885 55.3246C61.6738 53.1651 61.8933 50.9833 62.2445 48.8237L55.726 47.7773C55.3749 50.0259 55.1334 52.3191 54.8262 54.5677L61.3885 55.3246Z" fill="white"/>
<path fill-rule="evenodd" clip-rule="evenodd" d="M58.9744 48.3121C60.7522 48.6015 62.0032 50.2935 61.7837 52.0746C61.5643 53.8557 59.9182 55.1469 58.0965 54.9466C56.2968 54.7462 55.0239 53.0542 55.2434 51.1618C55.4848 49.2917 57.1528 48.0004 58.9744 48.3121Z" fill="white"/>
<path d="M64.3286 38.0921C64.7676 35.9548 65.3382 33.8397 65.9527 31.747L59.6099 29.9214C58.9734 32.1032 58.3808 34.3295 57.9199 36.5559L64.3286 38.0921Z" fill="white"/>
<path fill-rule="evenodd" clip-rule="evenodd" d="M62.7915 30.8341C64.5473 31.3462 65.5569 33.1718 65.074 34.9083C64.657 36.6671 62.9012 37.758 61.1235 37.335C59.3677 36.912 58.2483 35.0864 58.6873 33.2385C59.1921 31.3907 61.0357 30.322 62.7915 30.8341Z" fill="white"/>
<path d="M69.2459 21.3282L71.6162 15.2281L65.5148 12.6455L63.0566 19.0351L69.2459 21.3282Z" fill="white"/>
<path fill-rule="evenodd" clip-rule="evenodd" d="M68.5656 13.9368C70.2337 14.6493 71.0677 16.6085 70.4312 18.2782C69.7728 19.948 67.8633 20.8162 66.1514 20.1929C64.4395 19.5695 63.6055 17.6326 64.2859 15.8515C64.9662 14.0704 66.8976 13.2244 68.5656 13.9368Z" fill="white"/>
<path d="M76.1588 5.2983C77.1465 3.36138 78.0902 1.37995 79.2095 -0.490178L73.4812 -3.78516C72.318 -1.82598 71.3084 0.222245 70.2988 2.27048L76.1588 5.2983Z" fill="white"/>
<path fill-rule="evenodd" clip-rule="evenodd" d="M76.3339 -2.13729C77.9361 -1.22449 78.4409 0.756947 77.6288 2.35991C76.8167 3.96287 74.8415 4.58625 73.2173 3.76251C71.5932 2.93876 70.9567 0.890532 71.8127 -0.801485C72.6686 -2.47124 74.7756 -3.02783 76.3339 -2.13729Z" fill="white"/>
<path d="M330.971 -3.74038L334.175 1.95903L339.969 -1.22463L336.611 -7.16895L330.971 -3.74038Z" fill="white"/>
<path fill-rule="evenodd" clip-rule="evenodd" d="M337.073 0.37852C335.492 1.24679 333.451 0.690208 332.573 -0.890491C331.695 -2.44893 332.244 -4.49716 333.78 -5.45448C335.339 -6.41181 337.358 -5.85523 338.302 -4.20774C339.223 -2.56025 338.697 -0.512015 337.073 0.37852Z" fill="white"/>
<path d="M338.916 11.7772C339.838 13.7586 340.65 15.7846 341.418 17.8328L347.541 15.3838C346.729 13.2465 345.895 11.1315 344.93 9.06104L338.916 11.7772Z" fill="white"/>
<path fill-rule="evenodd" clip-rule="evenodd" d="M344.492 16.6082C342.802 17.2761 340.892 16.4523 340.234 14.7826C339.531 13.1351 340.256 11.1759 341.924 10.4189C343.57 9.66199 345.567 10.4412 346.313 12.1778C346.994 13.9588 346.182 15.9403 344.492 16.6082Z" fill="white"/>
<path d="M345.039 28.1406L346.817 34.4412L353.182 32.7491L351.338 26.1592L345.039 28.1406Z" fill="white"/>
<path fill-rule="evenodd" clip-rule="evenodd" d="M350 33.5951C348.244 34.0626 346.422 33.0162 345.918 31.2797C345.435 29.5432 346.444 27.6953 348.178 27.1387C349.912 26.5821 351.734 27.6062 352.238 29.4541C352.765 31.2797 351.756 33.1498 350 33.5951Z" fill="white"/>
<path d="M349.121 45.127C349.494 47.2866 349.933 49.4239 350.153 51.6057L356.671 50.6929C356.43 48.422 355.969 46.1734 355.596 43.9248L349.121 45.127Z" fill="white"/>
<path fill-rule="evenodd" clip-rule="evenodd" d="M353.422 51.1378C351.6 51.3827 350.042 50.1137 349.691 48.3549C349.384 46.5738 350.569 44.8595 352.369 44.5256C354.146 44.1916 355.88 45.4161 356.209 47.2862C356.561 49.1563 355.2 50.9151 353.422 51.1378Z" fill="white"/>
<path d="M351.25 62.4928C351.469 64.6746 351.426 66.8564 351.513 69.0605L358.098 68.9269C358.01 66.6338 358.054 64.363 357.834 62.0698L351.25 62.4928Z" fill="white"/>
<path fill-rule="evenodd" clip-rule="evenodd" d="M354.806 68.9935C352.984 69.0158 351.47 67.5909 351.426 65.7876C351.426 63.9843 352.699 62.4258 354.542 62.2922C356.32 62.1587 358.01 63.6058 358.01 65.4982C358.054 67.3906 356.605 68.949 354.806 68.9935Z" fill="white"/>
<path d="M333.34 79.9033C333.142 82.0629 333.076 84.2224 332.791 86.3597L339.331 87.0944C339.617 84.8458 339.704 82.5749 339.902 80.3041L333.34 79.9033Z" fill="white"/>
<path fill-rule="evenodd" clip-rule="evenodd" d="M336.083 86.7377C334.283 86.5374 332.989 84.9122 333.098 83.1533C333.23 81.3723 334.81 80.0142 336.632 80.1255C338.453 80.2368 339.814 81.8398 339.661 83.7322C339.551 85.5801 337.905 86.9381 336.083 86.7377Z" fill="white"/>
<path d="M331.189 97.0459C330.816 99.1832 330.268 101.254 329.807 103.369L336.193 104.994C336.676 102.768 337.247 100.564 337.642 98.3372L331.189 97.0459Z" fill="white"/>
<path fill-rule="evenodd" clip-rule="evenodd" d="M333.011 104.192C331.255 103.747 330.135 101.966 330.531 100.229C330.948 98.4926 332.659 97.3571 334.437 97.7134C336.237 98.0696 337.422 99.8506 336.961 101.698C336.544 103.524 334.766 104.637 333.011 104.192Z" fill="white"/>
<path d="M326.777 113.744C326.141 115.814 325.373 117.818 324.561 119.822L330.684 122.293C331.518 120.178 332.33 118.063 333.01 115.903L326.777 113.744Z" fill="white"/>
<path fill-rule="evenodd" clip-rule="evenodd" d="M327.634 121.068C325.944 120.378 325.11 118.463 325.747 116.816C326.339 115.146 328.183 114.233 329.895 114.834C331.607 115.413 332.55 117.35 331.914 119.131C331.255 120.89 329.324 121.758 327.634 121.068Z" fill="white"/>
<path d="M320.237 129.706C319.25 131.621 318.35 133.58 317.23 135.428L322.981 138.7C324.144 136.764 325.088 134.693 326.141 132.667L320.237 129.706Z" fill="white"/>
<path fill-rule="evenodd" clip-rule="evenodd" d="M320.106 137.075C318.503 136.14 317.999 134.203 318.767 132.6C319.557 131.019 321.532 130.396 323.178 131.197C324.802 132.021 325.439 134.047 324.583 135.717C323.771 137.431 321.664 137.966 320.106 137.075Z" fill="white"/>
<path d="M96.5918 138.656C95.5383 136.764 94.4409 134.916 93.4313 133.023L87.6152 136.185C88.6687 138.189 89.8319 140.148 90.9293 142.107L96.5918 138.656Z" fill="white"/>
<path fill-rule="evenodd" clip-rule="evenodd" d="M90.5333 134.582C92.1135 133.736 94.1108 134.292 95.0106 135.828C95.8885 137.365 95.3398 139.413 93.7816 140.37C92.2233 141.328 90.2041 140.771 89.2823 139.146C88.3166 137.498 88.9092 135.45 90.5333 134.582Z" fill="white"/>
<path d="M88.7998 123.272C87.9438 121.291 87.2196 119.265 86.4075 117.261L80.2402 119.599C81.0742 121.714 81.8424 123.851 82.7423 125.922L88.7998 123.272Z" fill="white"/>
<path fill-rule="evenodd" clip-rule="evenodd" d="M83.335 118.418C85.0469 117.773 86.9564 118.619 87.5928 120.266C88.2074 121.936 87.4392 123.851 85.7712 124.585C84.0812 125.32 82.1279 124.519 81.4695 122.76C80.7891 121.001 81.6231 119.064 83.335 118.418Z" fill="white"/>
<path d="M83.1374 106.954C82.5228 104.883 82.04 102.768 81.5791 100.675L75.1484 102.145C75.6313 104.371 76.1361 106.575 76.7945 108.757L83.1374 106.954Z" fill="white"/>
<path fill-rule="evenodd" clip-rule="evenodd" d="M78.3521 101.41C80.1298 101.009 81.8856 102.1 82.2807 103.837C82.6977 105.573 81.71 107.354 79.9542 107.866C78.2204 108.379 76.3548 107.31 75.8939 105.484C75.4769 103.636 76.5962 101.811 78.3521 101.41Z" fill="white"/>
<path d="M79.6479 90.0332C79.4065 87.8737 79.0334 85.7587 78.9237 83.5991L72.3613 84.2002C72.4711 86.4711 72.8661 88.7197 73.1295 90.9683L79.6479 90.0332Z" fill="white"/>
<path fill-rule="evenodd" clip-rule="evenodd" d="M75.6525 83.889C77.4742 83.7332 79.0105 85.0467 79.2519 86.8278C79.4714 88.5866 78.1984 90.2341 76.3987 90.5012C74.599 90.7684 72.953 89.4548 72.7115 87.5847C72.4482 85.7146 73.8528 84.0449 75.6525 83.889Z" fill="white"/>
<path d="M78.4192 72.8018C78.3972 70.6422 78.507 68.4827 78.5509 66.3231L71.9666 66.0337C71.9227 68.3046 71.813 70.5754 71.8349 72.8463L78.4192 72.8018Z" fill="white"/>
<path fill-rule="evenodd" clip-rule="evenodd" d="M75.259 66.1674C77.0807 66.2565 78.5073 67.7704 78.4634 69.5514C78.3975 71.3325 76.927 72.8019 75.1273 72.8242C73.2837 72.8464 71.8132 71.3325 71.8791 69.4401C71.923 67.5477 73.4374 66.0784 75.259 66.1674Z" fill="white"/>
<path d="M79.472 55.5241L79.8671 52.3182L80.4377 49.1123L73.9412 47.9546L73.3486 51.3163L72.9316 54.6781L79.472 55.5241Z" fill="white"/>
<path fill-rule="evenodd" clip-rule="evenodd" d="M77.1901 48.5336C78.9678 48.8675 80.1749 50.5596 79.8677 52.3184C79.6482 54.0772 78.0021 55.3462 76.2024 55.1235C74.4027 54.9009 73.1298 53.1866 73.3712 51.3165C73.6784 49.4464 75.3904 48.1996 77.1901 48.5336Z" fill="white"/>
<path d="M82.7203 38.56C83.3348 36.4895 83.8176 34.3745 84.52 32.3485L78.243 30.3003C77.5187 32.4598 76.9919 34.6639 76.3555 36.8457L82.7203 38.56Z" fill="white"/>
<path fill-rule="evenodd" clip-rule="evenodd" d="M81.4041 31.3243C83.138 31.9032 84.0598 33.7288 83.6208 35.4431C83.138 37.1573 81.3163 38.1592 79.5605 37.6917C77.8047 37.2241 76.7951 35.3763 77.2999 33.5507C77.7608 31.7251 79.6703 30.7455 81.4041 31.3243Z" fill="white"/>
<path d="M88.2084 22.1964C89.0424 20.2149 89.9423 18.2558 90.8202 16.2743L84.8724 13.4023C83.9506 15.4728 83.0068 17.5433 82.1289 19.6361L88.2084 22.1964Z" fill="white"/>
<path fill-rule="evenodd" clip-rule="evenodd" d="M87.8355 14.827C89.4816 15.6285 90.2058 17.61 89.5035 19.2352C88.7792 20.8604 86.8259 21.5951 85.1798 20.905C83.4899 20.1925 82.7217 18.2111 83.4899 16.4968C84.258 14.7825 86.2114 14.0256 87.8355 14.827Z" fill="white"/>
<path d="M95.8465 6.74576C96.8781 4.85337 98.0632 3.05004 99.2045 1.22444L93.6957 -2.42676C92.4885 -0.512108 91.2375 1.38028 90.1621 3.36172L95.8465 6.74576Z" fill="white"/>
<path fill-rule="evenodd" clip-rule="evenodd" d="M96.4393 -0.601322C97.9537 0.422793 98.4146 2.47102 97.4708 3.96267C96.5051 5.45431 94.5737 5.98863 92.9935 5.05357C91.4352 4.14077 90.8426 2.02575 91.8742 0.445051C92.8838 -1.15791 94.9249 -1.62544 96.4393 -0.601322Z" fill="white"/>
<path d="M310.756 -1.84794C312.029 -0.1114 313.104 1.75872 314.289 3.56206L319.886 0.0221808C318.657 -1.87021 317.516 -3.85165 316.177 -5.67725L310.756 -1.84794Z" fill="white"/>
<path fill-rule="evenodd" clip-rule="evenodd" d="M317.076 1.78065C315.54 2.76024 313.499 2.31497 312.555 0.823323C311.633 -0.690587 311.962 -2.69429 313.455 -3.76294C314.925 -4.80931 317.076 -4.47536 318.042 -2.85014C319.051 -1.26944 318.612 0.823323 317.076 1.78065Z" fill="white"/>
<path d="M319.535 12.9573L321.006 15.8515L322.323 18.8126L328.314 16.0519L326.932 12.9573L325.395 9.90723L319.535 12.9573Z" fill="white"/>
<path fill-rule="evenodd" clip-rule="evenodd" d="M325.308 17.432C323.64 18.189 321.709 17.4766 320.985 15.8513C320.172 14.2706 320.853 12.2892 322.455 11.4432C324.057 10.5972 326.076 11.2651 326.91 12.9571C327.7 14.6714 326.976 16.6751 325.308 17.432Z" fill="white"/>
<path d="M326.295 28.8303C326.953 30.8786 327.743 32.9045 328.27 34.9973L334.591 33.0827C334.02 30.8786 333.186 28.7636 332.506 26.604L326.295 28.8303Z" fill="white"/>
<path fill-rule="evenodd" clip-rule="evenodd" d="M331.431 34.0398C329.675 34.5519 327.919 33.5723 327.327 31.9025C326.756 30.2105 327.7 28.3404 329.412 27.717C331.124 27.0936 332.989 28.051 333.604 29.832C334.218 31.6131 333.165 33.5278 331.431 34.0398Z" fill="white"/>
<path d="M330.904 45.4838C331.321 47.5988 331.672 49.7361 332.046 51.8733L338.564 50.8492C338.169 48.6229 337.796 46.3743 337.357 44.1479L330.904 45.4838Z" fill="white"/>
<path fill-rule="evenodd" clip-rule="evenodd" d="M335.317 51.3396C333.517 51.6068 331.805 50.4269 331.498 48.668C331.19 46.9092 332.376 45.1727 334.131 44.7942C335.931 44.4157 337.643 45.5957 337.972 47.4658C338.301 49.3359 337.116 51.0725 335.317 51.3396Z" fill="white"/>
<path d="M333.23 62.6045C333.428 64.7641 333.494 66.9236 333.538 69.0832L340.122 68.9273C340.078 66.6565 340.012 64.3856 339.815 62.1147L333.23 62.6045Z" fill="white"/>
<path fill-rule="evenodd" clip-rule="evenodd" d="M336.829 69.0168C335.008 69.0391 333.493 67.6365 333.449 65.8554C333.362 64.0743 334.7 62.5159 336.522 62.3823C338.322 62.2488 339.946 63.6513 340.034 65.5437C340.078 67.4139 338.629 68.9723 336.829 69.0168Z" fill="white"/>
<path d="M315.234 79.9702L315.081 83.2429C314.949 84.3338 314.751 85.4025 314.598 86.4711L321.138 87.3394C321.292 86.204 321.489 85.0463 321.643 83.9108L321.818 80.4377L315.234 79.9702Z" fill="white"/>
<path fill-rule="evenodd" clip-rule="evenodd" d="M317.868 86.9164C316.069 86.6715 314.84 85.024 315.081 83.2429C315.169 81.4396 316.705 80.0815 318.527 80.2151C320.348 80.3264 321.731 81.9962 321.643 83.9108C321.38 85.8032 319.668 87.1613 317.868 86.9164Z" fill="white"/>
<path d="M312.71 97.2017L311.086 103.547L317.407 105.439L319.119 98.7156L312.71 97.2017Z" fill="white"/>
<path fill-rule="evenodd" clip-rule="evenodd" d="M314.246 104.504C312.512 103.97 311.437 102.122 311.876 100.386C312.315 98.6492 314.114 97.5583 315.892 97.9813C317.67 98.382 318.723 100.23 318.24 102.1C317.801 103.948 316.002 105.017 314.246 104.504Z" fill="white"/>
<path d="M307.553 113.854L306.982 115.39L306.28 116.86L304.875 119.798L310.823 122.67L312.315 119.553L313.061 117.995L313.654 116.37L307.553 113.854Z" fill="white"/>
<path fill-rule="evenodd" clip-rule="evenodd" d="M307.86 121.245C306.214 120.444 305.512 118.485 306.28 116.859C307.114 115.256 308.892 114.41 310.603 115.101C312.272 115.769 313.193 117.839 312.315 119.553C311.481 121.29 309.484 122.047 307.86 121.245Z" fill="white"/>
<path d="M299.783 129.395C298.642 131.243 297.632 133.18 296.359 134.939L301.78 138.723C303.119 136.853 304.195 134.805 305.402 132.846L299.783 129.395Z" fill="white"/>
<path fill-rule="evenodd" clip-rule="evenodd" d="M299.081 136.831C298.335 136.296 297.874 135.54 297.742 134.716C297.545 133.87 297.654 132.957 298.115 132.178C299.037 130.642 301.056 130.174 302.615 131.109C304.173 132.044 304.634 134.159 303.646 135.807C303.163 136.63 302.395 137.165 301.583 137.365C300.727 137.543 299.827 137.365 299.081 136.831Z" fill="white"/>
<path d="M123.214 144.778C122.511 143.954 121.721 143.197 121.085 142.329L119.153 139.702L113.93 143.776L115.971 146.559C116.651 147.494 117.485 148.296 118.231 149.164L123.214 144.778Z" fill="white"/>
<path fill-rule="evenodd" clip-rule="evenodd" d="M116.541 141.728C117.99 140.615 120.031 140.882 121.084 142.307C122.203 143.71 122.116 145.713 120.733 146.96C119.394 148.162 117.177 148.051 115.992 146.537C114.829 145.001 115.092 142.841 116.541 141.728Z" fill="white"/>
<path d="M113.031 130.73L109.673 125.142L103.879 128.326L107.434 134.27L113.031 130.73Z" fill="white"/>
<path fill-rule="evenodd" clip-rule="evenodd" d="M106.775 126.744C108.377 125.876 110.419 126.411 111.34 127.947C112.262 129.483 111.757 131.531 110.221 132.511C108.685 133.49 106.644 132.956 105.656 131.308C104.668 129.661 105.173 127.613 106.775 126.744Z" fill="white"/>
<path d="M104.976 115.301L102.781 109.157L96.5703 111.405L98.9187 117.906L104.976 115.301Z" fill="white"/>
<path fill-rule="evenodd" clip-rule="evenodd" d="M99.6642 110.27C101.376 109.669 103.264 110.538 103.878 112.23C104.493 113.922 103.615 115.881 101.947 116.616C100.279 117.35 98.3912 116.46 97.7328 114.656C97.0744 112.853 97.9523 110.894 99.6642 110.27Z" fill="white"/>
<path d="M99.6858 98.7157C99.181 96.6007 98.5006 94.508 98.2812 92.3262L91.8066 93.5506C92.0481 95.866 92.7504 98.0701 93.2991 100.319L99.6858 98.7157Z" fill="white"/>
<path fill-rule="evenodd" clip-rule="evenodd" d="M95.0554 92.9494C96.899 92.6154 98.3914 93.8176 98.8962 95.5542C99.3352 97.2907 98.2597 99.0718 96.5039 99.5171C94.7481 99.9623 92.9265 98.8269 92.4656 96.9568C91.9169 95.1089 93.2996 93.2611 95.0554 92.9494Z" fill="white"/>
<path d="M96.8549 81.5278L96.5257 74.9824L89.9414 75.1605L90.2926 82.0844L96.8549 81.5278Z" fill="white"/>
<path fill-rule="evenodd" clip-rule="evenodd" d="M93.234 75.0718C95.0557 75.0273 96.614 76.4521 96.7017 78.2555C96.7895 80.0588 95.3849 81.6395 93.5852 81.8176C91.7855 81.9735 90.2272 80.5486 90.1394 78.634C90.0077 76.697 91.4124 75.1163 93.234 75.0718Z" fill="white"/>
<path d="M96.7679 64.0738L96.9215 60.801C97.0532 59.7101 97.2507 58.6415 97.4044 57.5729L90.864 56.7046C90.7103 57.84 90.5128 58.9977 90.3592 60.1331L90.1836 63.6062L96.7679 64.0738Z" fill="white"/>
<path fill-rule="evenodd" clip-rule="evenodd" d="M94.1344 57.1503C95.9341 57.3952 97.1632 59.0426 96.9218 60.8237C96.834 62.627 95.2976 63.9851 93.476 63.8515C91.6543 63.7402 90.2716 62.0705 90.3594 60.1558C90.6228 58.2412 92.3347 56.8831 94.1344 57.1503Z" fill="white"/>
<path d="M99.3135 46.8415L100.916 40.4964L94.5947 38.604L92.8828 45.3276L99.3135 46.8415Z" fill="white"/>
<path fill-rule="evenodd" clip-rule="evenodd" d="M97.7542 39.5619C99.4881 40.0962 100.564 41.944 100.125 43.6806C99.6856 45.4171 97.8859 46.508 96.1081 46.085C94.3304 45.6843 93.2769 43.8364 93.7598 41.9663C94.2207 40.0962 96.0204 39.0275 97.7542 39.5619Z" fill="white"/>
<path d="M104.471 30.2111L105.02 28.6749L105.722 27.1833L107.127 24.2445L101.179 21.3726L99.6865 24.4894L98.9622 26.0479L98.3477 27.6731L104.471 30.2111Z" fill="white"/>
<path fill-rule="evenodd" clip-rule="evenodd" d="M104.141 22.7978C105.787 23.5993 106.49 25.5585 105.722 27.1837C104.888 28.7866 103.11 29.6327 101.398 28.9425C99.7299 28.2746 98.8081 26.2041 99.686 24.4898C100.52 22.7533 102.517 21.9963 104.141 22.7978Z" fill="white"/>
<path d="M112.218 14.6491C113.359 12.8013 114.369 10.8644 115.642 9.10557L110.221 5.3208C108.882 7.19092 107.807 9.23915 106.6 11.1983L112.218 14.6491Z" fill="white"/>
<path fill-rule="evenodd" clip-rule="evenodd" d="M112.921 7.21334C113.667 7.74766 114.128 8.50461 114.26 9.32835C114.457 10.1744 114.348 11.0872 113.887 11.8664C112.965 13.4025 110.946 13.8701 109.387 12.935C107.829 12 107.368 9.88494 108.356 8.23745C108.839 7.4137 109.607 6.87939 110.419 6.67902C111.275 6.52318 112.175 6.67902 112.921 7.21334Z" fill="white"/>
<path d="M122.183 0.423073L126.528 -4.40808L121.744 -9.0166L117.135 -3.87376L122.183 0.423073Z" fill="white"/>
<path d="M288.787 -0.712754C289.489 0.110991 290.28 0.867951 290.916 1.73622L292.847 4.3633L298.071 0.2891L296.03 -2.49382C295.349 -3.42888 294.515 -4.23036 293.769 -5.09863L288.787 -0.712754Z" fill="white"/>
<path fill-rule="evenodd" clip-rule="evenodd" d="M295.46 2.3154C294.011 3.42857 291.97 3.16142 290.916 1.73656C289.797 0.333968 289.885 -1.66974 291.268 -2.91648C292.606 -4.11871 294.823 -4.00739 296.008 -2.49348C297.171 -0.957311 296.908 1.20224 295.46 2.3154Z" fill="white"/>
<path d="M298.992 13.3133L302.328 18.9014L308.122 15.7178L304.567 9.77344L298.992 13.3133Z" fill="white"/>
<path fill-rule="evenodd" clip-rule="evenodd" d="M305.225 17.3201C303.623 18.1884 301.582 17.654 300.66 16.1179C299.738 14.5817 300.243 12.5335 301.78 11.5539C303.316 10.5743 305.357 11.1086 306.345 12.7561C307.332 14.3813 306.828 16.4296 305.225 17.3201Z" fill="white"/>
<path d="M307.025 28.742L309.242 34.8867L315.453 32.6604L313.083 26.1372L307.025 28.742Z" fill="white"/>
<path fill-rule="evenodd" clip-rule="evenodd" d="M312.336 33.7735C310.624 34.3746 308.737 33.5063 308.122 31.8143C307.508 30.1223 308.386 28.1631 310.054 27.4284C311.722 26.6937 313.609 27.5842 314.268 29.3876C314.926 31.1909 314.048 33.1724 312.336 33.7735Z" fill="white"/>
<path d="M312.314 45.3276C312.819 47.4426 313.5 49.5353 313.719 51.7172L320.194 50.4927C319.952 48.1773 319.25 45.9732 318.701 43.7246L312.314 45.3276Z" fill="white"/>
<path fill-rule="evenodd" clip-rule="evenodd" d="M316.968 51.094C315.125 51.4279 313.632 50.2257 313.127 48.4891C312.688 46.7526 313.764 44.9715 315.52 44.5263C317.276 44.081 319.097 45.2164 319.558 47.0866C320.085 48.9344 318.702 50.7823 316.968 51.094Z" fill="white"/>
<path d="M315.168 62.5156L315.475 69.061L322.06 68.8829L321.73 61.959L315.168 62.5156Z" fill="white"/>
<path fill-rule="evenodd" clip-rule="evenodd" d="M318.767 68.9718C316.945 69.0163 315.387 67.5915 315.299 65.7881C315.211 63.9848 316.616 62.4041 318.415 62.226C320.215 62.0702 321.773 63.495 321.861 65.4097C321.993 67.3466 320.588 68.9273 318.767 68.9718Z" fill="white"/>
<path d="M297.257 79.8364L297.191 81.4394L296.95 83.0423L296.467 86.226L302.985 87.2279L303.49 83.8216L303.753 82.1073L303.841 80.393L297.257 79.8364Z" fill="white"/>
<path fill-rule="evenodd" clip-rule="evenodd" d="M299.736 86.7384C297.937 86.4489 296.686 84.8014 296.949 83.0426C297.278 81.3061 298.705 79.9703 300.548 80.1261C302.326 80.2597 303.841 81.9517 303.489 83.8219C303.226 85.7143 301.536 87.0278 299.736 86.7384Z" fill="white"/>
<path d="M294.294 96.7119C294.031 97.7583 293.789 98.8047 293.482 99.8288L292.385 102.857L298.596 105.083L299.759 101.832C300.066 100.719 300.33 99.6062 300.615 98.493L294.294 96.7119Z" fill="white"/>
<path fill-rule="evenodd" clip-rule="evenodd" d="M295.502 103.948C293.79 103.325 292.89 101.477 293.483 99.807C293.944 98.115 295.7 97.0909 297.455 97.5807C299.211 98.0482 300.265 99.9629 299.76 101.811C299.124 103.614 297.214 104.571 295.502 103.948Z" fill="white"/>
<path d="M288.303 112.742C287.381 114.679 286.525 116.638 285.34 118.419L291.046 121.758C292.297 119.844 293.241 117.729 294.229 115.658L288.303 112.742Z" fill="white"/>
<path fill-rule="evenodd" clip-rule="evenodd" d="M288.194 120.089C286.592 119.131 286.153 117.217 286.921 115.636C287.667 114.033 289.62 113.41 291.266 114.211C292.912 115.013 293.571 117.061 292.737 118.775C291.903 120.489 289.73 121.001 288.194 120.089Z" fill="white"/>
<path d="M279.524 127.369C278.207 129.039 277.11 130.909 275.596 132.423L280.6 136.764C282.202 135.117 283.409 133.158 284.814 131.354L279.524 127.369Z" fill="white"/>
<path fill-rule="evenodd" clip-rule="evenodd" d="M278.098 134.605C276.693 133.38 276.627 131.421 277.615 129.952C278.646 128.527 280.687 128.282 282.158 129.373C283.628 130.464 283.892 132.601 282.772 134.137C281.675 135.696 279.436 135.785 278.098 134.605Z" fill="white"/>
<path d="M268.243 140.148C266.641 141.551 265.17 143.109 263.48 144.4L267.607 149.61C269.406 148.23 271.008 146.56 272.698 145.046L268.243 140.148Z" fill="white"/>
<path d="M144.877 141.172L142.528 139.013C141.738 138.3 140.948 137.588 140.268 136.764L135.549 141.417C136.273 142.285 137.129 143.065 137.963 143.844L140.487 146.159L144.877 141.172Z" fill="white"/>
<path fill-rule="evenodd" clip-rule="evenodd" d="M137.92 139.08C139.237 137.811 141.212 137.855 142.551 139.013C143.846 140.193 143.912 142.286 142.705 143.666C141.498 145.046 139.391 145.113 137.986 143.822C136.537 142.575 136.603 140.349 137.92 139.08Z" fill="white"/>
<path d="M133.398 128.593C132.147 126.857 130.808 125.187 129.645 123.406L124.158 127.101C125.409 129.016 126.836 130.819 128.175 132.667L133.398 128.593Z" fill="white"/>
<path fill-rule="evenodd" clip-rule="evenodd" d="M126.902 125.254C128.395 124.274 130.436 124.631 131.489 126.011C132.543 127.436 132.214 129.484 130.787 130.619C129.36 131.755 127.275 131.421 126.134 129.885C124.971 128.393 125.344 126.3 126.902 125.254Z" fill="white"/>
<path d="M124.354 114.123L121.589 108.312L115.531 110.939L118.472 117.151L124.354 114.123Z" fill="white"/>
<path fill-rule="evenodd" clip-rule="evenodd" d="M118.56 109.625C120.228 108.913 122.226 109.625 122.972 111.228C123.718 112.809 123.016 114.79 121.414 115.636C119.811 116.482 117.814 115.77 117.002 114.033C116.19 112.319 116.892 110.338 118.56 109.625Z" fill="white"/>
<path d="M118.099 98.2035L116.519 91.9697L110.066 93.3946L111.778 100.074L118.099 98.2035Z" fill="white"/>
<path fill-rule="evenodd" clip-rule="evenodd" d="M113.293 92.6816C115.07 92.3031 116.87 93.3718 117.309 95.0861C117.748 96.8003 116.673 98.6037 114.939 99.138C113.205 99.6723 111.405 98.6037 110.922 96.7335C110.439 94.8857 111.515 93.0601 113.293 92.6816Z" fill="white"/>
<path d="M114.808 81.3731L114.5 74.939L107.916 75.1393L108.245 82.041L114.808 81.3731Z" fill="white"/>
<path fill-rule="evenodd" clip-rule="evenodd" d="M111.209 75.0499C113.03 75.0053 114.566 76.4079 114.654 78.1667C114.742 79.9255 113.337 81.5285 111.538 81.7066C109.738 81.907 108.18 80.5044 108.092 78.5897C107.982 76.6751 109.387 75.0944 111.209 75.0499Z" fill="white"/>
<path d="M114.742 64.2083L114.808 62.6054L115.049 61.0024L115.532 57.8188L109.014 56.8169L108.509 60.2232L108.267 61.9375L108.18 63.6517L114.742 64.2083Z" fill="white"/>
<path fill-rule="evenodd" clip-rule="evenodd" d="M112.261 57.3295C114.061 57.6189 115.312 59.2664 115.048 61.0252C114.719 62.7617 113.293 64.0975 111.449 63.9417C109.671 63.8081 108.157 62.1161 108.508 60.246C108.793 58.3313 110.483 57.0178 112.261 57.3295Z" fill="white"/>
<path d="M117.727 47.332C117.991 46.2856 118.232 45.2392 118.539 44.2151L119.637 41.1873L113.425 38.9609L112.262 42.2114C111.955 43.3246 111.692 44.4377 111.406 45.5509L117.727 47.332Z" fill="white"/>
<path fill-rule="evenodd" clip-rule="evenodd" d="M116.498 40.0962C118.21 40.7196 119.109 42.5674 118.517 44.2372C118.056 45.9292 116.3 46.9533 114.544 46.4635C112.789 45.996 111.735 44.0814 112.24 42.2335C112.876 40.4302 114.786 39.4728 116.498 40.0962Z" fill="white"/>
<path d="M123.695 31.3028C124.617 29.3659 125.473 27.4067 126.658 25.6256L120.952 22.2861C119.701 24.2008 118.757 26.3158 117.77 28.3863L123.695 31.3028Z" fill="white"/>
<path fill-rule="evenodd" clip-rule="evenodd" d="M123.805 23.9559C125.407 24.9133 125.846 26.8279 125.078 28.4086C124.332 30.0116 122.378 30.635 120.732 29.8335C119.086 29.032 118.428 26.9838 119.262 25.2695C120.096 23.5552 122.269 23.0431 123.805 23.9559Z" fill="white"/>
<path d="M132.475 16.6754C133.792 15.0057 134.889 13.1356 136.404 11.6216L131.399 7.28027C129.797 8.92776 128.59 10.8869 127.186 12.6903L132.475 16.6754Z" fill="white"/>
<path fill-rule="evenodd" clip-rule="evenodd" d="M133.902 9.44C135.306 10.6645 135.372 12.6237 134.385 14.093C133.353 15.5179 131.312 15.7628 129.841 14.6719C128.371 13.581 128.108 11.4437 129.227 9.90752C130.324 8.34909 132.563 8.26004 133.902 9.44Z" fill="white"/>
<path d="M143.756 3.91848C145.358 2.51588 146.829 0.957449 148.519 -0.333827L144.393 -5.54346C142.593 -4.16313 140.991 -2.49338 139.301 -0.979467L143.756 3.91848Z" fill="white"/>
<path fill-rule="evenodd" clip-rule="evenodd" d="M146.456 -2.96144C147.026 -2.24901 147.246 -1.38074 147.158 -0.556996C147.092 0.289012 146.763 1.13503 146.105 1.73614C144.81 2.9161 142.769 2.80478 141.518 1.44671C140.267 0.110908 140.398 -2.02637 141.803 -3.31765C142.505 -3.96329 143.361 -4.25271 144.195 -4.18592C145.073 -4.09687 145.885 -3.67386 146.456 -2.96144Z" fill="white"/>
<path d="M267.123 2.87224L269.471 5.0318C270.262 5.74422 271.052 6.45665 271.732 7.28039L276.451 2.62735C275.726 1.75907 274.871 0.979856 274.037 0.200638L271.513 -2.11475L267.123 2.87224Z" fill="white"/>
<path fill-rule="evenodd" clip-rule="evenodd" d="M274.079 4.96464C272.763 6.23366 270.787 6.18913 269.449 5.03143C268.154 3.85147 268.088 1.75872 269.295 0.378387C270.502 -1.00194 272.609 -1.06873 274.014 0.222544C275.462 1.46929 275.396 3.69563 274.079 4.96464Z" fill="white"/>
<path d="M278.625 15.4506C279.876 17.1872 281.215 18.8569 282.378 20.638L287.865 16.9423C286.614 15.0277 285.187 13.2243 283.849 11.3765L278.625 15.4506Z" fill="white"/>
<path fill-rule="evenodd" clip-rule="evenodd" d="M285.1 18.7903C283.608 19.7699 281.567 19.4137 280.513 18.0333C279.46 16.6085 279.789 14.5602 281.216 13.4248C282.642 12.2894 284.727 12.6233 285.869 14.1595C287.032 15.6511 286.659 17.7439 285.1 18.7903Z" fill="white"/>
<path d="M287.645 29.9219L290.41 35.7326L296.467 33.1278L293.527 26.894L287.645 29.9219Z" fill="white"/>
<path fill-rule="evenodd" clip-rule="evenodd" d="M293.438 34.4193C291.77 35.1317 289.773 34.4193 289.027 32.8164C288.281 31.2357 288.983 29.2542 290.585 28.4082C292.187 27.5622 294.185 28.2746 294.997 30.0112C295.809 31.7254 295.106 33.7069 293.438 34.4193Z" fill="white"/>
<path d="M293.922 45.8626L295.502 52.0963L301.933 50.6492L300.243 43.9702L293.922 45.8626Z" fill="white"/>
<path fill-rule="evenodd" clip-rule="evenodd" d="M298.706 51.3615C296.929 51.74 295.129 50.6713 294.69 48.9571C294.251 47.2428 295.326 45.4394 297.06 44.9051C298.794 44.3708 300.594 45.4394 301.077 47.3096C301.56 49.1797 300.484 50.983 298.706 51.3615Z" fill="white"/>
<path d="M297.191 62.6713L297.521 69.1054L304.105 68.9051L303.754 62.0034L297.191 62.6713Z" fill="white"/>
<path fill-rule="evenodd" clip-rule="evenodd" d="M300.813 69.0162C298.991 69.0607 297.455 67.6581 297.367 65.8993C297.279 64.1405 298.684 62.5375 300.484 62.3594C302.283 62.159 303.842 63.5616 303.929 65.4763C304.017 67.3687 302.613 68.9716 300.813 69.0162Z" fill="white"/>
<path d="M279.305 79.6577L278.383 85.8692L284.857 87.0937L285.867 80.3256L279.305 79.6577Z" fill="white"/>
<path fill-rule="evenodd" clip-rule="evenodd" d="M281.609 86.4922C279.831 86.136 278.58 84.4662 278.844 82.7742C279.107 81.0822 280.797 79.8354 282.597 80.0135C284.418 80.1916 285.647 81.8614 285.362 83.7315C285.077 85.6016 283.387 86.8261 281.609 86.4922Z" fill="white"/>
<path d="M275.749 95.9771C275.003 97.9362 274.411 99.9399 273.555 101.855L279.59 104.526C280.512 102.456 281.192 100.252 281.983 98.1366L275.749 95.9771Z" fill="white"/>
<path fill-rule="evenodd" clip-rule="evenodd" d="M276.561 103.191C275.727 102.812 275.135 102.166 274.827 101.409C274.476 100.63 274.388 99.762 274.696 98.9383C275.288 97.313 277.154 96.4893 278.888 97.0681C280.622 97.647 281.499 99.5616 280.841 101.365C280.512 102.256 279.875 102.923 279.129 103.257C278.317 103.569 277.395 103.569 276.561 103.191Z" fill="white"/>
<path d="M268.726 111.117L267.123 113.811L265.258 116.326L270.547 120.289L272.566 117.551L274.322 114.612L268.726 111.117Z" fill="white"/>
<path fill-rule="evenodd" clip-rule="evenodd" d="M267.913 118.308C266.464 117.195 266.091 115.191 267.123 113.811C268.001 112.341 269.976 111.918 271.534 112.876C273.092 113.833 273.553 115.926 272.588 117.551C271.446 119.065 269.361 119.399 267.913 118.308Z" fill="white"/>
<path d="M258.608 124.318C257.181 125.832 255.579 127.168 254.064 128.593L258.366 133.647C260.012 132.088 261.746 130.641 263.304 128.994L258.608 124.318Z" fill="white"/>
<path fill-rule="evenodd" clip-rule="evenodd" d="M256.214 131.131C255.029 129.728 255.095 127.636 256.346 126.478C257.619 125.343 259.66 125.409 260.933 126.656C262.272 127.97 262.25 130.085 260.845 131.354C259.485 132.645 257.4 132.534 256.214 131.131Z" fill="white"/>
<path d="M245.79 134.872C244.013 135.918 242.301 137.12 240.457 138.078L243.552 143.977C245.549 142.931 247.414 141.64 249.368 140.482L245.79 134.872Z" fill="white"/>
<path fill-rule="evenodd" clip-rule="evenodd" d="M242.016 141.016C241.204 139.413 241.709 137.41 243.157 136.497C244.606 135.606 246.603 136.141 247.591 137.677C248.579 139.213 248.096 141.283 246.494 142.263C244.891 143.287 242.872 142.686 242.016 141.016Z" fill="white"/>
<path d="M182.385 142.775C180.454 142.018 178.478 141.417 176.591 140.549L173.957 146.671C175.998 147.606 178.171 148.296 180.256 149.098L182.385 142.775Z" fill="white"/>
<path d="M167.46 135.65L164.827 134.025L162.347 132.132L158.418 137.498L161.139 139.546L164.015 141.327L167.46 135.65Z" fill="white"/>
<path fill-rule="evenodd" clip-rule="evenodd" d="M160.372 134.827C161.469 133.357 163.445 132.979 164.805 134.025C166.254 134.916 166.671 136.919 165.727 138.5C164.783 140.081 162.72 140.548 161.118 139.569C159.626 138.411 159.297 136.296 160.372 134.827Z" fill="white"/>
<path d="M154.444 125.388C152.952 123.941 151.635 122.315 150.23 120.779L145.248 125.143C146.784 126.813 148.211 128.571 149.835 130.152L154.444 125.388Z" fill="white"/>
<path fill-rule="evenodd" clip-rule="evenodd" d="M147.729 122.961C149.111 121.759 151.174 121.826 152.316 123.095C153.435 124.386 153.369 126.456 152.14 127.748C150.845 129.106 148.76 129.083 147.509 127.659C146.236 126.278 146.346 124.163 147.729 122.961Z" fill="white"/>
<path d="M144.041 112.385C143.009 110.582 141.824 108.845 140.881 106.975L135.064 110.114C136.096 112.14 137.369 114.033 138.51 116.014L144.041 112.385Z" fill="white"/>
<path fill-rule="evenodd" clip-rule="evenodd" d="M137.983 108.556C139.563 107.732 141.538 108.244 142.438 109.714C143.316 111.183 142.789 113.209 141.275 114.211C139.76 115.213 137.719 114.723 136.754 113.098C135.744 111.472 136.337 109.424 137.983 108.556Z" fill="white"/>
<path d="M136.756 97.3802L135.68 94.4414C135.395 93.4395 135.154 92.4154 134.89 91.4136L128.525 93.1501C128.811 94.2633 129.074 95.3764 129.381 96.4674L130.545 99.6956L136.756 97.3802Z" fill="white"/>
<path fill-rule="evenodd" clip-rule="evenodd" d="M131.731 92.2593C133.508 91.7917 135.242 92.7713 135.703 94.4411C136.296 96.0663 135.374 97.8919 133.662 98.5153C131.95 99.1609 130.041 98.2259 129.404 96.4448C128.899 94.6192 129.975 92.7268 131.731 92.2593Z" fill="white"/>
<path d="M132.914 81.1271L132.695 79.5687L132.607 78.0102L132.453 74.8711L125.869 75.116L126.045 78.5446L126.133 80.2366L126.374 81.9286L132.914 81.1271Z" fill="white"/>
<path fill-rule="evenodd" clip-rule="evenodd" d="M129.161 74.982C130.983 74.9375 132.519 76.2733 132.607 77.9876C132.629 79.7241 131.466 81.2826 129.644 81.5052C127.867 81.7501 126.089 80.4143 126.045 78.4996C125.957 76.6295 127.362 75.0488 129.161 74.982Z" fill="white"/>
<path d="M132.695 64.3857L133.639 58.1742L127.164 56.9497L126.133 63.7178L132.695 64.3857Z" fill="white"/>
<path fill-rule="evenodd" clip-rule="evenodd" d="M130.39 57.5728C132.168 57.929 133.419 59.5988 133.155 61.2908C132.892 62.9828 131.202 64.2295 129.402 64.0514C127.581 63.8733 126.352 62.2036 126.637 60.3335C126.922 58.4411 128.612 57.2166 130.39 57.5728Z" fill="white"/>
<path d="M136.251 48.0662C136.997 46.107 137.589 44.1033 138.445 42.1887L132.41 39.5171C131.488 41.5876 130.808 43.7916 130.018 45.9067L136.251 48.0662Z" fill="white"/>
<path fill-rule="evenodd" clip-rule="evenodd" d="M135.438 40.8533C136.272 41.2318 136.865 41.8775 137.172 42.6344C137.523 43.4136 137.611 44.2819 137.304 45.1056C136.711 46.7309 134.846 47.5546 133.112 46.9758C131.378 46.3969 130.5 44.4823 131.158 42.6789C131.488 41.7884 132.124 41.1205 132.87 40.7865C133.682 40.4749 134.604 40.4971 135.438 40.8533Z" fill="white"/>
<path d="M143.274 32.9269L144.898 30.2553L146.742 27.7395L141.453 23.7544L139.434 26.515L137.678 29.4316L143.274 32.9269Z" fill="white"/>
<path fill-rule="evenodd" clip-rule="evenodd" d="M144.087 25.7356C145.535 26.8488 145.909 28.8525 144.877 30.2328C143.999 31.7022 142.024 32.1252 140.466 31.1679C138.907 30.2105 138.446 28.1178 139.412 26.4926C140.553 24.9787 142.638 24.6447 144.087 25.7356Z" fill="white"/>
<path d="M153.414 19.7247C154.841 18.2107 156.443 16.8749 157.957 15.4501L153.634 10.374C151.987 11.9325 150.254 13.3796 148.695 15.0271L153.414 19.7247Z" fill="white"/>
<path fill-rule="evenodd" clip-rule="evenodd" d="M155.784 12.912C156.969 14.3146 156.903 16.4074 155.652 17.5651C154.379 18.7005 152.338 18.6337 151.065 17.387C149.727 16.0734 149.749 13.9584 151.153 12.6894C152.536 11.3981 154.621 11.5094 155.784 12.912Z" fill="white"/>
<path d="M166.208 9.17261C167.986 8.12623 169.698 6.92402 171.542 5.96669L168.447 0.0668945C166.45 1.11327 164.584 2.40455 162.631 3.56224L166.208 9.17261Z" fill="white"/>
<path fill-rule="evenodd" clip-rule="evenodd" d="M169.983 3.02806C170.795 4.63102 170.29 6.63473 168.842 7.54753C167.393 8.43806 165.396 7.90374 164.408 6.36757C163.421 4.8314 163.903 2.7609 165.506 1.78131C167.108 0.757197 169.127 1.3583 169.983 3.02806Z" fill="white"/>
<path d="M181.001 1.78041L183.898 0.689497C184.886 0.400073 185.896 0.155175 186.883 -0.111986L185.171 -6.56836C184.074 -6.27894 182.977 -6.01178 181.901 -5.70009L178.719 -4.52013L181.001 1.78041Z" fill="white"/>
<path fill-rule="evenodd" clip-rule="evenodd" d="M186.049 -3.31809C186.509 -1.51475 185.544 0.244055 183.898 0.711586C182.296 1.3127 180.496 0.377635 179.881 -1.35891C179.245 -3.09545 180.167 -5.03237 181.922 -5.67801C183.722 -6.19007 185.588 -5.09916 186.049 -3.31809Z" fill="white"/>
<path d="M229.615 1.26909C231.547 2.02604 233.522 2.62715 235.409 3.49543L238.043 -2.627C236.002 -3.56206 233.829 -4.25223 231.744 -5.05371L229.615 1.26909Z" fill="white"/>
<path fill-rule="evenodd" clip-rule="evenodd" d="M236.726 0.445692C236.353 1.2917 235.716 1.89281 234.97 2.2045C234.202 2.56071 233.346 2.64977 232.534 2.33808C230.931 1.73697 230.119 -0.155414 230.69 -1.91422C231.261 -3.67303 233.148 -4.56357 234.926 -3.89567C235.804 -3.56172 236.462 -2.91607 236.791 -2.15912C237.099 -1.33537 237.099 -0.400317 236.726 0.445692Z" fill="white"/>
<path d="M244.539 8.39298L247.195 10.0405L249.675 11.9106L253.581 6.54511L250.882 4.49689L247.985 2.71582L244.539 8.39298Z" fill="white"/>
<path fill-rule="evenodd" clip-rule="evenodd" d="M251.628 9.21707C250.531 10.6865 248.556 11.0649 247.195 10.0186C245.746 9.12802 245.329 7.12431 246.273 5.54361C247.217 3.96291 249.28 3.49538 250.882 4.47497C252.375 5.63266 252.704 7.74769 251.628 9.21707Z" fill="white"/>
<path d="M257.555 18.6789C259.047 20.126 260.364 21.7513 261.769 23.2874L266.751 18.9238C265.214 17.2541 263.788 15.4953 262.164 13.9146L257.555 18.6789Z" fill="white"/>
<path fill-rule="evenodd" clip-rule="evenodd" d="M264.271 21.0835C262.888 22.2857 260.825 22.2189 259.684 20.9499C258.565 19.6586 258.63 17.5881 259.859 16.2968C261.154 14.9388 263.239 14.961 264.49 16.3859C265.763 17.7885 265.654 19.9035 264.271 21.0835Z" fill="white"/>
<path d="M267.957 31.6577C268.989 33.4611 270.174 35.1976 271.117 37.0678L276.934 33.9286C275.902 31.9026 274.629 30.0102 273.488 28.0288L267.957 31.6577Z" fill="white"/>
<path fill-rule="evenodd" clip-rule="evenodd" d="M274.015 35.4864C272.435 36.3102 270.46 35.7981 269.56 34.3287C268.682 32.8593 269.209 30.8334 270.723 29.8315C272.238 28.8297 274.279 29.3195 275.244 30.9447C276.254 32.5699 275.661 34.6181 274.015 35.4864Z" fill="white"/>
<path d="M275.244 46.6635L276.32 49.6023C276.605 50.6042 276.846 51.6283 277.11 52.6301L283.474 50.8936C283.189 49.7804 282.926 48.6672 282.619 47.5763L281.455 44.3481L275.244 46.6635Z" fill="white"/>
<path fill-rule="evenodd" clip-rule="evenodd" d="M280.269 51.7843C278.492 52.2518 276.758 51.2722 276.297 49.6025C275.704 47.9772 276.626 46.1516 278.338 45.5283C280.05 44.8826 281.959 45.8177 282.596 47.5988C283.101 49.4244 282.025 51.3167 280.269 51.7843Z" fill="white"/>
<path d="M279.086 62.9162L279.305 64.4747L279.393 66.0331L279.547 69.1722L286.131 68.9273L285.956 65.521L285.868 63.8068L285.626 62.1147L279.086 62.9162Z" fill="white"/>
<path fill-rule="evenodd" clip-rule="evenodd" d="M282.839 69.0609C281.017 69.1054 279.481 67.7696 279.393 66.0553C279.371 64.3188 280.534 62.7604 282.356 62.5377C284.134 62.2928 285.911 63.6286 285.955 65.5433C286.043 67.4134 284.66 68.9941 282.839 69.0609Z" fill="white"/>
<path d="M261.132 79.7017L260.672 82.8408C260.54 83.8872 260.189 84.889 259.947 85.9131L266.334 87.5606C266.597 86.4029 266.97 85.2898 267.146 84.1098L267.673 80.6145L261.132 79.7017Z" fill="white"/>
<path fill-rule="evenodd" clip-rule="evenodd" d="M263.152 86.7371C261.374 86.2695 260.365 84.533 260.672 82.841C260.935 81.1267 262.603 79.9245 264.403 80.1694C266.203 80.392 267.432 82.1731 267.146 84.11C266.773 86.0469 264.864 87.1823 263.152 86.7371Z" fill="white"/>
<path d="M256.479 95.8428L255.118 98.6925C254.635 99.6275 254.042 100.496 253.516 101.409L259.134 104.904C259.727 103.88 260.363 102.9 260.912 101.854L262.426 98.6702L256.479 95.8428Z" fill="white"/>
<path fill-rule="evenodd" clip-rule="evenodd" d="M256.324 103.145C254.766 102.166 254.283 100.184 255.117 98.6926C255.863 97.1341 257.795 96.4885 259.463 97.2455C261.109 98.0024 261.789 100.073 260.933 101.854C259.967 103.568 257.861 104.125 256.324 103.145Z" fill="white"/>
<path d="M247.304 109.869C246.602 110.648 245.922 111.45 245.176 112.207L242.871 114.344L247.239 119.353L249.828 116.971C250.662 116.147 251.409 115.235 252.199 114.366L247.304 109.869Z" fill="white"/>
<path fill-rule="evenodd" clip-rule="evenodd" d="M245.045 116.815C243.859 115.413 243.903 113.342 245.176 112.185C246.361 110.938 248.381 110.871 249.741 112.096C251.102 113.298 251.168 115.524 249.807 116.927C248.381 118.262 246.23 118.218 245.045 116.815Z" fill="white"/>
<path d="M234.464 120.533C232.731 121.713 230.821 122.559 228.934 123.472L231.655 129.55C233.74 128.526 235.891 127.568 237.844 126.255L234.464 120.533Z" fill="white"/>
<path fill-rule="evenodd" clip-rule="evenodd" d="M230.295 126.522C229.57 124.83 230.207 122.849 231.743 122.092C233.279 121.357 235.167 121.78 236.133 123.383C237.054 124.919 236.55 127.145 234.794 128.014C233.06 128.882 231.041 128.214 230.295 126.522Z" fill="white"/>
<path d="M219.102 126.9C217.105 127.524 215.02 127.68 212.979 128.058L213.791 134.693C216.095 134.292 218.422 134.091 220.66 133.401L219.102 126.9Z" fill="white"/>
<path fill-rule="evenodd" clip-rule="evenodd" d="M213.396 131.353C213.199 129.527 214.384 127.813 216.074 127.568C217.764 127.368 219.432 128.303 219.893 130.151C220.332 131.887 219.191 133.913 217.259 134.158C215.328 134.448 213.594 133.201 213.396 131.353Z" fill="white"/>
<path d="M202.575 128.37C200.49 128.37 198.427 127.947 196.385 127.657L195.244 134.247C197.549 134.603 199.831 135.026 202.18 135.049L202.575 128.37Z" fill="white"/>
<path fill-rule="evenodd" clip-rule="evenodd" d="M195.815 130.93C196.144 129.127 197.79 127.858 199.458 128.125C201.148 128.392 202.465 129.817 202.377 131.709C202.289 133.513 200.621 135.049 198.712 134.759C196.78 134.47 195.486 132.733 195.815 130.93Z" fill="white"/>
<path d="M186.356 124.852C184.359 124.206 182.537 123.204 180.649 122.314L177.643 128.258C179.75 129.282 181.813 130.396 184.029 131.108L186.356 124.852Z" fill="white"/>
<path fill-rule="evenodd" clip-rule="evenodd" d="M179.135 125.275C179.991 123.65 181.922 122.915 183.458 123.672C184.995 124.451 185.829 126.21 185.192 127.969C184.578 129.661 182.537 130.64 180.781 129.772C179.025 128.926 178.301 126.9 179.135 125.275Z" fill="white"/>
<path d="M171.892 116.637C170.158 115.457 168.753 113.876 167.173 112.496L162.586 117.283C164.342 118.819 165.944 120.578 167.875 121.913L171.892 116.637Z" fill="white"/>
<path fill-rule="evenodd" clip-rule="evenodd" d="M164.846 114.878C166.119 113.565 168.204 113.453 169.455 114.611C170.684 115.836 170.97 117.772 169.85 119.264C168.775 120.711 166.536 121.045 165.132 119.665C163.705 118.329 163.573 116.192 164.846 114.878Z" fill="white"/>
<path d="M160.415 104.46C159.164 102.768 158.22 100.875 157.079 99.0942L151.307 102.3C152.558 104.304 153.633 106.397 155.016 108.289L160.415 104.46Z" fill="white"/>
<path fill-rule="evenodd" clip-rule="evenodd" d="M154.205 100.697C155.807 99.8286 157.826 100.318 158.726 101.81C159.187 102.545 159.253 103.435 159.077 104.281C158.923 105.083 158.462 105.862 157.738 106.396C156.992 106.931 156.092 107.109 155.236 106.931C154.402 106.752 153.656 106.174 153.151 105.35C152.12 103.636 152.602 101.565 154.205 100.697Z" fill="white"/>
<path d="M152.996 89.3866C152.382 87.3829 151.921 85.3124 151.394 83.2642L144.941 84.5777C145.512 86.8708 146.039 89.1862 146.719 91.4348L152.996 89.3866Z" fill="white"/>
<path fill-rule="evenodd" clip-rule="evenodd" d="M148.169 83.9326C149.924 83.5987 151.746 84.6673 152.163 86.3371C152.558 88.0291 151.549 89.8324 149.859 90.4113C148.103 91.0124 146.259 89.9438 145.798 88.0291C145.315 86.1145 146.347 84.2889 148.169 83.9326Z" fill="white"/>
<path d="M150.318 72.778C150.274 70.663 150.494 68.548 150.56 66.4552L143.997 65.8096C143.909 68.1695 143.668 70.5294 143.734 72.8893L150.318 72.778Z" fill="white"/>
<path fill-rule="evenodd" clip-rule="evenodd" d="M147.29 66.1218C149.09 66.3222 150.494 67.8806 150.407 69.6172C150.363 70.4854 149.946 71.2646 149.331 71.8435C148.739 72.4223 147.948 72.8008 147.027 72.8231C146.127 72.8454 145.249 72.4669 144.678 71.8435C144.108 71.2201 143.778 70.3073 143.844 69.35C143.932 67.3463 145.468 65.9214 147.29 66.1218Z" fill="white"/>
<path d="M152.579 56.0809C153.127 54.0549 153.961 52.0957 154.642 50.1143L148.562 47.5317C147.794 49.7581 146.872 51.9399 146.258 54.2108L152.579 56.0809Z" fill="white"/>
<path fill-rule="evenodd" clip-rule="evenodd" d="M151.591 48.8231C153.259 49.5578 154.137 51.4724 153.567 53.0977C153.259 53.9214 152.645 54.5448 151.877 54.901C151.152 55.2795 150.274 55.4131 149.418 55.1459C148.541 54.8787 147.838 54.2776 147.443 53.4984C147.092 52.7192 147.026 51.7841 147.377 50.8491C148.014 49.0012 149.923 48.0884 151.591 48.8231Z" fill="white"/>
<path d="M159.557 40.8309C160.742 39.0943 161.993 37.4023 163.288 35.7548L158.24 31.458C156.792 33.3059 155.387 35.1983 154.07 37.1352L159.557 40.8309Z" fill="white"/>
<path fill-rule="evenodd" clip-rule="evenodd" d="M160.764 33.5952C162.103 34.7752 162.41 36.8679 161.378 38.2483C160.347 39.6286 158.284 39.9403 156.791 38.9607C155.233 37.9366 154.926 35.8216 156.089 34.2409C157.274 32.6824 159.359 32.3707 160.764 33.5952Z" fill="white"/>
<path d="M170.686 28.3186C172.376 27.0941 173.956 25.6915 175.756 24.6006L172.178 18.9902C170.181 20.2147 168.403 21.7509 166.516 23.1312L170.686 28.3186Z" fill="white"/>
<path fill-rule="evenodd" clip-rule="evenodd" d="M173.956 21.7958C174.439 22.575 174.593 23.4656 174.417 24.2671C174.263 25.0908 173.868 25.8923 173.188 26.4043C171.827 27.4507 169.764 27.1167 168.601 25.7142C167.438 24.3116 167.745 22.1965 169.303 21.0166C170.071 20.4377 170.993 20.1928 171.827 20.3487C172.705 20.5268 173.473 21.0166 173.956 21.7958Z" fill="white"/>
<path d="M184.973 19.7028L187.892 18.6119L189.362 18.0775L190.877 17.6768L189.077 11.2427L187.387 11.688L185.763 12.3113L182.471 13.5135L184.973 19.7028Z" fill="white"/>
<path fill-rule="evenodd" clip-rule="evenodd" d="M189.976 14.4486C190.459 16.2519 189.471 17.9439 187.891 18.6118C186.289 19.2129 184.423 18.3001 183.721 16.6081C183.018 14.9161 183.918 12.9792 185.762 12.289C187.562 11.5543 189.515 12.6897 189.976 14.4486Z" fill="white"/>
<path d="M201.104 15.7619L204.221 15.606C205.252 15.5392 206.306 15.4947 207.337 15.5838L207.491 8.90476C206.328 8.79344 205.165 8.86022 204.001 8.92701L200.512 9.10512L201.104 15.7619Z" fill="white"/>
<path fill-rule="evenodd" clip-rule="evenodd" d="M207.426 12.2441C207.36 14.092 205.933 15.45 204.221 15.6059C202.509 15.6949 200.995 14.2701 200.819 12.4445C200.644 10.6189 202.07 9.03818 204.024 8.92687C205.955 8.77102 207.469 10.3963 207.426 12.2441Z" fill="white"/>
<path d="M217.676 16.7637C219.673 17.3425 221.736 17.6988 223.689 18.4557L225.774 12.1106C223.602 11.2646 221.275 10.8639 219.037 10.2183L217.676 16.7637Z" fill="white"/>
<path fill-rule="evenodd" clip-rule="evenodd" d="M224.743 15.2938C224.15 17.0304 222.372 17.9432 220.704 17.5647C219.058 17.1417 218.005 15.3161 218.378 13.5128C218.729 11.7094 220.573 10.6408 222.438 11.1306C224.326 11.5536 225.335 13.535 224.743 15.2938Z" fill="white"/>
<path d="M233.191 22.73L235.869 24.3775L237.208 25.2012L238.437 26.1363L242.3 20.7263L240.895 19.6576L239.403 18.7226L236.418 16.897L233.191 22.73Z" fill="white"/>
<path fill-rule="evenodd" clip-rule="evenodd" d="M240.369 23.4199C239.271 24.9338 237.362 25.201 235.87 24.355C234.421 23.4645 233.938 21.4162 234.816 19.791C235.694 18.1658 237.757 17.6982 239.403 18.7224C241.115 19.7019 241.422 21.9728 240.369 23.4199Z" fill="white"/>
<path d="M246.295 33.0612C247.678 34.6419 249.148 36.1335 250.333 37.8923L255.579 33.8404C254.262 31.8812 252.616 30.1892 251.058 28.4526L246.295 33.0612Z" fill="white"/>
<path fill-rule="evenodd" clip-rule="evenodd" d="M252.968 35.8661C251.475 37.0015 249.566 36.6898 248.403 35.3986C247.261 34.1295 247.393 32.0368 248.688 30.7455C249.983 29.4542 252.112 29.5878 253.429 31.0572C254.723 32.5488 254.394 34.7974 252.968 35.8661Z" fill="white"/>
<path d="M255.82 46.8417L257.181 49.6914C257.598 50.6487 257.905 51.6729 258.278 52.6524L264.468 50.3593C264.051 49.2461 263.7 48.133 263.239 47.0421L261.724 43.8584L255.82 46.8417Z" fill="white"/>
<path fill-rule="evenodd" clip-rule="evenodd" d="M261.373 51.5167C259.639 52.1401 257.817 51.2941 257.181 49.6911C256.435 48.1327 257.159 46.1958 258.783 45.3498C260.407 44.5038 262.404 45.2607 263.238 47.0418C263.985 48.8897 263.085 50.9156 261.373 51.5167Z" fill="white"/>
<path d="M260.912 62.8714L261.395 66.0105C261.505 67.0569 261.505 68.1255 261.571 69.1719L268.155 68.838C268.089 67.658 268.067 66.478 267.957 65.2981L267.431 61.8027L260.912 62.8714Z" fill="white"/>
<path fill-rule="evenodd" clip-rule="evenodd" d="M264.862 68.9943C263.04 69.0611 261.526 67.7253 261.394 65.9887C261.131 64.2744 262.382 62.627 264.182 62.3153C265.981 62.0036 267.671 63.3171 267.957 65.2763C268.088 67.2577 266.662 68.9052 264.862 68.9943Z" fill="white"/>
<path d="M243.047 79.2788C242.609 81.2157 242.213 83.1972 241.445 85.045L247.635 87.3159C248.512 85.1341 248.995 82.8187 249.5 80.5256L243.047 79.2788Z" fill="white"/>
<path fill-rule="evenodd" clip-rule="evenodd" d="M244.541 86.2023C242.785 85.5344 242.017 83.7978 242.346 82.2171C242.763 80.6364 244.541 79.6123 246.275 79.924C248.118 80.258 249.194 82.0613 248.689 83.9759C248.272 85.9129 246.209 86.8257 244.541 86.2023Z" fill="white"/>
<path d="M236.923 93.9292L235.145 96.3336L233.17 98.56L237.911 103.191L240.237 100.586L242.322 97.7585L236.923 93.9292Z" fill="white"/>
<path fill-rule="evenodd" clip-rule="evenodd" d="M235.541 100.875C234.246 99.5835 234.07 97.5353 235.168 96.3331C236.133 95.0195 238.131 94.7969 239.645 95.8433C241.137 96.8674 241.423 99.0047 240.259 100.585C238.943 102.055 236.836 102.188 235.541 100.875Z" fill="white"/>
<path d="M225.445 104.793C224.611 105.328 223.755 105.84 222.855 106.241C221.955 106.641 221.1 107.153 220.178 107.487L222.658 113.677C223.755 113.276 224.765 112.697 225.818 112.207C226.872 111.74 227.881 111.116 228.869 110.493L225.445 104.793Z" fill="white"/>
<path fill-rule="evenodd" clip-rule="evenodd" d="M221.428 110.582C220.792 108.912 221.428 106.953 222.877 106.218C224.369 105.573 226.191 106.018 227.178 107.621C228.122 109.135 227.617 111.384 225.84 112.185C224.062 113.098 222.086 112.341 221.428 110.582Z" fill="white"/>
<path d="M210.653 109.981C209.687 110.181 208.678 110.137 207.69 110.204C206.703 110.27 205.715 110.315 204.727 110.226L204.508 116.905C205.671 116.994 206.812 116.949 207.976 116.883C209.139 116.794 210.302 116.838 211.443 116.615L210.653 109.981Z" fill="white"/>
<path fill-rule="evenodd" clip-rule="evenodd" d="M204.617 113.587C204.705 111.74 206.087 110.359 207.69 110.226C208.502 110.181 209.27 110.515 209.884 111.094C210.477 111.628 210.938 112.385 211.048 113.32C211.157 114.233 210.894 115.124 210.345 115.814C209.797 116.459 208.941 116.86 207.997 116.927C206.043 117.06 204.529 115.413 204.617 113.587Z" fill="white"/>
<path d="M195.003 108.645C193.137 107.977 191.25 107.354 189.516 106.419L186.641 112.43C188.704 113.521 190.898 114.278 193.093 115.035L195.003 108.645Z" fill="white"/>
<path fill-rule="evenodd" clip-rule="evenodd" d="M188.067 109.424C188.901 107.732 190.679 107.109 192.215 107.643C193.73 108.2 194.52 110.137 194.037 111.851C193.51 113.676 191.645 114.545 189.801 113.855C187.979 113.209 187.277 111.027 188.067 109.424Z" fill="white"/>
<path d="M181.308 100.919C180.584 100.229 179.815 99.5833 179.135 98.8709L177.138 96.6445L172.09 100.941L174.438 103.546C175.25 104.392 176.128 105.149 176.984 105.951L181.308 100.919Z" fill="white"/>
<path fill-rule="evenodd" clip-rule="evenodd" d="M174.615 98.804C176.019 97.6463 178.06 97.6686 179.136 98.8708C180.299 100.006 180.321 102.01 179.158 103.435C177.995 104.837 175.844 104.926 174.439 103.568C173.122 102.121 173.21 99.984 174.615 98.804Z" fill="white"/>
<path d="M171.85 88.2295L171.213 86.8714L170.708 85.4688C170.401 84.5115 169.962 83.621 169.765 82.6191L163.422 84.467C163.663 85.6247 164.146 86.6933 164.519 87.8065L165.112 89.454L165.858 91.057L171.85 88.2295Z" fill="white"/>
<path fill-rule="evenodd" clip-rule="evenodd" d="M166.582 83.5536C167.46 83.3087 168.338 83.42 169.04 83.7762C169.808 84.1102 170.401 84.689 170.686 85.4682C171.169 87.0267 170.488 88.83 168.842 89.6537C167.218 90.4552 165.133 89.6983 164.519 87.8281C164.189 86.9153 164.233 85.958 164.606 85.1788C165.002 84.3996 165.726 83.7985 166.582 83.5536Z" fill="white"/>
<path d="M168.293 72.7342C168.206 71.7323 168.359 70.7305 168.381 69.7286C168.403 68.7268 168.469 67.7249 168.667 66.7453L162.148 65.8325C161.929 66.9902 161.841 68.1702 161.819 69.3501C161.797 70.5301 161.621 71.6878 161.731 72.8677L168.293 72.7342Z" fill="white"/>
<path fill-rule="evenodd" clip-rule="evenodd" d="M165.397 66.2782C167.196 66.5676 168.403 68.0815 168.382 69.729C168.338 70.5527 167.943 71.2874 167.306 71.844C166.714 72.4006 165.923 72.7791 165.002 72.7791C163.136 72.8458 161.666 71.2874 161.797 69.3282C161.841 67.3691 163.619 66.011 165.397 66.2782Z" fill="white"/>
<path d="M171.234 57.1057C172.09 55.3023 172.902 53.4767 173.999 51.807L168.403 48.2671C167.13 50.2263 166.142 52.3858 165.154 54.5008L171.234 57.1057Z" fill="white"/>
<path fill-rule="evenodd" clip-rule="evenodd" d="M171.211 50.0257C172.77 51.0498 173.253 52.9422 172.528 54.3893C171.826 55.8587 169.895 56.4821 168.205 55.7919C166.515 55.1017 165.834 53.0758 166.69 51.317C167.546 49.5582 169.697 49.0461 171.211 50.0257Z" fill="white"/>
<path d="M180.255 44.0813C181.659 42.6787 183.261 41.4987 184.864 40.2965L181.176 34.7529C179.311 36.1555 177.423 37.5358 175.777 39.1833L180.255 44.0813Z" fill="white"/>
<path fill-rule="evenodd" clip-rule="evenodd" d="M182.999 37.5356C183.986 39.0718 183.767 41.12 182.472 42.0996C181.199 43.1014 179.268 42.9901 177.995 41.632C176.744 40.3185 176.832 38.0922 178.368 36.8677C179.926 35.71 182.011 35.9994 182.999 37.5356Z" fill="white"/>
<path d="M193.686 35.8661C194.608 35.4876 195.552 35.2427 196.517 34.9978C197.483 34.7529 198.427 34.4635 199.414 34.3522L198.273 27.7622C197.11 27.8958 196.012 28.2297 194.871 28.5192C193.752 28.8086 192.611 29.0757 191.535 29.521L193.686 35.8661Z" fill="white"/>
<path fill-rule="evenodd" clip-rule="evenodd" d="M198.822 31.08C198.975 31.9928 198.778 32.8611 198.339 33.5513C197.922 34.2637 197.285 34.8203 196.495 35.0206C194.915 35.3768 193.203 34.4418 192.589 32.7275C191.974 30.991 192.94 28.9872 194.849 28.5642C195.793 28.3193 196.715 28.4529 197.417 28.9205C198.163 29.388 198.668 30.1672 198.822 31.08Z" fill="white"/>
<path d="M209.248 33.9067C210.236 33.929 211.201 34.1739 212.189 34.3075L213.66 34.5301L215.086 34.9086L216.666 28.43L214.976 27.9847L213.264 27.7175C212.123 27.5617 210.982 27.2945 209.819 27.25L209.248 33.9067Z" fill="white"/>
<path fill-rule="evenodd" clip-rule="evenodd" d="M215.876 31.6579C215.415 33.4613 213.791 34.4854 212.189 34.3073C210.609 34.0401 209.402 32.3704 209.533 30.5893C209.665 28.7192 211.333 27.3834 213.264 27.7173C215.196 27.9399 216.315 29.8991 215.876 31.6579Z" fill="white"/>
<path d="M224.26 38.5156L226.784 40.0741C227.618 40.6084 228.364 41.254 229.176 41.8551L233.236 36.5787C232.293 35.8885 231.393 35.1316 230.427 34.5082L227.464 32.6826L224.26 38.5156Z" fill="white"/>
<path fill-rule="evenodd" clip-rule="evenodd" d="M231.196 39.206C230.055 40.6531 228.101 40.987 226.784 40.0742C225.402 39.2282 224.985 37.2245 225.841 35.5993C226.697 33.9741 228.738 33.4843 230.406 34.5084C232.03 35.6216 232.337 37.8034 231.196 39.206Z" fill="white"/>
<path d="M236.09 48.9797C237.341 50.5381 238.307 52.2969 239.316 54.0112L245.132 50.8498C243.969 48.8238 242.806 46.7756 241.357 44.9277L236.09 48.9797Z" fill="white"/>
<path fill-rule="evenodd" clip-rule="evenodd" d="M242.213 52.4304C240.632 53.2541 238.613 52.8312 237.779 51.4286C236.967 50.026 237.231 48.1113 238.701 46.9536C240.106 45.8404 242.322 46.1299 243.332 47.8219C244.342 49.5139 243.859 51.5621 242.213 52.4304Z" fill="white"/>
<path d="M242.74 63.3618C243.026 64.3191 243.113 65.3209 243.289 66.3228C243.443 67.3024 243.618 68.3042 243.618 69.3061L250.18 68.8385C250.159 67.6586 249.983 66.5009 249.785 65.3432C249.588 64.1855 249.478 63.0055 249.149 61.8701L242.74 63.3618Z" fill="white"/>
<path fill-rule="evenodd" clip-rule="evenodd" d="M246.887 69.0611C245.088 69.1725 243.573 67.9257 243.266 66.3228C243.134 65.499 243.398 64.6975 243.903 64.0296C244.342 63.3617 245.066 62.8274 245.944 62.627C246.822 62.4267 247.721 62.5825 248.468 63.0723C249.17 63.5621 249.653 64.3636 249.806 65.3432C250.136 67.2801 248.709 68.9721 246.887 69.0611Z" fill="white"/>
<path d="M224.503 79.0352C223.822 80.883 222.9 82.6418 221.693 84.178L226.917 88.2299C228.519 86.1594 229.748 83.8218 230.648 81.3728L224.503 79.0352Z" fill="white"/>
<path fill-rule="evenodd" clip-rule="evenodd" d="M224.327 86.2041C222.923 85.0464 222.55 83.0872 223.318 81.7069C223.691 80.9945 224.305 80.4824 225.118 80.2153C225.864 79.9258 226.764 79.8813 227.598 80.193C228.454 80.5047 229.09 81.1726 229.397 82.0631C229.661 82.9091 229.573 83.9778 229.068 84.9351C227.993 86.8943 225.732 87.3618 224.327 86.2041Z" fill="white"/>
<path d="M214.188 90.2559C212.41 91.0351 210.566 91.6807 208.635 91.8811L209.513 98.5156C212.081 98.2261 214.583 97.4024 216.953 96.356L214.188 90.2559Z" fill="white"/>
<path fill-rule="evenodd" clip-rule="evenodd" d="M209.073 95.1982C208.876 93.3503 209.995 91.7474 211.488 91.2799C212.98 90.8346 214.78 91.6583 215.57 93.3058C216.382 94.9756 215.416 97.0683 213.309 97.714C211.18 98.3373 209.249 97.0015 209.073 95.1982Z" fill="white"/>
<path d="M199.088 90.7906C197.266 90.1005 195.532 89.1654 194.018 87.9409L190.023 93.2396C192.065 94.8648 194.369 96.1116 196.783 97.0244L199.088 90.7906Z" fill="white"/>
<path fill-rule="evenodd" clip-rule="evenodd" d="M192.02 90.6127C193.161 89.1879 195.093 88.8094 196.454 89.5886C197.156 89.9671 197.661 90.5905 197.924 91.4142C198.209 92.1712 198.253 93.084 197.946 93.93C197.639 94.7982 196.98 95.4439 196.102 95.7556C195.268 96.0227 194.215 95.9337 193.271 95.4216C191.34 94.3307 190.879 92.0376 192.02 90.6127Z" fill="white"/>
<path d="M188.025 80.326C187.257 78.5227 186.621 76.6525 186.423 74.6934L179.883 75.5839C180.168 78.1887 180.98 80.7267 182.012 83.1312L188.025 80.326Z" fill="white"/>
<path fill-rule="evenodd" clip-rule="evenodd" d="M183.153 75.1382C184.974 74.9378 186.555 76.0733 187.016 77.5872C187.455 79.1011 186.642 80.9267 185.018 81.7282C183.372 82.5519 181.309 81.5723 180.673 79.435C180.058 77.2755 181.375 75.3163 183.153 75.1382Z" fill="white"/>
<path d="M187.499 65.0092C188.179 63.1614 189.101 61.4026 190.308 59.8664L185.085 55.8145C183.482 57.8849 182.253 60.2226 181.354 62.6716L187.499 65.0092Z" fill="white"/>
<path fill-rule="evenodd" clip-rule="evenodd" d="M187.697 57.841C189.102 58.9987 189.475 60.9579 188.707 62.3382C188.334 63.0506 187.719 63.5627 186.907 63.8298C186.161 64.1193 185.261 64.1638 184.427 63.8521C183.571 63.5404 182.935 62.8725 182.627 61.982C182.364 61.136 182.452 60.0673 182.956 59.11C184.01 57.1508 186.271 56.6833 187.697 57.841Z" fill="white"/>
<path d="M197.814 53.7885C199.592 53.0093 201.436 52.3637 203.367 52.1633L202.489 45.5288C199.921 45.8182 197.419 46.642 195.049 47.6884L197.814 53.7885Z" fill="white"/>
<path fill-rule="evenodd" clip-rule="evenodd" d="M202.951 48.8459C203.148 50.6938 202.029 52.2968 200.537 52.7643C199.044 53.2096 197.244 52.3858 196.454 50.7383C195.642 49.0686 196.608 46.9758 198.715 46.3302C200.822 45.7068 202.753 47.0426 202.951 48.8459Z" fill="white"/>
<path d="M212.914 53.2543C214.736 53.9444 216.47 54.8795 217.984 56.104L221.978 50.8053C219.937 49.1801 217.633 47.9333 215.219 47.0205L212.914 53.2543Z" fill="white"/>
<path fill-rule="evenodd" clip-rule="evenodd" d="M219.982 53.4543C218.84 54.8792 216.909 55.2577 215.548 54.4784C214.846 54.1 214.341 53.4766 214.078 52.6528C213.792 51.8959 213.748 50.9831 214.056 50.1371C214.363 49.2688 215.021 48.6232 215.899 48.3115C216.733 48.0443 217.787 48.1334 218.731 48.6454C220.662 49.7141 221.123 52.0072 219.982 53.4543Z" fill="white"/>
<path d="M223.975 63.7183C224.743 65.5216 225.379 67.3917 225.577 69.3509L232.117 68.4604C231.832 65.8556 231.02 63.3175 229.988 60.9131L223.975 63.7183Z" fill="white"/>
<path fill-rule="evenodd" clip-rule="evenodd" d="M228.846 68.9277C227.024 69.1281 225.444 67.9927 224.983 66.4788C224.544 64.9649 225.356 63.1393 226.98 62.3378C228.627 61.514 230.69 62.4936 231.326 64.6309C231.941 66.7682 230.624 68.7274 228.846 68.9277Z" fill="white"/>
</g>
<defs>
<clipPath id="clip0_1_28720">
<rect width="412" height="141" fill="white"/>
</clipPath>
</defs>
</svg>
