<svg width="191" height="20" viewBox="0 0 191 20" fill="none" xmlns="http://www.w3.org/2000/svg">
<rect width="35" height="20" rx="3" fill="#00579F"/>
<path d="M15.7271 13.4597H13.5723L14.92 6.5625H17.0747L15.7271 13.4597Z" fill="white"/>
<path d="M23.538 6.73114C23.113 6.59159 22.4389 6.4375 21.6053 6.4375C19.4774 6.4375 17.9789 7.37664 17.9697 8.71933C17.9521 9.70997 19.0426 10.2602 19.8582 10.5905C20.6919 10.928 20.9753 11.1483 20.9753 11.4492C20.9668 11.9112 20.3016 12.1242 19.6812 12.1242C18.821 12.1242 18.36 12.0144 17.6595 11.7574L17.3757 11.6472L17.0742 13.1954C17.5796 13.386 18.5107 13.5551 19.4774 13.5625C21.7383 13.5625 23.2103 12.6379 23.2277 11.207C23.2363 10.4219 22.6605 9.82027 21.419 9.32865C20.6654 9.01307 20.2038 8.80028 20.2038 8.47738C20.2127 8.18384 20.5942 7.88317 21.4449 7.88317C22.1455 7.86845 22.6601 8.00781 23.05 8.14727L23.2449 8.22051L23.538 6.73114Z" fill="white"/>
<path d="M26.4022 11.0163C26.5796 10.62 27.2625 9.08648 27.2625 9.08648C27.2535 9.10121 27.4396 8.68293 27.546 8.42616L27.6965 9.02046C27.6965 9.02046 28.1046 10.6714 28.1932 11.0163C27.8564 11.0163 26.8278 11.0163 26.4022 11.0163ZM29.062 6.5625H27.3953C26.8813 6.5625 26.4908 6.68713 26.269 7.13476L23.0684 13.4596H25.3293C25.3293 13.4596 25.7015 12.6083 25.7815 12.425C26.0296 12.425 28.229 12.425 28.5481 12.425C28.61 12.6671 28.8052 13.4596 28.8052 13.4596H30.8003L29.062 6.5625Z" fill="white"/>
<path d="M11.7721 6.5625L9.66188 11.2657L9.43128 10.3119C9.04114 9.21121 7.81758 8.01539 6.45215 7.4208L8.38506 13.4524H10.6637L14.0506 6.5625H11.7721Z" fill="white"/>
<path d="M7.7025 6.5625H4.23566L4.2002 6.70186C6.90455 7.27422 8.69559 8.65387 9.43145 10.3121L8.67779 7.14227C8.55372 6.70176 8.17242 6.57703 7.7025 6.5625Z" fill="#FAA61A"/>
<rect x="39" width="35" height="20" rx="3" fill="#082069"/>
<path d="M49.4113 13.0625H47.9604C47.8611 13.0625 47.7767 13.1269 47.7612 13.2144L47.1744 16.5362C47.1627 16.6018 47.2196 16.6609 47.294 16.6609H47.9867C48.086 16.6609 48.1704 16.5965 48.1859 16.5088L48.3442 15.6128C48.3594 15.5251 48.4441 15.4607 48.5432 15.4607H49.0025C49.9582 15.4607 50.5098 15.0478 50.6538 14.2295C50.7187 13.8715 50.6566 13.5902 50.4688 13.3932C50.2626 13.1769 49.8969 13.0625 49.4113 13.0625ZM49.5787 14.2757C49.4993 14.7406 49.1015 14.7406 48.7169 14.7406H48.498L48.6516 13.8725C48.6607 13.82 48.7116 13.7813 48.771 13.7813H48.8714C49.1334 13.7813 49.3805 13.7813 49.5082 13.9147C49.5844 13.9942 49.6077 14.1124 49.5787 14.2757Z" fill="white"/>
<path d="M53.7481 14.2605H53.0533C52.9941 14.2605 52.943 14.2991 52.9339 14.3516L52.9031 14.5251L52.8545 14.4622C52.7041 14.2673 52.3687 14.2021 52.0339 14.2021C51.2662 14.2021 50.6104 14.7213 50.4827 15.4497C50.4163 15.813 50.5107 16.1604 50.7415 16.4026C50.9532 16.6254 51.2562 16.7182 51.6166 16.7182C52.2353 16.7182 52.5783 16.363 52.5783 16.363L52.5473 16.5354C52.5357 16.6013 52.5925 16.6604 52.6666 16.6604H53.2924C53.3919 16.6604 53.4759 16.596 53.4916 16.5083L53.8671 14.3851C53.879 14.3198 53.8223 14.2605 53.7481 14.2605ZM52.7796 15.4678C52.7126 15.8222 52.3976 16.0602 51.9957 16.0602C51.794 16.0602 51.6328 16.0024 51.5292 15.8929C51.4265 15.7842 51.3875 15.6294 51.4202 15.457C51.4828 15.1057 51.8031 14.86 52.1988 14.86C52.3961 14.86 52.5565 14.9185 52.6621 15.029C52.768 15.1405 52.81 15.2962 52.7796 15.4678Z" fill="white"/>
<path d="M57.449 14.2603H56.7508C56.6842 14.2603 56.6216 14.2898 56.5839 14.3392L55.6209 15.6057L55.2128 14.3887C55.1871 14.3125 55.1084 14.2603 55.0193 14.2603H54.3332C54.2498 14.2603 54.1919 14.333 54.2184 14.4031L54.9874 16.4181L54.2644 17.3294C54.2076 17.4012 54.2649 17.4999 54.3631 17.4999H55.0604C55.1266 17.4999 55.1886 17.4711 55.2261 17.4226L57.5483 14.4298C57.6039 14.3582 57.5468 14.2603 57.449 14.2603Z" fill="white"/>
<path d="M59.7599 13.062H58.3088C58.2097 13.062 58.1253 13.1264 58.1098 13.2139L57.523 16.5358C57.5113 16.6013 57.5682 16.6604 57.6422 16.6604H58.3869C58.456 16.6604 58.5152 16.6153 58.526 16.5539L58.6926 15.6123C58.7079 15.5246 58.7925 15.4602 58.8916 15.4602H59.3507C60.3066 15.4602 60.858 15.0473 61.0022 14.229C61.0674 13.871 61.0048 13.5897 60.817 13.3927C60.611 13.1764 60.2455 13.062 59.7599 13.062ZM59.9273 14.2752C59.8482 14.7401 59.4504 14.7401 59.0655 14.7401H58.8468L59.0006 13.872C59.0097 13.8195 59.0602 13.7809 59.1199 13.7809H59.2202C59.482 13.7809 59.7294 13.7809 59.8571 13.9142C59.9332 13.9938 59.9564 14.112 59.9273 14.2752Z" fill="white"/>
<path d="M64.0968 14.2605H63.4024C63.3428 14.2605 63.2921 14.2991 63.2832 14.3516L63.2524 14.5251L63.2036 14.4622C63.0532 14.2673 62.718 14.2021 62.3833 14.2021C61.6155 14.2021 60.96 14.7213 60.8322 15.4497C60.7661 15.813 60.86 16.1604 61.0909 16.4026C61.303 16.6254 61.6055 16.7182 61.966 16.7182C62.5846 16.7182 62.9276 16.363 62.9276 16.363L62.8967 16.5354C62.885 16.6013 62.9419 16.6604 63.0163 16.6604H63.6419C63.741 16.6604 63.8255 16.596 63.8409 16.5083L64.2167 14.3851C64.2281 14.3198 64.1713 14.2605 64.0968 14.2605ZM63.1283 15.4678C63.0617 15.8222 62.7463 16.0602 62.3444 16.0602C62.1431 16.0602 61.9815 16.0024 61.8779 15.8929C61.7752 15.7842 61.7366 15.6294 61.7689 15.457C61.8319 15.1057 62.1518 14.86 62.5475 14.86C62.7448 14.86 62.9052 14.9185 63.0108 15.029C63.1171 15.1405 63.1591 15.2962 63.1283 15.4678Z" fill="white"/>
<path d="M64.9164 13.1533L64.3209 16.5359C64.3092 16.6015 64.366 16.6606 64.4401 16.6606H65.0388C65.1383 16.6606 65.2227 16.5962 65.238 16.5085L65.8252 13.1868C65.8369 13.1213 65.78 13.062 65.706 13.062H65.0356C64.9764 13.0622 64.9255 13.1008 64.9164 13.1533Z" fill="white"/>
<path opacity="0.68" d="M60.0803 4.63989C60.1954 3.98464 60.0795 3.53889 59.6826 3.135C59.2456 2.69045 58.4562 2.5 57.4462 2.5H54.5143C54.3079 2.5 54.1321 2.63409 54.1 2.81621L52.8791 9.72829C52.8551 9.8647 52.9732 9.98797 53.1277 9.98797H54.9376L54.8127 10.6953C54.7917 10.8146 54.8949 10.9225 55.0302 10.9225H56.5559C56.7364 10.9225 56.8901 10.8052 56.9183 10.6459L56.9333 10.5766L57.2207 8.94934L57.2392 8.85944C57.2674 8.70021 57.4211 8.58277 57.6016 8.58277H57.8298C59.3078 8.58277 60.4652 8.04668 60.8033 6.49616C60.9446 5.84829 60.8715 5.30749 60.4978 4.92727C60.3849 4.81249 60.2443 4.71744 60.0803 4.63989Z" fill="white"/>
<path opacity="0.7" d="M60.0803 4.63989C60.1954 3.98464 60.0795 3.53889 59.6826 3.135C59.2456 2.69045 58.4562 2.5 57.4462 2.5H54.5143C54.3079 2.5 54.1321 2.63409 54.1 2.81621L52.8791 9.72829C52.8551 9.8647 52.9732 9.98797 53.1277 9.98797H54.9376L55.3923 7.41374L55.3782 7.49447C55.4104 7.31243 55.5846 7.17826 55.791 7.17826H56.6514C58.3409 7.17826 59.6638 6.56539 60.0503 4.79302C60.0618 4.74069 60.0715 4.68981 60.0803 4.63989Z" fill="white"/>
<path d="M55.8808 4.64855C55.9001 4.53909 55.9789 4.44935 56.0849 4.40406C56.133 4.38347 56.1869 4.37197 56.2433 4.37197H58.5415C58.8138 4.37197 59.0676 4.38793 59.2997 4.4213C59.366 4.43082 59.4305 4.4418 59.4933 4.45424C59.5559 4.46668 59.6168 4.48049 59.6757 4.49593C59.7052 4.50357 59.7342 4.51172 59.7627 4.52013C59.8767 4.55393 59.9828 4.59373 60.0804 4.63997C60.1955 3.98473 60.0797 3.53897 59.6828 3.13509C59.2456 2.69045 58.4562 2.5 57.4462 2.5H54.5143C54.3079 2.5 54.1321 2.63409 54.1 2.81621L52.8791 9.72829C52.8551 9.8647 52.9732 9.98797 53.1277 9.98797H54.9376L55.3923 7.41374L55.8808 4.64855Z" fill="white"/>
<rect x="78" width="35" height="20" rx="3" fill="#2E408B"/>
<path d="M108.1 7.92638H106.804L106.037 10.7795L105.919 11.1758C105.831 11.2022 105.772 11.2022 105.684 11.2286C105.566 11.255 105.448 11.255 105.3 11.255C105.124 11.255 105.006 11.2286 104.888 11.1758C104.799 11.1229 104.711 11.0701 104.681 10.9908C104.652 10.9116 104.622 10.8059 104.622 10.7002C104.622 10.5946 104.652 10.4625 104.681 10.3568L105.094 8.87742L105.359 7.89997H104.033L103.414 10.1983C103.326 10.4889 103.296 10.7531 103.296 10.9644C103.296 11.2286 103.326 11.4399 103.414 11.6249C103.502 11.8098 103.679 11.9683 103.915 12.074C104.151 12.1796 104.475 12.2325 104.858 12.2325C105.153 12.2325 105.418 12.206 105.625 12.1532H105.654C105.595 12.391 105.477 12.5759 105.271 12.7344C105.065 12.8929 104.799 12.9722 104.446 12.9722C104.298 12.9722 104.121 12.9722 104.004 12.9457L103.738 13.8968C103.915 13.9232 104.121 13.9232 104.328 13.9232C104.74 13.9232 105.094 13.8704 105.359 13.7911C105.654 13.7118 105.919 13.5798 106.155 13.4213C106.361 13.2627 106.568 13.0514 106.715 12.7872C106.862 12.5231 106.98 12.2325 107.069 11.9154L107.953 8.50757L108.1 7.92638ZM102.648 10.3832C102.559 10.6738 102.53 10.9908 102.559 11.2814C102.589 11.5984 102.736 12.0211 102.854 12.2589H101.587C101.439 12.0211 101.439 11.9154 101.41 11.8362C101.233 11.9683 101.056 12.0475 100.85 12.1268C100.644 12.206 100.437 12.2589 100.172 12.2589C99.8772 12.2589 99.612 12.206 99.4057 12.1268C99.1993 12.0475 99.0225 11.9154 98.8751 11.7569C98.7278 11.5984 98.6393 11.4135 98.5804 11.2022C98.5214 10.9908 98.492 10.7795 98.492 10.5153C98.492 10.1455 98.5804 9.80204 98.6983 9.51144C98.8457 9.19443 99.052 8.90384 99.3172 8.69249C99.5825 8.45474 100.172 7.92638 101.204 7.92638H103.237L102.648 10.3832ZM101.705 8.93025C101.086 8.93025 100.968 8.93025 100.732 9.03592C100.555 9.11518 100.408 9.24727 100.26 9.40577C100.142 9.53786 100.025 9.72278 99.9362 9.90771C99.8478 10.0926 99.8183 10.304 99.8183 10.5153C99.8183 10.7795 99.8772 10.9644 99.9657 11.1229C100.054 11.2814 100.231 11.3343 100.496 11.3343C100.644 11.3343 100.761 11.3078 100.879 11.255C100.997 11.2022 101.115 11.1229 101.233 11.0172C101.233 10.8852 101.262 10.7531 101.292 10.5946C101.321 10.4361 101.351 10.304 101.38 10.1983L101.705 8.93025ZM98.1972 9.64353C98.1972 10.0398 98.1088 10.3832 97.9909 10.7002C97.8435 11.0172 97.6372 11.3078 97.4014 11.5192C97.1362 11.7569 96.8414 11.9419 96.5172 12.074C96.1635 12.206 95.7804 12.2853 95.3972 12.2853C95.1909 12.2853 94.9846 12.2589 94.7783 12.2325L94.3657 13.659H93.0688L94.572 7.9528H96.3109C96.6351 7.9528 96.9299 8.00564 97.1362 8.08489C97.372 8.16414 97.5783 8.29623 97.7257 8.45474C97.873 8.61324 97.9909 8.79817 98.0793 9.00951C98.1678 9.19443 98.1972 9.40577 98.1972 9.64353ZM94.9846 11.255C95.073 11.2814 95.2204 11.2814 95.3678 11.2814C95.6035 11.2814 95.8099 11.255 96.0162 11.1758C96.193 11.0965 96.3699 10.9908 96.5172 10.8587C96.6646 10.7267 96.753 10.5417 96.8414 10.3568C96.9299 10.1719 96.9593 9.93412 96.9593 9.69637C96.9593 9.45861 96.9004 9.27368 96.7825 9.11518C96.6646 8.95667 96.4583 8.87742 96.193 8.87742H95.6625L94.9846 11.255ZM92.273 11.255C92.0962 11.255 91.9783 11.2286 91.8604 11.1758C91.772 11.1229 91.6835 11.0701 91.6541 10.9908C91.6246 10.9116 91.5951 10.8059 91.5951 10.7002C91.5951 10.5946 91.6246 10.4625 91.6541 10.3568L92.0667 8.87742H93.5404L93.8057 7.89997H92.3025L92.6562 6.65834L91.2709 6.86968L90.3867 10.2247C90.2983 10.5153 90.2688 10.7795 90.2688 10.9908C90.2688 11.255 90.2983 11.4663 90.3867 11.6513C90.4751 11.8362 90.652 11.9947 90.8878 12.1004C91.1235 12.206 91.4478 12.2589 91.8309 12.2589C92.1257 12.2589 92.3909 12.2325 92.5972 12.1796C92.6267 12.1796 92.6562 12.1796 92.6857 12.1532L92.9509 11.1493C92.8625 11.1758 92.7741 11.2022 92.6857 11.2022C92.5383 11.255 92.4204 11.255 92.273 11.255ZM88.9425 7.92638L87.793 12.2589H89.0899L90.2393 7.92638H88.9425ZM90.3572 7.42445L90.5635 6.68475H89.2667L89.0604 7.42445H90.3572ZM86.0541 7.92638C86.3488 7.92638 86.5846 7.97922 86.7909 8.05847C86.9972 8.13772 87.1741 8.26981 87.3214 8.42832C87.4688 8.58682 87.5572 8.77175 87.6162 8.98309C87.6751 9.19443 87.7046 9.40577 87.7046 9.64353C87.7046 10.0134 87.6162 10.3568 87.4688 10.6738C87.3214 10.9908 87.1151 11.2814 86.8499 11.5192C86.5846 11.7834 86.2899 11.9419 85.9362 12.1004C85.5825 12.2325 85.1993 12.3117 84.8162 12.3117H84.492C84.3446 12.3117 84.1972 12.3117 84.0204 12.2853C83.8435 12.2589 83.6667 12.2325 83.4604 12.1796C83.2541 12.1268 83.0772 12.074 82.9004 11.9947L84.433 6.26207L85.7888 6.07715L85.2288 8.11131C85.3467 8.05847 85.4646 8.03205 85.5825 8.00564C85.7888 7.92638 85.9067 7.92638 86.0541 7.92638ZM84.8751 11.3078C85.0814 11.3078 85.2878 11.255 85.4646 11.1758C85.6414 11.0965 85.8183 10.9644 85.9362 10.8059C86.0835 10.6474 86.172 10.4889 86.2604 10.304C86.3488 10.119 86.3783 9.90771 86.3783 9.69637C86.3783 9.43219 86.3193 9.24727 86.2309 9.08876C86.1425 8.95667 85.9362 8.87742 85.6709 8.87742C85.5825 8.87742 85.4941 8.87742 85.3762 8.90384C85.2288 8.93025 85.1404 8.98309 85.0225 9.06234L84.433 11.2286C84.6099 11.255 84.6688 11.255 84.6983 11.255C84.7572 11.3078 84.8162 11.3078 84.8751 11.3078Z" fill="white"/>
<rect x="117" width="35" height="20" rx="3" fill="#253D4E"/>
<path d="M123.138 10.1713C123.266 10.195 123.38 10.2065 123.548 10.2065C124.206 10.2065 124.649 9.83433 124.649 9.36162C124.649 8.93634 124.307 8.78295 123.864 8.78295C123.669 8.78295 123.521 8.79485 123.427 8.81817L123.138 10.1713ZM122.769 8.32793C123.044 8.26861 123.454 8.23339 123.857 8.23339C124.28 8.23339 124.724 8.30993 125.019 8.51701C125.281 8.6942 125.435 8.95372 125.435 9.30872C125.435 9.78111 125.18 10.1655 124.858 10.3898C124.495 10.6439 123.978 10.768 123.44 10.768C123.279 10.768 123.138 10.75 123.017 10.7384L122.688 12.2451H121.923L122.769 8.32793Z" fill="white"/>
<path d="M127.511 9.86389C127.43 9.84589 127.33 9.83447 127.189 9.83447C126.47 9.83447 125.906 10.5496 125.906 11.2055C125.906 11.5063 126.033 11.7547 126.376 11.7547C126.745 11.7547 127.189 11.3532 127.343 10.6204L127.511 9.86389ZM127.195 12.2453C127.195 12.0735 127.222 11.8435 127.249 11.6008H127.236C126.914 12.1271 126.477 12.3101 126.06 12.3101C125.476 12.3101 125.093 11.9083 125.093 11.3294C125.093 10.3486 125.872 9.30275 127.397 9.30275C127.753 9.30275 128.136 9.36176 128.391 9.43267L128.048 10.9334C127.954 11.3587 127.901 11.9025 127.914 12.2453H127.195Z" fill="white"/>
<path d="M132.836 11.1045C132.836 11.4999 133.071 11.7783 133.474 11.7783C134.058 11.7783 134.448 11.069 134.448 10.4959C134.448 10.2002 134.293 9.83398 133.824 9.83398C133.199 9.83398 132.836 10.5668 132.836 11.1045ZM135.254 10.4903C135.254 11.4708 134.481 12.3096 133.367 12.3096C132.54 12.3096 132.03 11.8074 132.03 11.1219C132.03 10.1473 132.803 9.30242 133.918 9.30242C134.797 9.30242 135.254 9.85777 135.254 10.4903Z" fill="white"/>
<path d="M135.401 12.2451L135.825 10.2598C135.905 9.91697 135.952 9.61566 135.993 9.36773H136.691L136.617 9.88175H136.631C136.933 9.49748 137.349 9.30261 137.806 9.30261C138.276 9.30261 138.639 9.55102 138.639 10.0945C138.639 10.2242 138.613 10.425 138.579 10.567L138.222 12.2451H137.436L137.785 10.6202C137.806 10.514 137.826 10.3898 137.826 10.2774C137.826 10.0351 137.725 9.86375 137.416 9.86375C137.061 9.86375 136.604 10.2418 136.463 10.9158L136.181 12.2451H135.401Z" fill="white"/>
<path d="M140.72 9.81678C140.23 9.81678 139.908 10.2007 139.814 10.5496C140.619 10.5554 141.137 10.4609 141.137 10.1125C141.137 9.92932 140.969 9.81678 140.72 9.81678ZM141.466 12.0797C141.143 12.2273 140.707 12.3101 140.311 12.3101C139.405 12.3101 138.968 11.82 138.968 11.1167C138.968 10.2482 139.693 9.30291 140.821 9.30291C141.466 9.30291 141.876 9.6277 141.876 10.1125C141.876 10.8508 140.996 11.087 139.733 11.0635C139.72 11.1638 139.747 11.3587 139.821 11.4711C139.948 11.6663 140.183 11.7666 140.492 11.7666C140.862 11.7666 141.157 11.6838 141.393 11.5775L141.466 12.0797Z" fill="white"/>
<path d="M143.762 9.81678C143.272 9.81678 142.95 10.2007 142.856 10.5496C143.661 10.5554 144.179 10.4609 144.179 10.1125C144.179 9.92932 144.011 9.81678 143.762 9.81678ZM144.508 12.0797C144.186 12.2273 143.749 12.3101 143.353 12.3101C142.447 12.3101 142.01 11.82 142.01 11.1167C142.01 10.2482 142.735 9.30291 143.863 9.30291C144.508 9.30291 144.918 9.6277 144.918 10.1125C144.918 10.8508 144.038 11.087 142.775 11.0635C142.762 11.1638 142.789 11.3587 142.863 11.4711C142.99 11.6663 143.225 11.7666 143.534 11.7666C143.904 11.7666 144.199 11.6838 144.435 11.5775L144.508 12.0797Z" fill="white"/>
<path d="M144.965 12.2451L145.348 10.4725C145.435 10.0649 145.482 9.62176 145.515 9.36773H146.194C146.173 9.5626 146.154 9.76342 146.12 9.9705H146.14C146.362 9.58623 146.717 9.30261 147.161 9.30261C147.222 9.30261 147.282 9.30872 147.336 9.30872L147.181 9.98224C147.141 9.97614 147.087 9.97614 147.033 9.97614C146.475 9.97614 146.12 10.4725 145.992 11.0868L145.744 12.2451H144.965Z" fill="white"/>
<path d="M147.93 9.63111H147.987C148.046 9.63111 148.085 9.60231 148.085 9.5588C148.085 9.5098 148.044 9.48836 147.985 9.48836C147.958 9.48836 147.939 9.49008 147.93 9.49196V9.63111ZM147.874 9.45752C147.902 9.45299 147.943 9.4497 147.981 9.4497C148.041 9.4497 148.08 9.46034 148.106 9.481C148.128 9.49775 148.14 9.52389 148.14 9.55394C148.14 9.60341 148.105 9.6369 148.059 9.65021V9.65208C148.092 9.6621 148.112 9.68949 148.123 9.72894C148.137 9.78153 148.147 9.81863 148.156 9.8335H148.098C148.091 9.82191 148.081 9.78983 148.07 9.7424C148.057 9.68981 148.033 9.6704 147.983 9.66852H147.93V9.8335H147.874V9.45752Z" fill="white"/>
<path d="M148.002 9.30285C147.789 9.30285 147.615 9.45546 147.615 9.64329C147.615 9.83112 147.789 9.98389 148.002 9.98389C148.216 9.98389 148.389 9.83112 148.389 9.64329C148.389 9.45546 148.216 9.30285 148.002 9.30285ZM148.002 9.35544C148.183 9.35544 148.329 9.48395 148.329 9.64329C148.329 9.80247 148.183 9.93145 148.002 9.93145C147.821 9.93145 147.675 9.80247 147.675 9.64329C147.675 9.48395 147.821 9.35544 148.002 9.35544Z" fill="white"/>
<path d="M128.657 6.59827C128.69 7.24754 129.328 9.72517 129.328 9.72517C129.562 10.227 129.764 9.72517 129.764 9.72517C130.535 7.68972 128.959 6.51015 128.959 6.51015C128.556 6.30323 128.657 6.59827 128.657 6.59827ZM137.812 6.24453C137.812 6.24453 138.584 6.71645 137.812 6.80489C137.812 6.80489 134.928 7.09978 132.782 8.87023C132.782 8.87023 129.562 11.3474 128.355 14.0615C128.355 14.0615 127.952 14.0615 128.087 13.5307C128.221 12.9998 129.026 10.6692 132.614 7.80821C132.614 7.80821 136.069 5.03506 137.812 6.24453Z" fill="#FF4600"/>
<rect x="156" width="35" height="20" rx="3" fill="#0F3560"/>
<path d="M176.554 14.9153H170.43V5.08789H176.554V14.9153Z" fill="#FF5F00"/>
<path d="M170.822 10.001C170.822 8.00745 171.868 6.23166 173.496 5.08728C172.305 4.25045 170.803 3.75098 169.17 3.75098C165.304 3.75098 162.171 6.54915 162.171 10.001C162.171 13.4528 165.304 16.251 169.17 16.251C170.803 16.251 172.305 15.7515 173.496 14.9147C171.868 13.7703 170.822 11.9945 170.822 10.001Z" fill="#EB001B"/>
<path d="M184.815 10.001C184.815 13.4528 181.681 16.251 177.815 16.251C176.183 16.251 174.68 15.7515 173.489 14.9147C175.118 13.7703 176.163 11.9945 176.163 10.001C176.163 8.00745 175.118 6.23166 173.489 5.08728C174.68 4.25045 176.183 3.75098 177.815 3.75098C181.681 3.75098 184.815 6.54915 184.815 10.001Z" fill="#F79E1B"/>
<path d="M167.438 10.0403C167.438 9.76731 167.638 9.54304 167.966 9.54304C168.279 9.54304 168.49 9.75764 168.49 10.0403C168.49 10.323 168.279 10.5376 167.966 10.5376C167.638 10.5376 167.438 10.3133 167.438 10.0403ZM168.846 10.0403V9.26371H168.468V9.45228C168.348 9.31244 168.166 9.22466 167.919 9.22466C167.431 9.22466 167.048 9.5661 167.048 10.0403C167.048 10.5149 167.431 10.856 167.919 10.856C168.166 10.856 168.348 10.7682 168.468 10.6283V10.8169H168.846V10.0403ZM181.628 10.0403C181.628 9.76731 181.829 9.54304 182.156 9.54304C182.469 9.54304 182.68 9.75764 182.68 10.0403C182.68 10.323 182.469 10.5376 182.156 10.5376C181.829 10.5376 181.628 10.3133 181.628 10.0403ZM183.037 10.0403V8.63998H182.658V9.45228C182.538 9.31244 182.356 9.22466 182.109 9.22466C181.621 9.22466 181.239 9.5661 181.239 10.0403C181.239 10.5149 181.621 10.856 182.109 10.856C182.356 10.856 182.538 10.7682 182.658 10.6283V10.8169H183.037V10.0403ZM173.541 9.52704C173.785 9.52704 173.942 9.66354 173.982 9.90381H173.079C173.119 9.67954 173.272 9.52704 173.541 9.52704ZM173.549 9.22466C173.039 9.22466 172.683 9.55605 172.683 10.0403C172.683 10.5342 173.054 10.856 173.574 10.856C173.836 10.856 174.076 10.7976 174.288 10.6384L174.102 10.3881C173.956 10.4918 173.771 10.5506 173.596 10.5506C173.352 10.5506 173.13 10.4498 173.076 10.1701H174.368C174.371 10.1281 174.375 10.0857 174.375 10.0403C174.371 9.55605 174.036 9.22466 173.549 9.22466ZM178.116 10.0403C178.116 9.76731 178.317 9.54304 178.644 9.54304C178.957 9.54304 179.168 9.75764 179.168 10.0403C179.168 10.323 178.957 10.5376 178.644 10.5376C178.317 10.5376 178.116 10.3133 178.116 10.0403ZM179.525 10.0403V9.26371H179.146V9.45228C179.026 9.31244 178.844 9.22466 178.597 9.22466C178.109 9.22466 177.727 9.5661 177.727 10.0403C177.727 10.5149 178.109 10.856 178.597 10.856C178.844 10.856 179.026 10.7682 179.146 10.6283V10.8169H179.525V10.0403ZM175.98 10.0403C175.98 10.5115 176.347 10.856 176.908 10.856C177.17 10.856 177.345 10.8039 177.534 10.6707L177.352 10.3977C177.21 10.4889 177.061 10.5376 176.897 10.5376C176.595 10.5342 176.373 10.3393 176.373 10.0403C176.373 9.74128 176.595 9.54638 176.897 9.54304C177.061 9.54304 177.21 9.59176 177.352 9.68288L177.534 9.40988C177.345 9.27673 177.17 9.22466 176.908 9.22466C176.347 9.22466 175.98 9.56907 175.98 10.0403ZM180.857 9.22466C180.638 9.22466 180.496 9.31579 180.398 9.45228V9.26371H180.023V10.8169H180.402V9.94621C180.402 9.68921 180.526 9.54638 180.773 9.54638C180.85 9.54638 180.93 9.55605 181.01 9.58544L181.126 9.26706C181.043 9.23768 180.933 9.22466 180.857 9.22466ZM170.717 9.3872C170.535 9.28008 170.284 9.22466 170.008 9.22466C169.567 9.22466 169.283 9.41323 169.283 9.72194C169.283 9.97522 169.495 10.1314 169.884 10.1802L170.062 10.2028C170.27 10.2289 170.368 10.2776 170.368 10.3654C170.368 10.4855 170.229 10.5539 169.971 10.5539C169.709 10.5539 169.52 10.4792 169.392 10.3914L169.214 10.6544C169.422 10.7909 169.684 10.856 169.967 10.856C170.47 10.856 170.761 10.6447 170.761 10.349C170.761 10.076 170.532 9.93319 170.153 9.88447L169.975 9.86141C169.811 9.84207 169.68 9.81306 169.68 9.70892C169.68 9.59511 169.804 9.52704 170.011 9.52704C170.233 9.52704 170.448 9.6018 170.553 9.66019L170.717 9.3872ZM175.598 9.22466C175.379 9.22466 175.237 9.31579 175.139 9.45228V9.26371H174.765V10.8169H175.143V9.94621C175.143 9.68921 175.266 9.54638 175.514 9.54638C175.591 9.54638 175.671 9.55605 175.751 9.58544L175.867 9.26706C175.783 9.23768 175.674 9.22466 175.598 9.22466ZM172.37 9.26371H171.751V8.79248H171.369V9.26371H171.016V9.57242H171.369V10.2809C171.369 10.6414 171.525 10.856 171.973 10.856C172.137 10.856 172.326 10.8106 172.446 10.7358L172.337 10.4465C172.224 10.5049 172.1 10.5342 172.002 10.5342C171.813 10.5342 171.751 10.4301 171.751 10.2743V9.57242H172.37V9.26371ZM166.714 10.8169V9.84207C166.714 9.47497 166.452 9.22801 166.03 9.22466C165.808 9.22131 165.578 9.28306 165.418 9.50101C165.298 9.3288 165.109 9.22466 164.843 9.22466C164.657 9.22466 164.476 9.27339 164.334 9.45526V9.26371H163.955V10.8169H164.337V9.95588C164.337 9.68623 164.505 9.54304 164.763 9.54304C165.014 9.54304 165.141 9.68921 165.141 9.95253V10.8169H165.524V9.95588C165.524 9.68623 165.698 9.54304 165.95 9.54304C166.208 9.54304 166.332 9.68921 166.332 9.95253V10.8169H166.714Z" fill="white"/>
</svg>
