 <svg width="120" height="120" viewBox="0 0 120 120" fill="none" xmlns="http://www.w3.org/2000/svg">
            <g clip-path="url(#clip0_1_26111)">
            <rect width="120" height="120" fill="none"/>
            <path d="M99.6978 43.4725C103.17 44.9339 106.726 45.151 110.445 43.9762C110.856 46.2048 111.265 48.3042 111.626 50.4125C111.879 51.8902 111.848 51.9047 113.205 52.1771C114.121 52.3612 115.042 52.5186 115.961 52.6831C116.655 52.8074 116.983 53.1652 116.974 53.9907C116.938 57.5207 116.959 61.0514 116.959 64.5817C116.959 65.6065 116.843 65.7754 115.875 65.9688C114.81 66.1815 113.743 66.4023 112.669 66.5341C112.086 66.6058 111.873 66.8318 111.793 67.4606C110.847 74.8519 108.761 81.8369 105.152 88.2576C104.4 89.5949 103.559 90.877 102.728 92.1609C102.5 92.5136 102.494 92.7526 102.746 93.0774C103.389 93.9066 104.018 94.7496 104.632 95.6044C105.391 96.6619 105.375 97.258 104.535 98.2394C102.426 100.706 100.308 103.163 98.1827 105.614C97.3321 106.595 96.6152 106.676 95.5908 105.911C94.6814 105.233 93.7779 104.542 92.9054 103.812C92.4759 103.452 92.1697 103.455 91.7319 103.816C88.6649 106.342 85.3673 108.468 81.851 110.203C77.1745 112.511 72.2759 114.034 67.1952 114.898C66.7595 114.973 66.5371 115.137 66.4283 115.604C66.1486 116.805 65.8035 117.989 65.5235 119.19C65.3904 119.76 65.1079 119.98 64.5644 119.979C61.3352 119.971 58.1056 119.976 54.8763 119.999C54.2352 120.004 53.9902 119.624 53.8426 119.051C53.5482 117.908 53.2299 116.772 52.9398 115.628C52.8282 115.189 52.6225 114.978 52.1715 114.901C43.0641 113.347 34.7702 109.721 27.4173 103.731C27.0264 103.413 26.7605 103.405 26.3755 103.728C25.463 104.493 24.5234 105.221 23.5782 105.94C22.6351 106.657 21.9422 106.575 21.1861 105.677C19.1126 103.213 17.0419 100.746 14.9782 98.2725C14.2161 97.3593 14.1841 96.6552 14.8736 95.6734C15.5678 94.6846 16.2938 93.7206 16.9825 92.7775C15.8403 90.8095 14.6609 88.9302 13.625 86.9647C10.4431 80.9282 8.58606 74.4114 7.66764 67.5779C7.57695 66.9038 7.37402 66.6072 6.719 66.5315C5.64351 66.4068 4.58088 66.1607 3.51096 65.977C2.82571 65.8593 2.53069 65.464 2.53521 64.7046C2.55779 61.0937 2.5564 57.4821 2.54876 53.8712C2.54737 53.1493 2.85594 52.7811 3.50818 52.6686C4.65247 52.4711 5.78807 52.1998 6.93826 52.0639C7.59676 51.9864 7.72498 51.6371 7.82436 51.0343C8.21216 48.6787 8.65591 46.3332 9.10382 43.8459C12.7483 45.0471 16.2899 45.0103 19.9136 43.7602C16.536 54.1459 16.0001 64.4896 19.4281 74.8635C22.854 85.2302 29.1269 93.0874 37.8966 98.8051C52.2705 108.177 71.6747 107.863 85.9722 95.5387C101.876 81.8305 105.702 64.1051 99.6978 43.4725Z" fill="white"/>
            <path d="M78.5451 86.3606C78.5451 87.8297 78.5607 89.2811 78.5375 90.732C78.5281 91.3255 78.8943 91.2647 79.2429 91.3007C80.8476 91.4662 82.453 91.624 84.0546 91.8174C84.4316 91.863 84.7951 92.036 85.1648 92.1503C85.1637 92.2487 85.1624 92.3474 85.1613 92.4458C84.3169 92.605 83.4777 92.8552 82.6274 92.909C77.5447 93.2293 72.4612 93.6933 67.3747 93.7508C59.7101 93.8373 52.0413 93.6903 44.3767 93.5155C41.5109 93.4502 38.6511 93.0374 35.7909 92.7587C35.3489 92.7156 34.9176 92.5412 34.4749 92.3314C35.4858 91.5835 36.6607 91.5991 37.7987 91.4863C38.9725 91.3697 40.1505 91.3022 41.3657 91.2101C41.3657 89.5383 41.3657 87.937 41.3657 86.3684C40.219 86.3684 39.1167 86.3647 38.0141 86.371C37.7118 86.3728 37.4102 86.4129 37.1079 86.4218C35.3412 86.4723 34.19 85.4018 34.1681 83.5233C34.1261 79.8864 34.0764 76.2455 34.1956 72.6124C34.2675 70.4165 35.2516 68.6266 37.1861 67.6307C38.1055 67.1575 39.0848 66.8164 40.1453 66.3694C39.5083 66.205 38.9426 66.0573 38.3766 65.9136C36.7885 65.5109 36.432 64.9745 36.5526 63.2404C36.5953 62.6283 36.8511 62.1725 37.4001 62.0567C38.5079 61.8228 39.6255 61.6105 40.7485 61.5029C41.4314 61.4375 41.9064 61.9279 42.0138 62.6431C42.1159 63.3232 42.0906 64.0251 42.1225 64.7459C42.1816 64.6653 42.2737 64.574 42.3279 64.4619C43.5319 61.9761 44.7193 59.4807 45.9501 57.0097C46.0867 56.7354 46.4425 56.4767 46.7337 56.4162C51.5267 55.4196 56.3759 55.0636 61.2491 55.1608C65.2317 55.2403 69.2056 55.522 73.1194 56.3798C73.4485 56.4518 73.8338 56.7714 73.9954 57.0899C75.2401 59.5471 76.4358 62.0322 77.7063 64.6305C77.7636 63.9575 77.7719 63.3874 77.8685 62.835C78.0388 61.8625 78.4659 61.4669 79.3839 61.5274C80.3093 61.5882 81.2434 61.6955 82.1444 61.9175C83.0326 62.1365 83.3043 62.6376 83.3179 63.6323C83.3349 64.8847 83.1097 65.3108 82.2014 65.6512C81.7743 65.8112 81.3323 65.9285 80.8938 66.0506C80.4671 66.1694 80.0355 66.27 79.5149 66.4014C80.5334 66.7863 81.4612 67.0431 82.3102 67.4763C84.433 68.5594 85.5748 70.415 85.619 72.9234C85.6791 76.3442 85.6548 79.7669 85.6422 83.1888C85.6346 85.3087 84.4705 86.4939 82.4971 86.427C81.2625 86.3851 80.0285 86.3135 78.7939 86.2593C78.7484 86.257 78.7011 86.2953 78.5451 86.3606ZM74.8068 64.0778C74.8561 63.9983 74.9055 63.9189 74.9548 63.8398C74.1733 62.3759 73.3786 60.9201 72.618 59.4439C72.3483 58.9206 71.9984 58.6741 71.4327 58.6199C68.7003 58.3575 65.9764 57.9659 63.2402 57.7884C58.1689 57.4603 53.1203 57.7866 48.1122 58.7272C47.8846 58.7699 47.5802 58.8816 47.4777 59.0664C46.584 60.6766 45.7284 62.3106 44.7471 64.1524C54.8977 62.4193 64.8515 62.2983 74.8068 64.0778ZM69.6751 85.9668C63.2044 85.9668 56.7918 85.9668 50.382 85.9668C50.382 87.5532 50.382 89.0695 50.382 90.5913C56.8405 90.5913 63.2333 90.5913 69.6751 90.5913C69.6751 89.0353 69.6751 87.5395 69.6751 85.9668ZM59.8737 80.2405C59.8737 80.2443 59.8737 80.2483 59.8737 80.2521C55.7132 80.2521 51.5527 80.2521 47.3922 80.2524C47.2411 80.2524 47.0896 80.2602 46.9384 80.2584C46.445 80.2524 46.0923 80.5753 46.1687 81.0274C46.2243 81.3552 46.625 81.6406 46.9151 81.8864C47.0249 81.9792 47.257 81.9101 47.4336 81.9101C55.7042 81.9112 63.9745 81.912 72.2451 81.9109C72.4713 81.9109 72.7497 81.9725 72.9112 81.8574C73.1753 81.6692 73.5628 81.33 73.5343 81.1076C73.4954 80.8033 73.1385 80.5186 72.8716 80.2866C72.7608 80.1904 72.53 80.242 72.3542 80.242C68.1944 80.2402 64.0339 80.2405 59.8737 80.2405ZM40.4452 69.9339C38.5712 69.9321 37.0141 71.5768 37.0148 73.5574C37.0155 75.531 38.6473 77.2347 40.5234 77.2202C42.3804 77.2061 43.9079 75.5863 43.9051 73.6342C43.9024 71.6172 42.33 69.9361 40.4452 69.9339ZM79.2689 69.9283C77.3709 69.9417 75.8795 71.5471 75.8778 73.5793C75.876 75.5733 77.488 77.254 79.376 77.2265C81.25 77.1991 82.7445 75.5529 82.7376 73.524C82.7313 71.5842 81.121 69.9154 79.2689 69.9283ZM69.8314 77.1003C69.3891 75.9341 68.938 75.5926 67.8104 75.5904C64.4585 75.5841 61.1063 75.5919 57.7544 75.5937C55.7633 75.5948 53.7721 75.58 51.7814 75.6011C50.7702 75.6119 50.1016 76.1883 49.9633 77.1003C56.566 77.1003 63.1662 77.1003 69.8314 77.1003ZM71.8483 66.1968C64.0527 64.6791 56.2511 64.688 48.4444 65.9689C48.4444 66.045 48.4444 66.1211 48.4441 66.1968C56.2456 66.1968 64.0471 66.1968 71.8483 66.1968ZM59.9561 68.8605C59.9561 68.8575 59.9561 68.8545 59.9561 68.8515C61.1396 68.8515 62.3235 68.8523 63.5071 68.8512C64.0092 68.8508 64.4755 68.6634 64.4957 68.0921C64.5179 67.4604 63.9988 67.4726 63.554 67.4737C61.1115 67.4797 58.6683 67.4652 56.2261 67.5019C55.9311 67.5064 55.6396 67.7762 55.3463 67.9228C55.5989 68.2272 55.8296 68.5587 56.1153 68.8215C56.2202 68.918 56.4555 68.8593 56.6313 68.8597C57.7398 68.8616 58.8479 68.8605 59.9561 68.8605ZM79.2783 79.506C78.4485 79.5067 77.781 80.1975 77.773 81.0631C77.7653 81.9045 78.4544 82.6833 79.2293 82.7078C80.0181 82.733 80.7694 81.9847 80.7732 81.1704C80.7777 80.2431 80.1147 79.5052 79.2783 79.506ZM41.9849 81.1518C41.9887 80.2353 41.3108 79.5045 40.4553 79.5019C39.6539 79.4997 39.0135 80.1652 38.9913 81.0234C38.9683 81.9046 39.6821 82.6881 40.5116 82.6926C41.2677 82.6967 41.9818 81.9502 41.9849 81.1518Z" fill="white"/>
            <path d="M0 25.1235C1.00877 25.6743 1.91989 26.1598 2.82093 26.6661C5.54317 28.1958 8.25881 29.7392 10.9821 31.2662C12.2859 31.9974 12.5986 31.8991 13.3541 30.571C14.1397 29.1898 14.9178 27.8038 15.6996 26.4204C15.7257 26.3744 15.7677 26.3347 15.7816 26.2853C16.1524 24.9717 15.3966 23.8611 15.1645 22.66C15.1065 22.3597 14.6342 22.0702 14.2965 21.9247C10.8605 20.4455 7.41267 18.9971 3.72719 17.4382C4.95279 16.5674 5.97719 15.6858 7.12217 15.0533C12.044 12.3344 16.994 12.1054 21.7891 15.3458C25.5969 17.9192 27.5133 21.8074 28.0786 26.5184C28.2128 27.6375 28.3594 28.7566 28.5547 29.865C28.6913 30.64 29.1326 31.1857 29.7942 31.5954C38.6059 37.0537 47.4071 42.5305 56.2104 48.0047C56.7963 48.3688 57.3745 48.747 58.0157 49.1568C57.4336 49.5763 56.9402 49.9857 56.3963 50.2938C56.2143 50.397 55.8612 50.3179 55.6579 50.1913C51.7824 47.7742 47.9426 45.2902 44.0427 42.9191C40.6498 40.8565 37.1916 38.9163 33.7612 36.9241C33.6781 36.8759 33.5812 36.854 33.4522 36.8911C40.4226 42.3067 47.9607 46.772 55.2034 51.7169C54.1387 52.9529 52.681 52.6912 51.3668 52.9514C49.5591 53.3089 47.756 53.6938 45.9424 54.0126C45.5647 54.0791 45.0758 54.0379 44.7648 53.83C40.0188 50.6598 35.2936 47.4542 30.5646 44.2554C28.8605 43.1025 27.1529 41.9548 25.4579 40.7867C23.6874 39.5666 21.7929 39.6727 19.922 40.3149C17.2821 41.2206 14.6276 41.6363 11.8765 41.1163C7.68406 40.3242 4.60599 37.8035 2.37718 34.0308C0.808263 31.3757 0.100077 28.4319 0 25.1235ZM7.34665 37.3859C11.7386 41.048 19.7795 41.1022 23.8333 34.9858C27.294 29.764 26.3043 23.4354 23.0039 20.2933C25.1427 25.4379 25.3696 30.5561 21.5072 34.8934C17.5128 39.3788 12.5854 39.669 7.34665 37.3859ZM21.7293 23.3916C21.6733 24.5133 21.7248 25.5775 21.5503 26.5975C20.897 30.4184 19.5755 33.7108 15.5665 34.7754C15.2649 34.8555 14.9553 35.3867 14.8636 35.7672C14.727 36.3347 15.014 36.8948 15.5471 37.04C15.905 37.1376 16.3776 36.9999 16.7292 36.8154C17.1504 36.5945 17.4656 36.1495 17.8815 35.9093C21.852 33.6162 23.8611 28.7507 22.7815 24.0359C22.6293 23.3719 22.2759 23.2475 21.7293 23.3916Z" fill="white"/>
            <path d="M115.733 17.551C112.37 19.0142 109.065 20.477 105.738 21.8775C105.073 22.1574 104.823 22.6228 104.544 23.2705C103.738 25.1428 103.995 26.7452 105.226 28.3012C105.804 29.0335 106.191 29.9388 106.67 30.7614C107.338 31.908 107.78 32.0509 108.916 31.4199C111.711 29.8679 114.497 28.2967 117.288 26.7352C118.108 26.276 118.932 25.8217 119.753 25.3655C119.835 25.4008 119.918 25.436 120 25.4709C119.733 26.9787 119.576 28.5202 119.178 29.9875C118.011 34.2917 115.711 37.7192 111.855 39.6753C106.502 42.3909 100.687 40.8609 96.9754 35.9037C93.2736 30.9603 92.62 24.3915 95.3523 19.2614C97.3271 15.5537 100.429 13.6847 104.313 13.2022C108.442 12.6892 111.993 14.1866 115.17 16.8999C115.327 17.0343 115.475 17.1809 115.622 17.3275C115.657 17.3621 115.67 17.4203 115.733 17.551ZM96.1425 24.7427C96.8159 18.8074 101.262 15.3373 106.531 14.563C106.234 14.4679 106.051 14.3867 105.859 14.3518C103.573 13.9334 101.443 14.3811 99.5066 15.7459C96.7597 17.6824 95.091 20.2643 95.2866 23.9439C95.3176 24.5333 95.4778 24.8763 96.1425 24.7427Z" fill="white"/>
            <path d="M52.0425 14.8387C53.2187 14.3587 54.3835 13.8439 55.5782 13.426C55.8583 13.328 56.3875 13.4349 56.5488 13.6568C57.4196 14.8576 58.5117 15.2221 59.8579 14.8873C59.9062 14.8754 59.9601 14.8728 60.0087 14.8821C61.3573 15.1445 62.4561 14.7849 63.2393 13.498C63.3387 13.3346 63.7408 13.2426 63.9434 13.3127C65.0449 13.6936 66.1409 14.1034 67.208 14.5818C67.4499 14.6902 67.7512 15.1419 67.715 15.3828C67.4923 16.8657 68.0479 17.8894 69.1491 18.722C69.5925 19.0572 69.9838 19.5237 70.2844 20.0111C70.815 20.8719 71.5301 21.1406 72.4541 21.1421C73.7273 21.144 73.7322 21.1859 74.1252 22.4635C74.3844 23.3061 74.6016 24.165 74.8879 24.9968C75.0554 25.4834 74.9647 25.8561 74.5995 26.1315C73.4163 27.0231 72.9805 28.2254 73.2234 29.732C73.2276 29.758 73.2269 29.7873 73.2203 29.8126C72.8784 31.0571 73.344 31.9773 74.2444 32.7226C74.6516 33.0597 74.7635 33.4539 74.5588 33.9876C74.3399 34.5589 74.2065 35.1665 74.0032 35.7452C73.3225 37.6809 73.7631 37.2555 71.9124 37.3617C70.9418 37.4173 70.1631 37.5903 69.5748 38.4552C69.3858 38.7328 69.1227 38.9689 68.8572 39.169C67.887 39.9006 67.2879 40.7736 67.6129 42.1418C67.6598 42.3392 67.4085 42.7575 67.2021 42.8596C66.1068 43.4034 64.9924 43.9097 63.8579 44.3507C63.639 44.4357 63.1653 44.2642 63.0402 44.0541C62.2865 42.788 61.251 42.576 59.9055 42.5972C58.7018 42.6165 57.8122 42.9005 57.1589 43.9479C56.8156 44.4988 56.4174 44.5518 55.8757 44.295C55.025 43.8919 54.1525 43.5411 53.2869 43.1755C52.8004 42.9699 52.5655 42.6261 52.6808 42.0497C52.8678 41.1162 52.6311 40.4232 51.8177 39.8876C51.2492 39.5134 50.7311 38.9837 50.3242 38.4147C49.7331 37.5881 49.0238 37.4225 48.0985 37.45C46.2331 37.5061 46.5646 37.7599 45.8954 35.8265C45.8603 35.7255 45.8356 35.6193 45.7908 35.5236C45.1622 34.178 45.166 33.001 46.4274 32.0066C46.6818 31.8062 46.7387 31.2253 46.7648 30.811C46.802 30.2246 46.6404 29.6169 46.7165 29.0416C46.8583 27.9711 46.5056 27.1783 45.7665 26.5083C45.2181 26.0113 45.0246 25.4293 45.3005 24.6483C45.6108 23.7701 45.8276 22.8533 46.0639 21.9472C46.2057 21.4038 46.5174 21.095 47.0386 21.1558C48.3942 21.3147 49.315 20.6681 50.0521 19.5067C50.3853 18.9814 50.8537 18.5305 51.3263 18.1351C51.949 17.6144 52.1745 17.0001 52.0536 16.1757C51.9918 15.7577 52.0425 15.3212 52.0425 14.8387ZM69.5706 28.777C69.5334 23.1483 65.2117 18.5924 59.9173 18.6014C54.632 18.6099 50.3429 23.2404 50.3919 28.885C50.4399 34.4212 54.7651 38.9373 60.0045 38.9217C65.2961 38.9058 69.6071 34.3339 69.5706 28.777Z" fill="white"/>
            <path d="M91.5184 29.3817C92.22 33.5349 94.0554 36.9624 97.0605 39.7325C93.7604 40.629 91.338 42.9934 88.6234 44.784C84.1613 47.7274 79.7788 50.8079 75.3389 53.7903C74.9886 54.0257 74.4246 54.0873 74.0083 53.9904C70.5737 53.1924 67.1127 52.6616 63.5506 52.5847C71.2844 47.4142 79.1926 42.5524 86.5913 36.808C86.3734 36.9056 86.1444 36.9817 85.9391 37.1035C81.9954 39.443 78.0361 41.7536 74.1174 44.1403C69.6935 46.8348 65.3127 49.6093 60.8944 52.3145C60.4861 52.5643 59.9475 52.63 59.4624 52.6642C58.6739 52.7199 57.8796 52.6794 57.088 52.6794C57.0703 52.6085 57.0529 52.538 57.0352 52.4671C58.4133 51.5484 59.7703 50.5911 61.1731 49.7174C70.842 43.6942 80.5234 37.6936 90.1858 31.6589C90.5868 31.4084 90.887 30.9225 91.1504 30.4882C91.3439 30.169 91.4006 29.7544 91.5184 29.3817Z" fill="white"/>
            <path d="M41.2767 5.46866C44.1351 5.52953 46.479 6.28637 48.1167 8.68458C49.9542 11.3749 49.4792 14.9858 46.7403 17.2062C45.0605 18.5681 44.1296 20.1567 43.9061 22.3538C43.7814 23.5801 43.4558 24.7817 43.249 26.0003C42.7504 28.9385 40.3617 30.7603 37.5849 30.3015C35.3318 29.9292 33.4852 28.1487 32.9765 25.8574C32.4327 23.4083 33.2646 21.1463 35.2585 19.6545C36.2457 18.9159 36.2388 17.2407 35.3433 16.3736C34.5659 15.6212 33.8074 14.8032 33.2152 13.8856C32.2058 12.3218 32.3886 10.4844 33.5231 9.02199C35.1462 6.93 37.3073 5.96159 39.7616 5.61342C40.3357 5.53176 40.916 5.50206 41.2767 5.46866ZM41.1057 9.71165C41.1057 10.0954 41.0501 10.3768 41.1158 10.621C41.349 11.4874 41.482 12.4346 41.914 13.1785C42.699 14.5307 44.6755 14.8796 45.8149 14.0289C46.9474 13.1829 47.1559 11.4948 46.2309 10.0654C45.8952 9.54647 45.4518 9.04834 44.9549 8.71614C42.6232 7.15754 40.1654 7.30119 37.6878 8.27072C36.653 8.67568 35.7307 9.28664 35.1091 10.294C34.5993 11.1203 34.4905 12.0063 35.0052 12.8782C35.4812 13.6848 36.1442 14.1807 37.0898 14.0248C38.0346 13.8689 38.7528 13.3504 39.035 12.3493C39.2133 11.7168 39.2595 11.0416 39.3762 10.3178C39.8818 10.1407 40.4479 9.94215 41.1057 9.71165ZM38.1319 21.5802C36.6252 21.562 35.3811 22.8545 35.354 24.4665C35.3276 26.0322 36.5842 27.4033 38.0752 27.436C39.5976 27.4698 40.8315 26.1795 40.8354 24.5508C40.8395 22.9261 39.6306 21.598 38.1319 21.5802ZM38.3459 17.7385C38.3463 19.0699 39.2904 20.1096 40.523 20.1359C41.8268 20.1638 42.8011 19.1479 42.7938 17.7685C42.7865 16.4482 41.7635 15.3562 40.5247 15.3469C39.3276 15.3377 38.3452 16.4156 38.3459 17.7385Z" fill="white"/>
            <path d="M77.4336 5.50438C80.6548 5.46467 83.1192 6.18699 85.2132 8.12642C87.524 10.2667 87.5907 13.2873 85.3473 15.4922C85.1618 15.6744 84.9908 15.9008 84.7709 16.0114C83.6234 16.5872 83.7617 17.6305 83.9678 18.6365C84.037 18.9739 84.3674 19.2986 84.6499 19.5303C86.2032 20.8034 87.1751 22.4281 87.1049 24.5527C87.0268 26.9172 85.9944 28.7337 83.9428 29.7467C81.8537 30.7778 79.8302 30.5366 78.0615 28.9757C77.5462 28.521 77.1768 27.7186 77.0089 27.0037C76.5315 24.9685 76.1632 22.9021 75.8098 20.8365C75.595 19.5811 74.9737 18.6732 74.0164 17.9706C73.6428 17.6966 73.2766 17.4052 72.9343 17.0883C69.1477 13.5787 70.1648 7.85434 74.9101 6.11052C75.8754 5.75567 76.9141 5.62539 77.4336 5.50438ZM78.0493 9.90661C78.4969 10.0514 78.8479 10.218 79.2131 10.2704C79.7263 10.3439 79.809 10.6148 79.8493 11.1308C79.8983 11.7532 80.0575 12.4147 80.3403 12.9574C80.9957 14.2146 82.607 14.6693 83.6874 13.9978C84.7952 13.3092 85.1979 11.9303 84.5728 10.7247C84.3104 10.2184 83.9508 9.73104 83.5373 9.35949C81.2706 7.32095 77.5038 6.97798 74.9379 8.55216C73.9128 9.18095 73.1845 10.0829 72.9388 11.3509C72.617 13.0101 73.5313 14.3912 74.9772 14.4603C76.5715 14.5364 77.9315 13.2632 78.0441 11.5647C78.0778 11.058 78.0493 10.5473 78.0493 9.90661ZM81.8846 27.432C83.3924 27.4223 84.6141 26.0965 84.5957 24.4896C84.578 22.9288 83.2871 21.5989 81.7984 21.6081C80.3369 21.6171 79.1241 22.937 79.1328 24.51C79.1419 26.0995 80.4057 27.4416 81.8846 27.432ZM79.3159 20.1787C80.6771 20.1732 81.5451 19.2433 81.5375 17.7994C81.5308 16.55 80.5402 15.4951 79.3635 15.4844C78.1352 15.4729 77.1393 16.5122 77.1281 17.8169C77.1163 19.1398 78.0837 20.1839 79.3159 20.1787Z" fill="white"/>
            <path d="M70.7925 6.01763C70.0541 7.7956 69.3671 9.44958 68.6422 11.1949C62.8607 9.44068 56.8939 9.43956 51.0213 11.1585C50.2902 9.43993 49.5799 7.77036 48.8203 5.98534C49.8982 5.71957 51.1026 5.38625 52.3223 5.1409C52.797 5.0455 53.0048 4.84432 53.1163 4.3551C53.3839 3.17994 53.7092 2.01962 54.0038 0.85114C54.155 0.250938 54.4639 -0.00109479 55.0897 0.00521531C58.189 0.0367658 61.289 0.0297134 64.3882 1.87549e-05C65.0662 -0.00666253 65.422 0.289912 65.5732 0.959526C65.8213 2.05637 66.1184 3.14282 66.3116 4.25043C66.4158 4.84915 66.7095 5.01618 67.206 5.12642C68.4587 5.40444 69.6996 5.74221 70.7925 6.01763Z" fill="white"/>
            <path d="M34.2171 60.5195C33.6097 60.0113 32.9953 59.5128 32.3963 58.9932C32.037 58.6817 31.8111 58.7059 31.5873 59.1776C30.8496 60.7351 30.7686 60.3446 32.0119 61.391C32.243 61.5855 32.4682 61.7874 32.6447 62.1378C31.8712 61.9905 31.0883 61.8824 30.3301 61.6731C30.0848 61.6055 29.8665 61.3004 29.7046 61.0528C29.5819 60.865 29.5145 60.5956 29.5156 60.3632C29.5215 59.0455 28.7688 58.2864 27.832 57.6365C27.4098 57.3436 27.0077 57.0159 26.6123 56.6825C25.6574 55.8778 24.7192 55.2297 23.3612 55.3199C22.0897 55.4042 20.8714 53.9952 20.6831 52.6125C20.6629 52.4633 20.6844 52.2803 20.7501 52.1497C21.1796 51.2967 21.6018 50.4378 22.0768 49.6137C22.3937 49.064 24.1076 48.7311 24.8085 49.0451C26.1738 49.6561 27.0769 50.6111 27.0053 52.3416C26.9945 52.6018 27.1922 52.957 27.3966 53.1281C28.8842 54.373 30.3972 55.5842 31.907 56.7987C32.0238 56.8926 32.1742 56.9609 32.3184 56.9903C32.865 57.1027 33.4651 56.9624 33.8269 57.6665C34.2988 58.5841 34.6894 59.4735 34.2171 60.5195ZM23.1374 50.0128C22.8914 50.5343 22.7235 51.0896 22.4056 51.5179C21.9083 52.1883 22.1338 52.6604 22.5925 53.1719C22.996 53.6221 24.216 53.9299 24.4988 53.4792C24.8964 52.846 25.0559 52.0413 25.3002 51.303C25.3134 51.2625 25.1806 51.1408 25.0976 51.0944C24.4613 50.7366 23.8202 50.388 23.1374 50.0128Z" fill="white"/>
            <path d="M87.1706 61.9903C87.7005 61.504 88.2301 61.0174 88.7479 60.5423C88.7479 60.4903 88.7555 60.461 88.7468 60.4395C87.9285 58.4544 87.9094 58.4481 86.3922 59.7264C86.0826 59.9874 85.782 60.2598 85.4745 60.5297C85.1062 59.3831 85.4019 57.914 86.1487 57.2325C86.2543 57.136 86.4253 57.0614 86.5597 57.0714C87.4128 57.1352 88.0248 56.6542 88.6492 56.126C89.8539 55.1063 91.1035 54.1472 92.3055 53.1235C92.5265 52.9353 92.6356 52.5726 92.7496 52.2705C93.0158 51.5638 93.1329 50.7546 93.5283 50.1496C94.364 48.8697 95.9479 48.5238 97.2617 49.2034C97.4494 49.3003 97.6026 49.5167 97.7215 49.7123C97.9675 50.1184 98.1993 50.5374 98.4001 50.971C98.6416 51.4921 99.1219 52.1202 99.0055 52.5481C98.774 53.3967 98.348 54.3287 97.7288 54.8673C97.2211 55.309 96.3194 55.3313 95.5879 55.3502C94.9965 55.3658 94.5228 55.4868 94.0687 55.8791C93.4814 56.3869 92.8736 56.8702 92.2502 57.3264C91.1233 58.1511 90.1788 59.0761 90.1212 60.6863C90.0996 61.2921 89.7052 61.6328 89.1433 61.7457C88.505 61.8741 87.8694 62.0189 87.2325 62.1569C87.2116 62.1013 87.1911 62.046 87.1706 61.9903ZM94.4057 51.1098C94.5155 51.6013 94.5927 52.0745 94.7285 52.5281C95.0441 53.5804 95.4878 53.8436 96.4966 53.6253C97.0901 53.4969 97.898 52.4242 97.6777 52.0021C97.3288 51.3347 96.9181 50.7041 96.5386 50.0672C95.8002 50.4279 95.1222 50.7594 94.4057 51.1098Z" fill="white"/>
            <path d="M93.063 17.2168C92.3893 18.7921 91.7662 20.249 91.1233 21.7512C89.8293 20.4268 88.5648 19.1254 87.2916 17.8334C86.9118 17.4481 86.9514 17.0405 87.1609 16.5918C87.6405 15.5628 88.1127 14.5295 88.6468 13.371C90.1347 14.6668 91.6265 15.9659 93.063 17.2168Z" fill="white"/>
            <path d="M33.134 17.4411C31.8983 18.6672 30.6303 19.9247 29.3432 21.2016C28.5888 19.6705 27.8452 18.1601 27.0352 16.5162C28.266 15.4457 29.5559 14.3239 30.7794 13.2598C31.5904 14.6996 32.3351 16.0225 33.134 17.4411Z" fill="white"/>
            </g>
            <defs>
            <clipPath id="clip0_1_26111">
            <rect width="120" height="120" fill="white"/>
            </clipPath>
            </defs>
            </svg>   