<svg width="68" height="68" viewBox="0 0 68 68" fill="none" xmlns="http://www.w3.org/2000/svg">
<rect width="68" height="68" fill="#EF0F3A"/>
<path d="M36.3008 44.1752L41.4563 34.4999L44.6343 33.6524C44.3047 34.3116 43.9045 34.8766 43.4337 35.3474C42.9629 35.8182 42.4214 36.0536 41.8094 36.0536C40.444 36.0536 39.1963 35.4886 38.0664 34.3587C36.9364 33.2287 36.3714 31.7927 36.3714 30.0507C36.3714 28.2145 36.9835 26.6608 38.2076 25.3895C39.4788 24.0713 41.0325 23.4121 42.8687 23.4121C44.6107 23.4121 46.1174 24.0713 47.3886 25.3895C48.7069 26.6608 49.366 28.2145 49.366 30.0507C49.366 30.804 49.2248 31.6985 48.9423 32.7343C48.6598 33.723 48.0948 34.9943 47.2473 36.548L41.5269 47.0001L36.3008 44.1752Z" fill="white"/>
<path d="M32.1359 24.8955L26.9804 34.5003L23.7317 35.4184C24.1084 34.7121 24.5321 34.1471 25.0029 33.7234C25.4738 33.2526 26.0152 33.0172 26.6273 33.0172C27.9926 33.0172 29.2168 33.5822 30.2997 34.7121C31.4296 35.795 31.9946 37.2075 31.9946 38.9495C31.9946 40.7857 31.359 42.3629 30.0878 43.6812C28.8637 44.9995 27.3335 45.6587 25.4973 45.6587C23.7553 45.6587 22.2251 45.0231 20.9068 43.7518C19.6356 42.4336 19 40.8328 19 38.9495C19 38.1962 19.1412 37.3252 19.4237 36.3364C19.7533 35.3477 20.3418 34.053 21.1893 32.4522L26.8391 22L32.1359 24.8955Z" fill="white"/>
</svg>
