<svg width="45" height="45" viewBox="0 0 45 45" fill="none" xmlns="http://www.w3.org/2000/svg">
<g clip-path="url(#clip0_1_24652)">
<path d="M21.0011 44.9997C32.3006 44.9862 41.5676 36.0417 41.9823 24.7497H42.7406C43.0492 24.7498 43.3545 24.6867 43.6378 24.5642C43.9211 24.4417 44.1763 24.2626 44.3877 24.0377C44.5991 23.8128 44.7621 23.547 44.8669 23.2567C44.9716 22.9664 45.0157 22.6577 44.9966 22.3497C44.1513 10.376 34.6241 0.849464 22.6511 0.00421368C22.3431 -0.0146088 22.0346 0.0297644 21.7444 0.134604C21.4542 0.239444 21.1886 0.402534 20.9638 0.613844C20.739 0.825155 20.5598 1.08022 20.4372 1.36335C20.3147 1.64648 20.2513 1.95169 20.2511 2.26021V3.01846C8.85856 3.49546 -0.070942 12.9747 0.132308 24.3755C0.335558 35.7762 9.59956 44.93 21.0011 44.9997ZM21.7511 2.26021C21.7515 2.05903 21.8314 1.86616 21.9734 1.72369C22.1155 1.58122 22.3081 1.5007 22.5093 1.49971H22.5543C33.7698 2.30746 42.6918 11.2272 43.5011 22.4427C43.5082 22.5461 43.4939 22.6499 43.4589 22.7474C43.424 22.845 43.3692 22.9343 43.298 23.0096C43.2268 23.0849 43.1408 23.1447 43.0454 23.1851C42.95 23.2255 42.8472 23.2457 42.7436 23.2445H37.3143C36.958 23.2423 36.6141 23.1133 36.3442 22.8806C36.0743 22.648 35.896 22.3268 35.8413 21.9747C35.3695 18.7418 33.8679 15.7471 31.5594 13.4351C29.2508 11.1232 26.2583 9.61721 23.0261 9.14071C22.6716 9.08881 22.3476 8.91101 22.1135 8.63983C21.8794 8.36865 21.7507 8.02223 21.7511 7.66396V2.26021ZM20.2511 4.51846V7.66396C20.2526 8.38369 20.5127 9.07889 20.9842 9.62274C21.4556 10.1666 22.1068 10.5228 22.8191 10.6265C25.7308 11.0574 28.4259 12.4157 30.5046 14.4997C32.5832 16.5837 33.9344 19.2824 34.3578 22.1952C34.466 22.9022 34.8229 23.5475 35.3643 24.0149C35.9057 24.4824 36.5961 24.7413 37.3113 24.7452H40.4823C40.0803 35.3142 31.3263 43.6362 20.7506 43.5027C10.1756 43.3692 1.63306 34.8297 1.49806 24.254C1.36306 13.6797 9.68206 4.92271 20.2511 4.51846Z" fill="#EF0F3A"/>
<path d="M21 26.25C21.5967 26.25 22.169 26.0129 22.591 25.591C23.0129 25.169 23.25 24.5967 23.25 24C23.25 23.4033 23.0129 22.831 22.591 22.409C22.169 21.9871 21.5967 21.75 21 21.75C20.4033 21.75 19.831 21.9871 19.409 22.409C18.9871 22.831 18.75 23.4033 18.75 24C18.75 24.5967 18.9871 25.169 19.409 25.591C19.831 26.0129 20.4033 26.25 21 26.25ZM21 23.25C21.1989 23.25 21.3897 23.329 21.5303 23.4697C21.671 23.6103 21.75 23.8011 21.75 24C21.75 24.1989 21.671 24.3897 21.5303 24.5303C21.3897 24.671 21.1989 24.75 21 24.75C20.8011 24.75 20.6103 24.671 20.4697 24.5303C20.329 24.3897 20.25 24.1989 20.25 24C20.25 23.8011 20.329 23.6103 20.4697 23.4697C20.6103 23.329 20.8011 23.25 21 23.25Z" fill="#EF0F3A"/>
<path d="M21 29.25C22.0384 29.25 23.0534 28.9421 23.9167 28.3652C24.7801 27.7883 25.453 26.9684 25.8504 26.0091C26.2477 25.0498 26.3517 23.9942 26.1491 22.9758C25.9466 21.9574 25.4465 21.0219 24.7123 20.2877C23.9781 19.5535 23.0426 19.0535 22.0242 18.8509C21.0058 18.6483 19.9502 18.7523 18.9909 19.1496C18.0316 19.547 17.2117 20.2199 16.6348 21.0833C16.0579 21.9466 15.75 22.9617 15.75 24C15.7516 25.3919 16.3052 26.7263 17.2894 27.7106C18.2737 28.6948 19.6081 29.2484 21 29.25ZM21 20.25C21.9946 20.25 22.9484 20.6451 23.6517 21.3484C24.3549 22.0516 24.75 23.0054 24.75 24C24.75 24.9946 24.3549 25.9484 23.6517 26.6517C22.9484 27.3549 21.9946 27.75 21 27.75C20.0054 27.75 19.0516 27.3549 18.3483 26.6517C17.6451 25.9484 17.25 24.9946 17.25 24C17.25 23.0054 17.6451 22.0516 18.3483 21.3484C19.0516 20.6451 20.0054 20.25 21 20.25Z" fill="#EF0F3A"/>
<path d="M21 35.25C27.213 35.25 32.25 30.213 32.25 24C32.25 17.787 27.213 12.75 21 12.75C14.787 12.75 9.75 17.787 9.75 24C9.7575 30.21 14.79 35.2425 21 35.25ZM21 14.25C26.385 14.25 30.75 18.615 30.75 24C30.75 29.385 26.385 33.75 21 33.75C15.615 33.75 11.25 29.385 11.25 24C11.256 18.618 15.618 14.256 21 14.25Z" fill="#EF0F3A"/>
<path d="M13.5 24.75C13.9142 24.75 14.25 24.4142 14.25 24C14.25 23.5858 13.9142 23.25 13.5 23.25C13.0858 23.25 12.75 23.5858 12.75 24C12.75 24.4142 13.0858 24.75 13.5 24.75Z" fill="#EF0F3A"/>
<path d="M18.9153 30.42C18.8213 30.3884 18.722 30.3756 18.623 30.3826C18.5241 30.3896 18.4275 30.4161 18.3389 30.4607C18.2503 30.5052 18.1714 30.5669 18.1068 30.6421C18.0422 30.7174 17.9931 30.8047 17.9625 30.899C17.9318 30.9933 17.9202 31.0928 17.9283 31.1916C17.9363 31.2905 17.9639 31.3868 18.0094 31.4749C18.0549 31.563 18.1174 31.6412 18.1934 31.705C18.2693 31.7688 18.3571 31.8169 18.4518 31.8465C18.6403 31.9055 18.8444 31.8878 19.0199 31.7972C19.1954 31.7065 19.328 31.5504 19.3891 31.3625C19.4501 31.1747 19.4346 30.9704 19.3459 30.7939C19.2572 30.6174 19.1024 30.4831 18.9153 30.42ZM27.676 28.8495C27.7338 28.7697 27.7753 28.6794 27.7981 28.5836C27.821 28.4878 27.8247 28.3884 27.8091 28.2911C27.7936 28.1939 27.759 28.1006 27.7074 28.0167C27.6558 27.9328 27.5882 27.8599 27.5084 27.8022C27.4286 27.7444 27.3383 27.7029 27.2424 27.6801C27.1466 27.6572 27.0473 27.6535 26.95 27.669C26.8527 27.6846 26.7595 27.7192 26.6756 27.7708C26.5917 27.8224 26.5188 27.89 26.461 27.9698C26.3444 28.1309 26.2965 28.3318 26.3279 28.5282C26.3594 28.7246 26.4675 28.9005 26.6287 29.0171C26.7898 29.1338 26.9906 29.1817 27.1871 29.1503C27.3835 29.1188 27.5594 29.0106 27.676 28.8495ZM27.5095 20.1983C27.6702 20.0809 27.7776 19.9046 27.8082 19.708C27.8388 19.5114 27.79 19.3108 27.6727 19.1502C27.6145 19.0706 27.5413 19.0033 27.4572 18.9521C27.3731 18.9008 27.2797 18.8667 27.1824 18.8515C26.9858 18.8209 26.7852 18.8697 26.6245 18.987C26.4639 19.1044 26.3565 19.2807 26.3259 19.4773C26.2953 19.6739 26.344 19.8745 26.4614 20.0352C26.5788 20.1958 26.7551 20.3032 26.9517 20.3338C27.1482 20.3644 27.3489 20.3156 27.5095 20.1983ZM18.9153 17.58C19.0099 17.5504 19.0978 17.5023 19.1737 17.4385C19.2496 17.3747 19.3122 17.2965 19.3577 17.2084C19.4032 17.1203 19.4308 17.024 19.4388 16.9251C19.4469 16.8263 19.4352 16.7268 19.4046 16.6325C19.3739 16.5382 19.3249 16.4509 19.2603 16.3756C19.1956 16.3004 19.1167 16.2387 19.0281 16.1942C18.9395 16.1496 18.843 16.1231 18.744 16.1161C18.6451 16.1091 18.5458 16.1219 18.4518 16.1535C18.2646 16.2166 18.1099 16.3509 18.0212 16.5274C17.9325 16.7039 17.917 16.9082 17.978 17.096C18.039 17.2839 18.1717 17.44 18.3472 17.5307C18.5226 17.6213 18.7268 17.639 18.9153 17.58Z" fill="#EF0F3A"/>
<path d="M38.25 21.75C38.6642 21.75 39 21.4142 39 21C39 20.5858 38.6642 20.25 38.25 20.25C37.8358 20.25 37.5 20.5858 37.5 21C37.5 21.4142 37.8358 21.75 38.25 21.75Z" fill="#EF0F3A"/>
<path d="M17.3751 36.7097L14.7861 39.4232C14.6488 39.5671 14.5742 39.7597 14.5789 39.9585C14.5835 40.1574 14.667 40.3463 14.8109 40.4837C14.9548 40.621 15.1474 40.6956 15.3463 40.6909C15.5451 40.6863 15.734 40.6028 15.8714 40.4589L18.4604 37.7454C18.5977 37.6015 18.6723 37.4089 18.6676 37.21C18.663 37.0112 18.5795 36.8223 18.4356 36.6849C18.2917 36.5476 18.0991 36.473 17.9002 36.4777C17.7014 36.4823 17.5125 36.5658 17.3751 36.7097ZM25.1219 36.2687C25.0261 36.2454 24.9268 36.2412 24.8294 36.2564C24.7321 36.2715 24.6386 36.3057 24.5545 36.357C24.4704 36.4082 24.3972 36.4756 24.3391 36.5551C24.281 36.6347 24.2391 36.7249 24.2159 36.8207L23.3309 40.4649C23.29 40.656 23.3253 40.8555 23.4292 41.021C23.5332 41.1864 23.6977 41.3047 23.8876 41.3508C24.0775 41.3968 24.2779 41.3669 24.4461 41.2674C24.6143 41.168 24.737 41.0068 24.7881 40.8182L25.6731 37.1739C25.7199 36.9808 25.6881 36.777 25.5848 36.6072C25.4814 36.4375 25.3149 36.3157 25.1219 36.2687ZM30.7049 32.5644C30.6103 32.5921 30.5221 32.6381 30.4453 32.6998C30.3686 32.7616 30.3047 32.8378 30.2574 32.9243C30.2101 33.0107 30.1803 33.1056 30.1697 33.2036C30.1591 33.3015 30.1679 33.4006 30.1956 33.4952L31.2516 37.0952C31.2768 37.1925 31.3212 37.2839 31.3824 37.3637C31.4435 37.4435 31.5201 37.5103 31.6076 37.5599C31.695 37.6095 31.7916 37.6411 31.8915 37.6527C31.9913 37.6642 32.0926 37.6556 32.189 37.6273C32.2855 37.599 32.3753 37.5515 32.4531 37.4878C32.5309 37.4241 32.5951 37.3453 32.6418 37.2563C32.6886 37.1673 32.717 37.0697 32.7253 36.9695C32.7335 36.8693 32.7216 36.7684 32.6901 36.6729L31.6349 33.0729C31.5789 32.8822 31.4495 32.7216 31.2751 32.6262C31.1007 32.5309 30.8956 32.5087 30.7049 32.5644ZM36.5144 29.4699C36.5851 29.5403 36.6693 29.5959 36.7618 29.6334C36.8543 29.6709 36.9534 29.6895 37.0532 29.6882C37.153 29.6869 37.2516 29.6657 37.3431 29.6258C37.4346 29.5859 37.5172 29.5281 37.5861 29.4559C37.655 29.3836 37.7088 29.2984 37.7443 29.2051C37.7798 29.1118 37.7963 29.0123 37.7929 28.9125C37.7895 28.8128 37.7662 28.7147 37.7244 28.6241C37.6826 28.5334 37.6231 28.452 37.5494 28.3847L34.8359 25.7994C34.692 25.6621 34.4994 25.5875 34.3005 25.5922C34.1016 25.5968 33.9127 25.6803 33.7754 25.8242C33.638 25.9681 33.5635 26.1607 33.5681 26.3595C33.5728 26.5584 33.6562 26.7473 33.8001 26.8847L36.5144 29.4699ZM16.8809 11.7302C16.9766 11.7534 17.076 11.7576 17.1733 11.7425C17.2707 11.7273 17.3641 11.6931 17.4482 11.6419C17.5324 11.5906 17.6056 11.5233 17.6637 11.4437C17.7218 11.3641 17.7637 11.2739 17.7869 11.1782L18.6719 7.53392C18.7128 7.34284 18.6775 7.14334 18.5735 6.97789C18.4695 6.81244 18.3051 6.6941 18.1152 6.64806C17.9253 6.60203 17.7249 6.63193 17.5567 6.73141C17.3885 6.83088 17.2658 6.99207 17.2146 7.18067L16.3296 10.8249C16.2828 11.0181 16.3146 11.2219 16.418 11.3916C16.5213 11.5613 16.6878 11.6831 16.8809 11.7302ZM10.3679 14.9244C10.394 15.0207 10.4391 15.1108 10.5004 15.1894C10.5618 15.2681 10.6382 15.3337 10.7253 15.3824C10.8123 15.4312 10.9082 15.462 11.0073 15.4733C11.1064 15.4845 11.2068 15.4758 11.3025 15.4478C11.3982 15.4198 11.4874 15.3729 11.5648 15.31C11.6422 15.2471 11.7063 15.1693 11.7533 15.0814C11.8003 14.9934 11.8292 14.8969 11.8385 14.7976C11.8477 14.6982 11.8371 14.5981 11.8071 14.5029L10.7511 10.9029C10.726 10.8056 10.6815 10.7142 10.6204 10.6344C10.5592 10.5546 10.4826 10.4878 10.3952 10.4382C10.3077 10.3885 10.2112 10.357 10.1113 10.3454C10.0114 10.3338 9.9102 10.3425 9.8137 10.3708C9.71721 10.3991 9.6274 10.4466 9.54961 10.5103C9.47183 10.574 9.40765 10.6528 9.3609 10.7418C9.31416 10.8308 9.28579 10.9284 9.2775 11.0286C9.2692 11.1288 9.28115 11.2297 9.31262 11.3252L10.3679 14.9244ZM7.25537 21.4584C7.39929 21.5958 7.59187 21.6703 7.79075 21.6657C7.88923 21.6634 7.98629 21.6417 8.07639 21.6019C8.16649 21.5621 8.24787 21.5049 8.31587 21.4337C8.38388 21.3624 8.43719 21.2785 8.47275 21.1866C8.50831 21.0947 8.52543 20.9968 8.52313 20.8983C8.52084 20.7998 8.49917 20.7028 8.45936 20.6127C8.41955 20.5226 8.36238 20.4412 8.29112 20.3732L5.57762 17.7842C5.50637 17.7162 5.42241 17.6629 5.33055 17.6273C5.23869 17.5917 5.14072 17.5746 5.04225 17.5769C4.84337 17.5816 4.65447 17.665 4.51712 17.8089C4.44912 17.8802 4.39581 17.9641 4.36025 18.056C4.32468 18.1479 4.30756 18.2458 4.30986 18.3443C4.3145 18.5432 4.39796 18.7321 4.54187 18.8694L7.25537 21.4584ZM8.00387 28.6929C8.18742 28.6929 8.36459 28.6256 8.50185 28.5038C8.6391 28.3819 8.7269 28.2139 8.74862 28.0317C8.77034 27.8494 8.72447 27.6655 8.6197 27.5148C8.51493 27.3641 8.35853 27.257 8.18012 27.2139L4.53587 26.3289C4.34479 26.288 4.14529 26.3233 3.97984 26.4273C3.81439 26.5313 3.69605 26.6957 3.65002 26.8856C3.60398 27.0755 3.63388 27.2759 3.73336 27.4441C3.83283 27.6123 3.99402 27.735 4.18262 27.7862L7.82687 28.6712C7.88462 28.6862 7.94387 28.6937 8.00387 28.6929ZM11.5056 33.1937L7.90562 34.2497C7.80825 34.2748 7.71694 34.3193 7.6371 34.3804C7.55726 34.4416 7.49054 34.5182 7.44089 34.6056C7.39125 34.6931 7.3597 34.7896 7.34812 34.8895C7.33654 34.9894 7.34517 35.0906 7.3735 35.1871C7.40182 35.2836 7.44926 35.3734 7.51299 35.4512C7.57673 35.529 7.65545 35.5931 7.74449 35.6399C7.83353 35.6866 7.93106 35.715 8.03128 35.7233C8.1315 35.7316 8.23236 35.7196 8.32787 35.6882L11.9279 34.6329C12.0241 34.6068 12.1142 34.5617 12.1929 34.5004C12.2715 34.439 12.3371 34.3626 12.3859 34.2755C12.4346 34.1885 12.4655 34.0926 12.4767 33.9935C12.488 33.8944 12.4793 33.794 12.4513 33.6983C12.4232 33.6026 12.3764 33.5134 12.3135 33.436C12.2505 33.3586 12.1728 33.2945 12.0848 33.2475C11.9968 33.2005 11.9003 33.1716 11.801 33.1623C11.7017 33.1531 11.6015 33.1637 11.5064 33.1937H11.5056Z" fill="#EF0F3A"/>
<path d="M24 7.5C24.4142 7.5 24.75 7.16421 24.75 6.75C24.75 6.33579 24.4142 6 24 6C23.5858 6 23.25 6.33579 23.25 6.75C23.25 7.16421 23.5858 7.5 24 7.5Z" fill="#EF0F3A"/>
</g>
<defs>
<clipPath id="clip0_1_24652">
<rect width="45" height="45" fill="white"/>
</clipPath>
</defs>
</svg>
