<svg width="61" height="60" viewBox="0 0 61 60" fill="none" xmlns="http://www.w3.org/2000/svg">
<path d="M25.7504 16.9661H11.4012C11.0552 16.9661 10.7234 16.8287 10.4788 16.5841C10.2341 16.3394 10.0967 16.0076 10.0967 15.6617C10.0967 15.3157 10.2341 14.9839 10.4788 14.7393C10.7234 14.4946 11.0552 14.3572 11.4012 14.3572H25.7504C26.0964 14.3572 26.4282 14.4946 26.6728 14.7393C26.9174 14.9839 27.0549 15.3157 27.0549 15.6617C27.0549 16.0076 26.9174 16.3394 26.6728 16.5841C26.4282 16.8287 26.0964 16.9661 25.7504 16.9661Z" fill="black"/>
<path d="M25.7507 16.9663C25.5794 16.9665 25.4097 16.9328 25.2514 16.8672C25.0932 16.8016 24.9494 16.7054 24.8284 16.5841L19.6105 11.3662C19.3659 11.1216 19.2285 10.7898 19.2285 10.4439C19.2285 10.098 19.3659 9.76626 19.6105 9.52166C19.8551 9.27707 20.1869 9.13965 20.5328 9.13965C20.8787 9.13965 21.2105 9.27707 21.4551 9.52166L26.673 14.7396C26.856 14.9218 26.9807 15.1542 27.0314 15.4074C27.0821 15.6607 27.0564 15.9232 26.9576 16.1618C26.8587 16.4004 26.6913 16.6042 26.4764 16.7475C26.2615 16.8907 26.0089 16.9669 25.7507 16.9663Z" fill="black"/>
<path d="M20.5326 22.1841C20.2744 22.1847 20.0218 22.1085 19.8069 21.9653C19.592 21.8221 19.4246 21.6182 19.3257 21.3796C19.2269 21.141 19.2012 20.8785 19.2519 20.6252C19.3026 20.372 19.4273 20.1396 19.6103 19.9574L24.8283 14.7395C24.9494 14.6184 25.0931 14.5223 25.2514 14.4567C25.4096 14.3912 25.5792 14.3575 25.7505 14.3575C25.9218 14.3575 26.0914 14.3912 26.2496 14.4567C26.4079 14.5223 26.5517 14.6184 26.6728 14.7395C26.7939 14.8606 26.89 15.0044 26.9555 15.1626C27.0211 15.3209 27.0548 15.4905 27.0548 15.6617C27.0548 15.833 27.0211 16.0026 26.9555 16.1609C26.89 16.3191 26.7939 16.4629 26.6728 16.584L21.4549 21.8019C21.3339 21.9232 21.1901 22.0194 21.0319 22.085C20.8736 22.1506 20.7039 22.1843 20.5326 22.1841ZM50.5356 45.6647H36.1863C35.8404 45.6647 35.5086 45.5273 35.2639 45.2826C35.0193 45.038 34.8818 44.7062 34.8818 44.3602C34.8818 44.0142 35.0193 43.6824 35.2639 43.4378C35.5086 43.1932 35.8404 43.0557 36.1863 43.0557H50.5356C50.8815 43.0557 51.2133 43.1932 51.458 43.4378C51.7026 43.6824 51.84 44.0142 51.84 44.3602C51.84 44.7062 51.7026 45.038 51.458 45.2826C51.2133 45.5273 50.8815 45.6647 50.5356 45.6647ZM45.3176 14.0964C45.1519 14.0969 44.9876 14.0654 44.8337 14.0038L30.4845 8.26537C30.242 8.16877 30.034 8.00164 29.8875 7.7856C29.741 7.56956 29.6627 7.31454 29.6627 7.05351C29.6627 6.79249 29.741 6.53747 29.8875 6.32142C30.034 6.10538 30.242 5.93825 30.4845 5.84166L44.8337 0.101963C45.1442 -0.0232453 45.4911 -0.0232453 45.8016 0.101963L60.1508 5.84166C60.3933 5.93825 60.6013 6.10538 60.7478 6.32142C60.8942 6.53747 60.9726 6.79249 60.9726 7.05351C60.9726 7.31454 60.8942 7.56956 60.7478 7.7856C60.6013 8.00164 60.3933 8.16877 60.1508 8.26537L45.8016 14.0038C45.6475 14.0648 45.4834 14.0962 45.3176 14.0964ZM34.4814 7.05221L45.319 11.3857L56.1565 7.05221L45.319 2.71744L34.4814 7.05221Z" fill="black"/>
<path d="M59.667 25.5758C59.321 25.5758 58.9892 25.4384 58.7446 25.1938C58.5 24.9491 58.3625 24.6173 58.3625 24.2714V7.05228C58.3625 6.70631 58.5 6.37451 58.7446 6.12988C58.9892 5.88524 59.321 5.7478 59.667 5.7478C60.013 5.7478 60.3448 5.88524 60.5894 6.12988C60.834 6.37451 60.9715 6.70631 60.9715 7.05228V24.2701C60.9717 24.4415 60.938 24.6112 60.8726 24.7697C60.8071 24.9281 60.711 25.072 60.5899 25.1933C60.4687 25.3146 60.3249 25.4108 60.1665 25.4764C60.0082 25.542 59.8384 25.5758 59.667 25.5758ZM30.9685 25.5758C30.6226 25.5758 30.2908 25.4384 30.0461 25.1938C29.8015 24.9491 29.6641 24.6173 29.6641 24.2714V7.05228C29.6641 6.70631 29.8015 6.37451 30.0461 6.12988C30.2908 5.88524 30.6226 5.7478 30.9685 5.7478C31.3145 5.7478 31.6463 5.88524 31.8909 6.12988C32.1356 6.37451 32.273 6.70631 32.273 7.05228V24.2701C32.2732 24.4415 32.2396 24.6112 32.1741 24.7697C32.1086 24.9281 32.0126 25.072 31.8914 25.1933C31.7703 25.3146 31.6264 25.4108 31.468 25.4764C31.3097 25.542 31.14 25.5758 30.9685 25.5758ZM45.3178 31.3155C44.9718 31.3155 44.64 31.1781 44.3954 30.9335C44.1507 30.6888 44.0133 30.357 44.0133 30.011V12.792C44.0133 12.446 44.1507 12.1142 44.3954 11.8696C44.64 11.6249 44.9718 11.4875 45.3178 11.4875C45.6637 11.4875 45.9955 11.6249 46.2402 11.8696C46.4848 12.1142 46.6222 12.446 46.6222 12.792V30.011C46.6222 30.357 46.4848 30.6888 46.2402 30.9335C45.9955 31.1781 45.6637 31.3155 45.3178 31.3155Z" fill="black"/>
<path d="M45.3177 31.3154C45.152 31.3159 44.9877 31.2844 44.8338 31.2228L30.4846 25.4831C30.3254 25.4195 30.1803 25.3253 30.0576 25.2056C29.9349 25.086 29.837 24.9434 29.7694 24.7859C29.6329 24.4679 29.6283 24.1087 29.7567 23.7873C29.8202 23.6281 29.9145 23.4831 30.0341 23.3603C30.1537 23.2376 30.2963 23.1397 30.4538 23.0721C30.7718 22.9356 31.1311 22.931 31.4525 23.0594L45.3177 28.606L59.183 23.0594C59.5044 22.931 59.8637 22.9356 60.1817 23.0721C60.4997 23.2086 60.7505 23.4659 60.8788 23.7873C61.0072 24.1087 61.0026 24.4679 60.8661 24.7859C60.7296 25.104 60.4723 25.3547 60.1509 25.4831L45.8017 31.2228C45.6478 31.2844 45.4835 31.3159 45.3177 31.3154ZM16.6728 60.01C10.9331 60.01 5.48819 56.7566 2.80097 51.72C-0.267158 45.9725 0.584665 38.837 4.91683 33.9648C7.87799 30.6332 12.1684 28.7221 16.6897 28.7221C18.5999 28.7186 20.4941 29.0707 22.2755 29.7605C28.2552 32.0785 32.2717 37.946 32.2717 44.3602C32.2717 52.1074 26.258 58.9311 18.5799 59.8912C17.9511 59.9708 17.3093 60.01 16.6728 60.01ZM16.691 31.3311C12.9133 31.3311 9.33248 32.9225 6.86702 35.6971C3.31363 39.694 2.58834 45.7794 5.10206 50.4925C7.34185 54.6903 11.8827 57.4023 16.6715 57.4023C17.2013 57.4023 17.7319 57.3697 18.2577 57.3045C24.6535 56.5048 29.664 50.8186 29.664 44.3615C29.664 39.0157 26.3168 34.1252 21.3337 32.1946C19.8534 31.6202 18.2788 31.3273 16.691 31.3311ZM41.4043 50.8825C41.233 50.8827 41.0633 50.849 40.905 50.7834C40.7468 50.7178 40.603 50.6216 40.4821 50.5003L35.2641 45.2824C35.143 45.1613 35.047 45.0175 34.9814 44.8593C34.9159 44.701 34.8821 44.5314 34.8821 44.3602C34.8821 44.1889 34.9159 44.0193 34.9814 43.861C35.047 43.7028 35.143 43.559 35.2641 43.4379C35.3853 43.3168 35.529 43.2207 35.6873 43.1552C35.8455 43.0896 36.0151 43.0559 36.1864 43.0559C36.3577 43.0559 36.5273 43.0896 36.6855 43.1552C36.8438 43.2207 36.9876 43.3168 37.1087 43.4379L42.3266 48.6558C42.5096 48.838 42.6344 49.0704 42.685 49.3237C42.7357 49.5769 42.71 49.8394 42.6112 50.078C42.5124 50.3166 42.3449 50.5205 42.13 50.6637C41.9151 50.8069 41.6626 50.8831 41.4043 50.8825Z" fill="black"/>
<path d="M36.1861 45.6645C35.9278 45.6651 35.6752 45.589 35.4604 45.4457C35.2455 45.3025 35.078 45.0986 34.9792 44.86C34.8804 44.6215 34.8547 44.3589 34.9053 44.1057C34.956 43.8525 35.0808 43.62 35.2638 43.4378L40.4817 38.2199C40.6028 38.0988 40.7466 38.0027 40.9048 37.9372C41.0631 37.8716 41.2327 37.8379 41.404 37.8379C41.5752 37.8379 41.7449 37.8716 41.9031 37.9372C42.0613 38.0027 42.2051 38.0988 42.3262 38.2199C42.4473 38.341 42.5434 38.4848 42.609 38.643C42.6745 38.8013 42.7082 38.9709 42.7082 39.1422C42.7082 39.3134 42.6745 39.4831 42.609 39.6413C42.5434 39.7995 42.4473 39.9433 42.3262 40.0644L37.1083 45.2823C36.9874 45.4037 36.8436 45.4999 36.6853 45.5655C36.5271 45.631 36.3574 45.6647 36.1861 45.6645ZM16.6189 39.7944C16.273 39.7944 15.9412 39.657 15.6965 39.4123C15.4519 39.1677 15.3145 38.8359 15.3145 38.4899V35.8758C15.3145 35.5298 15.4519 35.198 15.6965 34.9534C15.9412 34.7087 16.273 34.5713 16.6189 34.5713C16.9649 34.5713 17.2967 34.7087 17.5413 34.9534C17.786 35.198 17.9234 35.5298 17.9234 35.8758V38.4899C17.9234 38.8359 17.786 39.1677 17.5413 39.4123C17.2967 39.657 16.9649 39.7944 16.6189 39.7944ZM16.6189 54.1489C16.273 54.1489 15.9412 54.0114 15.6965 53.7668C15.4519 53.5222 15.3145 53.1904 15.3145 52.8444V50.2302C15.3145 49.8842 15.4519 49.5524 15.6965 49.3078C15.9412 49.0632 16.273 48.9257 16.6189 48.9257C16.9649 48.9257 17.2967 49.0632 17.5413 49.3078C17.786 49.5524 17.9234 49.8842 17.9234 50.2302V52.8444C17.9234 53.1904 17.786 53.5222 17.5413 53.7668C17.2967 54.0114 16.9649 54.1489 16.6189 54.1489Z" fill="black"/>
<path d="M19.5088 51.5349H13.73C13.0013 51.5338 12.3028 51.2439 11.7876 50.7287C11.2724 50.2135 10.9825 49.515 10.9814 48.7863C10.9814 48.4404 11.1189 48.1086 11.3635 47.8639C11.6082 47.6193 11.94 47.4819 12.2859 47.4819C12.6319 47.4819 12.9637 47.6193 13.2083 47.8639C13.453 48.1086 13.5904 48.4404 13.5904 48.7863C13.5904 48.8646 13.653 48.9259 13.73 48.9259H19.5088C19.5871 48.9259 19.6484 48.8633 19.6484 48.7863V45.8056C19.6486 45.7872 19.6451 45.769 19.6381 45.752C19.6312 45.735 19.6209 45.7195 19.6079 45.7065C19.5949 45.6935 19.5794 45.6832 19.5624 45.6763C19.5454 45.6693 19.5272 45.6658 19.5088 45.666H13.73C13.0013 45.665 12.3028 45.3751 11.7876 44.8599C11.2724 44.3446 10.9825 43.6461 10.9814 42.9175V39.9368C10.9825 39.2081 11.2724 38.5096 11.7876 37.9944C12.3028 37.4792 13.0013 37.1893 13.73 37.1882H19.5088C20.2374 37.1893 20.9359 37.4792 21.4512 37.9944C21.9664 38.5096 22.2563 39.2081 22.2573 39.9368C22.2573 40.2827 22.1199 40.6145 21.8753 40.8592C21.6306 41.1038 21.2988 41.2412 20.9529 41.2412C20.6069 41.2412 20.2751 41.1038 20.0305 40.8592C19.7858 40.6145 19.6484 40.2827 19.6484 39.9368C19.6486 39.9184 19.6451 39.9002 19.6381 39.8831C19.6312 39.8661 19.6209 39.8507 19.6079 39.8377C19.5949 39.8247 19.5794 39.8144 19.5624 39.8075C19.5454 39.8005 19.5272 39.797 19.5088 39.7972H13.73C13.7116 39.797 13.6934 39.8005 13.6764 39.8075C13.6593 39.8144 13.6439 39.8247 13.6309 39.8377C13.6179 39.8507 13.6076 39.8661 13.6007 39.8831C13.5937 39.9002 13.5902 39.9184 13.5904 39.9368V42.9175C13.5904 42.9958 13.653 43.0571 13.73 43.0571H19.5088C20.2374 43.0581 20.9359 43.348 21.4512 43.8632C21.9664 44.3785 22.2563 45.077 22.2573 45.8056V48.7863C22.2563 49.515 21.9664 50.2135 21.4512 50.7287C20.9359 51.2439 20.2374 51.5338 19.5088 51.5349Z" fill="black"/>
</svg>
