<svg width="60" height="60" viewBox="0 0 60 60" fill="none" xmlns="http://www.w3.org/2000/svg">
<g clip-path="url(#clip0_1_27401)">
<path d="M50.7275 40.0912C49.2729 39.5458 47.6365 39.7276 46.182 40.6367L37.4547 45.9094C37.0911 45.6367 36.7275 45.364 36.3638 45.2731L23.182 40.5458C22.182 40.1822 21.0911 40.1822 20.182 40.6367C20.182 40.6367 20.0911 40.6367 20.0911 40.7276L14.8184 43.9094V43.6367C14.8184 42.6367 14.0002 41.8185 13.0002 41.8185H8.63654C7.63654 41.8185 6.81836 42.6367 6.81836 43.6367V57.2731C6.81836 58.2731 7.63654 59.0912 8.63654 59.0912H12.9093C13.9093 59.0912 14.7275 58.2731 14.7275 57.2731V56.8185C16.7275 55.7276 17.5456 54.7276 18.9093 54.9094L33.4547 58.0912C34.6365 58.4549 35.9093 58.1822 37.0002 57.4549L51.8184 45.7276C53.8184 44.364 53.6365 41.1822 50.7275 40.0912ZM8.63654 57.2731V43.6367H12.9093V57.2731H8.63654ZM50.7275 44.2731C35.6365 55.7276 36.0002 56.9094 33.9093 56.2731L19.2729 53.0912H19.182C17.0911 52.7276 15.6365 54.1822 14.7275 54.6367V45.9094L20.9093 42.1822C21.4547 42.0003 22.0002 42.0003 22.5456 42.1822L35.7275 46.9094C36.9093 47.364 37.3638 48.8185 36.6365 49.8185C36.0911 50.5458 35.182 50.8185 34.2729 50.4549L26.4547 47.4549C26.0002 47.2731 25.4547 47.5458 25.2729 48.0003C25.0911 48.4549 25.3638 49.0003 25.8184 49.1822L33.6365 52.1822C35.2729 52.9094 37.0911 52.364 38.0911 51.0003C38.8184 50.0003 39.0911 48.8185 38.5456 47.4549L47.182 42.2731C48.0911 41.7276 49.182 41.5458 50.182 41.9094C51.5456 42.364 51.6365 43.6367 50.7275 44.2731Z" fill="#EF0F3A"/>
<path d="M28.4546 31.0004C29.2728 31.5458 29.8182 32.4549 30 33.364C29.1819 33.8185 28.7273 34.7276 28.7273 35.6367C28.7273 36.9095 29.6364 38.0004 30.9091 38.2731L31.2728 41.1822C31.3637 41.6367 31.7273 42.0004 32.1819 42.0004H39.2728C39.7273 42.0004 40.091 41.6367 40.1819 41.1822L40.5455 38.1822C41.6364 37.8185 42.5455 36.8185 42.5455 35.6367C42.5455 34.6367 42 33.8185 41.2728 33.364C41.3637 32.4549 41.9091 31.5458 42.8182 30.9095C46.1819 28.5458 48.2728 24.7276 48.2728 20.6367C48.2728 13.5458 42.3637 7.81855 35.1819 8.18218C28.7273 8.45491 23.3637 14.0004 23.2728 20.4549C23 24.7276 25 28.6367 28.4546 31.0004ZM32.9091 40.2731L32.7273 38.4549H38.6364L38.4546 40.2731H32.9091ZM39.6364 36.6367H31.3637C30.9091 36.6367 30.4546 36.2731 30.4546 35.7276C30.4546 35.2731 30.8182 34.8185 31.3637 34.8185H39.6364C40.091 34.8185 40.5455 35.1822 40.5455 35.7276C40.5455 36.1822 40.1819 36.6367 39.6364 36.6367ZM35 10.0913C41.091 9.81855 46.1819 14.7276 46.1819 20.7276C46.1819 24.2731 44.4546 27.5458 41.5455 29.5458C40.2728 30.364 39.4546 31.6367 39.2728 33.0913H31.8182C31.6364 31.7276 30.8182 30.4549 29.5455 29.5458C26.6364 27.5458 24.9091 24.1822 24.9091 20.6367C25 15.0913 29.5455 10.364 35 10.0913Z" fill="#EF0F3A"/>
<path d="M35.273 14.6367C38.7275 14.4549 41.6366 17.2731 41.6366 20.7276C41.6366 21.2731 42.0003 21.6367 42.5457 21.6367C43.0912 21.6367 43.4548 21.2731 43.4548 20.7276C43.4548 16.2731 39.7275 12.6367 35.1821 12.8185C34.6366 12.8185 34.273 13.2731 34.273 13.7276C34.273 14.2731 34.7275 14.6367 35.273 14.6367ZM35.5457 6.27306C36.0912 6.27306 36.4548 5.90942 36.4548 5.36397V1.81851C36.4548 1.27306 36.0912 0.909424 35.5457 0.909424C35.0003 0.909424 34.6366 1.27306 34.6366 1.81851V5.36397C34.6366 5.90942 35.0003 6.27306 35.5457 6.27306ZM29.0912 6.72761C29.273 7.09124 29.5457 7.27306 29.9094 7.27306C30.0003 7.27306 30.1821 7.27306 30.273 7.18215C30.7275 7.00033 31.0003 6.45488 30.7275 6.00033L29.3639 2.72761C29.1821 2.27306 28.6366 2.00033 28.1821 2.27306C27.7275 2.45488 27.4548 3.00033 27.7275 3.45488L29.0912 6.72761ZM24.5457 10.1822C24.9094 10.5458 25.4548 10.5458 25.8184 10.1822C26.1821 9.81851 26.1821 9.27306 25.8184 8.90942L23.273 6.36397C22.9094 6.00033 22.3639 6.00033 22.0003 6.36397C21.6366 6.72761 21.6366 7.27306 22.0003 7.6367L24.5457 10.1822ZM46.4548 10.4549L49.0003 7.90942C49.3639 7.54579 49.3639 7.00033 49.0003 6.6367C48.6366 6.27306 48.0912 6.27306 47.7275 6.6367L45.1821 9.09124C44.8184 9.45488 44.8184 10.0003 45.1821 10.364C45.4548 10.7276 46.0912 10.7276 46.4548 10.4549ZM40.7275 7.36397C40.8184 7.45488 41.0003 7.45488 41.0912 7.45488C41.4548 7.45488 41.8184 7.27306 41.9094 6.90942L43.273 3.6367C43.4548 3.18215 43.273 2.6367 42.8184 2.45488C42.3639 2.27306 41.8184 2.45488 41.6366 2.90942L40.273 6.18215C40.0912 6.6367 40.273 7.18215 40.7275 7.36397Z" fill="#EF0F3A"/>
</g>
<defs>
<clipPath id="clip0_1_27401">
<rect width="60" height="60" fill="white" transform="translate(0 0.000244141)"/>
</clipPath>
</defs>
</svg>
