<svg width="40" height="40" viewBox="0 0 40 40" fill="none" xmlns="http://www.w3.org/2000/svg">
<g clip-path="url(#clip0_1_28223)">
<path d="M32.5 34.9997H4.16667C3.062 34.9984 2.00296 34.5589 1.22185 33.7778C0.440735 32.9967 0.00132321 31.9377 0 30.833L0 29.1663C0 25.9497 2.61667 23.333 5.83333 23.333H23.0833C23.3043 23.333 23.5163 23.4208 23.6726 23.5771C23.8289 23.7334 23.9167 23.9453 23.9167 24.1663C23.9167 24.3874 23.8289 24.5993 23.6726 24.7556C23.5163 24.9119 23.3043 24.9997 23.0833 24.9997H5.83333C4.72867 25.001 3.66963 25.4404 2.88852 26.2215C2.1074 27.0026 1.66799 28.0617 1.66667 29.1663V30.833C1.66667 32.2113 2.78833 33.333 4.16667 33.333H32.5C33.8783 33.333 35 32.2113 35 30.833V29.1663C35 28.123 34.6117 27.128 33.905 26.3647C33.8307 26.2842 33.773 26.19 33.7351 26.0872C33.6972 25.9845 33.68 25.8753 33.6843 25.7658C33.6886 25.6564 33.7145 25.5489 33.7603 25.4495C33.8062 25.3501 33.8712 25.2606 33.9517 25.1863C34.0321 25.112 34.1264 25.0543 34.2291 25.0164C34.3319 24.9786 34.4411 24.9613 34.5505 24.9656C34.6599 24.97 34.7674 24.9958 34.8668 25.0417C34.9663 25.0876 35.0557 25.1526 35.13 25.233C36.12 26.3063 36.6667 27.703 36.6667 29.1663V30.833C36.6667 33.1297 34.7967 34.9997 32.5 34.9997Z" fill="#EF0F3A"/>
<path d="M3.33333 39.9995C1.495 39.9995 0 38.5045 0 36.6662V30.8328C0 30.6118 0.0877974 30.3999 0.244078 30.2436C0.400358 30.0873 0.61232 29.9995 0.833333 29.9995C1.05435 29.9995 1.26631 30.0873 1.42259 30.2436C1.57887 30.3999 1.66667 30.6118 1.66667 30.8328V36.6662C1.66667 37.5845 2.415 38.3328 3.33333 38.3328C4.25167 38.3328 5 37.5845 5 36.6662V34.1662C5 33.9452 5.0878 33.7332 5.24408 33.5769C5.40036 33.4206 5.61232 33.3328 5.83333 33.3328C6.05435 33.3328 6.26631 33.4206 6.42259 33.5769C6.57887 33.7332 6.66667 33.9452 6.66667 34.1662V36.6662C6.66667 38.5045 5.17167 39.9995 3.33333 39.9995ZM33.3333 39.9995C31.495 39.9995 30 38.5045 30 36.6662V34.1662C30 33.9452 30.0878 33.7332 30.2441 33.5769C30.4004 33.4206 30.6123 33.3328 30.8333 33.3328C31.0543 33.3328 31.2663 33.4206 31.4226 33.5769C31.5789 33.7332 31.6667 33.9452 31.6667 34.1662V36.6662C31.6667 37.5845 32.415 38.3328 33.3333 38.3328C34.2517 38.3328 35 37.5845 35 36.6662V30.8328C35 30.6118 35.0878 30.3999 35.2441 30.2436C35.4004 30.0873 35.6123 29.9995 35.8333 29.9995C36.0543 29.9995 36.2663 30.0873 36.4226 30.2436C36.5789 30.3999 36.6667 30.6118 36.6667 30.8328V36.6662C36.6667 38.5045 35.1717 39.9995 33.3333 39.9995ZM4.16667 24.9995C4.02941 24.9994 3.89429 24.9655 3.77332 24.9006C3.65235 24.8358 3.54927 24.742 3.47325 24.6277C3.39722 24.5134 3.3506 24.3822 3.33753 24.2455C3.32447 24.1089 3.34535 23.9711 3.39833 23.8445L6.715 15.8945C7.02974 15.1365 7.56195 14.4887 8.24446 14.0328C8.92698 13.5769 9.72923 13.3333 10.55 13.3328H16.2C16.421 13.3328 16.633 13.4206 16.7893 13.5769C16.9455 13.7332 17.0333 13.9452 17.0333 14.1662C17.0333 14.3872 16.9455 14.5992 16.7893 14.7554C16.633 14.9117 16.421 14.9995 16.2 14.9995H10.55C9.56 14.9995 8.63833 15.6178 8.25333 16.5378L4.93667 24.4878C4.87262 24.6392 4.76548 24.7684 4.62857 24.8594C4.49167 24.9504 4.33104 24.9991 4.16667 24.9995ZM10.8333 29.9995H5.83333C5.61232 29.9995 5.40036 29.9117 5.24408 29.7554C5.0878 29.5992 5 29.3872 5 29.1662C5 28.9452 5.0878 28.7332 5.24408 28.5769C5.40036 28.4206 5.61232 28.3328 5.83333 28.3328H10.8333C11.0543 28.3328 11.2663 28.4206 11.4226 28.5769C11.5789 28.7332 11.6667 28.9452 11.6667 29.1662C11.6667 29.3872 11.5789 29.5992 11.4226 29.7554C11.2663 29.9117 11.0543 29.9995 10.8333 29.9995ZM30.8333 29.9995H25.8333C25.6123 29.9995 25.4004 29.9117 25.2441 29.7554C25.0878 29.5992 25 29.3872 25 29.1662C25 28.9452 25.0878 28.7332 25.2441 28.5769C25.4004 28.4206 25.6123 28.3328 25.8333 28.3328H30.8333C31.0543 28.3328 31.2663 28.4206 31.4226 28.5769C31.5789 28.7332 31.6667 28.9452 31.6667 29.1662C31.6667 29.3872 31.5789 29.5992 31.4226 29.7554C31.2663 29.9117 31.0543 29.9995 30.8333 29.9995ZM30 23.3328C29.8888 23.3331 29.7787 23.3104 29.6767 23.2662C29.28 23.1012 20 19.0895 20 10.8928V3.92784C20 3.57118 20.2283 3.25284 20.5667 3.13784L29.7333 0.0428421C29.9063 -0.0155828 30.0937 -0.0155828 30.2667 0.0428421L39.4333 3.13784C39.7717 3.25284 40 3.57118 40 3.92784V10.8928C40 19.0895 30.72 23.1012 30.3233 23.2678C30.2209 23.3107 30.111 23.3328 30 23.3328ZM21.6667 4.52618V10.8928C21.6667 17.2012 28.425 20.8228 30 21.5828C31.5733 20.8212 38.3333 17.1862 38.3333 10.8928V4.52618L30 1.71284L21.6667 4.52618Z" fill="#EF0F3A"/>
<path d="M29.1661 14.9994L29.1194 14.9977C29.0024 14.9911 28.888 14.9599 28.7838 14.9062C28.6796 14.8525 28.5878 14.7775 28.5144 14.686L25.1811 10.5194C25.0579 10.3456 25.0058 10.1313 25.0355 9.92033C25.0651 9.70938 25.1743 9.51774 25.3406 9.38464C25.5069 9.25154 25.7178 9.18705 25.9302 9.20435C26.1425 9.22165 26.3402 9.31944 26.4827 9.47772L29.2344 12.9177L34.4094 7.74272C34.5666 7.59092 34.7771 7.50692 34.9956 7.50882C35.2141 7.51072 35.4231 7.59836 35.5776 7.75287C35.7321 7.90737 35.8197 8.11638 35.8216 8.33488C35.8235 8.55338 35.7395 8.76388 35.5877 8.92105L29.7544 14.7544C29.6775 14.8323 29.5859 14.894 29.4849 14.9361C29.3839 14.9782 29.2755 14.9997 29.1661 14.9994Z" fill="#EF0F3A"/>
</g>
<defs>
<clipPath id="clip0_1_28223">
<rect width="40" height="40" fill="white"/>
</clipPath>
</defs>
</svg>
