<svg width="46" height="42" viewBox="0 0 46 42" fill="none" xmlns="http://www.w3.org/2000/svg">
<path d="M7.82564 22.8412H13.2859M7.82564 22.8412V26.9364M7.82564 22.8412H5.92773C4.71423 22.8412 3.73047 23.825 3.73047 25.0385V26.0575C3.73047 26.5429 4.12396 26.9364 4.60938 26.9364H7.82564M13.2859 22.8412V26.9364M13.2859 22.8412H32.3964V26.9364L31.987 27.2093C29.6785 28.7483 26.9799 29.5991 24.2062 29.6626V29.6665H21.4761V29.6626C18.7023 29.5992 16.0038 28.7483 13.6952 27.2093L13.2859 26.9364M13.2859 26.9364H7.82564M16.0157 28.3749V22.9292M18.7465 29.2538V22.9292M21.4764 29.5746V22.9292M6.46062 35.2146V40.499M9.19076 35.2146V40.499M22.7278 10.0816C21.4945 10.887 20.4419 11.9397 19.6368 13.1731C19.6143 13.2077 19.5836 13.2361 19.5473 13.2558C19.5111 13.2755 19.4704 13.2858 19.4292 13.2858C19.3879 13.2859 19.3473 13.2756 19.311 13.2559C19.2748 13.2363 19.244 13.2079 19.2215 13.1733C18.4151 11.9407 17.3612 10.8854 16.1288 10.0816C16.0942 10.0592 16.0657 10.0284 16.046 9.99215C16.0263 9.95588 16.0159 9.91526 16.0159 9.87398C16.0159 9.83269 16.0262 9.79206 16.0459 9.75577C16.0655 9.71948 16.094 9.68868 16.1286 9.66618C17.3616 8.85919 18.4146 7.8062 19.2215 6.57322C19.2441 6.53864 19.2749 6.51023 19.3111 6.49058C19.3474 6.47092 19.388 6.46063 19.4293 6.46065C19.4705 6.46066 19.5111 6.47099 19.5474 6.49068C19.5837 6.51036 19.6144 6.5388 19.6369 6.57339C20.4429 7.80658 21.4953 8.85959 22.7281 9.66618C22.7627 9.6887 22.7911 9.71951 22.8108 9.7558C22.8304 9.7921 22.8407 9.83273 22.8407 9.874C22.8406 9.91528 22.8303 9.95589 22.8106 9.99215C22.7909 10.0284 22.7624 10.0592 22.7278 10.0816ZM30.9408 7.99239C29.9542 8.63666 29.1122 9.47883 28.4681 10.4655C28.4501 10.4932 28.4255 10.516 28.3965 10.5317C28.3675 10.5475 28.335 10.5558 28.302 10.5558C28.269 10.5558 28.2365 10.5476 28.2074 10.5318C28.1784 10.5161 28.1538 10.4934 28.1358 10.4657C27.4909 9.47914 26.6484 8.637 25.6616 7.99247C25.6339 7.97452 25.6111 7.94991 25.5954 7.92091C25.5796 7.8919 25.5713 7.85941 25.5713 7.82639C25.5713 7.79337 25.5795 7.76086 25.5952 7.73183C25.611 7.7028 25.6337 7.67816 25.6614 7.66016C26.6478 7.01461 27.4902 6.1722 28.1357 5.18578C28.1537 5.15811 28.1783 5.13538 28.2073 5.11965C28.2363 5.10392 28.2688 5.09569 28.3018 5.0957C28.3348 5.09572 28.3673 5.10399 28.3963 5.11975C28.4253 5.13551 28.4499 5.15826 28.4679 5.18595C29.1127 6.17252 29.9547 7.01495 30.9409 7.66025C30.9686 7.67822 30.9913 7.70282 31.0071 7.73183C31.0228 7.76084 31.0311 7.79333 31.0311 7.82634C31.0311 7.85935 31.0228 7.89184 31.007 7.92084C30.9913 7.94984 30.9685 7.97443 30.9408 7.99239ZM8.31186 32.3966H4.60938C4.12396 32.3966 3.73047 32.0031 3.73047 31.5177V30.5455C3.73047 30.0601 4.12396 29.6666 4.60938 29.6666H8.31177C8.79719 29.6666 9.19067 30.0601 9.19067 30.5455V31.5177C9.19076 32.003 8.79719 32.3966 8.31186 32.3966ZM32.3966 22.8412H37.8568V26.9364H32.3966V22.8412Z" stroke="#EF0F3A" stroke-width="1.2" stroke-miterlimit="10" stroke-linecap="round" stroke-linejoin="round"/>
<path d="M29.6653 28.3746V22.9289M26.9345 29.2535V22.9289M24.2047 29.5743V22.9289M37.8554 22.7531V21.0516C37.8554 20.7622 37.7839 20.4773 37.6474 20.2221C37.5108 19.967 37.3134 19.7495 37.0726 19.589L33.7602 17.3807M11.9194 17.3807L8.60697 19.589C8.36619 19.7495 8.16876 19.967 8.03221 20.2221C7.89566 20.4773 7.82422 20.7622 7.82422 21.0516V22.7531M31.0302 20.0229V16.4551C31.0302 16.3385 30.9839 16.2268 30.9014 16.1443C30.819 16.0619 30.7073 16.0156 30.5907 16.0156H20.5492C20.4327 16.0156 20.3209 16.0619 20.2385 16.1443C20.156 16.2268 20.1097 16.3385 20.1097 16.4551V22.753M14.6495 22.7531V16.4552C14.6495 16.3386 14.6958 16.2268 14.7782 16.1444C14.8606 16.062 14.9724 16.0157 15.0889 16.0157H16.9401C16.9979 16.0157 17.055 16.0271 17.1083 16.0492C17.1616 16.0712 17.2101 16.1036 17.2509 16.1444C17.2917 16.1852 17.3241 16.2337 17.3461 16.287C17.3682 16.3403 17.3796 16.3975 17.3796 16.4552V22.7531M39.7532 22.8409C40.9667 22.8409 41.9505 23.8247 41.9505 25.0382V26.0572C41.9505 26.5426 41.557 26.9361 41.0716 26.9361H37.8553V22.8409H39.7532ZM37.3692 32.3963H41.0716C41.557 32.3963 41.9505 32.0028 41.9505 31.5174V30.5452C41.9505 30.0598 41.557 29.6663 41.0716 29.6663H37.3692C36.8838 29.6663 36.4903 30.0598 36.4903 30.5452V31.5174C36.4903 32.0028 36.8838 32.3963 37.3692 32.3963Z" stroke="#EF0F3A" stroke-width="1.2" stroke-miterlimit="10" stroke-linecap="round" stroke-linejoin="round"/>
<path d="M24.2049 22.8404C24.9588 22.8404 25.5699 22.2293 25.5699 21.4754C25.5699 20.7215 24.9588 20.1104 24.2049 20.1104C23.451 20.1104 22.8398 20.7215 22.8398 21.4754C22.8398 22.2293 23.451 22.8404 24.2049 22.8404Z" stroke="#EF0F3A" stroke-width="1.2" stroke-miterlimit="10" stroke-linecap="round" stroke-linejoin="round"/>
<path d="M31.033 22.8404C31.7869 22.8404 32.398 22.2293 32.398 21.4754C32.398 20.7215 31.7869 20.1104 31.033 20.1104C30.2791 20.1104 29.668 20.7215 29.668 21.4754C29.668 22.2293 30.2791 22.8404 31.033 22.8404Z" stroke="#EF0F3A" stroke-width="1.2" stroke-miterlimit="10" stroke-linecap="round" stroke-linejoin="round"/>
<path d="M24.2059 20.1104H31.0312M22.8408 16.0153V14.6502M25.5709 16.0153V14.6502M28.301 16.0153V14.6502M39.3679 17.3803H42.6341C43.7649 17.3803 44.6816 16.4636 44.6816 15.3327C44.6816 14.2019 43.7649 13.2852 42.6341 13.2852H40.1716C39.8949 13.2852 39.6253 13.3722 39.4008 13.534C39.1763 13.6958 39.0084 13.9241 38.9209 14.1866L38.5852 15.1938M7.09645 15.1938L6.7607 14.1867C6.6732 13.9242 6.50532 13.6959 6.28085 13.5341C6.05639 13.3723 5.78671 13.2852 5.51002 13.2852H3.04759C1.9167 13.2852 1 14.2019 1 15.3328C1 16.4636 1.9167 17.3804 3.04759 17.3804H6.31378M3.73006 35.1951V39.0818C3.73006 39.9127 4.40365 40.5863 5.23457 40.5863H10.4159C11.2468 40.5863 11.9204 39.9127 11.9204 39.0818V35.214M36.4913 35.2139V40.4983M39.2214 35.2139V40.4983M33.7612 35.1951V39.0818C33.7612 39.9127 34.4348 40.5863 35.2657 40.5863H40.4471C41.278 40.5863 41.9516 39.9127 41.9516 39.0818V35.214" stroke="#EF0F3A" stroke-width="1.2" stroke-miterlimit="10" stroke-linecap="round" stroke-linejoin="round"/>
<path d="M30.7559 35.1266H41.6055C43.3044 35.1266 44.6816 33.7493 44.6816 32.0504V25.4312C44.6816 24.2032 44.3957 22.992 43.8465 21.8937C43.2973 20.7953 42.5 19.8399 41.5176 19.103L39.2214 17.3809L36.5286 9.30228C36.1836 8.26561 35.5683 7.33976 34.7461 6.62021M10.9355 6.62012C10.1134 7.33971 9.49812 8.26555 9.15309 9.30219L6.46021 17.3808L4.16406 19.103C3.18165 19.8399 2.38427 20.7953 1.83509 21.8936C1.2859 22.992 0.999993 24.2032 1 25.4312V32.0504C1 33.7493 2.37725 35.1266 4.07617 35.1266H27.6797M17.4685 20.111H20.0228" stroke="#EF0F3A" stroke-width="1.2" stroke-miterlimit="10" stroke-linecap="round" stroke-linejoin="round"/>
<path d="M14.6931 1H11.5117C10.9976 1 10.5932 1.43945 10.6359 1.95186L11.9217 17.3806H14.5638M31.1203 17.3806H33.7625L35.0482 1.95186C35.0909 1.43945 34.6866 1 34.1724 1H17.7694M17.4698 17.3806H20.024" stroke="#EF0F3A" stroke-width="1.2" stroke-miterlimit="10" stroke-linecap="round" stroke-linejoin="round"/>
</svg>
