<svg width="50" height="51" viewBox="0 0 50 51" fill="none" xmlns="http://www.w3.org/2000/svg">
<g clip-path="url(#clip0_1_24326)">
<path d="M16.5442 28.8751C15.2786 29.5704 13.8382 29.9912 12.3452 30.1018C12.1236 29.3999 11.6426 28.7803 10.9758 28.338C10.3091 27.8956 9.49349 27.6549 8.65385 27.6526H3.84615C2.82609 27.6526 1.84781 28.0038 1.12651 28.6289C0.405219 29.254 0 30.1019 0 30.9859L0 47.6526C0 48.5367 0.405219 49.3845 1.12651 50.0096C1.84781 50.6347 2.82609 50.9859 3.84615 50.9859H8.65385C9.50052 50.983 10.3224 50.7381 10.9921 50.2891C11.6618 49.8401 12.1418 49.2121 12.3577 48.5026C13.175 48.5401 13.974 48.7151 14.7135 49.0176C15.0846 49.1701 15.4394 49.3509 15.7952 49.5293C16.326 49.8101 16.8788 50.0576 17.45 50.2709C18.9385 50.7626 20.5221 51.0059 22.1154 50.9859H39.4231C40.1209 50.9856 40.8054 50.8208 41.4034 50.5092C42.0013 50.1975 42.4902 49.7507 42.8176 49.2167C43.145 48.6826 43.2986 48.0815 43.262 47.4776C43.2254 46.8737 42.9998 46.2898 42.6096 45.7884C43.1657 45.6226 43.6703 45.3479 44.0842 44.9857C44.498 44.6236 44.81 44.1836 44.996 43.7001C45.182 43.2165 45.237 42.7023 45.1566 42.1974C45.0763 41.6924 44.8628 41.2103 44.5327 40.7884C45.2248 40.5831 45.8344 40.2099 46.289 39.7131C46.7435 39.2163 47.0239 38.6168 47.0968 37.986C47.1697 37.3551 47.0321 36.7194 46.7003 36.1543C46.3685 35.5892 45.8564 35.1186 45.225 34.7984C45.8212 34.2026 46.151 33.4409 46.1538 32.6526C46.1538 31.7685 45.7486 30.9207 45.0273 30.2956C44.306 29.6705 43.3278 29.3193 42.3077 29.3193H30.1615C31.6654 26.8376 34.3981 21.2901 31.7385 17.2551C30.5683 15.4826 28.1231 14.0959 25.526 15.2426C22.8163 16.4359 23.4231 18.7934 23.7154 19.9251C24.4606 22.8284 22.0481 25.8401 16.5442 28.8751ZM8.65385 49.3193H3.84615C3.33612 49.3193 2.84698 49.1437 2.48633 48.8311C2.12569 48.5186 1.92308 48.0946 1.92308 47.6526V30.9859C1.92308 30.5439 2.12569 30.12 2.48633 29.8074C2.84698 29.4949 3.33612 29.3193 3.84615 29.3193H8.65385C9.16388 29.3193 9.65302 29.4949 10.0137 29.8074C10.3743 30.12 10.5769 30.5439 10.5769 30.9859V47.6526C10.5769 48.0946 10.3743 48.5186 10.0137 48.8311C9.65302 49.1437 9.16388 49.3193 8.65385 49.3193ZM25.5923 19.5626C25.1577 17.8768 25.3529 17.1884 26.3981 16.7293C28.0942 15.9793 29.5048 17.2293 30.0692 18.0834C32.9433 22.4451 27.751 29.6343 27.6981 29.7068C27.606 29.8327 27.5547 29.9778 27.5494 30.1269C27.544 30.2759 27.585 30.4234 27.6679 30.5541C27.7508 30.6848 27.8726 30.7938 28.0206 30.8697C28.1687 30.9457 28.3376 30.9858 28.5096 30.9859H42.3077C42.8177 30.9859 43.3069 31.1615 43.6675 31.4741C44.0282 31.7866 44.2308 32.2106 44.2308 32.6526C44.2308 33.0946 44.0282 33.5186 43.6675 33.8311C43.3069 34.1437 42.8177 34.3193 42.3077 34.3193H36.5385C36.2834 34.3193 36.0389 34.4071 35.8586 34.5633C35.6782 34.7196 35.5769 34.9316 35.5769 35.1526C35.5769 35.3736 35.6782 35.5856 35.8586 35.7419C36.0389 35.8981 36.2834 35.9859 36.5385 35.9859H43.2692C43.7793 35.9859 44.2684 36.1615 44.6291 36.4741C44.9897 36.7867 45.1923 37.2106 45.1923 37.6526C45.1923 38.0946 44.9897 38.5186 44.6291 38.8311C44.2684 39.1437 43.7793 39.3193 43.2692 39.3193H36.5385C36.2834 39.3193 36.0389 39.4071 35.8586 39.5633C35.6782 39.7196 35.5769 39.9316 35.5769 40.1526C35.5769 40.3736 35.6782 40.5856 35.8586 40.7419C36.0389 40.8981 36.2834 40.9859 36.5385 40.9859H41.3462C41.8562 40.9859 42.3453 41.1615 42.706 41.4741C43.0666 41.7866 43.2692 42.2106 43.2692 42.6526C43.2692 43.0946 43.0666 43.5186 42.706 43.8311C42.3453 44.1437 41.8562 44.3193 41.3462 44.3193H36.5385C36.2834 44.3193 36.0389 44.4071 35.8586 44.5633C35.6782 44.7196 35.5769 44.9316 35.5769 45.1526C35.5769 45.3736 35.6782 45.5856 35.8586 45.7419C36.0389 45.8981 36.2834 45.9859 36.5385 45.9859H39.4231C39.9331 45.9859 40.4223 46.1615 40.7829 46.4741C41.1435 46.7866 41.3462 47.2106 41.3462 47.6526C41.3462 48.0946 41.1435 48.5186 40.7829 48.8311C40.4223 49.1437 39.9331 49.3193 39.4231 49.3193H22.1154C20.7692 49.3393 19.4327 49.1384 18.1731 48.7259C17.6858 48.5417 17.2138 48.3284 16.7606 48.0876C16.3636 47.8821 15.9572 47.6905 15.5423 47.5134C14.587 47.124 13.5541 46.8977 12.5 46.8468V31.7784C14.3066 31.6397 16.0479 31.1252 17.576 30.2784C23.8356 26.8301 26.5327 23.2243 25.5923 19.5626ZM36.5481 1.7951V1.81927C36.5481 2.12594 36.4606 9.31927 28.8471 9.31927C28.5921 9.31927 28.3475 9.40707 28.1672 9.56335C27.9869 9.71963 27.8856 9.93159 27.8856 10.1526C27.8856 10.3736 27.9869 10.5856 28.1672 10.7419C28.3475 10.8981 28.5921 10.9859 28.8471 10.9859C36.4308 10.9859 36.5471 18.1809 36.5481 18.4859C36.5446 18.7069 36.6426 18.9201 36.8205 19.0785C36.9984 19.2369 37.2416 19.3275 37.4966 19.3305C37.7517 19.3335 37.9976 19.2486 38.1803 19.0944C38.3631 18.9402 38.4677 18.7295 38.4712 18.5084V18.4859C38.4712 18.1793 38.5587 10.9859 46.1731 10.9859C46.4281 10.9859 46.6727 10.8981 46.853 10.7419C47.0333 10.5856 47.1346 10.3736 47.1346 10.1526C47.1346 9.93159 47.0333 9.71963 46.853 9.56335C46.6727 9.40707 46.4281 9.31927 46.1731 9.31927C38.5885 9.31927 38.4731 2.12427 38.4712 1.81927C38.4746 1.59825 38.3766 1.38511 38.1987 1.22672C38.0208 1.06833 37.7776 0.977669 37.5226 0.974685C37.2676 0.971702 37.0216 1.05664 36.8389 1.21081C36.6561 1.36498 36.5515 1.57576 36.5481 1.79677V1.7951ZM41.7885 10.1526C39.8195 11.0528 38.2976 12.5451 37.5087 14.3493C36.7202 12.5449 35.1982 11.0524 33.2288 10.1526C35.1982 9.25279 36.7202 7.7603 37.5087 5.95594C38.2976 7.76006 39.8195 9.25242 41.7885 10.1526Z" fill="white"/>
<path d="M12.5009 11.8192V11.8142C12.5001 11.5931 12.3981 11.3814 12.2172 11.2256C12.0364 11.0698 11.7915 10.9827 11.5365 10.9833C11.2815 10.984 11.0372 11.0724 10.8574 11.2292C10.6776 11.3859 10.5771 11.5981 10.5778 11.8192C10.5778 12.0233 10.4971 16.8192 5.77013 16.8192C5.51512 16.8192 5.27055 16.907 5.09022 17.0632C4.9099 17.2195 4.80859 17.4315 4.80859 17.6525C4.80859 17.8735 4.9099 18.0855 5.09022 18.2418C5.27055 18.398 5.51512 18.4858 5.77013 18.4858C10.4971 18.4858 10.5778 23.2833 10.5778 23.4858V23.4908C10.5786 23.7118 10.6806 23.9235 10.8615 24.0794C11.0424 24.2352 11.2872 24.3223 11.5422 24.3217C11.7973 24.321 12.0415 24.2326 12.2213 24.0758C12.4011 23.9191 12.5017 23.7068 12.5009 23.4858C12.5009 23.2817 12.5817 18.4858 17.3086 18.4858C17.5636 18.4858 17.8082 18.398 17.9885 18.2418C18.1688 18.0855 18.2701 17.8735 18.2701 17.6525C18.2701 17.4315 18.1688 17.2195 17.9885 17.0632C17.8082 16.907 17.5636 16.8192 17.3086 16.8192C12.5817 16.8192 12.5009 12.0217 12.5009 11.8192ZM13.7932 17.6525C12.8196 18.2153 12.0406 18.9967 11.5394 19.9133C11.0382 18.9967 10.2592 18.2153 9.28552 17.6525C10.2593 17.0898 11.0384 16.3084 11.5394 15.3917C12.0403 16.3084 12.8194 17.0898 13.7932 17.6525ZM45.1932 18.4858C44.9382 18.4858 44.6936 18.5736 44.5133 18.7299C44.333 18.8862 44.2317 19.0981 44.2317 19.3192V20.9858C44.2317 21.2068 44.333 21.4188 44.5133 21.5751C44.6936 21.7314 44.9382 21.8192 45.1932 21.8192C45.4482 21.8192 45.6928 21.7314 45.8731 21.5751C46.0534 21.4188 46.1547 21.2068 46.1547 20.9858V19.3192C46.1547 19.0981 46.0534 18.8862 45.8731 18.7299C45.6928 18.5736 45.4482 18.4858 45.1932 18.4858ZM45.1932 26.8192C45.4482 26.8192 45.6928 26.7314 45.8731 26.5751C46.0534 26.4188 46.1547 26.2068 46.1547 25.9858V24.3192C46.1547 24.0981 46.0534 23.8862 45.8731 23.7299C45.6928 23.5736 45.4482 23.4858 45.1932 23.4858C44.9382 23.4858 44.6936 23.5736 44.5133 23.7299C44.333 23.8862 44.2317 24.0981 44.2317 24.3192V25.9858C44.2317 26.2068 44.333 26.4188 44.5133 26.5751C44.6936 26.7314 44.9382 26.8192 45.1932 26.8192ZM47.1163 23.4858H49.0394C49.2944 23.4858 49.5389 23.398 49.7193 23.2418C49.8996 23.0855 50.0009 22.8735 50.0009 22.6525C50.0009 22.4315 49.8996 22.2195 49.7193 22.0632C49.5389 21.907 49.2944 21.8192 49.0394 21.8192H47.1163C46.8613 21.8192 46.6167 21.907 46.4364 22.0632C46.2561 22.2195 46.1547 22.4315 46.1547 22.6525C46.1547 22.8735 46.2561 23.0855 46.4364 23.2418C46.6167 23.398 46.8613 23.4858 47.1163 23.4858ZM43.2701 23.4858C43.5251 23.4858 43.7697 23.398 43.95 23.2418C44.1304 23.0855 44.2317 22.8735 44.2317 22.6525C44.2317 22.4315 44.1304 22.2195 43.95 22.0632C43.7697 21.907 43.5251 21.8192 43.2701 21.8192H41.3471C41.092 21.8192 40.8475 21.907 40.6671 22.0632C40.4868 22.2195 40.3855 22.4315 40.3855 22.6525C40.3855 22.8735 40.4868 23.0855 40.6671 23.2418C40.8475 23.398 41.092 23.4858 41.3471 23.4858H43.2701ZM20.9557 8.65833L22.398 9.90833C22.5794 10.0601 22.8223 10.1441 23.0744 10.1422C23.3265 10.1403 23.5676 10.0527 23.7459 9.89818C23.9242 9.74367 24.0253 9.53466 24.0275 9.31616C24.0297 9.09766 23.9328 8.88716 23.7576 8.72999L22.3153 7.47999C22.2266 7.4004 22.1205 7.33692 22.0032 7.29324C21.8859 7.24957 21.7597 7.22658 21.6321 7.22562C21.5044 7.22466 21.3778 7.24574 21.2596 7.28764C21.1414 7.32954 21.0341 7.39142 20.9438 7.46966C20.8535 7.54791 20.7821 7.64095 20.7338 7.74336C20.6854 7.84578 20.6611 7.95551 20.6622 8.06616C20.6633 8.17681 20.6898 8.28616 20.7402 8.38783C20.7906 8.4895 20.8639 8.58145 20.9557 8.65833ZM18.0711 6.15833C18.2524 6.31012 18.4953 6.39412 18.7474 6.39222C18.9996 6.39032 19.2407 6.30268 19.419 6.14818C19.5973 5.99367 19.6984 5.78466 19.7006 5.56616C19.7028 5.34766 19.6059 5.13716 19.4307 4.97999L17.9884 3.72999C17.8071 3.57819 17.5642 3.4942 17.3121 3.4961C17.0599 3.498 16.8188 3.58564 16.6405 3.74014C16.4622 3.89465 16.3611 4.10366 16.3589 4.32216C16.3567 4.54066 16.4536 4.75116 16.6288 4.90833L18.0711 6.15833ZM16.6288 9.90833C16.8091 10.0646 17.0536 10.1523 17.3086 10.1523C17.5636 10.1523 17.8081 10.0646 17.9884 9.90833L19.4307 8.65833C19.5225 8.58145 19.5958 8.4895 19.6462 8.38783C19.6966 8.28616 19.7231 8.17681 19.7242 8.06616C19.7253 7.95551 19.701 7.84578 19.6527 7.74336C19.6043 7.64095 19.5329 7.54791 19.4426 7.46966C19.3523 7.39142 19.245 7.32954 19.1268 7.28764C19.0086 7.24574 18.882 7.22466 18.7544 7.22562C18.6267 7.22658 18.5005 7.24957 18.3832 7.29324C18.2659 7.33692 18.1598 7.4004 18.0711 7.47999L16.6288 8.72999C16.4485 8.88627 16.3473 9.09819 16.3473 9.31916C16.3473 9.54013 16.4485 9.75205 16.6288 9.90833ZM21.6355 6.40249C21.8905 6.40245 22.135 6.31462 22.3153 6.15833L23.7576 4.90833C23.8495 4.83145 23.9227 4.7395 23.9731 4.63783C24.0235 4.53616 24.05 4.42681 24.0511 4.31616C24.0523 4.20551 24.0279 4.09578 23.9796 3.99336C23.9312 3.89095 23.8598 3.79791 23.7696 3.71966C23.6793 3.64142 23.5719 3.57954 23.4537 3.53764C23.3356 3.49574 23.209 3.47466 23.0813 3.47562C22.9536 3.47658 22.8274 3.49957 22.7101 3.54324C22.5928 3.58692 22.4867 3.6504 22.398 3.72999L20.9557 4.97999C20.8213 5.09654 20.7297 5.24501 20.6926 5.40663C20.6556 5.56826 20.6746 5.73579 20.7474 5.88804C20.8201 6.04029 20.9433 6.17042 21.1014 6.26199C21.2595 6.35356 21.4454 6.40246 21.6355 6.40249Z" fill="white"/>
</g>
<defs>
<clipPath id="clip0_1_24326">
<rect width="50" height="50" fill="white" transform="translate(0 0.986328)"/>
</clipPath>
</defs>
</svg>
