<svg width="37" height="51" viewBox="0 0 37 51" fill="none" xmlns="http://www.w3.org/2000/svg">
<g clip-path="url(#clip0_1_24314)">
<path d="M3.96484 19.5774C3.96484 27.6703 10.549 34.2545 18.6419 34.2545C26.7349 34.2545 33.319 27.6703 33.319 19.5774C33.319 11.4844 26.7349 4.90027 18.6419 4.90027C10.549 4.90027 3.96484 11.4844 3.96484 19.5774ZM18.6419 6.85722C25.656 6.85722 31.3621 12.5633 31.3621 19.5774C31.3621 26.5915 25.656 32.2975 18.6419 32.2975C11.6279 32.2975 5.92179 26.5915 5.92179 19.5774C5.92179 12.5633 11.6279 6.85722 18.6419 6.85722Z" fill="white"/>
<path d="M9.58059 17.8329L13.3733 21.5698L12.5007 26.8218C12.4709 27.0011 12.4917 27.1852 12.5606 27.3533C12.6295 27.5215 12.744 27.6671 12.8911 27.7739C13.0381 27.8807 13.2119 27.9444 13.3931 27.958C13.5742 27.9716 13.7556 27.9345 13.9169 27.8508L18.6422 25.397L23.3673 27.8508C23.5285 27.9345 23.7099 27.9717 23.8911 27.9581C24.0722 27.9446 24.246 27.8808 24.393 27.774C24.5401 27.6672 24.6545 27.5216 24.7235 27.3534C24.7924 27.1853 24.8131 27.0012 24.7833 26.8219L23.9107 21.5698L27.7034 17.8329C27.8329 17.7054 27.9244 17.5444 27.9674 17.3678C28.0105 17.1913 28.0036 17.0062 27.9473 16.8334C27.8911 16.6606 27.7878 16.5069 27.6492 16.3894C27.5105 16.272 27.3419 16.1954 27.1622 16.1683L21.8987 15.3761L19.5171 10.6132C19.4359 10.4507 19.311 10.314 19.1564 10.2184C19.0019 10.1229 18.8237 10.0722 18.642 10.0722C18.4603 10.0722 18.2822 10.1229 18.1276 10.2184C17.9731 10.314 17.8482 10.4507 17.767 10.6132L15.3854 15.3761L10.1219 16.1683C9.94221 16.1954 9.77362 16.2719 9.635 16.3894C9.49637 16.5069 9.39319 16.6606 9.33701 16.8334C9.28083 17.0062 9.27387 17.1912 9.31691 17.3678C9.35995 17.5443 9.45118 17.7054 9.58059 17.8329ZM16.1792 17.2354C16.4942 17.1881 16.7663 16.9904 16.9089 16.7057L18.6422 13.2388L20.3756 16.7058C20.4458 16.8461 20.5488 16.9675 20.6758 17.0597C20.8028 17.1519 20.9501 17.2122 21.1052 17.2355L24.9362 17.8124L22.1754 20.5318C22.0637 20.6421 21.9801 20.7775 21.9316 20.9268C21.8831 21.076 21.8712 21.2347 21.8968 21.3896L22.5321 25.2121L19.0928 23.4263C18.9535 23.3541 18.7989 23.3163 18.642 23.3163C18.4851 23.3163 18.3304 23.3541 18.1912 23.4263L14.752 25.2121L15.3872 21.3896C15.413 21.2347 15.4012 21.076 15.3527 20.9267C15.3042 20.7774 15.2205 20.642 15.1087 20.5318L12.3483 17.8124L16.1792 17.2354ZM19.6207 1.9648C19.6207 2.50521 19.1826 2.94328 18.6422 2.94328C18.1018 2.94328 17.6638 2.50521 17.6638 1.9648C17.6638 1.42439 18.1018 0.986328 18.6422 0.986328C19.1826 0.986328 19.6207 1.42439 19.6207 1.9648Z" fill="white"/>
<path d="M14.0303 1.56274C5.79931 3.66372 0.0507812 11.0715 0.0507812 19.5769C0.0507812 24.8595 2.27192 29.8372 6.17084 33.3623L0.27583 43.7513C0.18305 43.9149 0.1394 44.1019 0.150108 44.2897C0.160815 44.4775 0.225425 44.6582 0.336203 44.8103C0.44698 44.9623 0.599231 45.0792 0.774726 45.147C0.950222 45.2147 1.14153 45.2304 1.32573 45.1923L8.02025 43.8022L10.3732 50.4325C10.4359 50.6092 10.548 50.7641 10.6962 50.8788C10.8444 50.9936 11.0224 51.0634 11.2092 51.0798C11.3959 51.0963 11.5834 51.0588 11.7494 50.9717C11.9154 50.8846 12.0529 50.7517 12.1455 50.5888L18.6418 39.1682L25.1376 50.5888C25.223 50.7389 25.3466 50.8638 25.4959 50.9507C25.6452 51.0376 25.8148 51.0833 25.9876 51.0834C26.0162 51.0834 26.0453 51.0822 26.074 51.08C26.2607 51.0633 26.4387 50.9935 26.587 50.8788C26.7352 50.764 26.8474 50.6091 26.9103 50.4325L29.2628 43.8022L35.9573 45.1923C36.3335 45.2703 36.7206 45.1209 36.9469 44.8105C37.0578 44.6585 37.1225 44.4777 37.1332 44.2898C37.1439 44.1019 37.1002 43.9149 37.0072 43.7513L31.1124 33.3623C35.0115 29.8371 37.2325 24.8595 37.2325 19.5769C37.2325 11.0714 31.484 3.66372 23.2533 1.56274C23.1288 1.53091 22.9993 1.52392 22.8721 1.54217C22.7449 1.56042 22.6225 1.60355 22.512 1.6691C22.4015 1.73465 22.3049 1.82133 22.2279 1.9242C22.1509 2.02706 22.0949 2.14409 22.0631 2.26861C21.9294 2.79229 22.2454 3.32507 22.7691 3.45882C30.1327 5.33857 35.2758 11.9667 35.2758 19.5769C35.2758 28.8392 27.7534 36.211 18.6418 36.211C9.52358 36.211 2.00773 28.8331 2.00773 19.5769C2.00773 11.9667 7.15049 5.33857 14.5142 3.45882C15.0379 3.32507 15.3539 2.79229 15.2206 2.26861C15.1889 2.14408 15.1329 2.02704 15.0558 1.92417C14.9788 1.8213 14.8823 1.73461 14.7717 1.66906C14.6612 1.6035 14.5388 1.56038 14.4116 1.54213C14.2844 1.52389 14.1548 1.53089 14.0303 1.56274ZM11.5023 47.7623L9.57945 42.3436C9.50039 42.1207 9.34328 41.934 9.13718 41.818C8.93109 41.702 8.68997 41.6646 8.45841 41.7126L3.04511 42.8367L7.71047 34.6145C10.4306 36.592 13.6516 37.7968 17.0009 38.0949L11.5023 47.7623ZM28.8248 41.7126C28.5932 41.6646 28.3521 41.7021 28.146 41.8181C27.9399 41.9341 27.7828 42.1208 27.7037 42.3437L25.7812 47.7623L20.2822 38.0949C23.632 37.7968 26.8526 36.592 29.5732 34.6145L34.2386 42.8366L28.8248 41.7126Z" fill="white"/>
</g>
<defs>
<clipPath id="clip0_1_24314">
<rect width="37" height="50" fill="white" transform="translate(0 0.986328)"/>
</clipPath>
</defs>
</svg>
