<svg width="50" height="51" viewBox="0 0 50 51" fill="none" xmlns="http://www.w3.org/2000/svg">
<path fill-rule="evenodd" clip-rule="evenodd" d="M17.1605 7.43275C18.0795 6.06415 19.4068 4.98245 20.9755 4.32361C22.5441 3.66477 24.2842 3.45819 25.9769 3.72984C27.6696 4.0015 29.2394 4.73925 30.4891 5.85039C31.7387 6.96152 32.6124 8.39644 33.0003 9.97478C33.0146 10.0154 33.0246 10.0573 33.0303 10.0998C33.5141 12.2086 33.099 14.4124 31.8747 16.2347C30.6504 18.057 28.7154 19.3515 26.4878 19.8383C26.4447 19.8517 26.4003 19.8612 26.3553 19.8665C24.6772 20.2079 22.9297 20.0738 21.3321 19.4811C19.7345 18.8884 18.3582 17.8635 17.3758 16.5351C16.3935 15.2067 15.849 13.6341 15.8107 12.0146C15.7724 10.3952 16.242 8.80118 17.1605 7.43275ZM22.9191 5.1095C21.2701 5.45768 19.8 6.33462 18.7593 7.59092C17.7186 8.84722 17.1718 10.4051 17.2119 11.9993C17.252 13.5934 17.8766 15.125 18.9793 16.3333C20.082 17.5416 21.5946 18.3517 23.2593 18.6256C24.924 18.8995 26.6378 18.6203 28.1088 17.8356C29.5798 17.0508 30.7169 15.809 31.3265 14.3218C31.936 12.8346 31.9802 11.194 31.4516 9.67944C30.923 8.16491 29.8542 6.87019 28.4274 6.01588C27.6179 5.52962 26.7145 5.1992 25.7692 5.04365C24.8238 4.8881 23.8553 4.91048 22.9191 5.1095ZM36.7269 20.0127C36.5204 20.265 35.5557 21.412 35.4539 21.5985C35.3271 21.832 35.2906 22.0999 35.3506 22.356C35.4107 22.6121 35.5636 22.8405 35.7829 23.0017L41.7412 27.3447C41.9912 27.5256 42.3069 27.606 42.6195 27.5681C42.932 27.5303 43.216 27.3773 43.4095 27.1427L44.5677 25.7278C44.7597 25.4919 44.8449 25.1939 44.8049 24.8989C44.7649 24.6039 44.6029 24.3359 44.3542 24.1532L38.3957 19.8102C38.1455 19.6296 37.8299 19.5495 37.5175 19.5874C37.2051 19.6252 36.9212 19.7779 36.7274 20.0123L36.7269 20.0127ZM16.533 6.01515C14.9114 8.01107 14.1927 10.5313 14.5338 13.0256C14.8748 15.5199 16.2479 17.7855 18.3531 19.3277C20.4584 20.8699 23.1248 21.5634 25.7701 21.2567C28.4154 20.95 30.8247 19.6681 32.4717 17.6909L32.538 17.6105C34.1628 15.6074 34.8788 13.0777 34.5286 10.5769C34.1785 8.07605 32.7909 5.80859 30.6705 4.27242C28.5501 2.73625 25.8703 2.05695 23.2196 2.38371C20.5689 2.71046 18.164 4.01655 16.533 6.01515ZM32.7323 19.4233L34.4683 20.6012L35.5848 19.2371L33.9508 18.0326C33.8521 18.1661 33.7499 18.2981 33.6442 18.4285C33.361 18.7765 33.0565 19.1087 32.7323 19.4233ZM35.6005 24.5451L40.8818 28.3945C41.2696 28.6759 41.7334 28.8484 42.2203 28.8923C42.7072 28.9362 43.1973 28.8497 43.6345 28.6427L48.4687 34.3251C48.5627 34.4375 48.606 34.5802 48.5894 34.7225C48.5727 34.8648 48.4974 34.9953 48.3797 35.0856L46.0268 36.8678C45.9077 36.9565 45.7564 36.9975 45.6056 36.9818C45.4548 36.966 45.3166 36.8949 45.2209 36.7839L35.4776 25.3312C35.2748 25.0927 35.316 24.7605 35.6004 24.545L35.6005 24.5451ZM21.1718 44.8113L19.9811 46.7566L19.98 46.756C19.8721 46.9354 19.844 47.1478 19.9019 47.3466C19.9952 47.6753 20.1965 47.7722 20.4501 47.9104L20.4494 47.9115C20.6397 48.0123 20.8641 48.0389 21.0749 47.9857C21.2857 47.9324 21.4661 47.8036 21.5776 47.6266L23.1637 45.0342C23.2715 44.8545 23.3002 44.642 23.2435 44.4425C23.1867 44.2431 23.0491 44.0727 22.8604 43.9681L22.8612 43.967C22.6025 43.8261 22.4075 43.7176 22.0697 43.803C21.8589 43.8555 21.6789 43.9847 21.569 44.1623C21.4389 44.3763 21.2949 44.595 21.1722 44.8113H21.1718ZM14.281 40.9929C14.5946 40.4884 14.7482 39.7199 14.245 39.4459C13.9857 39.3046 13.7905 39.1951 13.4516 39.2809C13.3468 39.3069 13.2486 39.3522 13.1624 39.4142C13.0763 39.4762 13.004 39.5536 12.9497 39.642L11.3635 42.2344L11.3624 42.2338C11.2544 42.4131 11.2263 42.6255 11.2842 42.8244C11.3775 43.1531 11.5789 43.25 11.8325 43.3882C12.0236 43.4924 12.2502 43.5224 12.4644 43.472C12.6786 43.4216 12.8637 43.2947 12.9807 43.1181L14.2809 40.9928L14.281 40.9929ZM18.3636 43.2191C18.4743 43.0414 18.6544 42.9118 18.8652 42.858C19.0761 42.8043 19.3009 42.8308 19.4913 42.9317L19.4906 42.9328L19.6562 43.023L19.6569 43.0219C20.0416 43.2153 20.1939 43.755 19.9983 44.073L18.7636 46.0938C18.5672 46.4149 18.2487 46.8335 17.8705 47.0039C17.5614 47.1428 17.3548 47.0259 17.0801 46.8762L17.0808 46.8751C16.8925 46.7707 16.7551 46.6007 16.6981 46.4017C16.6411 46.2027 16.6692 45.9906 16.7762 45.8109L16.7774 45.8116L18.3636 43.2191ZM17.1208 42.5949L15.5599 45.1487C15.5046 45.2343 15.4316 45.3085 15.3453 45.3668C15.2589 45.4251 15.161 45.4664 15.0573 45.4881C14.6953 45.5726 14.4888 45.4644 14.2151 45.3154L14.2159 45.3143C14.1222 45.263 14.0401 45.1948 13.9744 45.1135C13.9088 45.0323 13.8607 44.9396 13.8331 44.8407C13.7177 44.4344 13.9686 44.1591 14.1983 43.7835H14.1975L15.4982 41.6582C15.5526 41.5698 15.6249 41.4924 15.711 41.4304C15.7972 41.3684 15.8954 41.3231 16.0001 41.297C16.3398 41.2112 16.5383 41.3229 16.7936 41.462C16.9936 41.5742 17.1407 41.7541 17.2049 41.9651C17.2924 42.2444 17.227 42.3877 17.1204 42.5948L17.1208 42.5949ZM14.5448 27.3362C16.1457 27.9242 18.3236 28.8615 19.6197 29.1572C19.3748 29.4079 19.1449 29.6914 18.8935 30.0021C18.3756 30.6415 17.6977 31.4661 17.1467 32.0378C16.6648 32.5378 16.2893 32.7873 16.1335 33.4442C15.9717 34.1273 16.1238 35.0077 16.6483 35.5784C17.4352 36.4344 18.9641 36.5918 20.0401 36.2347C21.2531 35.8315 22.5132 34.7371 23.9834 34.3552C26.9533 33.5836 31.1724 36.8077 34.2659 39.1718C35.0247 39.7516 35.7182 40.2815 36.3496 40.7167C37.4254 41.4755 37.001 43.0608 35.6961 43.253C35.5016 43.2822 35.303 43.2749 35.1115 43.2315C34.92 43.1881 34.7395 43.1095 34.5802 43.0002L30.8721 40.4443C30.7216 40.3409 30.5337 40.2981 30.3498 40.3254C30.1659 40.3527 30.001 40.4478 29.8914 40.5899C29.7818 40.7319 29.7365 40.9092 29.7654 41.0827C29.7944 41.2563 29.8952 41.4119 30.0457 41.5153L33.7721 44.0831C34.0172 45.8361 32.0277 46.1114 31.2565 45.5796L28.0849 43.3933C28.0104 43.3412 27.9258 43.3035 27.8358 43.2824C27.7458 43.2613 27.6523 43.2572 27.5606 43.2704C27.4689 43.2836 27.381 43.3138 27.3017 43.3593C27.2225 43.4047 27.1536 43.4646 27.099 43.5353C27.0445 43.606 27.0053 43.6863 26.9837 43.7714C26.9622 43.8565 26.9587 43.9448 26.9736 44.0311C26.9884 44.1175 27.0212 44.2002 27.0701 44.2746C27.119 44.3489 27.183 44.4134 27.2585 44.4642L30.4301 46.6502C30.4882 46.6902 30.5482 46.7279 30.6103 46.7632C30.5405 47.4458 30.1096 48.0551 29.3517 48.059C28.9432 48.061 28.6281 47.918 28.2054 47.6451L26.0725 46.175C25.998 46.1238 25.9135 46.0869 25.8239 46.0666C25.7343 46.0462 25.6413 46.0426 25.5502 46.0561C25.4592 46.0697 25.3718 46.1 25.2932 46.1453C25.2145 46.1907 25.1461 46.2503 25.0919 46.3206C25.0376 46.3909 24.9985 46.4706 24.9769 46.5552C24.9553 46.6398 24.9516 46.7275 24.9659 46.8134C24.9802 46.8994 25.0123 46.9818 25.0604 47.056C25.1085 47.1302 25.1716 47.1948 25.2461 47.246L27.0868 48.5147C27.0251 48.8793 26.853 49.4137 26.4852 49.5897C25.9676 49.8374 25.0548 49.3986 24.2384 48.8276L22.9958 47.9587L24.3809 45.6947C24.6763 45.2112 24.7563 44.6369 24.6034 44.0978C24.4504 43.5587 24.077 43.0989 23.5651 42.8193C23.4531 42.7485 23.3342 42.6878 23.2102 42.638C22.7387 42.434 22.2064 42.3919 21.7056 42.5191C21.5335 42.5625 21.3676 42.6251 21.2112 42.7055C21.0218 42.3723 20.7413 42.093 20.3988 41.8967L20.3999 41.8949L20.193 41.784C19.695 41.512 19.1046 41.4329 18.546 41.5633C18.3851 41.0733 18.0482 40.6517 17.5933 40.3709L17.3302 40.2242L17.3309 40.2232C16.9213 39.9995 16.4467 39.9049 15.9762 39.9533C15.9362 39.2389 15.5691 38.6371 14.9447 38.2968L14.7791 38.2066C14.2667 37.9279 13.658 37.8525 13.0868 37.9968C12.5155 38.1411 12.0282 38.4934 11.7319 38.9764L11.4464 39.443C10.8638 38.8867 10.7177 38.8276 9.74017 38.2251C9.49375 38.0731 9.32936 37.9334 9.06229 37.9126C8.36055 37.8536 7.67108 37.7018 7.01416 37.4617L7.01515 37.4595C6.74998 37.3578 6.49968 37.2245 6.27036 37.0629L14.5448 27.3362ZM14.4333 24.4817L12.0803 22.6992C11.9612 22.6105 11.8099 22.5696 11.6591 22.5853C11.5083 22.601 11.3701 22.6721 11.2744 22.7832L1.53166 34.2362C1.43764 34.3486 1.39427 34.4914 1.41093 34.6337C1.42758 34.776 1.50291 34.9064 1.62064 34.9967L3.97349 36.7791C4.0926 36.8678 4.2439 36.9087 4.39471 36.8929C4.54551 36.8772 4.68371 36.8062 4.77945 36.6951L14.5227 25.2423C14.6168 25.13 14.6603 24.9873 14.6437 24.8449C14.6272 24.7026 14.552 24.5722 14.4344 24.4818L14.4333 24.4817ZM44.301 37.7972C44.6486 38.1093 45.1044 38.2919 45.5838 38.3112C46.0631 38.3305 46.5337 38.1853 46.9083 37.9023L49.2613 36.12C49.6699 35.8092 49.9314 35.3582 49.9883 34.8658C50.0452 34.3734 49.893 33.8798 49.565 33.4932L44.6841 27.7558L45.6806 26.5383C46.0996 26.0236 46.2856 25.3733 46.198 24.7296C46.1104 24.0858 45.7563 23.501 45.213 23.1029L39.2546 18.76C38.903 18.5044 38.4879 18.3381 38.0489 18.2769C37.6098 18.2158 37.1615 18.2619 36.7467 18.4109L34.688 16.893C35.7089 15.0655 36.1556 13.0009 35.9755 10.9421C35.7954 8.88327 34.9961 6.91576 33.6715 5.27095C32.3469 3.62614 30.5522 2.37243 28.4983 1.65725C26.4444 0.942072 24.2169 0.795168 22.0775 1.23381C19.9382 1.67246 17.9761 2.67841 16.4219 4.13337C14.8678 5.58834 13.7862 7.43181 13.3044 9.447C12.8226 11.4622 12.9606 13.5653 13.7022 15.509C14.4438 17.4527 15.7581 19.1562 17.4906 20.4191L17.5293 20.4478C19.5627 21.9163 22.0574 22.7026 24.6179 22.6818C27.1785 22.6611 29.6585 21.8345 31.6649 20.3332L33.9282 21.8687C33.895 22.1924 33.9299 22.5192 34.0306 22.8302C34.1314 23.1413 34.2961 23.4305 34.5154 23.6814C34.1989 23.9853 34.0016 24.3819 33.9561 24.8058C33.9106 25.2298 34.0196 25.6557 34.2651 26.0132C33.135 26.3915 32.2012 26.6691 31.2162 26.8139C29.979 26.9959 28.6061 26.9788 26.5723 26.7064C25.7024 26.5898 24.5683 26.8486 23.4645 27.2273C22.7719 27.4647 22.0943 27.7453 21.5096 28.0046C20.1505 28.0736 19.024 27.6332 17.1254 26.8906C16.626 26.6953 16.0765 26.4804 15.4684 26.2524L15.6187 26.0759C15.9467 25.6892 16.0989 25.1956 16.042 24.7032C15.985 24.2108 15.7235 23.7598 15.3149 23.449L12.962 21.6667C12.5523 21.3571 12.0292 21.2135 11.5074 21.2672C10.9856 21.321 10.5076 21.5677 10.1783 21.9534L0.435002 33.4045C0.106993 33.7912 -0.0452224 34.2847 0.011708 34.7771C0.0686385 35.2695 0.330072 35.7204 0.738727 36.0312L3.09168 37.8137C3.39462 38.0427 3.76214 38.1828 4.14868 38.2166C4.53521 38.2504 4.92375 38.1764 5.26611 38.0037C5.62746 38.2886 6.03342 38.5188 6.46953 38.6863L6.47041 38.6841C7.20884 38.9612 7.98424 39.1408 8.77468 39.2178L8.9691 39.3379C10.2555 40.1313 9.89121 39.8683 10.7192 40.6321L10.1459 41.5716C9.85043 42.055 9.7705 42.6294 9.92372 43.1683C10.0769 43.7073 10.4507 44.1668 10.9629 44.4458L10.9622 44.4469C11.4495 44.7124 11.8303 44.8532 12.4049 44.8192C12.4354 45.157 12.5519 45.4829 12.7445 45.7691C12.937 46.0554 13.2 46.2935 13.5111 46.4633L13.681 46.5542C14.1869 46.8264 14.7826 46.9095 15.3503 46.7872C15.5097 47.3092 15.8774 47.7525 16.3761 48.024C16.5313 48.0633 17.4603 48.8136 18.702 48.0885C18.8972 48.4566 19.2028 48.7624 19.5806 48.968L19.5799 48.9692L19.7481 49.0593C20.1089 49.2556 20.5207 49.3527 20.937 49.3397C21.3532 49.3266 21.7573 49.2038 22.1035 48.9853C23.3576 49.8624 24.6759 50.9198 26.0245 50.9834C27.262 51.0416 28.0332 50.2588 28.3563 49.2181C30.0819 49.7997 31.6654 48.818 31.9727 47.1463C33.604 47.2345 35.0841 46.216 35.1965 44.5841C35.7 44.6281 36.2068 44.5472 36.667 44.3495C37.1271 44.1518 37.5245 43.8441 37.8199 43.4569C38.1153 43.0698 38.2984 42.6165 38.3511 42.142C38.4038 41.6675 38.3242 41.1883 38.1203 40.7517C38.4998 40.6364 38.8648 40.4822 39.2088 40.2919C40.012 39.8399 40.8367 38.9951 40.8911 38.9625L44.302 37.7972H44.301ZM40.2768 37.7607C40.1761 37.7931 40.0846 37.8469 40.0092 37.9179C38.952 38.9092 38.5724 39.2722 37.1663 39.6348C36.664 39.3043 35.8414 38.6681 35.1535 38.142C31.8219 35.5961 27.2784 32.1241 23.6148 33.0758C22.5856 33.3432 21.6479 33.8833 20.8871 34.3217C20.2364 34.6968 19.609 35.0885 18.9236 35.0898C18.5513 35.0904 17.9683 34.9891 17.7121 34.7103C17.494 34.473 17.4409 34.0041 17.5059 33.7302C17.5431 33.5729 17.6765 33.4413 17.898 33.223C18.6172 32.4858 19.2953 31.7139 19.9295 30.9102C20.3939 30.3372 20.7923 29.8163 21.3066 29.5743C22.5997 28.9659 25.1111 27.8508 26.3795 28.0208C28.5544 28.3125 30.05 28.3263 31.431 28.1232C32.6746 27.9403 33.7809 27.5896 35.1867 27.1106L43.3532 36.7098L40.2768 37.7607Z" fill="white"/>
</svg>
