<svg width="50" height="51" viewBox="0 0 50 51" fill="none" xmlns="http://www.w3.org/2000/svg">
<path d="M33.8057 13.415C33.2628 12.96 32.5413 12.709 31.7738 12.709C31.0063 12.709 30.2848 12.96 29.7424 13.415C29.1995 13.8705 28.9004 14.4759 28.9004 15.1198C28.9004 15.7638 29.1995 16.3691 29.7419 16.8242L34.6369 20.9311C35.1793 21.3861 35.9013 21.6371 36.6688 21.6371C37.4363 21.6371 38.1575 21.3861 38.7002 20.9311L49.1585 12.1565C49.7013 11.7011 50 11.0957 50 10.4521C50 9.8082 49.7013 9.20283 49.1585 8.74736C48.6161 8.29189 47.894 8.04131 47.1266 8.04131C46.3592 8.04131 45.6375 8.29189 45.0951 8.74736L43.942 9.71475C43.0931 9.17021 42.155 8.73132 41.1567 8.41162V7.31494C41.1567 5.98545 39.8678 4.904 38.2837 4.904H29.2741V4.06709C29.2741 2.36836 27.6268 0.986328 25.6021 0.986328H15.5545C13.5298 0.986328 11.8826 2.36836 11.8826 4.06709V7.54785C11.8826 8.4916 12.7978 9.25957 13.9226 9.25957H27.234C28.3589 9.25957 29.2741 8.4916 29.2741 7.54785V6.37109H38.2833C38.9034 6.37109 39.4081 6.79453 39.4081 7.31484V7.99043C38.6835 7.86679 37.946 7.80418 37.2066 7.80352C31.0828 7.80352 26.1005 11.9836 26.1005 17.1217C26.1005 22.2597 31.0828 26.4398 37.2066 26.4398C37.9536 26.4398 38.6902 26.3769 39.4081 26.256V48.5757C39.4081 49.0961 38.9034 49.519 38.2833 49.519H2.87308C2.25281 49.519 1.74871 49.0961 1.74871 48.5757V7.31494C1.74871 6.79463 2.25281 6.37119 2.87308 6.37119H8.685C8.91689 6.37119 9.13929 6.2939 9.30326 6.15633C9.46723 6.01875 9.55935 5.83216 9.55935 5.6376C9.55935 5.44304 9.46723 5.25644 9.30326 5.11887C9.13929 4.98129 8.91689 4.904 8.685 4.904H2.87308C1.28895 4.904 0 5.98545 0 7.31494V48.5758C0 49.9049 1.28895 50.9863 2.87308 50.9863H38.2837C39.8679 50.9863 41.1568 49.9049 41.1568 48.5758V25.8318C42.5652 25.3824 43.8495 24.6968 44.9315 23.8169C47.0083 22.1297 48.2073 19.8676 48.3063 17.4472C48.3142 17.2527 48.2298 17.0636 48.0715 16.9214C47.9133 16.7792 47.6942 16.6955 47.4625 16.6888C46.9833 16.6754 46.5756 16.9917 46.5587 17.3968C46.419 20.8037 43.7489 23.6166 40.0819 24.5981C40.0319 24.6077 39.983 24.6211 39.936 24.6382C39.073 24.856 38.1569 24.9728 37.2066 24.9728C32.0471 24.9728 27.8492 21.4507 27.8492 17.1218C27.8492 12.7928 32.0471 9.2707 37.2066 9.2707C39.1772 9.27 41.0976 9.7922 42.6931 10.7626L36.6688 15.8175L33.8057 13.415ZM27.5254 7.54785C27.5254 7.57996 27.5179 7.61176 27.5032 7.64143C27.4886 7.6711 27.4671 7.69805 27.44 7.72076C27.413 7.74347 27.3808 7.76148 27.3455 7.77377C27.3101 7.78606 27.2722 7.79238 27.234 7.79238H13.9227C13.8845 7.79238 13.8466 7.78606 13.8112 7.77377C13.7759 7.76148 13.7437 7.74347 13.7167 7.72076C13.6896 7.69805 13.6681 7.6711 13.6535 7.64143C13.6388 7.61176 13.6313 7.57996 13.6313 7.54785V4.06709C13.6313 3.17715 14.4938 2.45342 15.5546 2.45342H25.6022C26.6626 2.45342 27.5254 3.17705 27.5254 4.06709V7.54785ZM46.3319 9.78496C46.436 9.69701 46.5598 9.62727 46.6963 9.57979C46.8327 9.53232 46.979 9.50805 47.1267 9.5084C47.2745 9.50813 47.4209 9.53243 47.5575 9.5799C47.6941 9.62737 47.8181 9.69706 47.9224 9.78496C48.3606 10.1526 48.3606 10.7516 47.9224 11.1193L37.4636 19.8938C37.3595 19.9818 37.2355 20.0515 37.099 20.099C36.9625 20.1464 36.8162 20.1707 36.6684 20.1704C36.5207 20.1707 36.3743 20.1464 36.2378 20.099C36.1013 20.0515 35.9774 19.9818 35.8732 19.8938L30.9782 15.787C30.8735 15.6996 30.7905 15.5956 30.734 15.4811C30.6775 15.3666 30.6486 15.2438 30.6491 15.1198C30.6486 14.9958 30.6775 14.873 30.7341 14.7585C30.7907 14.6439 30.8738 14.54 30.9787 14.4526C31.0829 14.3647 31.2068 14.295 31.3433 14.2475C31.4798 14.2 31.6262 14.1757 31.7739 14.176C31.9217 14.1757 32.068 14.2 32.2045 14.2475C32.341 14.295 32.4649 14.3647 32.5691 14.4526L36.0505 17.3735C36.1317 17.4417 36.228 17.4957 36.3341 17.5326C36.4402 17.5694 36.5538 17.5884 36.6687 17.5884C36.7835 17.5884 36.8971 17.5694 37.0032 17.5326C37.1093 17.4957 37.2057 17.4417 37.2868 17.3735L46.3319 9.78496Z" fill="white"/>
<path d="M23.7948 19.3989H13.1415C13.0267 19.3989 12.913 19.4179 12.8069 19.4548C12.7009 19.4917 12.6045 19.5457 12.5234 19.6138C12.4422 19.682 12.3779 19.7628 12.334 19.8518C12.2901 19.9408 12.2675 20.0362 12.2676 20.1325C12.2676 20.327 12.3597 20.5134 12.5236 20.6509C12.6875 20.7884 12.9097 20.8656 13.1415 20.8656H23.7948C24.0266 20.8656 24.2489 20.7884 24.4128 20.6509C24.5768 20.5135 24.6689 20.327 24.669 20.1325C24.669 19.938 24.5769 19.7514 24.413 19.6138C24.249 19.4762 24.0266 19.3989 23.7947 19.3989H23.7948ZM11.4728 11.8271H5.58991C5.35978 11.8294 5.13997 11.9076 4.97818 12.045C4.81638 12.1823 4.72564 12.3676 4.72564 12.5607C4.72564 12.7538 4.81638 12.9391 4.97818 13.0764C5.13997 13.2137 5.35978 13.292 5.58991 13.2942H11.4728C11.703 13.292 11.9228 13.2137 12.0846 13.0764C12.2464 12.9391 12.3371 12.7538 12.3371 12.5607C12.3371 12.3676 12.2464 12.1823 12.0846 12.045C11.9228 11.9076 11.703 11.8294 11.4728 11.8271ZM13.1415 24.2688H23.7948C24.0267 24.2687 24.249 24.1914 24.413 24.0539C24.5769 23.9163 24.669 23.7297 24.669 23.5352C24.6689 23.3407 24.5767 23.1542 24.4128 23.0167C24.2488 22.8792 24.0265 22.802 23.7947 22.8021H13.1415C12.9097 22.8021 12.6875 22.8793 12.5236 23.0168C12.3597 23.1542 12.2676 23.3407 12.2676 23.5352C12.2675 23.6315 12.2901 23.7269 12.334 23.8158C12.3779 23.9048 12.4422 23.9857 12.5234 24.0538C12.6045 24.122 12.7009 24.176 12.8069 24.2129C12.913 24.2498 13.0267 24.2687 13.1415 24.2688ZM27.4748 28.2955H13.1415C13.0267 28.2955 12.913 28.3145 12.8069 28.3514C12.7009 28.3883 12.6045 28.4423 12.5234 28.5104C12.4422 28.5786 12.3779 28.6594 12.334 28.7484C12.2901 28.8374 12.2675 28.9328 12.2676 29.0291C12.2675 29.1254 12.2901 29.2208 12.334 29.3098C12.3779 29.3988 12.4422 29.4797 12.5234 29.5478C12.6045 29.6159 12.7009 29.6699 12.8069 29.7068C12.913 29.7437 13.0267 29.7627 13.1415 29.7627H27.4748C27.7067 29.7627 27.9291 29.6854 28.0931 29.5478C28.2571 29.4103 28.3492 29.2237 28.3492 29.0291C28.3492 28.8345 28.2571 28.6479 28.0931 28.5104C27.9291 28.3728 27.7067 28.2955 27.4748 28.2955ZM13.1415 33.1658H20.3083C20.4231 33.1658 20.5368 33.1468 20.6428 33.1099C20.7489 33.0731 20.8452 33.019 20.9264 32.9509C21.0075 32.8828 21.0719 32.8019 21.1158 32.7129C21.1597 32.6239 21.1823 32.5285 21.1822 32.4322C21.1823 32.3359 21.1597 32.2405 21.1158 32.1515C21.0719 32.0625 21.0075 31.9817 20.9264 31.9136C20.8452 31.8454 20.7489 31.7914 20.6428 31.7545C20.5368 31.7176 20.4231 31.6986 20.3083 31.6986H13.1415C13.0267 31.6986 12.913 31.7176 12.8069 31.7545C12.7009 31.7914 12.6045 31.8454 12.5234 31.9136C12.4422 31.9817 12.3779 32.0625 12.334 32.1515C12.2901 32.2405 12.2675 32.3359 12.2676 32.4322C12.2675 32.5285 12.2901 32.6239 12.334 32.7129C12.3779 32.8019 12.4422 32.8828 12.5234 32.9509C12.6045 33.019 12.7009 33.0731 12.8069 33.1099C12.913 33.1468 13.0267 33.1658 13.1415 33.1658ZM13.1415 38.6688H23.7948C24.0249 38.6666 24.2447 38.5884 24.4065 38.451C24.5683 38.3137 24.6591 38.1284 24.6591 37.9353C24.6591 37.7422 24.5683 37.5569 24.4065 37.4196C24.2447 37.2823 24.0249 37.204 23.7948 37.2018H13.1415C12.6587 37.2018 12.2676 37.5302 12.2676 37.9353C12.2676 38.3403 12.6587 38.6688 13.1415 38.6688ZM13.1415 42.0716H27.4748C27.7067 42.0716 27.9291 41.9943 28.093 41.8567C28.257 41.7191 28.3491 41.5325 28.3491 41.338C28.349 41.1435 28.2568 40.957 28.0929 40.8195C27.929 40.682 27.7066 40.6048 27.4748 40.6048H13.1415C12.9097 40.6048 12.6874 40.682 12.5235 40.8195C12.3596 40.957 12.2676 41.1435 12.2676 41.338C12.2675 41.4343 12.2901 41.5297 12.334 41.6187C12.3779 41.7077 12.4422 41.7885 12.5234 41.8567C12.6045 41.9248 12.7009 41.9788 12.8069 42.0157C12.913 42.0526 13.0267 42.0716 13.1415 42.0716ZM7.44547 18.763C5.49819 18.763 3.91406 20.0921 3.91406 21.7259C3.91406 23.3597 5.49819 24.6888 7.44547 24.6888C9.39275 24.6888 10.9769 23.3597 10.9769 21.7259C10.9769 20.0921 9.39275 18.763 7.44547 18.763ZM7.44547 23.2216C6.4624 23.2216 5.66266 22.5507 5.66266 21.7259C5.66266 20.9011 6.4624 20.2302 7.44547 20.2302C8.42842 20.2302 9.22817 20.9011 9.22817 21.7259C9.22817 22.5507 8.42842 23.2216 7.44547 23.2216ZM7.44547 27.7676C5.49819 27.7676 3.91406 29.097 3.91406 30.7305C3.91406 32.3643 5.49819 33.6934 7.44547 33.6934C9.39275 33.6934 10.9769 32.3643 10.9769 30.7305C10.9769 29.097 9.39275 27.7676 7.44547 27.7676ZM7.44547 32.2266C6.4624 32.2266 5.66266 31.5557 5.66266 30.7309C5.66266 29.9057 6.4624 29.2348 7.44547 29.2348C8.42842 29.2348 9.22817 29.9057 9.22817 30.7309C9.22817 31.5556 8.42842 32.2266 7.44547 32.2266ZM7.44547 36.6737C5.49819 36.6737 3.91406 38.0028 3.91406 39.6366C3.91406 41.2704 5.49819 42.5995 7.44547 42.5995C9.39275 42.5995 10.9769 41.2704 10.9769 39.6366C10.9769 38.0028 9.39275 36.6737 7.44547 36.6737ZM7.44547 41.1324C6.4624 41.1324 5.66266 40.4614 5.66266 39.6366C5.66266 38.8118 6.4624 38.1409 7.44547 38.1409C8.42842 38.1409 9.22817 38.8118 9.22817 39.6366C9.22817 40.4614 8.42842 41.1324 7.44547 41.1324Z" fill="white"/>
</svg>
