<svg width="60" height="60" viewBox="0 0 60 60" fill="none" xmlns="http://www.w3.org/2000/svg">
<g clip-path="url(#clip0_1_27424)">
<path d="M29.0625 16.8752H26.4778L28.3059 15.0471L24.3281 11.0702L22.5 12.8984V10.3127H16.875V12.8984L15.0469 11.0702L11.0691 15.0471L12.8972 16.8752H10.3125V22.5002H12.8972L11.0691 24.3274L15.0469 28.3052L16.875 26.4771V29.0627H22.5V26.4771L24.3281 28.3052L28.3059 24.3274L26.4778 22.5002H29.0625V16.8752ZM27.1875 20.6252H26.4778C25.7166 20.6252 25.0369 21.079 24.7453 21.7821C24.4538 22.4852 24.6131 23.2868 25.1522 23.8259L25.6547 24.3274L24.3281 25.654L23.8256 25.1515C23.2875 24.6134 22.4859 24.4531 21.7828 24.7446C21.0797 25.0362 20.625 25.7168 20.625 26.4771V27.1877H18.75V26.4771C18.75 25.7159 18.2953 25.0362 17.5922 24.7446C17.2499 24.6012 16.8726 24.5634 16.5086 24.6359C16.1446 24.7083 15.8106 24.8879 15.5494 25.1515L15.0469 25.654L13.7203 24.3274L14.2228 23.8259C14.7609 23.2877 14.9203 22.4852 14.6297 21.7821C14.3391 21.079 13.6584 20.6252 12.8972 20.6252H12.1875V18.7502H12.8972C13.6584 18.7502 14.3381 18.2965 14.6297 17.5934C14.9212 16.8902 14.7619 16.0887 14.2228 15.5496L13.7203 15.0471L15.0469 13.7215L15.5494 14.224C15.8108 14.4873 16.1448 14.6666 16.5087 14.7391C16.8726 14.8115 17.2498 14.7739 17.5922 14.6309C17.9352 14.4894 18.2284 14.2492 18.4346 13.9407C18.6407 13.6322 18.7505 13.2694 18.75 12.8984V12.1877H20.625V12.8984C20.625 13.6596 21.0797 14.3393 21.7828 14.6309C22.4859 14.9243 23.2875 14.7631 23.8256 14.224L24.3281 13.7215L25.6547 15.0471L25.1522 15.5496C24.6141 16.0877 24.4547 16.8902 24.7453 17.5934C25.0359 18.2965 25.7166 18.7502 26.4778 18.7502H27.1875V20.6252Z" fill="#01133C"/>
<path d="M19.6875 15.9377C17.6194 15.9377 15.9375 17.6196 15.9375 19.6877C15.9375 21.7559 17.6194 23.4377 19.6875 23.4377C21.7556 23.4377 23.4375 21.7559 23.4375 19.6877C23.4375 17.6196 21.7556 15.9377 19.6875 15.9377ZM19.6875 21.5627C18.6534 21.5627 17.8125 20.7218 17.8125 19.6877C17.8125 18.6537 18.6534 17.8127 19.6875 17.8127C20.7216 17.8127 21.5625 18.6537 21.5625 19.6877C21.5625 20.7218 20.7216 21.5627 19.6875 21.5627Z" fill="#01133C"/>
<path d="M57.1875 0.937744H47.8125C46.7784 0.937744 45.9375 1.77868 45.9375 2.81274V4.68774H40.3125V14.0627H37.5619C35.1225 6.30306 27.8831 0.937744 19.6875 0.937744C9.34875 0.937744 0.9375 9.34899 0.9375 19.6877C0.9375 28.0671 6.46406 35.1781 14.0625 37.5734V56.2502C14.0625 57.8009 15.3244 59.0627 16.875 59.0627H22.5C24.0506 59.0627 25.3125 57.8009 25.3125 56.2502V51.5627H40.3125V55.3127H45.9375V57.1877C45.9375 58.2218 46.7784 59.0627 47.8125 59.0627H57.1875C58.2216 59.0627 59.0625 58.2218 59.0625 57.1877V51.5627C59.0625 50.5287 58.2216 49.6877 57.1875 49.6877H47.8125C46.7784 49.6877 45.9375 50.5287 45.9375 51.5627V53.4377H42.1875V49.6877H25.3125V45.9377H32.8125V42.1877H34.6875V45.9377C34.6875 46.9718 35.5284 47.8127 36.5625 47.8127H45.9375C46.9716 47.8127 47.8125 46.9718 47.8125 45.9377V40.3127C47.8125 39.2787 46.9716 38.4377 45.9375 38.4377H36.5625C35.5284 38.4377 34.6875 39.2787 34.6875 40.3127H30.9375V44.0627H25.3125V37.5724C31.7175 35.5821 36.6619 30.2731 38.0438 23.4377H40.3125V32.8127H45.9375V34.6877C45.9375 35.7218 46.7784 36.5627 47.8125 36.5627H57.1875C58.2216 36.5627 59.0625 35.7218 59.0625 34.6877V29.0627C59.0625 28.0287 58.2216 27.1877 57.1875 27.1877H47.8125C46.7784 27.1877 45.9375 28.0287 45.9375 29.0627V30.9377H42.1875V21.5627H30.9375V23.4377H32.2687C30.6328 28.9334 25.5159 32.8127 19.6875 32.8127C12.45 32.8127 6.5625 26.9252 6.5625 19.6877C6.5625 12.4502 12.45 6.56274 19.6875 6.56274C22.1698 6.56607 24.6004 7.27223 26.698 8.59952C28.7956 9.92681 30.4745 11.821 31.5403 14.0627H30.9375V15.9377H42.1875V6.56274H45.9375V8.43774C45.9375 9.47181 46.7784 10.3127 47.8125 10.3127H57.1875C58.2216 10.3127 59.0625 9.47181 59.0625 8.43774V2.81274C59.0625 1.77868 58.2216 0.937744 57.1875 0.937744ZM47.8125 51.5627H57.1875L57.1884 57.1877H47.8125V51.5627ZM36.5625 40.3127H45.9375L45.9384 45.9377H36.5625V40.3127ZM47.8125 29.0627H57.1875L57.1884 34.6877H47.8125V29.0627ZM22.5 57.1877H16.875C16.3584 57.1877 15.9375 56.7677 15.9375 56.2502V44.0627H23.4375V56.2502C23.4375 56.7677 23.0166 57.1877 22.5 57.1877ZM23.4375 42.1877H15.9375V38.0599C17.1497 38.3065 18.4031 38.4377 19.6875 38.4377C20.9719 38.4377 22.2234 38.299 23.4375 38.0552V42.1877ZM19.6875 4.68774C11.4169 4.68774 4.6875 11.4171 4.6875 19.6877C4.6875 27.9584 11.4169 34.6877 19.6875 34.6877C26.5331 34.6877 32.5087 29.9974 34.2 23.4377H36.1313C34.4053 31.1037 27.6656 36.5627 19.6875 36.5627C10.3828 36.5627 2.8125 28.9924 2.8125 19.6877C2.8125 10.3831 10.3828 2.81274 19.6875 2.81274C26.8669 2.81274 33.2363 7.38212 35.5959 14.0627H33.5841C31.3041 8.43118 25.8084 4.68774 19.6875 4.68774ZM47.8125 8.43774V2.81274H57.1875L57.1884 8.43774H47.8125Z" fill="#01133C"/>
<path d="M49.6875 4.68774H51.5625V6.56274H49.6875V4.68774ZM53.4375 4.68774H55.3125V6.56274H53.4375V4.68774ZM57.1875 14.0627H47.8125C46.7784 14.0627 45.9375 14.9037 45.9375 15.9377V17.8127H30.9375V19.6877H45.9375V21.5627C45.9375 22.5968 46.7784 23.4377 47.8125 23.4377H57.1875C58.2216 23.4377 59.0625 22.5968 59.0625 21.5627V15.9377C59.0625 14.9037 58.2216 14.0627 57.1875 14.0627ZM47.8125 21.5627V15.9377H57.1875L57.1884 21.5627H47.8125Z" fill="#01133C"/>
<path d="M49.6875 17.8127H51.5625V19.6877H49.6875V17.8127ZM53.4375 17.8127H55.3125V19.6877H53.4375V17.8127ZM49.6875 30.9377H51.5625V32.8127H49.6875V30.9377ZM53.4375 30.9377H55.3125V32.8127H53.4375V30.9377ZM38.4375 42.1877H40.3125V44.0627H38.4375V42.1877ZM42.1875 42.1877H44.0625V44.0627H42.1875V42.1877ZM49.6875 53.4377H51.5625V55.3127H49.6875V53.4377ZM53.4375 53.4377H55.3125V55.3127H53.4375V53.4377Z" fill="#01133C"/>
</g>
<defs>
<clipPath id="clip0_1_27424">
<rect width="60" height="60" fill="white" transform="translate(0 0.000244141)"/>
</clipPath>
</defs>
</svg>
