<svg width="40" height="40" viewBox="0 0 40 40" fill="none" xmlns="http://www.w3.org/2000/svg">
<g clip-path="url(#clip0_1_28214)">
<path d="M33.6255 28.7775C35.2128 27.9641 36.3023 26.312 36.3023 24.4092C36.3023 22.7202 35.4444 21.2278 34.1414 20.3449L36.312 15.3094C36.5041 15.3479 36.7027 15.3684 36.906 15.3684C38.569 15.3684 39.922 14.0155 39.922 12.3525C39.922 10.6895 38.5691 9.33656 36.906 9.33656C35.9929 9.33656 35.1739 9.745 34.6204 10.3882L22.8878 3.96297C22.9728 3.68117 23.016 3.38841 23.0159 3.09406C23.0159 1.43109 21.663 0.078125 20.0001 0.078125C18.3371 0.078125 16.9841 1.43102 16.9841 3.09406C16.9841 3.39609 17.0293 3.68766 17.1123 3.96297L5.37969 10.3882C4.82617 9.74508 4.00719 9.33656 3.09406 9.33656C1.43109 9.33656 0.078125 10.6895 0.078125 12.3525C0.078125 14.0155 1.43109 15.3684 3.09406 15.3684C3.29734 15.3684 3.49594 15.3479 3.68813 15.3094L5.85875 20.3448C4.55578 21.2278 3.69773 22.7202 3.69773 24.4092C3.69773 26.312 4.78734 27.9641 6.37461 28.7775C2.96508 29.7087 0.356562 32.718 0.0814844 36.3848C0.0570312 36.7113 0.170156 37.0356 0.391797 37.2745C0.613437 37.5134 0.928359 37.6504 1.25578 37.6504H10.5034C10.4503 37.9563 10.412 38.2647 10.3888 38.5744C10.3759 38.7465 10.3986 38.9195 10.4554 39.0824C10.5123 39.2454 10.602 39.3949 10.7191 39.5217C10.8368 39.6479 10.9792 39.7486 11.1375 39.8175C11.2958 39.8863 11.4665 39.9218 11.6391 39.9219H28.3609C28.7097 39.9219 29.045 39.776 29.281 39.5216C29.3981 39.3948 29.4878 39.2453 29.5446 39.0823C29.6014 38.9194 29.6241 38.7465 29.6112 38.5744C29.5878 38.262 29.5494 37.9537 29.4966 37.6504H38.7442C38.9063 37.6503 39.0667 37.6169 39.2154 37.5523C39.364 37.4876 39.4978 37.393 39.6084 37.2745C39.7183 37.1553 39.8026 37.0149 39.856 36.8618C39.9094 36.7088 39.9307 36.5463 39.9186 36.3847C39.6434 32.718 37.035 29.7087 33.6255 28.7775ZM35.0523 24.4092C35.0523 26.4253 33.4121 28.0655 31.396 28.0655C29.3799 28.0655 27.7398 26.4253 27.7398 24.4092C27.7398 22.3931 29.38 20.753 31.396 20.753C33.4121 20.7529 35.0523 22.3931 35.0523 24.4092ZM36.906 10.5866C37.8798 10.5866 38.672 11.3787 38.672 12.3525C38.672 13.3263 37.8798 14.1184 36.906 14.1184C35.9323 14.1184 35.1401 13.3263 35.1401 12.3525C35.1401 11.3787 35.9323 10.5866 36.906 10.5866ZM20.0001 1.32812C20.9738 1.32812 21.766 2.12031 21.766 3.09406C21.766 4.06781 20.9738 4.86 20.0001 4.86C19.0263 4.86 18.2341 4.06781 18.2341 3.09406C18.2341 2.12031 19.0263 1.32812 20.0001 1.32812ZM1.32812 12.3525C1.32812 11.3787 2.12031 10.5866 3.09406 10.5866C4.06781 10.5866 4.86 11.3787 4.86 12.3525C4.86 13.3263 4.06781 14.1184 3.09406 14.1184C2.12031 14.1184 1.32812 13.3262 1.32812 12.3525ZM4.83523 14.8127C5.60578 14.2657 6.11 13.3671 6.11 12.3524C6.11 12.0504 6.06484 11.7588 5.98187 11.4835L17.7145 5.05828C18.268 5.70141 19.087 6.10992 20.0001 6.10992C20.9132 6.10992 21.7322 5.70148 22.2857 5.05836L34.0183 11.4836C33.9333 11.7654 33.8901 12.0582 33.8902 12.3525C33.8902 13.3672 34.3944 14.2658 35.1649 14.8127L33.0231 19.7814C32.5005 19.5969 31.9503 19.5028 31.3961 19.503C28.6908 19.503 26.4898 21.7039 26.4898 24.4092C26.4898 26.3112 27.5785 27.9627 29.1648 28.7765C27.6518 29.1872 26.2712 30.0124 25.1748 31.1802C24.2966 30.6172 23.3241 30.1925 22.2894 29.9369C24.18 29.0669 25.4965 27.1559 25.4965 24.942C25.4965 21.9112 23.0308 19.4455 20.0001 19.4455C16.9694 19.4455 14.5037 21.9112 14.5037 24.942C14.5037 27.1559 15.8202 29.067 17.7108 29.9369C16.6762 30.1925 15.7035 30.6172 14.8255 31.1802C13.729 30.0124 12.3484 29.1872 10.8355 28.7765C12.4217 27.9627 13.5105 26.3112 13.5105 24.4091C13.5105 21.7038 11.3095 19.5029 8.60414 19.5029C8.04995 19.5027 7.49978 19.5969 6.97719 19.7813L4.83523 14.8127ZM20 29.1883C17.6585 29.1883 15.7536 27.2834 15.7536 24.942C15.7536 22.6005 17.6585 20.6955 20 20.6955C22.3415 20.6955 24.2464 22.6005 24.2464 24.942C24.2464 27.2834 22.3414 29.1883 20 29.1883ZM4.94766 24.4092C4.94766 22.3931 6.58789 20.753 8.60398 20.753C10.6201 20.753 12.2603 22.3932 12.2603 24.4092C12.2603 26.4253 10.6201 28.0655 8.60398 28.0655C6.58789 28.0655 4.94766 26.4253 4.94766 24.4092ZM1.33422 36.4004C1.65562 32.6528 4.83383 29.7289 8.60398 29.7289C10.5731 29.7289 12.4378 30.5232 13.8108 31.9275C12.4277 33.0908 11.3704 34.6348 10.8097 36.4004H1.33422ZM11.6353 38.6715C11.6353 38.6715 11.6351 38.6704 11.6353 38.6678C11.9617 34.3169 15.6359 30.9087 20 30.9087C24.3641 30.9087 28.0383 34.3169 28.3609 38.6719L11.6353 38.6715ZM29.1902 36.4004C28.6295 34.6348 27.5722 33.0908 26.1891 31.9275C27.5621 30.5232 29.4268 29.7289 31.396 29.7289C35.1659 29.7289 38.344 32.6531 38.6658 36.4004H29.1902ZM17.2128 13.5951H17.9657V17.8759C17.9657 18.4109 18.4009 18.8461 18.9359 18.8461H21.064C21.599 18.8461 22.0343 18.4109 22.0343 17.8759V13.5951H22.7868C23.171 13.5951 23.5152 13.3804 23.685 13.0348C23.8538 12.6913 23.8125 12.289 23.5774 11.9848L20.7906 8.37852C20.6976 8.2573 20.5779 8.15919 20.4408 8.09181C20.3037 8.02444 20.1529 7.98962 20.0001 7.99008H20C19.8472 7.98961 19.6964 8.02442 19.5592 8.09179C19.4221 8.15917 19.3023 8.25729 19.2093 8.37852L16.4226 11.9848C16.1875 12.2891 16.1462 12.6913 16.315 13.0348C16.4848 13.3805 16.8289 13.5951 17.2128 13.5951ZM20 9.39953L22.2762 12.3451H21.4094C21.2436 12.3451 21.0846 12.4109 20.9674 12.5281C20.8502 12.6453 20.7844 12.8043 20.7844 12.9701V17.5961H19.2157V12.9701C19.2157 12.8043 19.1499 12.6453 19.0326 12.5281C18.9154 12.4109 18.7565 12.3451 18.5907 12.3451H17.7238L20 9.39953ZM8.88961 17.8851C8.88961 18.3733 9.2868 18.7705 9.775 18.7705H11.3802C11.8684 18.7705 12.2656 18.3733 12.2656 17.8851V14.8096H12.6797C13.0285 14.8096 13.3409 14.6148 13.4951 14.3012C13.6484 13.9891 13.6111 13.6237 13.3976 13.3475L11.2955 10.6274C11.2111 10.5173 11.1024 10.4282 10.9779 10.367C10.8534 10.3058 10.7165 10.2742 10.5777 10.2746H10.5775C10.4388 10.2742 10.3018 10.3058 10.1773 10.3669C10.0528 10.4281 9.94405 10.5172 9.85961 10.6273L7.75758 13.3475C7.54414 13.6237 7.50672 13.9891 7.66 14.3012C7.81414 14.6149 8.12648 14.8097 8.475 14.8097H8.88953L8.88961 17.8851ZM10.5777 11.7424L11.982 13.5596H11.6408C11.475 13.5596 11.316 13.6255 11.1988 13.7427C11.0816 13.8599 11.0158 14.0188 11.0158 14.1846V17.5205H10.1397V14.1847C10.1397 14.0189 10.0738 13.86 9.95663 13.7427C9.83942 13.6255 9.68045 13.5597 9.51469 13.5597H9.17352L10.5777 11.7424ZM27.3199 14.8096H27.7343V17.8851C27.7343 18.3733 28.1315 18.7705 28.6198 18.7705H30.225C30.7133 18.7705 31.1105 18.3733 31.1105 17.8851V14.8096H31.5245C31.8734 14.8096 32.1857 14.6148 32.3399 14.3012C32.4933 13.9891 32.4559 13.6237 32.2425 13.3474L30.1405 10.6273C30.056 10.5173 29.9474 10.4281 29.8228 10.3669C29.6983 10.3058 29.5614 10.2741 29.4227 10.2745H29.4224C29.2837 10.2741 29.1467 10.3057 29.0222 10.3668C28.8977 10.428 28.789 10.5171 28.7045 10.6272L26.6025 13.3474C26.3891 13.6236 26.3516 13.989 26.5049 14.3011C26.659 14.6148 26.9714 14.8096 27.3199 14.8096ZM29.4224 11.7424L30.8267 13.5596H30.4855C30.3197 13.5596 30.1607 13.6255 30.0435 13.7427C29.9263 13.8599 29.8605 14.0188 29.8605 14.1846V17.5205H28.9843V14.1847C28.9843 14.0189 28.9184 13.86 28.8012 13.7427C28.684 13.6255 28.5251 13.5597 28.3593 13.5597H28.0181L29.4224 11.7424Z" fill="#EF0F3A"/>
</g>
<defs>
<clipPath id="clip0_1_28214">
<rect width="40" height="40" fill="#EF0F3A"/>
</clipPath>
</defs>
</svg>
