<svg width="16" height="16" viewBox="0 0 16 16" fill="none" xmlns="http://www.w3.org/2000/svg">
<path d="M11.9367 5.9528C12.1626 6.01733 12.3783 6.07787 12.7693 6.07787C13.5946 6.07787 14.4218 5.73787 15.0389 5.1208C15.8285 4.33093 16.1661 3.19973 15.9199 2.16827C15.9089 2.12215 15.8858 2.07981 15.8529 2.04563C15.82 2.01146 15.7786 1.98668 15.733 1.97387C15.6874 1.96077 15.6391 1.96016 15.5931 1.97213C15.5472 1.98409 15.5053 2.00818 15.4719 2.04187L14.8413 2.67253C14.6394 2.87413 14.3706 2.98533 14.0839 2.98533C13.7973 2.98533 13.5285 2.8744 13.3269 2.67253C13.1262 2.47155 13.0136 2.19918 13.0136 1.9152C13.0136 1.63122 13.1262 1.35885 13.3269 1.15787L13.9573 0.527466C13.9909 0.493964 14.015 0.452081 14.027 0.406152C14.039 0.360223 14.0385 0.311916 14.0256 0.266232C14.0127 0.220547 13.9878 0.179144 13.9535 0.146308C13.9192 0.113471 13.8768 0.0903949 13.8306 0.0794661C12.7991 -0.166934 11.6682 0.170933 10.8783 0.960533C10.1042 1.7344 9.71058 2.888 10.0463 4.06267L7.99858 6.11013L5.95218 4.06373C6.28712 2.89093 5.89565 1.73573 5.12018 0.960533C4.33058 0.170666 3.19938 -0.167467 2.16818 0.0794661C2.12214 0.0906185 2.07989 0.113812 2.04576 0.146671C2.01163 0.179529 1.98685 0.220871 1.97396 0.266459C1.96107 0.312048 1.96054 0.360243 1.97241 0.406108C1.98428 0.451972 2.00813 0.493855 2.04152 0.527466L2.67192 1.15787C2.87254 1.35885 2.98522 1.63122 2.98522 1.9152C2.98522 2.19918 2.87254 2.47155 2.67192 2.67253C2.47032 2.8744 2.20152 2.98533 1.91485 2.98533C1.62818 2.98533 1.35938 2.87413 1.15752 2.67253L0.527118 2.0416C0.493597 2.00804 0.451734 1.98404 0.405844 1.97205C0.359953 1.96007 0.311697 1.96054 0.26605 1.97342C0.220403 1.9863 0.179016 2.01112 0.146158 2.04532C0.113299 2.07952 0.0901572 2.12187 0.079118 2.168C-0.167015 3.19947 0.170585 4.33067 0.960185 5.12053C1.57778 5.73787 2.40552 6.07813 3.22952 6.07813C3.61965 6.07813 3.85512 6.012 4.06312 5.95227L6.10978 7.99867L4.06232 10.0461C2.89138 9.71227 1.73725 10.1013 0.960185 10.8781C0.170585 11.668 -0.167015 12.7992 0.079118 13.8307C0.0901342 13.8768 0.113271 13.9191 0.146136 13.9533C0.179001 13.9875 0.2204 14.0123 0.266051 14.0251C0.358851 14.0509 0.458851 14.0251 0.527118 13.9571L1.15778 13.3264C1.35886 13.1261 1.63114 13.0136 1.91498 13.0136C2.19883 13.0136 2.47111 13.1261 2.67218 13.3264C2.87405 13.5283 2.98498 13.7973 2.98498 14.0837C2.98498 14.3701 2.87378 14.6392 2.67218 14.8411L2.04178 15.4715C2.00815 15.505 1.98407 15.5469 1.97205 15.5928C1.96004 15.6387 1.96051 15.687 1.97343 15.7327C1.98634 15.7784 2.01123 15.8198 2.04552 15.8526C2.07981 15.8855 2.12225 15.9085 2.16845 15.9195C2.39138 15.9728 2.61912 15.9987 2.84685 15.9987C3.67272 15.9987 4.50178 15.6576 5.12072 15.0384C5.89485 14.2645 6.28845 13.1109 5.95272 11.9363L8.00045 9.8888L10.0469 11.9352C9.71192 13.108 10.1034 14.2632 10.8789 15.0384C11.4981 15.6573 12.3269 15.9987 13.1527 15.9987C13.3805 15.9987 13.6082 15.9728 13.8311 15.9195C13.8772 15.9083 13.9194 15.8851 13.9535 15.8523C13.9877 15.8194 14.0124 15.7781 14.0253 15.7325C14.0382 15.6869 14.0388 15.6387 14.0269 15.5928C14.015 15.547 13.9912 15.5051 13.9578 15.4715L13.3274 14.8411C13.1255 14.6392 13.0146 14.3701 13.0146 14.0837C13.0146 13.7973 13.1258 13.5283 13.3274 13.3264C13.5285 13.1261 13.8007 13.0136 14.0846 13.0136C14.3684 13.0136 14.6407 13.1261 14.8418 13.3264L15.4725 13.9571C15.506 13.9905 15.5479 14.0143 15.5938 14.0262C15.6396 14.0381 15.6878 14.0376 15.7334 14.0247C15.779 14.0119 15.8203 13.9871 15.8532 13.953C15.886 13.9189 15.9093 13.8767 15.9205 13.8307C16.1666 12.7992 15.829 11.668 15.0394 10.8781C14.2663 10.1053 13.1109 9.70933 11.9365 10.0464L9.88978 8L11.9373 5.95253L11.9367 5.9528ZM11.2557 1.33733C11.7741 0.819199 12.465 0.533066 13.1506 0.533066H13.1967L12.9498 0.780266C12.6463 1.08373 12.4791 1.4864 12.4791 1.91467C12.4791 2.34293 12.6463 2.7456 12.9498 3.04907C13.2533 3.35253 13.6551 3.51813 14.0842 3.51813C14.5133 3.51813 14.9159 3.35147 15.2186 3.04907L15.4655 2.80187C15.4786 3.50293 15.1917 4.21333 14.6618 4.7432C14.0042 5.4008 13.0666 5.68293 12.2095 5.4784C11.7917 5.38533 11.425 5.18373 11.1202 4.87867C10.8154 4.5736 10.6133 4.20693 10.5194 3.78507C10.3159 2.93253 10.5981 1.9944 11.2557 1.3368V1.33733ZM3.78578 5.48C2.93325 5.68373 1.99512 5.40133 1.33752 4.74373C0.807651 4.21387 0.520718 3.50347 0.533785 2.8024L0.780718 3.0496C1.08338 3.352 1.48632 3.51867 1.91512 3.51867C2.34392 3.51867 2.74712 3.352 3.04925 3.0496C3.35272 2.74613 3.51992 2.34347 3.51992 1.9152C3.51992 1.48693 3.35272 1.08427 3.04925 0.780799L2.80232 0.533599C3.51058 0.525866 4.21352 0.807733 4.74365 1.3376C5.40125 1.9952 5.68338 2.93307 5.47912 3.78987C5.38632 4.20747 5.18445 4.57387 4.87912 4.8792C4.57378 5.18453 4.20765 5.38587 3.78578 5.48ZM4.60365 5.73867C4.84373 5.61088 5.06362 5.44832 5.25618 5.25627C5.44814 5.06361 5.61068 4.84374 5.73858 4.60373L7.62205 6.48693L6.48712 7.62187L4.60365 5.73867ZM4.74365 14.6621C4.21378 15.1917 3.51192 15.4752 2.80232 15.4661L3.04925 15.2189C3.35165 14.9163 3.51832 14.5133 3.51832 14.0845C3.51832 13.6557 3.35165 13.2528 3.04925 12.9501C2.74823 12.6497 2.3403 12.4809 1.91498 12.4809C1.48967 12.4809 1.08174 12.6497 0.780718 12.9501L0.533785 13.1973C0.520718 12.4963 0.807651 11.7859 1.33752 11.256C1.99538 10.5987 2.93325 10.3168 3.78978 10.5208C4.20765 10.6139 4.57432 10.8155 4.87912 11.1205C5.18392 11.4256 5.38605 11.7923 5.47992 12.2141C5.68338 13.0667 5.40125 14.0045 4.74365 14.6621ZM5.25618 10.7435C5.06331 10.5513 4.84317 10.3885 4.60285 10.2605L10.2605 4.60293C10.3884 4.84331 10.551 5.06354 10.7431 5.25653C10.936 5.44873 11.1561 5.61146 11.3965 5.73947L5.73885 11.3971C5.61092 11.1567 5.44829 10.9365 5.25618 10.7435ZM12.7711 10.4549C13.4562 10.4549 14.1455 10.7395 14.6621 11.256C15.1919 11.7859 15.4789 12.4963 15.4658 13.1973L15.2189 12.9501C14.9178 12.6497 14.5099 12.4809 14.0846 12.4809C13.6593 12.4809 13.2513 12.6497 12.9503 12.9501C12.8011 13.0989 12.6828 13.2757 12.6023 13.4704C12.5217 13.6651 12.4806 13.8738 12.4813 14.0845C12.4806 14.2952 12.5217 14.504 12.6023 14.6987C12.6828 14.8934 12.8011 15.0702 12.9503 15.2189L13.1973 15.4661C12.4935 15.4736 11.7861 15.192 11.2559 14.6621C10.5983 14.0045 10.3162 13.0667 10.5205 12.2099C10.611 11.7964 10.8194 11.418 11.1205 11.1205C11.5711 10.6699 12.1623 10.4549 12.7711 10.4549ZM11.3959 10.2611C11.1558 10.3889 10.936 10.5514 10.7434 10.7435C10.5514 10.9361 10.3889 11.156 10.261 11.396L8.37752 9.5128L9.51245 8.37787L11.3959 10.2611Z" fill="#EF0F3A"/>
</svg>
