<svg width="40" height="40" viewBox="0 0 40 40" fill="none" xmlns="http://www.w3.org/2000/svg">
<path d="M38.125 23.125C38.2908 23.125 38.4497 23.0592 38.5669 22.9419C38.6842 22.8247 38.75 22.6658 38.75 22.5V17.5C38.75 17.3342 38.6842 17.1753 38.5669 17.0581C38.4497 16.9408 38.2908 16.875 38.125 16.875H34.6669C34.287 15.0826 33.58 13.3755 32.5813 11.8394L35.0238 9.39125C35.1407 9.27407 35.2064 9.11526 35.2064 8.94969C35.2064 8.78411 35.1407 8.6253 35.0238 8.50812L31.4925 4.97687C31.3753 4.8599 31.2165 4.7942 31.0509 4.7942C30.8854 4.7942 30.7266 4.8599 30.6094 4.97687L28.1606 7.41875C26.6245 6.42004 24.9174 5.71302 23.125 5.33313V1.875C23.125 1.70924 23.0592 1.55027 22.9419 1.43306C22.8247 1.31585 22.6658 1.25 22.5 1.25H17.5C17.3342 1.25 17.1753 1.31585 17.0581 1.43306C16.9408 1.55027 16.875 1.70924 16.875 1.875V5.33313C15.0826 5.71302 13.3755 6.42004 11.8394 7.41875L9.39125 4.97625C9.27407 4.85927 9.11526 4.79357 8.94969 4.79357C8.78411 4.79357 8.6253 4.85927 8.50812 4.97625L4.97687 8.5075C4.8599 8.62468 4.7942 8.78349 4.7942 8.94906C4.7942 9.11464 4.8599 9.27345 4.97687 9.39062L7.41938 11.8387C6.42037 13.375 5.71314 15.0823 5.33313 16.875H1.875C1.70924 16.875 1.55027 16.9408 1.43306 17.0581C1.31585 17.1753 1.25 17.3342 1.25 17.5V22.5C1.25 22.6658 1.31585 22.8247 1.43306 22.9419C1.55027 23.0592 1.70924 23.125 1.875 23.125H5.33313C5.71302 24.9174 6.42004 26.6245 7.41875 28.1606L4.97625 30.6087C4.85927 30.7259 4.79357 30.8847 4.79357 31.0503C4.79357 31.2159 4.85927 31.3747 4.97625 31.4919L8.5075 35.0231C8.62468 35.1401 8.78349 35.2058 8.94906 35.2058C9.11464 35.2058 9.27345 35.1401 9.39062 35.0231L11.8387 32.5806C13.375 33.5796 15.0823 34.2869 16.875 34.6669V38.125C16.875 38.2908 16.9408 38.4497 17.0581 38.5669C17.1753 38.6842 17.3342 38.75 17.5 38.75H22.5C22.6658 38.75 22.8247 38.6842 22.9419 38.5669C23.0592 38.4497 23.125 38.2908 23.125 38.125V34.6669C24.9169 34.2855 26.6233 33.5774 28.1588 32.5781L33.2581 37.6775C33.8451 38.2593 34.6385 38.5849 35.465 38.5831C36.2914 38.5813 37.0835 38.2522 37.6678 37.6678C38.2522 37.0835 38.5813 36.2914 38.5831 35.465C38.5849 34.6385 38.2593 33.8451 37.6775 33.2581L32.5781 28.1588C33.5774 26.6233 34.2855 24.9169 34.6669 23.125H38.125ZM36.7938 36.7938C36.6196 36.9679 36.4129 37.106 36.1854 37.2003C35.9579 37.2945 35.7141 37.343 35.4678 37.343C35.2216 37.343 34.9777 37.2945 34.7502 37.2003C34.5227 37.106 34.316 36.9679 34.1419 36.7938L22.1744 24.8269C21.8837 24.5366 21.5384 24.3067 21.1585 24.1505C20.7785 23.9943 20.3714 23.9149 19.9606 23.9169C19.8303 23.9168 19.7001 23.9246 19.5706 23.94C18.7598 24.0374 17.9374 23.9345 17.1755 23.6403C16.4136 23.3462 15.7355 22.8697 15.2005 22.2526C14.6655 21.6356 14.2899 20.8968 14.1066 20.1009C13.9234 19.305 13.9381 18.4764 14.1494 17.6875L16.9062 20.445C17.0234 20.5622 17.1824 20.6281 17.3481 20.6281H20C20.1658 20.6281 20.3247 20.5623 20.4419 20.4451C20.5592 20.3279 20.625 20.1689 20.625 20.0031V17.3481C20.625 17.1824 20.5591 17.0234 20.4419 16.9062L17.6875 14.1494C18.4762 13.9386 19.3046 13.9243 20.1001 14.1077C20.8956 14.2912 21.6341 14.6669 22.2508 15.2018C22.8675 15.7368 23.3438 16.4147 23.6378 17.1763C23.9318 17.938 24.0347 18.76 23.9375 19.5706C23.8772 20.0435 23.9258 20.5239 24.0795 20.9752C24.2332 21.4264 24.488 21.8366 24.8244 22.1744L36.7938 34.1419C36.9679 34.316 37.106 34.5227 37.2003 34.7502C37.2945 34.9777 37.343 35.2216 37.343 35.4678C37.343 35.7141 37.2945 35.9579 37.2003 36.1854C37.106 36.4129 36.9679 36.6196 36.7938 36.7938ZM25.7106 21.2938C25.5084 21.0894 25.3557 20.8416 25.264 20.5691C25.1724 20.2967 25.1443 20.0069 25.1819 19.7219C25.3158 18.6109 25.1488 17.4844 24.6984 16.4601C24.2479 15.4358 23.5306 14.5513 22.6213 13.8992C21.712 13.247 20.6442 12.8511 19.5296 12.7528C18.4149 12.6546 17.2943 12.8576 16.285 13.3406C16.1949 13.3839 16.1165 13.4481 16.0564 13.5278C15.9962 13.6076 15.9561 13.7007 15.9393 13.7992C15.9226 13.8976 15.9296 13.9987 15.96 14.0939C15.9903 14.1891 16.0431 14.2756 16.1137 14.3463L19.375 17.6069V19.375H17.6069L14.3463 16.1137C14.2756 16.0431 14.1891 15.9903 14.0939 15.96C13.9987 15.9296 13.8976 15.9226 13.7992 15.9393C13.7007 15.9561 13.6076 15.9962 13.5278 16.0564C13.4481 16.1165 13.3839 16.1949 13.3406 16.285C12.8577 17.294 12.6547 18.4143 12.7529 19.5286C12.851 20.643 13.2466 21.7105 13.8984 22.6196C14.5502 23.5287 15.4342 24.2461 16.4581 24.6967C17.482 25.1474 18.6081 25.3147 19.7188 25.1813C20.0038 25.1438 20.2936 25.172 20.566 25.2638C20.8385 25.3555 21.0863 25.5084 21.2906 25.7106L24.5056 28.925C22.3817 29.998 19.9449 30.2789 17.6326 29.7174C15.3202 29.1559 13.2837 27.7888 11.8883 25.8612C10.493 23.9337 9.83025 21.5721 10.019 19.2C10.2077 16.828 11.2356 14.6008 12.9182 12.9182C14.6008 11.2356 16.828 10.2077 19.2 10.019C21.5721 9.83025 23.9337 10.493 25.8612 11.8883C27.7888 13.2837 29.1559 15.3202 29.7174 17.6326C30.2789 19.9449 29.998 22.3817 28.925 24.5056L25.7106 21.2938ZM33.5344 22.3975C33.233 24.1225 32.6019 25.7733 31.6756 27.2594L29.8481 25.4319C31.1593 23.0559 31.5685 20.2864 31.0006 17.6327C30.4326 14.979 28.9256 12.6196 26.7567 10.9885C24.5879 9.35734 21.903 8.56411 19.1959 8.75469C16.4888 8.94527 13.9416 10.1068 12.0227 12.0258C10.1037 13.9447 8.94215 16.492 8.75157 19.199C8.56099 21.9061 9.35421 24.591 10.9854 26.7598C12.6165 28.9287 14.9759 30.4357 17.6296 31.0037C20.2832 31.5717 23.0527 31.1624 25.4288 29.8512L27.2563 31.6788C25.7701 32.605 24.1194 33.2361 22.3944 33.5375C22.2496 33.5623 22.1183 33.6373 22.0233 33.7493C21.9283 33.8613 21.8758 34.0032 21.875 34.15V37.5H18.125V34.15C18.1249 34.0026 18.0727 33.86 17.9777 33.7474C17.8827 33.6347 17.7509 33.5593 17.6056 33.5344C15.634 33.1893 13.7628 32.4138 12.125 31.2631C12.0046 31.1785 11.8583 31.1391 11.7117 31.1518C11.5652 31.1645 11.4278 31.2285 11.3237 31.3325L8.95375 33.6981L6.305 31.0494L8.67063 28.6794C8.77464 28.5753 8.83862 28.438 8.85131 28.2914C8.864 28.1448 8.82458 27.9985 8.74 27.8781C7.58893 26.2394 6.81343 24.3671 6.46875 22.3944C6.44375 22.2486 6.36786 22.1164 6.25456 22.0213C6.14127 21.9262 5.99792 21.8744 5.85 21.875H2.5V18.125H5.85C5.99738 18.1249 6.13999 18.0727 6.25263 17.9777C6.36528 17.8827 6.44072 17.7509 6.46563 17.6056C6.81074 15.634 7.58623 13.7628 8.73688 12.125C8.82146 12.0046 8.86087 11.8583 8.84818 11.7117C8.83549 11.5652 8.77151 11.4278 8.6675 11.3237L6.30188 8.95375L8.95062 6.305L11.3206 8.67063C11.4247 8.77464 11.562 8.83862 11.7086 8.85131C11.8552 8.864 12.0015 8.82458 12.1219 8.74C13.7606 7.58893 15.6329 6.81343 17.6056 6.46875C17.7514 6.44375 17.8836 6.36786 17.9787 6.25456C18.0738 6.14127 18.1256 5.99792 18.125 5.85V2.5H21.875V5.85C21.8751 5.99738 21.9273 6.13999 22.0223 6.25263C22.1173 6.36528 22.2491 6.44072 22.3944 6.46563C24.3671 6.8103 26.2394 7.5858 27.8781 8.73688C27.9985 8.82146 28.1448 8.86087 28.2914 8.84818C28.438 8.83549 28.5753 8.77151 28.6794 8.6675L31.0494 6.30188L33.6981 8.95062L31.3325 11.3206C31.2285 11.4247 31.1645 11.562 31.1518 11.7086C31.1391 11.8552 31.1785 12.0015 31.2631 12.1219C32.4142 13.7606 33.1897 15.6329 33.5344 17.6056C33.5593 17.7509 33.6347 17.8827 33.7474 17.9777C33.86 18.0727 34.0026 18.1249 34.15 18.125H37.5V21.875H34.15C34.0026 21.8751 33.86 21.9273 33.7474 22.0223C33.6347 22.1173 33.5593 22.2491 33.5344 22.3944V22.3975Z" fill="#EF0F3A"/>
<path d="M23.9769 23.0941C23.9192 23.0344 23.8503 22.9868 23.774 22.9541C23.6978 22.9213 23.6158 22.9041 23.5328 22.9033C23.4498 22.9026 23.3675 22.9184 23.2907 22.9499C23.2139 22.9813 23.1441 23.0277 23.0854 23.0864C23.0267 23.1451 22.9803 23.2148 22.9489 23.2917C22.9175 23.3685 22.9016 23.4508 22.9024 23.5338C22.9031 23.6167 22.9203 23.6988 22.9531 23.775C22.9858 23.8513 23.0335 23.9202 23.0931 23.9779L23.535 24.4198C23.6529 24.5336 23.8108 24.5966 23.9747 24.5952C24.1385 24.5937 24.2953 24.528 24.4112 24.4121C24.527 24.2963 24.5928 24.1395 24.5942 23.9756C24.5956 23.8118 24.5326 23.6539 24.4188 23.536L23.9769 23.0941ZM32.8156 33.7004C32.9335 33.8142 33.0914 33.8772 33.2553 33.8758C33.4191 33.8744 33.5759 33.8086 33.6918 33.6928C33.8077 33.5769 33.8734 33.4201 33.8748 33.2563C33.8762 33.0924 33.8132 32.9345 33.6994 32.8166L26.1869 25.3035C26.0696 25.1862 25.9106 25.1203 25.7447 25.1203C25.5789 25.1203 25.4198 25.1862 25.3025 25.3035C25.1852 25.4208 25.1194 25.5798 25.1194 25.7457C25.1194 25.9115 25.1852 26.0706 25.3025 26.1879L32.8156 33.7004ZM35.0257 35.9104C35.1435 36.0242 35.3014 36.0872 35.4653 36.0858C35.6291 36.0844 35.7859 36.0186 35.9018 35.9028C36.0177 35.7869 36.0834 35.6301 36.0848 35.4663C36.0862 35.3024 36.0232 35.1445 35.9094 35.0266L35.4675 34.5841C35.3502 34.4669 35.1912 34.401 35.0253 34.401C34.8595 34.401 34.7004 34.4669 34.5831 34.5841C34.4659 34.7014 34.4 34.8605 34.4 35.0263C34.4 35.1922 34.4659 35.3512 34.5831 35.4685L35.0257 35.9104Z" fill="#EF0F3A"/>
</svg>
