<svg width="30" height="31" viewBox="0 0 30 31" fill="none" xmlns="http://www.w3.org/2000/svg">
<path d="M27.4414 21.7545C27.0158 21.5208 26.4815 21.6762 26.2479 22.1015C26.0141 22.5269 26.1695 23.0612 26.595 23.2948C27.642 23.8699 28.2424 24.5074 28.2424 25.0439C28.2424 25.7001 27.3125 26.7171 24.7026 27.6037C22.1241 28.4797 18.6784 28.962 15.0001 28.962C11.3219 28.962 7.87612 28.4797 5.29768 27.6037C2.68772 26.7172 1.75783 25.7001 1.75783 25.0439C1.75783 24.5074 2.3583 23.8699 3.40526 23.2948C3.83072 23.0611 3.98611 22.5268 3.75238 22.1015C3.51864 21.6761 2.98444 21.5207 2.55887 21.7544C1.39155 22.3956 0 23.4868 0 25.0439C0 26.2375 0.821023 27.9393 4.73219 29.2679C7.48799 30.204 11.1345 30.7195 15.0001 30.7195C18.8657 30.7195 22.5123 30.204 25.2681 29.2679C29.1792 27.9393 30.0003 26.2375 30.0003 25.0439C30.0003 23.4868 28.6087 22.3956 27.4414 21.7545Z" fill="#EF0F3A"/>
<path d="M8.36382 26.3341C10.148 26.8381 12.5046 27.1157 14.9995 27.1157C17.4944 27.1157 19.851 26.8381 21.6352 26.3341C23.818 25.7177 24.9248 24.8252 24.9248 23.6817C24.9248 22.5382 23.818 21.6459 21.6352 21.0294C21.1506 20.8925 20.6236 20.7725 20.0633 20.6701C19.7591 21.1957 19.4402 21.7367 19.1069 22.2933C19.7271 22.3864 20.3093 22.5004 20.8381 22.6351C22.4445 23.0442 23.0314 23.5047 23.152 23.6818C23.0313 23.8589 22.4445 24.3194 20.8381 24.7285C19.3177 25.1156 17.3614 25.3365 15.3011 25.3562C15.2013 25.3636 15.1007 25.3678 14.9995 25.3678C14.8982 25.3678 14.7977 25.3636 14.6979 25.3562C12.6375 25.3365 10.6813 25.1157 9.16082 24.7285C7.5544 24.3194 6.96757 23.8588 6.84693 23.6818C6.96757 23.5047 7.55445 23.0442 9.16087 22.6351C9.68963 22.5005 10.2719 22.3864 10.8921 22.2933C10.5588 21.7368 10.2399 21.1956 9.93567 20.6701C9.37539 20.7725 8.84833 20.8925 8.36382 21.0294C6.18101 21.6459 5.07422 22.5383 5.07422 23.6817C5.07422 24.8252 6.18101 25.7176 8.36382 26.3341Z" fill="#EF0F3A"/>
<path d="M14.9985 23.6089C15.7809 23.6089 16.4916 23.2103 16.8998 22.5426C19.7598 17.8642 23.1689 11.6984 23.1689 8.89274C23.1689 4.38836 19.5037 0.723785 14.9985 0.723785C10.4933 0.723785 6.82812 4.38836 6.82812 8.89274C6.82812 11.6984 10.2373 17.8642 13.0972 22.5426C13.5054 23.2103 14.2162 23.6089 14.9985 23.6089ZM11.7145 8.33185C11.7145 6.52142 13.1877 5.04849 14.9985 5.04849C16.8093 5.04849 18.2825 6.52142 18.2825 8.33185C18.2825 10.1423 16.8093 11.6153 14.9985 11.6153C13.1877 11.6153 11.7145 10.1424 11.7145 8.33185Z" fill="#EF0F3A"/>
</svg>
