<svg width="25" height="27" viewBox="0 0 25 27" fill="none" xmlns="http://www.w3.org/2000/svg">
<path fill-rule="evenodd" clip-rule="evenodd" d="M2.08301 10.6508C2.08301 9.90448 2.46696 9.2129 3.09447 8.82893L11.4278 3.72978C12.0876 3.32608 12.9118 3.32608 13.5715 3.72978L21.9049 8.82892C22.5324 9.2129 22.9163 9.90448 22.9163 10.6508V22.1957C22.9163 23.3691 21.9836 24.3204 20.833 24.3204H4.16634C3.01575 24.3204 2.08301 23.3691 2.08301 22.1957V10.6508ZM20.833 11.4328V22.1957H4.16634V11.4328L12.4997 17.0985L20.833 11.4328ZM19.4617 9.81167L12.4997 5.55165L5.53769 9.81167L12.4997 14.545L19.4617 9.81167Z" fill="#EF0F3A"/>
</svg>
