<svg width="59" height="49" viewBox="0 0 59 49" fill="none" xmlns="http://www.w3.org/2000/svg">
<path d="M29.5283 8.78498C39.3711 8.88155 45.5371 8.26915 46.3699 19.1788H58.3726C58.3726 2.27805 43.6329 0 29.2158 0C14.7977 0 0.059082 2.27805 0.059082 19.1788H11.9686C12.89 8.06123 19.7673 8.68954 29.5283 8.78498Z" fill="white"/>
<path d="M6.01155 24.612C8.93495 24.612 11.3675 24.787 11.9083 21.9113C11.9811 21.5205 12.0231 21.0774 12.0231 20.5649H11.8845H0C0 24.8427 2.69162 24.612 6.01155 24.612Z" fill="white"/>
<path d="M46.447 20.5649H46.3345C46.3345 21.0808 46.3788 21.525 46.4617 21.9113C47.0321 24.5632 49.4613 24.3984 52.3744 24.3984C55.7103 24.3984 58.4144 24.6177 58.4144 20.5649H46.447Z" fill="white"/>
<path d="M40.5834 17.6518V15.9521C40.5834 15.192 39.7074 15.1443 38.6257 15.1443H36.859C35.7785 15.1443 34.9025 15.192 34.9025 15.9521V17.4167V18.5528H22.4044V17.4167V15.9521C22.4044 15.192 21.5284 15.1443 20.4479 15.1443H18.68C17.5995 15.1443 16.7235 15.192 16.7235 15.9521V17.6518V19.1357C13.8762 22.0943 4.55953 34.6889 4.22095 36.2137L4.22549 46.3882C4.22549 47.3278 4.99014 48.0925 5.92977 48.0925H51.3771C52.3167 48.0925 53.0814 47.3278 53.0814 46.3882V36.1626C52.7462 34.6821 43.4318 22.0932 40.5834 19.1346V17.6518ZM21.7886 37.5828C20.874 37.5828 20.1321 36.842 20.1321 35.9262C20.1321 35.0105 20.874 34.2697 21.7886 34.2697C22.7033 34.2697 23.4452 35.0105 23.4452 35.9262C23.4452 36.842 22.7033 37.5828 21.7886 37.5828ZM21.7886 31.9019C20.874 31.9019 20.1321 31.1611 20.1321 30.2453C20.1321 29.3295 20.874 28.5888 21.7886 28.5888C22.7033 28.5888 23.4452 29.3295 23.4452 30.2453C23.4452 31.1611 22.7033 31.9019 21.7886 31.9019ZM21.7886 26.2221C20.874 26.2221 20.1321 25.4813 20.1321 24.5655C20.1321 23.6509 20.874 22.909 21.7886 22.909C22.7033 22.909 23.4452 23.6509 23.4452 24.5655C23.4452 25.4813 22.7033 26.2221 21.7886 26.2221ZM28.6057 37.5828C27.6911 37.5828 26.9492 36.842 26.9492 35.9262C26.9492 35.0105 27.6911 34.2697 28.6057 34.2697C29.5215 34.2697 30.2623 35.0105 30.2623 35.9262C30.2623 36.842 29.5215 37.5828 28.6057 37.5828ZM28.6057 31.9019C27.6911 31.9019 26.9492 31.1611 26.9492 30.2453C26.9492 29.3295 27.6911 28.5888 28.6057 28.5888C29.5215 28.5888 30.2623 29.3295 30.2623 30.2453C30.2623 31.1611 29.5215 31.9019 28.6057 31.9019ZM28.6057 26.2221C27.6911 26.2221 26.9492 25.4813 26.9492 24.5655C26.9492 23.6509 27.6911 22.909 28.6057 22.909C29.5215 22.909 30.2623 23.6509 30.2623 24.5655C30.2623 25.4813 29.5215 26.2221 28.6057 26.2221ZM35.4228 37.5828C34.5071 37.5828 33.7663 36.842 33.7663 35.9262C33.7663 35.0105 34.5071 34.2697 35.4228 34.2697C36.3386 34.2697 37.0794 35.0105 37.0794 35.9262C37.0794 36.842 36.3386 37.5828 35.4228 37.5828ZM35.4228 31.9019C34.5071 31.9019 33.7663 31.1611 33.7663 30.2453C33.7663 29.3295 34.5071 28.5888 35.4228 28.5888C36.3386 28.5888 37.0794 29.3295 37.0794 30.2453C37.0794 31.1611 36.3386 31.9019 35.4228 31.9019ZM35.4228 26.2221C34.5071 26.2221 33.7663 25.4813 33.7663 24.5655C33.7663 23.6509 34.5071 22.909 35.4228 22.909C36.3386 22.909 37.0794 23.6509 37.0794 24.5655C37.0794 25.4813 36.3386 26.2221 35.4228 26.2221Z" fill="white"/>
</svg>
