<svg width="25" height="27" viewBox="0 0 25 27" fill="none" xmlns="http://www.w3.org/2000/svg">
<g clip-path="url(#clip0_1_27748)">
<path d="M15.6774 6.24727C16.6948 6.44972 17.6299 6.95718 18.3629 7.70471C19.0959 8.45224 19.5935 9.40584 19.792 10.4434M15.6774 1.99799C17.7912 2.23747 19.7624 3.20284 21.2672 4.7356C22.7721 6.26835 23.7212 8.27738 23.9586 10.4328M22.917 18.9102V22.0971C22.9182 22.393 22.8587 22.6858 22.7425 22.9569C22.6263 23.228 22.4558 23.4713 22.2421 23.6713C22.0283 23.8713 21.7759 24.0236 21.5011 24.1184C21.2263 24.2132 20.9351 24.2484 20.6461 24.2218C17.4408 23.8666 14.3618 22.7495 11.6566 20.9604C9.13972 19.3294 7.00588 17.1533 5.40657 14.5865C3.64613 11.8151 2.55057 8.6598 2.20865 5.37617C2.18262 5.0824 2.21685 4.78633 2.30917 4.50679C2.40149 4.22726 2.54987 3.97039 2.74486 3.75254C2.93986 3.53469 3.1772 3.36064 3.44177 3.24146C3.70633 3.12228 3.99234 3.06059 4.28157 3.06031H7.40657C7.91209 3.05523 8.40218 3.2378 8.78549 3.57398C9.16879 3.91015 9.41915 4.377 9.4899 4.8875C9.6218 5.9074 9.86641 6.90881 10.2191 7.87263C10.3592 8.25286 10.3895 8.66609 10.3065 9.06336C10.2234 9.46064 10.0304 9.82529 9.75032 10.1141L8.4274 11.4633C9.91027 14.1228 12.0695 16.3249 14.6774 17.8372L16.0003 16.4881C16.2835 16.2024 16.6411 16.0056 17.0306 15.9209C17.4202 15.8362 17.8254 15.8671 18.1982 16.01C19.1433 16.3697 20.1252 16.6191 21.1253 16.7536C21.6313 16.8264 22.0934 17.0864 22.4238 17.484C22.7541 17.8816 22.9297 18.3892 22.917 18.9102Z" stroke="#EF0F3A" stroke-width="2" stroke-linecap="round" stroke-linejoin="round"/>
</g>
<defs>
<clipPath id="clip0_1_27748">
<rect width="25" height="25.4957" fill="white" transform="translate(0 0.935669)"/>
</clipPath>
</defs>
</svg>
