<svg width="49" height="53" viewBox="0 0 49 53" fill="none" xmlns="http://www.w3.org/2000/svg">
<path d="M12.5781 46.4531C12.5781 46.2045 12.4794 45.966 12.3035 45.7902C12.1277 45.6144 11.8893 45.5156 11.6406 45.5156C11.392 45.5156 11.1535 45.6144 10.9777 45.7902C10.8019 45.966 10.7031 46.2045 10.7031 46.4531V47.625C10.7031 47.8736 10.8019 48.1121 10.9777 48.2879C11.1535 48.4637 11.392 48.5625 11.6406 48.5625C11.8893 48.5625 12.1277 48.4637 12.3035 48.2879C12.4794 48.1121 12.5781 47.8736 12.5781 47.625V46.4531Z" fill="#EF0F3A"/>
<path fill-rule="evenodd" clip-rule="evenodd" d="M9.53125 2.20077C9.53125 1.40765 8.84734 0.707804 7.97781 0.819366C3.82938 1.35233 0.625 4.89515 0.625 9.18796V11.063C0.625 14.5598 2.75266 17.5584 5.78125 18.8381V46.9219C5.78125 50.1581 8.40438 52.7812 11.6406 52.7812C14.8769 52.7812 17.5 50.1581 17.5 46.9219V18.8381C20.5286 17.5584 22.6562 14.5603 22.6562 11.063V9.18796C22.6562 4.89515 19.4514 1.35233 15.3034 0.819366C14.4344 0.707804 13.75 1.40765 13.75 2.20077V9.65624H9.53125V2.20077ZM2.5 9.18749C2.5 6.04593 4.70781 3.41905 7.65625 2.77546V10.125C7.65625 10.498 7.80441 10.8556 8.06813 11.1194C8.33185 11.3831 8.68954 11.5312 9.0625 11.5312H14.2188C14.5917 11.5312 14.9494 11.3831 15.2131 11.1194C15.4768 10.8556 15.625 10.498 15.625 10.125V2.77593C18.5734 3.41952 20.7812 6.0464 20.7812 9.18796V11.063C20.7812 13.8647 19.0248 16.2591 16.5494 17.1994C16.0197 17.4009 15.625 17.9119 15.625 18.5287V46.9219C15.625 47.9786 15.2052 48.992 14.458 49.7392C13.7108 50.4865 12.6973 50.9062 11.6406 50.9062C10.5839 50.9062 9.57046 50.4865 8.82325 49.7392C8.07603 48.992 7.65625 47.9786 7.65625 46.9219V18.5287C7.65625 17.9123 7.26156 17.4009 6.73187 17.1998C4.25687 16.2591 2.5 13.8642 2.5 11.0625V9.18749Z" fill="#EF0F3A"/>
<path d="M35.125 13.5516C34.9327 13.4552 34.7204 13.4054 34.5053 13.4063H23.3594C23.1107 13.4063 22.8723 13.505 22.6965 13.6808C22.5206 13.8567 22.4219 14.0951 22.4219 14.3438C22.4219 14.5924 22.5206 14.8309 22.6965 15.0067C22.8723 15.1825 23.1107 15.2813 23.3594 15.2813H34.3839C35.3917 15.8424 37.4177 17.6616 37.9 21.0384C37.9422 21.3356 38.1198 21.5799 38.3612 21.7186C37.2869 22.8942 35.9561 23.3803 35.2492 23.4839H19.375C19.1264 23.4839 18.8879 23.5827 18.7121 23.7585C18.5363 23.9343 18.4375 24.1728 18.4375 24.4214C18.4375 24.6701 18.5363 24.9085 18.7121 25.0843C18.8879 25.2601 19.1264 25.3589 19.375 25.3589H35.3711L35.4288 25.3519C36.8406 25.1752 39.7047 24.0394 41.1034 20.9058H45.3906C45.7636 20.9058 46.1213 21.0539 46.385 21.3177C46.6487 21.5814 46.7969 21.9391 46.7969 22.312V22.4105C46.797 22.7465 46.6768 23.0714 46.458 23.3264C46.2393 23.5814 45.9365 23.7497 45.6044 23.8008L42.2509 24.3164C41.215 24.4758 40.7116 25.6711 41.3205 26.5242L42.5228 28.207C42.8636 28.6841 43.0469 29.2557 43.0469 29.842V35.437C43.0469 36.183 42.7506 36.8983 42.2231 37.4258C41.6957 37.9532 40.9803 38.2495 40.2344 38.2495H19.375C19.1264 38.2495 18.8879 38.3483 18.7121 38.5241C18.5363 38.6999 18.4375 38.9384 18.4375 39.187C18.4375 39.4357 18.5363 39.6741 18.7121 39.85C18.8879 40.0258 19.1264 40.1245 19.375 40.1245H40.2344C40.8114 40.1245 41.3641 40.0205 41.875 39.8292V42.2339C41.875 42.4826 41.7762 42.721 41.6004 42.8968C41.4246 43.0726 41.1861 43.1714 40.9375 43.1714H34.8438C34.5951 43.1714 34.3567 43.0726 34.1808 42.8968C34.005 42.721 33.9062 42.4826 33.9062 42.2339V42C33.9062 41.7514 33.8075 41.5129 33.6317 41.3371C33.4558 41.1613 33.2174 41.0625 32.9688 41.0625C32.7201 41.0625 32.4817 41.1613 32.3058 41.3371C32.13 41.5129 32.0312 41.7514 32.0312 42V42.2344C32.0312 42.9803 32.3276 43.6957 32.855 44.2231C33.3825 44.7506 34.0978 45.0469 34.8438 45.0469H40.9375C41.6834 45.0469 42.3988 44.7506 42.9262 44.2231C43.4537 43.6957 43.75 42.9803 43.75 42.2344V38.7188C43.75 38.6625 43.7448 38.6077 43.7355 38.5547C44.5011 37.6971 44.9235 36.5872 44.9219 35.4375V29.842C44.922 28.8649 44.6167 27.9122 44.0486 27.1172L43.2892 26.0541L45.8894 25.6538C46.664 25.5346 47.3704 25.1422 47.8808 24.5474C48.3912 23.9525 48.6718 23.1947 48.6719 22.4109V22.3125C48.6719 21.8816 48.587 21.4549 48.4221 21.0568C48.2572 20.6587 48.0155 20.297 47.7108 19.9923C47.4061 19.6876 47.0444 19.4459 46.6463 19.281C46.2482 19.1161 45.8215 19.0313 45.3906 19.0313H40.8002C40.2644 19.0313 39.8069 19.3299 39.5645 19.7569C38.7316 16.2197 36.4492 14.2214 35.1255 13.552L35.125 13.5516Z" fill="#EF0F3A"/>
<path d="M41.0959 27.944C41.0044 27.8616 40.8976 27.798 40.7815 27.7569C40.6655 27.7158 40.5424 27.698 40.4195 27.7044C40.2965 27.7109 40.176 27.7415 40.0648 27.7945C39.9537 27.8475 39.8541 27.9219 39.7717 28.0134L37.9422 30.0473H33.2031C32.9545 30.0473 32.716 30.1461 32.5402 30.3219C32.3644 30.4977 32.2656 30.7362 32.2656 30.9848C32.2656 31.2335 32.3644 31.4719 32.5402 31.6477C32.716 31.8235 32.9545 31.9223 33.2031 31.9223H38.1508C38.3479 31.9223 38.5428 31.8809 38.7229 31.8007C38.903 31.7205 39.0642 31.6034 39.1961 31.4569L41.1658 29.2683C41.332 29.0834 41.4179 28.8401 41.4047 28.5918C41.3915 28.3436 41.2803 28.1107 41.0955 27.9445L41.0959 27.944ZM33.6719 35.2036C33.6719 34.9549 33.5731 34.7165 33.3973 34.5407C33.2215 34.3648 32.983 34.2661 32.7344 34.2661H19.375C19.1264 34.2661 18.8879 34.3648 18.7121 34.5407C18.5363 34.7165 18.4375 34.9549 18.4375 35.2036C18.4375 35.4522 18.5363 35.6907 18.7121 35.8665C18.8879 36.0423 19.1264 36.1411 19.375 36.1411H32.7344C32.983 36.1411 33.2215 36.0423 33.3973 35.8665C33.5731 35.6907 33.6719 35.4522 33.6719 35.2036Z" fill="#EF0F3A"/>
</svg>
