<svg width="60" height="61" viewBox="0 0 60 61" fill="none" xmlns="http://www.w3.org/2000/svg">
<g opacity="0.2" clip-path="url(#clip0_1_27692)">
<path d="M20.7696 5.55298H6.92318C4.99985 5.55298 3.36536 6.22602 2.01894 7.57173C0.673147 8.91769 0 10.5519 0 12.4751V26.3188C0 28.2418 0.672768 29.8758 2.01894 31.2215C3.36523 32.5671 5.00023 33.2404 6.92318 33.2404H15.0001C15.9613 33.2404 16.7788 33.577 17.4519 34.2498C18.1251 34.9222 18.4615 35.7399 18.4615 36.7017V37.8547C18.4615 40.4026 17.5599 42.577 15.7572 44.3799C13.9543 46.182 11.7791 47.0834 9.23057 47.0834H6.92318C6.29778 47.0834 5.75711 47.3123 5.30018 47.7686C4.84363 48.225 4.61516 48.766 4.61516 49.3909V54.0061C4.61516 54.63 4.84363 55.172 5.30018 55.6285C5.75749 56.0847 6.29765 56.3138 6.92318 56.3138H9.2307C11.7309 56.3138 14.1168 55.8263 16.3885 54.8533C18.6602 53.8801 20.6252 52.5638 22.2839 50.9053C23.9423 49.2467 25.2585 47.2824 26.232 45.0109C27.2054 42.7396 27.6922 40.3543 27.6922 37.8548V12.4746C27.6922 10.5514 27.0191 8.91731 25.6732 7.5716C24.3273 6.22589 22.6924 5.55298 20.7696 5.55298Z" fill="#EF0F3A"/>
<path d="M57.9806 7.57173C56.6348 6.22602 55.0002 5.55298 53.0769 5.55298H39.231C37.3077 5.55298 35.6732 6.22602 34.3273 7.57173C32.9815 8.91781 32.3086 10.5519 32.3086 12.4751V26.3188C32.3086 28.2418 32.9815 29.8758 34.3273 31.2215C35.6732 32.5671 37.3078 33.2404 39.231 33.2404H47.3079C48.2691 33.2404 49.0873 33.577 49.7603 34.2498C50.4327 34.9226 50.7699 35.7399 50.7699 36.7017V37.8547C50.7699 40.4026 49.8683 42.577 48.0652 44.3799C46.2624 46.182 44.0877 47.0834 41.5389 47.0834H39.231C38.6061 47.0834 38.0649 47.3123 37.6085 47.7686C37.1517 48.225 36.923 48.766 36.923 49.3909V54.0061C36.923 54.63 37.1517 55.172 37.6085 55.6285C38.0648 56.0847 38.606 56.3138 39.231 56.3138H41.5389C44.0388 56.3138 46.4245 55.8263 48.6965 54.8533C50.9678 53.8801 52.9325 52.5638 54.5914 50.9053C56.2501 49.2467 57.5671 47.2819 58.54 45.0109C59.5132 42.7401 60.0003 40.3543 60.0003 37.8548V12.4746C59.9999 10.5514 59.3274 8.91731 57.9806 7.57173Z" fill="#EF0F3A"/>
</g>
<defs>
<clipPath id="clip0_1_27692">
<rect width="60" height="59.9905" fill="white" transform="translate(0 0.938721)"/>
</clipPath>
</defs>
</svg>
