<svg width="60" height="51" viewBox="0 0 60 51" fill="none" xmlns="http://www.w3.org/2000/svg">
<path fill-rule="evenodd" clip-rule="evenodd" d="M18.7171 28.243C17.763 28.2429 16.823 28.0133 15.9762 27.5736C15.1295 27.134 14.401 26.4971 13.852 25.7168C13.244 24.8539 12.8767 23.8448 12.7879 22.793C12.699 21.7412 12.8917 20.6847 13.3463 19.732L7.9858 12.1153C6.93566 12.2217 5.87612 12.0466 4.91606 11.6079C3.95601 11.1693 3.13006 10.4829 2.52308 9.61939C1.85579 8.67158 1.47994 7.54947 1.44171 6.39095C1.40349 5.23243 1.70455 4.08798 2.30792 3.09825C2.39159 2.96091 2.50919 2.84742 2.6494 2.76866C2.78961 2.6899 2.94772 2.64854 3.10853 2.64854H3.11765C3.27997 2.65011 3.43911 2.6938 3.57948 2.77535C3.71985 2.85689 3.83665 2.97348 3.91843 3.11371L5.46009 5.75709L7.62577 4.23285L5.65784 1.88959C5.55335 1.7653 5.48294 1.61598 5.45352 1.45628C5.42411 1.29659 5.43669 1.13199 5.49004 0.978615C5.54339 0.825245 5.63568 0.688368 5.75785 0.581401C5.88003 0.474434 6.0279 0.401049 6.18697 0.368437C7.32227 0.134568 8.50116 0.237465 9.57877 0.664485C10.6564 1.0915 11.5858 1.82404 12.2527 2.77208C12.8607 3.63496 13.228 4.64415 13.3168 5.69595C13.4057 6.74775 13.213 7.80426 12.7584 8.75692L18.1187 16.3734C19.1689 16.267 20.2285 16.4422 21.1886 16.8808C22.1487 17.3195 22.9747 18.0059 23.5816 18.8695C24.2489 19.8174 24.6248 20.9395 24.6631 22.0981C24.7013 23.2567 24.4003 24.4012 23.797 25.391C23.7125 25.5296 23.5934 25.6438 23.4515 25.7226C23.3096 25.8014 23.1497 25.842 22.9874 25.8404C22.8251 25.8389 22.666 25.7952 22.5256 25.7137C22.3852 25.6322 22.2684 25.5157 22.1866 25.3755L20.6448 22.7318L18.4789 24.2561L20.447 26.5996C20.5514 26.724 20.6217 26.8733 20.651 27.0329C20.6804 27.1926 20.6678 27.3571 20.6144 27.5104C20.5611 27.6637 20.4689 27.8006 20.3469 27.9076C20.2248 28.0146 20.077 28.088 19.9181 28.1208C19.5177 28.203 19.1155 28.243 18.7171 28.243ZM8.41841 10.1632C8.56874 10.1632 8.71685 10.1993 8.85027 10.2686C8.98369 10.3379 9.0985 10.4382 9.18501 10.5611L15.2138 19.1277C15.3193 19.2775 15.3785 19.4549 15.3842 19.638C15.3899 19.8211 15.3418 20.0019 15.2459 20.1579C14.8284 20.8364 14.6191 21.6224 14.6439 22.4186C14.6687 23.2148 14.9264 23.9862 15.3852 24.6374C15.9409 25.4275 16.7593 25.9944 17.6943 26.237L16.3865 24.6796C16.303 24.5801 16.2411 24.4644 16.2047 24.3398C16.1683 24.2152 16.1581 24.0843 16.1749 23.9556C16.1917 23.8268 16.235 23.703 16.3021 23.5918C16.3692 23.4807 16.4587 23.3847 16.5649 23.3099L20.4006 20.6104C20.5068 20.5357 20.6274 20.4838 20.7547 20.4581C20.882 20.4324 21.0132 20.4334 21.1401 20.4611C21.2669 20.4888 21.3867 20.5425 21.4917 20.6189C21.5967 20.6953 21.6847 20.7927 21.7501 20.9048L22.7747 22.6617C22.8619 21.6997 22.6044 20.738 22.0483 19.9483C21.5901 19.2966 20.9509 18.7936 20.2097 18.5016C19.4686 18.2095 18.6581 18.1412 17.8785 18.3051C17.6992 18.3427 17.5128 18.3269 17.3424 18.2597C17.172 18.1926 17.025 18.0769 16.9195 17.9271L10.8909 9.36092C10.7854 9.21113 10.7262 9.0337 10.7205 8.85059C10.7148 8.66749 10.7629 8.48672 10.8588 8.33065C11.2763 7.65221 11.4856 6.86621 11.4608 6.07C11.436 5.27379 11.1782 4.50233 10.7194 3.85117C10.1636 3.06121 9.34533 2.49435 8.41044 2.25173L9.71821 3.80902C9.80167 3.90846 9.86358 4.02415 9.9 4.14876C9.93642 4.27338 9.94656 4.40419 9.9298 4.53293C9.91303 4.66167 9.86971 4.78552 9.80258 4.89664C9.73545 5.00776 9.64598 5.10374 9.53983 5.17848L5.70407 7.87802C5.5979 7.95283 5.47734 8.00475 5.35005 8.03049C5.22275 8.05622 5.09149 8.05522 4.9646 8.02753C4.83771 7.99985 4.71797 7.94609 4.61296 7.86966C4.50795 7.79324 4.41998 7.69582 4.35462 7.58359L3.33005 5.82692C3.2427 6.78883 3.5001 7.75047 4.05628 8.54013C5.03691 9.95467 6.76331 10.5209 8.41841 10.1632Z" fill="#212121"/>
<path fill-rule="evenodd" clip-rule="evenodd" d="M54.5821 28.7167C54.3334 28.7167 54.095 28.6179 53.9192 28.4421C53.7433 28.2663 53.6446 28.0278 53.6446 27.7792V24.3638C53.6446 23.6921 53.098 23.1456 52.4263 23.1456H48.3179C46.4384 23.1456 44.9091 21.6164 44.9091 19.7367V18.5598C44.9091 17.8881 44.3625 17.3415 43.6908 17.3415H16.9935C16.7448 17.3415 16.5064 17.2428 16.3306 17.067C16.1547 16.8911 16.056 16.6527 16.056 16.404C16.056 16.1554 16.1547 15.917 16.3306 15.7411C16.5064 15.5653 16.7448 15.4666 16.9935 15.4666H43.691C45.3965 15.4666 46.7842 16.8541 46.7842 18.5598V19.7367C46.7842 20.5826 47.4722 21.2706 48.3181 21.2706H52.4265C54.132 21.2706 55.5197 22.6581 55.5197 24.3638V27.7792C55.5196 28.0278 55.4208 28.2663 55.245 28.4421C55.0692 28.6179 54.8307 28.7166 54.5821 28.7167ZM35.2057 42.9181H11.8677C10.1621 42.9181 8.77441 41.5304 8.77441 39.8249V18.5598C8.77441 16.8542 10.1619 15.4666 11.8677 15.4666H12.1497C12.3984 15.4666 12.6368 15.5653 12.8126 15.7411C12.9885 15.917 13.0872 16.1554 13.0872 16.404C13.0872 16.6527 12.9885 16.8911 12.8126 17.067C12.6368 17.2428 12.3984 17.3415 12.1497 17.3415H11.8677C11.196 17.3415 10.6494 17.8881 10.6494 18.5598V39.8247C10.6494 40.4964 11.196 41.043 11.8677 41.043H35.2057C35.4543 41.043 35.6928 41.1418 35.8686 41.3176C36.0445 41.4934 36.1432 41.7319 36.1432 41.9806C36.1432 42.2292 36.0445 42.4677 35.8686 42.6435C35.6928 42.8194 35.4543 42.9181 35.2057 42.9181ZM43.6908 42.9181H39.1342C38.8856 42.9181 38.6471 42.8194 38.4713 42.6435C38.2955 42.4677 38.1967 42.2293 38.1967 41.9806C38.1967 41.732 38.2955 41.4935 38.4713 41.3177C38.6471 41.1419 38.8856 41.0431 39.1342 41.0431H43.6908C44.3625 41.0431 44.9091 40.4966 44.9091 39.8249V38.6476C44.9091 36.7681 46.4382 35.2388 48.3179 35.2388H52.4263C53.098 35.2388 53.6446 34.6921 53.6446 34.0202V31.8243C53.6446 31.5756 53.7433 31.3372 53.9192 31.1613C54.095 30.9855 54.3334 30.8868 54.5821 30.8868C54.8307 30.8868 55.0692 30.9855 55.245 31.1613C55.4208 31.3372 55.5196 31.5756 55.5196 31.8243V34.0202C55.5196 35.7261 54.132 37.1138 52.4263 37.1138H48.3179C47.4722 37.1138 46.7841 37.8018 46.7841 38.6476V39.8249C46.7841 41.5304 45.3964 42.9181 43.6908 42.9181Z" fill="#212121"/>
<path fill-rule="evenodd" clip-rule="evenodd" d="M46.8448 50.5468H38.8074C36.3048 50.5468 34.2686 48.5108 34.2686 46.008V39.5722C34.2684 39.4132 34.2052 39.2608 34.0928 39.1484C33.9804 39.036 33.828 38.9728 33.669 38.9726H23.0924C21.728 38.9726 20.6178 37.8625 20.6178 36.498V30.0774C20.6178 28.2867 22.0747 26.8299 23.8652 26.8299C25.6562 26.8299 27.1131 28.2867 27.1131 30.0774V32.016C27.1131 32.2203 27.1983 32.4221 27.3469 32.5699C27.4872 32.7094 27.6671 32.7861 27.8538 32.7861H27.858C28.0527 32.7854 28.2392 32.7075 28.3766 32.5694C28.4456 32.5008 28.5003 32.4192 28.5375 32.3294C28.5747 32.2395 28.5938 32.1431 28.5935 32.0458V30.1118C28.5935 28.3077 30.0457 26.8356 31.8306 26.8299H31.8412C32.2679 26.8286 32.6905 26.9121 33.0847 27.0754C33.4789 27.2388 33.8367 27.4787 34.1374 27.7814C34.44 28.0821 34.6798 28.4399 34.8431 28.834C35.0064 29.2281 35.0898 29.6507 35.0886 30.0772V32.0457C35.0888 32.2419 35.1669 32.4301 35.3057 32.5689C35.4444 32.7076 35.6326 32.7857 35.8288 32.7859L35.9112 32.7861C36.1075 32.7858 36.2956 32.7078 36.4344 32.569C36.5732 32.4302 36.6512 32.2421 36.6514 32.0458V29.5398C36.6514 28.816 36.9335 28.1355 37.4454 27.624C37.6963 27.3719 37.9947 27.172 38.3233 27.0359C38.6519 26.8999 39.0042 26.8303 39.3599 26.8313H39.3619L57.043 26.8437C58.6735 26.8448 60 28.1723 60 29.8028C60 31.4345 58.6725 32.762 57.0409 32.762H43.1464V36.4988C43.1464 37.163 42.8851 37.7857 42.4107 38.2524C41.9444 38.711 41.3249 38.9669 40.6662 38.9726C40.5091 38.9736 40.3588 39.0367 40.2481 39.1482C40.1923 39.2037 40.148 39.2698 40.1178 39.3425C40.0877 39.4153 40.0723 39.4933 40.0725 39.572V44.0666C40.0727 44.2256 40.1359 44.378 40.2483 44.4904C40.3607 44.6028 40.5131 44.6661 40.6721 44.6662H46.8151C48.432 44.6662 49.7644 45.9678 49.7852 47.5678C49.7915 47.9573 49.7198 48.3441 49.5743 48.7055C49.4288 49.0669 49.2125 49.3955 48.938 49.6719C48.6651 49.95 48.3393 50.1706 47.9798 50.3209C47.6203 50.4711 47.2344 50.5479 46.8448 50.5468ZM23.8325 28.7055C23.0831 28.7234 22.4929 29.3541 22.4929 30.1038V36.4983C22.4929 36.6573 22.5561 36.8098 22.6686 36.9223C22.781 37.0347 22.9335 37.0979 23.0926 37.0979L33.6692 37.0977C35.0357 37.0977 36.1438 38.2056 36.1438 39.5723V46.0082C36.1438 47.4794 37.3363 48.6719 38.8075 48.6719H46.8225C47.1016 48.6719 47.3747 48.5725 47.5772 48.3804C47.6844 48.2794 47.7694 48.1572 47.8268 48.0215C47.8841 47.8858 47.9125 47.7396 47.9102 47.5923C47.9027 47.0129 47.4113 46.5414 46.815 46.5414H40.6719C39.3052 46.5414 38.1973 45.4335 38.1973 44.0668V39.5722C38.1973 38.9112 38.4548 38.2898 38.9223 37.8225C39.3799 37.3625 40.0008 37.102 40.6496 37.0977C40.9983 37.0946 41.2714 36.8316 41.2714 36.4988V31.8245C41.2714 31.5758 41.3701 31.3374 41.546 31.1616C41.7218 30.9858 41.9602 30.887 42.2089 30.887H57.0179C57.6076 30.887 58.1068 30.4257 58.1247 29.8364C58.1432 29.2237 57.6502 28.7192 57.0418 28.7187L39.3607 28.7063H39.3601C39.2074 28.7063 39.056 28.7454 38.9267 28.8264C38.6713 28.9864 38.5264 29.2521 38.5264 29.5398V32.0047C38.5264 33.4718 37.3371 34.6609 35.8702 34.6609C34.4031 34.6609 33.2138 33.4716 33.2138 32.0045V30.0772C33.2143 29.897 33.179 29.7185 33.1101 29.552C33.0411 29.3854 32.9397 29.2343 32.8119 29.1072C32.6848 28.9792 32.5336 28.8777 32.367 28.8086C32.2004 28.7395 32.0218 28.7042 31.8414 28.7047H31.837C31.0826 28.7071 30.469 29.3382 30.469 30.1116V32.0457C30.469 32.7442 30.1969 33.401 29.7029 33.8951C28.7314 34.9031 27.004 34.9141 26.0258 33.8997C25.5255 33.4024 25.2385 32.7159 25.2385 32.0159V30.0772C25.2382 29.3098 24.6043 28.6871 23.8325 28.7055ZM9.71239 32.2413H3.04883C2.73259 32.2413 2.42107 32.1931 2.12289 32.0979C1.5057 31.903 0.966911 31.516 0.585049 30.9934C0.203187 30.4708 -0.00178434 29.8399 1.17032e-05 29.1926C1.17032e-05 28.3784 0.317069 27.6127 0.892913 27.0369C1.23777 26.6926 1.65984 26.4356 2.12403 26.2874C2.42298 26.1921 2.7349 26.1437 3.04867 26.144H9.71206C9.9607 26.144 10.1992 26.2428 10.375 26.4186C10.5508 26.5944 10.6496 26.8328 10.6496 27.0815C10.6496 27.3301 10.5508 27.5686 10.375 27.7444C10.1992 27.9202 9.9607 28.019 9.71206 28.019H3.04867C2.89437 28.0188 2.74154 28.0491 2.599 28.1081C2.45645 28.1672 2.327 28.2539 2.2181 28.3632C2.10891 28.4719 2.02235 28.6012 1.96343 28.7436C1.90452 28.8859 1.8744 29.0386 1.87484 29.1926C1.87411 29.4419 1.95299 29.6848 2.09999 29.8861C2.24699 30.0873 2.45443 30.2363 2.69206 30.3115C2.80733 30.348 2.92757 30.3666 3.04851 30.3663H9.71206C9.9607 30.3663 10.1992 30.465 10.375 30.6408C10.5509 30.8166 10.6497 31.055 10.6497 31.3036C10.6498 31.5523 10.551 31.7908 10.3752 31.9666C10.1995 32.1424 9.96103 32.2413 9.71239 32.2413ZM42.6146 12.6959H28.8005C27.1936 12.6959 25.8862 11.3885 25.8862 9.78157C25.8862 8.17464 27.1936 6.86719 28.8005 6.86719H42.6146C44.2216 6.86719 45.529 8.17464 45.529 9.78157C45.529 11.3885 44.2216 12.6959 42.6146 12.6959ZM28.8005 8.74218C28.2275 8.74218 27.7612 9.20849 27.7612 9.78157C27.7612 10.3546 28.2275 10.821 28.8005 10.821H42.6146C43.1877 10.821 43.654 10.3546 43.654 9.78157C43.654 9.20849 43.1877 8.74218 42.6146 8.74218H28.8005Z" fill="#212121"/>
<path fill-rule="evenodd" clip-rule="evenodd" d="M2.40722 28.1186C2.15858 28.1186 1.92013 28.0198 1.74431 27.844C1.5685 27.6682 1.46973 27.4297 1.46973 27.1811V19.6876C1.46973 18.2379 2.64909 17.0585 4.09879 17.0585C4.80159 17.0585 5.4619 17.3321 5.95816 17.829C6.20305 18.0725 6.39717 18.3622 6.5293 18.6812C6.66142 19.0003 6.72891 19.3424 6.72785 19.6877V27.0819C6.72785 27.3306 6.62908 27.569 6.45326 27.7448C6.27745 27.9207 6.03899 28.0194 5.79035 28.0194C5.54171 28.0194 5.30326 27.9207 5.12744 27.7448C4.95163 27.569 4.85286 27.3306 4.85286 27.0819V19.6877C4.85318 19.5888 4.83386 19.4907 4.796 19.3992C4.75815 19.3077 4.70251 19.2247 4.63232 19.1549C4.56246 19.0845 4.47933 19.0287 4.38774 18.9908C4.29615 18.9528 4.19793 18.9334 4.09879 18.9337C3.89886 18.9339 3.70719 19.0134 3.56582 19.1548C3.42445 19.2962 3.34494 19.4878 3.34472 19.6877V27.1812C3.34468 27.4298 3.24589 27.6682 3.07008 27.844C2.89427 28.0198 2.65584 28.1186 2.40722 28.1186ZM4.09879 41.3275C2.64909 41.3275 1.46973 40.1481 1.46973 38.6984V31.205C1.46973 30.9563 1.5685 30.7179 1.74431 30.5421C1.92013 30.3662 2.15858 30.2675 2.40722 30.2675C2.65586 30.2675 2.89432 30.3662 3.07014 30.5421C3.24595 30.7179 3.34472 30.9563 3.34472 31.205V38.6984C3.34472 39.1143 3.68294 39.4525 4.09879 39.4525C4.51464 39.4525 4.85286 39.1143 4.85286 38.6984V31.3041C4.85286 31.0555 4.95163 30.817 5.12744 30.6412C5.30326 30.4654 5.54171 30.3666 5.79035 30.3666C6.03899 30.3666 6.27745 30.4654 6.45326 30.6412C6.62908 30.817 6.72785 31.0555 6.72785 31.3041V38.6984C6.72785 40.1481 5.54849 41.3275 4.09879 41.3275ZM33.8513 17.3422C33.6027 17.3422 33.3642 17.2434 33.1884 17.0676C33.0126 16.8918 32.9138 16.6534 32.9138 16.4047V11.7587C32.9138 11.5101 33.0126 11.2716 33.1884 11.0958C33.3642 10.92 33.6027 10.8212 33.8513 10.8212C34.0999 10.8212 34.3384 10.92 34.5142 11.0958C34.69 11.2716 34.7888 11.5101 34.7888 11.7587V16.4047C34.7888 16.6534 34.69 16.8918 34.5142 17.0676C34.3384 17.2434 34.0999 17.3422 33.8513 17.3422ZM37.5619 17.3422C37.3133 17.3422 37.0748 17.2434 36.899 17.0676C36.7232 16.8918 36.6244 16.6534 36.6244 16.4047V11.7587C36.6244 11.5101 36.7232 11.2716 36.899 11.0958C37.0748 10.92 37.3133 10.8212 37.5619 10.8212C37.8106 10.8212 38.049 10.92 38.2248 11.0958C38.4006 11.2716 38.4994 11.5101 38.4994 11.7587V16.4047C38.4994 16.6534 38.4006 16.8918 38.2248 17.0676C38.049 17.2434 37.8106 17.3422 37.5619 17.3422ZM22.6225 6.0304C22.4812 6.0304 22.3418 5.99829 22.2148 5.93649C19.1219 4.43942 15.5123 4.95537 15.4762 4.96074C15.2305 4.99733 14.9802 4.93499 14.7804 4.78738C14.5806 4.63977 14.4474 4.41894 14.4101 4.17331C14.3729 3.92779 14.4347 3.67754 14.5819 3.47756C14.7292 3.27759 14.9498 3.14427 15.1953 3.1069C15.3654 3.08102 19.4031 2.49248 23.0317 4.24866C23.223 4.34103 23.3772 4.49563 23.4692 4.68714C23.5611 4.87864 23.5853 5.09569 23.5378 5.30274C23.4902 5.50978 23.3738 5.69454 23.2075 5.82674C23.0412 5.95894 22.8349 6.03075 22.6225 6.0304ZM23.2369 9.35379C23.0795 9.3538 22.9246 9.31393 22.7867 9.23791C21.5992 8.58622 20.186 8.16353 18.5862 7.98173C18.4639 7.96783 18.3455 7.92997 18.2378 7.87031C18.1301 7.81065 18.0352 7.73036 17.9585 7.63402C17.8819 7.53768 17.825 7.42718 17.791 7.30884C17.7571 7.19049 17.7468 7.06662 17.7607 6.9443C17.7746 6.82196 17.8125 6.70357 17.8721 6.59587C17.9318 6.48818 18.0121 6.39329 18.1084 6.31663C18.2047 6.23997 18.3152 6.18304 18.4336 6.14909C18.5519 6.11514 18.6758 6.10484 18.7981 6.11878C20.6411 6.32825 22.2866 6.82467 23.6887 7.5942C23.8714 7.6943 24.0155 7.85236 24.0983 8.04344C24.1811 8.23452 24.198 8.44774 24.1462 8.64946C24.0944 8.85118 23.9769 9.02991 23.8122 9.15744C23.6476 9.28498 23.4452 9.35406 23.2369 9.35379Z" fill="#212121"/>
</svg>
