<svg width="55" height="55" viewBox="0 0 55 55" fill="none" xmlns="http://www.w3.org/2000/svg">
<path d="M45.5469 25.7812H42.1094C41.6537 25.7806 41.217 25.5993 40.8948 25.2771C40.5726 24.9549 40.3913 24.5181 40.3906 24.0625V20.625C40.3913 20.1694 40.5726 19.7326 40.8948 19.4104C41.217 19.0882 41.6537 18.9069 42.1094 18.9062H45.5469C46.0025 18.9069 46.4393 19.0882 46.7615 19.4104C47.0836 19.7326 47.2649 20.1694 47.2656 20.625V24.0625C47.2649 24.5181 47.0836 24.9549 46.7615 25.2771C46.4393 25.5993 46.0025 25.7806 45.5469 25.7812ZM42.1094 20.625V24.0625H45.5486L45.5469 20.625H42.1094ZM45.5469 34.375H42.1094C41.6537 34.3743 41.217 34.193 40.8948 33.8708C40.5726 33.5487 40.3913 33.1119 40.3906 32.6562V29.2188C40.3913 28.7631 40.5726 28.3263 40.8948 28.0042C41.217 27.682 41.6537 27.5007 42.1094 27.5H45.5469C46.0025 27.5007 46.4393 27.682 46.7615 28.0042C47.0836 28.3263 47.2649 28.7631 47.2656 29.2188V32.6562C47.2649 33.1119 47.0836 33.5487 46.7615 33.8708C46.4393 34.193 46.0025 34.3743 45.5469 34.375ZM42.1094 29.2188V32.6562H45.5486L45.5469 29.2188H42.1094ZM45.5469 42.9688H42.1094C41.6537 42.9681 41.217 42.7868 40.8948 42.4646C40.5726 42.1424 40.3913 41.7056 40.3906 41.25V37.8125C40.3913 37.3569 40.5726 36.9201 40.8948 36.5979C41.217 36.2757 41.6537 36.0944 42.1094 36.0938H45.5469C46.0025 36.0944 46.4393 36.2757 46.7615 36.5979C47.0836 36.9201 47.2649 37.3569 47.2656 37.8125V41.25C47.2649 41.7056 47.0836 42.1424 46.7615 42.4646C46.4393 42.7868 46.0025 42.9681 45.5469 42.9688ZM42.1094 37.8125V41.25H45.5486L45.5469 37.8125H42.1094ZM45.5469 51.5625H42.1094C41.6537 51.5618 41.217 51.3805 40.8948 51.0583C40.5726 50.7362 40.3913 50.2994 40.3906 49.8438V46.4062C40.3913 45.9506 40.5726 45.5138 40.8948 45.1917C41.217 44.8695 41.6537 44.6882 42.1094 44.6875H45.5469C46.0025 44.6882 46.4393 44.8695 46.7615 45.1917C47.0836 45.5138 47.2649 45.9506 47.2656 46.4062V49.8438C47.2649 50.2994 47.0836 50.7362 46.7615 51.0583C46.4393 51.3805 46.0025 51.5618 45.5469 51.5625ZM42.1094 46.4062V49.8438H45.5486L45.5469 46.4062H42.1094ZM24.0625 29.2188H20.625C20.1693 29.2183 19.7324 29.0371 19.4102 28.7148C19.0879 28.3926 18.9067 27.9557 18.9063 27.5V13.4724L15.1491 11.9702C14.9896 11.9063 14.853 11.7961 14.7568 11.6538C14.6606 11.5115 14.6092 11.3436 14.6094 11.1719V3.4375C14.6098 2.9818 14.7911 2.54489 15.1133 2.22266C15.4355 1.90043 15.8724 1.71921 16.3281 1.71875H28.3594C28.815 1.71943 29.2518 1.90073 29.574 2.22291C29.8961 2.54509 30.0774 2.98187 30.0781 3.4375V11.1719C30.0782 11.3437 30.0267 11.5117 29.9304 11.654C29.834 11.7963 29.6972 11.9065 29.5376 11.9702L25.7812 13.4724V27.5C25.7808 27.9557 25.5996 28.3926 25.2773 28.7148C24.9551 29.0371 24.5182 29.2183 24.0625 29.2188ZM16.3281 10.5901L20.0853 12.0923C20.2448 12.1562 20.3814 12.2664 20.4776 12.4087C20.5738 12.551 20.6251 12.7189 20.625 12.8906V27.5H24.0625V12.8906C24.0624 12.7189 24.1137 12.551 24.2099 12.4087C24.3061 12.2664 24.4427 12.1562 24.6022 12.0923L28.3594 10.5901V3.43578L16.3281 3.4375V10.5901Z" fill="white"/>
<path d="M31.7969 9.45312H29.2188C28.9908 9.45312 28.7722 9.36258 28.6111 9.20142C28.4499 9.04026 28.3594 8.82167 28.3594 8.59375V4.29688C28.3594 4.06895 28.4499 3.85037 28.6111 3.68921C28.7722 3.52804 28.9908 3.4375 29.2188 3.4375H31.7969C32.2525 3.43818 32.6893 3.61948 33.0115 3.94166C33.3336 4.26384 33.5149 4.70062 33.5156 5.15625V7.73438C33.5149 8.19001 33.3336 8.62678 33.0115 8.94896C32.6893 9.27114 32.2525 9.45244 31.7969 9.45312ZM30.0781 7.73438H31.7986L31.7969 5.15625H30.0781V7.73438ZM25.7812 47.2656H17.1875C16.9596 47.2656 16.741 47.1751 16.5798 47.0139C16.4187 46.8528 16.3281 46.6342 16.3281 46.4062V41.25C16.3281 41.0221 16.4187 40.8035 16.5798 40.6423C16.741 40.4812 16.9596 40.3906 17.1875 40.3906H20.625V36.9531C20.625 36.7252 20.7155 36.5066 20.8767 36.3455C21.0379 36.1843 21.2565 36.0938 21.4844 36.0938H24.0625V32.6562H16.3281C16.1002 32.6562 15.8816 32.5657 15.7205 32.4045C15.5593 32.2434 15.4688 32.0248 15.4688 31.7969V24.9219C15.4688 24.694 15.5593 24.4754 15.7205 24.3142C15.8816 24.153 16.1002 24.0625 16.3281 24.0625H19.7656C19.9935 24.0625 20.2121 24.153 20.3733 24.3142C20.5345 24.4754 20.625 24.694 20.625 24.9219C20.625 25.1498 20.5345 25.3684 20.3733 25.5295C20.2121 25.6907 19.9935 25.7812 19.7656 25.7812H17.1875V30.9375H24.9219C25.1498 30.9375 25.3684 31.028 25.5295 31.1892C25.6907 31.3504 25.7812 31.569 25.7812 31.7969V36.9531C25.7812 37.181 25.6907 37.3996 25.5295 37.5608C25.3684 37.722 25.1498 37.8125 24.9219 37.8125H22.3438V41.25C22.3438 41.4779 22.2532 41.6965 22.092 41.8577C21.9309 42.0188 21.7123 42.1094 21.4844 42.1094H18.0469V45.5469H24.9219V42.1094C24.9219 41.8815 25.0124 41.6629 25.1736 41.5017C25.3347 41.3405 25.5533 41.25 25.7812 41.25H28.3594V25.7812H24.9219C24.694 25.7812 24.4754 25.6907 24.3142 25.5295C24.153 25.3684 24.0625 25.1498 24.0625 24.9219C24.0625 24.694 24.153 24.4754 24.3142 24.3142C24.4754 24.153 24.694 24.0625 24.9219 24.0625H29.2188C29.4467 24.0625 29.6653 24.153 29.8264 24.3142C29.9876 24.4754 30.0781 24.694 30.0781 24.9219V42.1094C30.0781 42.3373 29.9876 42.5559 29.8264 42.717C29.6653 42.8782 29.4467 42.9688 29.2188 42.9688H26.6406V46.4062C26.6406 46.6342 26.5501 46.8528 26.3889 47.0139C26.2278 47.1751 26.0092 47.2656 25.7812 47.2656Z" fill="white"/>
<path d="M31.7969 50.325H13.75C13.2943 50.3245 12.8574 50.1433 12.5352 49.8211C12.2129 49.4989 12.0317 49.062 12.0312 48.6063V22.3438C12.0317 21.888 12.2129 21.4511 12.5352 21.1289C12.8574 20.8067 13.2943 20.6255 13.75 20.625H19.7656C19.9935 20.625 20.2121 20.7155 20.3733 20.8767C20.5345 21.0379 20.625 21.2565 20.625 21.4844C20.625 21.7123 20.5345 21.9309 20.3733 22.092C20.2121 22.2532 19.9935 22.3438 19.7656 22.3438H13.75V48.6063H31.7969V22.3438H24.9219C24.694 22.3438 24.4754 22.2532 24.3142 22.092C24.153 21.9309 24.0625 21.7123 24.0625 21.4844C24.0625 21.2565 24.153 21.0379 24.3142 20.8767C24.4754 20.7155 24.694 20.625 24.9219 20.625H31.7969C32.2525 20.6257 32.6893 20.807 33.0115 21.1292C33.3336 21.4513 33.5149 21.8881 33.5156 22.3438V48.6063C33.5149 49.0619 33.3336 49.4987 33.0115 49.8208C32.6893 50.143 32.2525 50.3243 31.7969 50.325Z" fill="white"/>
<path d="M34.375 53.2812H11.1719C10.4883 53.2806 9.83296 53.0087 9.34962 52.5254C8.86627 52.042 8.59443 51.3867 8.59375 50.7031V19.7656C8.59443 19.0821 8.86627 18.4267 9.34962 17.9434C9.83296 17.46 10.4883 17.1882 11.1719 17.1875H19.7656C19.9935 17.1875 20.2121 17.278 20.3733 17.4392C20.5345 17.6004 20.625 17.819 20.625 18.0469C20.625 18.2748 20.5345 18.4934 20.3733 18.6545C20.2121 18.8157 19.9935 18.9062 19.7656 18.9062H11.1719C10.944 18.9062 10.7254 18.9968 10.5642 19.158C10.403 19.3191 10.3125 19.5377 10.3125 19.7656V50.7031C10.3125 50.931 10.403 51.1496 10.5642 51.3108C10.7254 51.472 10.944 51.5625 11.1719 51.5625H34.375C34.6029 51.5625 34.8215 51.472 34.9827 51.3108C35.1438 51.1496 35.2344 50.931 35.2344 50.7031V19.7656C35.2344 19.5377 35.1438 19.3191 34.9827 19.158C34.8215 18.9968 34.6029 18.9062 34.375 18.9062H24.9219C24.694 18.9062 24.4754 18.8157 24.3142 18.6545C24.153 18.4934 24.0625 18.2748 24.0625 18.0469C24.0625 17.819 24.153 17.6004 24.3142 17.4392C24.4754 17.278 24.694 17.1875 24.9219 17.1875H34.375C35.0586 17.1882 35.7139 17.46 36.1973 17.9434C36.6806 18.4267 36.9524 19.0821 36.9531 19.7656V50.7031C36.9524 51.3867 36.6806 52.042 36.1973 52.5254C35.7139 53.0087 35.0586 53.2806 34.375 53.2812Z" fill="white"/>
</svg>
