<svg width="55" height="55" viewBox="0 0 55 55" fill="none" xmlns="http://www.w3.org/2000/svg">
<g clip-path="url(#clip0_1_18394)">
<path d="M37.4462 34.833H17.5546C17.1496 34.8327 16.7543 34.9572 16.4226 35.1897C16.091 35.4222 15.8391 35.7513 15.7013 36.1321C15.5635 36.513 15.5464 36.9271 15.6525 37.3179C15.7586 37.7088 15.9827 38.0575 16.2941 38.3164L19.2651 40.7914C19.6191 41.0873 20.0659 41.2495 20.5273 41.2497H34.4735C34.9347 41.2496 35.3811 41.0873 35.7348 40.7914L38.7067 38.3164C39.0182 38.0575 39.2424 37.7089 39.3485 37.318C39.4547 36.927 39.4377 36.5129 39.2999 36.132C39.162 35.7511 38.9101 35.422 38.5784 35.1895C38.2466 34.9571 37.8513 34.8326 37.4462 34.833ZM37.5379 36.9084L34.566 39.3834C34.5402 39.4044 34.5077 39.4155 34.4744 39.4145H20.5291C20.4957 39.4155 20.463 39.4041 20.4375 39.3824L17.4656 36.9074C17.4418 36.8911 17.4246 36.8668 17.4171 36.8389C17.4095 36.811 17.4121 36.7814 17.4244 36.7552C17.4313 36.7271 17.448 36.7024 17.4715 36.6856C17.4951 36.6688 17.5239 36.661 17.5527 36.6636H37.4443C37.4731 36.661 37.5019 36.6688 37.5255 36.6856C37.549 36.7024 37.5657 36.7271 37.5726 36.7552C37.5988 36.809 37.5821 36.8739 37.5332 36.9083H37.5379V36.9084ZM44.0279 35.2914L41.0469 37.7664C40.7343 38.0248 40.5092 38.3734 40.4024 38.7647C40.2956 39.1559 40.3123 39.5706 40.4503 39.9519C40.5883 40.3333 40.8408 40.6627 41.1732 40.895C41.5056 41.1273 41.9017 41.2512 42.3073 41.2497H49.5013C50.5138 41.2497 51.3346 40.4289 51.3346 39.4163V36.6664C51.3346 35.6538 50.5138 34.833 49.5013 34.833H45.2892C44.8282 34.8343 44.3822 34.9965 44.0279 35.2914ZM49.5014 36.6664V39.4163H42.3074C42.2784 39.4192 42.2494 39.4115 42.2256 39.3946C42.2019 39.3778 42.185 39.353 42.1781 39.3247C42.1659 39.2993 42.1634 39.2703 42.171 39.2431C42.1785 39.216 42.1957 39.1925 42.2193 39.1771L45.2012 36.6966C45.2267 36.6748 45.2594 36.6633 45.2929 36.6645L49.5014 36.6664ZM10.9748 35.2914C10.6219 34.9971 10.1775 34.8351 9.71801 34.8331H5.50132C4.48879 34.8331 3.66797 35.6539 3.66797 36.6665V39.4164C3.66797 40.429 4.48879 41.2498 5.50132 41.2498H12.6935C13.0988 41.2509 13.4946 41.1268 13.8268 40.8945C14.159 40.6622 14.4114 40.333 14.5494 39.9518C14.6874 39.5707 14.7044 39.1562 14.5979 38.7651C14.4915 38.3739 14.2669 38.0252 13.9548 37.7665L10.9748 35.2914ZM12.8246 39.3247C12.8177 39.353 12.8008 39.3778 12.7771 39.3946C12.7533 39.4115 12.7243 39.4192 12.6954 39.4163H5.50132V36.6664H9.71801C9.75148 36.6652 9.78423 36.6766 9.80967 36.6985L12.7925 39.179C12.8139 39.1958 12.8289 39.2195 12.8347 39.2461C12.8406 39.2727 12.837 39.3004 12.8246 39.3247Z" fill="white"/>
<path fill-rule="evenodd" clip-rule="evenodd" d="M11.9154 44H5.49866C4.99244 44 4.58203 44.4104 4.58203 44.9166C4.58203 45.4229 4.99244 45.8333 5.49866 45.8333H11.9154C12.4216 45.8333 12.832 45.4229 12.832 44.9166C12.832 44.4104 12.4216 44 11.9154 44ZM49.4987 44H43.082C42.5758 44 42.1654 44.4104 42.1654 44.9166C42.1654 45.4229 42.5758 45.8333 43.082 45.8333H49.4987C50.0049 45.8333 50.4153 45.4229 50.4153 44.9166C50.4153 44.4104 50.0049 44 49.4987 44ZM35.7487 44H19.2487C18.7425 44 18.3321 44.4104 18.3321 44.9166C18.3321 45.4229 18.7425 45.8333 19.2487 45.8333H35.7487C36.2549 45.8333 36.6653 45.4229 36.6653 44.9166C36.6653 44.4104 36.2549 44 35.7487 44Z" fill="white"/>
<path d="M55 26.5833C55 25.0646 53.7688 23.8333 52.25 23.8333H50.4167C50.0218 23.8348 49.6319 23.9218 49.2738 24.0882C48.9157 24.2547 48.5979 24.4967 48.3422 24.7977L46.6217 19.6424C46.412 19.0114 46.0673 18.4337 45.6115 17.9496C45.1557 17.4654 44.5998 17.0865 43.9826 16.8392C43.9826 16.7247 44 16.6147 44 16.5001C44 7.38728 36.6127 0 27.5 0C18.3872 0 11 7.38728 11 16.5C11 16.6146 11.0147 16.7246 11.0175 16.8391C10.4007 17.086 9.84513 17.4644 9.3895 17.9478C8.93387 18.4313 8.58912 19.0083 8.37925 19.6387L6.65777 24.7977C6.40211 24.4967 6.08431 24.2547 5.72622 24.0882C5.36813 23.9218 4.97824 23.8348 4.58335 23.8333H2.74999C1.23124 23.8333 6.9848e-06 25.0646 6.9848e-06 26.5833C6.9848e-06 28.1021 1.23124 29.3333 2.74999 29.3333H4.20379L0.812165 32.725C0.554117 32.9804 0.349425 33.2845 0.209996 33.6197C0.0705677 33.9549 -0.000812976 34.3144 6.9848e-06 34.6775V46.75C0.00236234 47.3167 0.179761 47.8689 0.507934 48.3309C0.836107 48.793 1.29903 49.1424 1.83336 49.3313V52.25C1.83336 53.7688 3.06459 55 4.58335 55H11C12.5188 55 13.75 53.7688 13.75 52.25V49.5H41.25V52.25C41.25 53.7688 42.4812 55 44 55H50.4167C51.9354 55 53.1667 53.7688 53.1667 52.25V49.3313C53.701 49.1424 54.1639 48.793 54.4921 48.3309C54.8202 47.8689 54.9976 47.3167 55 46.75V34.6775C55.0008 34.3151 54.9297 33.9562 54.7907 33.6215C54.6518 33.2868 54.4478 32.983 54.1906 32.7277L50.7989 29.3361H52.25C52.6114 29.3361 52.9692 29.2648 53.303 29.1264C53.6368 28.9881 53.9401 28.7852 54.1955 28.5296C54.4509 28.2739 54.6534 27.9705 54.7914 27.6365C54.9295 27.3026 55.0003 26.9447 55 26.5833ZM44.8809 20.219L47.3109 27.5H39.7631C41.9448 25.0776 43.3559 22.0604 43.8166 18.833C44.314 19.1655 44.6881 19.6526 44.8809 20.219ZM27.5 1.83335C35.6002 1.83335 42.1666 8.39981 42.1666 16.5C42.1666 24.6002 35.6002 31.1667 27.5 31.1667C19.3998 31.1667 12.8333 24.6002 12.8333 16.5C12.843 8.40378 19.4038 1.84292 27.5 1.83335ZM10.12 20.2144C10.3133 19.6497 10.6869 19.1642 11.1834 18.8329C11.6441 22.0603 13.0552 25.0775 15.2369 27.5H7.68898L10.12 20.2144ZM2.74999 27.5C2.24377 27.5 1.83336 27.0895 1.83336 26.5833C1.83336 26.0771 2.24377 25.6667 2.74999 25.6667H4.58335C5.08957 25.6667 5.49998 26.0771 5.49998 26.5833V27.5H2.74999ZM11.9167 52.25C11.9167 52.7562 11.5063 53.1666 11 53.1666H4.58335C4.07713 53.1666 3.66672 52.7562 3.66672 52.25V49.5H11.9167V52.25ZM51.3333 52.25C51.3333 52.7562 50.9229 53.1666 50.4167 53.1666H44C43.4938 53.1666 43.0833 52.7562 43.0833 52.25V49.5H51.3333V52.25ZM52.8917 34.0239C52.9786 34.1091 53.0477 34.2108 53.0949 34.323C53.1421 34.4352 53.1665 34.5557 53.1667 34.6775V46.75C53.1667 47.2562 52.7562 47.6666 52.25 47.6666H2.74999C2.24377 47.6666 1.83336 47.2562 1.83336 46.75V34.6775C1.83349 34.5557 1.85787 34.4352 1.90508 34.323C1.9523 34.2108 2.0214 34.1091 2.10835 34.0239L6.79617 29.3333H17.1545C23.1871 34.2222 31.8183 34.2222 37.851 29.3333H48.2093L52.8917 34.0239ZM49.5 27.5V26.5833C49.5 26.0771 49.9104 25.6667 50.4167 25.6667H52.25C52.7562 25.6667 53.1667 26.0771 53.1667 26.5833C53.1667 27.0895 52.7562 27.5 52.25 27.5H49.5Z" fill="white"/>
<path d="M19.3402 16.0269C19.5809 16.0273 19.8194 15.9801 20.0418 15.8881C20.2642 15.7961 20.4663 15.661 20.6364 15.4906L21.1176 15.0094L23.1123 17.0041L22.654 17.4624C20.0492 17.1794 17.7065 19.0569 17.4152 21.6608C17.4019 21.9471 17.4645 22.2318 17.5966 22.4862C17.7287 22.7406 17.9257 22.9555 18.1676 23.1093C18.4095 23.2631 18.6877 23.3503 18.9741 23.362C19.2605 23.3737 19.5449 23.3095 19.7985 23.176C20.3971 22.857 20.6235 23.0843 20.7684 23.2392C20.9132 23.3941 21.1423 23.6059 20.8289 24.1889C20.6948 24.4352 20.627 24.7121 20.632 24.9924C20.6371 25.2728 20.7148 25.5471 20.8576 25.7884C21.0005 26.0297 21.2035 26.2298 21.4469 26.3692C21.6902 26.5085 21.9656 26.5822 22.246 26.5832H22.301C23.0773 26.537 23.8244 26.2709 24.4552 25.816C25.167 25.326 25.7341 24.6537 26.0972 23.8695C26.4604 23.0854 26.6062 22.2181 26.5195 21.3582L26.9943 20.8825L32.1579 26.0461C32.8759 26.7636 34.0395 26.7636 34.7576 26.0461L36.0492 24.7499C36.7624 24.0343 36.7624 22.8767 36.0492 22.1612L30.8856 16.9986L32.3349 15.5484C33.0213 15.6349 33.7184 15.563 34.3727 15.3379C35.0269 15.1129 35.6208 14.7409 36.1088 14.2504C36.931 13.495 37.443 12.4609 37.5452 11.3491V11.3427C37.5589 11.0562 37.4966 10.7712 37.3646 10.5165C37.2327 10.2618 37.0357 10.0466 36.7937 9.89267C36.5517 9.73871 36.2733 9.6515 35.9867 9.63987C35.7001 9.62824 35.4155 9.69261 35.1618 9.82645C34.5623 10.1464 34.3305 9.91171 34.1875 9.76781C34.0445 9.62391 33.8107 9.39015 34.1388 8.80075C34.2713 8.54796 34.3351 8.26486 34.324 7.9797C34.3129 7.69454 34.2273 7.41727 34.0756 7.17553C33.9313 6.9322 33.7233 6.73289 33.4741 6.59912C33.2248 6.46536 32.9437 6.40222 32.6612 6.41651C31.8845 6.46296 31.1371 6.72937 30.5061 7.18464C29.7909 7.67713 29.2221 8.35376 28.8599 9.14297C28.4976 9.93218 28.3554 10.8046 28.4482 11.668L27.0035 13.1136L25.0089 11.1189L25.8228 10.305C26.0521 10.0756 26.2165 9.78945 26.299 9.4758C26.3816 9.16214 26.3795 8.83219 26.2929 8.51962C26.2064 8.20704 26.0384 7.92303 25.8062 7.69657C25.574 7.47011 25.2859 7.3093 24.9713 7.23056L21.8592 6.45233C21.5519 6.37634 21.2303 6.38078 20.9252 6.46523C20.6202 6.54967 20.342 6.71128 20.1175 6.93446L16.0998 10.9531C15.9294 11.1234 15.7943 11.3255 15.7021 11.548C15.6099 11.7705 15.5625 12.0089 15.5625 12.2498C15.5625 12.4906 15.6099 12.729 15.7021 12.9515C15.7943 13.174 15.9294 13.3761 16.0998 13.5464L18.0449 15.4915C18.2148 15.6618 18.4168 15.7967 18.6391 15.8886C18.8614 15.9805 19.0997 16.0275 19.3402 16.0269ZM34.7494 23.4519L33.4569 24.7499L28.2914 19.589L29.5885 18.2919L34.7494 23.4519ZM30.0817 12.6289C30.1929 12.5177 30.2737 12.3798 30.3162 12.2284C30.3588 12.0771 30.3617 11.9173 30.3246 11.7645C30.2031 11.1887 30.2546 10.5898 30.4727 10.0432C30.6908 9.49663 31.0657 9.02677 31.5502 8.69275C31.7909 8.52067 32.0594 8.39136 32.344 8.31049C32.1544 8.77269 32.1058 9.28067 32.2044 9.77043C32.3029 10.2602 32.5442 10.7098 32.8979 11.0627C33.2515 11.4156 33.7017 11.6559 34.1917 11.7534C34.6816 11.8509 35.1895 11.8012 35.6513 11.6105C35.4878 12.123 35.1967 12.5855 34.8052 12.9544C34.48 13.2869 34.0728 13.5277 33.6247 13.6524C33.1766 13.7772 32.7035 13.7814 32.2533 13.6648C32.0993 13.6257 31.9378 13.6273 31.7847 13.6694C31.6316 13.7115 31.492 13.7926 31.3797 13.9049L24.8897 20.395C24.7795 20.5051 24.6992 20.6415 24.6564 20.7913C24.6135 20.9412 24.6096 21.0994 24.6449 21.2512C24.7606 21.8249 24.7055 22.42 24.4863 22.9627C24.2672 23.5055 23.8936 23.972 23.412 24.3046C23.1703 24.4766 22.9009 24.6059 22.6154 24.6868C22.8189 24.2288 22.8753 23.7189 22.7768 23.2276C22.6783 22.7362 22.4298 22.2874 22.0655 21.9432C21.843 21.7033 21.5736 21.5116 21.274 21.3801C20.9744 21.2486 20.651 21.18 20.3238 21.1787C19.9742 21.1817 19.6284 21.2508 19.3045 21.3822C19.4683 20.8697 19.7597 20.4073 20.1515 20.0384C20.481 19.7037 20.8937 19.4628 21.3472 19.3404C21.8007 19.218 22.2786 19.2184 22.7318 19.3417C22.8864 19.3818 23.0487 19.3808 23.2027 19.3388C23.3567 19.2968 23.4971 19.2154 23.61 19.1025L30.0817 12.6289ZM25.7074 14.4099L24.4094 15.7079L22.4147 13.7132L23.7127 12.4152L25.7074 14.4099ZM21.4146 8.23065L24.5313 9.00528L19.3402 14.1945L17.3951 12.2503L21.4146 8.23065Z" fill="white"/>
</g>
<defs>
<clipPath id="clip0_1_18394">
<rect width="55" height="55" fill="white"/>
</clipPath>
</defs>
</svg>
