<svg width="55" height="55" viewBox="0 0 55 55" fill="none" xmlns="http://www.w3.org/2000/svg">
<g clip-path="url(#clip0_1_28414)">
<path d="M25.6667 54.9392C39.4772 54.9227 50.8035 44.0026 51.3104 30.2164H52.2372C52.6144 30.2165 52.9876 30.1394 53.3338 29.9899C53.68 29.8404 53.992 29.6217 54.2503 29.3471C54.5087 29.0726 54.708 28.7481 54.836 28.3937C54.9639 28.0392 55.0179 27.6624 54.9945 27.2863C53.9614 12.6678 42.317 1.03709 27.6833 0.00514439C27.3069 -0.0178355 26.9298 0.0363387 26.5752 0.164335C26.2205 0.292332 25.8959 0.491445 25.6211 0.74943C25.3464 1.00741 25.1273 1.31882 24.9775 1.66448C24.8277 2.01015 24.7503 2.38278 24.75 2.75945V3.68518C10.8258 4.26754 -0.0880089 15.8406 0.160408 29.7595C0.408824 43.6784 11.7315 54.8541 25.6667 54.9392ZM26.5833 2.75945C26.5838 2.51382 26.6815 2.27836 26.8551 2.10442C27.0287 1.93047 27.2642 1.83218 27.5101 1.83097H27.5651C41.2729 2.81713 52.1776 13.7071 53.1667 27.3998C53.1754 27.5261 53.1579 27.6527 53.1152 27.7719C53.0724 27.891 53.0055 28 52.9185 28.0919C52.8315 28.1839 52.7264 28.2569 52.6097 28.3062C52.4931 28.3556 52.3675 28.3803 52.2408 28.3787H45.6051C45.1696 28.376 44.7492 28.2185 44.4193 27.9345C44.0895 27.6504 43.8716 27.2584 43.8047 26.8285C43.2281 22.8814 41.3928 19.2253 38.5713 16.4027C35.7497 13.5801 32.0922 11.7415 28.1417 11.1597C27.7084 11.0963 27.3125 10.8793 27.0263 10.5482C26.7401 10.2171 26.5829 9.79418 26.5833 9.35678V2.75945ZM24.75 5.5165V9.35678C24.7518 10.2355 25.0698 11.0842 25.646 11.7482C26.2222 12.4122 27.0182 12.8471 27.8887 12.9736C31.4474 13.4997 34.7415 15.158 37.282 17.7024C39.8226 20.2467 41.4741 23.5415 41.9916 27.0977C42.1238 27.9609 42.56 28.7486 43.2217 29.3193C43.8834 29.89 44.7272 30.2061 45.6014 30.2109H49.4771C48.9857 43.1144 38.2864 53.2746 25.3605 53.1116C12.4355 52.9486 1.99466 42.5229 1.82966 29.6112C1.66466 16.7013 11.8323 6.01004 24.75 5.5165Z" fill="white"/>
<path d="M25.668 32.0477C26.3973 32.0477 27.0968 31.7583 27.6125 31.2431C28.1282 30.7279 28.418 30.0292 28.418 29.3007C28.418 28.5721 28.1282 27.8734 27.6125 27.3583C27.0968 26.8431 26.3973 26.5537 25.668 26.5537C24.9386 26.5537 24.2391 26.8431 23.7234 27.3583C23.2077 27.8734 22.918 28.5721 22.918 29.3007C22.918 30.0292 23.2077 30.7279 23.7234 31.2431C24.2391 31.7583 24.9386 32.0477 25.668 32.0477ZM25.668 28.385C25.9111 28.385 26.1442 28.4815 26.3162 28.6532C26.4881 28.8249 26.5846 29.0578 26.5846 29.3007C26.5846 29.5435 26.4881 29.7764 26.3162 29.9482C26.1442 30.1199 25.9111 30.2164 25.668 30.2164C25.4249 30.2164 25.1917 30.1199 25.0198 29.9482C24.8479 29.7764 24.7513 29.5435 24.7513 29.3007C24.7513 29.0578 24.8479 28.8249 25.0198 28.6532C25.1917 28.4815 25.4249 28.385 25.668 28.385Z" fill="white"/>
<path d="M25.6667 35.7099C26.9358 35.7099 28.1764 35.3339 29.2316 34.6296C30.2868 33.9254 31.1092 32.9243 31.5949 31.7531C32.0806 30.5819 32.2076 29.2931 31.96 28.0498C31.7125 26.8064 31.1013 25.6644 30.2039 24.768C29.3066 23.8716 28.1632 23.2611 26.9185 23.0138C25.6738 22.7665 24.3836 22.8934 23.2111 23.3785C22.0386 23.8637 21.0365 24.6852 20.3314 25.7393C19.6263 26.7933 19.25 28.0325 19.25 29.3002C19.2519 30.9996 19.9286 32.6288 21.1315 33.8304C22.3345 35.032 23.9655 35.7079 25.6667 35.7099ZM25.6667 24.7219C26.8822 24.7219 28.048 25.2043 28.9076 26.0629C29.7671 26.9215 30.25 28.086 30.25 29.3002C30.25 30.5145 29.7671 31.679 28.9076 32.5376C28.048 33.3962 26.8822 33.8785 25.6667 33.8785C24.4511 33.8785 23.2853 33.3962 22.4258 32.5376C21.5662 31.679 21.0833 30.5145 21.0833 29.3002C21.0833 28.086 21.5662 26.9215 22.4258 26.0629C23.2853 25.2043 24.4511 24.7219 25.6667 24.7219Z" fill="white"/>
<path d="M25.668 43.0352C33.2616 43.0352 39.418 36.8857 39.418 29.3003C39.418 21.715 33.2616 15.5654 25.668 15.5654C18.0743 15.5654 11.918 21.715 11.918 29.3003C11.9271 36.882 18.078 43.0261 25.668 43.0352ZM25.668 17.3967C32.2496 17.3967 37.5846 22.7259 37.5846 29.3003C37.5846 35.8748 32.2496 41.2039 25.668 41.2039C19.0863 41.2039 13.7513 35.8748 13.7513 29.3003C13.7586 22.7296 19.09 17.4041 25.668 17.3967Z" fill="white"/>
<path d="M16.5007 30.2171C17.0069 30.2171 17.4173 29.8071 17.4173 29.3014C17.4173 28.7957 17.0069 28.3857 16.5007 28.3857C15.9944 28.3857 15.584 28.7957 15.584 29.3014C15.584 29.8071 15.9944 30.2171 16.5007 30.2171Z" fill="white"/>
<path d="M23.1176 37.1394C23.0027 37.1008 22.8813 37.0853 22.7604 37.0938C22.6395 37.1023 22.5215 37.1347 22.4132 37.1891C22.3049 37.2434 22.2084 37.3187 22.1295 37.4106C22.0505 37.5025 21.9905 37.6091 21.9531 37.7242C21.9156 37.8394 21.9014 37.9608 21.9112 38.0815C21.9211 38.2022 21.9548 38.3197 22.0104 38.4273C22.066 38.5349 22.1424 38.6304 22.2352 38.7083C22.3281 38.7861 22.4354 38.8449 22.5511 38.881C22.7815 38.953 23.031 38.9314 23.2455 38.8208C23.4599 38.7101 23.6221 38.5194 23.6967 38.2901C23.7713 38.0608 23.7523 37.8113 23.6439 37.5959C23.5355 37.3805 23.3463 37.2164 23.1176 37.1394ZM33.8252 35.2221C33.8958 35.1247 33.9465 35.0143 33.9744 34.8973C34.0023 34.7804 34.0069 34.6591 33.9879 34.5403C33.9688 34.4216 33.9266 34.3077 33.8635 34.2053C33.8005 34.1029 33.7178 34.0139 33.6203 33.9433C33.5228 33.8728 33.4123 33.8222 33.2952 33.7943C33.1781 33.7664 33.0567 33.7618 32.9378 33.7808C32.8189 33.7998 32.705 33.842 32.6024 33.905C32.4999 33.968 32.4108 34.0506 32.3402 34.148C32.1976 34.3447 32.1391 34.5899 32.1775 34.8297C32.2159 35.0695 32.3481 35.2843 32.5451 35.4267C32.742 35.5691 32.9875 35.6276 33.2275 35.5892C33.4676 35.5508 33.6826 35.4188 33.8252 35.2221ZM33.6217 24.6599C33.818 24.5166 33.9493 24.3013 33.9867 24.0614C34.0241 23.8214 33.9645 23.5764 33.8211 23.3803C33.75 23.2832 33.6606 23.201 33.5577 23.1385C33.4549 23.0759 33.3408 23.0342 33.2218 23.0157C32.9816 22.9783 32.7363 23.0379 32.54 23.1811C32.3437 23.3244 32.2124 23.5397 32.175 23.7797C32.1376 24.0197 32.1972 24.2647 32.3406 24.4608C32.4841 24.6569 32.6996 24.788 32.9399 24.8254C33.1801 24.8627 33.4254 24.8032 33.6217 24.6599ZM23.1176 21.4634C23.2333 21.4272 23.3406 21.3685 23.4334 21.2906C23.5263 21.2127 23.6027 21.1172 23.6583 21.0096C23.7139 20.902 23.7476 20.7845 23.7575 20.6638C23.7673 20.5431 23.7531 20.4217 23.7156 20.3065C23.6782 20.1914 23.6182 20.0848 23.5392 19.9929C23.4603 19.9011 23.3638 19.8258 23.2555 19.7714C23.1472 19.717 23.0292 19.6846 22.9083 19.6761C22.7874 19.6676 22.666 19.6831 22.5511 19.7218C22.3223 19.7988 22.1332 19.9628 22.0248 20.1782C21.9164 20.3937 21.8974 20.6431 21.972 20.8724C22.0466 21.1018 22.2087 21.2924 22.4232 21.4031C22.6377 21.5137 22.8872 21.5354 23.1176 21.4634Z" fill="white"/>
<path d="M46.7507 26.554C47.2569 26.554 47.6673 26.144 47.6673 25.6383C47.6673 25.1326 47.2569 24.7227 46.7507 24.7227C46.2444 24.7227 45.834 25.1326 45.834 25.6383C45.834 26.144 46.2444 26.554 46.7507 26.554Z" fill="white"/>
<path d="M21.2345 44.818L18.0702 48.1308C17.9023 48.3065 17.8112 48.5416 17.8169 48.7844C17.8225 49.0273 17.9245 49.2579 18.1004 49.4256C18.2763 49.5932 18.5117 49.6843 18.7548 49.6786C18.9979 49.6729 19.2287 49.571 19.3966 49.3953L22.5609 46.0825C22.7288 45.9068 22.8199 45.6717 22.8143 45.4289C22.8086 45.186 22.7066 44.9554 22.5307 44.7877C22.3548 44.6201 22.1194 44.529 21.8763 44.5347C21.6333 44.5404 21.4024 44.6423 21.2345 44.818ZM30.7028 44.2795C30.5858 44.2511 30.4643 44.246 30.3453 44.2645C30.2263 44.283 30.1122 44.3248 30.0093 44.3873C29.9065 44.4499 29.817 44.5321 29.746 44.6293C29.675 44.7264 29.6238 44.8366 29.5954 44.9535L28.5138 49.4027C28.4638 49.636 28.5069 49.8795 28.634 50.0815C28.7611 50.2835 28.9621 50.428 29.1942 50.4842C29.4263 50.5404 29.6712 50.5039 29.8768 50.3824C30.0823 50.261 30.2324 50.0642 30.2949 49.8339L31.3765 45.3848C31.4337 45.149 31.3949 44.9001 31.2686 44.6929C31.1422 44.4857 30.9387 44.337 30.7028 44.2795ZM37.5264 39.7571C37.4109 39.7909 37.3031 39.847 37.2092 39.9224C37.1154 39.9978 37.0373 40.0909 36.9795 40.1965C36.9217 40.302 36.8853 40.4179 36.8724 40.5374C36.8594 40.657 36.8702 40.778 36.904 40.8934L38.1947 45.2886C38.2254 45.4075 38.2798 45.519 38.3545 45.6164C38.4292 45.7139 38.5228 45.7954 38.6297 45.856C38.7366 45.9166 38.8546 45.9551 38.9767 45.9692C39.0988 45.9834 39.2225 45.9728 39.3404 45.9383C39.4584 45.9037 39.5681 45.8458 39.6632 45.768C39.7583 45.6901 39.8367 45.594 39.8938 45.4853C39.951 45.3766 39.9856 45.2576 39.9958 45.1352C40.0059 45.0128 39.9913 44.8897 39.9529 44.7731L38.6631 40.3779C38.5946 40.1451 38.4365 39.949 38.2234 39.8326C38.0102 39.7162 37.7596 39.689 37.5264 39.7571ZM44.6269 35.9791C44.7134 36.0651 44.8162 36.1329 44.9293 36.1787C45.0424 36.2244 45.1635 36.2472 45.2855 36.2456C45.4075 36.244 45.5279 36.2181 45.6398 36.1694C45.7516 36.1206 45.8526 36.0501 45.9368 35.9619C46.021 35.8737 46.0868 35.7696 46.1302 35.6557C46.1736 35.5418 46.1938 35.4204 46.1896 35.2986C46.1854 35.1768 46.1569 35.0571 46.1058 34.9464C46.0547 34.8357 45.982 34.7364 45.8919 34.6541L42.5754 31.4979C42.3995 31.3302 42.1642 31.2391 41.9211 31.2448C41.678 31.2505 41.4471 31.3524 41.2793 31.5281C41.1114 31.7038 41.0203 31.9389 41.0259 32.1817C41.0316 32.4245 41.1336 32.6551 41.3095 32.8228L44.6269 35.9791ZM20.6304 14.321C20.7474 14.3494 20.8689 14.3545 20.9879 14.336C21.1069 14.3175 21.2211 14.2758 21.3239 14.2132C21.4267 14.1506 21.5162 14.0684 21.5872 13.9713C21.6582 13.8741 21.7094 13.764 21.7378 13.6471L22.8194 9.19787C22.8694 8.96459 22.8263 8.72102 22.6992 8.51903C22.5721 8.31703 22.3711 8.17256 22.139 8.11635C21.9069 8.06015 21.662 8.09665 21.4564 8.2181C21.2509 8.33955 21.1009 8.53634 21.0384 8.7666L19.9567 13.2158C19.8995 13.4516 19.9383 13.7004 20.0647 13.9076C20.191 14.1148 20.3945 14.2635 20.6304 14.321ZM12.6701 18.2208C12.702 18.3383 12.7571 18.4483 12.8321 18.5443C12.9071 18.6403 13.0005 18.7204 13.1069 18.78C13.2133 18.8395 13.3305 18.8772 13.4516 18.8909C13.5728 18.9046 13.6954 18.894 13.8124 18.8598C13.9294 18.8256 14.0384 18.7684 14.133 18.6915C14.2276 18.6147 14.3059 18.5198 14.3634 18.4124C14.4208 18.305 14.4562 18.1872 14.4675 18.0659C14.4788 17.9446 14.4658 17.8224 14.4292 17.7062L13.1385 13.311C13.1078 13.1921 13.0534 13.0807 12.9787 12.9832C12.904 12.8857 12.8104 12.8042 12.7035 12.7436C12.5966 12.683 12.4786 12.6445 12.3565 12.6304C12.2344 12.6162 12.1107 12.6268 11.9928 12.6614C11.8749 12.6959 11.7651 12.7539 11.67 12.8317C11.5749 12.9095 11.4965 13.0056 11.4394 13.1143C11.3822 13.223 11.3476 13.3421 11.3374 13.4644C11.3273 13.5868 11.3419 13.7099 11.3804 13.8265L12.6701 18.2208ZM8.86594 26.198C9.04184 26.3657 9.27721 26.4567 9.52029 26.4511C9.64065 26.4483 9.75928 26.4218 9.8694 26.3732C9.97953 26.3246 10.079 26.2548 10.1621 26.1678C10.2452 26.0808 10.3104 25.9783 10.3538 25.8661C10.3973 25.754 10.4182 25.6344 10.4154 25.5142C10.4126 25.3939 10.3861 25.2754 10.3375 25.1654C10.2888 25.0554 10.219 24.9561 10.1319 24.8731L6.81536 21.7122C6.72827 21.6292 6.62565 21.5641 6.51338 21.5207C6.40111 21.4773 6.28137 21.4564 6.16101 21.4592C5.91793 21.4648 5.68706 21.5667 5.51919 21.7424C5.43607 21.8294 5.37092 21.9319 5.32745 22.0441C5.28399 22.1562 5.26306 22.2758 5.26587 22.396C5.27155 22.6389 5.37355 22.8695 5.54944 23.0372L8.86594 26.198ZM9.78078 35.0305C10.0051 35.0305 10.2217 34.9483 10.3894 34.7995C10.5572 34.6507 10.6645 34.4457 10.691 34.2232C10.7176 34.0006 10.6615 33.7761 10.5335 33.5921C10.4054 33.4081 10.2142 33.2774 9.99619 33.2248L5.54211 32.1443C5.30856 32.0944 5.06473 32.1375 4.86252 32.2644C4.6603 32.3914 4.51566 32.5921 4.4594 32.824C4.40313 33.0558 4.43968 33.3005 4.56126 33.5058C4.68284 33.7112 4.87985 33.861 5.11036 33.9234L9.56444 35.0039C9.63503 35.0222 9.70744 35.0314 9.78078 35.0305ZM14.0607 40.5253L9.66069 41.8146C9.54168 41.8453 9.43007 41.8996 9.33249 41.9742C9.23492 42.0489 9.15336 42.1424 9.09269 42.2491C9.03201 42.3559 8.99345 42.4738 8.9793 42.5957C8.96515 42.7177 8.9757 42.8413 9.01032 42.9591C9.04493 43.0769 9.10291 43.1865 9.18081 43.2815C9.25871 43.3765 9.35493 43.4548 9.46375 43.5119C9.57258 43.569 9.69178 43.6036 9.81427 43.6137C9.93676 43.6238 10.06 43.6093 10.1768 43.5708L14.5768 42.2825C14.6944 42.2506 14.8046 42.1956 14.9007 42.1207C14.9968 42.0458 15.077 41.9524 15.1366 41.8462C15.1961 41.7399 15.2339 41.6229 15.2476 41.5018C15.2613 41.3808 15.2507 41.2583 15.2165 41.1414C15.1822 41.0246 15.1249 40.9157 15.048 40.8212C14.9711 40.7267 14.8761 40.6485 14.7686 40.5911C14.661 40.5337 14.5431 40.4984 14.4217 40.4871C14.3003 40.4758 14.1779 40.4888 14.0616 40.5253H14.0607Z" fill="white"/>
<path d="M29.3346 9.15651C29.8409 9.15651 30.2513 8.74656 30.2513 8.24085C30.2513 7.73515 29.8409 7.3252 29.3346 7.3252C28.8284 7.3252 28.418 7.73515 28.418 8.24085C28.418 8.74656 28.8284 9.15651 29.3346 9.15651Z" fill="white"/>
</g>
<defs>
<clipPath id="clip0_1_28414">
<rect width="55" height="54.9396" fill="white"/>
</clipPath>
</defs>
</svg>
