<svg width="56" height="56" viewBox="0 0 56 56" fill="none" xmlns="http://www.w3.org/2000/svg">
<path d="M31.8199 4.8218C31.8199 4.58623 31.9136 4.3603 32.0803 4.19373C32.2471 4.02716 32.4733 3.93358 32.7091 3.93358H35.7578V0.888217C35.7578 0.652647 35.8515 0.426726 36.0182 0.260153C36.185 0.0935797 36.4112 0 36.647 0C36.8828 0 37.109 0.0935797 37.2758 0.260153C37.4425 0.426726 37.5362 0.652647 37.5362 0.888217V3.93358H40.5848C40.8206 3.93358 41.0468 4.02716 41.2136 4.19373C41.3803 4.3603 41.474 4.58623 41.474 4.8218C41.474 5.05736 41.3803 5.28329 41.2136 5.44986C41.0468 5.61643 40.8206 5.71001 40.5848 5.71001H37.5362V8.75526C37.5362 8.99083 37.4425 9.21675 37.2758 9.38333C37.109 9.5499 36.8828 9.64348 36.647 9.64348C36.4112 9.64348 36.185 9.5499 36.0182 9.38333C35.8515 9.21675 35.7578 8.99083 35.7578 8.75526V5.71001H32.7091C32.4733 5.71001 32.2471 5.61643 32.0803 5.44986C31.9136 5.28329 31.8199 5.05736 31.8199 4.8218ZM6.92326 6.15412H14.799C15.0348 6.15412 15.261 6.06054 15.4277 5.89397C15.5945 5.72739 15.6882 5.50147 15.6882 5.2659C15.6882 5.03033 15.5945 4.80441 15.4277 4.63784C15.261 4.47127 15.0348 4.37769 14.799 4.37769H6.92326C6.68743 4.37769 6.46126 4.47127 6.29451 4.63784C6.12775 4.80441 6.03407 5.03033 6.03407 5.2659C6.03407 5.50147 6.12775 5.72739 6.29451 5.89397C6.46126 6.06054 6.68743 6.15412 6.92326 6.15412ZM33.7501 33.4984C33.7501 39.0043 29.2659 43.4835 23.754 43.4835C18.2421 43.4835 13.7579 39.0043 13.7579 33.4984C13.7579 27.9926 18.2421 23.5133 23.754 23.5133C29.2659 23.5134 33.7501 27.9927 33.7501 33.4984ZM31.9717 33.4984C31.9717 28.9721 28.2852 25.2897 23.754 25.2897C19.2227 25.2897 15.5363 28.9721 15.5363 33.4984C15.5363 38.0248 19.2228 41.7071 23.754 41.7071C28.2854 41.7071 31.9717 38.0248 31.9717 33.4984ZM28.9036 31.4132C29.0715 31.4132 29.236 31.4606 29.378 31.5501C29.52 31.6395 29.6338 31.7673 29.7062 31.9187C29.7785 32.07 29.8064 32.2388 29.7868 32.4053C29.7671 32.5719 29.7006 32.7295 29.595 32.8599L23.1772 40.7901C23.056 40.9398 22.8895 41.0461 22.7026 41.0931C22.5157 41.14 22.3187 41.125 22.1411 41.0504C21.9634 40.9758 21.8149 40.8456 21.7178 40.6794C21.6206 40.5132 21.5802 40.3199 21.6025 40.1287L22.1521 35.4237H18.6045C18.4379 35.4237 18.2746 35.377 18.1333 35.2888C17.992 35.2006 17.8784 35.0745 17.8053 34.925C17.7323 34.7754 17.7028 34.6083 17.7202 34.4428C17.7376 34.2773 17.8011 34.12 17.9037 33.9888L23.9789 26.2187C24.0955 26.0695 24.2569 25.9614 24.4394 25.9102C24.6219 25.859 24.816 25.8674 24.9934 25.9342C25.1708 26.001 25.3221 26.1227 25.4254 26.2815C25.5287 26.4403 25.5784 26.6279 25.5674 26.8169L25.2994 31.4132H28.9036ZM27.0413 33.1897H24.3569C24.2358 33.1897 24.1159 33.165 24.0047 33.117C23.8935 33.0691 23.7932 32.999 23.7101 32.911C23.627 32.823 23.5628 32.7189 23.5214 32.6052C23.4799 32.4916 23.4622 32.3706 23.4693 32.2498L23.6263 29.5555L20.4272 33.6472H23.1512C23.2766 33.6472 23.4007 33.6737 23.5152 33.725C23.6296 33.7763 23.732 33.8513 23.8154 33.9449C23.8988 34.0385 23.9614 34.1487 23.9992 34.2683C24.0369 34.3878 24.0489 34.514 24.0343 34.6385L23.7249 37.2876L27.0413 33.1897ZM55.13 45.1405C55.13 50.6152 50.671 55.0694 45.1902 55.0694C40.5072 55.0694 36.5709 51.8176 35.5238 47.456H2.73138C1.22531 47.4559 0 46.232 0 44.7276V17.1934C0 15.689 1.22531 14.4651 2.73138 14.4651H6.03407V11.5151C6.03407 11.2795 6.12775 11.0536 6.29451 10.887C6.46126 10.7204 6.68743 10.6268 6.92326 10.6268H14.799C15.0348 10.6268 15.261 10.7204 15.4277 10.887C15.5945 11.0536 15.6882 11.2795 15.6882 11.5151V14.4651H31.8199V11.5151C31.8199 11.2795 31.9136 11.0536 32.0803 10.887C32.2471 10.7204 32.4733 10.6268 32.7091 10.6268H40.5848C40.8206 10.6268 41.0468 10.7204 41.2136 10.887C41.3803 11.0536 41.474 11.2795 41.474 11.5151V14.4651H44.7767C46.2827 14.4651 47.5081 15.689 47.5081 17.1934V35.4847C51.8746 36.5307 55.13 40.4626 55.13 45.1405ZM33.5983 14.4651H39.6956V12.4033H33.5983V14.4651ZM7.81246 14.4651H13.9098V12.4033H7.81246V14.4651ZM1.77839 17.1934V19.5411H45.7297V17.1934C45.7297 16.6685 45.3022 16.2415 44.7767 16.2415H2.73138C2.20587 16.2415 1.77839 16.6685 1.77839 17.1934ZM35.265 45.6794C35.2552 45.5 35.2503 45.3202 35.2502 45.1405C35.2502 39.6655 39.7092 35.2115 45.19 35.2115C45.3711 35.2115 45.5509 35.2167 45.7297 35.2262V21.3174H1.77839V44.7276C1.77839 45.2525 2.20587 45.6794 2.73138 45.6794H35.265ZM53.3516 45.1405C53.3516 40.6451 49.6904 36.9879 45.1902 36.9879C40.6899 36.9879 37.0287 40.645 37.0287 45.1405C37.0287 49.6358 40.6899 53.293 45.1902 53.293C49.6904 53.293 53.3516 49.6358 53.3516 45.1405ZM50.9352 44.0094C50.2712 44.6789 49.6089 45.3499 48.9466 46.021C47.847 47.135 46.7098 48.2871 45.5823 49.4134C45.1473 49.8479 44.5757 50.0652 44.0043 50.0652C43.4328 50.0652 42.8614 49.8479 42.4263 49.4135L39.4519 46.4423C38.5817 45.5731 38.5817 44.1589 39.4519 43.2896C39.8732 42.8687 40.4336 42.6367 41.0298 42.6367C41.626 42.6367 42.1865 42.8687 42.6078 43.2896L43.9982 44.6785L47.7704 40.873C47.9759 40.6646 48.2208 40.4991 48.4908 40.386C48.7609 40.2729 49.0508 40.2145 49.3436 40.2142H49.3525C49.9458 40.2142 50.5039 40.4441 50.9248 40.8622C51.7945 41.7264 51.7992 43.1382 50.9352 44.0094ZM49.6707 42.1218C49.6288 42.0801 49.5791 42.0471 49.5244 42.0246C49.4697 42.0021 49.4112 41.9905 49.352 41.9907H49.3504C49.2915 41.9908 49.2332 42.0025 49.1789 42.0251C49.1246 42.0478 49.0753 42.081 49.0339 42.1228L44.6332 46.5627C44.5508 46.6458 44.4527 46.7119 44.3447 46.757C44.2366 46.8022 44.1207 46.8256 44.0035 46.8259H44.0013C43.7655 46.8259 43.5393 46.7323 43.3725 46.5658L41.3503 44.5457C41.3082 44.5036 41.2583 44.4702 41.2033 44.4474C41.1483 44.4247 41.0893 44.413 41.0297 44.4132C40.9702 44.413 40.9113 44.4247 40.8563 44.4474C40.8013 44.4701 40.7513 44.5035 40.7093 44.5456C40.6244 44.6306 40.5768 44.7458 40.5768 44.8658C40.5768 44.9859 40.6244 45.101 40.7093 45.186L43.6838 48.1572C43.7688 48.242 43.8841 48.2896 44.0042 48.2896C44.1244 48.2896 44.2397 48.242 44.3247 48.1572C45.4478 47.0354 46.5826 45.8856 47.6801 44.7737C48.3435 44.1015 49.0069 43.4296 49.6719 42.759C49.756 42.6742 49.8031 42.5595 49.8029 42.4401C49.8027 42.3207 49.7551 42.2063 49.6707 42.1218Z" fill="white"/>
</svg>
