<svg width="55" height="55" viewBox="0 0 55 55" fill="none" xmlns="http://www.w3.org/2000/svg">
<path d="M3.18012 17.7272L14.7387 6.18133M5.58637 20.1308L17.145 8.58493M25.352 19.8304C26.8559 18.3281 25.352 16.7829 25.352 16.7829C25.352 16.7829 15.3403 6.78223 13.7934 5.27997C12.2465 3.77772 10.7426 5.27997 10.7426 5.27997L2.27778 13.7784C2.27778 13.7784 0.773872 15.2807 2.27778 16.8259C3.78168 18.371 13.7934 28.3288 13.7934 28.3288C13.7934 28.3288 15.2973 29.8311 16.8442 28.3288L25.352 19.8304Z" stroke="white" stroke-width="1.5" stroke-miterlimit="10" stroke-linecap="square" stroke-linejoin="round"/>
<path d="M18.6709 21.6516C20.0134 20.3107 20.0134 18.1366 18.6709 16.7956C17.3285 15.4547 15.152 15.4547 13.8096 16.7956C12.4672 18.1366 12.4672 20.3107 13.8096 21.6516C15.152 22.9926 17.3285 22.9926 18.6709 21.6516Z" stroke="white" stroke-width="1.5" stroke-miterlimit="10" stroke-linecap="square" stroke-linejoin="round"/>
<path d="M42.0513 45.0209C44.065 43.0095 44.065 39.7483 42.0513 37.7369C40.0377 35.7255 36.7729 35.7255 34.7593 37.7369C32.7457 39.7483 32.7457 43.0095 34.7593 45.0209C36.7729 47.0323 40.0377 47.0323 42.0513 45.0209Z" stroke="white" stroke-width="1.5" stroke-miterlimit="10" stroke-linecap="square" stroke-linejoin="round"/>
<path d="M32.957 46.828L34.7617 45.0253M42.0664 37.7286L43.8711 35.9259M19.5938 25.5818L31.1094 37.1277M22.6016 22.5773L34.1602 34.0803M40.2617 6.18128L51.8203 17.7272M37.8555 8.58489L49.4141 20.1308M41.25 50.0471L47.0937 44.2098C46.6641 42.6217 47.0078 40.8619 48.125 39.5742L40.2187 31.6338C38.8867 32.7497 37.168 33.0931 35.5781 32.6639L29.7344 38.5441C30.1641 40.1322 29.8203 41.892 28.7031 43.1796L36.6523 51.1201C37.9414 50.0042 39.6602 49.6608 41.25 50.0471ZM38.1562 28.3288C39.6602 29.8311 41.207 28.3288 41.207 28.3288L52.7656 16.7829C54.2695 15.2806 52.7656 13.7355 52.7656 13.7355L44.2578 5.237C44.2578 5.237 42.7539 3.73475 41.207 5.237L29.6484 16.7829C29.6484 16.7829 28.1445 18.2852 29.6484 19.8303L38.1562 28.3288Z" stroke="white" stroke-width="1.5" stroke-miterlimit="10" stroke-linecap="square" stroke-linejoin="round"/>
<path d="M41.1885 21.6624C42.531 20.3214 42.531 18.1473 41.1885 16.8064C39.8461 15.4654 37.6696 15.4654 36.3272 16.8064C34.9847 18.1473 34.9847 20.3214 36.3272 21.6624C37.6696 23.0033 39.8461 23.0033 41.1885 21.6624Z" stroke="white" stroke-width="1.5" stroke-miterlimit="10" stroke-linecap="square" stroke-linejoin="round"/>
<path d="M20.2252 45.0151C22.2388 43.0036 22.2388 39.7425 20.2252 37.731C18.2115 35.7196 14.9468 35.7196 12.9331 37.731C10.9195 39.7425 10.9195 43.0036 12.9331 45.0151C14.9468 47.0265 18.2115 47.0265 20.2252 45.0151Z" stroke="white" stroke-width="1.5" stroke-miterlimit="10" stroke-linecap="square" stroke-linejoin="round"/>
<path d="M11.1289 35.9267L12.9336 37.7294M20.2383 45.0261L22.043 46.8288M24.4492 30.4757L20.8398 34.0811M32.3984 22.5781L27.5859 27.3424M27.5 33.5231L23.8906 37.1285M35.4062 25.5826L30.6367 30.3898M7.90625 44.2106L13.75 50.0479C15.3398 49.6187 17.1016 49.9621 18.3906 51.078L26.3398 43.1375C25.2227 41.807 24.8789 40.0901 25.3086 38.502L19.4219 32.7076C17.832 33.1368 16.0703 32.7935 14.7813 31.6775L6.83203 39.5751C7.94922 40.9056 8.29297 42.6225 7.90625 44.2106Z" stroke="white" stroke-width="1.5" stroke-miterlimit="10" stroke-linecap="square" stroke-linejoin="round"/>
</svg>
