<svg width="55" height="55" viewBox="0 0 55 55" fill="none" xmlns="http://www.w3.org/2000/svg">
<path d="M28.3594 4.29688H36.0938V7.49289C36.0937 7.67931 36.1543 7.86069 36.2664 8.00966C36.3785 8.15863 36.536 8.26711 36.7151 8.31875C37.7555 8.61692 38.7595 9.03026 39.7083 9.55109C39.8714 9.64111 40.0593 9.67571 40.2437 9.64967C40.4282 9.62363 40.5992 9.53837 40.7309 9.40672L42.9868 7.15172L47.8483 12.0132L45.5933 14.2656C45.4616 14.3974 45.3764 14.5684 45.3503 14.7528C45.3243 14.9373 45.3589 15.1252 45.4489 15.2883C45.9697 16.2371 46.3831 17.241 46.6812 18.2815C46.7329 18.4606 46.8414 18.6181 46.9903 18.7302C47.1393 18.8422 47.3207 18.9028 47.5071 18.9028H51.5625C51.7904 18.9028 52.009 18.8123 52.1702 18.6511C52.3313 18.4899 52.4219 18.2714 52.4219 18.0434C52.4219 17.8155 52.3313 17.5969 52.1702 17.4358C52.009 17.2746 51.7904 17.1841 51.5625 17.1841H48.1413C47.8973 16.4478 47.6012 15.7299 47.2553 15.0356L49.671 12.6208C49.7509 12.541 49.8143 12.4462 49.8576 12.3419C49.9008 12.2375 49.9231 12.1257 49.9231 12.0128C49.9231 11.8998 49.9008 11.788 49.8576 11.6837C49.8143 11.5794 49.7509 11.4846 49.671 11.4048L43.5944 5.32812C43.5146 5.24822 43.4198 5.18484 43.3155 5.14159C43.2111 5.09834 43.0993 5.07608 42.9864 5.07608C42.8734 5.07608 42.7616 5.09834 42.6573 5.14159C42.553 5.18484 42.4582 5.24822 42.3784 5.32812L39.9609 7.74469C39.2667 7.39877 38.5488 7.10268 37.8125 6.85867V3.4375C37.8125 3.20958 37.722 2.99099 37.5608 2.82983C37.3996 2.66867 37.181 2.57813 36.9531 2.57812H28.3594C28.1315 2.57813 27.9129 2.66867 27.7517 2.82983C27.5905 2.99099 27.5 3.20958 27.5 3.4375C27.5 3.66542 27.5905 3.88401 27.7517 4.04517C27.9129 4.20633 28.1315 4.29688 28.3594 4.29688ZM35.4862 27.2482C35.6483 27.4047 35.8653 27.4914 36.0907 27.4894C36.316 27.4874 36.5315 27.3971 36.6909 27.2377C36.8502 27.0784 36.9406 26.8629 36.9425 26.6375C36.9445 26.4122 36.8579 26.1951 36.7013 26.033L28.838 18.1698C28.676 18.0132 28.4589 17.9266 28.2336 17.9286C28.0082 17.9305 27.7927 18.0209 27.6334 18.1802C27.474 18.3396 27.3836 18.5551 27.3817 18.7804C27.3797 19.0058 27.4664 19.2228 27.6229 19.3849L35.4862 27.2482ZM23.2031 47.2656C23.2031 46.7557 23.0519 46.2573 22.7686 45.8333C22.4853 45.4093 22.0827 45.0789 21.6116 44.8838C21.1405 44.6886 20.6221 44.6376 20.122 44.737C19.6219 44.8365 19.1625 45.0821 18.802 45.4426C18.4414 45.8032 18.1959 46.2626 18.0964 46.7627C17.9969 47.2628 18.048 47.7811 18.2431 48.2522C18.4383 48.7233 18.7687 49.126 19.1927 49.4093C19.6166 49.6925 20.1151 49.8438 20.625 49.8438C21.3088 49.8438 21.9645 49.5721 22.448 49.0886C22.9315 48.6051 23.2031 47.9494 23.2031 47.2656ZM19.7656 47.2656C19.7656 47.0957 19.816 46.9295 19.9105 46.7882C20.0049 46.6469 20.1391 46.5367 20.2961 46.4717C20.4532 46.4066 20.626 46.3896 20.7927 46.4228C20.9594 46.4559 21.1125 46.5378 21.2327 46.658C21.3529 46.7781 21.4347 46.9313 21.4679 47.098C21.501 47.2647 21.484 47.4375 21.419 47.5945C21.3539 47.7515 21.2438 47.8857 21.1024 47.9802C20.9611 48.0746 20.795 48.125 20.625 48.125C20.3971 48.125 20.1785 48.0345 20.0173 47.8733C19.8562 47.7121 19.7656 47.4935 19.7656 47.2656Z" fill="white"/>
<path d="M52.7605 40.4597L47.0817 38.026L46.4922 36.4576L49.6719 33.2779C49.7518 33.1981 49.8152 33.1034 49.8584 32.999C49.9017 32.8947 49.9239 32.7829 49.9239 32.6699C49.9239 32.557 49.9017 32.4452 49.8584 32.3409C49.8152 32.2365 49.7518 32.1417 49.6719 32.0619L47.2553 29.6479C47.6012 28.9537 47.8973 28.2358 48.1413 27.4995H51.5625C51.7904 27.4995 52.009 27.409 52.1702 27.2478C52.3313 27.0866 52.4219 26.8681 52.4219 26.6401V21.4839C52.4219 21.256 52.3313 21.0374 52.1702 20.8762C52.009 20.7151 51.7904 20.6245 51.5625 20.6245C51.3346 20.6245 51.116 20.7151 50.9548 20.8762C50.7937 21.0374 50.7031 21.256 50.7031 21.4839V25.7808H47.5071C47.3207 25.7807 47.1393 25.8413 46.9903 25.9534C46.8414 26.0655 46.7329 26.223 46.6813 26.4021C46.3831 27.4426 45.9697 28.4465 45.4489 29.3953C45.3589 29.5584 45.3243 29.7463 45.3503 29.9307C45.3764 30.1152 45.4616 30.2862 45.5933 30.4179L47.8483 32.6738L45.8313 34.6899L44.6334 31.4939C44.5718 31.3301 44.4617 31.1891 44.3178 31.0896C44.1739 30.9901 44.0031 30.9368 43.8281 30.937H38.3513C40.4047 29.5741 41.9022 27.5209 42.5724 25.1493C43.2426 22.7776 43.0413 20.2443 42.0049 18.0083C40.9686 15.7722 39.1657 13.9813 36.9228 12.9598C34.6799 11.9383 32.1454 11.7539 29.7782 12.4398C30.054 11.4198 30.0562 10.3451 29.7847 9.32388C29.5131 8.3027 28.9774 7.37105 28.2313 6.62271L24.5833 2.97725C23.7775 2.17144 22.6845 1.71875 21.545 1.71875C20.4054 1.71875 19.3125 2.17144 18.5066 2.97725L17.2915 4.1924C17.1304 4.35356 17.0399 4.57211 17.0399 4.79998C17.0399 5.02786 17.1304 5.2464 17.2915 5.40756L18.9062 7.02232C19.0683 7.17887 19.2854 7.26549 19.5107 7.26353C19.7361 7.26157 19.9516 7.17119 20.1109 7.01186C20.2703 6.85252 20.3607 6.63698 20.3626 6.41165C20.3646 6.18633 20.2779 5.96925 20.1214 5.80717L19.1142 4.79998L19.7218 4.1924C20.213 3.72364 20.866 3.4621 21.545 3.4621C22.224 3.4621 22.8769 3.72364 23.3681 4.1924L27.0153 7.83787C27.8199 8.64436 28.2717 9.73702 28.2717 10.8762C28.2717 12.0154 27.8199 13.108 27.0153 13.9145L23.3681 17.5617C22.5616 18.3662 21.469 18.8181 20.3298 18.8181C19.1906 18.8181 18.098 18.3662 17.2915 17.5617L13.646 13.9145C13.4066 13.6751 13.2166 13.3909 13.087 13.0781C12.9574 12.7652 12.8907 12.4299 12.8907 12.0913C12.8907 11.7527 12.9574 11.4175 13.087 11.1046C13.2166 10.7918 13.4066 10.5076 13.646 10.2682L14.2536 9.66061L18.5066 13.9145C18.746 14.154 19.0303 14.3439 19.3431 14.4735C19.6559 14.6031 19.9912 14.6698 20.3298 14.6698C20.6684 14.6698 21.0037 14.6031 21.3165 14.4735C21.6293 14.3439 21.9136 14.154 22.153 13.9145L23.3681 12.6994C23.6076 12.4599 23.7975 12.1757 23.9271 11.8629C24.0567 11.5501 24.1234 11.2148 24.1234 10.8762C24.1234 10.5376 24.0567 10.2023 23.9271 9.88949C23.7975 9.57666 23.6076 9.29243 23.3681 9.05303L22.5517 8.23748C22.4724 8.1554 22.3776 8.08993 22.2728 8.04489C22.1679 7.99985 22.0552 7.97615 21.941 7.97516C21.8269 7.97416 21.7138 7.99591 21.6082 8.03912C21.5026 8.08233 21.4066 8.14614 21.3259 8.22683C21.2452 8.30752 21.1814 8.40347 21.1382 8.50908C21.095 8.6147 21.0732 8.72786 21.0742 8.84197C21.0752 8.95607 21.0989 9.06884 21.144 9.17369C21.189 9.27854 21.2545 9.37336 21.3366 9.45264L22.153 10.2682C22.2329 10.348 22.2963 10.4428 22.3395 10.5471C22.3828 10.6514 22.405 10.7633 22.405 10.8762C22.405 10.9891 22.3828 11.101 22.3395 11.2053C22.2963 11.3096 22.2329 11.4044 22.153 11.4842L20.9378 12.6994C20.858 12.7793 20.7632 12.8426 20.6589 12.8859C20.5546 12.9291 20.4427 12.9514 20.3298 12.9514C20.2169 12.9514 20.105 12.9291 20.0007 12.8859C19.8964 12.8426 19.8016 12.7793 19.7218 12.6994L14.8612 7.83787C14.7 7.67676 14.4815 7.58626 14.2536 7.58626C14.0257 7.58626 13.8072 7.67676 13.646 7.83787L12.4309 9.05303C11.6251 9.85884 11.1724 10.9518 11.1724 12.0913C11.1724 13.2309 11.6251 14.3239 12.4309 15.1297L14.4873 17.187H13.75C13.5221 17.187 13.3035 17.2776 13.1423 17.4387C12.9812 17.5999 12.8906 17.8185 12.8906 18.0464V20.3022C12.1045 20.5311 11.3433 20.8383 10.6184 21.2192L9.03805 19.6388C8.87689 19.4777 8.65834 19.3872 8.43047 19.3872C8.20259 19.3872 7.98405 19.4777 7.82289 19.6388L4.17055 23.2886C4.00944 23.4497 3.91893 23.6683 3.91893 23.8962C3.91893 24.124 4.00944 24.3426 4.17055 24.5037L5.75094 26.0841C5.36208 26.8087 5.04766 27.5709 4.8125 28.3589H2.57812C2.3502 28.3589 2.13162 28.4494 1.97046 28.6106C1.80929 28.7718 1.71875 28.9903 1.71875 29.2183V34.3745C1.71875 34.6024 1.80929 34.821 1.97046 34.9822C2.13162 35.1433 2.3502 35.2339 2.57812 35.2339H4.8125C5.05002 36.0213 5.36674 36.7826 5.75781 37.5061L4.17055 39.0865C4.00907 39.2476 3.91821 39.4663 3.91797 39.6944C3.91785 39.8074 3.93998 39.9193 3.9831 40.0237C4.02621 40.1281 4.08947 40.2229 4.16926 40.3029C4.24905 40.3829 4.3438 40.4463 4.44812 40.4897C4.55243 40.533 4.66426 40.5554 4.77721 40.5555C5.00534 40.5557 5.22422 40.4653 5.3857 40.3042L7.43102 38.2589C7.56765 38.1224 7.65434 37.9439 7.67711 37.7521C7.69987 37.5604 7.65738 37.3665 7.55648 37.2019C6.98216 36.2653 6.55876 35.2442 6.3018 34.176C6.25712 33.9878 6.15027 33.8202 5.99853 33.7003C5.84679 33.5804 5.65903 33.5151 5.46563 33.5151H3.4375V30.0776H5.46563C5.65869 30.0778 5.84617 30.0129 5.99786 29.8935C6.14956 29.7741 6.25662 29.6071 6.3018 29.4194C6.55876 28.3512 6.98216 27.3301 7.55648 26.3935C7.65738 26.2288 7.69987 26.035 7.67711 25.8432C7.65434 25.6514 7.56765 25.4729 7.43102 25.3365L5.99328 23.8987L8.43047 21.4615L9.8682 22.8993C10.0047 23.0359 10.1832 23.1226 10.375 23.1454C10.5667 23.1681 10.7606 23.1256 10.9252 23.0247C11.5462 22.6468 12.2049 22.3346 12.8906 22.0932V25.8667C11.8551 26.4626 10.9931 27.3188 10.3903 28.3503C9.78743 29.3819 9.46453 30.553 9.45359 31.7478C9.44265 32.9425 9.74404 34.1194 10.3279 35.1618C10.9118 36.2043 11.7579 37.076 12.7823 37.6908C12.9157 37.772 13.0688 37.8148 13.2249 37.8146C13.4126 37.8144 13.595 37.7528 13.7444 37.6392C13.8937 37.5256 14.0018 37.3662 14.0521 37.1854C14.1023 37.0046 14.092 36.8123 14.0227 36.6379C13.9535 36.4635 13.829 36.3166 13.6684 36.2196C12.9177 35.7667 12.2949 35.1299 11.8588 34.3693C11.4227 33.6087 11.1878 32.7495 11.1762 31.8729C11.1645 30.9963 11.3766 30.1311 11.7924 29.3593C12.2082 28.5874 12.8139 27.9343 13.5523 27.4617C13.6164 27.4826 13.6828 27.4953 13.75 27.4995H17.1712C17.4152 28.2358 17.7113 28.9537 18.0572 29.6479L15.6406 32.0654C15.5607 32.1452 15.4973 32.24 15.4541 32.3443C15.4108 32.4486 15.3886 32.5604 15.3886 32.6734C15.3886 32.7863 15.4108 32.8981 15.4541 33.0025C15.4973 33.1068 15.5607 33.2016 15.6406 33.2814L19.5465 37.1864L19.1804 37.9177L8.91344 40.1186C8.33759 40.2441 7.82178 40.5623 7.45117 41.0205C7.08056 41.4788 6.87731 42.0498 6.875 42.6391V48.1245C6.875 48.3524 6.96554 48.571 7.12671 48.7322C7.28787 48.8933 7.50645 48.9839 7.73438 48.9839H14.8672C15.186 50.0533 15.7961 51.013 16.6291 51.7556C17.4621 52.4981 18.4852 52.9944 19.5841 53.1888C20.683 53.3832 21.8143 53.2681 22.8515 52.8563C23.8888 52.4446 24.791 51.7525 25.4574 50.8573C26.1238 49.9622 26.528 48.8993 26.6249 47.7876C26.7219 46.6759 26.5076 45.5591 26.0062 44.5621C25.5048 43.5652 24.7359 42.7274 23.7856 42.1423C22.8353 41.5573 21.7409 41.2482 20.625 41.2495C19.7284 41.249 18.8432 41.4511 18.0357 41.8408C17.8439 41.947 17.6999 42.1225 17.6332 42.3314C17.5666 42.5403 17.5823 42.7668 17.6772 42.9645C17.7721 43.1622 17.939 43.3161 18.1437 43.3948C18.3483 43.4734 18.5753 43.4709 18.7782 43.3876C19.3545 43.1109 19.9857 42.9675 20.625 42.9683C21.5601 42.9654 22.4707 43.2668 23.2195 43.8269C23.9683 44.387 24.5146 45.1755 24.776 46.0733C25.0374 46.9711 24.9997 47.9295 24.6686 48.804C24.3375 49.6785 23.7309 50.4216 22.9405 50.9212C22.15 51.4208 21.2185 51.6497 20.2865 51.5734C19.3546 51.4972 18.4727 51.1199 17.7739 50.4984C17.0752 49.877 16.5975 49.0452 16.413 48.1285C16.2285 47.2118 16.3471 46.26 16.7509 45.4166C16.8322 45.2141 16.8333 44.9882 16.7541 44.7848C16.6749 44.5815 16.5213 44.4159 16.3245 44.3216C16.1277 44.2274 15.9024 44.2115 15.6943 44.2773C15.4862 44.3431 15.3109 44.4856 15.2041 44.6758C14.8137 45.4833 14.6105 46.3683 14.6094 47.2651H8.59375V45.5464H9.45312C10.1369 45.5464 10.7926 45.2748 11.2761 44.7913C11.7596 44.3078 12.0312 43.652 12.0312 42.9683V41.2074L19.8559 39.5308H46.2344L51.5625 41.8158V42.1089H50.7031C50.4752 42.1089 50.2566 42.1994 50.0955 42.3606C49.9343 42.5218 49.8438 42.7403 49.8438 42.9683C49.8438 43.1962 49.9343 43.4148 50.0955 43.5759C50.2566 43.7371 50.4752 43.8276 50.7031 43.8276H51.5625V47.2651H48.9844C48.9844 45.6697 48.3506 44.1396 47.2224 43.0114C46.0943 41.8833 44.5642 41.2495 42.9688 41.2495C41.3733 41.2495 39.8432 41.8833 38.7151 43.0114C37.5869 44.1396 36.9531 45.6697 36.9531 47.2651H29.1414C28.9135 47.2651 28.6949 47.3557 28.5337 47.5168C28.3726 47.678 28.282 47.8966 28.282 48.1245C28.282 48.3524 28.3726 48.571 28.5337 48.7322C28.6949 48.8933 28.9135 48.9839 29.1414 48.9839H37.2109C37.5826 50.2232 38.3439 51.3096 39.3819 52.082C40.4199 52.8544 41.6792 53.2716 42.973 53.2716C44.2669 53.2716 45.5262 52.8544 46.5642 52.082C47.6022 51.3096 48.3635 50.2232 48.7352 48.9839H52.4219C52.6498 48.9839 52.8684 48.8933 53.0295 48.7322C53.1907 48.571 53.2812 48.3524 53.2812 48.1245V41.2495C53.2812 41.0814 53.2319 40.9169 53.1393 40.7765C53.0467 40.6361 52.915 40.526 52.7605 40.4597ZM10.3125 42.9683C10.3125 43.1962 10.222 43.4148 10.0608 43.5759C9.89963 43.7371 9.68105 43.8276 9.45312 43.8276H8.59375V42.6391C8.59373 42.4424 8.66122 42.2516 8.78494 42.0986C8.90866 41.9457 9.08112 41.8398 9.27352 41.7987L10.3125 41.5761V42.9683ZM45.1662 37.812H21.1561L23.7342 32.6558H32.6562V35.2339C32.6562 35.4618 32.7468 35.6804 32.908 35.8416C33.0691 36.0027 33.2877 36.0933 33.5156 36.0933C33.7435 36.0933 33.9621 36.0027 34.1233 35.8416C34.2845 35.6804 34.375 35.4618 34.375 35.2339V32.6558H43.2326L45.1662 37.812ZM41.25 22.3433C41.2481 22.9951 41.1725 23.6446 41.0248 24.2794L30.727 13.9747C31.9864 13.6802 33.2962 13.6745 34.5581 13.9581C35.82 14.2417 37.0014 14.8072 38.0137 15.6123C39.0261 16.4174 39.8431 17.4411 40.4035 18.6068C40.964 19.7724 41.2534 21.0499 41.25 22.3433ZM28.2305 15.1297C28.4336 14.9236 28.6214 14.703 28.7925 14.4697L40.3906 26.0721C39.876 27.1419 39.1441 28.0926 38.2415 28.8637C37.3389 29.6347 36.2855 30.2092 35.1484 30.5503L23.9233 19.3354C24.1566 19.1644 24.3772 18.9765 24.5833 18.7734L28.2305 15.1297ZM17.4642 32.6738L19.7192 30.4214C19.8509 30.2896 19.9361 30.1186 19.9622 29.9342C19.9882 29.7497 19.9536 29.5618 19.8636 29.3987C19.3428 28.4499 18.9294 27.446 18.6313 26.4055C18.5802 26.2258 18.472 26.0675 18.323 25.9548C18.174 25.842 17.9923 25.781 17.8054 25.7808H14.6094V18.9058H16.2198C17.0231 19.6634 18.0204 20.1839 19.1012 20.4098C20.1821 20.6356 21.3043 20.558 22.3438 20.1854L33.0739 30.9112C32.9347 30.9181 32.7963 30.937 32.6562 30.937C30.7865 30.9331 28.9686 30.3215 27.4767 29.1945C25.9848 28.0674 24.8996 26.486 24.3848 24.6885C24.3172 24.476 24.1697 24.2982 23.9734 24.1924C23.7771 24.0867 23.5474 24.0614 23.3328 24.1218C23.1182 24.1823 22.9355 24.3238 22.8233 24.5164C22.711 24.7091 22.6781 24.9378 22.7313 25.1543C23.4073 27.5288 24.9143 29.5812 26.9775 30.937H23.2031C23.0434 30.9369 22.8869 30.9814 22.751 31.0653C22.6152 31.1493 22.5054 31.2694 22.434 31.4122L20.3569 35.5665L17.4642 32.6738ZM42.9688 51.562C42.1189 51.562 41.2882 51.31 40.5815 50.8379C39.8749 50.3657 39.3242 49.6946 38.999 48.9095C38.6737 48.1243 38.5886 47.2604 38.7544 46.4269C38.9202 45.5933 39.3295 44.8277 39.9304 44.2268C40.5313 43.6259 41.297 43.2166 42.1305 43.0508C42.964 42.885 43.8279 42.9701 44.6131 43.2953C45.3982 43.6206 46.0693 44.1713 46.5415 44.8779C47.0136 45.5845 47.2656 46.4153 47.2656 47.2651C47.2643 48.4043 46.8111 49.4965 46.0056 50.302C45.2001 51.1075 44.1079 51.5606 42.9688 51.562Z" fill="white"/>
<path d="M42.9688 44.6875C42.4588 44.6875 41.9604 44.8387 41.5364 45.122C41.1125 45.4053 40.782 45.8079 40.5869 46.279C40.3917 46.7501 40.3407 47.2685 40.4402 47.7686C40.5396 48.2687 40.7852 48.7281 41.1457 49.0886C41.5063 49.4492 41.9657 49.6947 42.4658 49.7942C42.9659 49.8937 43.4843 49.8426 43.9554 49.6475C44.4264 49.4524 44.8291 49.1219 45.1124 48.698C45.3957 48.274 45.5469 47.7755 45.5469 47.2656C45.5469 46.5819 45.2753 45.9261 44.7918 45.4426C44.3083 44.9591 43.6525 44.6875 42.9688 44.6875ZM42.9688 48.125C42.7988 48.125 42.6326 48.0746 42.4913 47.9802C42.35 47.8857 42.2398 47.7515 42.1748 47.5945C42.1097 47.4375 42.0927 47.2647 42.1259 47.098C42.159 46.9313 42.2409 46.7781 42.3611 46.658C42.4813 46.5378 42.6344 46.4559 42.8011 46.4228C42.9678 46.3896 43.1406 46.4066 43.2976 46.4717C43.4546 46.5367 43.5889 46.6469 43.6833 46.7882C43.7777 46.9295 43.8281 47.0957 43.8281 47.2656C43.8281 47.4935 43.7376 47.7121 43.5764 47.8733C43.4153 48.0345 43.1967 48.125 42.9688 48.125ZM31.7969 42.9688C32.0248 42.9688 32.2434 42.8782 32.4045 42.717C32.5657 42.5559 32.6562 42.3373 32.6562 42.1094C32.6562 41.8815 32.5657 41.6629 32.4045 41.5017C32.2434 41.3405 32.0248 41.25 31.7969 41.25H30.0781C29.8502 41.25 29.6316 41.3405 29.4705 41.5017C29.3093 41.6629 29.2188 41.8815 29.2188 42.1094C29.2188 42.3373 29.3093 42.5559 29.4705 42.717C29.6316 42.8782 29.8502 42.9688 30.0781 42.9688H31.7969Z" fill="white"/>
</svg>
