<svg width="60" height="61" viewBox="0 0 60 61" fill="none" xmlns="http://www.w3.org/2000/svg">
<path d="M30 60.3457C13.46 60.3457 0 46.8857 0 30.3457C0 13.8057 13.46 0.345703 30 0.345703C46.54 0.345703 60 13.8057 60 30.3457C60 46.8857 46.54 60.3457 30 60.3457ZM30 2.3457C14.56 2.3457 2 14.9057 2 30.3457C2 45.7857 14.56 58.3457 30 58.3457C45.44 58.3457 58 45.7857 58 30.3457C58 14.9057 45.44 2.3457 30 2.3457Z" fill="#EF0F3A"/>
<path d="M30 50.3457C18.97 50.3457 10 41.3757 10 30.3457C10 19.3157 18.97 10.3457 30 10.3457C41.03 10.3457 50 19.3157 50 30.3457C50 41.3757 41.03 50.3457 30 50.3457ZM30 12.3457C20.07 12.3457 12 20.4257 12 30.3457C12 40.2657 20.07 48.3457 30 48.3457C39.93 48.3457 48 40.2657 48 30.3457C48 20.4257 39.93 12.3457 30 12.3457Z" fill="#EF0F3A"/>
<path d="M29.9988 27.6054C29.3488 27.6054 28.7388 27.2854 28.3588 26.7554L22.8188 18.8354C22.4788 18.3554 22.3788 17.7554 22.5188 17.1854C22.6588 16.6154 23.0488 16.1454 23.5788 15.8854C25.0088 15.1854 27.2888 14.3454 29.9988 14.3454C32.7088 14.3454 34.9888 15.1854 36.4188 15.8854C36.9488 16.1454 37.3288 16.6154 37.4788 17.1854C37.6288 17.7554 37.5188 18.3554 37.1788 18.8354L31.6388 26.7554C31.2688 27.2854 30.6488 27.6054 29.9988 27.6054ZM29.9988 16.3454C27.5488 16.3454 25.4688 17.1854 24.4588 17.6754L29.9988 25.5954L35.5388 17.6754C34.5188 17.1754 32.4488 16.3354 29.9988 16.3354V16.3454ZM16.2388 33.7054C15.8588 33.7054 15.4888 33.5954 15.1688 33.3954C14.6788 33.0854 14.3488 32.5654 14.2588 31.9854C14.0288 30.4054 13.9388 27.9854 14.7788 25.3954C15.6188 22.8154 17.1188 20.9054 18.2288 19.7654C18.6388 19.3454 19.2088 19.1154 19.7888 19.1654C20.3688 19.2054 20.9088 19.4954 21.2588 19.9554L27.0788 27.6754C27.4688 28.1954 27.5888 28.8754 27.3888 29.4954C27.1888 30.1154 26.6988 30.6054 26.0688 30.7954L16.8188 33.6254C16.6288 33.6854 16.4288 33.7154 16.2288 33.7154L16.2388 33.7054ZM16.6888 26.0154C15.9288 28.3554 16.0888 30.5854 16.2488 31.7054L25.4988 28.8854L19.6788 21.1654C18.8888 21.9754 17.4588 23.6854 16.6988 26.0254L16.6888 26.0154ZM27.0388 45.8454C26.9288 45.8454 26.8088 45.8454 26.6988 45.8154C25.1288 45.5454 22.7888 44.8754 20.5988 43.2854C18.3988 41.6854 17.0488 39.6754 16.3088 38.2654C16.1749 38.0094 16.0977 37.7277 16.0826 37.4392C16.0674 37.1508 16.1145 36.8625 16.2208 36.5939C16.3271 36.3253 16.49 36.0828 16.6985 35.8829C16.9069 35.683 17.156 35.5303 17.4288 35.4354L26.5688 32.2854C27.1888 32.0754 27.8688 32.1754 28.3988 32.5554C28.9288 32.9354 29.2388 33.5554 29.2188 34.2054L29.0488 43.8754C29.0388 44.4654 28.7788 45.0154 28.3188 45.3854C27.9588 45.6854 27.5088 45.8454 27.0488 45.8454H27.0388ZM21.7688 41.6654C23.7588 43.1054 25.9188 43.6454 27.0388 43.8454L27.2088 34.1754L18.0688 37.3254C18.5988 38.3254 19.7788 40.2254 21.7688 41.6654ZM32.9588 45.8454C32.4988 45.8454 32.0488 45.6854 31.6888 45.3854C31.2388 45.0154 30.9688 44.4654 30.9588 43.8754L30.7888 34.2054C30.7788 33.5554 31.0888 32.9354 31.6088 32.5554C32.1388 32.1654 32.8188 32.0654 33.4388 32.2854L42.5788 35.4354C43.1388 35.6254 43.5788 36.0454 43.7888 36.5954C43.9988 37.1454 43.9688 37.7453 43.6988 38.2654C42.9588 39.6754 41.6088 41.6854 39.4088 43.2854C37.2088 44.8853 34.8788 45.5454 33.3088 45.8154C33.1888 45.8354 33.0788 45.8454 32.9588 45.8454ZM32.7888 34.1754L32.9588 43.8454C34.0788 43.6554 36.2388 43.1154 38.2288 41.6654C40.2188 40.2154 41.3988 38.3254 41.9288 37.3254L32.7888 34.1754ZM43.7588 33.7054C43.5588 33.7054 43.3588 33.6754 43.1688 33.6154L33.9288 30.7854C33.3088 30.5954 32.8088 30.1154 32.6088 29.4854C32.4088 28.8654 32.5188 28.1854 32.9188 27.6654L38.7388 19.9454C39.0888 19.4754 39.6288 19.1854 40.2088 19.1554C40.7888 19.1154 41.3588 19.3354 41.7688 19.7554C42.8788 20.8954 44.3788 22.8054 45.2188 25.3854C46.0588 27.9654 45.9688 30.3954 45.7388 31.9754C45.6588 32.5554 45.3288 33.0654 44.8288 33.3854C44.5088 33.5954 44.1388 33.6954 43.7588 33.6954V33.7054ZM40.3288 21.1554L34.5088 28.8754L43.7588 31.7054C43.9188 30.5854 44.0788 28.3554 43.3188 26.0154C42.5588 23.6754 41.1288 21.9654 40.3388 21.1554H40.3288ZM28.0228 5.10635L29.0208 1.11035L30.9608 1.59435L29.9628 5.59035L28.0228 5.10635ZM14.5358 5.50535L16.4578 4.95535L17.5908 8.91535L15.6688 9.46535L14.5358 5.50535ZM4.19081 16.5614L5.58081 15.1234L8.54281 17.9864L7.15281 19.4244L4.19081 16.5614ZM0.757812 31.3324L1.24381 29.3924L5.23981 30.3934L4.75381 32.3334L0.757812 31.3324ZM4.61581 43.8984L8.57981 42.7654L9.12981 44.6894L5.16581 45.8224L4.61581 43.8984ZM14.7828 54.7434L17.6458 51.7814L19.0838 53.1714L16.2208 56.1334L14.7828 54.7434ZM29.0048 59.0954L30.0028 55.0984L31.9428 55.5824L30.9448 59.5784L29.0048 59.0954ZM42.3808 51.7504L44.3028 51.2004L45.4358 55.1594L43.5138 55.7094L42.3808 51.7504ZM51.4508 42.6884L52.8408 41.2504L55.8028 44.1134L54.4128 45.5514L51.4508 42.6884ZM54.7788 30.3394L55.2658 28.3994L59.2618 29.4004L58.7758 31.3404L54.7788 30.3394ZM50.9068 16.0124L54.8698 14.8794L55.4198 16.8034L51.4568 17.9364L50.9068 16.0124ZM40.9028 7.49035L43.7658 4.52835L45.2038 5.91835L42.3408 8.88035L40.9028 7.49035Z" fill="#EF0F3A"/>
</svg>
