<svg width="129" height="128" viewBox="0 0 129 128" fill="none" xmlns="http://www.w3.org/2000/svg">
<path d="M2.55219 128.01C1.6859 128.01 0.982422 127.314 0.982422 126.457V124.87C0.982422 124.013 1.6859 123.317 2.55219 123.317C3.41848 123.317 4.12196 124.013 4.12196 124.87V126.457C4.12196 127.317 3.41848 128.01 2.55219 128.01ZM2.55219 110.552C1.6859 110.552 0.982422 109.856 0.982422 108.999V107.413C0.982422 106.556 1.6859 105.86 2.55219 105.86C3.41848 105.86 4.12196 106.556 4.12196 107.413V108.999C4.12196 109.856 3.41848 110.552 2.55219 110.552ZM2.55219 93.0913C1.6859 93.0913 0.982422 92.3953 0.982422 91.5383V89.9517C0.982422 89.0946 1.6859 88.3986 2.55219 88.3986C3.41848 88.3986 4.12196 89.0946 4.12196 89.9517V91.5383C4.12196 92.3953 3.41848 93.0913 2.55219 93.0913ZM2.55219 75.6335C1.6859 75.6335 0.982422 74.9375 0.982422 74.0804V72.4939C0.982422 71.6368 1.6859 70.9408 2.55219 70.9408C3.41848 70.9408 4.12196 71.6368 4.12196 72.4939V74.0804C4.12196 74.9375 3.41848 75.6335 2.55219 75.6335ZM2.55219 58.1726C1.6859 58.1726 0.982422 57.4766 0.982422 56.6196V55.033C0.982422 54.1759 1.6859 53.4799 2.55219 53.4799C3.41848 53.4799 4.12196 54.1759 4.12196 55.033V56.6196C4.12196 57.4766 3.41848 58.1726 2.55219 58.1726ZM3.09592 40.7452C3.01605 40.7452 2.93311 40.7391 2.85017 40.727C1.99309 40.5933 1.40942 39.797 1.54459 38.952C1.6306 38.4171 1.72891 37.87 1.83335 37.3351C1.99924 36.4932 2.82252 35.9431 3.67345 36.1103C4.52438 36.2744 5.07733 37.0889 4.91145 37.9308C4.81315 38.4323 4.72099 38.9399 4.64112 39.4383C4.52131 40.1981 3.8547 40.7452 3.09592 40.7452ZM9.23983 24.5062C8.95414 24.5062 8.66844 24.4302 8.40733 24.2691C7.67313 23.8132 7.45195 22.8558 7.90967 22.1294C8.20458 21.6674 8.5087 21.2024 8.81897 20.7526C9.30741 20.0444 10.2812 19.859 11.0001 20.3393C11.7158 20.8195 11.9032 21.786 11.4178 22.4972C11.1291 22.9166 10.8465 23.3482 10.5731 23.7798C10.272 24.2478 9.76206 24.5062 9.23983 24.5062ZM21.3126 11.9325C20.818 11.9325 20.3326 11.7015 20.0255 11.2699C19.5278 10.5679 19.6998 9.59832 20.4094 9.10899C20.861 8.79594 21.3249 8.48593 21.7857 8.19111C22.5137 7.72306 23.4845 7.92973 23.9545 8.65005C24.4245 9.37037 24.2187 10.3308 23.4906 10.7958C23.0605 11.0693 22.6305 11.3581 22.2096 11.6499C21.9393 11.8413 21.6259 11.9325 21.3126 11.9325ZM37.3758 5.01503C36.6509 5.01503 35.9996 4.51354 35.8429 3.78411C35.6648 2.94526 36.2054 2.1216 37.0533 1.94228C37.5909 1.82983 38.1407 1.72649 38.6845 1.63227C39.5385 1.48639 40.3495 2.0517 40.5 2.89663C40.6475 3.74156 40.0761 4.54394 39.2221 4.69286C38.7152 4.781 38.2053 4.87826 37.7045 4.9816C37.5939 5.00287 37.4834 5.01503 37.3758 5.01503ZM127.151 4.0698H125.547C124.681 4.0698 123.977 3.3738 123.977 2.51671C123.977 1.65963 124.681 0.963623 125.547 0.963623H127.151C128.017 0.963623 128.72 1.65963 128.72 2.51671C128.717 3.3738 128.017 4.0698 127.151 4.0698ZM109.502 4.0698H107.899C107.032 4.0698 106.329 3.3738 106.329 2.51671C106.329 1.65963 107.032 0.963623 107.899 0.963623H109.502C110.368 0.963623 111.072 1.65963 111.072 2.51671C111.072 3.3738 110.368 4.0698 109.502 4.0698ZM91.8538 4.0698H90.2503C89.384 4.0698 88.6805 3.3738 88.6805 2.51671C88.6805 1.65963 89.384 0.963623 90.2503 0.963623H91.8538C92.7201 0.963623 93.4236 1.65963 93.4236 2.51671C93.4236 3.3738 92.7201 4.0698 91.8538 4.0698ZM74.2085 4.0698H72.605C71.7387 4.0698 71.0352 3.3738 71.0352 2.51671C71.0352 1.65963 71.7387 0.963623 72.605 0.963623H74.2085C75.0748 0.963623 75.7783 1.65963 75.7783 2.51671C75.7783 3.3738 75.0748 4.0698 74.2085 4.0698ZM56.5602 4.0698H54.9566C54.0903 4.0698 53.3868 3.3738 53.3868 2.51671C53.3868 1.65963 54.0903 0.963623 54.9566 0.963623H56.5602C57.4265 0.963623 58.1299 1.65963 58.1299 2.51671C58.1299 3.3738 57.4265 4.0698 56.5602 4.0698Z" fill="#01133C"/>
</svg>
