<svg width="195" height="70" viewBox="0 0 195 70" fill="none" xmlns="http://www.w3.org/2000/svg">
<g opacity="0.4">
<mask id="mask0_1_28115" style="mask-type:luminance" maskUnits="userSpaceOnUse" x="1" y="-123" width="192" height="192">
<mask id="path-1-inside-1_1_28115" fill="white">
<path d="M170.709 -17.7353C170.647 -17.2537 170.585 -16.7721 170.511 -16.2906C170.474 -16.0066 170.425 -15.7226 170.376 -15.4386C170.326 -15.1546 170.289 -14.8829 170.24 -14.5989C170.153 -14.1174 170.067 -13.6358 169.968 -13.1666C169.956 -13.0801 169.931 -12.9937 169.919 -12.9196C169.894 -12.7961 169.869 -12.6603 169.845 -12.5368C169.598 -11.3515 169.338 -10.1661 169.03 -8.99303C168.919 -8.56086 168.807 -8.14103 168.684 -7.70886L187.416 4.87351L181.168 18.7648L159.324 13.1095C158.349 14.6036 157.324 16.0606 156.25 17.4806C156.2 17.5547 156.151 17.6164 156.089 17.6782C155.793 18.0609 155.497 18.4437 155.188 18.8265C155.015 19.0487 154.83 19.271 154.645 19.4933C154.459 19.7155 154.286 19.9378 154.101 20.1601C153.793 20.5305 153.471 20.9009 153.15 21.2714C153.101 21.3331 153.039 21.3948 152.99 21.4566C151.805 22.8025 150.582 24.099 149.323 25.3585L159.25 45.6212L146.89 54.5363L130.813 38.7187C129.233 39.5214 127.615 40.2746 125.961 40.9661C125.887 41.0031 125.8 41.0278 125.726 41.0648C125.282 41.25 124.825 41.4353 124.38 41.6081C124.108 41.7069 123.849 41.818 123.578 41.9168C123.306 42.0156 123.047 42.1144 122.775 42.2132C122.318 42.386 121.861 42.5466 121.404 42.6947C121.318 42.7194 121.244 42.7565 121.157 42.7812C119.466 43.3615 117.749 43.8678 116.033 44.3246L114.502 66.8346L99.3389 68.3781L93.3255 46.6337C91.5474 46.5349 89.7693 46.3744 87.9913 46.1521C87.9048 46.1398 87.8307 46.1274 87.7443 46.1151C87.3615 46.0657 86.9664 46.0163 86.5836 45.9546C86.4848 45.9422 86.3984 45.9299 86.2996 45.9052C86.0156 45.8681 85.7316 45.8187 85.4476 45.7693C85.1636 45.7199 84.892 45.6829 84.608 45.6335C84.1264 45.5471 83.6572 45.4606 83.1756 45.3742C83.1139 45.3619 83.0398 45.3495 82.9781 45.3371C82.9657 45.3371 82.941 45.3248 82.9287 45.3248C81.1753 44.9791 79.4343 44.5716 77.7179 44.1024L65.1355 62.8339L51.2443 56.586L56.8996 34.7428C56.5292 34.4958 56.1587 34.2612 55.7883 34.0143C54.7881 33.3351 53.8003 32.6313 52.8372 31.9028C52.7384 31.8287 52.6272 31.7423 52.5285 31.6558C52.5161 31.6435 52.5038 31.6311 52.4914 31.6311C52.442 31.5941 52.3803 31.5447 52.3309 31.5076C51.9481 31.2113 51.5653 30.915 51.1826 30.6063C50.9603 30.4334 50.738 30.2482 50.5158 30.0753C50.2935 29.8901 50.0712 29.7172 49.849 29.532C49.7749 29.4703 49.7008 29.4085 49.6267 29.3468C49.3304 29.0998 49.034 28.8405 48.7377 28.5812C48.676 28.5195 48.6142 28.4701 48.5401 28.4207C47.1942 27.2353 45.8977 26.0129 44.6382 24.7534L24.3879 34.681L15.4728 22.3209L31.2903 6.2441C30.4877 4.66359 29.7345 3.04603 29.043 1.39143C29.0059 1.30499 28.9813 1.23091 28.9442 1.14448C28.759 0.69996 28.5738 0.255441 28.4009 -0.20143C28.2898 -0.473075 28.191 -0.744727 28.0922 -1.00404C27.9934 -1.26334 27.8947 -1.53499 27.7959 -1.79429C27.623 -2.25116 27.4625 -2.72037 27.302 -3.17725C27.2773 -3.25133 27.2526 -3.33777 27.2155 -3.41186C26.6352 -5.1035 26.1289 -6.81983 25.6721 -8.53617L3.16207 -10.0673L1.6186 -25.2304L23.3877 -31.2684C23.4865 -33.0465 23.647 -34.8246 23.8693 -36.6027C23.8817 -36.6891 23.894 -36.7632 23.9063 -36.8496C23.9681 -37.3312 24.0298 -37.8127 24.1039 -38.2943C24.1409 -38.5783 24.1903 -38.8623 24.2397 -39.1463C24.2891 -39.4303 24.3261 -39.7019 24.3755 -39.9859C24.462 -40.4675 24.5484 -40.9367 24.6349 -41.4183C24.6472 -41.5047 24.6719 -41.5912 24.6842 -41.6652C25.03 -43.4186 25.4375 -45.1597 25.9067 -46.876L7.1751 -59.4584L13.4231 -73.3496L35.2663 -67.6943C36.2418 -69.1884 37.2666 -70.6455 38.3409 -72.0655C38.3903 -72.1395 38.4396 -72.2013 38.5014 -72.263C38.7977 -72.6458 39.0941 -73.0286 39.4028 -73.4114C39.5757 -73.6336 39.7609 -73.8559 39.9461 -74.0781C40.1313 -74.3004 40.3042 -74.5227 40.4894 -74.7449C40.7981 -75.1154 41.1191 -75.4858 41.4402 -75.8562C41.5019 -75.918 41.5513 -75.9797 41.6007 -76.0538C42.7861 -77.3997 44.0085 -78.6962 45.268 -79.9557L35.3404 -100.218L47.7005 -109.133L63.7773 -93.316C65.3578 -94.1186 66.9877 -94.8718 68.63 -95.5633C68.7041 -95.6003 68.7781 -95.625 68.8646 -95.662C69.3214 -95.8473 69.766 -96.0325 70.2228 -96.2177C70.4821 -96.3165 70.7538 -96.4153 71.0131 -96.5264C71.2847 -96.6252 71.544 -96.7363 71.8157 -96.8351C72.2726 -97.008 72.7294 -97.1685 73.1863 -97.3166C73.2727 -97.3413 73.3468 -97.3784 73.4332 -97.4031C75.1249 -97.9834 76.8412 -98.4897 78.5576 -98.9466L80.0887 -121.457L95.2518 -123L101.265 -101.256C103.043 -101.157 104.821 -100.996 106.599 -100.774C106.686 -100.762 106.772 -100.749 106.859 -100.737C107.241 -100.688 107.637 -100.638 108.019 -100.576C108.118 -100.564 108.205 -100.552 108.303 -100.527C108.587 -100.49 108.871 -100.441 109.155 -100.391C109.439 -100.342 109.711 -100.305 109.995 -100.255C110.477 -100.169 110.958 -100.083 111.427 -99.9838C111.489 -99.9714 111.563 -99.9591 111.625 -99.9467C111.637 -99.9467 111.662 -99.9344 111.674 -99.9344C113.428 -99.5886 115.169 -99.1812 116.885 -98.7119L129.467 -117.406L143.359 -111.158L137.703 -89.3153C139.197 -88.3398 140.655 -87.3149 142.087 -86.2283C142.099 -86.216 142.112 -86.2036 142.124 -86.2036C142.173 -86.1666 142.223 -86.1172 142.284 -86.0802C142.667 -85.7838 143.062 -85.4875 143.445 -85.1788C143.667 -85.0059 143.877 -84.8207 144.1 -84.6478C144.322 -84.4626 144.556 -84.2774 144.779 -84.0922C144.853 -84.0304 144.927 -83.9687 145.001 -83.9193C145.297 -83.6724 145.594 -83.413 145.878 -83.1537C145.939 -83.092 146.013 -83.0426 146.075 -82.9809C147.421 -81.8078 148.718 -80.5731 149.965 -79.3136L170.227 -89.2412L179.143 -76.8811L163.325 -60.8043C164.128 -59.2238 164.881 -57.6062 165.572 -55.9516C165.609 -55.8775 165.634 -55.7911 165.671 -55.717C165.856 -55.2725 166.042 -54.8156 166.214 -54.3587C166.227 -54.334 166.239 -54.3094 166.251 -54.2723C166.264 -54.2476 166.276 -54.2229 166.276 -54.1982C166.363 -53.9883 166.437 -53.766 166.523 -53.5561C166.622 -53.2845 166.721 -53.0252 166.819 -52.7535C166.992 -52.2967 167.153 -51.8398 167.301 -51.3829C167.326 -51.2965 167.363 -51.2224 167.387 -51.136C167.968 -49.4443 168.474 -47.728 168.931 -46.0117L191.441 -44.4805L192.984 -29.3175L171.24 -23.3041C171.141 -21.526 170.981 -19.7479 170.758 -17.9699C170.734 -17.9081 170.721 -17.8217 170.709 -17.7353ZM123.195 -81.9066C122.812 -82.0918 122.429 -82.2524 122.046 -82.4252C121.688 -82.5858 121.343 -82.7463 120.985 -82.8944C120.898 -82.9315 120.799 -82.9685 120.713 -83.0056C111.884 -86.6976 102.265 -88.2534 92.7205 -87.5496C92.6217 -87.5372 92.5229 -87.5372 92.4241 -87.5249C92.0043 -87.4878 91.5721 -87.4384 91.1523 -87.4014C90.7695 -87.3643 90.3867 -87.3273 90.0039 -87.2779C89.9052 -87.2656 89.8064 -87.2532 89.7076 -87.2409C80.2122 -86.0184 71.1119 -82.5611 63.1969 -77.1774C63.1105 -77.1157 63.0364 -77.0663 62.95 -77.0046C62.6043 -76.77 62.2585 -76.5107 61.9251 -76.2637C61.6164 -76.0414 61.2954 -75.8192 60.9867 -75.5846C60.9126 -75.5228 60.8262 -75.4611 60.7521 -75.3993C53.1335 -69.5959 46.9843 -62.0514 42.8231 -53.4327C42.7861 -53.3462 42.7367 -53.2598 42.6997 -53.1734C42.5144 -52.7906 42.3415 -52.3955 42.1687 -52.0003C42.0082 -51.6546 41.8476 -51.3089 41.6995 -50.9631C41.6624 -50.8767 41.6254 -50.7779 41.5883 -50.6915C37.8963 -41.8505 36.3405 -32.2439 37.0444 -22.6867C37.0567 -22.6003 37.0567 -22.5015 37.069 -22.4151C37.1061 -21.9829 37.1555 -21.5631 37.1925 -21.1309C37.2296 -20.7481 37.2666 -20.353 37.316 -19.9702C37.3284 -19.8838 37.3407 -19.785 37.353 -19.6986C38.5755 -10.1908 42.0329 -1.07812 47.4288 6.83679C47.4782 6.91089 47.54 6.99732 47.5894 7.07141C47.8116 7.39246 48.0462 7.70114 48.2685 8.00983C48.5154 8.35558 48.7624 8.70131 49.0217 9.04705C49.0834 9.12114 49.1328 9.19522 49.1946 9.26932C54.998 16.8879 62.5425 23.0371 71.1736 27.1983C71.26 27.2353 71.3465 27.2847 71.4329 27.3218C71.791 27.4946 72.1491 27.6428 72.5195 27.8157C72.9023 27.9885 73.2727 28.1614 73.6555 28.3219C73.7419 28.359 73.8284 28.396 73.9148 28.433C82.7435 32.125 92.3624 33.6809 101.92 32.977C102.018 32.9647 102.117 32.9647 102.216 32.9523C102.611 32.9153 103.018 32.8782 103.414 32.8289C103.821 32.7918 104.229 32.7548 104.636 32.7054C104.735 32.693 104.834 32.6807 104.92 32.6683C114.415 31.4459 123.528 27.9885 131.443 22.6049C131.517 22.5555 131.604 22.4938 131.678 22.4444C131.999 22.2221 132.32 21.9875 132.641 21.7529C132.974 21.506 133.32 21.2714 133.653 21.0244C133.727 20.9627 133.801 20.9133 133.888 20.8515C141.507 15.0481 147.656 7.5036 151.817 -1.1275C151.854 -1.21393 151.903 -1.30037 151.94 -1.38681C152.101 -1.73255 152.261 -2.09063 152.41 -2.43637C152.582 -2.8315 152.768 -3.21428 152.928 -3.6094C152.965 -3.69583 153.002 -3.78228 153.039 -3.88105C156.731 -12.7097 158.287 -22.3286 157.583 -31.8734C157.571 -31.9722 157.571 -32.0834 157.559 -32.1821C157.522 -32.5649 157.485 -32.9477 157.447 -33.3305C157.41 -33.7503 157.373 -34.1578 157.324 -34.5776C157.312 -34.6764 157.299 -34.7875 157.287 -34.8863C156.065 -44.3817 152.607 -53.4821 147.224 -61.3846C147.174 -61.4711 147.112 -61.5451 147.051 -61.6316C146.804 -61.9897 146.557 -62.3231 146.297 -62.6811C146.075 -62.9898 145.853 -63.2985 145.631 -63.6072C145.569 -63.6813 145.507 -63.7677 145.445 -63.8418C139.642 -71.4604 132.098 -77.6096 123.466 -81.7708C123.368 -81.8202 123.281 -81.8572 123.195 -81.9066Z"/>
</mask>
<path d="M170.709 -17.7353C170.647 -17.2537 170.585 -16.7721 170.511 -16.2906C170.474 -16.0066 170.425 -15.7226 170.376 -15.4386C170.326 -15.1546 170.289 -14.8829 170.24 -14.5989C170.153 -14.1174 170.067 -13.6358 169.968 -13.1666C169.956 -13.0801 169.931 -12.9937 169.919 -12.9196C169.894 -12.7961 169.869 -12.6603 169.845 -12.5368C169.598 -11.3515 169.338 -10.1661 169.03 -8.99303C168.919 -8.56086 168.807 -8.14103 168.684 -7.70886L187.416 4.87351L181.168 18.7648L159.324 13.1095C158.349 14.6036 157.324 16.0606 156.25 17.4806C156.2 17.5547 156.151 17.6164 156.089 17.6782C155.793 18.0609 155.497 18.4437 155.188 18.8265C155.015 19.0487 154.83 19.271 154.645 19.4933C154.459 19.7155 154.286 19.9378 154.101 20.1601C153.793 20.5305 153.471 20.9009 153.15 21.2714C153.101 21.3331 153.039 21.3948 152.99 21.4566C151.805 22.8025 150.582 24.099 149.323 25.3585L159.25 45.6212L146.89 54.5363L130.813 38.7187C129.233 39.5214 127.615 40.2746 125.961 40.9661C125.887 41.0031 125.8 41.0278 125.726 41.0648C125.282 41.25 124.825 41.4353 124.38 41.6081C124.108 41.7069 123.849 41.818 123.578 41.9168C123.306 42.0156 123.047 42.1144 122.775 42.2132C122.318 42.386 121.861 42.5466 121.404 42.6947C121.318 42.7194 121.244 42.7565 121.157 42.7812C119.466 43.3615 117.749 43.8678 116.033 44.3246L114.502 66.8346L99.3389 68.3781L93.3255 46.6337C91.5474 46.5349 89.7693 46.3744 87.9913 46.1521C87.9048 46.1398 87.8307 46.1274 87.7443 46.1151C87.3615 46.0657 86.9664 46.0163 86.5836 45.9546C86.4848 45.9422 86.3984 45.9299 86.2996 45.9052C86.0156 45.8681 85.7316 45.8187 85.4476 45.7693C85.1636 45.7199 84.892 45.6829 84.608 45.6335C84.1264 45.5471 83.6572 45.4606 83.1756 45.3742C83.1139 45.3619 83.0398 45.3495 82.9781 45.3371C82.9657 45.3371 82.941 45.3248 82.9287 45.3248C81.1753 44.9791 79.4343 44.5716 77.7179 44.1024L65.1355 62.8339L51.2443 56.586L56.8996 34.7428C56.5292 34.4958 56.1587 34.2612 55.7883 34.0143C54.7881 33.3351 53.8003 32.6313 52.8372 31.9028C52.7384 31.8287 52.6272 31.7423 52.5285 31.6558C52.5161 31.6435 52.5038 31.6311 52.4914 31.6311C52.442 31.5941 52.3803 31.5447 52.3309 31.5076C51.9481 31.2113 51.5653 30.915 51.1826 30.6063C50.9603 30.4334 50.738 30.2482 50.5158 30.0753C50.2935 29.8901 50.0712 29.7172 49.849 29.532C49.7749 29.4703 49.7008 29.4085 49.6267 29.3468C49.3304 29.0998 49.034 28.8405 48.7377 28.5812C48.676 28.5195 48.6142 28.4701 48.5401 28.4207C47.1942 27.2353 45.8977 26.0129 44.6382 24.7534L24.3879 34.681L15.4728 22.3209L31.2903 6.2441C30.4877 4.66359 29.7345 3.04603 29.043 1.39143C29.0059 1.30499 28.9813 1.23091 28.9442 1.14448C28.759 0.69996 28.5738 0.255441 28.4009 -0.20143C28.2898 -0.473075 28.191 -0.744727 28.0922 -1.00404C27.9934 -1.26334 27.8947 -1.53499 27.7959 -1.79429C27.623 -2.25116 27.4625 -2.72037 27.302 -3.17725C27.2773 -3.25133 27.2526 -3.33777 27.2155 -3.41186C26.6352 -5.1035 26.1289 -6.81983 25.6721 -8.53617L3.16207 -10.0673L1.6186 -25.2304L23.3877 -31.2684C23.4865 -33.0465 23.647 -34.8246 23.8693 -36.6027C23.8817 -36.6891 23.894 -36.7632 23.9063 -36.8496C23.9681 -37.3312 24.0298 -37.8127 24.1039 -38.2943C24.1409 -38.5783 24.1903 -38.8623 24.2397 -39.1463C24.2891 -39.4303 24.3261 -39.7019 24.3755 -39.9859C24.462 -40.4675 24.5484 -40.9367 24.6349 -41.4183C24.6472 -41.5047 24.6719 -41.5912 24.6842 -41.6652C25.03 -43.4186 25.4375 -45.1597 25.9067 -46.876L7.1751 -59.4584L13.4231 -73.3496L35.2663 -67.6943C36.2418 -69.1884 37.2666 -70.6455 38.3409 -72.0655C38.3903 -72.1395 38.4396 -72.2013 38.5014 -72.263C38.7977 -72.6458 39.0941 -73.0286 39.4028 -73.4114C39.5757 -73.6336 39.7609 -73.8559 39.9461 -74.0781C40.1313 -74.3004 40.3042 -74.5227 40.4894 -74.7449C40.7981 -75.1154 41.1191 -75.4858 41.4402 -75.8562C41.5019 -75.918 41.5513 -75.9797 41.6007 -76.0538C42.7861 -77.3997 44.0085 -78.6962 45.268 -79.9557L35.3404 -100.218L47.7005 -109.133L63.7773 -93.316C65.3578 -94.1186 66.9877 -94.8718 68.63 -95.5633C68.7041 -95.6003 68.7781 -95.625 68.8646 -95.662C69.3214 -95.8473 69.766 -96.0325 70.2228 -96.2177C70.4821 -96.3165 70.7538 -96.4153 71.0131 -96.5264C71.2847 -96.6252 71.544 -96.7363 71.8157 -96.8351C72.2726 -97.008 72.7294 -97.1685 73.1863 -97.3166C73.2727 -97.3413 73.3468 -97.3784 73.4332 -97.4031C75.1249 -97.9834 76.8412 -98.4897 78.5576 -98.9466L80.0887 -121.457L95.2518 -123L101.265 -101.256C103.043 -101.157 104.821 -100.996 106.599 -100.774C106.686 -100.762 106.772 -100.749 106.859 -100.737C107.241 -100.688 107.637 -100.638 108.019 -100.576C108.118 -100.564 108.205 -100.552 108.303 -100.527C108.587 -100.49 108.871 -100.441 109.155 -100.391C109.439 -100.342 109.711 -100.305 109.995 -100.255C110.477 -100.169 110.958 -100.083 111.427 -99.9838C111.489 -99.9714 111.563 -99.9591 111.625 -99.9467C111.637 -99.9467 111.662 -99.9344 111.674 -99.9344C113.428 -99.5886 115.169 -99.1812 116.885 -98.7119L129.467 -117.406L143.359 -111.158L137.703 -89.3153C139.197 -88.3398 140.655 -87.3149 142.087 -86.2283C142.099 -86.216 142.112 -86.2036 142.124 -86.2036C142.173 -86.1666 142.223 -86.1172 142.284 -86.0802C142.667 -85.7838 143.062 -85.4875 143.445 -85.1788C143.667 -85.0059 143.877 -84.8207 144.1 -84.6478C144.322 -84.4626 144.556 -84.2774 144.779 -84.0922C144.853 -84.0304 144.927 -83.9687 145.001 -83.9193C145.297 -83.6724 145.594 -83.413 145.878 -83.1537C145.939 -83.092 146.013 -83.0426 146.075 -82.9809C147.421 -81.8078 148.718 -80.5731 149.965 -79.3136L170.227 -89.2412L179.143 -76.8811L163.325 -60.8043C164.128 -59.2238 164.881 -57.6062 165.572 -55.9516C165.609 -55.8775 165.634 -55.7911 165.671 -55.717C165.856 -55.2725 166.042 -54.8156 166.214 -54.3587C166.227 -54.334 166.239 -54.3094 166.251 -54.2723C166.264 -54.2476 166.276 -54.2229 166.276 -54.1982C166.363 -53.9883 166.437 -53.766 166.523 -53.5561C166.622 -53.2845 166.721 -53.0252 166.819 -52.7535C166.992 -52.2967 167.153 -51.8398 167.301 -51.3829C167.326 -51.2965 167.363 -51.2224 167.387 -51.136C167.968 -49.4443 168.474 -47.728 168.931 -46.0117L191.441 -44.4805L192.984 -29.3175L171.24 -23.3041C171.141 -21.526 170.981 -19.7479 170.758 -17.9699C170.734 -17.9081 170.721 -17.8217 170.709 -17.7353ZM123.195 -81.9066C122.812 -82.0918 122.429 -82.2524 122.046 -82.4252C121.688 -82.5858 121.343 -82.7463 120.985 -82.8944C120.898 -82.9315 120.799 -82.9685 120.713 -83.0056C111.884 -86.6976 102.265 -88.2534 92.7205 -87.5496C92.6217 -87.5372 92.5229 -87.5372 92.4241 -87.5249C92.0043 -87.4878 91.5721 -87.4384 91.1523 -87.4014C90.7695 -87.3643 90.3867 -87.3273 90.0039 -87.2779C89.9052 -87.2656 89.8064 -87.2532 89.7076 -87.2409C80.2122 -86.0184 71.1119 -82.5611 63.1969 -77.1774C63.1105 -77.1157 63.0364 -77.0663 62.95 -77.0046C62.6043 -76.77 62.2585 -76.5107 61.9251 -76.2637C61.6164 -76.0414 61.2954 -75.8192 60.9867 -75.5846C60.9126 -75.5228 60.8262 -75.4611 60.7521 -75.3993C53.1335 -69.5959 46.9843 -62.0514 42.8231 -53.4327C42.7861 -53.3462 42.7367 -53.2598 42.6997 -53.1734C42.5144 -52.7906 42.3415 -52.3955 42.1687 -52.0003C42.0082 -51.6546 41.8476 -51.3089 41.6995 -50.9631C41.6624 -50.8767 41.6254 -50.7779 41.5883 -50.6915C37.8963 -41.8505 36.3405 -32.2439 37.0444 -22.6867C37.0567 -22.6003 37.0567 -22.5015 37.069 -22.4151C37.1061 -21.9829 37.1555 -21.5631 37.1925 -21.1309C37.2296 -20.7481 37.2666 -20.353 37.316 -19.9702C37.3284 -19.8838 37.3407 -19.785 37.353 -19.6986C38.5755 -10.1908 42.0329 -1.07812 47.4288 6.83679C47.4782 6.91089 47.54 6.99732 47.5894 7.07141C47.8116 7.39246 48.0462 7.70114 48.2685 8.00983C48.5154 8.35558 48.7624 8.70131 49.0217 9.04705C49.0834 9.12114 49.1328 9.19522 49.1946 9.26932C54.998 16.8879 62.5425 23.0371 71.1736 27.1983C71.26 27.2353 71.3465 27.2847 71.4329 27.3218C71.791 27.4946 72.1491 27.6428 72.5195 27.8157C72.9023 27.9885 73.2727 28.1614 73.6555 28.3219C73.7419 28.359 73.8284 28.396 73.9148 28.433C82.7435 32.125 92.3624 33.6809 101.92 32.977C102.018 32.9647 102.117 32.9647 102.216 32.9523C102.611 32.9153 103.018 32.8782 103.414 32.8289C103.821 32.7918 104.229 32.7548 104.636 32.7054C104.735 32.693 104.834 32.6807 104.92 32.6683C114.415 31.4459 123.528 27.9885 131.443 22.6049C131.517 22.5555 131.604 22.4938 131.678 22.4444C131.999 22.2221 132.32 21.9875 132.641 21.7529C132.974 21.506 133.32 21.2714 133.653 21.0244C133.727 20.9627 133.801 20.9133 133.888 20.8515C141.507 15.0481 147.656 7.5036 151.817 -1.1275C151.854 -1.21393 151.903 -1.30037 151.94 -1.38681C152.101 -1.73255 152.261 -2.09063 152.41 -2.43637C152.582 -2.8315 152.768 -3.21428 152.928 -3.6094C152.965 -3.69583 153.002 -3.78228 153.039 -3.88105C156.731 -12.7097 158.287 -22.3286 157.583 -31.8734C157.571 -31.9722 157.571 -32.0834 157.559 -32.1821C157.522 -32.5649 157.485 -32.9477 157.447 -33.3305C157.41 -33.7503 157.373 -34.1578 157.324 -34.5776C157.312 -34.6764 157.299 -34.7875 157.287 -34.8863C156.065 -44.3817 152.607 -53.4821 147.224 -61.3846C147.174 -61.4711 147.112 -61.5451 147.051 -61.6316C146.804 -61.9897 146.557 -62.3231 146.297 -62.6811C146.075 -62.9898 145.853 -63.2985 145.631 -63.6072C145.569 -63.6813 145.507 -63.7677 145.445 -63.8418C139.642 -71.4604 132.098 -77.6096 123.466 -81.7708C123.368 -81.8202 123.281 -81.8572 123.195 -81.9066Z" stroke="white" stroke-width="2" mask="url(#path-1-inside-1_1_28115)"/>
</mask>
<g mask="url(#mask0_1_28115)">
<path d="M-129.097 -125.272L72.1719 75.9848" stroke="white" stroke-width="0.5361" stroke-miterlimit="10"/>
<path d="M-99.7446 -125.272L101.512 75.9839" stroke="white" stroke-width="0.5361" stroke-miterlimit="10"/>
<path d="M-70.4048 -125.272L130.852 75.9839" stroke="white" stroke-width="0.5361" stroke-miterlimit="10"/>
<path d="M-41.0649 -125.272L160.191 75.9848" stroke="white" stroke-width="0.5361" stroke-miterlimit="10"/>
<path d="M-143.764 -125.273L57.4922 75.9829" stroke="white" stroke-width="0.5361" stroke-miterlimit="10"/>
<path d="M-114.425 -125.272L86.8437 75.9839" stroke="white" stroke-width="0.5361" stroke-miterlimit="10"/>
<path d="M-85.0727 -125.272L116.184 75.9839" stroke="white" stroke-width="0.5361" stroke-miterlimit="10"/>
<path d="M-55.7368 -125.272L145.52 75.9839" stroke="white" stroke-width="0.5361" stroke-miterlimit="10"/>
<path d="M-26.3976 -125.272L174.871 75.9839" stroke="white" stroke-width="0.5361" stroke-miterlimit="10"/>
<path d="M-11.7296 -125.272L189.539 75.9839" stroke="white" stroke-width="0.5361" stroke-miterlimit="10"/>
<path d="M2.95071 -125.272L204.207 75.9839" stroke="white" stroke-width="0.5361" stroke-miterlimit="10"/>
<path d="M17.6187 -125.272L218.875 75.9839" stroke="white" stroke-width="0.5361" stroke-miterlimit="10"/>
<path d="M32.2905 -125.272L233.547 75.9839" stroke="white" stroke-width="0.5361" stroke-miterlimit="10"/>
<path d="M46.9585 -125.273L248.215 75.9829" stroke="white" stroke-width="0.5361" stroke-miterlimit="10"/>
<path d="M61.6304 -125.271L262.887 75.985" stroke="white" stroke-width="0.5361" stroke-miterlimit="10"/>
<path d="M76.2977 -125.272L277.566 75.9848" stroke="white" stroke-width="0.5361" stroke-miterlimit="10"/>
<path d="M90.9657 -125.272L292.234 75.9848" stroke="white" stroke-width="0.5361" stroke-miterlimit="10"/>
<path d="M-121.761 -125.273L79.5078 75.9829" stroke="white" stroke-width="0.5361" stroke-miterlimit="10"/>
<path d="M-92.4126 -125.272L108.844 75.9839" stroke="white" stroke-width="0.5361" stroke-miterlimit="10"/>
<path d="M-63.0688 -125.272L138.187 75.9839" stroke="white" stroke-width="0.5361" stroke-miterlimit="10"/>
<path d="M-33.7335 -125.272L167.535 75.9848" stroke="white" stroke-width="0.5361" stroke-miterlimit="10"/>
<path d="M-4.39369 -125.272L196.875 75.9839" stroke="white" stroke-width="0.5361" stroke-miterlimit="10"/>
<path d="M24.9546 -125.272L226.211 75.9839" stroke="white" stroke-width="0.5361" stroke-miterlimit="10"/>
<path d="M54.2945 -125.272L255.551 75.9839" stroke="white" stroke-width="0.5361" stroke-miterlimit="10"/>
<path d="M-136.428 -125.272L64.8281 75.9839" stroke="white" stroke-width="0.5361" stroke-miterlimit="10"/>
<path d="M-107.093 -125.272L94.1758 75.9839" stroke="white" stroke-width="0.5361" stroke-miterlimit="10"/>
<path d="M-77.7407 -125.272L123.516 75.9848" stroke="white" stroke-width="0.5361" stroke-miterlimit="10"/>
<path d="M-48.4009 -125.272L152.855 75.9839" stroke="white" stroke-width="0.5361" stroke-miterlimit="10"/>
<path d="M-19.0656 -125.272L182.203 75.9839" stroke="white" stroke-width="0.5361" stroke-miterlimit="10"/>
<path d="M10.2866 -125.272L211.543 75.9839" stroke="white" stroke-width="0.5361" stroke-miterlimit="10"/>
<path d="M39.6265 -125.272L240.883 75.9839" stroke="white" stroke-width="0.5361" stroke-miterlimit="10"/>
<path d="M68.9618 -125.272L270.23 75.9839" stroke="white" stroke-width="0.5361" stroke-miterlimit="10"/>
<path d="M83.6337 -125.272L284.902 75.9839" stroke="white" stroke-width="0.5361" stroke-miterlimit="10"/>
<path d="M98.314 -125.272L299.57 75.9848" stroke="white" stroke-width="0.5361" stroke-miterlimit="10"/>
<path d="M105.65 -125.272L306.906 75.9839" stroke="white" stroke-width="0.5361" stroke-miterlimit="10"/>
<path d="M112.986 -125.271L314.242 75.9858" stroke="white" stroke-width="0.5361" stroke-miterlimit="10"/>
<path d="M120.318 -125.272L321.574 75.9839" stroke="white" stroke-width="0.5361" stroke-miterlimit="10"/>
<path d="M127.654 -125.272L328.91 75.9848" stroke="white" stroke-width="0.5361" stroke-miterlimit="10"/>
<path d="M134.986 -125.272L336.242 75.9839" stroke="white" stroke-width="0.5361" stroke-miterlimit="10"/>
<path d="M142.322 -125.272L343.578 75.9839" stroke="white" stroke-width="0.5361" stroke-miterlimit="10"/>
</g>
<path d="M170.709 -17.7353C170.647 -17.2537 170.585 -16.7721 170.511 -16.2906C170.474 -16.0066 170.425 -15.7226 170.376 -15.4386C170.326 -15.1546 170.289 -14.8829 170.24 -14.5989C170.153 -14.1174 170.067 -13.6358 169.968 -13.1666C169.956 -13.0801 169.931 -12.9937 169.919 -12.9196C169.894 -12.7961 169.869 -12.6603 169.845 -12.5368C169.598 -11.3515 169.338 -10.1661 169.03 -8.99303C168.919 -8.56086 168.807 -8.14103 168.684 -7.70886L187.416 4.87351L181.168 18.7648L159.324 13.1095C158.349 14.6036 157.324 16.0606 156.25 17.4806C156.2 17.5547 156.151 17.6164 156.089 17.6782C155.793 18.0609 155.497 18.4437 155.188 18.8265C155.015 19.0488 154.83 19.271 154.645 19.4933C154.459 19.7155 154.286 19.9378 154.101 20.1601C153.793 20.5305 153.471 20.9009 153.15 21.2714C153.101 21.3331 153.039 21.3948 152.99 21.4566C151.805 22.8025 150.582 24.099 149.323 25.3585L159.25 45.6212L146.89 54.5362L130.813 38.7188C129.233 39.5214 127.615 40.2746 125.961 40.9661C125.887 41.0031 125.8 41.0278 125.726 41.0648C125.282 41.25 124.825 41.4353 124.38 41.6081C124.108 41.7069 123.849 41.818 123.578 41.9168C123.306 42.0156 123.047 42.1144 122.775 42.2132C122.318 42.386 121.861 42.5466 121.404 42.6947C121.318 42.7194 121.244 42.7565 121.157 42.7812C119.466 43.3615 117.749 43.8678 116.033 44.3246L114.502 66.8346L99.3388 68.3781L93.3255 46.6337C91.5474 46.5349 89.7693 46.3744 87.9913 46.1521C87.9048 46.1398 87.8307 46.1274 87.7443 46.1151C87.3615 46.0657 86.9664 46.0163 86.5836 45.9545C86.4848 45.9422 86.3984 45.9299 86.2996 45.9052C86.0156 45.8681 85.7316 45.8187 85.4476 45.7693C85.1636 45.7199 84.892 45.6829 84.608 45.6335C84.1264 45.5471 83.6572 45.4606 83.1756 45.3742C83.1139 45.3618 83.0398 45.3495 82.9781 45.3372C82.9657 45.3372 82.941 45.3248 82.9287 45.3248C81.1753 44.9791 79.4343 44.5716 77.7179 44.1024L65.1355 62.8339L51.2443 56.586L56.8996 34.7428C56.5292 34.4958 56.1587 34.2612 55.7883 34.0142C54.7881 33.3351 53.8003 32.6313 52.8372 31.9028C52.7384 31.8287 52.6272 31.7423 52.5285 31.6558C52.5161 31.6435 52.5038 31.6311 52.4914 31.6311C52.442 31.5941 52.3803 31.5447 52.3309 31.5077C51.9481 31.2113 51.5653 30.915 51.1826 30.6063C50.9603 30.4334 50.738 30.2482 50.5158 30.0753C50.2935 29.8901 50.0712 29.7172 49.849 29.532C49.7749 29.4703 49.7008 29.4085 49.6267 29.3468C49.3304 29.0998 49.034 28.8405 48.7377 28.5812C48.676 28.5195 48.6142 28.4701 48.5401 28.4207C47.1942 27.2353 45.8977 26.0129 44.6382 24.7534L24.3879 34.681L15.4728 22.3209L31.2903 6.2441C30.4877 4.66359 29.7345 3.04603 29.043 1.39143C29.0059 1.30499 28.9813 1.23091 28.9442 1.14448C28.759 0.699956 28.5738 0.255441 28.4009 -0.201427C28.2898 -0.473078 28.191 -0.744731 28.0922 -1.00403C27.9934 -1.26334 27.8947 -1.53499 27.7959 -1.79429C27.623 -2.25116 27.4625 -2.72038 27.302 -3.17724C27.2773 -3.25133 27.2526 -3.33777 27.2155 -3.41185C26.6352 -5.1035 26.1289 -6.81983 25.6721 -8.53617L3.16207 -10.0673L1.6186 -25.2304L23.3877 -31.2684C23.4865 -33.0465 23.647 -34.8246 23.8693 -36.6027C23.8817 -36.6891 23.894 -36.7632 23.9063 -36.8496C23.9681 -37.3312 24.0298 -37.8127 24.1039 -38.2943C24.1409 -38.5783 24.1903 -38.8623 24.2397 -39.1463C24.2891 -39.4303 24.3261 -39.7019 24.3755 -39.9859C24.462 -40.4675 24.5484 -40.9367 24.6349 -41.4183C24.6472 -41.5047 24.6719 -41.5912 24.6842 -41.6652C25.03 -43.4186 25.4375 -45.1597 25.9067 -46.876L7.1751 -59.4584L13.4231 -73.3496L35.2663 -67.6943C36.2418 -69.1884 37.2666 -70.6455 38.3409 -72.0655C38.3903 -72.1395 38.4397 -72.2013 38.5014 -72.263C38.7977 -72.6458 39.0941 -73.0286 39.4028 -73.4114C39.5757 -73.6336 39.7609 -73.8559 39.9461 -74.0781C40.1313 -74.3004 40.3042 -74.5227 40.4894 -74.7449C40.7981 -75.1154 41.1191 -75.4858 41.4402 -75.8562C41.5019 -75.918 41.5513 -75.9797 41.6007 -76.0538C42.7861 -77.3997 44.0085 -78.6962 45.268 -79.9557L35.3404 -100.218L47.7005 -109.133L63.7773 -93.316C65.3578 -94.1186 66.9877 -94.8718 68.63 -95.5633C68.704 -95.6003 68.7781 -95.625 68.8646 -95.662C69.3214 -95.8473 69.7659 -96.0325 70.2228 -96.2177C70.4821 -96.3165 70.7538 -96.4153 71.0131 -96.5264C71.2847 -96.6252 71.544 -96.7363 71.8157 -96.8351C72.2726 -97.008 72.7294 -97.1685 73.1863 -97.3166C73.2727 -97.3413 73.3468 -97.3784 73.4332 -97.4031C75.1249 -97.9834 76.8412 -98.4897 78.5576 -98.9466L80.0887 -121.457L95.2518 -123L101.265 -101.256C103.043 -101.157 104.821 -100.996 106.599 -100.774C106.686 -100.762 106.772 -100.749 106.859 -100.737C107.241 -100.688 107.637 -100.638 108.019 -100.576C108.118 -100.564 108.205 -100.552 108.303 -100.527C108.587 -100.49 108.871 -100.441 109.155 -100.391C109.439 -100.342 109.711 -100.305 109.995 -100.255C110.477 -100.169 110.958 -100.083 111.427 -99.9838C111.489 -99.9714 111.563 -99.9591 111.625 -99.9467C111.637 -99.9467 111.662 -99.9344 111.674 -99.9344C113.428 -99.5886 115.169 -99.1812 116.885 -98.7119L129.467 -117.406L143.359 -111.158L137.703 -89.3153C139.197 -88.3398 140.655 -87.3149 142.087 -86.2283C142.099 -86.216 142.112 -86.2036 142.124 -86.2036C142.173 -86.1666 142.223 -86.1172 142.284 -86.0802C142.667 -85.7838 143.062 -85.4875 143.445 -85.1788C143.667 -85.0059 143.877 -84.8207 144.1 -84.6478C144.322 -84.4626 144.556 -84.2774 144.779 -84.0922C144.853 -84.0304 144.927 -83.9687 145.001 -83.9193C145.297 -83.6724 145.594 -83.413 145.878 -83.1537C145.939 -83.092 146.013 -83.0426 146.075 -82.9809C147.421 -81.8078 148.718 -80.5731 149.965 -79.3136L170.227 -89.2412L179.143 -76.8811L163.325 -60.8043C164.128 -59.2238 164.881 -57.6062 165.572 -55.9516C165.609 -55.8775 165.634 -55.7911 165.671 -55.717C165.856 -55.2725 166.042 -54.8156 166.214 -54.3587C166.227 -54.334 166.239 -54.3094 166.251 -54.2723C166.264 -54.2476 166.276 -54.2229 166.276 -54.1982C166.363 -53.9883 166.437 -53.766 166.523 -53.5561C166.622 -53.2845 166.721 -53.0252 166.819 -52.7535C166.992 -52.2967 167.153 -51.8398 167.301 -51.3829C167.326 -51.2965 167.363 -51.2224 167.387 -51.136C167.968 -49.4443 168.474 -47.728 168.931 -46.0117L191.441 -44.4805L192.984 -29.3175L171.24 -23.3041C171.141 -21.526 170.981 -19.7479 170.758 -17.9699C170.734 -17.9081 170.721 -17.8217 170.709 -17.7353ZM123.195 -81.9066C122.812 -82.0918 122.429 -82.2524 122.046 -82.4252C121.688 -82.5858 121.343 -82.7463 120.985 -82.8944C120.898 -82.9315 120.799 -82.9685 120.713 -83.0056C111.884 -86.6976 102.265 -88.2534 92.7205 -87.5496C92.6217 -87.5372 92.5229 -87.5372 92.4241 -87.5249C92.0043 -87.4878 91.5721 -87.4384 91.1523 -87.4014C90.7695 -87.3643 90.3867 -87.3273 90.004 -87.2779C89.9052 -87.2656 89.8064 -87.2532 89.7076 -87.2409C80.2122 -86.0184 71.1119 -82.5611 63.1969 -77.1774C63.1105 -77.1157 63.0364 -77.0663 62.95 -77.0046C62.6043 -76.77 62.2585 -76.5107 61.9251 -76.2637C61.6164 -76.0414 61.2954 -75.8192 60.9867 -75.5846C60.9126 -75.5228 60.8262 -75.4611 60.7521 -75.3994C53.1335 -69.5959 46.9843 -62.0514 42.8231 -53.4327C42.7861 -53.3462 42.7367 -53.2598 42.6997 -53.1734C42.5144 -52.7906 42.3415 -52.3955 42.1687 -52.0003C42.0082 -51.6546 41.8476 -51.3089 41.6995 -50.9631C41.6624 -50.8767 41.6254 -50.7779 41.5883 -50.6915C37.8963 -41.8505 36.3405 -32.2439 37.0444 -22.6867C37.0567 -22.6003 37.0567 -22.5015 37.069 -22.4151C37.1061 -21.9829 37.1555 -21.5631 37.1925 -21.1309C37.2296 -20.7481 37.2666 -20.353 37.316 -19.9702C37.3284 -19.8838 37.3407 -19.785 37.3531 -19.6986C38.5755 -10.1908 42.0329 -1.07812 47.4288 6.8368C47.4782 6.91089 47.54 6.99732 47.5894 7.07141C47.8116 7.39245 48.0462 7.70114 48.2685 8.00984C48.5154 8.35557 48.7624 8.70132 49.0217 9.04705C49.0834 9.12114 49.1328 9.19523 49.1946 9.26931C54.998 16.8879 62.5425 23.0371 71.1736 27.1983C71.26 27.2353 71.3465 27.2847 71.4329 27.3218C71.791 27.4946 72.1491 27.6428 72.5195 27.8157C72.9023 27.9885 73.2727 28.1614 73.6555 28.3219C73.7419 28.359 73.8284 28.396 73.9148 28.4331C82.7435 32.125 92.3624 33.6809 101.92 32.977C102.018 32.9647 102.117 32.9647 102.216 32.9523C102.611 32.9153 103.018 32.8782 103.414 32.8289C103.821 32.7918 104.229 32.7548 104.636 32.7054C104.735 32.693 104.834 32.6807 104.92 32.6683C114.415 31.4459 123.528 27.9885 131.443 22.6049C131.517 22.5555 131.604 22.4938 131.678 22.4444C131.999 22.2221 132.32 21.9875 132.641 21.7529C132.974 21.506 133.32 21.2713 133.653 21.0244C133.727 20.9627 133.801 20.9133 133.888 20.8515C141.507 15.0481 147.656 7.50359 151.817 -1.1275C151.854 -1.21393 151.903 -1.30038 151.94 -1.38681C152.101 -1.73255 152.261 -2.09063 152.41 -2.43637C152.582 -2.8315 152.768 -3.21427 152.928 -3.6094C152.965 -3.69584 153.002 -3.78227 153.039 -3.88106C156.731 -12.7097 158.287 -22.3286 157.583 -31.8734C157.571 -31.9722 157.571 -32.0834 157.559 -32.1821C157.522 -32.5649 157.485 -32.9477 157.447 -33.3305C157.41 -33.7503 157.373 -34.1578 157.324 -34.5776C157.312 -34.6764 157.299 -34.7875 157.287 -34.8863C156.065 -44.3817 152.607 -53.4821 147.224 -61.3846C147.174 -61.4711 147.112 -61.5451 147.051 -61.6316C146.804 -61.9897 146.557 -62.3231 146.297 -62.6811C146.075 -62.9898 145.853 -63.2985 145.631 -63.6072C145.569 -63.6813 145.507 -63.7677 145.445 -63.8418C139.642 -71.4604 132.098 -77.6096 123.466 -81.7708C123.368 -81.8202 123.281 -81.8572 123.195 -81.9066Z" stroke="white" stroke-width="3" stroke-miterlimit="10"/>
<path d="M76.8286 18.2712C51.6639 6.9606 40.4398 -22.6123 51.7503 -47.7771C63.0609 -72.9418 92.6338 -84.166 117.799 -72.8554C142.963 -61.5448 154.187 -31.9719 142.877 -6.80717C131.554 18.3576 101.981 29.5817 76.8286 18.2712ZM76.0507 -51.1604C69.4694 -54.1238 61.7397 -51.1851 58.7886 -44.6037C55.8251 -38.0223 58.7638 -30.2926 65.3452 -27.3415C71.9266 -24.3781 79.6563 -27.3168 82.6074 -33.8982C85.5709 -40.4795 82.6321 -48.2093 76.0507 -51.1604ZM114.625 -65.8048C108.044 -68.7683 100.314 -65.8295 97.363 -59.2482C94.3995 -52.6668 97.3383 -44.9371 103.92 -41.986C110.501 -39.0225 118.231 -41.9613 121.182 -48.5426C124.133 -55.124 121.207 -62.8537 114.625 -65.8048ZM94.1526 -28.7121C93.3747 -26.9711 94.1526 -24.9214 95.8936 -24.1435C97.6346 -23.3655 99.6844 -24.1434 100.462 -25.8845C101.24 -27.6255 100.462 -29.6752 98.7212 -30.4532C96.9802 -31.2311 94.9305 -30.4532 94.1526 -28.7121ZM90.6952 -12.5983C84.1138 -15.5617 76.3841 -12.623 73.433 -6.04161C70.4695 0.539748 73.4083 8.26946 79.9897 11.2206C86.571 14.184 94.3007 11.2453 97.2519 4.66391C100.215 -1.90511 97.2765 -9.63481 90.6952 -12.5983ZM129.27 -27.2427C122.688 -30.2062 114.959 -27.2674 112.007 -20.6861C109.044 -14.1047 111.983 -6.375 118.564 -3.42388C125.145 -0.460413 132.875 -3.39919 135.826 -9.98055C138.777 -16.5496 135.851 -24.2793 129.27 -27.2427Z" stroke="white" stroke-width="3" stroke-miterlimit="10"/>
</g>
</svg>
