<svg width="274" height="274" viewBox="0 0 274 274" fill="none" xmlns="http://www.w3.org/2000/svg">
<g opacity="0.4">
<mask id="mask0_1_28438" style="mask-type:luminance" maskUnits="userSpaceOnUse" x="2" y="2" width="270" height="271">
<mask id="path-1-inside-1_1_28438" fill="white">
<path d="M240.853 150.852C240.765 151.533 240.678 152.214 240.573 152.895C240.521 153.296 240.451 153.698 240.381 154.099C240.311 154.501 240.259 154.885 240.189 155.287C240.067 155.968 239.945 156.649 239.805 157.312C239.788 157.434 239.753 157.557 239.735 157.661C239.7 157.836 239.665 158.028 239.63 158.203C239.281 159.879 238.914 161.555 238.478 163.214C238.199 164.3 238.619 165.453 239.55 166.078L260.974 180.469C262.997 181.828 263.746 184.448 262.746 186.671L257.372 198.619C256.372 200.841 253.917 202.019 251.559 201.408L228.231 195.368C226.153 194.83 223.973 195.685 222.742 197.443C221.982 198.526 221.204 199.595 220.406 200.649C220.336 200.754 220.267 200.841 220.179 200.929C219.76 201.47 219.341 202.011 218.905 202.552C218.66 202.867 218.398 203.181 218.136 203.495C217.874 203.81 217.63 204.124 217.368 204.438C216.932 204.962 216.478 205.486 216.024 206.01C215.954 206.097 215.866 206.184 215.797 206.272C214.913 207.275 214.014 208.259 213.101 209.227C211.634 210.781 211.243 213.079 212.183 214.998L222.793 236.654C223.865 238.842 223.204 241.484 221.228 242.909L210.594 250.58C208.617 252.005 205.9 251.798 204.163 250.089L187.001 233.204C185.47 231.697 183.152 231.349 181.204 232.256C180.009 232.813 178.799 233.348 177.575 233.859C177.471 233.912 177.348 233.947 177.244 233.999C176.615 234.261 175.969 234.523 175.34 234.767C174.956 234.907 174.59 235.064 174.205 235.204C173.821 235.343 173.455 235.483 173.071 235.623C172.425 235.867 171.778 236.094 171.132 236.304C171.01 236.339 170.905 236.391 170.783 236.426C169.524 236.858 168.256 237.261 166.983 237.64C164.932 238.25 163.439 240.045 163.294 242.18L161.658 266.231C161.493 268.662 159.6 270.62 157.176 270.866L144.13 272.194C141.705 272.441 139.455 270.903 138.805 268.553L132.384 245.334C131.812 243.266 129.983 241.805 127.846 241.616C126.525 241.499 125.205 241.358 123.884 241.193C123.762 241.175 123.657 241.158 123.535 241.14C122.994 241.071 122.435 241.001 121.894 240.913C121.754 240.896 121.632 240.879 121.492 240.844C121.09 240.791 120.689 240.721 120.287 240.652C119.886 240.582 119.501 240.529 119.1 240.459C118.419 240.337 117.755 240.215 117.074 240.093C116.999 240.078 116.91 240.062 116.831 240.047C116.807 240.043 116.783 240.039 116.76 240.032C116.737 240.024 116.713 240.021 116.69 240.016C115.401 239.761 114.116 239.483 112.838 239.181C110.749 238.687 108.551 239.495 107.353 241.277L93.9175 261.279C92.5584 263.302 89.9387 264.051 87.7159 263.051L75.7678 257.677C73.5459 256.678 72.3678 254.222 72.9784 251.864L79.4473 226.878C79.7293 225.789 79.2828 224.653 78.3468 224.029C76.9324 223.069 75.5356 222.073 74.1737 221.043C74.034 220.938 73.8769 220.816 73.7372 220.694C73.7076 220.664 73.6667 220.646 73.6336 220.62C73.5752 220.575 73.5114 220.525 73.4578 220.485C72.9165 220.065 72.3753 219.646 71.834 219.21C71.5197 218.965 71.2054 218.704 70.8911 218.459C70.5768 218.197 70.2625 217.953 69.9482 217.691C69.8435 217.603 69.7387 217.516 69.6339 217.429C69.2149 217.08 68.7958 216.713 68.3768 216.346C68.2895 216.259 68.2022 216.189 68.0974 216.119C67.094 215.236 66.11 214.337 65.1428 213.424C63.5882 211.957 61.2901 211.566 59.3706 212.507L37.7326 223.115C35.5446 224.187 32.902 223.527 31.4765 221.55L23.8069 210.917C22.3809 208.94 22.5884 206.223 24.2979 204.485L41.1825 187.324C42.6895 185.792 43.0379 183.474 42.1306 181.527C41.5739 180.331 41.0385 179.122 40.5271 177.898C40.4747 177.776 40.4398 177.671 40.3874 177.549C40.1255 176.92 39.8636 176.292 39.6192 175.646C39.462 175.262 39.3223 174.877 39.1826 174.511C39.043 174.144 38.9033 173.76 38.7636 173.393C38.5192 172.747 38.2922 172.084 38.0652 171.438C38.0303 171.333 37.9953 171.211 37.943 171.106C37.5111 169.847 37.1083 168.579 36.7294 167.306C36.1188 165.254 34.3244 163.762 32.1888 163.617L8.13756 161.981C5.70693 161.816 3.74928 159.922 3.50258 157.499L2.17433 144.45C1.92757 142.026 3.46419 139.777 5.81224 139.125L29.0732 132.674C31.1395 132.101 32.5989 130.273 32.7879 128.137C32.9049 126.815 33.0459 125.493 33.2112 124.172C33.2286 124.05 33.2461 123.945 33.2635 123.823C33.3508 123.142 33.4381 122.461 33.5429 121.78C33.5952 121.378 33.6651 120.977 33.7349 120.575C33.8048 120.173 33.8572 119.789 33.927 119.388C34.0492 118.707 34.1715 118.043 34.2937 117.362C34.3112 117.24 34.346 117.118 34.3635 117.013C34.6201 115.712 34.9007 114.415 35.2054 113.126C35.6992 111.037 34.8918 108.838 33.1097 107.641L13.1074 94.2053C11.0842 92.8462 10.3356 90.2265 11.3354 88.0037L16.7094 76.0556C17.7087 73.8337 20.164 72.6556 22.5225 73.2662L45.8507 79.3059C47.9282 79.8438 50.1079 78.9892 51.3395 77.2317C52.0987 76.1484 52.8772 75.0794 53.6749 74.025C53.7448 73.9202 53.8146 73.8329 53.9019 73.7456C54.321 73.2043 54.7401 72.663 55.1766 72.1218C55.421 71.8075 55.6829 71.4932 55.9448 71.1789C56.2068 70.8646 56.4512 70.5503 56.7131 70.236C57.1496 69.7122 57.6036 69.1884 58.0576 68.6646C58.1449 68.5773 58.2147 68.49 58.2846 68.3852C59.1685 67.3816 60.067 66.3973 60.9801 65.43C62.4472 63.8757 62.8386 61.5782 61.8982 59.6589L51.2878 38.0025C50.2158 35.8146 50.8769 33.1726 52.8529 31.7474L63.487 24.0772C65.464 22.6513 68.1811 22.8587 69.9187 24.5683L87.08 41.4529C88.6117 42.9598 90.9301 43.3091 92.8785 42.4033C94.0778 41.8457 95.2894 41.3096 96.5058 40.7974C96.6106 40.7451 96.7153 40.7101 96.8376 40.6578C97.4836 40.3958 98.1122 40.1339 98.7582 39.872C99.1249 39.7323 99.5091 39.5927 99.8757 39.4355C100.26 39.2958 100.627 39.1387 101.011 38.999C101.657 38.7546 102.303 38.5276 102.949 38.318C103.071 38.2831 103.176 38.2307 103.298 38.1958C104.557 37.764 105.825 37.3612 107.098 36.9823C109.15 36.3716 110.642 34.5772 110.787 32.4416L112.423 8.39043C112.588 5.95981 114.481 4.00217 116.905 3.75545L129.951 2.42753C132.376 2.18062 134.626 3.71919 135.276 6.06911L141.697 29.2877C142.269 31.3557 144.098 32.8169 146.235 33.0061C147.556 33.123 148.876 33.264 150.197 33.4291C150.319 33.4465 150.442 33.464 150.564 33.4815C151.105 33.5513 151.664 33.6211 152.205 33.7084C152.345 33.7259 152.467 33.7434 152.607 33.7783C153.008 33.8307 153.41 33.9005 153.812 33.9704C154.213 34.0402 154.597 34.0926 154.999 34.1624C155.68 34.2846 156.361 34.4069 157.024 34.5466C157.1 34.5617 157.189 34.5768 157.268 34.592C157.292 34.5965 157.316 34.6001 157.339 34.6078C157.361 34.6153 157.385 34.6187 157.409 34.6233C158.699 34.8783 159.985 35.1569 161.264 35.4591C163.351 35.9526 165.548 35.1469 166.746 33.3673L180.18 13.4072C181.54 11.3867 184.158 10.64 186.379 11.639L198.331 17.0146C200.553 18.014 201.731 20.4693 201.12 22.8278L195.081 46.1559C194.543 48.2335 195.397 50.4129 197.154 51.6452C198.241 52.4069 199.315 53.1902 200.379 53.9977C200.409 54.0272 200.45 54.046 200.482 54.0727C200.536 54.1174 200.592 54.1673 200.658 54.2072C201.2 54.6262 201.758 55.0453 202.3 55.4818C202.614 55.7263 202.911 55.9882 203.225 56.2326C203.539 56.4945 203.871 56.7564 204.185 57.0184C204.29 57.1057 204.395 57.193 204.5 57.2628C204.919 57.612 205.338 57.9787 205.739 58.3454C205.827 58.4327 205.931 58.5025 206.019 58.5898C207.016 59.4591 207.994 60.3523 208.953 61.262C210.51 62.7391 212.817 63.1396 214.744 62.1953L236.384 51.593C238.572 50.5211 241.214 51.1822 242.639 53.1582L250.309 63.7923C251.735 65.7693 251.528 68.4863 249.818 70.2239L232.934 87.3853C231.427 88.9169 231.078 91.2349 231.985 93.1826C232.542 94.3777 233.078 95.5872 233.589 96.8111C233.641 96.9158 233.676 97.0381 233.729 97.1428C233.991 97.7714 234.253 98.4174 234.497 99.0635C234.511 99.0919 234.525 99.1202 234.54 99.1579C234.546 99.1763 234.555 99.1956 234.563 99.2134C234.586 99.2625 234.595 99.3162 234.615 99.3665C234.724 99.6406 234.822 99.9268 234.933 100.198C235.073 100.583 235.213 100.949 235.353 101.333C235.597 101.979 235.824 102.625 236.033 103.271C236.068 103.394 236.121 103.498 236.156 103.621C236.588 104.879 236.99 106.148 237.369 107.421C237.98 109.472 239.774 110.965 241.91 111.11L265.961 112.746C268.392 112.911 270.349 114.804 270.596 117.228L271.924 130.273C272.171 132.699 270.632 134.949 268.282 135.599L245.064 142.02C242.996 142.592 241.535 144.421 241.345 146.558C241.239 147.766 241.111 148.974 240.964 150.183C240.937 150.407 240.885 150.628 240.853 150.852ZM173.664 60.1089C173.123 59.847 172.582 59.62 172.04 59.3755C171.534 59.1485 171.045 58.9216 170.539 58.712C170.417 58.6596 170.277 58.6073 170.155 58.5549C157.67 53.3342 144.068 51.1341 130.571 52.1294C130.432 52.1468 130.292 52.1468 130.152 52.1643C129.559 52.2167 128.948 52.2865 128.354 52.3389C127.813 52.3913 127.271 52.4437 126.73 52.5135C126.59 52.531 126.451 52.5484 126.311 52.5659C112.884 54.2945 100.015 59.1835 88.8231 66.7963C88.7009 66.8836 88.5962 66.9534 88.474 67.0407C87.9851 67.3725 87.4961 67.7392 87.0247 68.0884C86.5882 68.4027 86.1342 68.7169 85.6977 69.0487C85.593 69.136 85.4707 69.2233 85.366 69.3106C74.5928 77.5171 65.8974 88.1855 60.0131 100.373C59.9608 100.495 59.891 100.617 59.8386 100.74C59.5767 101.281 59.3322 101.84 59.0877 102.398C58.8607 102.887 58.6337 103.376 58.4242 103.865C58.3718 103.987 58.3195 104.127 58.2671 104.249C53.0464 116.751 50.8463 130.335 51.8416 143.85C51.859 143.972 51.859 144.112 51.8765 144.234C51.9289 144.845 51.9987 145.439 52.0511 146.05C52.1035 146.591 52.1559 147.15 52.2257 147.691C52.2432 147.813 52.2606 147.953 52.2781 148.075C54.0067 161.52 58.8957 174.406 66.526 185.598C66.5958 185.703 66.6831 185.825 66.7529 185.93C67.0672 186.384 67.399 186.82 67.7133 187.257C68.0625 187.746 68.4117 188.235 68.7784 188.724C68.8657 188.828 68.9355 188.933 69.0228 189.038C77.2293 199.811 87.8977 208.507 100.103 214.391C100.225 214.443 100.347 214.513 100.469 214.565C100.976 214.81 101.482 215.019 102.006 215.264C102.547 215.508 103.071 215.753 103.612 215.98C103.735 216.032 103.857 216.084 103.979 216.137C116.463 221.358 130.065 223.558 143.58 222.562C143.719 222.545 143.859 222.545 143.999 222.527C144.557 222.475 145.134 222.423 145.692 222.353C146.269 222.3 146.845 222.248 147.421 222.178C147.561 222.161 147.7 222.143 147.823 222.126C161.25 220.397 174.136 215.508 185.328 207.895C185.433 207.826 185.555 207.738 185.66 207.668C186.114 207.354 186.568 207.022 187.022 206.691C187.493 206.341 187.982 206.01 188.453 205.66C188.558 205.573 188.663 205.503 188.785 205.416C199.558 197.21 208.254 186.541 214.138 174.336C214.19 174.214 214.26 174.092 214.312 173.969C214.539 173.481 214.766 172.974 214.976 172.485C215.22 171.927 215.482 171.385 215.709 170.827C215.762 170.704 215.814 170.582 215.866 170.442C221.087 157.958 223.287 144.356 222.292 130.859C222.275 130.72 222.275 130.562 222.257 130.423C222.205 129.881 222.152 129.34 222.1 128.799C222.048 128.205 221.995 127.629 221.925 127.035C221.908 126.896 221.89 126.739 221.873 126.599C220.144 113.172 215.255 100.303 207.643 89.1284C207.573 89.0062 207.485 88.9014 207.398 88.7792C207.049 88.2728 206.7 87.8014 206.333 87.295C206.019 86.8585 205.704 86.422 205.39 85.9855C205.303 85.8807 205.216 85.7585 205.128 85.6537C196.922 74.8805 186.253 66.1852 174.048 60.3009C173.909 60.2311 173.786 60.1787 173.664 60.1089Z"/>
</mask>
<path d="M240.853 150.852C240.765 151.533 240.678 152.214 240.573 152.895C240.521 153.296 240.451 153.698 240.381 154.099C240.311 154.501 240.259 154.885 240.189 155.287C240.067 155.968 239.945 156.649 239.805 157.312C239.788 157.434 239.753 157.557 239.735 157.661C239.7 157.836 239.665 158.028 239.63 158.203C239.281 159.879 238.914 161.555 238.478 163.214C238.199 164.3 238.619 165.453 239.55 166.078L260.974 180.469C262.997 181.828 263.746 184.448 262.746 186.671L257.372 198.619C256.372 200.841 253.917 202.019 251.559 201.408L228.231 195.368C226.153 194.83 223.973 195.685 222.742 197.443C221.982 198.526 221.204 199.595 220.406 200.649C220.336 200.754 220.267 200.841 220.179 200.929C219.76 201.47 219.341 202.011 218.905 202.552C218.66 202.867 218.398 203.181 218.136 203.495C217.874 203.81 217.63 204.124 217.368 204.438C216.932 204.962 216.478 205.486 216.024 206.01C215.954 206.097 215.866 206.184 215.797 206.272C214.913 207.275 214.014 208.259 213.101 209.227C211.634 210.781 211.243 213.079 212.183 214.998L222.793 236.654C223.865 238.842 223.204 241.484 221.228 242.909L210.594 250.58C208.617 252.005 205.9 251.798 204.163 250.089L187.001 233.204C185.47 231.697 183.152 231.349 181.204 232.256C180.009 232.813 178.799 233.348 177.575 233.859C177.471 233.912 177.348 233.947 177.244 233.999C176.615 234.261 175.969 234.523 175.34 234.767C174.956 234.907 174.59 235.064 174.205 235.204C173.821 235.343 173.455 235.483 173.071 235.623C172.425 235.867 171.778 236.094 171.132 236.304C171.01 236.339 170.905 236.391 170.783 236.426C169.524 236.858 168.256 237.261 166.983 237.64C164.932 238.25 163.439 240.045 163.294 242.18L161.658 266.231C161.493 268.662 159.6 270.62 157.176 270.866L144.13 272.194C141.705 272.441 139.455 270.903 138.805 268.553L132.384 245.334C131.812 243.266 129.983 241.805 127.846 241.616C126.525 241.499 125.205 241.358 123.884 241.193C123.762 241.175 123.657 241.158 123.535 241.14C122.994 241.071 122.435 241.001 121.894 240.913C121.754 240.896 121.632 240.879 121.492 240.844C121.09 240.791 120.689 240.721 120.287 240.652C119.886 240.582 119.501 240.529 119.1 240.459C118.419 240.337 117.755 240.215 117.074 240.093C116.999 240.078 116.91 240.062 116.831 240.047C116.807 240.043 116.783 240.039 116.76 240.032C116.737 240.024 116.713 240.021 116.69 240.016C115.401 239.761 114.116 239.483 112.838 239.181C110.749 238.687 108.551 239.495 107.353 241.277L93.9175 261.279C92.5584 263.302 89.9387 264.051 87.7159 263.051L75.7678 257.677C73.5459 256.678 72.3678 254.222 72.9784 251.864L79.4473 226.878C79.7293 225.789 79.2828 224.653 78.3468 224.029C76.9324 223.069 75.5356 222.073 74.1737 221.043C74.034 220.938 73.8769 220.816 73.7372 220.694C73.7076 220.664 73.6667 220.646 73.6336 220.62C73.5752 220.575 73.5114 220.525 73.4578 220.485C72.9165 220.065 72.3753 219.646 71.834 219.21C71.5197 218.965 71.2054 218.704 70.8911 218.459C70.5768 218.197 70.2625 217.953 69.9482 217.691C69.8435 217.603 69.7387 217.516 69.6339 217.429C69.2149 217.08 68.7958 216.713 68.3768 216.346C68.2895 216.259 68.2022 216.189 68.0974 216.119C67.094 215.236 66.11 214.337 65.1428 213.424C63.5882 211.957 61.2901 211.566 59.3706 212.507L37.7326 223.115C35.5446 224.187 32.902 223.527 31.4765 221.55L23.8069 210.917C22.3809 208.94 22.5884 206.223 24.2979 204.485L41.1825 187.324C42.6895 185.792 43.0379 183.474 42.1306 181.527C41.5739 180.331 41.0385 179.122 40.5271 177.898C40.4747 177.776 40.4398 177.671 40.3874 177.549C40.1255 176.92 39.8636 176.292 39.6192 175.646C39.462 175.262 39.3223 174.877 39.1826 174.511C39.043 174.144 38.9033 173.76 38.7636 173.393C38.5192 172.747 38.2922 172.084 38.0652 171.438C38.0303 171.333 37.9953 171.211 37.943 171.106C37.5111 169.847 37.1083 168.579 36.7294 167.306C36.1188 165.254 34.3244 163.762 32.1888 163.617L8.13756 161.981C5.70693 161.816 3.74928 159.922 3.50258 157.499L2.17433 144.45C1.92757 142.026 3.46419 139.777 5.81224 139.125L29.0732 132.674C31.1395 132.101 32.5989 130.273 32.7879 128.137C32.9049 126.815 33.0459 125.493 33.2112 124.172C33.2286 124.05 33.2461 123.945 33.2635 123.823C33.3508 123.142 33.4381 122.461 33.5429 121.78C33.5952 121.378 33.6651 120.977 33.7349 120.575C33.8048 120.173 33.8572 119.789 33.927 119.388C34.0492 118.707 34.1715 118.043 34.2937 117.362C34.3112 117.24 34.346 117.118 34.3635 117.013C34.6201 115.712 34.9007 114.415 35.2054 113.126C35.6992 111.037 34.8918 108.838 33.1097 107.641L13.1074 94.2053C11.0842 92.8462 10.3356 90.2265 11.3354 88.0037L16.7094 76.0556C17.7087 73.8337 20.164 72.6556 22.5225 73.2662L45.8507 79.3059C47.9282 79.8438 50.1079 78.9892 51.3395 77.2317C52.0987 76.1484 52.8772 75.0794 53.6749 74.025C53.7448 73.9202 53.8146 73.8329 53.9019 73.7456C54.321 73.2043 54.7401 72.663 55.1766 72.1218C55.421 71.8075 55.6829 71.4932 55.9448 71.1789C56.2068 70.8646 56.4512 70.5503 56.7131 70.236C57.1496 69.7122 57.6036 69.1884 58.0576 68.6646C58.1449 68.5773 58.2147 68.49 58.2846 68.3852C59.1685 67.3816 60.067 66.3973 60.9801 65.43C62.4472 63.8757 62.8386 61.5782 61.8982 59.6589L51.2878 38.0025C50.2158 35.8146 50.8769 33.1726 52.8529 31.7474L63.487 24.0772C65.464 22.6513 68.1811 22.8587 69.9187 24.5683L87.08 41.4529C88.6117 42.9598 90.9301 43.3091 92.8785 42.4033C94.0778 41.8457 95.2894 41.3096 96.5058 40.7974C96.6106 40.7451 96.7153 40.7101 96.8376 40.6578C97.4836 40.3958 98.1122 40.1339 98.7582 39.872C99.1249 39.7323 99.5091 39.5927 99.8757 39.4355C100.26 39.2958 100.627 39.1387 101.011 38.999C101.657 38.7546 102.303 38.5276 102.949 38.318C103.071 38.2831 103.176 38.2307 103.298 38.1958C104.557 37.764 105.825 37.3612 107.098 36.9823C109.15 36.3716 110.642 34.5772 110.787 32.4416L112.423 8.39043C112.588 5.95981 114.481 4.00217 116.905 3.75545L129.951 2.42753C132.376 2.18062 134.626 3.71919 135.276 6.06911L141.697 29.2877C142.269 31.3557 144.098 32.8169 146.235 33.0061C147.556 33.123 148.876 33.264 150.197 33.4291C150.319 33.4465 150.442 33.464 150.564 33.4815C151.105 33.5513 151.664 33.6211 152.205 33.7084C152.345 33.7259 152.467 33.7434 152.607 33.7783C153.008 33.8307 153.41 33.9005 153.812 33.9704C154.213 34.0402 154.597 34.0926 154.999 34.1624C155.68 34.2846 156.361 34.4069 157.024 34.5466C157.1 34.5617 157.189 34.5768 157.268 34.592C157.292 34.5965 157.316 34.6001 157.339 34.6078C157.361 34.6153 157.385 34.6187 157.409 34.6233C158.699 34.8783 159.985 35.1569 161.264 35.4591C163.351 35.9526 165.548 35.1469 166.746 33.3673L180.18 13.4072C181.54 11.3867 184.158 10.64 186.379 11.639L198.331 17.0146C200.553 18.014 201.731 20.4693 201.12 22.8278L195.081 46.1559C194.543 48.2335 195.397 50.4129 197.154 51.6452C198.241 52.4069 199.315 53.1902 200.379 53.9977C200.409 54.0272 200.45 54.046 200.482 54.0727C200.536 54.1174 200.592 54.1673 200.658 54.2072C201.2 54.6262 201.758 55.0453 202.3 55.4818C202.614 55.7263 202.911 55.9882 203.225 56.2326C203.539 56.4945 203.871 56.7564 204.185 57.0184C204.29 57.1057 204.395 57.193 204.5 57.2628C204.919 57.612 205.338 57.9787 205.739 58.3454C205.827 58.4327 205.931 58.5025 206.019 58.5898C207.016 59.4591 207.994 60.3523 208.953 61.262C210.51 62.7391 212.817 63.1396 214.744 62.1953L236.384 51.593C238.572 50.5211 241.214 51.1822 242.639 53.1582L250.309 63.7923C251.735 65.7693 251.528 68.4863 249.818 70.2239L232.934 87.3853C231.427 88.9169 231.078 91.2349 231.985 93.1826C232.542 94.3777 233.078 95.5872 233.589 96.8111C233.641 96.9158 233.676 97.0381 233.729 97.1428C233.991 97.7714 234.253 98.4174 234.497 99.0635C234.511 99.0919 234.525 99.1202 234.54 99.1579C234.546 99.1763 234.555 99.1956 234.563 99.2134C234.586 99.2625 234.595 99.3162 234.615 99.3665C234.724 99.6406 234.822 99.9268 234.933 100.198C235.073 100.583 235.213 100.949 235.353 101.333C235.597 101.979 235.824 102.625 236.033 103.271C236.068 103.394 236.121 103.498 236.156 103.621C236.588 104.879 236.99 106.148 237.369 107.421C237.98 109.472 239.774 110.965 241.91 111.11L265.961 112.746C268.392 112.911 270.349 114.804 270.596 117.228L271.924 130.273C272.171 132.699 270.632 134.949 268.282 135.599L245.064 142.02C242.996 142.592 241.535 144.421 241.345 146.558C241.239 147.766 241.111 148.974 240.964 150.183C240.937 150.407 240.885 150.628 240.853 150.852ZM173.664 60.1089C173.123 59.847 172.582 59.62 172.04 59.3755C171.534 59.1485 171.045 58.9216 170.539 58.712C170.417 58.6596 170.277 58.6073 170.155 58.5549C157.67 53.3342 144.068 51.1341 130.571 52.1294C130.432 52.1468 130.292 52.1468 130.152 52.1643C129.559 52.2167 128.948 52.2865 128.354 52.3389C127.813 52.3913 127.271 52.4437 126.73 52.5135C126.59 52.531 126.451 52.5484 126.311 52.5659C112.884 54.2945 100.015 59.1835 88.8231 66.7963C88.7009 66.8836 88.5962 66.9534 88.474 67.0407C87.9851 67.3725 87.4961 67.7392 87.0247 68.0884C86.5882 68.4027 86.1342 68.7169 85.6977 69.0487C85.593 69.136 85.4707 69.2233 85.366 69.3106C74.5928 77.5171 65.8974 88.1855 60.0131 100.373C59.9608 100.495 59.891 100.617 59.8386 100.74C59.5767 101.281 59.3322 101.84 59.0877 102.398C58.8607 102.887 58.6337 103.376 58.4242 103.865C58.3718 103.987 58.3195 104.127 58.2671 104.249C53.0464 116.751 50.8463 130.335 51.8416 143.85C51.859 143.972 51.859 144.112 51.8765 144.234C51.9289 144.845 51.9987 145.439 52.0511 146.05C52.1035 146.591 52.1559 147.15 52.2257 147.691C52.2432 147.813 52.2606 147.953 52.2781 148.075C54.0067 161.52 58.8957 174.406 66.526 185.598C66.5958 185.703 66.6831 185.825 66.7529 185.93C67.0672 186.384 67.399 186.82 67.7133 187.257C68.0625 187.746 68.4117 188.235 68.7784 188.724C68.8657 188.828 68.9355 188.933 69.0228 189.038C77.2293 199.811 87.8977 208.507 100.103 214.391C100.225 214.443 100.347 214.513 100.469 214.565C100.976 214.81 101.482 215.019 102.006 215.264C102.547 215.508 103.071 215.753 103.612 215.98C103.735 216.032 103.857 216.084 103.979 216.137C116.463 221.358 130.065 223.558 143.58 222.562C143.719 222.545 143.859 222.545 143.999 222.527C144.557 222.475 145.134 222.423 145.692 222.353C146.269 222.3 146.845 222.248 147.421 222.178C147.561 222.161 147.7 222.143 147.823 222.126C161.25 220.397 174.136 215.508 185.328 207.895C185.433 207.826 185.555 207.738 185.66 207.668C186.114 207.354 186.568 207.022 187.022 206.691C187.493 206.341 187.982 206.01 188.453 205.66C188.558 205.573 188.663 205.503 188.785 205.416C199.558 197.21 208.254 186.541 214.138 174.336C214.19 174.214 214.26 174.092 214.312 173.969C214.539 173.481 214.766 172.974 214.976 172.485C215.22 171.927 215.482 171.385 215.709 170.827C215.762 170.704 215.814 170.582 215.866 170.442C221.087 157.958 223.287 144.356 222.292 130.859C222.275 130.72 222.275 130.562 222.257 130.423C222.205 129.881 222.152 129.34 222.1 128.799C222.048 128.205 221.995 127.629 221.925 127.035C221.908 126.896 221.89 126.739 221.873 126.599C220.144 113.172 215.255 100.303 207.643 89.1284C207.573 89.0062 207.485 88.9014 207.398 88.7792C207.049 88.2728 206.7 87.8014 206.333 87.295C206.019 86.8585 205.704 86.422 205.39 85.9855C205.303 85.8807 205.216 85.7585 205.128 85.6537C196.922 74.8805 186.253 66.1852 174.048 60.3009C173.909 60.2311 173.786 60.1787 173.664 60.1089Z" stroke="white" stroke-width="2" mask="url(#path-1-inside-1_1_28438)"/>
</mask>
<g mask="url(#mask0_1_28438)">
<path d="M-183.09 -1.21194L101.518 283.378" stroke="#EF0F3A" stroke-width="0.5361" stroke-miterlimit="10"/>
<path d="M-141.586 -1.21316L143.004 283.377" stroke="#EF0F3A" stroke-width="0.5361" stroke-miterlimit="10"/>
<path d="M-100.1 -1.21389L184.49 283.376" stroke="#EF0F3A" stroke-width="0.5361" stroke-miterlimit="10"/>
<path d="M-58.6119 -1.21194L225.978 283.378" stroke="#EF0F3A" stroke-width="0.5361" stroke-miterlimit="10"/>
<path d="M-203.834 -1.21487L80.7558 283.375" stroke="#EF0F3A" stroke-width="0.5361" stroke-miterlimit="10"/>
<path d="M-162.346 -1.21292L122.262 283.377" stroke="#EF0F3A" stroke-width="0.5361" stroke-miterlimit="10"/>
<path d="M-120.842 -1.21389L163.748 283.376" stroke="#EF0F3A" stroke-width="0.5361" stroke-miterlimit="10"/>
<path d="M-79.3579 -1.21292L205.232 283.377" stroke="#EF0F3A" stroke-width="0.5361" stroke-miterlimit="10"/>
<path d="M-37.8676 -1.21292L246.74 283.377" stroke="#EF0F3A" stroke-width="0.5361" stroke-miterlimit="10"/>
<path d="M-17.1274 -1.21292L267.48 283.377" stroke="#EF0F3A" stroke-width="0.5361" stroke-miterlimit="10"/>
<path d="M3.63233 -1.21389L288.223 283.376" stroke="#EF0F3A" stroke-width="0.5361" stroke-miterlimit="10"/>
<path d="M24.3744 -1.21389L308.965 283.376" stroke="#EF0F3A" stroke-width="0.5361" stroke-miterlimit="10"/>
<path d="M45.1186 -1.21389L329.709 283.376" stroke="#EF0F3A" stroke-width="0.5361" stroke-miterlimit="10"/>
<path d="M65.8608 -1.21487L350.451 283.375" stroke="#EF0F3A" stroke-width="0.5361" stroke-miterlimit="10"/>
<path d="M86.6069 -1.21194L371.197 283.378" stroke="#EF0F3A" stroke-width="0.5361" stroke-miterlimit="10"/>
<path d="M107.349 -1.21194L391.957 283.378" stroke="#EF0F3A" stroke-width="0.5361" stroke-miterlimit="10"/>
<path d="M128.093 -1.21194L412.701 283.378" stroke="#EF0F3A" stroke-width="0.5361" stroke-miterlimit="10"/>
<path d="M-172.719 -1.21487L111.889 283.375" stroke="#EF0F3A" stroke-width="0.5361" stroke-miterlimit="10"/>
<path d="M-131.217 -1.21389L153.373 283.376" stroke="#EF0F3A" stroke-width="0.5361" stroke-miterlimit="10"/>
<path d="M-89.727 -1.21292L194.863 283.377" stroke="#EF0F3A" stroke-width="0.5361" stroke-miterlimit="10"/>
<path d="M-48.2426 -1.21218L236.365 283.378" stroke="#EF0F3A" stroke-width="0.5361" stroke-miterlimit="10"/>
<path d="M-6.75626 -1.21292L277.852 283.377" stroke="#EF0F3A" stroke-width="0.5361" stroke-miterlimit="10"/>
<path d="M34.7475 -1.21292L319.338 283.377" stroke="#EF0F3A" stroke-width="0.5361" stroke-miterlimit="10"/>
<path d="M76.2339 -1.21292L360.824 283.377" stroke="#EF0F3A" stroke-width="0.5361" stroke-miterlimit="10"/>
<path d="M-193.461 -1.21389L91.1289 283.376" stroke="#EF0F3A" stroke-width="0.5361" stroke-miterlimit="10"/>
<path d="M-151.977 -1.21389L132.631 283.376" stroke="#EF0F3A" stroke-width="0.5361" stroke-miterlimit="10"/>
<path d="M-110.471 -1.21194L174.119 283.378" stroke="#EF0F3A" stroke-width="0.5361" stroke-miterlimit="10"/>
<path d="M-68.9849 -1.21389L215.605 283.376" stroke="#EF0F3A" stroke-width="0.5361" stroke-miterlimit="10"/>
<path d="M-27.4984 -1.21292L257.109 283.377" stroke="#EF0F3A" stroke-width="0.5361" stroke-miterlimit="10"/>
<path d="M14.0054 -1.21292L298.596 283.377" stroke="#EF0F3A" stroke-width="0.5361" stroke-miterlimit="10"/>
<path d="M55.4917 -1.21389L340.082 283.376" stroke="#EF0F3A" stroke-width="0.5361" stroke-miterlimit="10"/>
<path d="M96.9781 -1.21389L381.586 283.376" stroke="#EF0F3A" stroke-width="0.5361" stroke-miterlimit="10"/>
<path d="M117.72 -1.21292L402.328 283.377" stroke="#EF0F3A" stroke-width="0.5361" stroke-miterlimit="10"/>
<path d="M138.484 -1.21194L423.074 283.378" stroke="#EF0F3A" stroke-width="0.5361" stroke-miterlimit="10"/>
<path d="M148.853 -1.21292L433.443 283.377" stroke="#EF0F3A" stroke-width="0.5361" stroke-miterlimit="10"/>
<path d="M159.226 -1.21096L443.816 283.379" stroke="#EF0F3A" stroke-width="0.5361" stroke-miterlimit="10"/>
<path d="M169.595 -1.21292L454.186 283.377" stroke="#EF0F3A" stroke-width="0.5361" stroke-miterlimit="10"/>
<path d="M179.968 -1.21194L464.559 283.378" stroke="#EF0F3A" stroke-width="0.5361" stroke-miterlimit="10"/>
<path d="M190.339 -1.21389L474.93 283.376" stroke="#EF0F3A" stroke-width="0.5361" stroke-miterlimit="10"/>
<path d="M200.71 -1.21389L485.301 283.376" stroke="#EF0F3A" stroke-width="0.5361" stroke-miterlimit="10"/>
</g>
<path d="M240.853 150.852C240.765 151.533 240.678 152.214 240.573 152.895C240.521 153.296 240.451 153.698 240.381 154.099C240.311 154.501 240.259 154.885 240.189 155.287C240.067 155.968 239.945 156.649 239.805 157.312C239.788 157.434 239.753 157.557 239.735 157.661C239.7 157.836 239.665 158.028 239.63 158.203C239.281 159.879 238.914 161.555 238.478 163.214V163.214C238.199 164.3 238.619 165.453 239.55 166.078L260.974 180.469C262.997 181.828 263.746 184.448 262.746 186.671L257.372 198.619C256.372 200.841 253.917 202.019 251.559 201.408L228.231 195.368C226.153 194.83 223.973 195.685 222.742 197.443C221.982 198.526 221.204 199.595 220.406 200.649C220.336 200.754 220.267 200.841 220.179 200.929C219.76 201.47 219.341 202.011 218.905 202.552C218.66 202.867 218.398 203.181 218.136 203.495C217.874 203.81 217.63 204.124 217.368 204.438C216.932 204.962 216.478 205.486 216.024 206.01C215.954 206.097 215.866 206.184 215.797 206.272C214.913 207.275 214.014 208.259 213.101 209.227C211.634 210.781 211.243 213.079 212.183 214.998L222.793 236.654C223.865 238.842 223.204 241.484 221.228 242.909L210.594 250.58C208.617 252.005 205.9 251.798 204.163 250.089L187.001 233.204C185.47 231.697 183.152 231.349 181.204 232.256C180.009 232.813 178.799 233.348 177.575 233.859C177.471 233.912 177.348 233.947 177.244 233.999C176.615 234.261 175.969 234.523 175.34 234.767C174.956 234.907 174.59 235.064 174.205 235.204C173.821 235.343 173.455 235.483 173.071 235.623C172.425 235.867 171.778 236.094 171.132 236.304C171.01 236.339 170.905 236.391 170.783 236.426C169.524 236.858 168.256 237.261 166.983 237.64C164.932 238.25 163.439 240.045 163.294 242.18L161.658 266.231C161.493 268.662 159.6 270.62 157.176 270.866L144.13 272.194C141.705 272.441 139.455 270.903 138.805 268.553L132.384 245.334C131.812 243.266 129.983 241.805 127.846 241.616C126.525 241.499 125.205 241.358 123.884 241.193C123.762 241.175 123.657 241.158 123.535 241.14C122.994 241.071 122.435 241.001 121.894 240.913C121.754 240.896 121.632 240.879 121.492 240.844C121.09 240.791 120.689 240.721 120.287 240.652C119.886 240.582 119.501 240.529 119.1 240.459C118.419 240.337 117.755 240.215 117.074 240.093C116.999 240.078 116.91 240.062 116.831 240.047C116.807 240.043 116.783 240.039 116.76 240.032V240.032C116.737 240.024 116.713 240.021 116.69 240.016C115.401 239.761 114.116 239.483 112.838 239.181C110.749 238.687 108.551 239.495 107.353 241.277L93.9175 261.279C92.5584 263.302 89.9387 264.051 87.7159 263.051L75.7678 257.677C73.5459 256.678 72.3678 254.222 72.9784 251.864L79.4473 226.878C79.7293 225.789 79.2828 224.653 78.3468 224.029V224.029C76.9325 223.069 75.5356 222.073 74.1737 221.043C74.034 220.938 73.8769 220.816 73.7372 220.694V220.694C73.7076 220.664 73.6667 220.646 73.6336 220.62C73.5752 220.575 73.5114 220.525 73.4578 220.485C72.9165 220.065 72.3753 219.646 71.834 219.21C71.5197 218.965 71.2054 218.704 70.8911 218.459C70.5768 218.197 70.2625 217.953 69.9482 217.691C69.8435 217.604 69.7387 217.516 69.6339 217.429C69.2149 217.08 68.7958 216.713 68.3768 216.346C68.2895 216.259 68.2022 216.189 68.0974 216.119C67.094 215.236 66.11 214.337 65.1428 213.424C63.5882 211.957 61.2901 211.566 59.3706 212.507L37.7326 223.115C35.5446 224.187 32.902 223.527 31.4765 221.55L23.8069 210.917C22.3809 208.94 22.5884 206.223 24.2979 204.485L41.1825 187.324C42.6895 185.792 43.0379 183.474 42.1306 181.527C41.5739 180.331 41.0385 179.122 40.5271 177.898C40.4747 177.776 40.4398 177.671 40.3874 177.549C40.1255 176.92 39.8636 176.292 39.6192 175.646C39.462 175.262 39.3223 174.877 39.1826 174.511C39.043 174.144 38.9033 173.76 38.7636 173.393C38.5192 172.747 38.2922 172.084 38.0652 171.438C38.0303 171.333 37.9953 171.211 37.943 171.106C37.5111 169.847 37.1083 168.579 36.7294 167.306C36.1188 165.254 34.3244 163.762 32.1888 163.617L8.13756 161.981C5.70693 161.816 3.74929 159.922 3.50258 157.499L2.17432 144.45C1.92756 142.026 3.4642 139.777 5.81223 139.125L29.0732 132.674C31.1395 132.101 32.5989 130.273 32.7879 128.137C32.9049 126.815 33.0459 125.493 33.2112 124.172C33.2286 124.05 33.2461 123.945 33.2635 123.823C33.3508 123.142 33.4381 122.461 33.5429 121.78C33.5952 121.378 33.6651 120.977 33.735 120.575C33.8048 120.173 33.8572 119.789 33.927 119.388C34.0492 118.707 34.1715 118.043 34.2937 117.362C34.3112 117.24 34.346 117.118 34.3635 117.013C34.6201 115.712 34.9007 114.415 35.2054 113.126C35.6992 111.037 34.8918 108.838 33.1097 107.641L13.1074 94.2053C11.0842 92.8462 10.3356 90.2265 11.3354 88.0037L16.7094 76.0556C17.7087 73.8337 20.164 72.6556 22.5225 73.2662L45.8507 79.3059C47.9282 79.8438 50.1079 78.9892 51.3395 77.2317C52.0987 76.1484 52.8772 75.0794 53.6749 74.025C53.7448 73.9202 53.8146 73.8329 53.9019 73.7456C54.321 73.2043 54.7401 72.663 55.1766 72.1218C55.421 71.8075 55.6829 71.4932 55.9448 71.1789C56.2068 70.8646 56.4512 70.5503 56.7131 70.236C57.1496 69.7122 57.6036 69.1884 58.0576 68.6646C58.1449 68.5773 58.2147 68.49 58.2846 68.3852C59.1685 67.3815 60.067 66.3973 60.9801 65.43C62.4472 63.8757 62.8386 61.5782 61.8982 59.6589L51.2878 38.0025C50.2158 35.8146 50.8769 33.1726 52.8529 31.7474L63.487 24.0772C65.464 22.6513 68.1811 22.8587 69.9187 24.5683L87.08 41.4529C88.6117 42.9598 90.9301 43.3091 92.8785 42.4033C94.0778 41.8457 95.2894 41.3096 96.5058 40.7974C96.6106 40.7451 96.7154 40.7101 96.8376 40.6578C97.4836 40.3958 98.1122 40.1339 98.7582 39.872C99.1249 39.7323 99.5091 39.5927 99.8757 39.4355C100.26 39.2958 100.627 39.1387 101.011 38.999C101.657 38.7546 102.303 38.5276 102.949 38.318C103.071 38.2831 103.176 38.2307 103.298 38.1958C104.557 37.764 105.825 37.3612 107.098 36.9823C109.15 36.3716 110.642 34.5772 110.787 32.4416L112.423 8.39043C112.588 5.95981 114.481 4.00217 116.905 3.75545L129.951 2.42753C132.376 2.18062 134.626 3.71919 135.276 6.06911L141.697 29.2877C142.269 31.3557 144.098 32.8169 146.235 33.0061C147.556 33.123 148.876 33.264 150.197 33.4291C150.319 33.4465 150.442 33.464 150.564 33.4815C151.105 33.5513 151.664 33.6211 152.205 33.7084C152.345 33.7259 152.467 33.7434 152.607 33.7783C153.008 33.8307 153.41 33.9005 153.812 33.9704C154.213 34.0402 154.597 34.0926 154.999 34.1624C155.68 34.2846 156.361 34.4069 157.024 34.5466C157.1 34.5617 157.189 34.5768 157.268 34.592C157.292 34.5965 157.316 34.6001 157.339 34.6078V34.6078C157.361 34.6153 157.385 34.6187 157.409 34.6233C158.699 34.8783 159.985 35.1569 161.264 35.4591C163.351 35.9526 165.548 35.1469 166.746 33.3673L180.18 13.4072C181.54 11.3867 184.158 10.64 186.379 11.639L198.331 17.0146C200.553 18.014 201.731 20.4693 201.12 22.8278L195.081 46.1559C194.543 48.2335 195.397 50.4129 197.154 51.6452C198.241 52.4069 199.315 53.1902 200.379 53.9977V53.9977C200.409 54.0272 200.45 54.046 200.482 54.0727C200.536 54.1174 200.592 54.1673 200.658 54.2072C201.2 54.6262 201.758 55.0453 202.3 55.4818C202.614 55.7263 202.911 55.9882 203.225 56.2326C203.539 56.4945 203.871 56.7564 204.185 57.0184C204.29 57.1057 204.395 57.193 204.5 57.2628C204.919 57.612 205.338 57.9787 205.739 58.3454C205.827 58.4327 205.931 58.5025 206.019 58.5898C207.016 59.4591 207.994 60.3523 208.953 61.262C210.51 62.7391 212.817 63.1396 214.744 62.1953L236.384 51.593C238.572 50.5211 241.214 51.1822 242.639 53.1582L250.309 63.7923C251.735 65.7693 251.528 68.4863 249.818 70.2239L232.934 87.3853C231.427 88.9169 231.078 91.2349 231.985 93.1826C232.542 94.3777 233.078 95.5872 233.589 96.8111C233.641 96.9158 233.676 97.0381 233.729 97.1428C233.991 97.7714 234.253 98.4174 234.497 99.0635C234.511 99.0919 234.525 99.1202 234.54 99.1579C234.546 99.1763 234.555 99.1956 234.563 99.2134V99.2134C234.586 99.2625 234.595 99.3162 234.615 99.3665C234.724 99.6406 234.822 99.9268 234.933 100.198C235.073 100.583 235.213 100.949 235.353 101.333C235.597 101.979 235.824 102.625 236.033 103.271C236.068 103.394 236.121 103.498 236.156 103.621C236.588 104.879 236.99 106.148 237.369 107.421C237.98 109.472 239.774 110.965 241.91 111.11L265.961 112.746C268.392 112.911 270.349 114.804 270.596 117.228L271.924 130.273C272.171 132.699 270.632 134.949 268.282 135.599L245.064 142.02C242.996 142.592 241.535 144.421 241.345 146.558C241.239 147.766 241.111 148.974 240.964 150.183C240.937 150.407 240.885 150.628 240.853 150.852V150.852ZM173.664 60.1089C173.123 59.847 172.582 59.62 172.04 59.3755C171.534 59.1485 171.045 58.9216 170.539 58.712C170.417 58.6596 170.277 58.6073 170.155 58.5549C157.67 53.3342 144.068 51.1341 130.571 52.1294C130.432 52.1468 130.292 52.1468 130.152 52.1643C129.559 52.2167 128.948 52.2865 128.354 52.3389C127.813 52.3913 127.271 52.4437 126.73 52.5135C126.59 52.531 126.451 52.5484 126.311 52.5659C112.884 54.2945 100.015 59.1835 88.8231 66.7963C88.7009 66.8836 88.5962 66.9534 88.474 67.0407C87.9851 67.3725 87.4961 67.7392 87.0247 68.0884C86.5882 68.4027 86.1342 68.7169 85.6977 69.0487C85.593 69.136 85.4707 69.2233 85.366 69.3106C74.5928 77.5171 65.8974 88.1855 60.0131 100.373C59.9608 100.495 59.891 100.617 59.8386 100.74C59.5767 101.281 59.3322 101.84 59.0877 102.398C58.8607 102.887 58.6337 103.376 58.4242 103.865C58.3718 103.987 58.3195 104.127 58.2671 104.249C53.0464 116.751 50.8463 130.335 51.8416 143.85C51.859 143.972 51.859 144.112 51.8765 144.234C51.9289 144.845 51.9987 145.439 52.0511 146.05C52.1035 146.591 52.1559 147.15 52.2257 147.691C52.2432 147.813 52.2606 147.953 52.2781 148.075C54.0067 161.52 58.8957 174.406 66.526 185.598C66.5958 185.703 66.6831 185.825 66.753 185.93C67.0672 186.384 67.399 186.82 67.7133 187.257C68.0625 187.746 68.4117 188.235 68.7784 188.724C68.8657 188.828 68.9355 188.933 69.0228 189.038C77.2293 199.811 87.8977 208.507 100.103 214.391C100.225 214.443 100.347 214.513 100.469 214.565C100.976 214.81 101.482 215.019 102.006 215.264C102.547 215.508 103.071 215.753 103.612 215.98C103.735 216.032 103.857 216.084 103.979 216.137C116.463 221.358 130.065 223.558 143.58 222.562C143.719 222.545 143.859 222.545 143.999 222.527C144.557 222.475 145.134 222.423 145.692 222.353C146.269 222.3 146.845 222.248 147.421 222.178C147.561 222.161 147.7 222.143 147.823 222.126C161.25 220.397 174.136 215.508 185.328 207.895C185.433 207.826 185.555 207.738 185.66 207.668C186.114 207.354 186.568 207.022 187.022 206.691C187.493 206.341 187.982 206.01 188.453 205.66C188.558 205.573 188.663 205.503 188.785 205.416C199.558 197.21 208.254 186.541 214.138 174.336C214.19 174.214 214.26 174.092 214.312 173.969C214.539 173.481 214.766 172.974 214.976 172.485C215.22 171.927 215.482 171.385 215.709 170.827C215.762 170.704 215.814 170.582 215.866 170.442C221.087 157.958 223.287 144.356 222.292 130.859C222.275 130.72 222.275 130.562 222.257 130.423C222.205 129.881 222.152 129.34 222.1 128.799C222.048 128.205 221.995 127.629 221.925 127.035C221.908 126.896 221.89 126.739 221.873 126.599C220.144 113.172 215.255 100.303 207.643 89.1284C207.573 89.0062 207.485 88.9014 207.398 88.7792C207.049 88.2728 206.7 87.8014 206.333 87.295C206.019 86.8585 205.704 86.422 205.39 85.9855C205.303 85.8807 205.216 85.7585 205.128 85.6537C196.922 74.8805 186.253 66.1852 174.048 60.3009C173.909 60.2311 173.786 60.1787 173.664 60.1089Z" stroke="#EF0F3A" stroke-width="3" stroke-miterlimit="10"/>
<path d="M108.1 201.767C72.515 185.773 56.6434 143.955 72.6373 108.37C88.6312 72.7855 130.449 56.9138 166.034 72.9078C201.619 88.9017 217.49 130.72 201.497 166.305C185.485 201.889 143.667 217.761 108.1 201.767ZM107 103.586C97.6932 99.3955 86.7629 103.551 82.5898 112.858C78.3993 122.164 82.5549 133.094 91.8614 137.268C101.168 141.458 112.098 137.302 116.271 127.996C120.462 118.689 116.306 107.759 107 103.586ZM161.547 82.8778C152.24 78.6872 141.31 82.8428 137.137 92.1493C132.946 101.456 137.102 112.386 146.408 116.559C155.715 120.75 166.645 116.594 170.818 107.288C174.991 97.9812 170.853 87.0508 161.547 82.8778ZM132.597 135.329C131.497 137.791 132.597 140.69 135.059 141.79C137.521 142.89 140.419 141.79 141.519 139.328C142.619 136.866 141.519 133.967 139.057 132.867C136.595 131.767 133.697 132.867 132.597 135.329ZM127.708 158.115C118.402 153.925 107.471 158.081 103.298 167.387C99.1075 176.694 103.263 187.624 112.57 191.797C121.876 195.988 132.807 191.832 136.98 182.525C141.17 173.236 137.015 162.306 127.708 158.115ZM182.255 137.407C172.948 133.217 162.018 137.372 157.845 146.679C153.654 155.985 157.81 166.916 167.117 171.089C176.423 175.279 187.353 171.124 191.527 161.817C195.7 152.528 191.561 141.598 182.255 137.407Z" stroke="#EF0F3A" stroke-width="3" stroke-miterlimit="10"/>
</g>
</svg>
