<svg width="95" height="95" viewBox="0 0 95 95" fill="none" xmlns="http://www.w3.org/2000/svg">
<g opacity="0.4">
<mask id="path-1-inside-1_1_28437" fill="white">
<path d="M78.459 27.6109C78.5831 27.8244 78.7209 28.027 78.8342 28.2268C78.9071 28.3472 78.98 28.4676 79.0528 28.5881C79.1257 28.7085 79.1986 28.829 79.2578 28.9602C79.3819 29.1737 79.4815 29.3843 79.6056 29.5978C79.6273 29.6252 79.646 29.6771 79.6677 29.7045C79.6973 29.7701 79.7297 29.8112 79.7593 29.8769C80.0451 30.4077 80.3034 30.9601 80.5618 31.5126C80.6506 31.7094 80.7502 31.92 80.8389 32.1169L92.0504 31.0711L94.0228 38.4134L83.7867 43.1166C83.8821 43.998 83.9393 44.8873 83.9828 45.7875C83.9908 45.8257 83.985 45.8748 83.993 45.913C84.0024 46.1503 83.9982 46.3984 84.0076 46.6357C84.004 46.772 84.0113 46.9221 84.0077 47.0584C84.0041 47.1947 84.0114 47.3447 84.0078 47.4811C84.0035 47.7292 83.9993 47.9773 83.9842 48.2117C83.9784 48.2608 83.9864 48.299 83.9806 48.3481C83.9505 49.2396 83.8822 50.139 83.7923 51.0111L94.03 55.7186L92.0728 63.0719L80.8579 62.0289C80.5011 62.8447 80.1089 63.644 79.6922 64.4404C79.6757 64.4758 79.6454 64.5219 79.6288 64.5573C79.5156 64.7802 79.3916 64.9894 79.2813 65.1878C79.2041 65.3155 79.1407 65.4323 79.0635 65.56C78.9864 65.6877 78.9229 65.8046 78.8458 65.9322C78.7218 66.1415 78.5978 66.3507 78.4738 66.5599C78.4572 66.5952 78.4269 66.6414 78.4103 66.6767C77.9366 67.4292 77.4384 68.1787 76.9077 68.8871L83.4362 78.082L78.0553 83.467L68.8623 76.9554C68.1418 77.4799 67.3997 77.9771 66.6468 78.4605C66.6194 78.4822 66.5675 78.5009 66.5401 78.5226C66.3786 78.6279 66.217 78.7333 66.0447 78.8249C66.0036 78.8574 65.9653 78.8653 65.9242 78.8978C65.8038 78.9707 65.6833 79.0436 65.5629 79.1165C65.4425 79.1893 65.322 79.2622 65.1908 79.3214C64.9773 79.4455 64.7667 79.5451 64.5532 79.6692C64.5258 79.6909 64.4876 79.6988 64.4602 79.7204L64.4465 79.7312C63.664 80.1491 62.8599 80.5395 62.0341 80.9025L63.0799 92.114L55.7376 94.0864L51.0344 83.8503C50.8079 83.8734 50.606 83.8994 50.3795 83.9226C49.7765 83.9761 49.1764 84.0051 48.5763 84.0341C48.5135 84.0392 48.44 84.0305 48.3772 84.0356L48.3527 84.0327C48.3145 84.0407 48.2899 84.0378 48.2409 84.032C48.0036 84.0415 47.7555 84.0372 47.5182 84.0467C47.3818 84.0431 47.2318 84.0503 47.0955 84.0467C46.9592 84.0432 46.8091 84.0504 46.6728 84.0469C46.6238 84.0411 46.5855 84.049 46.5365 84.0433C46.3374 84.0448 46.152 84.0355 45.953 84.0369C45.9039 84.0312 45.8657 84.0391 45.8166 84.0334C44.9251 84.0033 44.0256 83.935 43.1536 83.8451L38.4461 94.0828L31.0928 92.1256L32.1359 80.9107C31.32 80.5539 30.5207 80.1617 29.7243 79.745C29.689 79.7284 29.6428 79.6981 29.6074 79.6815C29.3845 79.5684 29.1861 79.458 28.9769 79.334C28.8492 79.2569 28.7324 79.1934 28.6047 79.1163C28.4878 79.0528 28.3601 78.9757 28.2324 78.8986C28.0232 78.7745 27.814 78.6505 27.6048 78.5265C27.5695 78.5099 27.5341 78.4934 27.5017 78.4523C26.7492 77.9786 25.9997 77.4803 25.2912 76.9497L16.0964 83.4782L10.7114 78.0973L17.2231 68.9042C16.6985 68.1838 16.2013 67.4417 15.7179 66.6888C15.6962 66.6614 15.6775 66.6095 15.6558 66.5821C15.5317 66.3686 15.3939 66.1659 15.2806 65.9662C15.2077 65.8457 15.1349 65.7253 15.062 65.6048C14.9891 65.4844 14.9162 65.364 14.857 65.2327C14.7329 65.0193 14.6333 64.8086 14.5092 64.5952C14.4876 64.5678 14.4688 64.5158 14.4472 64.4884C14.0293 63.7059 13.6389 62.9018 13.2759 62.076L2.06439 63.1218L0.0919902 55.7796L10.3281 51.0764C10.2327 50.195 10.1755 49.3056 10.132 48.4055C10.124 48.3672 10.1298 48.3182 10.1218 48.2799C10.1124 48.0426 10.1167 47.7945 10.1072 47.5572C10.1108 47.4209 10.1036 47.2709 10.1071 47.1345C10.1107 46.9982 10.1035 46.8482 10.107 46.7119C10.1113 46.4638 10.1156 46.2156 10.1306 45.9812C10.1364 45.9321 10.1285 45.8939 10.1342 45.8449C10.1643 44.9534 10.2326 44.0539 10.3225 43.1818L0.0847779 38.4744L2.04198 31.121L13.2569 32.1641C13.6137 31.3482 14.0059 30.5489 14.4226 29.7525C14.4392 29.7172 14.4558 29.6818 14.4723 29.6465C14.5855 29.4236 14.7095 29.2144 14.8335 29.0052C14.897 28.8883 14.9741 28.7606 15.0513 28.6329C15.1284 28.5052 15.1919 28.3884 15.269 28.2607C15.393 28.0515 15.5171 27.8423 15.6411 27.6331C15.6576 27.5977 15.6879 27.5515 15.7045 27.5162C16.1782 26.7638 16.6764 26.0142 17.2071 25.3058L10.6786 16.111L16.0595 10.7259L25.2525 17.2376C25.973 16.713 26.7151 16.2159 27.468 15.7324C27.4954 15.7108 27.5473 15.692 27.5747 15.6704C27.7363 15.565 27.8978 15.4597 28.0702 15.368C28.1113 15.3355 28.1495 15.3276 28.1906 15.2951C28.311 15.2223 28.4315 15.1494 28.5519 15.0765C28.6723 15.0036 28.7928 14.9307 28.924 14.8716C29.1375 14.7474 29.3481 14.6478 29.5616 14.5237C29.589 14.5021 29.6272 14.4941 29.6546 14.4725L29.6683 14.4617C30.4508 14.0439 31.255 13.6534 32.0807 13.2904L31.0349 2.07894L38.3772 0.106543L43.0804 10.3426C43.9618 10.2472 44.8511 10.19 45.7513 10.1465L45.7758 10.1494C45.8141 10.1414 45.8386 10.1443 45.8631 10.1472C46.1004 10.1378 46.3485 10.142 46.5995 10.1218C46.7359 10.1253 46.8859 10.1181 47.0222 10.1217C47.1722 10.1144 47.3085 10.118 47.4694 10.1244C47.5184 10.1302 47.5567 10.1222 47.6057 10.128C47.8048 10.1265 47.9902 10.1358 48.1893 10.1343C48.2383 10.1401 48.2765 10.1322 48.3256 10.1379C49.2171 10.168 50.1166 10.2363 50.9886 10.3262L55.6961 0.0885032L63.0494 2.04568L62.0064 13.2606C62.8223 13.6174 63.6215 14.0096 64.4179 14.4263C64.4533 14.4429 64.4995 14.4732 64.5348 14.4898C64.7577 14.6029 64.9669 14.7269 65.1653 14.8373C65.1761 14.851 65.2006 14.8538 65.2006 14.8538C65.2115 14.8675 65.2252 14.8567 65.236 14.8704C65.3283 14.931 65.4344 14.9807 65.5267 15.0413C65.6544 15.1184 65.7713 15.1819 65.899 15.259C66.1082 15.383 66.3174 15.5071 66.5266 15.6311C66.5619 15.6477 66.6081 15.6779 66.6434 15.6945C67.3958 16.1682 68.1454 16.6664 68.8538 17.1971L78.0487 10.6686L83.4337 16.0495L76.9221 25.2425C77.4466 25.963 77.9438 26.7051 78.4272 27.458C78.4186 27.5315 78.4402 27.559 78.459 27.6109ZM39.8083 17.7778C39.6035 17.8283 39.3987 17.8789 39.2047 17.9431C39.0243 17.9965 38.8332 18.0363 38.6392 18.1005C38.5873 18.1193 38.549 18.1272 38.4971 18.146C33.9129 19.4974 29.6983 21.9364 26.2283 25.2336C26.1872 25.266 26.1569 25.3122 26.1295 25.3338C25.9759 25.4774 25.8331 25.6347 25.6795 25.7783C25.5396 25.911 25.3997 26.0438 25.2706 26.1902C25.2295 26.2227 25.1993 26.2689 25.1719 26.2905C21.8808 29.7579 19.4467 33.9723 18.0875 38.5615C18.0818 38.6105 18.0515 38.6567 18.0457 38.7057C17.9844 38.9099 17.9369 39.1032 17.8865 39.321C17.8389 39.5143 17.7805 39.694 17.733 39.8873C17.7272 39.9363 17.7214 39.9854 17.6912 40.0315C16.5851 44.6878 16.5741 49.5471 17.6933 54.2035C17.712 54.2554 17.72 54.2936 17.7251 54.3564C17.7756 54.5612 17.8369 54.7798 17.8875 54.9846C17.9409 55.1649 17.9806 55.356 18.0341 55.5363C18.0528 55.5883 18.0608 55.6265 18.0795 55.6784C19.4309 60.2626 21.87 64.4772 25.1671 67.9472C25.1996 67.9883 25.2212 68.0157 25.2674 68.046C25.411 68.1996 25.5682 68.3424 25.7226 68.5097C25.8554 68.6496 25.9882 68.7895 26.1346 68.9186C26.1671 68.9597 26.2024 68.9763 26.2349 69.0174C29.7022 72.3085 33.9166 74.7425 38.5058 76.1017C38.5549 76.1075 38.5902 76.124 38.6501 76.1435C38.8297 76.2019 39.023 76.2494 39.2163 76.297C39.4205 76.3583 39.6246 76.4195 39.8316 76.4563C39.8807 76.462 39.916 76.4786 39.9651 76.4844C44.6213 77.5904 49.4806 77.6014 54.137 76.4823C54.1752 76.4743 54.2272 76.4555 54.2654 76.4476C54.4565 76.4079 54.6505 76.3436 54.8308 76.2902C55.0357 76.2397 55.2405 76.1891 55.4345 76.1249C55.4865 76.1061 55.5247 76.0982 55.5766 76.0794C60.1608 74.728 64.3754 72.289 67.8454 68.9918C67.8865 68.9594 67.9277 68.9269 67.9442 68.8915C68.0841 68.7588 68.2269 68.6015 68.3668 68.4688C68.5204 68.3252 68.6495 68.1788 68.8031 68.0352C68.8442 68.0027 68.8607 67.9673 68.9018 67.9349C72.193 64.4675 74.627 60.2531 75.9862 55.6639C75.992 55.6149 76.0222 55.5687 76.028 55.5197C76.0755 55.3264 76.1339 55.1467 76.1815 54.9534C76.2427 54.7493 76.2903 54.556 76.3516 54.3518C76.3573 54.3028 76.3739 54.2674 76.3934 54.2076C77.4994 49.5514 77.5104 44.692 76.3913 40.0356C76.3725 39.9837 76.3646 39.9455 76.3458 39.8936C76.3061 39.7024 76.2527 39.5221 76.1992 39.3418C76.1487 39.137 76.0982 38.9321 76.0231 38.7244C76.0043 38.6725 75.9964 38.6343 75.9776 38.5823C74.6262 33.9982 72.1872 29.7835 68.89 26.3135C68.8576 26.2724 68.8114 26.2421 68.7789 26.201C68.6462 26.0611 68.4997 25.9321 68.367 25.7922C68.2234 25.6386 68.0661 25.4958 67.9225 25.3422C67.8901 25.3011 67.8439 25.2708 67.8114 25.2297C64.3441 21.9386 60.1297 19.5045 55.5513 18.159C55.5023 18.1533 55.4561 18.123 55.4071 18.1172C55.2029 18.056 54.9851 18.0055 54.7809 17.9443C54.5876 17.8967 54.408 17.8384 54.2255 17.8045C54.1765 17.7987 54.1411 17.7821 54.0812 17.7627C49.4387 16.6458 44.5657 16.6456 39.9093 17.7648C39.8985 17.7511 39.8466 17.7699 39.8083 17.7778Z"/>
</mask>
<path d="M78.459 27.6109C78.5831 27.8244 78.7209 28.027 78.8342 28.2268C78.9071 28.3472 78.98 28.4676 79.0528 28.5881C79.1257 28.7085 79.1986 28.829 79.2578 28.9602C79.3819 29.1737 79.4815 29.3843 79.6056 29.5978C79.6273 29.6252 79.646 29.6771 79.6677 29.7045C79.6973 29.7701 79.7297 29.8112 79.7593 29.8769C80.0451 30.4077 80.3034 30.9601 80.5618 31.5126C80.6506 31.7094 80.7502 31.92 80.8389 32.1169L92.0504 31.0711L94.0228 38.4134L83.7867 43.1166C83.8821 43.998 83.9393 44.8873 83.9828 45.7875C83.9908 45.8257 83.985 45.8748 83.993 45.913C84.0024 46.1503 83.9982 46.3984 84.0076 46.6357C84.004 46.772 84.0113 46.9221 84.0077 47.0584C84.0041 47.1947 84.0114 47.3447 84.0078 47.4811C84.0035 47.7292 83.9993 47.9773 83.9842 48.2117C83.9784 48.2608 83.9864 48.299 83.9806 48.3481C83.9505 49.2396 83.8822 50.139 83.7923 51.0111L94.03 55.7186L92.0728 63.0719L80.8579 62.0289C80.5011 62.8447 80.1089 63.644 79.6922 64.4404C79.6757 64.4758 79.6454 64.5219 79.6288 64.5573C79.5156 64.7802 79.3916 64.9894 79.2813 65.1878C79.2041 65.3155 79.1407 65.4323 79.0635 65.56C78.9864 65.6877 78.9229 65.8046 78.8458 65.9322C78.7218 66.1415 78.5978 66.3507 78.4738 66.5599C78.4572 66.5952 78.4269 66.6414 78.4103 66.6767C77.9366 67.4292 77.4384 68.1787 76.9077 68.8871L83.4362 78.082L78.0553 83.467L68.8623 76.9554C68.1418 77.4799 67.3997 77.9771 66.6468 78.4605C66.6194 78.4822 66.5675 78.5009 66.5401 78.5226C66.3786 78.6279 66.217 78.7333 66.0447 78.8249C66.0036 78.8574 65.9653 78.8653 65.9242 78.8978C65.8038 78.9707 65.6833 79.0436 65.5629 79.1165C65.4425 79.1893 65.322 79.2622 65.1908 79.3214C64.9773 79.4455 64.7667 79.5451 64.5532 79.6692C64.5258 79.6909 64.4876 79.6988 64.4602 79.7204L64.4465 79.7312C63.664 80.1491 62.8599 80.5395 62.0341 80.9025L63.0799 92.114L55.7376 94.0864L51.0344 83.8503C50.8079 83.8734 50.606 83.8994 50.3795 83.9226C49.7765 83.9761 49.1764 84.0051 48.5763 84.0341C48.5135 84.0392 48.44 84.0305 48.3772 84.0356L48.3527 84.0327C48.3145 84.0407 48.2899 84.0378 48.2409 84.032C48.0036 84.0415 47.7555 84.0372 47.5182 84.0467C47.3818 84.0431 47.2318 84.0503 47.0955 84.0467C46.9592 84.0432 46.8091 84.0504 46.6728 84.0469C46.6238 84.0411 46.5855 84.049 46.5365 84.0433C46.3374 84.0448 46.152 84.0355 45.953 84.0369C45.9039 84.0312 45.8657 84.0391 45.8166 84.0334C44.9251 84.0033 44.0256 83.935 43.1536 83.8451L38.4461 94.0828L31.0928 92.1256L32.1359 80.9107C31.32 80.5539 30.5207 80.1617 29.7243 79.745C29.689 79.7284 29.6428 79.6981 29.6074 79.6815C29.3845 79.5684 29.1861 79.458 28.9769 79.334C28.8492 79.2569 28.7324 79.1934 28.6047 79.1163C28.4878 79.0528 28.3601 78.9757 28.2324 78.8986C28.0232 78.7745 27.814 78.6505 27.6048 78.5265C27.5695 78.5099 27.5341 78.4934 27.5017 78.4523C26.7492 77.9786 25.9997 77.4803 25.2912 76.9497L16.0964 83.4782L10.7114 78.0973L17.2231 68.9042C16.6985 68.1838 16.2013 67.4417 15.7179 66.6888C15.6962 66.6614 15.6775 66.6095 15.6558 66.5821C15.5317 66.3686 15.3939 66.1659 15.2806 65.9662C15.2077 65.8457 15.1349 65.7253 15.062 65.6048C14.9891 65.4844 14.9162 65.364 14.857 65.2327C14.7329 65.0193 14.6333 64.8086 14.5092 64.5952C14.4876 64.5678 14.4688 64.5158 14.4472 64.4884C14.0293 63.7059 13.6389 62.9018 13.2759 62.076L2.06439 63.1218L0.0919902 55.7796L10.3281 51.0764C10.2327 50.195 10.1755 49.3056 10.132 48.4055C10.124 48.3672 10.1298 48.3182 10.1218 48.2799C10.1124 48.0426 10.1167 47.7945 10.1072 47.5572C10.1108 47.4209 10.1036 47.2709 10.1071 47.1345C10.1107 46.9982 10.1035 46.8482 10.107 46.7119C10.1113 46.4638 10.1156 46.2156 10.1306 45.9812C10.1364 45.9321 10.1285 45.8939 10.1342 45.8449C10.1643 44.9534 10.2326 44.0539 10.3225 43.1818L0.0847779 38.4744L2.04198 31.121L13.2569 32.1641C13.6137 31.3482 14.0059 30.5489 14.4226 29.7525C14.4392 29.7172 14.4558 29.6818 14.4723 29.6465C14.5855 29.4236 14.7095 29.2144 14.8335 29.0052C14.897 28.8883 14.9741 28.7606 15.0513 28.6329C15.1284 28.5052 15.1919 28.3884 15.269 28.2607C15.393 28.0515 15.5171 27.8423 15.6411 27.6331C15.6576 27.5977 15.6879 27.5515 15.7045 27.5162C16.1782 26.7638 16.6764 26.0142 17.2071 25.3058L10.6786 16.111L16.0595 10.7259L25.2525 17.2376C25.973 16.713 26.7151 16.2159 27.468 15.7324C27.4954 15.7108 27.5473 15.692 27.5747 15.6704C27.7363 15.565 27.8978 15.4597 28.0702 15.368C28.1113 15.3355 28.1495 15.3276 28.1906 15.2951C28.311 15.2223 28.4315 15.1494 28.5519 15.0765C28.6723 15.0036 28.7928 14.9307 28.924 14.8716C29.1375 14.7474 29.3481 14.6478 29.5616 14.5237C29.589 14.5021 29.6272 14.4941 29.6546 14.4725L29.6683 14.4617C30.4508 14.0439 31.255 13.6534 32.0807 13.2904L31.0349 2.07894L38.3772 0.106543L43.0804 10.3426C43.9618 10.2472 44.8511 10.19 45.7513 10.1465L45.7758 10.1494C45.8141 10.1414 45.8386 10.1443 45.8631 10.1472C46.1004 10.1378 46.3485 10.142 46.5995 10.1218C46.7359 10.1253 46.8859 10.1181 47.0222 10.1217C47.1722 10.1144 47.3085 10.118 47.4694 10.1244C47.5184 10.1302 47.5567 10.1222 47.6057 10.128C47.8048 10.1265 47.9902 10.1358 48.1893 10.1343C48.2383 10.1401 48.2765 10.1322 48.3256 10.1379C49.2171 10.168 50.1166 10.2363 50.9886 10.3262L55.6961 0.0885032L63.0494 2.04568L62.0064 13.2606C62.8223 13.6174 63.6215 14.0096 64.4179 14.4263C64.4533 14.4429 64.4995 14.4732 64.5348 14.4898C64.7577 14.6029 64.9669 14.7269 65.1653 14.8373C65.1761 14.851 65.2006 14.8538 65.2006 14.8538C65.2115 14.8675 65.2252 14.8567 65.236 14.8704C65.3283 14.931 65.4344 14.9807 65.5267 15.0413C65.6544 15.1184 65.7713 15.1819 65.899 15.259C66.1082 15.383 66.3174 15.5071 66.5266 15.6311C66.5619 15.6477 66.6081 15.6779 66.6434 15.6945C67.3958 16.1682 68.1454 16.6664 68.8538 17.1971L78.0487 10.6686L83.4337 16.0495L76.9221 25.2425C77.4466 25.963 77.9438 26.7051 78.4272 27.458C78.4186 27.5315 78.4402 27.559 78.459 27.6109ZM39.8083 17.7778C39.6035 17.8283 39.3987 17.8789 39.2047 17.9431C39.0243 17.9965 38.8332 18.0363 38.6392 18.1005C38.5873 18.1193 38.549 18.1272 38.4971 18.146C33.9129 19.4974 29.6983 21.9364 26.2283 25.2336C26.1872 25.266 26.1569 25.3122 26.1295 25.3338C25.9759 25.4774 25.8331 25.6347 25.6795 25.7783C25.5396 25.911 25.3997 26.0438 25.2706 26.1902C25.2295 26.2227 25.1993 26.2689 25.1719 26.2905C21.8808 29.7579 19.4467 33.9723 18.0875 38.5615C18.0818 38.6105 18.0515 38.6567 18.0457 38.7057C17.9844 38.9099 17.9369 39.1032 17.8865 39.321C17.8389 39.5143 17.7805 39.694 17.733 39.8873C17.7272 39.9363 17.7214 39.9854 17.6912 40.0315C16.5851 44.6878 16.5741 49.5471 17.6933 54.2035C17.712 54.2554 17.72 54.2936 17.7251 54.3564C17.7756 54.5612 17.8369 54.7798 17.8875 54.9846C17.9409 55.1649 17.9806 55.356 18.0341 55.5363C18.0528 55.5883 18.0608 55.6265 18.0795 55.6784C19.4309 60.2626 21.87 64.4772 25.1671 67.9472C25.1996 67.9883 25.2212 68.0157 25.2674 68.046C25.411 68.1996 25.5682 68.3424 25.7226 68.5097C25.8554 68.6496 25.9882 68.7895 26.1346 68.9186C26.1671 68.9597 26.2024 68.9763 26.2349 69.0174C29.7022 72.3085 33.9166 74.7425 38.5058 76.1017C38.5549 76.1075 38.5902 76.124 38.6501 76.1435C38.8297 76.2019 39.023 76.2494 39.2163 76.297C39.4205 76.3583 39.6246 76.4195 39.8316 76.4563C39.8807 76.462 39.916 76.4786 39.9651 76.4844C44.6213 77.5904 49.4806 77.6014 54.137 76.4823C54.1752 76.4743 54.2272 76.4555 54.2654 76.4476C54.4565 76.4079 54.6505 76.3436 54.8308 76.2902C55.0357 76.2397 55.2405 76.1891 55.4345 76.1249C55.4865 76.1061 55.5247 76.0982 55.5766 76.0794C60.1608 74.728 64.3754 72.289 67.8454 68.9918C67.8865 68.9594 67.9277 68.9269 67.9442 68.8915C68.0841 68.7588 68.2269 68.6015 68.3668 68.4688C68.5204 68.3252 68.6495 68.1788 68.8031 68.0352C68.8442 68.0027 68.8607 67.9673 68.9018 67.9349C72.193 64.4675 74.627 60.2531 75.9862 55.6639C75.992 55.6149 76.0222 55.5687 76.028 55.5197C76.0755 55.3264 76.1339 55.1467 76.1815 54.9534C76.2427 54.7493 76.2903 54.556 76.3516 54.3518C76.3573 54.3028 76.3739 54.2674 76.3934 54.2076C77.4994 49.5514 77.5104 44.692 76.3913 40.0356C76.3725 39.9837 76.3646 39.9455 76.3458 39.8936C76.3061 39.7024 76.2527 39.5221 76.1992 39.3418C76.1487 39.137 76.0982 38.9321 76.0231 38.7244C76.0043 38.6725 75.9964 38.6343 75.9776 38.5823C74.6262 33.9982 72.1872 29.7835 68.89 26.3135C68.8576 26.2724 68.8114 26.2421 68.7789 26.201C68.6462 26.0611 68.4997 25.9321 68.367 25.7922C68.2234 25.6386 68.0661 25.4958 67.9225 25.3422C67.8901 25.3011 67.8439 25.2708 67.8114 25.2297C64.3441 21.9386 60.1297 19.5045 55.5513 18.159C55.5023 18.1533 55.4561 18.123 55.4071 18.1172C55.2029 18.056 54.9851 18.0055 54.7809 17.9443C54.5876 17.8967 54.408 17.8384 54.2255 17.8045C54.1765 17.7987 54.1411 17.7821 54.0812 17.7627C49.4387 16.6458 44.5657 16.6456 39.9093 17.7648C39.8985 17.7511 39.8466 17.7699 39.8083 17.7778Z" stroke="#01133C" stroke-width="4" mask="url(#path-1-inside-1_1_28437)"/>
</g>
</svg>
