<svg width="1258" height="222" viewBox="0 0 1258 222" fill="none" xmlns="http://www.w3.org/2000/svg">
<g clip-path="url(#clip0_1_24369)">
<g opacity="0.31" clip-path="url(#clip1_1_24369)">
<path d="M2246.59 1729.38C2090.18 1886.24 1918.4 1937.35 1812.1 1890.96C1699.54 1841.85 1645.43 1701.09 1612.93 1536.38C1578.24 1360.49 1564.34 1152.61 1508.29 964.793C1402.18 609.284 1138.95 331.48 750.907 219.493C516.422 151.823 243.825 144.464 -32.697 83.3626C-331.353 17.3232 -653.231 -123.359 -883.673 -439.79C-1140.49 -792.556 -1250.78 -1406.47 -1015.2 -1861.56" stroke="white" stroke-width="0.5" stroke-miterlimit="10"/>
<path d="M2237.13 1738.04C2079.51 1892.79 1908.63 1938.96 1804.37 1889.06C1694.52 1836.44 1642.35 1695.07 1611.53 1529.01C1578.62 1351.69 1565.8 1142.3 1509.14 954.368C1403.35 601.359 1141.22 326.733 755.762 216.399C521.618 149.804 249.621 143.527 -26.2417 83.5264C-324.118 18.6218 -645.268 -120.745 -875 -435.802C-1130.99 -786.9 -1240.74 -1398.19 -1006.88 -1852.47" stroke="white" stroke-width="0.5" stroke-miterlimit="10"/>
<path d="M2227.62 1746.69C2068.78 1899.33 1898.99 1940.61 1796.67 1887.11C1689.51 1831.04 1639.29 1688.99 1610.11 1521.52C1578.96 1342.82 1567.17 1131.9 1509.98 943.757C1404.51 593.246 1143.43 321.782 760.597 213.179C526.794 147.657 255.397 142.464 -19.8495 83.4855C-316.963 19.7758 -637.308 -118.319 -866.39 -432.018C-1121.56 -781.448 -1230.74 -1390.17 -998.593 -1843.51" stroke="white" stroke-width="0.5" stroke-miterlimit="10"/>
<path d="M2218.16 1755.34C2058.09 1905.94 1889.32 1942.31 1789.03 1885.16C1684.67 1825.67 1636.22 1682.9 1608.73 1514.09C1579.36 1333.95 1568.6 1121.51 1510.87 933.207C1405.7 585.256 1145.94 315.992 765.47 210.021C532.165 145.032 261.15 141.445 -13.4362 83.5674C-309.77 20.9925 -629.37 -115.848 -857.759 -428.111C-1112.09 -775.935 -1220.75 -1381.97 -990.323 -1834.5" stroke="white" stroke-width="0.5" stroke-miterlimit="10"/>
<path d="M2208.65 1763.99C2047.36 1912.48 1879.7 1944.1 1781.27 1883.2C1679.74 1820.42 1633.1 1676.8 1607.31 1506.6C1579.71 1325.08 1569.47 1111.23 1511.69 922.658C1405.93 577.461 1148.28 310.819 770.304 206.802C537.392 142.707 266.926 140.383 -7.06158 83.5885C-302.693 22.1912 -621.488 -113.376 -849.166 -424.265C-1102.68 -770.421 -1210.77 -1373.89 -982.108 -1825.5" stroke="white" stroke-width="0.5" stroke-miterlimit="10"/>
<path d="M2199.19 1772.65C2036.69 1919.04 1870.25 1945.94 1773.63 1881.26C1674.93 1815.2 1630.03 1670.72 1605.93 1499.18C1580.09 1316.29 1570.81 1100.95 1512.58 912.119C1406.97 569.567 1150.62 305.641 775.179 203.655C542.601 140.436 272.741 139.393 -0.646825 83.6807C-295.499 23.4182 -613.489 -110.877 -840.534 -420.348C-1093.22 -764.837 -1200.77 -1365.68 -973.837 -1816.48" stroke="white" stroke-width="0.5" stroke-miterlimit="10"/>
<path d="M2189.67 1781.29C2025.96 1925.57 1860.73 1947.81 1765.87 1879.28C1670.04 1810.02 1626.9 1664.61 1604.45 1491.66C1580.39 1307.33 1572.05 1090.51 1513.36 901.476C1407.85 561.491 1152.89 300.436 780.006 200.421C547.804 138.156 278.509 138.315 5.72075 83.6864C-288.369 24.6187 -605.614 -108.422 -831.949 -416.518C-1083.8 -759.4 -1190.88 -1357.57 -965.613 -1807.55" stroke="white" stroke-width="0.5" stroke-miterlimit="10"/>
<path d="M2180.24 1789.89C2015.31 1932.07 1851.31 1949.78 1758.23 1877.34C1665.3 1805.02 1623.9 1658.55 1603.13 1484.26C1580.83 1298.55 1573.38 1080.23 1514.29 891.017C1408.89 553.599 1155.25 295.396 784.926 197.353C553.118 135.982 284.371 137.404 12.1815 83.858C-281.189 25.9079 -597.585 -105.783 -823.33 -412.538C-1074.36 -753.753 -1180.88 -1349.35 -957.372 -1798.42" stroke="white" stroke-width="0.5" stroke-miterlimit="10"/>
<path d="M2170.73 1798.53C2004.58 1938.61 1841.83 1951.8 1750.47 1875.37C1660.43 1800.03 1620.73 1652.43 1601.66 1476.75C1581.14 1289.59 1574.64 1069.79 1515.08 880.38C1409.85 545.547 1157.49 290.12 789.724 194.047C558.31 133.57 290.11 136.255 18.5972 83.7494C-274.011 26.9941 -589.645 -103.502 -814.696 -408.822C-1064.9 -748.37 -1170.87 -1341.34 -949.04 -1789.58" stroke="white" stroke-width="0.5" stroke-miterlimit="10"/>
<path d="M2161.27 1807.19C1993.89 1945.22 1832.49 1953.92 1742.83 1873.43C1655.65 1795.14 1617.72 1646.36 1600.33 1469.34C1581.58 1280.81 1576.02 1059.53 1516.02 869.854C1410.96 537.605 1159.93 285.031 794.653 190.912C563.614 131.388 295.979 135.277 25.066 83.8538C-266.762 28.2333 -581.669 -100.948 -806.01 -404.893C-1055.38 -742.834 -1160.8 -1333.18 -940.732 -1780.5" stroke="white" stroke-width="0.5" stroke-miterlimit="10"/>
<path d="M2151.76 1815.84C1983.17 1951.76 1823.03 1956.08 1735.07 1871.46C1650.79 1790.37 1614.54 1640.25 1598.84 1461.89C1581.85 1271.98 1577.2 1049.14 1516.77 859.348C1411.82 529.666 1162.11 279.945 799.397 187.797C568.752 129.167 301.665 134.319 31.351 83.9789C-259.715 29.5533 -573.817 -98.3558 -797.507 -400.943C-1046.06 -737.217 -1150.94 -1324.93 -932.59 -1771.45" stroke="white" stroke-width="0.5" stroke-miterlimit="10"/>
<path d="M2142.3 1824.5C1972.49 1958.31 1813.64 1958.39 1727.43 1869.52C1645.95 1785.66 1611.53 1634.17 1597.47 1454.41C1582.26 1263.06 1578.54 1038.79 1517.67 848.741C1412.88 521.644 1164.45 274.758 804.303 184.522C573.974 126.828 307.451 133.183 37.7966 83.9432C-252.55 30.6351 -565.847 -96.0017 -788.844 -397.154C-1036.57 -731.76 -1140.9 -1316.85 -924.287 -1762.56" stroke="white" stroke-width="0.5" stroke-miterlimit="10"/>
<path d="M2132.79 1833.14C1961.76 1964.85 1804.26 1960.7 1719.66 1867.55C1641.05 1781 1608.4 1628.08 1596.03 1446.97C1582.59 1254.25 1579.83 1028.44 1518.48 838.246C1413.86 513.733 1166.73 269.76 809.098 181.418C579.163 124.618 313.188 132.236 44.1327 84.0788C-245.452 31.9656 -557.943 -93.399 -780.29 -393.193C-1027.18 -726.193 -1130.97 -1308.65 -916.112 -1753.44" stroke="white" stroke-width="0.5" stroke-miterlimit="10"/>
<path d="M2123.33 1841.8C1951.09 1971.4 1794.84 1963.12 1712.02 1865.6C1636.18 1776.41 1605.34 1621.98 1594.67 1439.49C1583 1245.32 1581.18 1018.09 1519.38 827.639C1414.93 505.71 1169.06 264.573 814.05 178.219C584.491 122.373 319.081 131.194 50.625 84.12C-238.18 33.1416 -549.926 -90.968 -771.58 -389.327C-1017.65 -720.659 -1120.89 -1300.49 -907.763 -1744.47" stroke="white" stroke-width="0.5" stroke-miterlimit="10"/>
<path d="M2113.82 1850.44C1940.36 1977.94 1785.4 1965.6 1704.24 1863.69C1631.17 1771.91 1602.19 1615.94 1593.15 1432.09C1583.25 1236.55 1582.39 1007.77 1520.13 817.123C1415.84 497.779 1171.23 259.537 818.787 175.094C589.604 120.201 324.759 130.226 56.9192 84.1746C-231.183 34.3737 -542.064 -88.4464 -763.127 -385.465C-1008.37 -715.13 -1111.05 -1292.39 -899.689 -1735.45" stroke="white" stroke-width="0.5" stroke-miterlimit="10"/>
<path d="M2104.36 1859.1C1929.63 1984.47 1775.91 1968.07 1696.56 1861.67C1626.21 1767.42 1599.09 1609.78 1591.81 1424.55C1583.67 1227.63 1583.76 997.366 1521.03 806.521C1416.97 489.779 1173.57 254.356 823.699 171.824C594.832 117.867 330.612 129.112 63.3715 84.1438C-223.951 35.4777 -534.104 -86.0273 -754.457 -381.671C-998.862 -709.729 -1101.02 -1284.3 -891.32 -1726.54" stroke="white" stroke-width="0.5" stroke-miterlimit="10"/>
<path d="M2094.85 1867.75C1918.96 1991.04 1766.44 1970.69 1688.84 1859.79C1621.22 1763.07 1596.01 1603.76 1590.35 1417.18C1583.99 1218.82 1585.03 987.076 1521.84 796.033C1417.97 481.815 1175.79 249.348 828.495 168.727C600.022 115.664 336.349 128.172 69.7679 84.3038C-216.793 36.8326 -526.184 -83.4776 -745.844 -377.686C-989.427 -704.077 -1091.08 -1276.1 -883.068 -1717.46" stroke="white" stroke-width="0.5" stroke-miterlimit="10"/>
<path d="M2085.41 1876.34C1908.29 1997.58 1756.91 1973.27 1681.22 1857.78C1616.25 1758.64 1593.02 1597.63 1589.02 1409.63C1584.42 1209.89 1586.4 976.665 1522.76 785.363C1419.06 473.73 1178.13 244.158 833.409 165.448C605.312 113.339 342.204 127.05 76.2223 84.2651C-209.559 37.9287 -518.162 -81.0493 -737.188 -373.84C-979.933 -698.624 -1081.06 -1267.96 -874.79 -1708.45" stroke="white" stroke-width="0.5" stroke-miterlimit="10"/>
<path d="M2075.9 1884.99C1897.56 2004.12 1747.31 1975.91 1673.46 1855.81C1611.05 1754.35 1589.86 1591.45 1587.58 1402.2C1584.76 1201.02 1587.69 966.308 1523.57 774.869C1420.1 465.837 1180.42 239.161 838.228 162.285C610.447 111.113 347.963 126.043 82.5814 84.3413C-202.497 39.1826 -510.278 -78.5832 -728.612 -369.939C-970.535 -693.055 -1071.11 -1259.76 -866.575 -1699.45" stroke="white" stroke-width="0.5" stroke-miterlimit="10"/>
<path d="M2066.45 1893.65C1886.89 2010.68 1737.66 1978.67 1665.82 1853.88C1606.02 1750.11 1586.85 1585.39 1586.22 1394.72C1585.16 1192.16 1589.06 955.91 1524.48 764.272C1421.24 457.782 1182.74 234.044 843.119 159.079C615.714 108.861 353.735 124.977 89.0128 84.3754C-195.286 40.3514 -502.279 -76.0821 -719.962 -366.08C-961.064 -687.529 -1061.08 -1251.67 -858.287 -1690.5" stroke="white" stroke-width="0.5" stroke-miterlimit="10"/>
<path d="M2056.93 1902.29C1876.16 2017.22 1727.96 1981.4 1658.04 1851.96C1600.73 1745.85 1583.65 1579.33 1584.7 1387.33C1585.41 1183.39 1590.25 945.651 1525.22 753.755C1422.16 449.849 1184.88 229.068 847.915 155.971C620.886 106.706 359.472 124.026 95.3663 84.4467C-188.171 41.6176 -494.419 -73.5612 -711.391 -362.184C-951.654 -682.026 -1051.14 -1243.48 -850.094 -1681.44" stroke="white" stroke-width="0.5" stroke-miterlimit="10"/>
<path d="M2047.48 1910.96C1865.49 2023.77 1718.24 1984.2 1650.4 1850.02C1595.57 1741.64 1580.65 1573.26 1583.4 1379.86C1585.89 1174.49 1591.68 935.266 1526.17 743.231C1423.35 441.867 1187.24 224.024 852.851 152.839C626.122 104.57 365.35 123.05 101.844 84.5539C-180.974 42.8423 -486.417 -71.0641 -702.756 -358.269C-942.197 -676.444 -1041.12 -1235.33 -841.76 -1672.41" stroke="white" stroke-width="0.5" stroke-miterlimit="10"/>
<path d="M2037.96 1919.6C1854.74 2030.37 1708.46 1986.98 1642.64 1848.05C1590.27 1737.44 1577.52 1567.16 1581.9 1372.41C1586.15 1165.65 1592.9 924.888 1526.93 732.655C1424.35 433.832 1189.41 218.988 857.62 149.593C631.267 102.278 371.059 121.961 108.152 84.548C-173.903 44.0313 -478.541 -68.6029 -694.23 -354.45C-932.849 -670.958 -1031.23 -1227.21 -833.612 -1663.43" stroke="white" stroke-width="0.5" stroke-miterlimit="10"/>
<path d="M2028.51 1928.25C1844.07 2036.92 1698.67 1989.81 1635 1846.11C1584.97 1733.25 1574.46 1561.07 1580.54 1364.92C1586.62 1156.81 1594.31 914.558 1527.82 722.11C1425.47 425.889 1191.69 213.983 862.499 146.439C636.522 100.078 376.88 120.964 114.632 84.6514C-166.643 45.2695 -470.536 -66.1099 -685.532 -350.522C-923.312 -665.423 -1021.17 -1218.99 -825.275 -1654.41" stroke="white" stroke-width="0.5" stroke-miterlimit="10"/>
<path d="M2018.99 1936.9C1833.34 2043.46 1688.75 1992.62 1627.24 1844.13C1579.61 1729.04 1571.34 1554.97 1579.1 1357.49C1586.96 1147.93 1595.6 904.201 1528.65 711.553C1426.54 417.874 1193.92 208.967 867.314 143.274C641.636 97.9093 382.636 119.956 120.987 84.7259C-159.526 46.5389 -462.614 -63.5682 -676.959 -346.623C-913.918 -659.856 -1011.21 -1210.85 -817.063 -1645.41" stroke="white" stroke-width="0.5" stroke-miterlimit="10"/>
<path d="M2009.54 1945.56C1822.67 2050.01 1678.82 1995.48 1619.6 1842.19C1574.29 1724.91 1568.33 1548.9 1577.74 1350C1587.36 1139.07 1596.97 893.796 1529.55 700.951C1427.69 409.813 1196.22 203.904 872.208 140.063C646.907 95.6516 388.488 118.841 127.422 84.7541C-152.372 47.6846 -454.672 -61.0901 -668.307 -342.769C-904.444 -654.336 -1001.25 -1202.72 -808.789 -1636.4" stroke="white" stroke-width="0.5" stroke-miterlimit="10"/>
<path d="M2000.03 1954.2C1811.94 2056.55 1668.81 1998.39 1611.84 1840.22C1568.8 1720.72 1565.15 1542.78 1576.24 1342.55C1587.64 1130.18 1598.26 883.438 1530.3 690.436C1428.75 401.858 1198.37 198.93 876.964 136.88C651.961 93.4648 394.185 117.815 133.735 84.7507C-145.296 48.876 -446.833 -58.7038 -659.775 -338.948C-895.073 -648.907 -991.335 -1194.67 -800.619 -1627.48" stroke="white" stroke-width="0.5" stroke-miterlimit="10"/>
<path d="M1990.51 1962.85C1801.21 2063.09 1658.69 2001.2 1604.12 1838.33C1563.34 1716.62 1562.06 1536.76 1574.86 1335.13C1588.03 1121.38 1599.59 873.158 1531.18 679.898C1429.87 393.862 1200.63 193.993 881.897 133.751C657.27 91.2895 399.999 116.825 140.208 84.861C-138.044 50.1212 -438.793 -56.1262 -651.084 -335.013C-885.561 -643.305 -981.278 -1186.44 -792.246 -1618.36" stroke="white" stroke-width="0.5" stroke-miterlimit="10"/>
<path d="M1981.07 1971.45C1790.55 2069.59 1648.63 2004.04 1596.43 1836.32C1557.85 1712.38 1558.95 1530.6 1573.44 1327.64C1588.36 1112.51 1600.89 862.744 1532.02 669.286C1431.01 385.808 1202.87 188.92 886.723 130.529C662.396 89.0647 405.766 115.76 146.575 84.8795C-130.974 51.3172 -430.901 -53.7182 -642.56 -331.187C-876.215 -637.812 -971.37 -1178.37 -784.083 -1609.44" stroke="white" stroke-width="0.5" stroke-miterlimit="10"/>
<path d="M1971.56 1980.09C1779.81 2076.19 1638.51 2006.91 1588.74 1834.36C1552.36 1708.2 1555.9 1524.52 1572.02 1320.14C1588.73 1103.57 1602.27 852.341 1532.8 658.71C1432.03 377.774 1205.03 183.944 891.506 127.284C667.537 86.8335 411.489 114.672 152.897 84.8743C-123.872 52.4468 -423.012 -51.2564 -634.02 -327.367C-866.836 -632.385 -961.462 -1170.26 -775.903 -1600.52" stroke="white" stroke-width="0.5" stroke-miterlimit="10"/>
<path d="M1962.11 1988.75C1769.14 2082.74 1628.32 2009.76 1581.04 1832.4C1546.79 1704.06 1552.83 1518.43 1570.64 1312.72C1589.11 1094.77 1603.68 842.014 1533.68 648.168C1433.22 369.791 1207.29 179.003 896.379 124.133C672.709 84.679 417.303 113.678 159.311 84.963C-116.697 53.7304 -415.091 -48.7179 -625.389 -323.454C-857.383 -626.805 -951.464 -1162.05 -767.651 -1591.45" stroke="white" stroke-width="0.5" stroke-miterlimit="10"/>
<path d="M1952.59 1997.4C1758.41 2089.28 1618.06 2012.61 1573.33 1830.45C1541.22 1699.86 1549.7 1512.34 1569.22 1305.23C1589.47 1085.84 1604.98 831.601 1534.52 637.555C1434.37 361.737 1209.51 173.991 901.207 120.912C677.895 82.4717 423.072 112.614 165.756 84.9389C-109.472 54.8411 -407.121 -46.3521 -616.725 -319.653C-847.898 -621.337 -941.417 -1154.02 -759.348 -1582.55" stroke="white" stroke-width="0.5" stroke-miterlimit="10"/>
<path d="M1943.13 2006.06C1747.74 2095.83 1607.85 2015.52 1565.63 1828.49C1535.67 1695.66 1546.64 1506.25 1567.84 1297.8C1589.85 1077.04 1606.39 821.272 1535.39 627.071C1435.5 353.735 1211.76 169.106 906.065 117.819C683.113 80.3924 428.872 111.677 172.155 85.0852C-102.371 56.165 -399.155 -43.7386 -608.109 -315.682C-838.443 -615.758 -931.434 -1145.75 -751.11 -1573.42" stroke="white" stroke-width="0.5" stroke-miterlimit="10"/>
<path d="M1933.62 2014.7C1737 2102.37 1597.48 2018.32 1557.91 1826.6C1530.01 1691.56 1543.5 1500.2 1566.4 1290.36C1590.18 1068.22 1607.74 810.927 1536.21 616.51C1436.63 345.733 1213.95 164.206 910.897 114.59C688.244 78.1594 434.645 110.605 178.527 85.0956C-95.2186 57.3102 -391.258 -41.3385 -599.519 -311.846C-829.031 -610.256 -921.46 -1137.68 -742.881 -1564.49" stroke="white" stroke-width="0.5" stroke-miterlimit="10"/>
<path d="M1924.16 2023.36C1726.33 2108.92 1587.16 2021.14 1550.21 1824.64C1524.39 1687.34 1540.43 1494.12 1564.96 1282.93C1590.51 1059.35 1609.02 800.569 1537.02 606.014C1437.74 337.796 1216.14 159.31 915.751 111.502C693.457 76.0855 440.44 109.674 184.922 85.2477C-88.0622 58.6571 -383.296 -38.7194 -590.907 -307.869C-819.598 -604.612 -911.541 -1129.42 -734.57 -1555.39" stroke="white" stroke-width="0.5" stroke-miterlimit="10"/>
<path d="M1914.65 2032C1715.59 2115.51 1576.78 2024 1542.51 1822.68C1518.78 1683.11 1537.37 1488.03 1563.6 1275.44C1590.92 1050.48 1610.45 790.175 1537.93 595.405C1438.97 329.685 1218.41 154.361 920.648 108.284C698.636 73.9239 446.218 108.595 191.359 85.2693C-80.9049 59.7962 -375.351 -36.2482 -582.251 -304.023C-810.103 -599.158 -901.519 -1121.28 -726.293 -1546.39" stroke="white" stroke-width="0.5" stroke-miterlimit="10"/>
<path d="M1905.19 2040.66C1704.91 2122.07 1566.41 2026.8 1534.81 1820.72C1513.09 1678.88 1534.26 1481.87 1562.16 1268C1591.26 1041.6 1611.8 779.835 1538.75 584.848C1440.15 321.705 1220.66 149.483 925.478 105.059C703.824 71.7126 451.989 107.527 197.729 85.2838C-73.7725 61.0057 -367.456 -33.8438 -573.723 -300.201C-800.753 -593.669 -891.607 -1113.22 -718.126 -1537.47" stroke="white" stroke-width="0.5" stroke-miterlimit="10"/>
<path d="M1895.68 2049.31C1694.19 2128.61 1555.92 2029.58 1527.11 1818.78C1507.42 1674.65 1531.2 1475.79 1560.74 1260.51C1591.6 1032.74 1613.17 769.44 1539.58 574.299C1441.3 313.654 1222.85 144.593 930.297 101.9C708.924 69.6104 457.748 106.525 204.106 85.3049C-66.6168 62.1615 -359.513 -31.3558 -565.129 -296.355C-791.321 -588.216 -881.647 -1105.08 -709.893 -1528.52" stroke="white" stroke-width="0.5" stroke-miterlimit="10"/>
<path d="M1886.24 2057.9C1683.53 2135.1 1545.48 2032.36 1519.42 1816.75C1501.69 1670.33 1528.09 1469.62 1559.38 1253.02C1592 1023.87 1614.61 758.987 1540.48 563.689C1442.51 305.604 1225.12 139.644 935.186 98.682C714.155 67.4662 463.579 105.464 210.596 85.3438C-59.3645 63.3953 -351.515 -28.8669 -556.421 -292.491C-781.791 -582.685 -871.555 -1096.98 -701.564 -1519.5" stroke="white" stroke-width="0.5" stroke-miterlimit="10"/>
<path d="M1876.73 2066.55C1672.8 2141.64 1534.99 2035.13 1511.71 1814.86C1496 1666.16 1525.01 1463.6 1557.94 1245.59C1592.35 1014.99 1615.96 748.646 1541.31 553.133C1443.72 297.564 1227.29 134.808 940.004 95.5166C719.273 65.2972 469.338 104.455 216.954 85.4181C-52.2865 64.5871 -343.572 -26.3856 -547.845 -288.592C-772.393 -577.119 -861.612 -1088.79 -693.349 -1510.5" stroke="white" stroke-width="0.5" stroke-miterlimit="10"/>
<path d="M1867.28 2075.21C1662.13 2148.2 1524.5 2037.9 1504.01 1812.91C1490.28 1661.85 1521.94 1457.52 1556.5 1238.16C1592.67 1006.18 1617.31 738.31 1542.11 542.641C1444.85 289.571 1229.46 129.977 944.819 92.3566C724.429 63.2111 475.094 103.452 223.309 85.4976C-45.1691 65.8615 -335.71 -23.8562 -539.272 -284.688C-762.982 -571.607 -851.655 -1080.65 -685.094 -1501.42" stroke="white" stroke-width="0.5" stroke-miterlimit="10"/>
<path d="M1857.76 2083.86C1651.41 2154.74 1513.95 2040.66 1496.31 1810.95C1484.54 1657.6 1518.82 1451.42 1555.13 1230.74C1593.08 997.325 1618.74 727.925 1543 532.101C1446.12 281.547 1231.7 125.156 949.757 89.2243C729.692 61.2126 480.973 102.476 229.788 85.605C-37.9109 67.1037 -327.646 -21.3418 -530.576 -280.755C-753.464 -566.008 -841.592 -1072.42 -676.759 -1492.39" stroke="white" stroke-width="0.5" stroke-miterlimit="10"/>
<path d="M1848.31 2092.52C1640.72 2161.35 1503.42 2043.35 1488.61 1809C1478.82 1653.29 1515.76 1445.34 1553.7 1223.24C1593.42 988.451 1620.17 717.543 1543.84 521.485C1447.33 273.507 1233.89 120.262 954.588 86.0004C734.804 59.0452 486.745 101.409 236.159 85.6206C-30.8376 68.2969 -319.768 -18.8762 -522.004 -276.855C-744.07 -560.44 -831.653 -1064.23 -668.548 -1483.39" stroke="white" stroke-width="0.5" stroke-miterlimit="10"/>
<path d="M1838.8 2101.15C1629.99 2167.88 1492.81 2046.07 1480.91 1807.03C1473.05 1648.95 1512.64 1439.23 1552.27 1215.79C1593.75 979.624 1621.52 707.19 1544.66 510.977C1448.47 265.498 1236.05 115.473 959.411 82.8227C739.969 56.9414 492.449 100.371 242.539 85.6228C-23.6776 69.4339 -311.88 -16.4245 -513.466 -273.045C-734.694 -555.023 -821.792 -1056.2 -660.388 -1474.42" stroke="white" stroke-width="0.5" stroke-miterlimit="10"/>
<path d="M1829.35 2109.82C1619.32 2174.44 1482.2 2048.81 1473.21 1805.08C1467.27 1644.62 1509.57 1433.15 1550.91 1208.32C1594.17 970.71 1622.96 696.749 1545.56 500.381C1449.75 257.418 1238.36 110.615 964.302 79.618C745.124 54.8533 498.281 99.3226 248.971 85.6576C-16.4838 70.6635 -303.864 -13.9825 -504.817 -269.186C-725.222 -549.496 -811.775 -1048.04 -652.1 -1465.46" stroke="white" stroke-width="0.5" stroke-miterlimit="10"/>
<path d="M1819.84 2118.46C1608.6 2180.98 1471.61 2051.48 1465.52 1803.12C1461.55 1640.31 1506.52 1427.06 1549.48 1200.88C1594.5 961.891 1624.38 686.422 1546.38 489.88C1450.95 249.434 1240.51 105.895 969.107 76.5088C750.271 52.8179 504.027 98.3704 255.316 85.7883C-9.41864 71.9118 -296.011 -11.4022 -496.253 -265.23C-715.897 -543.891 -801.828 -1039.85 -643.915 -1456.35" stroke="white" stroke-width="0.5" stroke-miterlimit="10"/>
<path d="M1810.37 2127.12C1597.91 2187.54 1461 2054.17 1457.78 1801.23C1455.74 1636.04 1503.36 1421.02 1548.03 1193.45C1594.83 953.022 1625.73 676.026 1547.19 479.329C1452.14 241.399 1242.66 101.064 973.908 73.3489C755.396 50.7918 509.769 97.3672 261.718 85.8853C-2.25508 73.2036 -288.025 -8.89796 -487.634 -261.308C-706.439 -538.362 -791.842 -1031.64 -635.597 -1447.31" stroke="white" stroke-width="0.5" stroke-miterlimit="10"/>
<path d="M1800.86 2135.76C1587.19 2194.07 1450.29 2056.8 1450.09 1799.28C1449.96 1631.71 1500.31 1414.94 1546.66 1186.02C1595.28 944.237 1627.23 665.655 1548.08 468.785C1453.43 233.311 1244.89 96.3006 978.809 70.1361C760.621 48.713 515.61 96.3113 268.159 85.9124C4.96545 74.3655 -280.077 -6.42131 -478.976 -257.456C-696.959 -532.843 -781.817 -1023.49 -627.299 -1438.36" stroke="white" stroke-width="0.5" stroke-miterlimit="10"/>
<path d="M1791.41 2144.42C1576.5 2200.68 1439.7 2059.47 1442.39 1797.32C1444.14 1627.3 1497.18 1408.83 1545.23 1178.52C1595.62 935.358 1628.65 655.268 1548.91 458.225C1454.64 225.267 1247.1 91.5383 983.684 66.9846C765.761 46.678 521.426 95.3163 274.574 86.0003C12.143 75.6483 -272.154 -3.88357 -470.342 -253.544C-687.504 -527.263 -771.8 -1015.34 -619.045 -1429.29" stroke="white" stroke-width="0.5" stroke-miterlimit="10"/>
<path d="M1781.9 2153.01C1565.78 2207.16 1428.99 2062.06 1434.7 1795.3C1438.38 1622.85 1494.12 1402.69 1543.8 1171.03C1595.97 926.425 1630.03 644.809 1549.74 447.611C1455.92 217.186 1249.27 86.7043 988.505 63.7614C770.907 44.5887 527.189 94.25 280.953 85.9569C19.2419 76.7224 -264.19 -1.51988 -461.745 -249.762C-678.068 -521.874 -761.836 -1007.26 -610.808 -1420.41" stroke="white" stroke-width="0.5" stroke-miterlimit="10"/>
<path d="M1772.45 2161.67C1555.11 2213.72 1418.34 2064.72 1427 1793.35C1432.62 1618.47 1491.06 1396.61 1542.44 1163.55C1596.37 917.569 1631.53 634.383 1550.65 437.012C1457.2 209.104 1251.56 81.9033 993.4 60.5538C776.108 42.5752 533.041 93.1391 287.388 85.989C26.4386 77.9494 -256.248 0.962031 -453.153 -245.922C-668.612 -516.29 -751.877 -999.129 -602.595 -1411.41" stroke="white" stroke-width="0.5" stroke-miterlimit="10"/>
<path d="M1762.94 2170.32C1544.39 2220.26 1407.64 2067.3 1419.3 1791.4C1426.78 1614.12 1487.94 1390.51 1541.01 1156.12C1596.72 908.695 1632.96 624.001 1551.46 426.517C1458.41 201.065 1253.68 77.2489 998.219 57.3902C781.252 40.5453 538.741 92.115 293.747 86.065C33.5777 79.1602 -248.304 3.44502 -444.576 -242.022C-659.256 -510.8 -741.916 -990.993 -594.379 -1402.41" stroke="white" stroke-width="0.5" stroke-miterlimit="10"/>
<path d="M1753.49 2178.97C1533.72 2226.81 1396.95 2069.87 1411.59 1789.49C1420.96 1609.71 1484.86 1384.48 1539.58 1148.67C1597.05 899.871 1634.4 613.608 1552.29 415.951C1459.69 193.032 1255.91 72.4803 1003.04 54.215C786.38 38.5642 544.504 91.0965 300.109 86.1295C40.6422 80.4022 -240.434 5.95938 -435.996 -238.132C-649.837 -505.303 -732.012 -982.886 -586.159 -1393.42" stroke="white" stroke-width="0.5" stroke-miterlimit="10"/>
<path d="M1743.97 2187.61C1522.98 2233.34 1386.23 2072.51 1403.88 1787.54C1415.19 1605.32 1481.79 1378.39 1538.19 1141.25C1597.43 891.071 1635.88 603.239 1553.17 405.409C1460.97 184.947 1258.1 67.7792 1007.91 51.0647C791.557 36.6078 550.314 90.103 306.579 86.2362C47.8912 81.6438 -232.458 8.51588 -427.308 -234.201C-640.328 -499.704 -721.958 -974.659 -577.79 -1384.31" stroke="white" stroke-width="0.5" stroke-miterlimit="10"/>
<path d="M1734.52 2196.27C1512.3 2239.95 1375.54 2075.08 1396.18 1785.58C1409.37 1600.9 1478.69 1372.23 1536.77 1133.75C1597.79 882.13 1637.33 592.79 1554 394.847C1462.24 176.918 1260.3 63.0749 1012.75 47.8337C796.7 34.5707 556.092 89.0287 312.955 86.2448C55.03 82.8473 -224.497 10.9314 -418.714 -230.367C-630.912 -494.204 -711.997 -966.53 -569.557 -1375.38" stroke="white" stroke-width="0.5" stroke-miterlimit="10"/>
<path d="M1725 2204.91C1501.57 2246.49 1364.78 2077.64 1388.48 1783.62C1403.56 1596.43 1475.62 1366.14 1535.39 1126.32C1598.17 873.329 1638.81 582.42 1554.88 384.304C1463.52 168.831 1262.5 58.3725 1017.62 44.6821C801.879 32.6131 561.904 88.0339 319.385 86.273C62.2389 84.0102 -216.56 13.4094 -410.067 -226.514C-621.426 -488.744 -701.966 -958.442 -561.288 -1366.37" stroke="white" stroke-width="0.5" stroke-miterlimit="10"/>
<path d="M1715.54 2213.57C1490.89 2253.05 1354.09 2080.17 1380.78 1781.67C1397.74 1592.03 1472.5 1360.04 1533.97 1118.83C1598.53 864.397 1640.31 571.996 1555.71 373.75C1464.8 160.751 1264.67 53.7367 1022.49 41.537C807.059 30.6619 567.719 87.0456 325.799 86.3675C69.3552 85.2824 -208.561 15.9108 -401.436 -222.595C-611.973 -483.157 -691.967 -950.227 -553.018 -1357.35" stroke="white" stroke-width="0.5" stroke-miterlimit="10"/>
<path d="M1706.03 2222.22C1480.16 2259.59 1343.33 2082.74 1373.07 1779.72C1391.93 1587.57 1469.43 1353.97 1532.53 1111.4C1598.85 855.588 1641.75 561.558 1556.53 363.199C1466.09 152.673 1266.87 49.0436 1027.3 38.3772C812.16 28.7562 573.471 86.0426 332.15 86.4475C76.4859 86.4971 -200.703 18.4407 -392.926 -218.707C-602.625 -477.663 -682.075 -942.104 -544.87 -1348.37" stroke="white" stroke-width="0.5" stroke-miterlimit="10"/>
<path d="M1696.59 2230.88C1469.5 2266.15 1332.65 2085.32 1365.45 1777.78C1386.19 1583.12 1466.44 1347.9 1531.24 1103.94C1599.33 846.747 1643.39 551.166 1557.51 352.616C1467.52 144.564 1269.2 44.3783 1032.29 35.1253C817.495 26.7755 579.396 84.9474 338.675 86.4352C83.7732 87.6797 -192.67 20.8783 -384.184 -214.895C-593.06 -472.183 -671.965 -933.997 -536.505 -1339.39" stroke="white" stroke-width="0.5" stroke-miterlimit="10"/>
<path d="M1687.08 2239.46C1458.79 2272.62 1321.86 2087.74 1357.68 1775.8C1380.3 1578.69 1463.25 1341.77 1529.74 1096.48C1599.6 837.847 1644.77 540.697 1558.19 342.077C1468.65 136.558 1271.24 39.7573 1036.96 31.9777C822.457 24.8819 584.949 83.9393 344.887 86.5273C90.7051 88.8894 -184.873 23.3774 -375.753 -210.978C-583.808 -466.599 -662.168 -925.784 -528.376 -1330.36" stroke="white" stroke-width="0.5" stroke-miterlimit="10"/>
<path d="M1677.63 2248.13C1448.12 2279.18 1311.18 2090.26 1350.04 1773.87C1374.58 1574.19 1460.25 1335.71 1528.38 1089C1600.01 828.995 1646.33 530.294 1559.09 331.485C1470.01 128.439 1273.5 35.0823 1041.85 28.7761C827.642 22.9343 590.786 82.8943 351.383 86.5826C97.963 90.1395 -176.87 25.8825 -367.04 -207.098C-574.256 -461.111 -652.071 -917.669 -520.024 -1321.38" stroke="white" stroke-width="0.5" stroke-miterlimit="10"/>
<path d="M1668.11 2256.77C1437.37 2285.78 1300.36 2092.81 1342.28 1771.9C1368.71 1569.71 1457.06 1329.6 1526.94 1081.57C1600.35 820.122 1647.84 519.869 1559.92 320.929C1471.31 120.297 1275.68 30.4449 1046.68 25.5519C832.804 21.0415 596.556 81.8269 357.77 86.5381C105.13 91.2298 -168.898 28.2449 -358.435 -203.317C-564.829 -455.664 -642.159 -909.61 -511.797 -1312.44" stroke="white" stroke-width="0.5" stroke-miterlimit="10"/>
<path d="M1658.65 2265.42C1426.69 2292.32 1289.61 2095.3 1334.63 1769.95C1362.89 1565.23 1454.05 1323.52 1525.56 1074.08C1600.74 811.251 1649.35 509.369 1560.79 310.377C1472.65 112.218 1277.91 25.8104 1051.55 22.3909C838.02 19.1518 602.363 80.8227 364.176 86.6168C112.298 92.5034 -160.985 30.7734 -349.811 -199.414C-555.384 -450.093 -632.151 -901.472 -503.534 -1303.44" stroke="white" stroke-width="0.5" stroke-miterlimit="10"/>
<path d="M1649.15 2274.07C1415.97 2298.87 1278.9 2097.75 1326.88 1767.98C1357.03 1560.75 1450.93 1317.42 1524.08 1066.63C1601.01 802.423 1650.8 498.93 1561.57 299.807C1473.88 104.122 1280.08 21.2357 1056.37 19.2294C843.118 17.3044 608.129 79.818 370.542 86.695C119.383 93.6991 -153.112 33.3016 -341.227 -195.511C-545.962 -444.583 -622.201 -893.273 -495.329 -1294.38" stroke="white" stroke-width="0.5" stroke-miterlimit="10"/>
<path d="M1639.69 2282.73C1405.29 2305.42 1268.15 2100.25 1319.23 1766.04C1351.3 1556.24 1447.86 1311.34 1522.77 1059.16C1601.49 793.519 1652.5 488.491 1562.53 289.221C1475.3 96.0091 1282.4 16.5675 1061.32 16.0346C848.396 15.4409 614.016 78.7799 377.028 86.7398C126.632 94.9387 -145.041 35.7533 -332.583 -191.658C-536.496 -439.064 -612.173 -885.186 -487.046 -1285.43" stroke="white" stroke-width="0.5" stroke-miterlimit="10"/>
<path d="M1630.18 2291.38C1394.57 2311.96 1257.36 2102.74 1311.46 1764.13C1345.36 1551.8 1444.73 1305.3 1521.26 1051.77C1601.74 784.748 1653.93 478.108 1563.26 278.768C1476.5 88.0297 1284.53 12.11 1066.06 12.9131C853.455 13.7108 619.701 77.8153 383.312 86.8581C133.696 96.1919 -137.249 38.3214 -324.082 -187.715C-527.173 -433.453 -602.305 -876.947 -478.846 -1276.37" stroke="white" stroke-width="0.5" stroke-miterlimit="10"/>
<path d="M1620.71 2300.03C1383.89 2318.51 1246.61 2105.24 1303.81 1762.19C1339.62 1547.28 1441.65 1299.21 1519.89 1044.29C1602.13 775.885 1655.5 467.634 1564.16 268.164C1477.93 79.8561 1286.76 7.48355 1070.95 9.69996C858.671 11.8291 625.526 76.7589 389.736 86.8847C140.822 97.396 -129.258 40.815 -315.44 -183.864C-517.692 -427.995 -592.296 -868.801 -470.582 -1267.36" stroke="white" stroke-width="0.5" stroke-miterlimit="10"/>
<path d="M1611.21 2308.68C1373.15 2325.11 1235.83 2107.67 1296.05 1760.22C1333.76 1542.8 1438.54 1293.11 1518.46 1036.85C1602.48 767.014 1657.09 457.169 1564.97 257.671C1479.2 71.8367 1288.98 2.98611 1075.75 6.59853C863.853 10.1364 631.212 75.7968 396.099 86.9628C147.965 98.6089 -121.37 43.283 -306.876 -179.901C-508.306 -422.364 -582.348 -860.602 -462.379 -1258.3" stroke="white" stroke-width="0.5" stroke-miterlimit="10"/>
<path d="M1601.75 2317.34C1362.47 2331.66 1225.09 2110.16 1288.41 1758.28C1327.97 1538.27 1435.53 1287.04 1517.09 1029.37C1602.88 758.15 1658.67 446.693 1565.87 247.065C1480.58 63.6443 1291.26 -1.5646 1080.66 3.32372C869.056 8.31303 637.058 74.6789 402.605 86.9451C155.233 99.7861 -113.357 45.715 -298.153 -176.094C-498.761 -416.89 -572.258 -852.5 -454.034 -1249.33" stroke="white" stroke-width="0.5" stroke-miterlimit="10"/>
<path d="M1592.25 2325.93C1351.76 2338.15 1214.32 2112.53 1280.67 1756.25C1322.14 1533.67 1432.36 1280.87 1515.61 1021.86C1603.18 749.203 1660.21 436.152 1566.66 236.436C1481.9 55.4461 1293.44 -6.19808 1085.44 0.0862651C874.147 6.467 642.775 73.5981 408.921 86.9472C162.329 100.923 -105.456 48.1241 -289.619 -172.267C-489.388 -411.456 -562.34 -844.438 -445.861 -1240.4" stroke="white" stroke-width="0.5" stroke-miterlimit="10"/>
<path d="M1582.79 2334.58C1341.09 2344.7 1203.59 2114.98 1273.02 1754.31C1316.34 1529.14 1429.35 1274.8 1514.31 1014.4C1603.64 740.36 1661.92 425.654 1567.6 225.912C1483.36 47.4122 1295.76 -10.6675 1090.42 -3.0299C879.495 4.81962 648.706 72.6387 415.451 87.0708C169.561 102.224 -97.4188 50.6976 -280.871 -168.318C-479.819 -405.84 -552.286 -836.211 -437.474 -1231.36" stroke="white" stroke-width="0.5" stroke-miterlimit="10"/>
<path d="M1573.29 2343.23C1330.37 2351.24 1192.26 2117.31 1265.25 1752.4C1310.11 1524.62 1426.16 1268.74 1512.8 1007C1603.95 731.605 1663.65 415.159 1568.35 215.398C1484.81 39.2434 1297.99 -14.774 1095.17 -6.15258C884.617 3.56066 654.394 71.6727 421.738 87.1877C176.628 103.476 -89.5641 53.2817 -272.426 -164.394C-470.552 -400.249 -542.474 -827.991 -429.348 -1222.26" stroke="white" stroke-width="0.5" stroke-miterlimit="10"/>
<path d="M1563.83 2351.89C1319.69 2357.79 1182.03 2119.82 1257.61 1750.46C1304.69 1520.13 1423.17 1262.61 1511.43 999.519C1604.37 722.683 1665.09 404.712 1569.25 204.795C1486.03 31.1389 1300.24 -19.6571 1100.08 -9.42492C889.863 1.36213 660.24 70.5572 428.201 87.0951C183.853 104.578 -81.5765 55.5786 -263.745 -160.662C-461.033 -394.91 -532.409 -820.024 -421.028 -1213.42" stroke="white" stroke-width="0.5" stroke-miterlimit="10"/>
</g>
</g>
<defs>
<clipPath id="clip0_1_24369">
<rect width="2021.9" height="1000.42" fill="white" transform="translate(-29.6797 -979.143) rotate(37.4304)"/>
</clipPath>
<clipPath id="clip1_1_24369">
<rect width="2159.7" height="2792.48" fill="white" transform="translate(1061.95 1927.41) rotate(-163.947)"/>
</clipPath>
</defs>
</svg>
