<svg width="510" height="686" viewBox="0 0 510 686" fill="none" xmlns="http://www.w3.org/2000/svg">
<g filter="url(#filter0_d_1_27475)">
<path d="M144.116 609.43C145.783 619.008 154.097 626 163.819 626H349.095C358.855 626 367.19 618.955 368.816 609.332L459.087 74.9974C462.18 56.6917 448.072 40 429.507 40H80.6729C62.0474 40 47.9233 56.7949 51.1173 75.1445L144.116 609.43Z" fill="white"/>
<path d="M145.101 609.258C146.685 618.358 154.583 625 163.819 625H349.095C358.367 625 366.285 618.308 367.83 609.165L458.101 74.8308C461.091 57.1353 447.453 41 429.507 41H80.6729C62.6682 41 49.015 57.235 52.1025 74.973L145.101 609.258Z" stroke="#EF0F3A" stroke-width="2"/>
</g>
<defs>
<filter id="filter0_d_1_27475" x="0.665039" y="0" width="508.85" height="686" filterUnits="userSpaceOnUse" color-interpolation-filters="sRGB">
<feFlood flood-opacity="0" result="BackgroundImageFix"/>
<feColorMatrix in="SourceAlpha" type="matrix" values="0 0 0 0 0 0 0 0 0 0 0 0 0 0 0 0 0 0 127 0" result="hardAlpha"/>
<feOffset dy="10"/>
<feGaussianBlur stdDeviation="25"/>
<feComposite in2="hardAlpha" operator="out"/>
<feColorMatrix type="matrix" values="0 0 0 0 0 0 0 0 0 0 0 0 0 0 0 0 0 0 0.08 0"/>
<feBlend mode="normal" in2="BackgroundImageFix" result="effect1_dropShadow_1_27475"/>
<feBlend mode="normal" in="SourceGraphic" in2="effect1_dropShadow_1_27475" result="shape"/>
</filter>
</defs>
</svg>
