<svg width="308" height="484" viewBox="0 0 308 484" fill="none" xmlns="http://www.w3.org/2000/svg">
<g clip-path="url(#clip0_1_24878)">
<path d="M10.4105 248.488C-33.4225 304.572 -81.3991 337.093 -103.954 385.208C-144.575 471.603 -74.4076 576.639 -67.8777 617.158C-50.6125 632.197 -33.3472 647.235 -16.082 662.273C-2.77502 613.03 -56.5147 511.215 -9.71527 446.647C38.7028 379.978 159.846 394.549 304.34 266.681C358.18 218.968 401.474 168.485 457.948 114.964L149.556 -153.651C106.057 10.1531 96.0736 138.386 10.4105 248.488Z" fill="#2B2B2B"/>
<path d="M-30.8521 563.84C-30.2378 563.869 -29.6242 563.904 -29.0089 563.939C-36.858 519.001 -44.4069 460.086 6.37364 420.811C38.1259 396.241 90.0579 380.589 140.002 357.357C166.949 344.423 184.073 336.255 213.347 317.226C301.263 259.927 358.618 179.629 438.596 98.1079L430.339 90.9158C374.931 149.182 322.601 216.296 273.111 261.656C155.303 373.258 43.3077 375.881 -9.01188 430.736C-46.765 470.125 -37.5769 526.915 -30.8521 563.84Z" fill="#FFC000"/>
<path d="M33.1115 235.166C-45.8665 344.189 -146.316 363.492 -100.106 517.122C-87.2262 559.929 -66.8522 602.434 -64.8416 619.735C-64.8326 619.82 -64.8345 619.808 -63.6287 620.858C-64.4554 603.821 -91.4528 549.321 -103.491 499.362C-136.61 361.935 -37.3914 340.195 39.3174 233.826C112.33 132.88 130.285 3.68967 172.211 -133.919L165.688 -139.601C122.844 9.79743 104.946 137.908 33.1115 235.166Z" fill="#FFC000"/>
<path d="M5.56809 355.684C4.97521 354.817 4.38489 353.947 3.79026 353.078C-9.72956 362.787 -23.4232 372.876 -36.085 384.956C-35.3154 385.529 -34.5458 386.101 -33.7762 386.673C-21.2531 374.89 -7.82383 365.133 5.56809 355.684Z" fill="white"/>
<path d="M83.0769 294.565C83.4245 296.152 83.7668 297.735 84.1039 299.312C104.648 282.514 124.132 263.937 141.708 243.15C141.361 240.739 141.006 238.32 140.642 235.889C124.526 255.925 105.861 275.221 83.0769 294.565Z" fill="white"/>
<path d="M69.1096 305.946C53.0294 318.701 22.2887 340.145 15.5766 344.762C16.1188 345.719 16.6567 346.678 17.1972 347.633C28.5075 340.012 55.1431 321.779 70.2099 310.231C69.8429 308.808 69.4767 307.38 69.1096 305.946Z" fill="white"/>
<path d="M154.745 217.521C155.139 220.221 155.525 222.909 155.898 225.586C177.891 196.919 196.316 166.274 213.088 135.485C212.573 131.472 212.042 127.441 211.499 123.394C195.052 155.05 176.744 187.328 154.745 217.521Z" fill="white"/>
<path d="M225.961 94.8709C226.517 99.3106 227.062 103.731 227.598 108.127C246.572 72.1691 265.243 31.7958 296.846 -25.364L289.558 -31.7117C261.992 19.3718 243.424 60.3449 225.961 94.8709Z" fill="white"/>
</g>
<defs>
<clipPath id="clip0_1_24878">
<rect width="411" height="724.054" fill="white" transform="translate(-16.082 662.273) rotate(-138.944)"/>
</clipPath>
</defs>
</svg>
