<svg width="217" height="487" viewBox="0 0 217 487" fill="none" xmlns="http://www.w3.org/2000/svg">
<g clip-path="url(#clip0_1_24358)">
<path fill-rule="evenodd" clip-rule="evenodd" d="M124.392 83.7661L0.453125 0.34375V77.1601L124.392 160.583V83.7661Z" fill="#EF0F3A"/>
<path d="M124.392 83.7661L0.453125 0.34375V77.1601L124.392 160.583V83.7661Z" fill="url(#paint0_linear_1_24358)"/>
<path fill-rule="evenodd" clip-rule="evenodd" d="M0.460938 197.986L124.384 83.3379V207.698L0.460938 322.347V197.986Z" fill="#EF0F3A"/>
<path d="M0.460938 197.986L124.384 83.3379V207.698L0.460938 322.347V197.986Z" fill="url(#paint1_linear_1_24358)"/>
<path fill-rule="evenodd" clip-rule="evenodd" d="M161.779 493.188L0.511719 332.178V198.004L161.779 359.014V493.188Z" fill="#EF0F3A"/>
<path d="M161.779 493.188L0.511719 332.178V198.004L161.779 359.014V493.188Z" fill="url(#paint2_linear_1_24358)"/>
<path fill-rule="evenodd" clip-rule="evenodd" d="M0.507812 330.511V533.351H203.674L0.507812 330.511Z" fill="#01133C"/>
</g>
<defs>
<linearGradient id="paint0_linear_1_24358" x1="0.453125" y1="0.34375" x2="12394.4" y2="0.34375" gradientUnits="userSpaceOnUse">
<stop stop-color="#022237" stop-opacity="0"/>
<stop offset="1" stop-color="#022237" stop-opacity="0.5"/>
</linearGradient>
<linearGradient id="paint1_linear_1_24358" x1="12392.8" y1="83.3379" x2="0.460938" y2="83.3379" gradientUnits="userSpaceOnUse">
<stop stop-color="#022237" stop-opacity="0"/>
<stop offset="1" stop-color="#022237" stop-opacity="0.5"/>
</linearGradient>
<linearGradient id="paint2_linear_1_24358" x1="0.511719" y1="198.004" x2="16127.3" y2="198.004" gradientUnits="userSpaceOnUse">
<stop stop-color="#022237" stop-opacity="0"/>
<stop offset="1" stop-color="#022237" stop-opacity="0.5"/>
</linearGradient>
<clipPath id="clip0_1_24358">
<rect width="217" height="486" fill="white" transform="translate(0 0.345703)"/>
</clipPath>
</defs>
</svg>
